<?xml version="1.0" standalone="no"?>
<!DOCTYPE svg PUBLIC "-//W3C//DTD SVG 1.1//EN" "http://www.w3.org/Graphics/SVG/1.1/DTD/svg11.dtd" >
<svg>
<metadata>
Created by FontForge 20090622 at Tue May  7 19:34:30 2019
 By deploy user
Copyright (c) 2006 Parachute&#194;&#174;, www.parachute.gr.  All rights reserved.
</metadata>
<defs>
<font id="PFCentroSansPro-Medium" horiz-adv-x="1818" >
  <font-face 
    font-family="PF Centro Sans Pro Medium"
    font-weight="500"
    font-stretch="normal"
    units-per-em="1000"
    panose-1="2 0 5 0 0 0 0 2 0 4"
    ascent="750"
    descent="-250"
    x-height="489"
    cap-height="686"
    bbox="-366 -266 1760 957"
    underline-thickness="60"
    underline-position="-175"
    unicode-range="U+0020-U+FB05"
  />
<missing-glyph horiz-adv-x="440" 
d="M0 0v686h440v-686h-440zM80 49h280l-140 249zM220 388l140 249h-281zM49 594v-501l141 251zM249 342l141 -251v505z" />
    <glyph glyph-name="fj" unicode="fj" horiz-adv-x="590" 
d="M466 714l-15 -83q-82 13 -124 13q-63 0 -94.5 -20t-31.5 -82v-53h312v-424q0 -61 -6 -99t-26 -75t-61 -63t-108 -48q-13 37 -27 68q75 42 97 76.5t22 103.5v386h-203q0 -68 -0.5 -206.5t-0.5 -207.5h-106v414h-69v59l34.5 9t35.5 10v37q0 106 51 154.5t160 48.5
q93 -2 160 -18z" />
    <glyph glyph-name="ffj" unicode="ffj" horiz-adv-x="889" 
d="M768 723l-15 -80q-81 14 -133 14q-61 0 -87.5 -22t-26.5 -81v-65h306v-434q0 -114 -43 -178t-158 -97l-28 68q75 42 97.5 76.5t22.5 103.5v386h-197v-414h-107v414h-197q0 -68 -0.5 -206.5t-0.5 -207.5h-106v414h-68v59q11 4 34 10l35 9v52q0 82 55.5 128t147.5 46
q77 0 147 -19q41 45 159 45q86 -2 163 -21zM401 489v77q0 30 8 56q-45 11 -87 11q-67 0 -93.5 -25t-26.5 -84v-35h199z" />
    <glyph glyph-name="ff" unicode="ff" horiz-adv-x="686" 
d="M303 719q73 0 139 -19q37 41 137 41q52 0 106 -15q-3 -15 -7.5 -41t-6.5 -36q-52 8 -77 8q-88 0 -88 -77v-91h142v-75h-142v-414h-107v414h-197q0 -68 -0.5 -206.5t-0.5 -207.5h-106v414h-69v59l34.5 9t35.5 10v31q0 95 47.5 145.5t159.5 50.5zM202 489h198v84q0 22 4 50
q-41 10 -82 10q-67 0 -93.5 -25t-26.5 -84v-35z" />
    <glyph glyph-name="fi" unicode="fi" horiz-adv-x="582" 
d="M505 0h-109v414h-194q0 -68 -0.5 -206.5t-0.5 -207.5h-106l1 414h-69v59q23 7 70 19v56q0 95 48.5 140t153.5 45q94 -2 168 -21q-12 -69 -15 -81q-89 14 -136 14q-61 0 -87.5 -22t-26.5 -81v-52h303v-490z" />
    <glyph glyph-name="fl" unicode="fl" horiz-adv-x="593" 
d="M339 489v-75h-137q0 -68 -0.5 -206.5t-0.5 -207.5h-106v414h-69v59l34.5 9t35.5 10v47q0 98 52.5 142t152.5 44q68 0 127 -13l88 11q0 -121 -0.5 -362t-0.5 -361h-107v629q-58 9 -92 9q-61 0 -87.5 -22.5t-26.5 -81.5v-45h137z" />
    <glyph glyph-name="ffi" unicode="ffi" horiz-adv-x="888" 
d="M400 490v81q0 24 9 51q-45 11 -87 11q-67 0 -93.5 -25t-26.5 -84v-34h198zM810 0h-109v414h-195v-414h-107v414h-197q0 -68 -0.5 -206.5t-0.5 -207.5h-106v414h-68v59q11 4 34 10l35 9v31q0 97 49.5 147.5t161.5 48.5q70 0 139 -20q50 44 156 44q90 0 170 -21l-15 -80
q-88 14 -142 14q-55 0 -82 -19.5t-27 -82.5v-64h304v-490z" />
    <glyph glyph-name="ffl" unicode="ffl" horiz-adv-x="900" 
d="M506 554v-65h138v-75h-138v-414h-107v414h-197q0 -68 -0.5 -206.5t-0.5 -207.5h-106q0 69 0.5 206.5t0.5 207.5h-69v59q12 4 35.5 10l34.5 9v52q0 83 52 129t155 46q68 0 142 -20q21 20 63.5 32t82.5 12q72 0 143 -16l87 15v-742h-108v647q-59 9 -93 9q-62 0 -88.5 -22
t-26.5 -80zM400 489v37q0 66 9 96q-45 11 -87 11q-67 0 -93.5 -25t-26.5 -84v-35h198z" />
    <glyph glyph-name="ft" unicode="ft" horiz-adv-x="711" 
d="M96 0v415h-69v59l70 19v77q0 158 169 158q74 0 124 -14l-15 -77q-45 7 -84 7q-45 0 -66.5 -17.5t-21.5 -58.5v-78h212q2 4 15.5 59.5t15.5 59.5l69 10v-129h146v-75h-146v-259q0 -39 14.5 -58.5t52.5 -19.5q29 0 89 15l15 -72q-58 -27 -130 -27q-149 0 -149 131v290h-205
v-415h-106z" />
    <glyph glyph-name=".notdef" horiz-adv-x="440" 
d="M0 0v686h440v-686h-440zM80 49h280l-140 249zM220 388l140 249h-281zM49 594v-501l141 251zM249 342l141 -251v505z" />
    <glyph glyph-name=".null" horiz-adv-x="0" 
 />
    <glyph glyph-name="nonmarkingreturn" horiz-adv-x="333" 
 />
    <glyph glyph-name="space" unicode=" " horiz-adv-x="282" 
 />
    <glyph glyph-name="exclam" unicode="!" horiz-adv-x="251" 
d="M73 700h104l-1 -283l-11 -236h-77l-12 236zM189 50q0 -25 -18 -42.5t-46 -17.5q-29 0 -46 17t-17 43q0 25 17 42t46 17t46.5 -17t17.5 -42z" />
    <glyph glyph-name="quotedbl" unicode="&#x22;" horiz-adv-x="313" 
d="M249 466h-61l-16 221h92zM127 466h-60l-16 221h92z" />
    <glyph glyph-name="numbersign" unicode="#" horiz-adv-x="572" 
d="M517 402h-77l-33 -148h76l-7 -59h-82l-43 -195h-66l43 195h-127l-45 -195h-66l44 195h-74l6 59h80l34 148h-81l7 57h87l40 173h65l-40 -173h129l39 173h66l-39 -173h71zM247 402l-34 -148h128l32 148h-126z" />
    <glyph glyph-name="dollar" unicode="$" horiz-adv-x="572" 
d="M425 190q0 41 -37 66.5t-89 41t-104.5 34t-89.5 57.5t-37 100q0 78 49 125.5t128 56.5v106h75v-105q91 -7 151 -39l-23 -71q-77 33 -164 33q-60 0 -93.5 -26t-33.5 -77q0 -34 26.5 -57.5t66.5 -34.5t87 -27t87 -34t66.5 -56t26.5 -92q0 -86 -56 -131.5t-141 -54.5v-105
h-75v104q-105 5 -180 48l28 73q91 -42 189 -42q143 0 143 107z" />
    <glyph glyph-name="percent" unicode="%" horiz-adv-x="860" 
d="M372 464q0 -86 -40 -144.5t-128 -58.5q-171 0 -171 202q0 40 7.5 73.5t25.5 65.5t53.5 50t85.5 18q167 0 167 -206zM288 463q0 144 -83 144q-88 0 -88 -145q0 -67 18.5 -102.5t69.5 -35.5q83 0 83 139zM611 704l-302 -725h-70l304 725h68zM827 198q0 -40 -8.5 -74
t-27 -64t-52.5 -47t-80 -17q-171 0 -171 202q0 40 7.5 73.5t25.5 65.5t53.5 50t85.5 18q167 0 167 -207zM743 198q0 143 -83 143q-88 0 -88 -144q0 -67 18.5 -103t69.5 -36q83 0 83 140z" />
    <glyph glyph-name="ampersand" unicode="&#x26;" horiz-adv-x="755" 
d="M269 -12q-102 0 -166 51t-64 147q0 128 162 216q-51 71 -51 131q0 63 38.5 108t115.5 45q81 0 120 -41.5t39 -96.5q0 -53 -35 -92t-102 -79q80 -115 171 -211q89 84 105 246h85q-6 -102 -37.5 -173t-91.5 -129q73 -69 147 -100l-40 -68q-90 38 -176 115q-98 -69 -220 -69
zM137 192q0 -59 38 -93t96 -34q74 0 148 48q-29 29 -58.5 67t-64.5 87.5l-48 67.5q-111 -63 -111 -143zM241 542q0 -39 43 -100q45 23 69.5 47.5t24.5 58.5q0 30 -20 48.5t-53 18.5q-31 0 -47.5 -23t-16.5 -50z" />
    <glyph glyph-name="quotesingle" unicode="'" horiz-adv-x="214" 
d="M137 466h-61l-15 221h93z" />
    <glyph glyph-name="parenleft" unicode="(" horiz-adv-x="306" 
d="M61 283q0 139 48 249.5t109 180.5l46 -29q-22 -34 -42.5 -77t-43 -133.5t-22.5 -188.5q0 -253 109 -423l-47 -32q-37 42 -68.5 96.5t-60 152t-28.5 204.5z" />
    <glyph glyph-name="parenright" unicode=")" horiz-adv-x="308" 
d="M239 283q0 -153 -48.5 -268t-109.5 -185l-46 32q109 170 109 423q0 98 -22 189t-43 134t-43 76l46 29q61 -70 109 -180.5t48 -249.5z" />
    <glyph glyph-name="asterisk" unicode="*" horiz-adv-x="404" 
d="M227 578l103 56q23 -32 30 -90q-19 -2 -59 -7t-61 -7l86 -81q-35 -36 -74 -54l-50 107q-29 -59 -50 -107q-40 18 -76 54q10 10 40.5 38.5l45.5 43.5l-115 15q8 53 29 90q63 -37 103 -58l-24 114q20 5 49 5q28 0 47 -5z" />
    <glyph glyph-name="plus" unicode="+" horiz-adv-x="572" 
d="M491 266h-163v-169h-71v169h-164v69h164v164h71v-164h163v-69z" />
    <glyph glyph-name="comma" unicode="," horiz-adv-x="234" 
d="M49 53q0 25 18.5 43t46.5 18q33 0 51 -21t18 -53q0 -48 -32.5 -100t-81.5 -76l-26 35q44 41 50 98q-44 9 -44 56z" />
    <glyph glyph-name="hyphen" unicode="-" horiz-adv-x="378" 
d="M322 225h-266v82h266v-82z" />
    <glyph glyph-name="period" unicode="." horiz-adv-x="228" 
d="M176 53q0 -26 -18.5 -44t-46.5 -18q-29 0 -46.5 17.5t-17.5 44.5q0 26 17.5 43.5t46.5 17.5t47 -17.5t18 -43.5z" />
    <glyph glyph-name="slash" unicode="/" horiz-adv-x="350" 
d="M343 703l-258 -733h-73l257 733h74z" />
    <glyph glyph-name="zero" unicode="0" horiz-adv-x="572" 
d="M541 341q0 -69 -13 -128t-41 -110t-79 -80.5t-120 -29.5q-258 0 -258 346q0 53 6.5 100.5t24.5 96t46 83t74.5 56.5t107.5 22q62 0 108.5 -22.5t73 -57t43 -84t22 -95t5.5 -97.5zM432 339q0 33 -1.5 59t-6 60t-14.5 59.5t-25 48.5t-39.5 35t-56.5 12q-150 0 -150 -276
q0 -60 6 -103.5t21.5 -81t46.5 -57t76 -19.5q143 0 143 263z" />
    <glyph glyph-name="one" unicode="1" horiz-adv-x="572" 
d="M242 0v585l-145 -11v73l154 39h98v-686h-107z" />
    <glyph glyph-name="two" unicode="2" horiz-adv-x="572" 
d="M191 84l2 -5h311v-79h-460v73q8 8 47 44l55 51l52 51t54 56.5t44.5 54t39 57.5t22.5 52t10 52q0 59 -34.5 88t-93.5 29q-84 0 -166 -52l-36 65q103 76 225 76q99 0 157 -50.5t58 -145.5q0 -29 -9 -60.5t-20.5 -57t-35.5 -59.5t-39 -53.5t-48 -54t-46 -47l-48.5 -46.5z
" />
    <glyph glyph-name="three" unicode="3" horiz-adv-x="572" 
d="M345 594l-4 8h-271v84h407l15 -67l-190 -192l2 -5q87 -3 145.5 -53.5t58.5 -149.5q0 -110 -72 -169t-183 -59h-5q-126 2 -205 43l26 76q101 -32 165 -32q78 0 121 35t43 105q0 60 -44 92.5t-128 32.5q-25 0 -52 -4l-16 61z" />
    <glyph glyph-name="four" unicode="4" horiz-adv-x="572" 
d="M543 184h-97v-184h-103v184h-313v70l303 432h113v-425h97v-77zM344 563h-6l-107 -152.5l-104 -149.5h217v302z" />
    <glyph glyph-name="five" unicode="5" horiz-adv-x="572" 
d="M255 356q-52 0 -108 -27l-60 35l22 322h372v-83h-285l-12 -184q44 17 100 17q98 0 163 -54.5t65 -160.5q0 -111 -71.5 -170.5t-178.5 -59.5q-128 0 -214 45l25 75q101 -32 167 -32q77 0 120 35.5t43 106.5q0 65 -42.5 100t-105.5 35z" />
    <glyph glyph-name="six" unicode="6" horiz-adv-x="572" 
d="M156 389l5 -3q83 46 160 46q88 0 145.5 -53t57.5 -159t-64 -166.5t-169 -60.5q-243 0 -243 320q0 175 68.5 279.5t208.5 104.5q83 0 148 -30l-20 -76q-58 23 -122 23q-44 0 -78.5 -21t-54 -56.5t-29.5 -72t-13 -75.5zM298 352q-39 0 -73.5 -11.5t-47.5 -20.5t-20 -16v-20
q0 -208 135 -208q61 0 94 38t33 101q0 137 -121 137z" />
    <glyph glyph-name="seven" unicode="7" horiz-adv-x="572" 
d="M393 603h-314v83h420v-74l-268 -612h-104z" />
    <glyph glyph-name="eight" unicode="8" horiz-adv-x="572" 
d="M181 520q0 -23 10 -41t33.5 -33t42.5 -24.5t57 -24.5q82 58 82 118q0 39 -29 70t-86 31q-54 0 -82 -31.5t-28 -64.5zM285 72q63 0 98.5 34.5t35.5 84.5q0 49 -39.5 78.5t-138.5 71.5q-89 -60 -89 -155q0 -49 34.5 -81.5t98.5 -32.5zM505 525q0 -93 -95 -165
q114 -62 114 -175q0 -84 -66.5 -138.5t-175.5 -54.5q-113 0 -176 50t-63 133q0 57 28.5 112.5t91.5 92.5q-47 29 -67.5 60.5t-20.5 78.5q0 77 61.5 127.5t156.5 50.5q38 0 74 -10t68 -29.5t51 -54t19 -78.5z" />
    <glyph glyph-name="nine" unicode="9" horiz-adv-x="572" 
d="M409 299l-6 3q-81 -47 -160 -47q-89 0 -146 53.5t-57 159.5t64.5 167.5t169.5 61.5q242 0 242 -322q0 -173 -69 -277t-209 -104q-96 0 -154 28l20 75q60 -22 127 -22q44 0 78 20.5t54 55.5t31 71.5t15 76.5zM266 336q20 0 39.5 3t33.5 7.5t27.5 11t20.5 11t14 9.5l7 4v22
q0 206 -135 206q-62 0 -95.5 -38t-33.5 -100q0 -136 122 -136z" />
    <glyph glyph-name="colon" unicode=":" horiz-adv-x="229" 
d="M181 54q0 -26 -17.5 -44t-47.5 -18q-29 0 -46.5 18t-17.5 44q0 27 17.5 44.5t46.5 17.5t47 -17.5t18 -44.5zM181 363q0 -26 -18.5 -44t-46.5 -18t-46 18t-18 44q0 27 17.5 44t46.5 17t47 -17t18 -44z" />
    <glyph glyph-name="semicolon" unicode=";" horiz-adv-x="229" 
d="M181 363q0 -26 -18.5 -44t-46.5 -18t-46 18t-18 44q0 27 17.5 44t46.5 17t47 -17t18 -44zM49 53q0 25 18.5 43t46.5 18q33 0 51 -21t18 -53q0 -48 -33 -99.5t-81 -75.5l-27 35q44 41 50 97q-43 9 -43 56z" />
    <glyph glyph-name="less" unicode="&#x3c;" horiz-adv-x="572" 
d="M499 140v-80l-419 208v59l419 208v-81l-328 -156z" />
    <glyph glyph-name="equal" unicode="=" horiz-adv-x="572" 
d="M492 343h-413v68h413v-68zM492 191h-413v67h413v-67z" />
    <glyph glyph-name="greater" unicode="&#x3e;" horiz-adv-x="572" 
d="M80 60v80l329 158l-329 156v81l420 -208v-59z" />
    <glyph glyph-name="question" unicode="?" horiz-adv-x="466" 
d="M254 440q66 57 66 111q0 33 -27.5 51.5t-71.5 18.5q-73 0 -154 -27q-3 9 -7.5 24.5l-8.5 28.5l-8 25q99 35 192 35q97 0 148.5 -38.5t53.5 -107.5q0 -43 -21.5 -81.5t-52.5 -67l-61.5 -55t-52 -56t-21.5 -58.5q0 -5 7 -63l-89 -8q-10 51 -10 85q0 52 27 89.5t91 93.5z
M267 47q0 -25 -17 -41t-45 -16t-45.5 16.5t-17.5 40.5q0 26 17 42.5t45 16.5q29 0 46 -16.5t17 -42.5z" />
    <glyph glyph-name="at" unicode="@" horiz-adv-x="946" 
d="M492 704q173 0 273 -95.5t100 -254.5q-1 -103 -57 -161t-137 -58q-37 0 -70.5 15.5t-48.5 45.5q-53 -55 -135 -55q-64 0 -90.5 36t-26.5 80q0 47 31 77t91 37q42 3 115 11v19q0 40 -14.5 56t-55.5 16q-50 0 -119 -21l-18 62q78 31 156 31q138 0 138 -132v-155
q0 -55 61 -55q43 0 75 37.5t32 109.5q0 133 -80.5 209.5t-219.5 76.5q-141 0 -240 -90t-99 -222q0 -135 89 -224t223 -89q68 0 136 23q4 -10 11 -29.5t11 -29.5q-69 -32 -157 -32q-174 0 -280 106.5t-106 272.5q0 164 119.5 273t292.5 109zM537 327l-81 -8h-1
q-27 -3 -44 -17.5t-17 -36.5q0 -57 58 -57q40 0 85 37v82z" />
    <glyph glyph-name="A" unicode="A" horiz-adv-x="617" 
d="M607 0h-117l-29 92.5l-24 76.5h-261l-53 -169h-114l116.5 346.5l113.5 339.5h143zM413 250l-48 162l-55 187h-4l-53 -183q-1 -4 -24.5 -81t-26.5 -85h211z" />
    <glyph glyph-name="B" unicode="B" horiz-adv-x="631" 
d="M464 361v-4q105 -38 105 -160q0 -89 -56.5 -143t-145.5 -54h-291v685h270q100 0 153 -48.5t53 -130.5q0 -100 -88 -145zM457 199q0 50 -32 83t-92 33h-145v-233h145q65 0 94.5 32t29.5 85zM438 497q0 49 -30 77.5t-91 28.5h-129v-210h129q58 0 89.5 27.5t31.5 76.5z" />
    <glyph glyph-name="C" unicode="C" horiz-adv-x="608" 
d="M371 698q97 0 178 -28l-20 -83q-69 22 -145 22q-103 0 -156 -69t-53 -199q0 -127 47 -193.5t165 -66.5q81 0 162 23l20 -79q-90 -34 -204 -34q-309 0 -309 348q0 49 8.5 96t31 96t56.5 85t90.5 59t128.5 23z" />
    <glyph glyph-name="D" unicode="D" horiz-adv-x="665" 
d="M308 0h-231v686h239q292 0 292 -341q0 -74 -15 -133t-48.5 -108.5t-93.5 -76.5t-143 -27zM300 604h-108v-520h105q194 0 194 255q0 265 -191 265z" />
    <glyph glyph-name="E" unicode="E" horiz-adv-x="583" 
d="M534 0h-458v686h443v-82h-329v-204h277v-78h-277v-239h344v-83z" />
    <glyph glyph-name="F" unicode="F" horiz-adv-x="552" 
d="M190 0h-114v686h439v-83h-325v-211h262v-80h-262v-312z" />
    <glyph glyph-name="G" unicode="G" horiz-adv-x="646" 
d="M386 698q100 0 181 -28l-19 -82q-77 22 -151 22q-222 0 -222 -275q0 -121 44 -187t151 -66q61 0 108 13v262h104v-331q-104 -35 -219 -35q-307 0 -307 349q0 50 8.5 96.5t31.5 95.5t58.5 84.5t95 58.5t136.5 23z" />
    <glyph glyph-name="H" unicode="H" horiz-adv-x="679" 
d="M601 0h-115v317h-296q0 -53 0.5 -159t0.5 -158h-115v685h115q0 -47 -0.5 -141t-0.5 -141h296v282h115v-685z" />
    <glyph glyph-name="I" unicode="I" horiz-adv-x="284" 
d="M198 0h-112v686h112v-686z" />
    <glyph glyph-name="J" unicode="J" horiz-adv-x="334" 
d="M124 139l1 548h113l-1 -547q0 -132 -63.5 -209.5t-193.5 -115.5l-29 79q102 56 137.5 106t35.5 139z" />
    <glyph glyph-name="K" unicode="K" horiz-adv-x="618" 
d="M188 396h7l44 49l227 241h130l-264 -271l276 -415h-131l-220 339l-69 -70v-269h-112v686h112v-290z" />
    <glyph glyph-name="L" unicode="L" horiz-adv-x="556" 
d="M546 0h-470v686h114v-605h356v-81z" />
    <glyph glyph-name="M" unicode="M" horiz-adv-x="852" 
d="M422 186h7l116 270l50 114.5l50 114.5h130v-685h-110v507h-3l-53 -125l-137 -313h-98l-140 324q-8 20 -24 57l-23 54h-2q0 -84 -0.5 -252.5t-0.5 -251.5h-108v685h135l96 -228z" />
    <glyph glyph-name="N" unicode="N" horiz-adv-x="709" 
d="M517 173h6v512h109v-685h-112l-133 209l-117 184l-81 131h-1q-2 -1 -3 -1v-523h-109v685h114l233 -363z" />
    <glyph glyph-name="O" unicode="O" horiz-adv-x="720" 
d="M663 342q0 -156 -77.5 -253.5t-221.5 -97.5q-158 0 -232.5 91.5t-74.5 256.5q0 75 17 138t52.5 113t96 78.5t141.5 28.5t140.5 -28.5t93.5 -79t49.5 -112t15.5 -135.5zM544 339q0 276 -180 276q-189 0 -189 -277q0 -131 45 -197t144 -66q90 0 135 73t45 191z" />
    <glyph glyph-name="P" unicode="P" horiz-adv-x="574" 
d="M540 482q0 -36 -11.5 -71t-34.5 -67t-66.5 -51.5t-100.5 -19.5h-137l1 -273h-115v686h241q105 0 164 -53.5t59 -150.5zM304 604h-114v-250h118q50 0 83.5 29.5t33.5 95.5q0 62 -33.5 93.5t-87.5 31.5z" />
    <glyph glyph-name="Q" unicode="Q" horiz-adv-x="722" 
d="M662 340q0 -109 -38.5 -191t-112.5 -121q24 -7 152 -40q-6 -14 -17 -44t-17 -45l-281 92q-152 11 -222 98t-70 250q0 75 17 138t52.5 113t96 78.5t141.5 28.5t140.5 -28.5t93.5 -79.5t49.5 -112.5t15.5 -136.5zM543 339q0 274 -180 274q-189 0 -189 -276
q0 -131 45 -197.5t144 -66.5q90 0 135 73.5t45 192.5z" />
    <glyph glyph-name="R" unicode="R" horiz-adv-x="613" 
d="M545 493q0 -61 -31 -110t-89 -67q37 -12 56 -41.5t34 -79.5l56 -195h-113q-36 122 -53 184q-16 59 -45.5 81.5t-78.5 22.5h-93v-288h-112v686h255q105 0 159.5 -53t54.5 -140zM188 370h123q47 0 82.5 26.5t35.5 90.5q0 59 -32.5 87.5t-86.5 28.5h-122v-233z" />
    <glyph glyph-name="S" unicode="S" horiz-adv-x="595" 
d="M303 698q122 0 202 -45l-32 -78q-80 34 -174 34q-55 0 -87.5 -27.5t-32.5 -80.5q0 -23 11 -40t35.5 -29t44.5 -18t55 -15q100 -26 138 -49q86 -51 86 -159q0 -98 -70.5 -149t-198.5 -51q-135 0 -234 54l33 81q104 -46 207 -46q74 0 110 25.5t36 85.5q0 49 -32 71t-100 40
q-42 11 -62.5 17t-54.5 18.5t-51 25t-36 32t-27 45t-8 58.5q0 92 65 146t177 54z" />
    <glyph glyph-name="T" unicode="T" horiz-adv-x="584" 
d="M348 0h-112v601h-219v85h550v-85h-218z" />
    <glyph glyph-name="U" unicode="U" horiz-adv-x="685" 
d="M616 686l-1 -437q0 -121 -68.5 -189.5t-204.5 -68.5q-272 0 -272 258v437h112v-440q0 -171 162 -171q77 0 119 42.5t42 128.5l-1 440h112z" />
    <glyph glyph-name="V" unicode="V" horiz-adv-x="596" 
d="M295 109h6l16 56t21 76l129 445h119l-221 -686h-136l-220 686h120q13 -42 131 -446q7 -24 18.5 -69.5t16.5 -61.5z" />
    <glyph glyph-name="W" unicode="W" horiz-adv-x="885" 
d="M438 532l-7 1q-6 -28 -32 -161q-8 -31 -83 -372h-140l-167 686h119l42 -189l43 -193q2 -8 15 -74l20 -99h6l33 163l43.5 195t43.5 197h121l28 -108l46 -178l26 -100q2 -6 10.5 -41l18.5 -76t12 -51h7l20.5 103.5t14.5 75.5q76 349 82 375h116l-166 -686h-137l-97 372
l-17.5 77t-20.5 83z" />
    <glyph glyph-name="X" unicode="X" horiz-adv-x="597" 
d="M230 356l-207 329h128l151 -259l153 259h127l-215 -332l221 -353h-126l-88 147.5l-79 131.5l-162 -279h-126z" />
    <glyph glyph-name="Y" unicode="Y" horiz-adv-x="576" 
d="M225 0v283l-216 403h118l40.5 -79.5l49.5 -99.5l66 -138h5q12 23 35.5 72t35.5 72l91 173h116l-221 -399v-287h-120z" />
    <glyph glyph-name="Z" unicode="Z" horiz-adv-x="560" 
d="M169 92l3 -6l368 -1v-85h-520v79l351 516l-3 6h-323v85h477v-78z" />
    <glyph glyph-name="bracketleft" unicode="[" horiz-adv-x="284" 
d="M249 -160h-191v858h191v-66h-97v-727h97v-65z" />
    <glyph glyph-name="backslash" unicode="\" horiz-adv-x="350" 
d="M269 -30l-257 733h73l258 -733h-74z" />
    <glyph glyph-name="bracketright" unicode="]" horiz-adv-x="284" 
d="M225 -160h-189v65h96v727h-96v66h189v-858z" />
    <glyph glyph-name="asciicircum" unicode="^" horiz-adv-x="463" 
d="M435 369h-77l-130 230l-132 -230h-76l180 311h57z" />
    <glyph glyph-name="underscore" unicode="_" horiz-adv-x="500" 
d="M500 -138h-500v57h500v-57z" />
    <glyph glyph-name="grave" unicode="`" horiz-adv-x="501" 
d="M298 533l-159 138l69 71l135 -164z" />
    <glyph glyph-name="a" unicode="a" horiz-adv-x="552" 
d="M455 332v-256h65l6 -62q-44 -22 -101 -22q-34 0 -51 12.5t-19 47.5l-2 2q-73 -63 -169 -63q-41 0 -71.5 14t-46 36t-22.5 45t-7 46q0 68 54.5 106t139.5 42l119 8v27q0 55 -21 77t-78 22q-75 0 -153 -26q-8 30 -20 70q90 40 199 40q87 0 132.5 -38.5t45.5 -127.5z
M350 227l-113 -8q-85 -6 -85 -75q0 -77 79 -77q58 0 119 55v105z" />
    <glyph glyph-name="b" unicode="b" horiz-adv-x="545" 
d="M160 462q1 0 2.5 -1.5t3.5 -2.5q75 44 145 44q189 0 189 -259q0 -250 -224 -250q-125 0 -222 45v675h109v-144zM283 416q-56 0 -119 -36v-286q46 -21 106 -21q58 0 88.5 38t30.5 130q0 100 -27.5 137.5t-78.5 37.5z" />
    <glyph glyph-name="c" unicode="c" horiz-adv-x="469" 
d="M155 246q0 -169 131 -169q61 0 137 29l24 -73q-75 -40 -177 -40q-226 0 -226 246q0 36 5.5 69.5t21.5 69.5t40.5 62t67 43t97.5 17q82 0 146 -24l-20 -78q-51 16 -112 16q-64 0 -99.5 -45t-35.5 -123z" />
    <glyph glyph-name="d" unicode="d" horiz-adv-x="546" 
d="M248 501q79 0 133 -34v246h109v-713h-104l-1 45l-2 2q-65 -53 -151 -53q-188 0 -188 241q0 122 49 194t155 72zM381 117v270q-18 12 -51.5 21.5t-60.5 9.5q-114 0 -114 -183q0 -89 28.5 -125.5t81.5 -36.5q25 0 61 14t55 30z" />
    <glyph glyph-name="e" unicode="e" horiz-adv-x="523" 
d="M270 501q210 0 210 -236v-39h-325q0 -151 132 -151q74 0 157 33l24 -68q-87 -47 -194 -47q-67 0 -113.5 19.5t-71 55.5t-35 78.5t-10.5 97.5q0 32 5 64t20.5 68t39.5 62.5t65.5 44.5t95.5 18zM273 423q-103 0 -116 -129h221q-3 129 -105 129z" />
    <glyph glyph-name="f" unicode="f" horiz-adv-x="386" 
d="M102 0v415h-68v59l69 19v71q0 158 170 158q66 0 117 -14l-14 -76q-42 8 -79 8q-44 0 -66 -17.5t-22 -58.5v-74h142v-75h-142q0 -9 -0.5 -207t-0.5 -208h-106z" />
    <glyph glyph-name="g" unicode="g" horiz-adv-x="571" 
d="M122 194l2 3q-63 35 -63 125t61 135t147 45q57 0 98 -12h166v-61h-73l-2 -5q30 -34 30 -97q0 -80 -60 -124.5t-155 -44.5l-55 -1q-71 0 -71 -34q0 -13 12.5 -21t33.5 -8h135q92 0 141.5 -37t49.5 -110t-67 -118.5t-193 -45.5q-218 0 -218 142q0 36 19 66t45 45
q-58 14 -58 71q0 66 75 87zM308 22h-109q-19 -7 -35.5 -31t-16.5 -47q0 -39 27.5 -62t100.5 -23q64 0 99 23t35 62q0 78 -101 78zM379 327q0 42 -25 71t-81 29q-51 0 -77.5 -26.5t-26.5 -73.5q0 -45 26 -71.5t70 -26.5q51 0 82.5 24.5t31.5 73.5z" />
    <glyph glyph-name="h" unicode="h" horiz-adv-x="539" 
d="M159 450l8 -4q98 55 170 55q48 0 78.5 -13t44.5 -38.5t18.5 -50.5t4.5 -61v-338h-109v314q0 54 -14.5 77t-63.5 23q-58 0 -132 -43v-371h-110v713h108v-159z" />
    <glyph glyph-name="i" unicode="i" horiz-adv-x="274" 
d="M190 0h-109v489h109v-489zM204 621q0 -26 -19 -44.5t-49 -18.5q-29 0 -47.5 18.5t-18.5 44.5q0 27 18.5 45.5t47.5 18.5q30 0 49 -18.5t19 -45.5z" />
    <glyph glyph-name="j" unicode="j" horiz-adv-x="284" 
d="M89 32v457h109q0 -443 -1 -466q-3 -104 -46 -157.5t-151 -87.5q-4 8 -16 38t-15 36q75 42 97.5 76.5t22.5 103.5zM212 621q0 -27 -18.5 -45t-48.5 -18q-29 0 -47.5 18t-18.5 45t18.5 45.5t47.5 18.5q30 0 48.5 -18.5t18.5 -45.5z" />
    <glyph glyph-name="k" unicode="k" horiz-adv-x="489" 
d="M160 304l6 -2l180 187h123l-187 -192l34 -41l167 -256h-121l-148 233l-50 -50v-183h-110v712h110l-1 -306q0 -3 -3 -102z" />
    <glyph glyph-name="l" unicode="l" horiz-adv-x="248" 
d="M178 713l-1 -713h-108v713h109z" />
    <glyph glyph-name="m" unicode="m" horiz-adv-x="834" 
d="M778 0h-110v317q0 51 -16 73.5t-62 22.5q-66 0 -125 -39q5 -28 5 -65v-309h-108q0 55 -0.5 165t-0.5 165q0 82 -70 82q-60 0 -128 -42v-370h-109v489h104l2 -46l4 -3q83 59 167 59q83 0 119 -61q36 26 86 44t90 18q48 0 80 -14t47 -40.5t20 -52.5t5 -61v-332z" />
    <glyph glyph-name="n" unicode="n" horiz-adv-x="539" 
d="M483 0h-109v314q0 54 -15.5 77t-62.5 23q-58 0 -132 -43v-371h-110v489h105l1 -43l4 -2q89 57 171 57q38 0 66 -9.5t43.5 -24t24.5 -37t11.5 -43.5t2.5 -49v-338z" />
    <glyph glyph-name="o" unicode="o" horiz-adv-x="550" 
d="M506 244q0 -51 -12.5 -94.5t-38.5 -80t-73.5 -57.5t-111.5 -21q-119 0 -172.5 69.5t-53.5 182.5q0 70 22.5 126t76.5 93.5t135 37.5q62 0 107.5 -21t71 -58t37.5 -81t12 -96zM392 243q0 177 -114 177q-34 0 -59 -15.5t-38 -42t-18.5 -55.5t-5.5 -64q0 -81 25.5 -126.5
t95.5 -45.5q114 0 114 172z" />
    <glyph glyph-name="p" unicode="p" horiz-adv-x="545" 
d="M160 446l5 -4q68 54 147 54q188 0 188 -247q0 -117 -48.5 -187.5t-153.5 -70.5q-86 0 -135 32v-231h-109v698h104zM275 70q115 0 115 183q0 89 -29 124.5t-82 35.5q-26 0 -62 -14.5t-53 -30.5v-267q16 -12 49.5 -21.5t61.5 -9.5z" />
    <glyph glyph-name="q" unicode="q" horiz-adv-x="546" 
d="M383 21q-4 4 -7 5q-73 -37 -137 -37q-194 0 -194 236q0 272 233 272q115 0 212 -43q0 -111 -0.5 -332t-0.5 -330h-107v127q0 68 1 102zM261 72q55 0 119 35v290q-43 19 -100 19q-122 0 -125 -173q0 -97 27.5 -134t78.5 -37z" />
    <glyph glyph-name="r" unicode="r" horiz-adv-x="380" 
d="M168 416l6 -4q41 37 91 63.5t87 26.5q26 0 26 -29q0 -20 -11 -53.5t-24 -50.5l-85 -6t-83 -5v-358h-110v489h108q-2 -36 -5 -73z" />
    <glyph glyph-name="s" unicode="s" horiz-adv-x="466" 
d="M245 500q95 0 158 -36q-3 -7 -14 -35.5t-14 -35.5q-66 26 -129 26q-37 0 -61.5 -15t-24.5 -47q0 -17 18 -31t33.5 -19.5t44.5 -14.5l51 -15.5t44.5 -18.5t42.5 -28t24.5 -38.5t11.5 -55.5q0 -71 -55 -107t-154 -36q-112 0 -186 39l29 71q80 -33 159 -33q99 0 99 67
q0 29 -21.5 43.5t-67.5 29.5l-9 3q-91 30 -119 49q-51 34 -51 96q0 69 51.5 105.5t139.5 36.5z" />
    <glyph glyph-name="t" unicode="t" horiz-adv-x="378" 
d="M124 609l72 10v-129h145v-75h-146v-259q0 -39 14.5 -58.5t52.5 -19.5q27 0 89 15l15 -72q-57 -27 -130 -27q-148 0 -148 131v290h-70v59l76 23l14.5 56.5t15.5 55.5z" />
    <glyph glyph-name="u" unicode="u" horiz-adv-x="528" 
d="M199 -11q-47 0 -78 13t-44.5 38t-18 49.5t-4.5 60.5v339h109v-314q0 -24 2 -39t9 -30.5t23 -23t42 -7.5q63 0 125 55v359q19 0 55 0.5t54 0.5v-490h-104l-2 54l-3 2q-76 -67 -165 -67z" />
    <glyph glyph-name="v" unicode="v" horiz-adv-x="503" 
d="M251 77h5q2 5 21 74.5t32 108.5l30 90.5l29.5 93t14.5 45.5h110l-85 -241.5l-88 -247.5h-141l-170 489h113l78 -240q6 -19 24 -83t27 -89z" />
    <glyph glyph-name="w" unicode="w" horiz-adv-x="765" 
d="M542 96h6l33 148l63 246h108l-140 -490h-124l-65 219l-43 167h-6l-40 -167l-59 -219h-124l-139 490h109l62 -241l35 -153h5l37 158l65 236h105l73 -245z" />
    <glyph glyph-name="x" unicode="x" horiz-adv-x="472" 
d="M346 0l-50.5 88.5t-61.5 104.5l-56.5 -96.5l-56.5 -96.5h-117l166 255l-81 124l-71 110h121l44.5 -79.5t53.5 -91.5l50 85.5l50 85.5h118l-155 -232l166 -257h-120z" />
    <glyph glyph-name="y" unicode="y" horiz-adv-x="494" 
d="M248 68l27 94l52 172.5l47 154.5h109l-195 -579q-39 -125 -159 -125q-46 0 -107 17l16 74q50 -10 76 -10q32 0 50 14t30 51l8 24.5l9 27.5t8 23h-51l-48 153.5l-56 178l-48 151.5h109l94 -329q7 -25 23 -92h6z" />
    <glyph glyph-name="z" unicode="z" horiz-adv-x="436" 
d="M149 82l2 -6h275v-76h-415v63l266 345l-2 5h-236v77h375v-64z" />
    <glyph glyph-name="braceleft" unicode="{" horiz-adv-x="292" 
d="M270 -167h-66q-109 0 -106 154v5v170q0 87 -68 99v58q68 14 68 106v113q0 164 100 164h72v-65h-24q-53 0 -53 -66v-153q0 -51 -13.5 -83.5t-51.5 -42.5q41 -20 53 -51.5t12 -94.5v-184q0 -31 10 -48t39 -17h28v-64z" />
    <glyph glyph-name="bar" unicode="|" horiz-adv-x="274" 
d="M172 -142h-75v845h75v-845z" />
    <glyph glyph-name="braceright" unicode="}" horiz-adv-x="292" 
d="M90 -167h-67v64h28q29 0 39.5 17t10.5 48v184q0 64 11.5 95.5t52.5 50.5q-64 18 -64 119v160q0 66 -53 66h-25v65h73q33 0 54.5 -13t30.5 -36.5t12 -44.5t3 -49v-134q0 -94 68 -106v-58q-68 -10 -68 -99v-170q0 -75 -19 -110q-28 -48 -87 -49z" />
    <glyph glyph-name="asciitilde" unicode="~" horiz-adv-x="572" 
d="M396 240q-44 0 -116 23t-97 23l-72 -47l-40 33q38 95 121 95q34 0 111 -23.5t105 -23.5l68 48l40 -31q-39 -97 -120 -97z" />
    <glyph glyph-name="uni00A0" unicode="&#xa0;" horiz-adv-x="282" 
 />
    <glyph glyph-name="exclamdown" unicode="&#xa1;" horiz-adv-x="251" 
d="M178 -212h-105q1 36 2.5 125.5t2.5 125.5q2 69 10 267h77q1 -45 5 -157t5 -156q3 -63 3 -205zM188 437q0 -26 -17 -42.5t-46 -16.5q-28 0 -45.5 17t-17.5 42q0 26 17.5 43.5t46.5 17.5q27 0 44.5 -17.5t17.5 -43.5z" />
    <glyph glyph-name="cent" unicode="&#xa2;" horiz-adv-x="572" 
d="M270 598h75v-99q66 -5 115 -23l-21 -78q-54 17 -111 17q-61 0 -98 -43t-37 -126q0 -168 130 -168q64 0 137 28l25 -72q-57 -32 -140 -39v-99h-75v99q-189 18 -189 244q0 46 9.5 86.5t30 78t59 62t90.5 31.5v101z" />
    <glyph glyph-name="sterling" unicode="&#xa3;" horiz-adv-x="572" 
d="M70 379h69q2 60 6.5 102t17.5 85.5t35 70t60 43t91 16.5q99 0 173 -36l-29 -76q-63 27 -133 27q-20 0 -36 -3.5t-28 -12t-20.5 -16t-14.5 -24.5l-9.5 -27.5t-5.5 -33.5l-3 -35t-2 -40t-2 -40h172v-64h-176q-1 -55 -4 -90.5t-15 -82.5t-34 -67h333v-75h-460v74
q69 34 75 167l4 74h-64v64z" />
    <glyph glyph-name="currency" unicode="&#xa4;" horiz-adv-x="556" 
d="M151 306q0 -52 36.5 -88.5t89.5 -36.5q51 0 88 36.5t37 88.5t-36.5 88.5t-88.5 36.5t-89 -36.5t-37 -88.5zM118 418l-64 64l47 47l64 -64q51 37 113 37q61 0 112 -37l64 64l48 -48l-66 -62q36 -50 36 -112q0 -61 -36 -113l66 -61l-48 -49l-65 64q-47 -36 -111 -36
t-112 36l-65 -65l-47 49l64 62q-37 49 -37 111q0 66 37 113z" />
    <glyph glyph-name="yen" unicode="&#xa5;" horiz-adv-x="572" 
d="M65 254h161v27l-11 23h-150v48h127l-158 334h111l81 -190l55 -130h5l52 121l88 199h108l-163 -334h130v-48h-152l-11 -21v-29h163v-49h-163v-205h-111v205h-162v49z" />
    <glyph glyph-name="brokenbar" unicode="&#xa6;" horiz-adv-x="274" 
d="M172 346h-75v357h75v-357zM97 241h75v-383h-75v383z" />
    <glyph glyph-name="section" unicode="&#xa7;" horiz-adv-x="493" 
d="M436 312q0 -77 -67 -131q75 -48 75 -122q0 -78 -59 -119.5t-155 -41.5q-82 0 -164 28l21 66q72 -24 137 -24q56 0 88.5 23.5t32.5 59.5q0 29 -21.5 49t-67.5 40q-11 5 -39 16.5t-40.5 17.5t-35.5 18.5t-34 23t-24.5 25.5t-19 33.5t-5.5 39.5q0 79 71 131q-62 44 -62 106
q0 76 55 116.5t143 40.5q94 0 157 -28l-23 -66q-71 21 -135 21q-41 0 -71 -20.5t-30 -56.5q0 -15 8.5 -27.5t28.5 -25.5t33 -20t43.5 -20t38.5 -17q27 -13 45 -23.5t37.5 -27t29 -38t9.5 -47.5zM349 293q0 19 -8.5 33.5t-26.5 27t-33 20.5t-43.5 20t-42.5 19
q-46 -38 -46 -80q0 -21 8 -36t25 -25.5t34 -18l44 -19t46 -21.5q43 43 43 80z" />
    <glyph glyph-name="dieresis" unicode="&#xa8;" horiz-adv-x="502" 
d="M210 612q0 -23 -15.5 -37.5t-41.5 -14.5t-41 14.5t-15 37.5t15.5 37.5t39.5 14.5q27 0 42.5 -14.5t15.5 -37.5zM408 612q0 -23 -16 -37.5t-43 -14.5q-24 0 -38.5 14.5t-14.5 37.5t15 37.5t38 14.5q27 0 43 -14t16 -38z" />
    <glyph glyph-name="copyright" unicode="&#xa9;" horiz-adv-x="842" 
d="M794 332q0 -153 -110.5 -262t-263.5 -109q-154 0 -263.5 108.5t-109.5 262.5q0 153 109.5 261t263.5 108q153 0 263.5 -108t110.5 -261zM743 332q0 132 -94.5 225.5t-228.5 93.5q-132 0 -227.5 -93.5t-95.5 -225.5t95 -225.5t228 -93.5q134 0 228.5 93t94.5 226zM292 325
q0 -89 35 -136t117 -47q68 0 114 15l13 -56q-64 -23 -143 -23q-217 0 -217 246q0 35 6 68t21.5 67.5t40 60t65 41.5t92.5 16q69 0 123 -19l-13 -59q-47 16 -103 16q-73 0 -112 -49.5t-39 -140.5z" />
    <glyph glyph-name="ordfeminine" unicode="&#xaa;" horiz-adv-x="367" 
d="M308 484v-156h43l4 -52q-28 -14 -73 -14t-53 35q-45 -37 -104 -37q-57 0 -82 29.5t-25 67.5q0 69 75 87q51 11 133 15v15q0 34 -12.5 46t-47.5 12q-51 0 -105 -18q-2 10 -9 30t-8 25q65 28 141 28q61 0 92 -26t31 -87zM154 318q33 0 72 30v65q-51 0 -82 -8
q-39 -10 -39 -41q0 -46 49 -46z" />
    <glyph glyph-name="guillemotleft" unicode="&#xab;" horiz-adv-x="460" 
d="M55 173v39l155 168l44 -33l-102 -155l102 -154l-44 -32zM219 173v39l156 168l44 -33l-102 -155l102 -154l-44 -32z" />
    <glyph glyph-name="logicalnot" unicode="&#xac;" horiz-adv-x="572" 
d="M491 335v-238h-72v169h-326v69h398z" />
    <glyph glyph-name="sfthyphen" unicode="&#xad;" horiz-adv-x="378" 
d="M322 225h-266v82h266v-82z" />
    <glyph glyph-name="registered" unicode="&#xae;" horiz-adv-x="590" 
d="M291 716q105 0 177 -72t72 -175q0 -102 -72 -174t-177 -72q-104 0 -176.5 72t-72.5 174q0 103 72 175t177 72zM291 677q-87 0 -147.5 -61t-60.5 -147t60 -147t148 -61q90 0 149.5 60.5t59.5 147.5q0 86 -60.5 147t-148.5 61zM200 619h111q45 0 68.5 -22.5t23.5 -59.5
q0 -57 -51 -74v-2q26 -9 37 -49l25 -84h-56l-23 79q-7 26 -16.5 34.5t-30.5 8.5h-35v-122h-53v291zM253 582v-95h45q50 0 50 48q0 47 -50 47h-45z" />
    <glyph glyph-name="macron" unicode="&#xaf;" horiz-adv-x="527" 
d="M89 588v76h345v-76h-345z" />
    <glyph glyph-name="degree" unicode="&#xb0;" horiz-adv-x="359" 
d="M323 538q0 -58 -40.5 -99t-99.5 -41q-63 0 -102 39.5t-39 100.5q0 57 41.5 99t99.5 42t99 -42t41 -99zM265 537q0 36 -24.5 60.5t-58.5 24.5q-35 0 -58.5 -24.5t-23.5 -60.5q0 -35 24 -58.5t58 -23.5t58.5 24t24.5 58z" />
    <glyph glyph-name="plusminus" unicode="&#xb1;" horiz-adv-x="572" 
d="M490 272h-162v-157h-72v157h-163v70h163v154h72v-154h162v-70zM93 65h397v-65h-397v65z" />
    <glyph glyph-name="twosuperior" unicode="&#xb2;" horiz-adv-x="377" 
d="M316 645q0 -30 -15 -61t-46 -64.5t-51.5 -52l-56.5 -49.5q31 0 93 -0.5t93 -0.5v-63h-310v55q79 59 142 125.5t63 105.5q0 52 -71 52q-52 0 -108 -32q-5 8 -15 26.5t-16 27.5q70 48 151 48q69 0 108 -30.5t39 -86.5z" />
    <glyph glyph-name="threesuperior" unicode="&#xb3;" horiz-adv-x="377" 
d="M206 689l-2 4h-162v63h273l12 -47l-116 -106q56 -6 90.5 -35.5t34.5 -80.5q0 -63 -48.5 -100t-118.5 -37q-89 0 -148 28l21 60q61 -19 119 -19q39 0 64 19t25 49q0 29 -25.5 44.5t-68.5 15.5q-31 0 -50 -2l-10 43z" />
    <glyph glyph-name="acute" unicode="&#xb4;" horiz-adv-x="505" 
d="M391 673l-158 -139l-42 40l134 166z" />
    <glyph glyph-name="mu" unicode="&#xb5;" horiz-adv-x="532" 
d="M169 18l-5 -5v-221h-110v699h109v-320q0 -46 20 -70.5t68 -24.5q56 0 116 54v361h110q0 -82 -0.5 -246t-0.5 -245h-106q0 8 -0.5 26.5t-0.5 26.5l-3 2q-39 -33 -68.5 -43t-64.5 -10q-39 0 -64 16z" />
    <glyph glyph-name="mu" unicode="&#x3bc;" horiz-adv-x="532" 
d="M169 18l-5 -5v-221h-110v699h109v-320q0 -46 20 -70.5t68 -24.5q56 0 116 54v361h110q0 -82 -0.5 -246t-0.5 -245h-106q0 8 -0.5 26.5t-0.5 26.5l-3 2q-39 -33 -68.5 -43t-64.5 -10q-39 0 -64 16z" />
    <glyph glyph-name="paragraph" unicode="&#xb6;" horiz-adv-x="559" 
d="M253 312h-19q-83 0 -137 53.5t-54 135.5q0 83 54 140t137 57h235v-898h-75v823h-65v-823h-76v512z" />
    <glyph glyph-name="periodcentered" unicode="&#xb7;" horiz-adv-x="229" 
d="M181 281q0 -26 -18.5 -44t-46.5 -18t-46 18t-18 44q0 27 17.5 44.5t46.5 17.5t47 -17.5t18 -44.5z" />
    <glyph glyph-name="cedilla" unicode="&#xb8;" horiz-adv-x="461" 
d="M300 17l-60 -78q50 -2 79 -23t29 -58v-3q-2 -45 -49 -74t-137 -29v41q114 11 114 57q0 24 -34 33q-17 5 -62 5l-14 22q68 90 99 128z" />
    <glyph glyph-name="onesuperior" unicode="&#xb9;" horiz-adv-x="371" 
d="M148 355v325q-50 -8 -96 -13l-12 54l120 35h74v-401h-86z" />
    <glyph glyph-name="ordmasculine" unicode="&#xba;" horiz-adv-x="378" 
d="M350 429q0 -72 -39.5 -119.5t-125.5 -47.5q-82 0 -120 46t-38 121q0 72 41 120.5t123 48.5q83 0 121 -47.5t38 -121.5zM264 429q0 107 -73 107q-77 0 -77 -108q0 -49 16 -76.5t61 -27.5q73 0 73 105z" />
    <glyph glyph-name="guillemotright" unicode="&#xbb;" horiz-adv-x="460" 
d="M412 212v-39l-155 -167l-44 32l101 154l-102 155l45 33zM247 212v-39l-155 -167l-44 32l102 154l-103 155l45 33z" />
    <glyph glyph-name="onequarter" unicode="&#xbc;" horiz-adv-x="860" 
d="M190 265v325q-50 -8 -96 -13l-12 54l120 35h74v-401h-86zM601 704l-302 -725h-70l304 725h68zM633 401h85v-233h60v-60h-60v-109h-83v109h-199v52zM636 310h-5l-113 -142h118v142z" />
    <glyph glyph-name="onehalf" unicode="&#xbd;" horiz-adv-x="860" 
d="M175 265v325q-50 -8 -96 -13l-12 54l120 35h74v-401h-86zM581 704l-302 -725h-70l304 725h68zM775 289q0 -29 -14.5 -60t-46 -64t-51 -51.5t-57.5 -50.5q32 0 94 -0.5t93 -0.5v-62h-311v54q78 58 141.5 124.5t63.5 105.5q0 53 -71 53q-50 0 -108 -32q-6 9 -15.5 27
t-15.5 27q72 48 151 48q69 0 108 -30.5t39 -87.5z" />
    <glyph glyph-name="threequarters" unicode="&#xbe;" horiz-adv-x="860" 
d="M667 401h85v-233h60v-60h-60v-109h-83v109h-199v52zM232 599l-2 4h-162v63h273l12 -47l-116 -106q56 -6 90.5 -35.5t34.5 -80.5q0 -63 -48.5 -100t-118.5 -37q-89 0 -148 28q4 8 7.5 18l7.5 22.5t6 19.5q61 -19 119 -19q39 0 64 19t25 49q0 29 -25.5 44.5t-68.5 15.5
q-31 0 -50 -2l-10 43zM632 704l-302 -725h-70l304 725h68zM670 310h-5l-113 -142h118v142z" />
    <glyph glyph-name="questiondown" unicode="&#xbf;" horiz-adv-x="466" 
d="M226 39q-35 -29 -50.5 -50t-15.5 -50q0 -37 27 -55.5t73 -18.5q72 0 155 26q9 -33 23 -76q-94 -35 -193 -35q-94 0 -145 37t-56 103q0 85 80 153q73 61 101 94.5t28 74.5q0 18 -7 63l89 7q10 -50 10 -84q0 -52 -27.5 -91.5t-91.5 -97.5zM214 437q0 25 17.5 42.5
t44.5 17.5q29 0 46.5 -17.5t17.5 -42.5t-18 -42t-45 -17q-28 0 -45.5 17t-17.5 42z" />
    <glyph glyph-name="Agrave" unicode="&#xc0;" horiz-adv-x="617" 
d="M607 0h-117l-29 92.5l-24 76.5h-261l-53 -169h-114l116.5 346.5l113.5 339.5h143zM413 250l-48 162l-55 187h-4l-53 -183q-1 -4 -24.5 -81t-26.5 -85h211zM315 729l-157 139l66 66l135 -164z" />
    <glyph glyph-name="Aacute" unicode="&#xc1;" horiz-adv-x="617" 
d="M607 0h-117l-29 92.5l-24 76.5h-261l-53 -169h-114l116.5 346.5l113.5 339.5h143zM413 250l-48 162l-55 187h-4l-53 -183q-1 -4 -24.5 -81t-26.5 -85h211zM475 867l-159 -139l-42 39l134 165z" />
    <glyph glyph-name="Acircumflex" unicode="&#xc2;" horiz-adv-x="617" 
d="M607 0h-117l-29 92.5l-24 76.5h-261l-53 -169h-114l116.5 346.5l113.5 339.5h143zM413 250l-48 162l-55 187h-4l-53 -183q-1 -4 -24.5 -81t-26.5 -85h211zM497 763l-29 -35l-160 90l-158 -91l-28 34l152 142h70z" />
    <glyph glyph-name="Atilde" unicode="&#xc3;" horiz-adv-x="617" 
d="M607 0h-117l-29 92.5l-24 76.5h-261l-53 -169h-114l116.5 346.5l113.5 339.5h143zM413 250l-48 162l-55 187h-4l-53 -183q-1 -4 -24.5 -81t-26.5 -85h211zM386 760q-34 0 -88 19.5t-70 19.5l-56 -39l-34 26q29 83 94 83q27 0 82 -19t75 -19l56 40l34 -27
q-13 -39 -37.5 -61.5t-55.5 -22.5z" />
    <glyph glyph-name="Adieresis" unicode="&#xc4;" horiz-adv-x="617" 
d="M607 0h-117l-29 92.5l-24 76.5h-261l-53 -169h-114l116.5 346.5l113.5 339.5h143zM413 250l-48 162l-55 187h-4l-53 -183q-1 -4 -24.5 -81t-26.5 -85h211zM266 778q0 -23 -15.5 -37.5t-40.5 -14.5q-26 0 -41 14t-15 38q0 22 15 37t39 15q27 0 42.5 -14.5t15.5 -37.5z
M461 778q0 -23 -16 -37.5t-43 -14.5q-24 0 -38 14.5t-14 37.5q0 22 14.5 37t37.5 15q27 0 43 -14.5t16 -37.5z" />
    <glyph glyph-name="Aring" unicode="&#xc5;" horiz-adv-x="617" 
d="M607 0h-117l-29 92.5l-24 76.5h-261l-53 -169h-114l116.5 346.5l113.5 339.5h143zM310 699q-49 0 -82.5 32.5t-33.5 78.5q0 45 34 78.5t82 33.5q47 0 79.5 -33t32.5 -79t-32.5 -78.5t-79.5 -32.5zM413 250l-48 162l-55 187h-4l-53 -183q-1 -4 -24.5 -81t-26.5 -85h211z
M310 870q-27 0 -44.5 -18t-17.5 -45q0 -25 17 -42t45 -17q25 0 41.5 17.5t16.5 41.5q0 27 -16 45t-42 18z" />
    <glyph glyph-name="AE" unicode="&#xc6;" horiz-adv-x="988" 
d="M501 0v194h-252l-120 -194h-120l427 685h486v-80h-308v-207h257v-78h-257v-239h322v-81h-435zM496 601l-201 -327h206v327h-5z" />
    <glyph glyph-name="Ccedilla" unicode="&#xc7;" horiz-adv-x="608" 
d="M371 698q97 0 178 -28l-20 -83q-69 22 -145 22q-103 0 -156 -69t-53 -199q0 -127 47 -193.5t165 -66.5q81 0 162 23l20 -79q-79 -30 -183 -33q-41 -53 -53 -70q50 -2 79 -23t29 -58v-3q-2 -45 -49 -74t-137 -29v41q114 11 114 57q0 24 -34 33q-17 5 -62 5l-14 22l75 99
q-278 16 -278 347q0 49 8.5 96t31 96t56.5 85t90.5 59t128.5 23z" />
    <glyph glyph-name="Egrave" unicode="&#xc8;" horiz-adv-x="583" 
d="M534 0h-458v686h443v-82h-329v-204h277v-78h-277v-239h344v-83zM337 729l-157 139l66 66l135 -164z" />
    <glyph glyph-name="Eacute" unicode="&#xc9;" horiz-adv-x="583" 
d="M534 0h-458v686h443v-82h-329v-204h277v-78h-277v-239h344v-83zM465 868l-159 -139l-42 39l134 165z" />
    <glyph glyph-name="Ecircumflex" unicode="&#xca;" horiz-adv-x="583" 
d="M534 0h-458v686h443v-82h-329v-204h277v-78h-277v-239h344v-83zM492 766l-29 -35l-160 90l-158 -91l-28 34l152 142h70z" />
    <glyph glyph-name="Edieresis" unicode="&#xcb;" horiz-adv-x="583" 
d="M534 0h-458v686h443v-82h-329v-204h277v-78h-277v-239h344v-83zM266 778q0 -23 -15.5 -37.5t-40.5 -14.5q-26 0 -41 14t-15 38q0 22 15 37t39 15q27 0 42.5 -14.5t15.5 -37.5zM461 778q0 -23 -16 -37.5t-43 -14.5q-24 0 -38 14.5t-14 37.5q0 22 14.5 37t37.5 15
q27 0 43 -14.5t16 -37.5z" />
    <glyph glyph-name="Igrave" unicode="&#xcc;" horiz-adv-x="284" 
d="M198 0h-112v686h112v-686zM156 730l-157 139l66 66l135 -164z" />
    <glyph glyph-name="Iacute" unicode="&#xcd;" horiz-adv-x="284" 
d="M198 0h-112v686h112v-686zM301 870l-159 -139l-42 39l134 165z" />
    <glyph glyph-name="Icircumflex" unicode="&#xce;" horiz-adv-x="284" 
d="M198 0h-112v686h112v-686zM329 767l-29 -35l-160 90l-158 -91l-28 34l152 142h70z" />
    <glyph glyph-name="Idieresis" unicode="&#xcf;" horiz-adv-x="284" 
d="M198 0h-112v686h112v-686zM102 781q0 -23 -15.5 -37.5t-40.5 -14.5q-26 0 -41 14t-15 38q0 22 15 37t39 15q27 0 42.5 -14.5t15.5 -37.5zM297 781q0 -23 -16 -37.5t-43 -14.5q-24 0 -38 14.5t-14 37.5q0 22 14.5 37t37.5 15q27 0 43 -14.5t16 -37.5z" />
    <glyph glyph-name="Eth" unicode="&#xd0;" horiz-adv-x="665" 
d="M308 0h-231v325h-61v67h61v294h239q292 0 292 -341q0 -74 -15 -133t-48.5 -108.5t-93.5 -76.5t-143 -27zM300 604h-108v-212h142v-67h-142v-241h105q194 0 194 255q0 265 -191 265z" />
    <glyph glyph-name="Ntilde" unicode="&#xd1;" horiz-adv-x="709" 
d="M517 173h6v512h109v-685h-112l-133 209l-117 184l-81 131h-1q-2 -1 -3 -1v-523h-109v685h114l233 -363zM430 763q-34 0 -88 19.5t-70 19.5l-56 -39l-34 26q29 83 94 83q27 0 82 -19t75 -19l56 40l34 -27q-13 -39 -37.5 -61.5t-55.5 -22.5z" />
    <glyph glyph-name="Ograve" unicode="&#xd2;" horiz-adv-x="720" 
d="M663 342q0 -156 -77.5 -253.5t-221.5 -97.5q-158 0 -232.5 91.5t-74.5 256.5q0 75 17 138t52.5 113t96 78.5t141.5 28.5t140.5 -28.5t93.5 -79t49.5 -112t15.5 -135.5zM544 339q0 276 -180 276q-189 0 -189 -277q0 -131 45 -197t144 -66q90 0 135 73t45 191zM374 732
l-157 139l66 66l135 -164z" />
    <glyph glyph-name="Oacute" unicode="&#xd3;" horiz-adv-x="720" 
d="M663 342q0 -156 -77.5 -253.5t-221.5 -97.5q-158 0 -232.5 91.5t-74.5 256.5q0 75 17 138t52.5 113t96 78.5t141.5 28.5t140.5 -28.5t93.5 -79t49.5 -112t15.5 -135.5zM544 339q0 276 -180 276q-189 0 -189 -277q0 -131 45 -197t144 -66q90 0 135 73t45 191zM514 871
l-159 -139l-42 39l134 165z" />
    <glyph glyph-name="Ocircumflex" unicode="&#xd4;" horiz-adv-x="720" 
d="M663 342q0 -156 -77.5 -253.5t-221.5 -97.5q-158 0 -232.5 91.5t-74.5 256.5q0 75 17 138t52.5 113t96 78.5t141.5 28.5t140.5 -28.5t93.5 -79t49.5 -112t15.5 -135.5zM544 339q0 276 -180 276q-189 0 -189 -277q0 -131 45 -197t144 -66q90 0 135 73t45 191zM555 766
l-29 -35l-160 90l-158 -91l-28 34l152 142h70z" />
    <glyph glyph-name="Otilde" unicode="&#xd5;" horiz-adv-x="720" 
d="M663 342q0 -156 -77.5 -253.5t-221.5 -97.5q-158 0 -232.5 91.5t-74.5 256.5q0 75 17 138t52.5 113t96 78.5t141.5 28.5t140.5 -28.5t93.5 -79t49.5 -112t15.5 -135.5zM544 339q0 276 -180 276q-189 0 -189 -277q0 -131 45 -197t144 -66q90 0 135 73t45 191zM443 767
q-35 0 -88 19.5t-70 19.5l-56 -39l-34 26q29 83 94 83q27 0 82 -19t75 -19l56 40l34 -27q-13 -39 -37.5 -61.5t-55.5 -22.5z" />
    <glyph glyph-name="Odieresis" unicode="&#xd6;" horiz-adv-x="720" 
d="M663 342q0 -156 -77.5 -253.5t-221.5 -97.5q-158 0 -232.5 91.5t-74.5 256.5q0 75 17 138t52.5 113t96 78.5t141.5 28.5t140.5 -28.5t93.5 -79t49.5 -112t15.5 -135.5zM544 339q0 276 -180 276q-189 0 -189 -277q0 -131 45 -197t144 -66q90 0 135 73t45 191zM320 790
q0 -23 -15.5 -37.5t-40.5 -14.5q-26 0 -41 14t-15 38q0 22 15 37t39 15q27 0 42.5 -14.5t15.5 -37.5zM515 790q0 -23 -16 -37.5t-43 -14.5q-24 0 -38 14.5t-14 37.5q0 22 14.5 37t37.5 15q27 0 43 -14.5t16 -37.5z" />
    <glyph glyph-name="multiply" unicode="&#xd7;" horiz-adv-x="572" 
d="M418 115l-127 127l-130 -130l-51 52l130 129l-128 128l50 49l127 -128l125 126l51 -51l-125 -126l127 -126z" />
    <glyph glyph-name="Oslash" unicode="&#xd8;" horiz-adv-x="703" 
d="M655 342q0 -156 -77.5 -253.5t-221.5 -97.5q-130 0 -206 65l-49 -63h-54l73 93q-72 88 -72 253q0 75 17 138t52.5 113t96.5 78.5t142 28.5q121 0 194 -64l51 66h58l-78 -97q74 -92 74 -260zM167 338q0 -105 28 -161l289 377q-45 61 -128 61q-189 0 -189 -277zM535 339
q0 107 -31 172l-289 -377q46 -59 141 -59q89 0 134 73t45 191z" />
    <glyph glyph-name="Ugrave" unicode="&#xd9;" horiz-adv-x="685" 
d="M616 686l-1 -437q0 -121 -68.5 -189.5t-204.5 -68.5q-272 0 -272 258v437h112v-440q0 -171 162 -171q77 0 119 42.5t42 128.5l-1 440h112zM364 732l-157 139l66 66l135 -164z" />
    <glyph glyph-name="Uacute" unicode="&#xda;" horiz-adv-x="685" 
d="M616 686l-1 -437q0 -121 -68.5 -189.5t-204.5 -68.5q-272 0 -272 258v437h112v-440q0 -171 162 -171q77 0 119 42.5t42 128.5l-1 440h112zM489 871l-159 -139l-42 39l134 165z" />
    <glyph glyph-name="Ucircumflex" unicode="&#xdb;" horiz-adv-x="685" 
d="M616 686l-1 -437q0 -121 -68.5 -189.5t-204.5 -68.5q-272 0 -272 258v437h112v-440q0 -171 162 -171q77 0 119 42.5t42 128.5l-1 440h112zM536 767l-30 -34l-166 88l-165 -89l-29 33l158 140h73z" />
    <glyph glyph-name="Udieresis" unicode="&#xdc;" horiz-adv-x="685" 
d="M616 686l-1 -437q0 -121 -68.5 -189.5t-204.5 -68.5q-272 0 -272 258v437h112v-440q0 -171 162 -171q77 0 119 42.5t42 128.5l-1 440h112zM302 784q0 -23 -15.5 -37.5t-40.5 -14.5q-26 0 -41 14t-15 38q0 22 15 37t39 15q27 0 42.5 -14.5t15.5 -37.5zM497 784
q0 -23 -16 -37.5t-43 -14.5q-24 0 -38 14.5t-14 37.5q0 22 14.5 37t37.5 15q27 0 43 -14.5t16 -37.5z" />
    <glyph glyph-name="Yacute" unicode="&#xdd;" horiz-adv-x="576" 
d="M225 0v283l-216 403h118l40.5 -79.5l49.5 -99.5l66 -138h5q12 23 35.5 72t35.5 72l91 173h116l-221 -399v-287h-120zM441 855l-159 -139l-42 39l134 165z" />
    <glyph glyph-name="Thorn" unicode="&#xde;" horiz-adv-x="574" 
d="M540 343q0 -36 -11.5 -71t-34.5 -67t-66.5 -51.5t-100.5 -19.5h-137v-134h-114v686h114v-139h127q105 0 164 -53.5t59 -150.5zM304 465h-114v-250h118q50 0 83.5 29.5t33.5 95.5q0 62 -33.5 93.5t-87.5 31.5z" />
    <glyph glyph-name="germandbls" unicode="&#xdf;" horiz-adv-x="618" 
d="M476 124q0 17 -4 31t-15 27.5l-17 20.5t-24 22.5t-22 19.5q-64 59 -82 85q-27 37 -27 72q0 26 16 52t34.5 43t34.5 38.5t16 40.5q0 9 -3 19t-11 22.5t-27.5 20.5t-47.5 8q-49 0 -72.5 -30t-23.5 -78v-538h-108v380h-69v65h69v101q0 21 5 43t19.5 47.5t37 44.5t60 32
t84.5 13q100 0 145 -42.5t45 -92.5q0 -33 -16 -63t-35 -47.5t-35 -38t-16 -36.5q0 -37 84 -101q57 -42 86 -82.5t29 -106.5q-6 -58 -51 -94t-129 -36q-77 0 -143 23l21 76q67 -23 113 -23q36 0 57.5 17.5t21.5 44.5z" />
    <glyph glyph-name="agrave" unicode="&#xe0;" horiz-adv-x="552" 
d="M455 332v-256h65l6 -62q-44 -22 -101 -22q-34 0 -51 12.5t-19 47.5l-2 2q-73 -63 -169 -63q-41 0 -71.5 14t-46 36t-22.5 45t-7 46q0 68 54.5 106t139.5 42l119 8v27q0 55 -21 77t-78 22q-75 0 -153 -26q-8 30 -20 70q90 40 199 40q87 0 132.5 -38.5t45.5 -127.5z
M350 227l-113 -8q-85 -6 -85 -75q0 -77 79 -77q58 0 119 55v105zM294 533l-159 138l69 71l135 -164z" />
    <glyph glyph-name="aacute" unicode="&#xe1;" horiz-adv-x="552" 
d="M455 332v-256h65l6 -62q-44 -22 -101 -22q-34 0 -51 12.5t-19 47.5l-2 2q-73 -63 -169 -63q-41 0 -71.5 14t-46 36t-22.5 45t-7 46q0 68 54.5 106t139.5 42l119 8v27q0 55 -21 77t-78 22q-75 0 -153 -26q-8 30 -20 70q90 40 199 40q87 0 132.5 -38.5t45.5 -127.5z
M350 227l-113 -8q-85 -6 -85 -75q0 -77 79 -77q58 0 119 55v105zM407 673l-158 -139l-42 40l134 166z" />
    <glyph glyph-name="acircumflex" unicode="&#xe2;" horiz-adv-x="552" 
d="M455 332v-256h65l6 -62q-44 -22 -101 -22q-34 0 -51 12.5t-19 47.5l-2 2q-73 -63 -169 -63q-41 0 -71.5 14t-46 36t-22.5 45t-7 46q0 68 54.5 106t139.5 42l119 8v27q0 55 -21 77t-78 22q-75 0 -153 -26q-8 30 -20 70q90 40 199 40q87 0 132.5 -38.5t45.5 -127.5z
M452 566l-30 -35l-160 94l-158 -95l-28 34l152 148h70zM350 227l-113 -8q-85 -6 -85 -75q0 -77 79 -77q58 0 119 55v105z" />
    <glyph glyph-name="atilde" unicode="&#xe3;" horiz-adv-x="552" 
d="M455 332v-256h65l6 -62q-44 -22 -101 -22q-34 0 -51 12.5t-19 47.5l-2 2q-73 -63 -169 -63q-41 0 -71.5 14t-46 36t-22.5 45t-7 46q0 68 54.5 106t139.5 42l119 8v27q0 55 -21 77t-78 22q-75 0 -153 -26q-8 30 -20 70q90 40 199 40q87 0 132.5 -38.5t45.5 -127.5z
M350 227l-113 -8q-85 -6 -85 -75q0 -77 79 -77q58 0 119 55v105zM344 571q-34 0 -88 19.5t-70 19.5l-56 -39l-34 26q29 83 94 83q27 0 82 -19t75 -19l56 40l34 -27q-13 -39 -37.5 -61.5t-55.5 -22.5z" />
    <glyph glyph-name="adieresis" unicode="&#xe4;" horiz-adv-x="552" 
d="M455 332v-256h65l6 -62q-44 -22 -101 -22q-34 0 -51 12.5t-19 47.5l-2 2q-73 -63 -169 -63q-41 0 -71.5 14t-46 36t-22.5 45t-7 46q0 68 54.5 106t139.5 42l119 8v27q0 55 -21 77t-78 22q-75 0 -153 -26q-8 30 -20 70q90 40 199 40q87 0 132.5 -38.5t45.5 -127.5z
M350 227l-113 -8q-85 -6 -85 -75q0 -77 79 -77q58 0 119 55v105zM224 612q0 -23 -15.5 -37.5t-41.5 -14.5t-41 14.5t-15 37.5t15.5 37.5t39.5 14.5q27 0 42.5 -14.5t15.5 -37.5zM422 612q0 -23 -16 -37.5t-43 -14.5q-24 0 -38.5 14.5t-14.5 37.5t15 37.5t38 14.5
q27 0 43 -14t16 -38z" />
    <glyph glyph-name="aring" unicode="&#xe5;" horiz-adv-x="552" 
d="M455 332v-256h65l6 -62q-44 -22 -101 -22q-34 0 -51 12.5t-19 47.5l-2 2q-73 -63 -169 -63q-41 0 -71.5 14t-46 36t-22.5 45t-7 46q0 68 54.5 106t139.5 42l119 8v27q0 55 -21 77t-78 22q-75 0 -153 -26q-8 30 -20 70q90 40 199 40q87 0 132.5 -38.5t45.5 -127.5z
M276 550q-49 0 -82.5 32.5t-33.5 78.5q0 45 34 78.5t82 33.5q47 0 79.5 -33t32.5 -79t-32.5 -78.5t-79.5 -32.5zM350 227l-113 -8q-85 -6 -85 -75q0 -77 79 -77q58 0 119 55v105zM276 721q-27 0 -44.5 -18t-17.5 -45q0 -25 17 -42t45 -17q25 0 41.5 17.5t16.5 41.5
q0 27 -16 45t-42 18z" />
    <glyph glyph-name="ae" unicode="&#xe6;" horiz-adv-x="810" 
d="M574 501q54 0 93.5 -18.5t59.5 -43.5t32 -61t14.5 -61t2.5 -53v-40h-317q0 -150 130 -150q71 0 152 32q3 -11 11 -33.5l12 -33.5q-84 -46 -189 -46q-126 0 -179 73q-98 -75 -213 -75q-43 0 -74.5 14t-47.5 36.5t-23 45t-7 45.5q0 62 45.5 105.5t132.5 43.5h143v34
q0 55 -25 77.5t-83 22.5q-79 0 -154 -26l-21 70q89 40 202 40q46 0 86.5 -19t58.5 -55q57 76 158 76zM227 65q28 0 70 15t70 40q-14 41 -16 104h-92q-34 0 -56.5 -4.5t-40 -23t-17.5 -51.5q0 -80 82 -80zM575 421q-103 0 -114 -140h216q0 68 -23.5 104t-78.5 36z" />
    <glyph glyph-name="ccedilla" unicode="&#xe7;" horiz-adv-x="469" 
d="M155 246q0 -169 131 -169q61 0 137 29l24 -73q-74 -38 -170 -40q-16 -20 -41 -54q50 -2 79 -23t29 -58v-3q-2 -45 -49 -74t-137 -29v41q114 11 114 57q0 24 -34 33q-17 5 -62 5l-14 22q30 42 65 86q-183 21 -183 243q0 36 5.5 69.5t21.5 69.5t40.5 62t67 43t97.5 17
q82 0 146 -24l-20 -78q-51 16 -112 16q-64 0 -99.5 -45t-35.5 -123z" />
    <glyph glyph-name="egrave" unicode="&#xe8;" horiz-adv-x="523" 
d="M293 533l-159 138l69 71l135 -164zM270 501q210 0 210 -236v-39h-325q0 -151 132 -151q74 0 157 33l24 -68q-87 -47 -194 -47q-67 0 -113.5 19.5t-71 55.5t-35 78.5t-10.5 97.5q0 32 5 64t20.5 68t39.5 62.5t65.5 44.5t95.5 18zM273 423q-103 0 -116 -129h221
q-3 129 -105 129z" />
    <glyph glyph-name="eacute" unicode="&#xe9;" horiz-adv-x="523" 
d="M413 673l-158 -139l-42 40l134 166zM270 501q210 0 210 -236v-39h-325q0 -151 132 -151q74 0 157 33l24 -68q-87 -47 -194 -47q-67 0 -113.5 19.5t-71 55.5t-35 78.5t-10.5 97.5q0 32 5 64t20.5 68t39.5 62.5t65.5 44.5t95.5 18zM273 423q-103 0 -116 -129h221
q-3 129 -105 129z" />
    <glyph glyph-name="ecircumflex" unicode="&#xea;" horiz-adv-x="523" 
d="M466 566l-30 -35l-160 94l-158 -95l-28 34l152 148h70zM270 501q210 0 210 -236v-39h-325q0 -151 132 -151q74 0 157 33l24 -68q-87 -47 -194 -47q-67 0 -113.5 19.5t-71 55.5t-35 78.5t-10.5 97.5q0 32 5 64t20.5 68t39.5 62.5t65.5 44.5t95.5 18zM273 423
q-103 0 -116 -129h221q-3 129 -105 129z" />
    <glyph glyph-name="edieresis" unicode="&#xeb;" horiz-adv-x="523" 
d="M234 612q0 -23 -15.5 -37.5t-41.5 -14.5t-41 14.5t-15 37.5t15.5 37.5t39.5 14.5q27 0 42.5 -14.5t15.5 -37.5zM432 612q0 -23 -16 -37.5t-43 -14.5q-24 0 -38.5 14.5t-14.5 37.5t15 37.5t38 14.5q27 0 43 -14t16 -38zM270 501q210 0 210 -236v-39h-325q0 -151 132 -151
q74 0 157 33l24 -68q-87 -47 -194 -47q-67 0 -113.5 19.5t-71 55.5t-35 78.5t-10.5 97.5q0 32 5 64t20.5 68t39.5 62.5t65.5 44.5t95.5 18zM273 423q-103 0 -116 -129h221q-3 129 -105 129z" />
    <glyph glyph-name="igrave" unicode="&#xec;" horiz-adv-x="274" 
d="M190 0h-109v489h109v-489zM154 533l-159 138l69 71l135 -164z" />
    <glyph glyph-name="iacute" unicode="&#xed;" horiz-adv-x="274" 
d="M190 0h-109v489h109v-489zM294 673l-158 -139l-42 40l134 166z" />
    <glyph glyph-name="icircumflex" unicode="&#xee;" horiz-adv-x="336" 
d="M223 0h-109v489h109v-489zM356 566l-30 -35l-160 94l-158 -95l-28 34l152 148h70z" />
    <glyph glyph-name="idieresis" unicode="&#xef;" horiz-adv-x="274" 
d="M190 0h-109v489h109v-489zM94 613q0 -23 -15.5 -37.5t-41.5 -14.5t-41 14.5t-15 37.5t15.5 37.5t39.5 14.5q27 0 42.5 -14.5t15.5 -37.5zM292 613q0 -23 -16 -37.5t-43 -14.5q-24 0 -38.5 14.5t-14.5 37.5t15 37.5t38 14.5q27 0 43 -14t16 -38z" />
    <glyph glyph-name="eth" unicode="&#xf0;" horiz-adv-x="542" 
d="M338 643l89 60l26 -36l-81 -54q136 -140 128 -353q-1 -38 -7 -73t-23 -71.5t-42 -63.5t-67.5 -44t-96.5 -17q-64 0 -109.5 20.5t-69 55.5t-33.5 72t-10 79q0 97 58.5 166.5t158.5 69.5q67 0 117 -27q-25 80 -74 138l-91 -61l-26 37l85 56q-36 37 -98 78l32 57
q75 -36 134 -89zM271 378q-63 0 -92.5 -47t-29.5 -109q0 -152 120 -152q49 0 79 32t38.5 69t8.5 80q0 40 -11 93q-51 34 -113 34z" />
    <glyph glyph-name="ntilde" unicode="&#xf1;" horiz-adv-x="539" 
d="M483 0h-109v314q0 54 -15.5 77t-62.5 23q-58 0 -132 -43v-371h-110v489h105l1 -43l4 -2q89 57 171 57q38 0 66 -9.5t43.5 -24t24.5 -37t11.5 -43.5t2.5 -49v-338zM336 581q-34 0 -88 19.5t-70 19.5l-56 -39l-34 26q29 83 94 83q27 0 82 -19t75 -19l56 40l34 -27
q-13 -39 -37.5 -61.5t-55.5 -22.5z" />
    <glyph glyph-name="ograve" unicode="&#xf2;" horiz-adv-x="550" 
d="M506 244q0 -51 -12.5 -94.5t-38.5 -80t-73.5 -57.5t-111.5 -21q-119 0 -172.5 69.5t-53.5 182.5q0 70 22.5 126t76.5 93.5t135 37.5q62 0 107.5 -21t71 -58t37.5 -81t12 -96zM392 243q0 177 -114 177q-34 0 -59 -15.5t-38 -42t-18.5 -55.5t-5.5 -64q0 -81 25.5 -126.5
t95.5 -45.5q114 0 114 172zM297 533l-159 138l69 71l135 -164z" />
    <glyph glyph-name="oacute" unicode="&#xf3;" horiz-adv-x="550" 
d="M506 244q0 -51 -12.5 -94.5t-38.5 -80t-73.5 -57.5t-111.5 -21q-119 0 -172.5 69.5t-53.5 182.5q0 70 22.5 126t76.5 93.5t135 37.5q62 0 107.5 -21t71 -58t37.5 -81t12 -96zM392 243q0 177 -114 177q-34 0 -59 -15.5t-38 -42t-18.5 -55.5t-5.5 -64q0 -81 25.5 -126.5
t95.5 -45.5q114 0 114 172zM435 673l-158 -139l-42 40l134 166z" />
    <glyph glyph-name="ocircumflex" unicode="&#xf4;" horiz-adv-x="550" 
d="M506 244q0 -51 -12.5 -94.5t-38.5 -80t-73.5 -57.5t-111.5 -21q-119 0 -172.5 69.5t-53.5 182.5q0 70 22.5 126t76.5 93.5t135 37.5q62 0 107.5 -21t71 -58t37.5 -81t12 -96zM392 243q0 177 -114 177q-34 0 -59 -15.5t-38 -42t-18.5 -55.5t-5.5 -64q0 -81 25.5 -126.5
t95.5 -45.5q114 0 114 172zM469 566l-30 -35l-160 94l-158 -95l-28 34l152 148h70z" />
    <glyph glyph-name="otilde" unicode="&#xf5;" horiz-adv-x="550" 
d="M506 244q0 -51 -12.5 -94.5t-38.5 -80t-73.5 -57.5t-111.5 -21q-119 0 -172.5 69.5t-53.5 182.5q0 70 22.5 126t76.5 93.5t135 37.5q62 0 107.5 -21t71 -58t37.5 -81t12 -96zM392 243q0 177 -114 177q-34 0 -59 -15.5t-38 -42t-18.5 -55.5t-5.5 -64q0 -81 25.5 -126.5
t95.5 -45.5q114 0 114 172zM356 568q-34 0 -88 19.5t-70 19.5l-56 -39l-34 26q29 83 94 83q27 0 82 -19t75 -19l56 40l34 -27q-13 -39 -37.5 -61.5t-55.5 -22.5z" />
    <glyph glyph-name="odieresis" unicode="&#xf6;" horiz-adv-x="550" 
d="M506 244q0 -51 -12.5 -94.5t-38.5 -80t-73.5 -57.5t-111.5 -21q-119 0 -172.5 69.5t-53.5 182.5q0 70 22.5 126t76.5 93.5t135 37.5q62 0 107.5 -21t71 -58t37.5 -81t12 -96zM392 243q0 177 -114 177q-34 0 -59 -15.5t-38 -42t-18.5 -55.5t-5.5 -64q0 -81 25.5 -126.5
t95.5 -45.5q114 0 114 172zM237 612q0 -23 -15.5 -37.5t-41.5 -14.5t-41 14.5t-15 37.5t15.5 37.5t39.5 14.5q27 0 42.5 -14.5t15.5 -37.5zM435 612q0 -23 -16 -37.5t-43 -14.5q-24 0 -38.5 14.5t-14.5 37.5t15 37.5t38 14.5q27 0 43 -14t16 -38z" />
    <glyph glyph-name="divide" unicode="&#xf7;" horiz-adv-x="572" 
d="M344 465q0 -24 -16.5 -41t-39.5 -17q-24 0 -41 17.5t-17 40.5q0 24 16.5 40.5t40.5 16.5t40.5 -16.5t16.5 -40.5zM487 266h-402v69h402v-69zM344 136q0 -24 -16.5 -41t-39.5 -17q-24 0 -41 17.5t-17 40.5q0 24 16.5 40t40.5 16t40.5 -16t16.5 -40z" />
    <glyph glyph-name="oslash" unicode="&#xf8;" horiz-adv-x="536" 
d="M498 244q0 -52 -12 -95t-38.5 -79.5t-73.5 -57t-112 -20.5q-93 0 -145 43l-33 -41q-7 0 -25 -0.5t-23 -0.5l55 66q-53 63 -53 184q0 70 22 126t76 93.5t135 37.5q89 0 146 -47l17.5 21.5t19.5 24.5h45l-56 -69q55 -67 55 -186zM271 71q114 0 114 172q0 64 -18 103
l-86.5 -113l-97.5 -127q30 -35 88 -35zM271 419q-119 0 -121 -174q0 -66 16 -102l85.5 109l99.5 129q-28 38 -80 38z" />
    <glyph glyph-name="ugrave" unicode="&#xf9;" horiz-adv-x="528" 
d="M199 -11q-47 0 -78 13t-44.5 38t-18 49.5t-4.5 60.5v339h109v-314q0 -24 2 -39t9 -30.5t23 -23t42 -7.5q63 0 125 55v359q19 0 55 0.5t54 0.5v-490h-104l-2 54l-3 2q-76 -67 -165 -67zM292 533l-159 138l69 71l135 -164z" />
    <glyph glyph-name="uacute" unicode="&#xfa;" horiz-adv-x="528" 
d="M199 -11q-47 0 -78 13t-44.5 38t-18 49.5t-4.5 60.5v339h109v-314q0 -24 2 -39t9 -30.5t23 -23t42 -7.5q63 0 125 55v359q19 0 55 0.5t54 0.5v-490h-104l-2 54l-3 2q-76 -67 -165 -67zM416 673l-158 -139l-42 40l134 166z" />
    <glyph glyph-name="ucircumflex" unicode="&#xfb;" horiz-adv-x="528" 
d="M199 -11q-47 0 -78 13t-44.5 38t-18 49.5t-4.5 60.5v339h109v-314q0 -24 2 -39t9 -30.5t23 -23t42 -7.5q63 0 125 55v359q19 0 55 0.5t54 0.5v-490h-104l-2 54l-3 2q-76 -67 -165 -67zM452 566l-30 -35l-160 94l-158 -95l-28 34l152 148h70z" />
    <glyph glyph-name="udieresis" unicode="&#xfc;" horiz-adv-x="528" 
d="M199 -11q-47 0 -78 13t-44.5 38t-18 49.5t-4.5 60.5v339h109v-314q0 -24 2 -39t9 -30.5t23 -23t42 -7.5q63 0 125 55v359q19 0 55 0.5t54 0.5v-490h-104l-2 54l-3 2q-76 -67 -165 -67zM226 613q0 -23 -15.5 -37.5t-41.5 -14.5t-41 14.5t-15 37.5t15.5 37.5t39.5 14.5
q27 0 42.5 -14.5t15.5 -37.5zM424 613q0 -23 -16 -37.5t-43 -14.5q-24 0 -38.5 14.5t-14.5 37.5t15 37.5t38 14.5q27 0 43 -14t16 -38z" />
    <glyph glyph-name="yacute" unicode="&#xfd;" horiz-adv-x="494" 
d="M248 68l27 94l52 172.5l47 154.5h109l-195 -579q-39 -125 -159 -125q-46 0 -107 17l16 74q50 -10 76 -10q32 0 50 14t30 51l8 24.5l9 27.5t8 23h-51l-48 153.5l-56 178l-48 151.5h109l94 -329q7 -25 23 -92h6zM392 673l-158 -139l-42 40l134 166z" />
    <glyph glyph-name="thorn" unicode="&#xfe;" horiz-adv-x="545" 
d="M54 -208v894h106v-244h1l1 -1q68 55 149 55q189 0 189 -245q0 -121 -49 -191t-155 -70q-76 0 -133 32q0 -38 -0.5 -114.5t-0.5 -115.5h-108zM163 370v-267q18 -13 50.5 -22.5t61.5 -9.5q114 0 114 183q0 89 -28.5 125t-81.5 36q-25 0 -61 -14.5t-55 -30.5z" />
    <glyph glyph-name="ydieresis" unicode="&#xff;" horiz-adv-x="494" 
d="M248 68l27 94l52 172.5l47 154.5h109l-195 -579q-39 -125 -159 -125q-46 0 -107 17l16 74q50 -10 76 -10q32 0 50 14t30 51l8 24.5l9 27.5t8 23h-51l-48 153.5l-56 178l-48 151.5h109l94 -329q7 -25 23 -92h6zM211 612q0 -23 -15.5 -37.5t-41.5 -14.5t-41 14.5t-15 37.5
t15.5 37.5t39.5 14.5q27 0 42.5 -14.5t15.5 -37.5zM409 612q0 -23 -16 -37.5t-43 -14.5q-24 0 -38.5 14.5t-14.5 37.5t15 37.5t38 14.5q27 0 43 -14t16 -38z" />
    <glyph glyph-name="Amacron" unicode="&#x100;" horiz-adv-x="617" 
d="M607 0h-117l-29 92.5l-24 76.5h-261l-53 -169h-114l116.5 346.5l113.5 339.5h143zM413 250l-48 162l-55 187h-4l-53 -183q-1 -4 -24.5 -81t-26.5 -85h211zM141 747v77h339v-77h-339z" />
    <glyph glyph-name="amacron" unicode="&#x101;" horiz-adv-x="552" 
d="M455 332v-256h65l6 -62q-44 -22 -101 -22q-34 0 -51 12.5t-19 47.5l-2 2q-73 -63 -169 -63q-41 0 -71.5 14t-46 36t-22.5 45t-7 46q0 68 54.5 106t139.5 42l119 8v27q0 55 -21 77t-78 22q-75 0 -153 -26q-8 30 -20 70q90 40 199 40q87 0 132.5 -38.5t45.5 -127.5zM95 588
v76h345v-76h-345zM350 227l-113 -8q-85 -6 -85 -75q0 -77 79 -77q58 0 119 55v105z" />
    <glyph glyph-name="Abreve" unicode="&#x102;" horiz-adv-x="617" 
d="M607 0h-117l-29 92.5l-24 76.5h-261l-53 -169h-114l116.5 346.5l113.5 339.5h143zM413 250l-48 162l-55 187h-4l-53 -183q-1 -4 -24.5 -81t-26.5 -85h211zM304 731q-90 0 -172 120l52 38q28 -39 61.5 -61.5t62.5 -22.5q66 0 146 78l32 -31q-81 -121 -182 -121z" />
    <glyph glyph-name="abreve" unicode="&#x103;" horiz-adv-x="552" 
d="M455 332v-256h65l6 -62q-44 -22 -101 -22q-34 0 -51 12.5t-19 47.5l-2 2q-73 -63 -169 -63q-41 0 -71.5 14t-46 36t-22.5 45t-7 46q0 68 54.5 106t139.5 42l119 8v27q0 55 -21 77t-78 22q-75 0 -153 -26q-8 30 -20 70q90 40 199 40q87 0 132.5 -38.5t45.5 -127.5z
M350 227l-113 -8q-85 -6 -85 -75q0 -77 79 -77q58 0 119 55v105zM262 549q-88 0 -173 121l53 39q62 -84 123 -84q67 0 147 77l34 -31q-81 -122 -184 -122z" />
    <glyph glyph-name="Aogonek" unicode="&#x104;" horiz-adv-x="617" 
d="M607 0h-78q-43 -61 -43 -112q0 -49 56 -49q17 0 72 11l9 -38q-54 -28 -114 -28q-49 0 -75 20t-26 56q0 82 79 148l-26 84l-24 77h-261l-53 -169h-114l116.5 346.5l113.5 339.5h143zM413 250l-48 162l-55 187h-4l-53 -183q-1 -4 -24.5 -81t-26.5 -85h211z" />
    <glyph glyph-name="aogonek" unicode="&#x105;" horiz-adv-x="552" 
d="M455 332v-256h65l6 -62q-39 -19 -88 -22q-35 -54 -35 -100q0 -49 56 -49q17 0 72 11l9 -38q-54 -28 -114 -28q-49 0 -75 20t-26 56q0 71 62 133q-29 11 -32 55l-2 2q-73 -63 -169 -63q-41 0 -71.5 14t-46 36t-22.5 45t-7 46q0 68 54.5 106t139.5 42l119 8v27q0 55 -21 77
t-78 22q-75 0 -153 -26q-8 30 -20 70q90 40 199 40q87 0 132.5 -38.5t45.5 -127.5zM350 227l-113 -8q-85 -6 -85 -75q0 -77 79 -77q58 0 119 55v105z" />
    <glyph glyph-name="Cacute" unicode="&#x106;" horiz-adv-x="608" 
d="M371 698q97 0 178 -28l-20 -83q-69 22 -145 22q-103 0 -156 -69t-53 -199q0 -127 47 -193.5t165 -66.5q81 0 162 23l20 -79q-90 -34 -204 -34q-309 0 -309 348q0 49 8.5 96t31 96t56.5 85t90.5 59t128.5 23zM510 871l-159 -139l-42 39l134 165z" />
    <glyph glyph-name="cacute" unicode="&#x107;" horiz-adv-x="469" 
d="M155 246q0 -169 131 -169q61 0 137 29l24 -73q-75 -40 -177 -40q-226 0 -226 246q0 36 5.5 69.5t21.5 69.5t40.5 62t67 43t97.5 17q82 0 146 -24l-20 -78q-51 16 -112 16q-64 0 -99.5 -45t-35.5 -123zM391 673l-158 -139l-42 40l134 166z" />
    <glyph glyph-name="Ccircumflex" unicode="&#x108;" horiz-adv-x="608" 
d="M371 698q97 0 178 -28l-20 -83q-69 22 -145 22q-103 0 -156 -69t-53 -199q0 -127 47 -193.5t165 -66.5q81 0 162 23l20 -79q-90 -34 -204 -34q-309 0 -309 348q0 49 8.5 96t31 96t56.5 85t90.5 59t128.5 23zM536 768l-29 -35l-160 90l-158 -91l-28 34l152 142h70z" />
    <glyph glyph-name="ccircumflex" unicode="&#x109;" horiz-adv-x="469" 
d="M155 246q0 -169 131 -169q61 0 137 29l24 -73q-75 -40 -177 -40q-226 0 -226 246q0 36 5.5 69.5t21.5 69.5t40.5 62t67 43t97.5 17q82 0 146 -24l-20 -78q-51 16 -112 16q-64 0 -99.5 -45t-35.5 -123zM451 566l-30 -35l-160 94l-158 -95l-28 34l152 148h70z" />
    <glyph glyph-name="Cdotaccent" unicode="&#x10a;" horiz-adv-x="608" 
d="M371 698q97 0 178 -28l-20 -83q-69 22 -145 22q-103 0 -156 -69t-53 -199q0 -127 47 -193.5t165 -66.5q81 0 162 23l20 -79q-90 -34 -204 -34q-309 0 -309 348q0 49 8.5 96t31 96t56.5 85t90.5 59t128.5 23zM410 825q0 -28 -19.5 -46.5t-49.5 -18.5t-48 18.5t-18 46.5
t18 47t48 19t49.5 -19t19.5 -47z" />
    <glyph glyph-name="cdotaccent" unicode="&#x10b;" horiz-adv-x="469" 
d="M155 246q0 -169 131 -169q61 0 137 29l24 -73q-75 -40 -177 -40q-226 0 -226 246q0 36 5.5 69.5t21.5 69.5t40.5 62t67 43t97.5 17q82 0 146 -24l-20 -78q-51 16 -112 16q-64 0 -99.5 -45t-35.5 -123zM320 629q0 -27 -17 -45t-44 -18t-43 17.5t-16 45.5t16 46t43 18
t44 -18.5t17 -45.5z" />
    <glyph glyph-name="Ccaron" unicode="&#x10c;" horiz-adv-x="608" 
d="M371 698q97 0 178 -28l-20 -83q-69 22 -145 22q-103 0 -156 -69t-53 -199q0 -127 47 -193.5t165 -66.5q81 0 162 23l20 -79q-90 -34 -204 -34q-309 0 -309 348q0 49 8.5 96t31 96t56.5 85t90.5 59t128.5 23zM501 906l29 -35l-154 -139h-68l-153 141l28 32l159 -91z" />
    <glyph glyph-name="ccaron" unicode="&#x10d;" horiz-adv-x="469" 
d="M155 246q0 -169 131 -169q61 0 137 29l24 -73q-75 -40 -177 -40q-226 0 -226 246q0 36 5.5 69.5t21.5 69.5t40.5 62t67 43t97.5 17q82 0 146 -24l-20 -78q-51 16 -112 16q-64 0 -99.5 -45t-35.5 -123zM425 725l30 -34l-154 -147h-69l-153 148l28 34l159 -97z" />
    <glyph glyph-name="Dcaron" unicode="&#x10e;" horiz-adv-x="665" 
d="M308 0h-231v686h239q292 0 292 -341q0 -74 -15 -133t-48.5 -108.5t-93.5 -76.5t-143 -27zM300 604h-108v-520h105q194 0 194 255q0 265 -191 265zM458 906l29 -35l-154 -139h-68l-153 141l28 32l159 -91z" />
    <glyph glyph-name="dcaron" unicode="&#x10f;" horiz-adv-x="673" 
d="M555 687q0 23 17.5 39.5t43.5 16.5q29 0 46.5 -19.5t16.5 -48.5q-1 -42 -27 -78.5t-68 -56.5l-25 31q35 31 36 64q-40 9 -40 52zM248 501q79 0 133 -34v246h109v-713h-104l-1 45l-2 2q-65 -53 -151 -53q-188 0 -188 241q0 122 49 194t155 72zM381 117v270
q-18 12 -51.5 21.5t-60.5 9.5q-114 0 -114 -183q0 -89 28.5 -125.5t81.5 -36.5q25 0 61 14t55 30z" />
    <glyph glyph-name="Dcroat" unicode="&#x110;" horiz-adv-x="665" 
d="M308 0h-231v325h-61v67h61v294h239q292 0 292 -341q0 -74 -15 -133t-48.5 -108.5t-93.5 -76.5t-143 -27zM300 604h-108v-212h142v-67h-142v-241h105q194 0 194 255q0 265 -191 265z" />
    <glyph glyph-name="dcroat" unicode="&#x111;" horiz-adv-x="546" 
d="M385 45l-2 2q-65 -53 -151 -53q-188 0 -188 231q0 116 47 185t149 69q92 0 141 -31v97h-146v50h146v118h109v-118h65v-50h-65v-545h-104q0 30 -1 45zM381 117v249q-18 12 -51 22t-61 10q-114 0 -114 -173q0 -87 28.5 -119.5t81.5 -32.5q26 0 62 14t54 30z" />
    <glyph glyph-name="Emacron" unicode="&#x112;" horiz-adv-x="583" 
d="M534 0h-458v686h443v-82h-329v-204h277v-78h-277v-239h344v-83zM135 747v77h339v-77h-339z" />
    <glyph glyph-name="emacron" unicode="&#x113;" horiz-adv-x="523" 
d="M99 588v76h345v-76h-345zM270 501q210 0 210 -236v-39h-325q0 -151 132 -151q74 0 157 33l24 -68q-87 -47 -194 -47q-67 0 -113.5 19.5t-71 55.5t-35 78.5t-10.5 97.5q0 32 5 64t20.5 68t39.5 62.5t65.5 44.5t95.5 18zM273 423q-103 0 -116 -129h221q-3 129 -105 129z
" />
    <glyph glyph-name="Ebreve" unicode="&#x114;" horiz-adv-x="583" 
d="M534 0h-458v686h443v-82h-329v-204h277v-78h-277v-239h344v-83zM294 730q-90 0 -172 120l52 38q28 -39 61.5 -61.5t62.5 -22.5q66 0 146 78l32 -31q-81 -121 -182 -121z" />
    <glyph glyph-name="ebreve" unicode="&#x115;" horiz-adv-x="523" 
d="M268 549q-88 0 -173 121l53 39q62 -84 123 -84q67 0 147 77l34 -31q-81 -122 -184 -122zM270 501q210 0 210 -236v-39h-325q0 -151 132 -151q74 0 157 33l24 -68q-87 -47 -194 -47q-67 0 -113.5 19.5t-71 55.5t-35 78.5t-10.5 97.5q0 32 5 64t20.5 68t39.5 62.5
t65.5 44.5t95.5 18zM273 423q-103 0 -116 -129h221q-3 129 -105 129z" />
    <glyph glyph-name="Edotaccent" unicode="&#x116;" horiz-adv-x="583" 
d="M534 0h-458v686h443v-82h-329v-204h277v-78h-277v-239h344v-83zM387 819q0 -28 -19.5 -46.5t-49.5 -18.5t-48 18.5t-18 46.5t18 47t48 19t49.5 -19t19.5 -47z" />
    <glyph glyph-name="edotaccent" unicode="&#x117;" horiz-adv-x="523" 
d="M339 629q0 -28 -19.5 -46.5t-49.5 -18.5t-48 18.5t-18 46.5t18 47t48 19t49.5 -19t19.5 -47zM270 501q210 0 210 -236v-39h-325q0 -151 132 -151q74 0 157 33l24 -68q-87 -47 -194 -47q-67 0 -113.5 19.5t-71 55.5t-35 78.5t-10.5 97.5q0 32 5 64t20.5 68t39.5 62.5
t65.5 44.5t95.5 18zM273 423q-103 0 -116 -129h221q-3 129 -105 129z" />
    <glyph glyph-name="Eogonek" unicode="&#x118;" horiz-adv-x="583" 
d="M534 0h-25q-42 -58 -42 -110q0 -49 56 -49q17 0 72 11l9 -38q-54 -28 -114 -28q-49 0 -75 20t-26 56q0 74 68 138h-381v686h443v-82h-329v-204h277v-78h-277v-239h344v-83z" />
    <glyph glyph-name="eogonek" unicode="&#x119;" horiz-adv-x="523" 
d="M270 501q210 0 210 -236v-39h-325q0 -151 132 -151q74 0 157 33l24 -68q-29 -17 -65 -28q-30 -51 -30 -92q0 -49 56 -49q17 0 72 11l9 -38q-54 -28 -114 -28q-49 0 -75 20t-26 56q0 54 38 105q-27 -4 -59 -4q-67 0 -113.5 19.5t-71 55.5t-35 78.5t-10.5 97.5q0 32 5 64
t20.5 68t39.5 62.5t65.5 44.5t95.5 18zM273 423q-103 0 -116 -129h222q-2 63 -26 96t-80 33z" />
    <glyph glyph-name="Ecaron" unicode="&#x11a;" horiz-adv-x="583" 
d="M534 0h-458v686h443v-82h-329v-204h277v-78h-277v-239h344v-83zM451 904l29 -35l-154 -139h-68l-153 141l28 32l159 -91z" />
    <glyph glyph-name="ecaron" unicode="&#x11b;" horiz-adv-x="523" 
d="M425 725l30 -34l-154 -147h-69l-153 148l28 34l159 -97zM270 501q210 0 210 -236v-39h-325q0 -151 132 -151q74 0 157 33l24 -68q-87 -47 -194 -47q-67 0 -113.5 19.5t-71 55.5t-35 78.5t-10.5 97.5q0 32 5 64t20.5 68t39.5 62.5t65.5 44.5t95.5 18zM273 423
q-103 0 -116 -129h221q-3 129 -105 129z" />
    <glyph glyph-name="Gcircumflex" unicode="&#x11c;" horiz-adv-x="646" 
d="M386 698q100 0 181 -28l-19 -82q-77 22 -151 22q-222 0 -222 -275q0 -121 44 -187t151 -66q61 0 108 13v262h104v-331q-104 -35 -219 -35q-307 0 -307 349q0 50 8.5 96.5t31.5 95.5t58.5 84.5t95 58.5t136.5 23zM550 767l-29 -35l-160 90l-158 -91l-28 34l152 142h70z
" />
    <glyph glyph-name="gcircumflex" unicode="&#x11d;" horiz-adv-x="571" 
d="M122 194l2 3q-63 35 -63 125t61 135t147 45q57 0 98 -12h166v-61h-73l-2 -5q30 -34 30 -97q0 -80 -60 -124.5t-155 -44.5l-55 -1q-71 0 -71 -34q0 -13 12.5 -21t33.5 -8h135q92 0 141.5 -37t49.5 -110t-67 -118.5t-193 -45.5q-218 0 -218 142q0 36 19 66t45 45
q-58 14 -58 71q0 66 75 87zM308 22h-109q-19 -7 -35.5 -31t-16.5 -47q0 -39 27.5 -62t100.5 -23q64 0 99 23t35 62q0 78 -101 78zM379 327q0 42 -25 71t-81 29q-51 0 -77.5 -26.5t-26.5 -73.5q0 -45 26 -71.5t70 -26.5q51 0 82.5 24.5t31.5 73.5zM460 566l-30 -35l-160 94
l-158 -95l-28 34l152 148h70z" />
    <glyph glyph-name="Gbreve" unicode="&#x11e;" horiz-adv-x="646" 
d="M386 698q100 0 181 -28l-19 -82q-77 22 -151 22q-222 0 -222 -275q0 -121 44 -187t151 -66q61 0 108 13v262h104v-331q-104 -35 -219 -35q-307 0 -307 349q0 50 8.5 96.5t31.5 95.5t58.5 84.5t95 58.5t136.5 23zM352 732q-90 0 -172 120l52 38q28 -39 61.5 -61.5
t62.5 -22.5q66 0 146 78l32 -31q-81 -121 -182 -121z" />
    <glyph glyph-name="gbreve" unicode="&#x11f;" horiz-adv-x="571" 
d="M122 194l2 3q-63 35 -63 125t61 135t147 45q57 0 98 -12h166v-61h-73l-2 -5q30 -34 30 -97q0 -80 -60 -124.5t-155 -44.5l-55 -1q-71 0 -71 -34q0 -13 12.5 -21t33.5 -8h135q92 0 141.5 -37t49.5 -110t-67 -118.5t-193 -45.5q-218 0 -218 142q0 36 19 66t45 45
q-58 14 -58 71q0 66 75 87zM308 22h-109q-19 -7 -35.5 -31t-16.5 -47q0 -39 27.5 -62t100.5 -23q64 0 99 23t35 62q0 78 -101 78zM379 327q0 42 -25 71t-81 29q-51 0 -77.5 -26.5t-26.5 -73.5q0 -45 26 -71.5t70 -26.5q51 0 82.5 24.5t31.5 73.5zM273 549q-88 0 -173 121
l53 39q62 -84 123 -84q67 0 147 77l34 -31q-81 -122 -184 -122z" />
    <glyph glyph-name="Gdotaccent" unicode="&#x120;" horiz-adv-x="646" 
d="M386 698q100 0 181 -28l-19 -82q-77 22 -151 22q-222 0 -222 -275q0 -121 44 -187t151 -66q61 0 108 13v262h104v-331q-104 -35 -219 -35q-307 0 -307 349q0 50 8.5 96.5t31.5 95.5t58.5 84.5t95 58.5t136.5 23zM439 820q0 -28 -19.5 -46.5t-49.5 -18.5t-48 18.5
t-18 46.5t18 47t48 19t49.5 -19t19.5 -47z" />
    <glyph glyph-name="gdotaccent" unicode="&#x121;" horiz-adv-x="571" 
d="M122 194l2 3q-63 35 -63 125t61 135t147 45q57 0 98 -12h166v-61h-73l-2 -5q30 -34 30 -97q0 -80 -60 -124.5t-155 -44.5l-55 -1q-71 0 -71 -34q0 -13 12.5 -21t33.5 -8h135q92 0 141.5 -37t49.5 -110t-67 -118.5t-193 -45.5q-218 0 -218 142q0 36 19 66t45 45
q-58 14 -58 71q0 66 75 87zM308 22h-109q-19 -7 -35.5 -31t-16.5 -47q0 -39 27.5 -62t100.5 -23q64 0 99 23t35 62q0 78 -101 78zM379 327q0 42 -25 71t-81 29q-51 0 -77.5 -26.5t-26.5 -73.5q0 -45 26 -71.5t70 -26.5q51 0 82.5 24.5t31.5 73.5zM338 629q0 -28 -19.5 -46.5
t-49.5 -18.5t-48 18.5t-18 46.5t18 47t48 19t49.5 -19t19.5 -47z" />
    <glyph glyph-name="Gcommaaccent" unicode="&#x122;" horiz-adv-x="646" 
d="M386 698q100 0 181 -28l-19 -82q-77 22 -151 22q-222 0 -222 -275q0 -121 44 -187t151 -66q61 0 108 13v262h104v-331q-104 -35 -219 -35q-307 0 -307 349q0 50 8.5 96.5t31.5 95.5t58.5 84.5t95 58.5t136.5 23zM301 -96q0 23 17.5 39.5t43.5 16.5q29 0 46.5 -19.5
t16.5 -48.5q-1 -42 -27 -78.5t-68 -56.5l-25 31q35 31 36 64q-40 9 -40 52z" />
    <glyph glyph-name="gcommaaccent" unicode="&#x123;" horiz-adv-x="571" 
d="M338 603q0 -24 -19 -40.5t-46 -16.5q-30 0 -47.5 19.5t-17.5 48.5v2q1 42 28 78t71 57q5 -5 13 -16t13 -16q-36 -31 -37 -63q42 -10 42 -53zM122 194l2 3q-63 35 -63 125t61 135t147 45q57 0 98 -12h166v-61h-73l-2 -5q30 -34 30 -97q0 -80 -60 -124.5t-155 -44.5l-55 -1
q-71 0 -71 -34q0 -13 12.5 -21t33.5 -8h135q92 0 141.5 -37t49.5 -110t-67 -118.5t-193 -45.5q-218 0 -218 142q0 36 19 66t45 45q-58 14 -58 71q0 66 75 87zM308 22h-109q-19 -7 -35.5 -31t-16.5 -47q0 -39 27.5 -62t100.5 -23q64 0 99 23t35 62q0 78 -101 78zM379 327
q0 42 -25 71t-81 29q-51 0 -77.5 -26.5t-26.5 -73.5q0 -45 26 -71.5t70 -26.5q51 0 82.5 24.5t31.5 73.5z" />
    <glyph glyph-name="Hcircumflex" unicode="&#x124;" horiz-adv-x="679" 
d="M601 0h-115v317h-296q0 -53 0.5 -159t0.5 -158h-115v685h115q0 -47 -0.5 -141t-0.5 -141h296v282h115v-685zM520 765l-29 -35l-160 90l-158 -91l-28 34l152 142h70z" />
    <glyph glyph-name="hcircumflex" unicode="&#x125;" horiz-adv-x="539" 
d="M159 450l8 -4q98 55 170 55q48 0 78.5 -13t44.5 -38.5t18.5 -50.5t4.5 -61v-338h-109v314q0 54 -14.5 77t-63.5 23q-58 0 -132 -43v-371h-110v713h108v-159zM299 777l-29 -35l-160 90l-158 -91l-28 34l152 142h70z" />
    <glyph glyph-name="Hbar" unicode="&#x126;" horiz-adv-x="679" 
d="M602 0h-115v318h-296v-318h-114v509h-65v51h65v126h114v-126h296v126h115v-126h62v-51h-62v-509zM191 404h296v105h-296v-105z" />
    <glyph glyph-name="hbar" unicode="&#x127;" horiz-adv-x="557" 
d="M502 0h-109v284q0 54 -15.5 77t-62.5 23q-59 0 -133 -43v-341h-109v550h-68v53h68v110h108v-110h181v-53h-182v-136q108 57 175 57q38 0 66 -9.5t43.5 -24t24 -37.5t11 -43.5t2.5 -48.5v-308z" />
    <glyph glyph-name="Itilde" unicode="&#x128;" horiz-adv-x="284" 
d="M198 0h-112v686h112v-686zM221 752q-35 0 -88 19.5t-70 19.5l-56 -39l-34 26q29 83 94 83q27 0 82 -19t75 -19l56 40l34 -27q-13 -39 -37.5 -61.5t-55.5 -22.5z" />
    <glyph glyph-name="itilde" unicode="&#x129;" horiz-adv-x="274" 
d="M217 575q-35 0 -88 19.5t-70 19.5l-56 -39l-34 26q30 83 94 83q27 0 82.5 -19.5t74.5 -19.5l57 41l33 -27q-13 -39 -37.5 -61.5t-55.5 -22.5zM190 0h-109v489h109v-489z" />
    <glyph glyph-name="Imacron" unicode="&#x12a;" horiz-adv-x="284" 
d="M198 0h-112v686h112v-686zM-27 747v77h339v-77h-339z" />
    <glyph glyph-name="imacron" unicode="&#x12b;" horiz-adv-x="274" 
d="M190 0h-109v489h109v-489zM-36 588v76h344v-76h-344z" />
    <glyph glyph-name="Ibreve" unicode="&#x12c;" horiz-adv-x="284" 
d="M138 733q-90 0 -172 120l52 38q28 -39 61.5 -61.5t62.5 -22.5q66 0 146 78l32 -31q-81 -121 -182 -121zM198 0h-112v686h112v-686z" />
    <glyph glyph-name="ibreve" unicode="&#x12d;" horiz-adv-x="274" 
d="M190 0h-109v489h109v-489zM132 549q-89 0 -173 121l53 39q29 -40 62.5 -62t62.5 -22q65 0 145 78l34 -32q-81 -122 -184 -122z" />
    <glyph glyph-name="Iogonek" unicode="&#x12e;" horiz-adv-x="284" 
d="M198 0h-34q-41 -59 -41 -109q0 -49 56 -49q17 0 72 11l9 -38q-54 -28 -114 -28q-49 0 -75 20t-26 56q0 74 67 137h-26v686h112v-686z" />
    <glyph glyph-name="iogonek" unicode="&#x12f;" horiz-adv-x="274" 
d="M190 0h-37q-37 -56 -37 -103q0 -49 56 -49q17 0 72 11l9 -38q-54 -28 -114 -28q-49 0 -75 20t-26 56q0 71 60 131h-17v489h109v-489zM204 621q0 -26 -19 -44.5t-49 -18.5q-29 0 -47.5 18.5t-18.5 44.5q0 27 18.5 45.5t47.5 18.5q30 0 49 -18.5t19 -45.5z" />
    <glyph glyph-name="Idotaccent" unicode="&#x130;" horiz-adv-x="284" 
d="M198 0h-112v686h112v-686zM209 821q0 -28 -19.5 -46.5t-49.5 -18.5t-48 18.5t-18 46.5t18 47t48 19t49.5 -19t19.5 -47z" />
    <glyph glyph-name="dotlessi" unicode="&#x131;" horiz-adv-x="274" 
d="M190 0h-109v489h109v-489z" />
    <glyph glyph-name="IJ" unicode="&#x132;" horiz-adv-x="601" 
d="M199 0h-113v686h113v-686zM391 139l1 547h113l-1 -546q0 -132 -64 -209.5t-193 -115.5l-29 79q102 56 137.5 106t35.5 139z" />
    <glyph glyph-name="ij" unicode="&#x133;" horiz-adv-x="524" 
d="M190 0h-109v489h109v-489zM204 620q0 -26 -19 -44.5t-50 -18.5q-29 0 -47.5 18.5t-18.5 44.5q0 28 19 46.5t47 18.5q31 0 50 -18.5t19 -46.5zM334 32v457h109q0 -444 -1 -467q-3 -102 -46 -155.5t-151 -87.5q-4 8 -16 37.5t-15 35.5q75 43 97.5 77.5t22.5 102.5zM324 620
q0 28 18 46.5t48 18.5t49 -18.5t19 -46.5q0 -27 -19 -45t-49 -18q-29 0 -47.5 18t-18.5 45z" />
    <glyph glyph-name="Jcircumflex" unicode="&#x134;" horiz-adv-x="334" 
d="M124 140l1 548h113l-1 -547q0 -132 -63.5 -209.5t-193.5 -115.5l-29 79q102 56 137.5 106t35.5 139zM370 767l-29 -35l-160 90l-158 -91l-28 34l152 142h70z" />
    <glyph glyph-name="jcircumflex" unicode="&#x135;" horiz-adv-x="315" 
d="M99 32v457h109v-396q0 -32 -2 -88q-7 -93 -50 -142.5t-146 -83.5q-3 7 -30 74q73 42 96 76.5t23 102.5zM345 565q-3 -4 -14 -16t-16 -19l-160 94l-157 -94l-13 16.5t-15 16.5l151 148h70z" />
    <glyph glyph-name="Kcommaaccent" unicode="&#x136;" horiz-adv-x="618" 
d="M188 396h7l44 49l227 241h130l-264 -271l276 -415h-131l-220 339l-69 -70v-269h-112v686h112v-290zM250 -96q0 23 17.5 39.5t43.5 16.5q29 0 46.5 -19.5t16.5 -48.5q-1 -42 -27 -78.5t-68 -56.5l-25 31q35 31 36 64q-40 9 -40 52z" />
    <glyph glyph-name="kcommaaccent" unicode="&#x137;" horiz-adv-x="489" 
d="M160 304l6 -2l180 187h123l-187 -192l34 -41l167 -256h-121l-148 233l-50 -50v-183h-110v712h110l-1 -306q0 -3 -3 -102zM185 -96q0 23 17.5 39.5t43.5 16.5q29 0 46.5 -19.5t16.5 -48.5q-1 -42 -27 -78.5t-68 -56.5l-25 31q35 31 36 64q-40 9 -40 52z" />
    <glyph glyph-name="kgreenlandic" unicode="&#x138;" horiz-adv-x="488" 
d="M160 304l6 -2l180 187h123l-187 -192q5 -7 17 -20.5t17 -20.5l167 -256h-121l-148 233q-7 -8 -15.5 -16.5l-19 -18.5l-15.5 -15v-183h-110v488h110v-80z" />
    <glyph glyph-name="Lacute" unicode="&#x139;" horiz-adv-x="556" 
d="M546 0h-470v686h114v-605h356v-81zM301 870l-159 -139l-42 39l134 165z" />
    <glyph glyph-name="lacute" unicode="&#x13a;" horiz-adv-x="248" 
d="M178 713l-1 -713h-108v713h109zM275 881l-159 -139l-42 39l134 165z" />
    <glyph glyph-name="Lcommaaccent" unicode="&#x13b;" horiz-adv-x="556" 
d="M546 0h-470v686h114v-605h356v-81zM240 -96q0 23 17.5 39.5t43.5 16.5q29 0 46.5 -19.5t16.5 -48.5q-1 -42 -27 -78.5t-68 -56.5l-25 31q35 31 36 64q-40 9 -40 52z" />
    <glyph glyph-name="lcommaaccent" unicode="&#x13c;" horiz-adv-x="248" 
d="M178 713l-1 -713h-108v713h109zM63 -96q0 23 17.5 39.5t43.5 16.5q29 0 46.5 -19.5t16.5 -48.5q-1 -42 -27 -78.5t-68 -56.5l-25 31q35 31 36 64q-40 9 -40 52z" />
    <glyph glyph-name="Lcaron" unicode="&#x13d;" horiz-adv-x="561" 
d="M546 0h-470v685h114v-604h356v-81zM366 625q0 23 18 39.5t44 16.5q28 0 45.5 -19t17.5 -47q0 -41 -26.5 -78t-68.5 -58l-25 31q35 29 35 63q-40 10 -40 52z" />
    <glyph glyph-name="lcaron" unicode="&#x13e;" horiz-adv-x="374" 
d="M239 662q0 23 17.5 39.5t43.5 16.5q28 0 45.5 -19.5t17.5 -47.5q-1 -42 -27 -78.5t-68 -57.5l-25 32q35 30 36 63q-40 9 -40 52zM177 713v-713h-108v713h108z" />
    <glyph glyph-name="Ldot" unicode="&#x13f;" horiz-adv-x="561" 
d="M546 0h-470v685h114v-604h356v-81zM492 384q0 -28 -19.5 -46.5t-50.5 -18.5q-29 0 -47.5 18.5t-18.5 46.5t18.5 47t47.5 19q31 0 50.5 -19t19.5 -47z" />
    <glyph glyph-name="ldot" unicode="&#x140;" horiz-adv-x="375" 
d="M370 354q0 -27 -19.5 -46t-49.5 -19t-48.5 18.5t-18.5 46.5t18.5 47t48.5 19t49.5 -19t19.5 -47zM177 713v-713h-108v713h108z" />
    <glyph glyph-name="Lslash" unicode="&#x141;" horiz-adv-x="556" 
d="M546 0h-470v231l-67 -39l-31 53l98 55v386h114v-320l119 68l30 -50l-149 -86v-217h356v-81z" />
    <glyph glyph-name="lslash" unicode="&#x142;" horiz-adv-x="294" 
d="M198 713l-1 -302l81 42l26 -53l-107 -55v-345h-108v288l-69 -37l-26 50l95 51v361h109z" />
    <glyph glyph-name="Nacute" unicode="&#x143;" horiz-adv-x="709" 
d="M517 173h6v512h109v-685h-112l-133 209l-117 184l-81 131h-1q-2 -1 -3 -1v-523h-109v685h114l233 -363zM511 855l-159 -139l-42 39l134 165z" />
    <glyph glyph-name="nacute" unicode="&#x144;" horiz-adv-x="539" 
d="M483 0h-109v314q0 54 -15.5 77t-62.5 23q-58 0 -132 -43v-371h-110v489h105l1 -43l4 -2q89 57 171 57q38 0 66 -9.5t43.5 -24t24.5 -37t11.5 -43.5t2.5 -49v-338zM391 673l-158 -139l-42 40l134 166z" />
    <glyph glyph-name="Ncommaaccent" unicode="&#x145;" horiz-adv-x="709" 
d="M517 173h6v512h109v-685h-112l-133 209l-117 184l-81 131h-1q-2 -1 -3 -1v-523h-109v685h114l233 -363zM286 -96q0 23 17.5 39.5t43.5 16.5q29 0 46.5 -19.5t16.5 -48.5q-1 -42 -27 -78.5t-68 -56.5l-25 31q35 31 36 64q-40 9 -40 52z" />
    <glyph glyph-name="ncommaaccent" unicode="&#x146;" horiz-adv-x="539" 
d="M483 0h-109v314q0 54 -15.5 77t-62.5 23q-58 0 -132 -43v-371h-110v489h105l1 -43l4 -2q89 57 171 57q38 0 66 -9.5t43.5 -24t24.5 -37t11.5 -43.5t2.5 -49v-338zM215 -96q0 23 17.5 39.5t43.5 16.5q29 0 46.5 -19.5t16.5 -48.5q-1 -42 -27 -78.5t-68 -56.5l-25 31
q35 31 36 64q-40 9 -40 52z" />
    <glyph glyph-name="Ncaron" unicode="&#x147;" horiz-adv-x="709" 
d="M517 173h6v512h109v-685h-112l-133 209l-117 184l-81 131h-1q-2 -1 -3 -1v-523h-109v685h114l233 -363zM528 903l29 -35l-154 -139h-68l-153 141l28 32l159 -91z" />
    <glyph glyph-name="ncaron" unicode="&#x148;" horiz-adv-x="539" 
d="M483 0h-109v314q0 54 -15.5 77t-62.5 23q-58 0 -132 -43v-371h-110v489h105l1 -43l4 -2q89 57 171 57q38 0 66 -9.5t43.5 -24t24.5 -37t11.5 -43.5t2.5 -49v-338zM422 725l30 -34l-154 -147h-69l-153 148l28 34l159 -97z" />
    <glyph glyph-name="napostrophe" unicode="&#x149;" horiz-adv-x="604" 
d="M548 0h-109v314q0 54 -15.5 77t-62.5 23q-58 0 -132 -43v-371h-110v489h105l1 -43l4 -2q89 57 171 57q38 0 66 -9.5t43.5 -24t24.5 -37t11.5 -43.5t2.5 -49v-338zM-4 631q0 23 17.5 39.5t43.5 16.5q29 0 46.5 -19.5t16.5 -48.5q-1 -42 -27 -78.5t-68 -56.5l-25 31
q35 31 36 64q-40 9 -40 52z" />
    <glyph glyph-name="Eng" unicode="&#x14a;" horiz-adv-x="709" 
d="M517 173h6v512h109v-693q0 -93 -38.5 -142t-135.5 -49q-52 0 -99 12l11 78q40 -5 67 -5q90 0 90 71v34l-137 213.5l-120 188.5l-81 131h-1q-2 -1 -3 -1v-523h-109v685h114l233 -363z" />
    <glyph glyph-name="eng" unicode="&#x14b;" horiz-adv-x="539" 
d="M334 501q47 0 78 -13t45.5 -38.5t19.5 -51t5 -60.5v-346q0 -66 -40.5 -113t-134.5 -47q-52 0 -98 11l10 74q35 -5 71 -5q43 0 63 19t20 62v321q0 49 -15.5 74.5t-62.5 25.5q-59 0 -131 -43v-371h-110v489h105l1 -42l4 -2q87 56 170 56z" />
    <glyph glyph-name="Omacron" unicode="&#x14c;" horiz-adv-x="720" 
d="M663 342q0 -156 -77.5 -253.5t-221.5 -97.5q-158 0 -232.5 91.5t-74.5 256.5q0 75 17 138t52.5 113t96 78.5t141.5 28.5t140.5 -28.5t93.5 -79t49.5 -112t15.5 -135.5zM544 339q0 276 -180 276q-189 0 -189 -277q0 -131 45 -197t144 -66q90 0 135 73t45 191zM190 747v77
h339v-77h-339z" />
    <glyph glyph-name="omacron" unicode="&#x14d;" horiz-adv-x="550" 
d="M506 244q0 -51 -12.5 -94.5t-38.5 -80t-73.5 -57.5t-111.5 -21q-119 0 -172.5 69.5t-53.5 182.5q0 70 22.5 126t76.5 93.5t135 37.5q62 0 107.5 -21t71 -58t37.5 -81t12 -96zM392 243q0 177 -114 177q-34 0 -59 -15.5t-38 -42t-18.5 -55.5t-5.5 -64q0 -81 25.5 -126.5
t95.5 -45.5q114 0 114 172zM104 588v76h345v-76h-345z" />
    <glyph glyph-name="Obreve" unicode="&#x14e;" horiz-adv-x="720" 
d="M663 342q0 -156 -77.5 -253.5t-221.5 -97.5q-158 0 -232.5 91.5t-74.5 256.5q0 75 17 138t52.5 113t96 78.5t141.5 28.5t140.5 -28.5t93.5 -79t49.5 -112t15.5 -135.5zM544 339q0 276 -180 276q-189 0 -189 -277q0 -131 45 -197t144 -66q90 0 135 73t45 191zM357 733
q-90 0 -172 120l52 38q28 -39 61.5 -61.5t62.5 -22.5q66 0 146 78l32 -31q-81 -121 -182 -121z" />
    <glyph glyph-name="obreve" unicode="&#x14f;" horiz-adv-x="550" 
d="M506 244q0 -51 -12.5 -94.5t-38.5 -80t-73.5 -57.5t-111.5 -21q-119 0 -172.5 69.5t-53.5 182.5q0 70 22.5 126t76.5 93.5t135 37.5q62 0 107.5 -21t71 -58t37.5 -81t12 -96zM392 243q0 177 -114 177q-34 0 -59 -15.5t-38 -42t-18.5 -55.5t-5.5 -64q0 -81 25.5 -126.5
t95.5 -45.5q114 0 114 172zM274 549q-88 0 -173 121l53 39q62 -84 123 -84q67 0 147 77l34 -31q-81 -122 -184 -122z" />
    <glyph glyph-name="Ohungarumlaut" unicode="&#x150;" horiz-adv-x="720" 
d="M663 342q0 -156 -77.5 -253.5t-221.5 -97.5q-158 0 -232.5 91.5t-74.5 256.5q0 75 17 138t52.5 113t96 78.5t141.5 28.5t140.5 -28.5t93.5 -79t49.5 -112t15.5 -135.5zM544 339q0 276 -180 276q-189 0 -189 -277q0 -131 45 -197t144 -66q90 0 135 73t45 191zM447 885
l-150 -152l-47 35l123 175zM585 885l-150 -152l-46 35l122 175z" />
    <glyph glyph-name="ohungarumlaut" unicode="&#x151;" horiz-adv-x="550" 
d="M506 244q0 -51 -12.5 -94.5t-38.5 -80t-73.5 -57.5t-111.5 -21q-119 0 -172.5 69.5t-53.5 182.5q0 70 22.5 126t76.5 93.5t135 37.5q62 0 107.5 -21t71 -58t37.5 -81t12 -96zM392 243q0 177 -114 177q-34 0 -59 -15.5t-38 -42t-18.5 -55.5t-5.5 -64q0 -81 25.5 -126.5
t95.5 -45.5q114 0 114 172zM337 685l-150 -153l-43 35l123 175zM479 685l-151 -153l-43 35l123 175z" />
    <glyph glyph-name="OE" unicode="&#x152;" horiz-adv-x="847" 
d="M816 0h-384q-38 -8 -78 -8q-158 0 -232.5 91t-74.5 256q0 75 17 138t52.5 113t96 78.5t141.5 28.5q54 0 98 -12h349v-80h-311v-207h260v-78h-260v-240h326v-80zM354 74q14 0 22 1v538q-3 0 -11.5 0.5t-12.5 0.5q-187 -3 -187 -276q0 -132 45 -198t144 -66z" />
    <glyph glyph-name="oe" unicode="&#x153;" horiz-adv-x="852" 
d="M782 108l24 -67q-88 -46 -190 -46q-126 0 -176 81q-59 -85 -178 -85q-117 0 -171 69.5t-54 181.5q0 70 22.5 126.5t77 94t133.5 37.5q116 0 171 -89q55 91 174 91q54 0 93.5 -18t60 -43t32.5 -60.5t15 -60.5t3 -53v-38h-320q0 -154 130 -154q73 0 153 33zM385 243
q0 177 -115 177q-120 0 -120 -177q0 -80 25 -126t95 -46q115 0 115 172zM501 282h217q0 141 -103 141q-104 0 -114 -141z" />
    <glyph glyph-name="Racute" unicode="&#x154;" horiz-adv-x="613" 
d="M545 493q0 -61 -31 -110t-89 -67q37 -12 56 -41.5t34 -79.5l56 -195h-113q-36 122 -53 184q-16 59 -45.5 81.5t-78.5 22.5h-93v-288h-112v686h255q105 0 159.5 -53t54.5 -140zM188 370h123q47 0 82.5 26.5t35.5 90.5q0 59 -32.5 87.5t-86.5 28.5h-122v-233zM434 868
l-159 -139l-42 39l134 165z" />
    <glyph glyph-name="racute" unicode="&#x155;" horiz-adv-x="380" 
d="M168 416l6 -4q41 37 91 63.5t87 26.5q26 0 26 -29q0 -20 -11 -53.5t-24 -50.5l-85 -6t-83 -5v-358h-110v489h108q-2 -36 -5 -73zM308 673l-158 -139l-42 40l134 166z" />
    <glyph glyph-name="Rcommaaccent" unicode="&#x156;" horiz-adv-x="613" 
d="M545 493q0 -61 -31 -110t-89 -67q37 -12 56 -41.5t34 -79.5l56 -195h-113q-36 122 -53 184q-16 59 -45.5 81.5t-78.5 22.5h-93v-288h-112v686h255q105 0 159.5 -53t54.5 -140zM188 370h123q47 0 82.5 26.5t35.5 90.5q0 59 -32.5 87.5t-86.5 28.5h-122v-233zM248 -96
q0 23 17.5 39.5t43.5 16.5q29 0 46.5 -19.5t16.5 -48.5q-1 -42 -27 -78.5t-68 -56.5l-25 31q35 31 36 64q-40 9 -40 52z" />
    <glyph glyph-name="rcommaaccent" unicode="&#x157;" horiz-adv-x="380" 
d="M168 416l6 -4q41 37 91 63.5t87 26.5q26 0 26 -29q0 -20 -11 -53.5t-24 -50.5l-85 -6t-83 -5v-358h-110v489h108q-2 -36 -5 -73zM62 -96q0 23 17.5 39.5t43.5 16.5q29 0 46.5 -19.5t16.5 -48.5q-1 -42 -27 -78.5t-68 -56.5l-25 31q35 31 36 64q-40 9 -40 52z" />
    <glyph glyph-name="Rcaron" unicode="&#x158;" horiz-adv-x="613" 
d="M545 493q0 -61 -31 -110t-89 -67q37 -12 56 -41.5t34 -79.5l56 -195h-113q-36 122 -53 184q-16 59 -45.5 81.5t-78.5 22.5h-93v-288h-112v686h255q105 0 159.5 -53t54.5 -140zM188 370h123q47 0 82.5 26.5t35.5 90.5q0 59 -32.5 87.5t-86.5 28.5h-122v-233zM441 904
l29 -35l-154 -139h-68l-153 141l28 32l159 -91z" />
    <glyph glyph-name="rcaron" unicode="&#x159;" horiz-adv-x="380" 
d="M168 416l6 -4q41 37 91 63.5t87 26.5q26 0 26 -29q0 -20 -11 -53.5t-24 -50.5l-85 -6t-83 -5v-358h-110v489h108q-2 -36 -5 -73zM335 725l30 -34l-154 -147h-69l-153 148l28 34l159 -97z" />
    <glyph glyph-name="Sacute" unicode="&#x15a;" horiz-adv-x="595" 
d="M303 698q122 0 202 -45l-32 -78q-80 34 -174 34q-55 0 -87.5 -27.5t-32.5 -80.5q0 -23 11 -40t35.5 -29t44.5 -18t55 -15q100 -26 138 -49q86 -51 86 -159q0 -98 -70.5 -149t-198.5 -51q-135 0 -234 54l33 81q104 -46 207 -46q74 0 110 25.5t36 85.5q0 49 -32 71t-100 40
q-42 11 -62.5 17t-54.5 18.5t-51 25t-36 32t-27 45t-8 58.5q0 92 65 146t177 54zM442 868l-159 -139l-42 39l134 165z" />
    <glyph glyph-name="sacute" unicode="&#x15b;" horiz-adv-x="466" 
d="M245 500q95 0 158 -36q-3 -7 -14 -35.5t-14 -35.5q-66 26 -129 26q-37 0 -61.5 -15t-24.5 -47q0 -17 18 -31t33.5 -19.5t44.5 -14.5l51 -15.5t44.5 -18.5t42.5 -28t24.5 -38.5t11.5 -55.5q0 -71 -55 -107t-154 -36q-112 0 -186 39l29 71q80 -33 159 -33q99 0 99 67
q0 29 -21.5 43.5t-67.5 29.5l-9 3q-91 30 -119 49q-51 34 -51 96q0 69 51.5 105.5t139.5 36.5zM372 673l-158 -139l-42 40l134 166z" />
    <glyph glyph-name="Scircumflex" unicode="&#x15c;" horiz-adv-x="595" 
d="M303 698q122 0 202 -45l-32 -78q-80 34 -174 34q-55 0 -87.5 -27.5t-32.5 -80.5q0 -23 11 -40t35.5 -29t44.5 -18t55 -15q100 -26 138 -49q86 -51 86 -159q0 -98 -70.5 -149t-198.5 -51q-135 0 -234 54l33 81q104 -46 207 -46q74 0 110 25.5t36 85.5q0 49 -32 71t-100 40
q-42 11 -62.5 17t-54.5 18.5t-51 25t-36 32t-27 45t-8 58.5q0 92 65 146t177 54zM495 766l-29 -35l-160 90l-158 -91l-28 34l152 142h70z" />
    <glyph glyph-name="scircumflex" unicode="&#x15d;" horiz-adv-x="466" 
d="M245 500q95 0 158 -36q-3 -7 -14 -35.5t-14 -35.5q-66 26 -129 26q-37 0 -61.5 -15t-24.5 -47q0 -17 18 -31t33.5 -19.5t44.5 -14.5l51 -15.5t44.5 -18.5t42.5 -28t24.5 -38.5t11.5 -55.5q0 -71 -55 -107t-154 -36q-112 0 -186 39l29 71q80 -33 159 -33q99 0 99 67
q0 29 -21.5 43.5t-67.5 29.5l-9 3q-91 30 -119 49q-51 34 -51 96q0 69 51.5 105.5t139.5 36.5zM428 566l-30 -35l-160 94l-158 -95l-28 34l152 148h70z" />
    <glyph glyph-name="Scedilla" unicode="&#x15e;" horiz-adv-x="595" 
d="M303 698q122 0 202 -45l-32 -78q-80 34 -174 34q-55 0 -87.5 -27.5t-32.5 -80.5q0 -23 11 -40t35.5 -29t44.5 -18t55 -15q100 -26 138 -49q86 -51 86 -159q0 -91 -60 -141t-170 -58q-16 -20 -41 -54q50 -2 79 -23t29 -58v-3q-2 -45 -49 -74t-137 -29v41q114 11 114 57
q0 24 -34 33q-17 5 -62 5l-14 22l62 82q-130 4 -220 54l33 81q104 -46 207 -46q74 0 110 25.5t36 85.5q0 49 -32 71t-100 40q-42 11 -62.5 17t-54.5 18.5t-51 25t-36 32t-27 45t-8 58.5q0 92 65 146t177 54z" />
    <glyph glyph-name="scedilla" unicode="&#x15f;" horiz-adv-x="466" 
d="M245 500q95 0 158 -36q-3 -7 -14 -35.5t-14 -35.5q-66 26 -129 26q-37 0 -61.5 -15t-24.5 -47q0 -17 18 -31t33.5 -19.5t44.5 -14.5l51 -15.5t44.5 -18.5t42.5 -28t24.5 -38.5t11.5 -55.5q0 -128 -172 -141l-42 -56q50 -2 79 -23t29 -58v-3q-2 -45 -49 -74t-137 -29v41
q114 11 114 57q0 24 -34 33q-17 5 -62 5l-14 22l63 83q-105 4 -170 39l29 71q80 -33 159 -33q99 0 99 67q0 29 -21.5 43.5t-67.5 29.5l-9 3q-91 30 -119 49q-51 34 -51 96q0 69 51.5 105.5t139.5 36.5z" />
    <glyph glyph-name="Scaron" unicode="&#x160;" horiz-adv-x="595" 
d="M303 698q122 0 202 -45l-32 -78q-80 34 -174 34q-55 0 -87.5 -27.5t-32.5 -80.5q0 -23 11 -40t35.5 -29t44.5 -18t55 -15q100 -26 138 -49q86 -51 86 -159q0 -98 -70.5 -149t-198.5 -51q-135 0 -234 54l33 81q104 -46 207 -46q74 0 110 25.5t36 85.5q0 49 -32 71t-100 40
q-42 11 -62.5 17t-54.5 18.5t-51 25t-36 32t-27 45t-8 58.5q0 92 65 146t177 54zM456 906l29 -35l-154 -139h-68l-153 141l28 32l159 -91z" />
    <glyph glyph-name="scaron" unicode="&#x161;" horiz-adv-x="466" 
d="M245 500q95 0 158 -36q-3 -7 -14 -35.5t-14 -35.5q-66 26 -129 26q-37 0 -61.5 -15t-24.5 -47q0 -17 18 -31t33.5 -19.5t44.5 -14.5l51 -15.5t44.5 -18.5t42.5 -28t24.5 -38.5t11.5 -55.5q0 -71 -55 -107t-154 -36q-112 0 -186 39l29 71q80 -33 159 -33q99 0 99 67
q0 29 -21.5 43.5t-67.5 29.5l-9 3q-91 30 -119 49q-51 34 -51 96q0 69 51.5 105.5t139.5 36.5zM390 726l30 -34l-154 -147h-69l-153 148l28 34l159 -97z" />
    <glyph glyph-name="Tcommaaccent" unicode="&#x162;" horiz-adv-x="584" 
d="M348 0h-29l-46 -61q50 -2 79 -23t29 -58v-3q-2 -45 -49 -74t-137 -29v41q114 11 114 57q0 24 -34 33q-17 5 -62 5l-14 22l68 90h-31v601h-219v85h550v-85h-218z" />
    <glyph glyph-name="tcommaaccent" unicode="&#x163;" horiz-adv-x="378" 
d="M124 609l72 10v-129h145v-75h-146v-259q0 -39 14.5 -58.5t52.5 -19.5q27 0 89 15l15 -72q-57 -27 -130 -27q-18 0 -44 4l-39 -52q50 -2 79 -23t29 -58v-3q-2 -45 -49 -74t-137 -29v41q114 11 114 57q0 24 -34 33q-17 5 -62 5l-14 22q30 42 71 93q-62 29 -62 115v290h-70
v59l76 23l14.5 56.5t15.5 55.5z" />
    <glyph glyph-name="Tcaron" unicode="&#x164;" horiz-adv-x="584" 
d="M348 0h-112v601h-219v85h550v-85h-218zM450 904l29 -35l-154 -139h-68l-153 141l28 32l159 -91z" />
    <glyph glyph-name="tcaron" unicode="&#x165;" horiz-adv-x="452" 
d="M337 658q0 23 17.5 39.5t43.5 16.5q29 0 46.5 -19.5t16.5 -48.5q-1 -42 -27 -78.5t-68 -56.5l-25 31q35 31 36 64q-40 9 -40 52zM124 609l72 10v-129h145v-75h-146v-259q0 -39 14.5 -58.5t52.5 -19.5q27 0 89 15l15 -72q-57 -27 -130 -27q-148 0 -148 131v290h-70v59
l76 23l14.5 56.5t15.5 55.5z" />
    <glyph glyph-name="Tbar" unicode="&#x166;" horiz-adv-x="584" 
d="M348 0h-112v329h-153v59h153v213h-219v85h550v-85h-218v-213h143v-59h-144v-329z" />
    <glyph glyph-name="tbar" unicode="&#x167;" horiz-adv-x="393" 
d="M194 416v-76h140v-58h-139l-1 -134q0 -72 67 -72q22 0 87 14q9 -34 16 -70q-58 -26 -129 -26q-146 0 -147 121l-1 167h-67v58h67v76h-71v57l77 22l15 56.5t14 57.5l72 8v-128h145v-73h-145z" />
    <glyph glyph-name="Utilde" unicode="&#x168;" horiz-adv-x="685" 
d="M616 686l-1 -437q0 -121 -68.5 -189.5t-204.5 -68.5q-272 0 -272 258v437h112v-440q0 -171 162 -171q77 0 119 42.5t42 128.5l-1 440h112zM421 758q-35 0 -88 19.5t-70 19.5l-56 -39l-34 26q29 83 94 83q27 0 82 -19t75 -19l56 40l34 -27q-13 -39 -37.5 -61.5
t-55.5 -22.5z" />
    <glyph glyph-name="utilde" unicode="&#x169;" horiz-adv-x="528" 
d="M199 -11q-47 0 -78 13t-44.5 38t-18 49.5t-4.5 60.5v339h109v-314q0 -24 2 -39t9 -30.5t23 -23t42 -7.5q63 0 125 55v359q19 0 55 0.5t54 0.5v-490h-104l-2 54l-3 2q-76 -67 -165 -67zM342 569q-34 0 -88 19.5t-70 19.5l-56 -39l-34 26q29 83 94 83q27 0 82 -19t75 -19
l56 40l34 -27q-13 -39 -37.5 -61.5t-55.5 -22.5z" />
    <glyph glyph-name="Umacron" unicode="&#x16a;" horiz-adv-x="685" 
d="M616 686l-1 -437q0 -121 -68.5 -189.5t-204.5 -68.5q-272 0 -272 258v437h112v-440q0 -171 162 -171q77 0 119 42.5t42 128.5l-1 440h112zM172 747v77h339v-77h-339z" />
    <glyph glyph-name="umacron" unicode="&#x16b;" horiz-adv-x="528" 
d="M199 -11q-47 0 -78 13t-44.5 38t-18 49.5t-4.5 60.5v339h109v-314q0 -24 2 -39t9 -30.5t23 -23t42 -7.5q63 0 125 55v359q19 0 55 0.5t54 0.5v-490h-104l-2 54l-3 2q-76 -67 -165 -67zM88 588v76h345v-76h-345z" />
    <glyph glyph-name="Ubreve" unicode="&#x16c;" horiz-adv-x="685" 
d="M616 686l-1 -437q0 -121 -68.5 -189.5t-204.5 -68.5q-272 0 -272 258v437h112v-440q0 -171 162 -171q77 0 119 42.5t42 128.5l-1 440h112zM353 726q-88 0 -173 121l53 39q62 -84 123 -84q67 0 147 77l34 -31q-81 -122 -184 -122z" />
    <glyph glyph-name="ubreve" unicode="&#x16d;" horiz-adv-x="528" 
d="M199 -11q-47 0 -78 13t-44.5 38t-18 49.5t-4.5 60.5v339h109v-314q0 -24 2 -39t9 -30.5t23 -23t42 -7.5q63 0 125 55v359q19 0 55 0.5t54 0.5v-490h-104l-2 54l-3 2q-76 -67 -165 -67zM255 549q-88 0 -173 121l53 39q62 -84 123 -84q67 0 147 77l34 -31
q-81 -122 -184 -122z" />
    <glyph glyph-name="Uring" unicode="&#x16e;" horiz-adv-x="685" 
d="M616 686l-1 -437q0 -121 -68.5 -189.5t-204.5 -68.5q-272 0 -272 258v437h112v-440q0 -171 162 -171q77 0 119 42.5t42 128.5l-1 440h112zM346 713q-49 0 -82.5 32.5t-33.5 78.5q0 45 34 78.5t82 33.5q47 0 79.5 -33t32.5 -79t-32.5 -78.5t-79.5 -32.5zM346 884
q-27 0 -44.5 -18t-17.5 -45q0 -25 17 -42t45 -17q25 0 41.5 17.5t16.5 41.5q0 27 -16 45t-42 18z" />
    <glyph glyph-name="uring" unicode="&#x16f;" horiz-adv-x="528" 
d="M199 -11q-47 0 -78 13t-44.5 38t-18 49.5t-4.5 60.5v339h109v-314q0 -24 2 -39t9 -30.5t23 -23t42 -7.5q63 0 125 55v359q19 0 55 0.5t54 0.5v-490h-104l-2 54l-3 2q-76 -67 -165 -67zM267 550q-49 0 -82.5 32.5t-33.5 78.5q0 45 34 78.5t82 33.5q47 0 79.5 -33t32.5 -79
t-32.5 -78.5t-79.5 -32.5zM267 721q-27 0 -44.5 -18t-17.5 -45q0 -25 17 -42t45 -17q25 0 41.5 17.5t16.5 41.5q0 27 -16 45t-42 18z" />
    <glyph glyph-name="Uhungarumlaut" unicode="&#x170;" horiz-adv-x="685" 
d="M616 686l-1 -437q0 -121 -68.5 -189.5t-204.5 -68.5q-272 0 -272 258v437h112v-440q0 -171 162 -171q77 0 119 42.5t42 128.5l-1 440h112zM421 886l-150 -152l-47 35l123 175zM559 886l-150 -152l-46 35l122 175z" />
    <glyph glyph-name="uhungarumlaut" unicode="&#x171;" horiz-adv-x="528" 
d="M199 -11q-47 0 -78 13t-44.5 38t-18 49.5t-4.5 60.5v339h109v-314q0 -24 2 -39t9 -30.5t23 -23t42 -7.5q63 0 125 55v359q19 0 55 0.5t54 0.5v-490h-104l-2 54l-3 2q-76 -67 -165 -67zM470 685l-151 -153l-43 35l123 175zM328 685l-150 -153l-43 35l123 175z" />
    <glyph glyph-name="Uogonek" unicode="&#x172;" horiz-adv-x="685" 
d="M616 686l-1 -437q0 -117 -63 -184.5t-189 -72.5q-37 -56 -37 -103q0 -49 56 -49q17 0 72 11l9 -38q-54 -28 -114 -28q-49 0 -75 20t-26 56q0 71 60 131q-238 16 -238 257v437h112v-440q0 -171 162 -171q77 0 119 42.5t42 128.5l-1 440h112z" />
    <glyph glyph-name="uogonek" unicode="&#x173;" horiz-adv-x="528" 
d="M199 -11q-47 0 -78 13t-44.5 38t-18 49.5t-4.5 60.5v339h109v-314q0 -24 2 -39t9 -30.5t23 -23t42 -7.5q63 0 125 55v359q19 0 55 0.5t54 0.5v-490h-57q-35 -54 -35 -100q0 -49 56 -49q17 0 72 11l9 -38q-54 -28 -114 -28q-49 0 -75 20t-26 56q0 73 65 136l-1 46l-3 2
q-76 -67 -165 -67z" />
    <glyph glyph-name="Wcircumflex" unicode="&#x174;" horiz-adv-x="885" 
d="M438 532l-7 1q-6 -28 -32 -161q-8 -31 -83 -372h-140l-167 686h119l42 -189l43 -193q2 -8 15 -74l20 -99h6l33 163l43.5 195t43.5 197h121l28 -108l46 -178l26 -100q2 -6 10.5 -41l18.5 -76t12 -51h7l20.5 103.5t14.5 75.5q76 349 82 375h116l-166 -686h-137l-97 372
l-17.5 77t-20.5 83zM622 768l-29 -35l-160 90l-158 -91l-28 34l152 142h70z" />
    <glyph glyph-name="wcircumflex" unicode="&#x175;" horiz-adv-x="765" 
d="M542 96h6l33 148l63 246h108l-140 -490h-124l-65 219l-43 167h-6l-40 -167l-59 -219h-124l-139 490h109l62 -241l35 -153h5l37 158l65 236h105l73 -245zM564 566l-30 -35l-160 94l-158 -95l-28 34l152 148h70z" />
    <glyph glyph-name="Ycircumflex" unicode="&#x176;" horiz-adv-x="576" 
d="M225 0v283l-216 403h118l40.5 -79.5l49.5 -99.5l66 -138h5q12 23 35.5 72t35.5 72l91 173h116l-221 -399v-287h-120zM475 766l-29 -35l-160 90l-158 -91l-28 34l152 142h70z" />
    <glyph glyph-name="ycircumflex" unicode="&#x177;" horiz-adv-x="494" 
d="M248 68l27 94l52 172.5l47 154.5h109l-195 -579q-39 -125 -159 -125q-46 0 -107 17l16 74q50 -10 76 -10q32 0 50 14t30 51l8 24.5l9 27.5t8 23h-51l-48 153.5l-56 178l-48 151.5h109l94 -329q7 -25 23 -92h6zM440 566l-30 -35l-160 94l-158 -95l-28 34l152 148h70z" />
    <glyph glyph-name="Ydieresis" unicode="&#x178;" horiz-adv-x="576" 
d="M225 0v283l-216 403h118l40.5 -79.5l49.5 -99.5l66 -138h5q12 23 35.5 72t35.5 72l91 173h116l-221 -399v-287h-120zM243 777q0 -23 -15.5 -37.5t-40.5 -14.5q-26 0 -41 14t-15 38q0 22 15 37t39 15q27 0 42.5 -14.5t15.5 -37.5zM438 777q0 -23 -16 -37.5t-43 -14.5
q-24 0 -38 14.5t-14 37.5q0 22 14.5 37t37.5 15q27 0 43 -14.5t16 -37.5z" />
    <glyph glyph-name="Zacute" unicode="&#x179;" horiz-adv-x="560" 
d="M169 92l3 -6l368 -1v-85h-520v79l351 516l-3 6h-323v85h477v-78zM435 868l-159 -139l-42 39l134 165z" />
    <glyph glyph-name="zacute" unicode="&#x17a;" horiz-adv-x="436" 
d="M149 82l2 -6h275v-76h-415v63l266 345l-2 5h-236v77h375v-64zM362 673l-158 -139l-42 40l134 166z" />
    <glyph glyph-name="Zdotaccent" unicode="&#x17b;" horiz-adv-x="560" 
d="M169 92l3 -6l368 -1v-85h-520v79l351 516l-3 6h-323v85h477v-78zM362 820q0 -28 -19.5 -46.5t-49.5 -18.5t-48 18.5t-18 46.5t18 47t48 19t49.5 -19t19.5 -47z" />
    <glyph glyph-name="zdotaccent" unicode="&#x17c;" horiz-adv-x="436" 
d="M149 82l2 -6h275v-76h-415v63l266 345l-2 5h-236v77h375v-64zM301 629q0 -28 -19.5 -46.5t-49.5 -18.5t-48 18.5t-18 46.5t18 47t48 19t49.5 -19t19.5 -47z" />
    <glyph glyph-name="Zcaron" unicode="&#x17d;" horiz-adv-x="560" 
d="M169 92l3 -6l368 -1v-85h-520v79l351 516l-3 6h-323v85h477v-78zM462 906l29 -35l-154 -139h-68l-153 141l28 32l159 -91z" />
    <glyph glyph-name="zcaron" unicode="&#x17e;" horiz-adv-x="436" 
d="M149 82l2 -6h275v-76h-415v63l266 345l-2 5h-236v77h375v-64zM393 725l30 -34l-154 -147h-69l-153 148l28 34l159 -97z" />
    <glyph glyph-name="florin" unicode="&#x192;" horiz-adv-x="572" 
d="M156 336v71h96l8 66q6 48 15.5 82t28.5 69.5t54 54t84 18.5q58 0 105 -16l-19 -72q-40 8 -67 8q-45 0 -66 -29.5t-30 -92.5l-11 -88h101v-71h-108l-23 -181l-5.5 -42t-6.5 -41t-9.5 -43l-12.5 -38t-17 -37t-23 -28.5t-30 -24.5t-38 -14t-47 -6q-57 0 -105 19l22 72
q33 -9 60 -9q55 0 76.5 46t37.5 175q0 2 2 18.5l4.5 37.5l5 42.5t4 37t1.5 16.5h-87z" />
    <glyph glyph-name="Ohorn" unicode="&#x1a0;" horiz-adv-x="733" 
d="M655 342q0 -156 -77.5 -253.5t-221.5 -97.5q-158 0 -233 91.5t-75 256.5q0 75 17 138t52.5 113t96.5 78.5t142 28.5q149 0 224 -98h12q67 0 67 82v73h72v-82q0 -128 -110 -135q34 -82 34 -195zM535 339q0 276 -179 276q-189 0 -189 -277q0 -131 45 -197t144 -66
q89 0 134 73t45 191z" />
    <glyph glyph-name="ohorn" unicode="&#x1a1;" horiz-adv-x="583" 
d="M388 243q0 177 -116 177q-34 0 -59 -15t-37.5 -42t-18 -56t-5.5 -64q0 -38 5 -66.5t17 -54t37 -38.5t61 -13q116 0 116 172zM500 244q0 -109 -56.5 -181t-178.5 -72q-118 0 -172 69.5t-54 181.5q0 71 22.5 127t76.5 93.5t135 37.5q118 0 178 -81q58 4 58 82v73h72v-82
q0 -116 -98 -134q17 -53 17 -114z" />
    <glyph glyph-name="Uhorn" unicode="&#x1af;" horiz-adv-x="761" 
d="M616 686v-96h22q38 0 54.5 15t16.5 53v95h76v-100q0 -131 -130 -131h-40v-273q0 -121 -68.5 -189.5t-204.5 -68.5q-272 0 -272 258v437h112v-440q0 -171 162 -171q77 0 119 42.5t42 128.5v440h111z" />
    <glyph glyph-name="uhorn" unicode="&#x1b0;" horiz-adv-x="616" 
d="M368 54l-3 2q-77 -67 -166 -67q-47 0 -77.5 13t-44.5 38t-18.5 49.5t-4.5 60.5v340h109v-315q0 -53 14.5 -76t61.5 -23q65 0 126 54v360h108v-66h7q36 0 50 16.5t14 56.5v79h75v-83q0 -135 -131 -135h-15v-358h-104z" />
    <glyph glyph-name="AEacute" unicode="&#x1fc;" horiz-adv-x="988" 
d="M501 0v194h-252l-120 -194h-120l427 685h486v-80h-308v-207h257v-78h-257v-239h322v-81h-435zM496 601l-201 -327h206v327h-5zM750 871l-159 -139l-42 39l134 165z" />
    <glyph glyph-name="aeacute" unicode="&#x1fd;" horiz-adv-x="810" 
d="M574 501q54 0 93.5 -18.5t59.5 -43.5t32 -61t14.5 -61t2.5 -53v-40h-317q0 -150 130 -150q71 0 152 32q3 -11 11 -33.5l12 -33.5q-84 -46 -189 -46q-126 0 -179 73q-98 -75 -213 -75q-43 0 -74.5 14t-47.5 36.5t-23 45t-7 45.5q0 62 45.5 105.5t132.5 43.5h143v34
q0 55 -25 77.5t-83 22.5q-79 0 -154 -26l-21 70q89 40 202 40q46 0 86.5 -19t58.5 -55q57 76 158 76zM227 65q28 0 70 15t70 40q-14 41 -16 104h-92q-34 0 -56.5 -4.5t-40 -23t-17.5 -51.5q0 -80 82 -80zM575 421q-103 0 -114 -140h216q0 68 -23.5 104t-78.5 36zM578 673
l-158 -139l-42 40l134 166z" />
    <glyph glyph-name="Oslashacute" unicode="&#x1fe;" horiz-adv-x="703" 
d="M655 342q0 -156 -77.5 -253.5t-221.5 -97.5q-130 0 -206 65l-49 -63h-54l73 93q-72 88 -72 253q0 75 17 138t52.5 113t96.5 78.5t142 28.5q121 0 194 -64l51 66h58l-78 -97q74 -92 74 -260zM167 338q0 -105 28 -161l289 377q-45 61 -128 61q-189 0 -189 -277zM535 339
q0 107 -31 172l-289 -377q46 -59 141 -59q89 0 134 73t45 191zM520 868l-159 -139l-42 39l134 165z" />
    <glyph glyph-name="oslashacute" unicode="&#x1ff;" horiz-adv-x="536" 
d="M498 244q0 -52 -12 -95t-38.5 -79.5t-73.5 -57t-112 -20.5q-93 0 -145 43l-33 -41q-7 0 -25 -0.5t-23 -0.5l55 66q-53 63 -53 184q0 70 22 126t76 93.5t135 37.5q89 0 146 -47l17.5 21.5t19.5 24.5h45l-56 -69q55 -67 55 -186zM271 71q114 0 114 172q0 64 -18 103
l-86.5 -113l-97.5 -127q30 -35 88 -35zM271 419q-119 0 -121 -174q0 -66 16 -102l85.5 109l99.5 129q-28 38 -80 38zM428 673l-158 -139l-42 40l134 166z" />
    <glyph glyph-name="Scommaaccent" unicode="&#x218;" horiz-adv-x="595" 
d="M303 698q122 0 202 -45l-32 -78q-80 34 -174 34q-55 0 -87.5 -27.5t-32.5 -80.5q0 -23 11 -40t35.5 -29t44.5 -18t55 -15q100 -26 138 -49q86 -51 86 -159q0 -98 -70.5 -149t-198.5 -51q-135 0 -234 54l33 81q104 -46 207 -46q74 0 110 25.5t36 85.5q0 49 -32 71t-100 40
q-42 11 -62.5 17t-54.5 18.5t-51 25t-36 32t-27 45t-8 58.5q0 92 65 146t177 54zM219 -96q0 23 17.5 39.5t43.5 16.5q29 0 46.5 -19.5t16.5 -48.5q-1 -42 -27 -78.5t-68 -56.5l-25 31q35 31 36 64q-40 9 -40 52z" />
    <glyph glyph-name="scommaaccent" unicode="&#x219;" horiz-adv-x="466" 
d="M245 500q95 0 158 -36q-3 -7 -14 -35.5t-14 -35.5q-66 26 -129 26q-37 0 -61.5 -15t-24.5 -47q0 -17 18 -31t33.5 -19.5t44.5 -14.5l51 -15.5t44.5 -18.5t42.5 -28t24.5 -38.5t11.5 -55.5q0 -71 -55 -107t-154 -36q-112 0 -186 39l29 71q80 -33 159 -33q99 0 99 67
q0 29 -21.5 43.5t-67.5 29.5l-9 3q-91 30 -119 49q-51 34 -51 96q0 69 51.5 105.5t139.5 36.5zM164 -96q0 23 17.5 39.5t43.5 16.5q29 0 46.5 -19.5t16.5 -48.5q-1 -42 -27 -78.5t-68 -56.5l-25 31q35 31 36 64q-40 9 -40 52z" />
    <glyph glyph-name="uni021A" unicode="&#x21a;" horiz-adv-x="584" 
d="M348 0h-112v601h-219v85h550v-85h-218zM227 -96q0 23 17.5 39.5t43.5 16.5q29 0 46.5 -19.5t16.5 -48.5q-1 -42 -27 -78.5t-68 -56.5l-25 31q35 31 36 64q-40 9 -40 52z" />
    <glyph glyph-name="uni021B" unicode="&#x21b;" horiz-adv-x="378" 
d="M124 609l72 10v-129h145v-75h-146v-259q0 -39 14.5 -58.5t52.5 -19.5q27 0 89 15l15 -72q-57 -27 -130 -27q-148 0 -148 131v290h-70v59l76 23l14.5 56.5t15.5 55.5zM93 -96q0 23 17.5 39.5t43.5 16.5q29 0 46.5 -19.5t16.5 -48.5q-1 -42 -27 -78.5t-68 -56.5l-25 31
q35 31 36 64q-40 9 -40 52z" />
    <glyph glyph-name="schwa" unicode="&#x259;" horiz-adv-x="507" 
d="M248 71q106 0 115 142h-218q0 -69 23 -105.5t80 -36.5zM248 -7q-45 0 -80.5 12t-57 33.5t-35.5 44.5t-20.5 52.5t-8.5 50t-2 43.5v36h320q2 156 -129 156q-72 0 -153 -33l-23 66q88 47 190 47q66 0 111.5 -19.5t69.5 -56t33.5 -78.5t9.5 -97q0 -33 -5 -64.5t-20 -67.5
t-39 -63t-65.5 -44.5t-95.5 -17.5z" />
    <glyph glyph-name="primemod" unicode="&#x2b9;" horiz-adv-x="234" 
d="M261 653l-176 -269l-45 26l147 285z" />
    <glyph glyph-name="circumflex" unicode="&#x2c6;" horiz-adv-x="527" 
d="M452 566l-30 -35l-160 94l-158 -95l-28 34l152 148h70z" />
    <glyph glyph-name="caron" unicode="&#x2c7;" horiz-adv-x="527" 
d="M422 725l30 -34l-154 -147h-69l-153 148l28 34l159 -97z" />
    <glyph glyph-name="breve" unicode="&#x2d8;" horiz-adv-x="545" 
d="M267 549q-88 0 -173 121l53 39q62 -84 123 -84q67 0 147 77l34 -31q-81 -122 -184 -122z" />
    <glyph glyph-name="dotaccent" unicode="&#x2d9;" horiz-adv-x="529" 
d="M337 629q0 -28 -19.5 -46.5t-49.5 -18.5t-48 18.5t-18 46.5t18 47t48 19t49.5 -19t19.5 -47z" />
    <glyph glyph-name="ring" unicode="&#x2da;" horiz-adv-x="529" 
d="M268 550q-49 0 -82.5 32.5t-33.5 78.5q0 45 34 78.5t82 33.5q47 0 79.5 -33t32.5 -79t-32.5 -78.5t-79.5 -32.5zM268 721q-27 0 -44.5 -18t-17.5 -45q0 -25 17 -42t45 -17q25 0 41.5 17.5t16.5 41.5q0 27 -16 45t-42 18z" />
    <glyph glyph-name="ogonek" unicode="&#x2db;" horiz-adv-x="547" 
d="M411 33l20 -18q-25 -29 -41 -66t-16 -63q0 -49 56 -49q17 0 72 11l9 -38q-54 -28 -114 -28q-49 0 -75 20t-26 56q0 99 115 175z" />
    <glyph glyph-name="tilde" unicode="&#x2dc;" horiz-adv-x="527" 
d="M344 568q-34 0 -88 19.5t-70 19.5l-56 -39l-34 26q29 83 94 83q27 0 82 -19t75 -19l56 40l34 -27q-13 -39 -37.5 -61.5t-55.5 -22.5z" />
    <glyph glyph-name="hungarumlaut" unicode="&#x2dd;" horiz-adv-x="529" 
d="M321 685l-150 -153l-43 35l123 175zM463 685l-151 -153l-43 35l123 175z" />
    <glyph glyph-name="tonos" unicode="&#x384;" horiz-adv-x="505" 
d="M385 691l-139 -162l-52 36l112 182z" />
    <glyph glyph-name="dieresistonos" unicode="&#x385;" horiz-adv-x="500" 
d="M342 715l-106 -183l-52 20l74 200zM175 610q0 -22 -15.5 -36.5t-40.5 -14.5q-24 0 -39 14.5t-15 36.5t14.5 37t38.5 15q26 0 41.5 -14.5t15.5 -37.5zM428 610q0 -22 -16 -36.5t-41 -14.5q-24 0 -38 14.5t-14 36.5t15 37t39 15q25 0 40 -14.5t15 -37.5z" />
    <glyph glyph-name="Alphatonos" unicode="&#x386;" horiz-adv-x="617" 
d="M607 0h-117l-29 92.5l-24 76.5h-261l-53 -169h-114l116.5 346.5l113.5 339.5h143zM413 250l-48 162l-55 187h-4l-53 -183q-1 -4 -24.5 -81t-26.5 -85h211zM152 678l-139 -162l-52 36l112 182z" />
    <glyph glyph-name="anoteleia" unicode="&#x387;" horiz-adv-x="229" 
d="M181 363q0 -26 -18.5 -44t-46.5 -18t-46 18t-18 44q0 27 17.5 44t46.5 17t47 -17t18 -44z" />
    <glyph glyph-name="Epsilontonos" unicode="&#x388;" horiz-adv-x="583" 
d="M534 0h-458v686h443v-82h-329v-204h277v-78h-277v-239h344v-83zM26 679l-139 -162l-52 36l112 182z" />
    <glyph glyph-name="Etatonos" unicode="&#x389;" horiz-adv-x="679" 
d="M601 0h-115v317h-296q0 -53 0.5 -159t0.5 -158h-115v685h115q0 -47 -0.5 -141t-0.5 -141h296v282h115v-685zM36 677l-139 -162l-52 36l112 182z" />
    <glyph glyph-name="Iotatonos" unicode="&#x38a;" horiz-adv-x="284" 
d="M198 0h-112v686h112v-686zM36 677l-139 -162l-52 36l112 182z" />
    <glyph glyph-name="Omicrontonos" unicode="&#x38c;" horiz-adv-x="720" 
d="M663 342q0 -156 -77.5 -253.5t-221.5 -97.5q-158 0 -232.5 91.5t-74.5 256.5q0 75 17 138t52.5 113t96 78.5t141.5 28.5t140.5 -28.5t93.5 -79t49.5 -112t15.5 -135.5zM544 339q0 276 -180 276q-189 0 -189 -277q0 -131 45 -197t144 -66q90 0 135 73t45 191zM73 680
l-139 -162l-52 36l112 182z" />
    <glyph glyph-name="Upsilontonos" unicode="&#x38e;" horiz-adv-x="576" 
d="M225 0v283l-216 403h118l40.5 -79.5l49.5 -99.5l66 -138h5q12 23 35.5 72t35.5 72l91 173h116l-221 -399v-287h-120zM-9 679l-139 -162l-52 36l112 182z" />
    <glyph glyph-name="Omegatonos" unicode="&#x38f;" horiz-adv-x="719" 
d="M570 81l1 -1l2 -2h110v-78h-267v81q71 19 100 88t29 183q0 261 -182 261q-98 0 -143 -70t-45 -190q0 -118 27.5 -186.5t95.5 -84.5v-82h-264v78h105l2 4q-49 36 -66.5 105t-17.5 168q0 72 18 132.5t53.5 108.5t95.5 75t138 27q80 0 139.5 -27t94.5 -75t51.5 -108
t16.5 -131q0 -198 -94 -276zM89 680l-139 -162l-52 36l112 182z" />
    <glyph glyph-name="iotadieresistonos" unicode="&#x390;" horiz-adv-x="267" 
d="M67 77v412h109v-411h60l3 -66q-41 -18 -84 -18q-45 0 -66.5 20t-21.5 63zM226 715l-106 -183l-52 20l74 200zM59 610q0 -22 -15.5 -36.5t-40.5 -14.5q-24 0 -39 14.5t-15 36.5t14.5 37t38.5 15q26 0 41.5 -14.5t15.5 -37.5zM312 610q0 -22 -16 -36.5t-41 -14.5
q-24 0 -38 14.5t-14 36.5t15 37t39 15q25 0 40 -14.5t15 -37.5z" />
    <glyph glyph-name="Alpha" unicode="&#x391;" horiz-adv-x="617" 
d="M607 0h-117l-29 92.5l-24 76.5h-261l-53 -169h-114l116.5 346.5l113.5 339.5h143zM413 250l-48 162l-55 187h-4l-53 -183q-1 -4 -24.5 -81t-26.5 -85h211z" />
    <glyph glyph-name="Beta" unicode="&#x392;" horiz-adv-x="631" 
d="M464 361v-4q105 -38 105 -160q0 -89 -56.5 -143t-145.5 -54h-291v685h270q100 0 153 -48.5t53 -130.5q0 -100 -88 -145zM457 199q0 50 -32 83t-92 33h-145v-233h145q65 0 94.5 32t29.5 85zM438 497q0 49 -30 77.5t-91 28.5h-129v-210h129q58 0 89.5 27.5t31.5 76.5z" />
    <glyph glyph-name="Gamma" unicode="&#x393;" horiz-adv-x="543" 
d="M191 0h-113v686h441v-85h-328v-601z" />
    <glyph glyph-name="Delta" unicode="&#x394;" horiz-adv-x="689" 
d="M645 57v-57h-604v51q42 123 127 347l108 288h137zM346 595h-7q-24 -65 -45 -132l-139 -385h369l-135 386z" />
    <glyph glyph-name="Delta" unicode="&#x2206;" horiz-adv-x="689" 
d="M645 57v-57h-604v51q42 123 127 347l108 288h137zM346 595h-7q-24 -65 -45 -132l-139 -385h369l-135 386z" />
    <glyph glyph-name="Epsilon" unicode="&#x395;" horiz-adv-x="583" 
d="M534 0h-458v686h443v-82h-329v-204h277v-78h-277v-239h344v-83z" />
    <glyph glyph-name="Zeta" unicode="&#x396;" horiz-adv-x="560" 
d="M169 92l3 -6l368 -1v-85h-520v79l351 516l-3 6h-323v85h477v-78z" />
    <glyph glyph-name="Eta" unicode="&#x397;" horiz-adv-x="679" 
d="M601 0h-115v317h-296q0 -53 0.5 -159t0.5 -158h-115v685h115q0 -47 -0.5 -141t-0.5 -141h296v282h115v-685z" />
    <glyph glyph-name="Theta" unicode="&#x398;" horiz-adv-x="706" 
d="M222 316v80h260v-80h-260zM658 342q0 -156 -78.5 -253.5t-222.5 -97.5q-158 0 -233.5 92t-75.5 256q0 75 17.5 138t53.5 113t96.5 78.5t141.5 28.5t141 -28.5t94 -79t50 -112t16 -135.5zM539 339q0 276 -182 276q-190 0 -190 -277q0 -131 45 -197t145 -66q90 0 136 73
t46 191z" />
    <glyph glyph-name="Iota" unicode="&#x399;" horiz-adv-x="284" 
d="M198 0h-112v686h112v-686z" />
    <glyph glyph-name="Kappa" unicode="&#x39a;" horiz-adv-x="618" 
d="M188 396h7l44 49l227 241h130l-264 -271l276 -415h-131l-220 339l-69 -70v-269h-112v686h112v-290z" />
    <glyph glyph-name="Lambda" unicode="&#x39b;" horiz-adv-x="620" 
d="M312 598h-3q-6 -25 -26 -89l-158 -509h-114l116.5 346.5l113.5 339.5h143l225 -686h-118l-154 510z" />
    <glyph glyph-name="Mu" unicode="&#x39c;" horiz-adv-x="852" 
d="M422 186h7l116 270l50 114.5l50 114.5h130v-685h-110v507h-3l-53 -125l-137 -313h-98l-140 324q-8 20 -24 57l-23 54h-2q0 -84 -0.5 -252.5t-0.5 -251.5h-108v685h135l96 -228z" />
    <glyph glyph-name="Nu" unicode="&#x39d;" horiz-adv-x="709" 
d="M517 173h6v512h109v-685h-112l-133 209l-117 184l-81 131h-1q-2 -1 -3 -1v-523h-109v685h114l233 -363z" />
    <glyph glyph-name="Xi" unicode="&#x39e;" horiz-adv-x="569" 
d="M25 94h518v-94h-518v94zM528 591h-489v95h489v-95zM475 313h-377v89h377v-89z" />
    <glyph glyph-name="Omicron" unicode="&#x39f;" horiz-adv-x="720" 
d="M663 342q0 -156 -77.5 -253.5t-221.5 -97.5q-158 0 -232.5 91.5t-74.5 256.5q0 75 17 138t52.5 113t96 78.5t141.5 28.5t140.5 -28.5t93.5 -79t49.5 -112t15.5 -135.5zM544 339q0 276 -180 276q-189 0 -189 -277q0 -131 45 -197t144 -66q90 0 135 73t45 191z" />
    <glyph glyph-name="Pi" unicode="&#x3a0;" horiz-adv-x="685" 
d="M605 0h-115v599h-296l1 -599h-115v686h525v-686z" />
    <glyph glyph-name="Rho" unicode="&#x3a1;" horiz-adv-x="574" 
d="M540 482q0 -36 -11.5 -71t-34.5 -67t-66.5 -51.5t-100.5 -19.5h-137l1 -273h-115v686h241q105 0 164 -53.5t59 -150.5zM304 604h-114v-250h118q50 0 83.5 29.5t33.5 95.5q0 62 -33.5 93.5t-87.5 31.5z" />
    <glyph glyph-name="Sigma" unicode="&#x3a3;" horiz-adv-x="568" 
d="M175 92l6 -6h359v-86h-509v74l186 285l-183 256v71h495v-84h-344l-5 -7l160 -223v-24z" />
    <glyph glyph-name="Tau" unicode="&#x3a4;" horiz-adv-x="584" 
d="M348 0h-112v601h-219v85h550v-85h-218z" />
    <glyph glyph-name="Upsilon" unicode="&#x3a5;" horiz-adv-x="576" 
d="M225 0v283l-216 403h118l40.5 -79.5l49.5 -99.5l66 -138h5q12 23 35.5 72t35.5 72l91 173h116l-221 -399v-287h-120z" />
    <glyph glyph-name="Phi" unicode="&#x3a6;" horiz-adv-x="830" 
d="M790 351q0 -118 -83.5 -193.5t-233.5 -84.5v-73h-110v73q-163 8 -244 79.5t-81 195.5q0 112 84.5 191t240.5 87v59h110v-59q160 -6 238.5 -83.5t78.5 -191.5zM149 346q0 -179 214 -193v391q-111 -7 -162.5 -61t-51.5 -137zM678 348q0 80 -47 135t-157 61v-391
q97 7 150.5 60t53.5 135z" />
    <glyph glyph-name="Chi" unicode="&#x3a7;" horiz-adv-x="597" 
d="M230 356l-207 329h128l151 -259l153 259h127l-215 -332l221 -353h-126l-88 147.5l-79 131.5l-162 -279h-126z" />
    <glyph glyph-name="Psi" unicode="&#x3a8;" horiz-adv-x="809" 
d="M460 686v-422q170 11 170 172v250h110v-253q0 -112 -72.5 -178.5t-207.5 -70.5v-184h-110v183q-281 15 -281 260v243h111v-254q0 -76 45 -119.5t125 -48.5v422h110z" />
    <glyph glyph-name="Omega" unicode="&#x3a9;" horiz-adv-x="719" 
d="M570 81l1 -1l2 -2h110v-78h-267v81q71 19 100 88t29 183q0 261 -182 261q-98 0 -143 -70t-45 -190q0 -118 27.5 -186.5t95.5 -84.5v-82h-264v78h105l2 4q-49 36 -66.5 105t-17.5 168q0 72 18 132.5t53.5 108.5t95.5 75t138 27q80 0 139.5 -27t94.5 -75t51.5 -108
t16.5 -131q0 -198 -94 -276z" />
    <glyph glyph-name="Iotadieresis" unicode="&#x3aa;" horiz-adv-x="284" 
d="M198 0h-112v686h112v-686zM102 778q0 -23 -15.5 -37.5t-40.5 -14.5q-26 0 -41 14t-15 38q0 22 15 37t39 15q27 0 42.5 -14.5t15.5 -37.5zM297 778q0 -23 -16 -37.5t-43 -14.5q-24 0 -38 14.5t-14 37.5q0 22 14.5 37t37.5 15q27 0 43 -14.5t16 -37.5z" />
    <glyph glyph-name="Upsilondieresis" unicode="&#x3ab;" horiz-adv-x="576" 
d="M225 0v283l-216 403h118l40.5 -79.5l49.5 -99.5l66 -138h5q12 23 35.5 72t35.5 72l91 173h116l-221 -399v-287h-120zM243 778q0 -23 -15.5 -37.5t-40.5 -14.5q-26 0 -41 14t-15 38q0 22 15 37t39 15q27 0 42.5 -14.5t15.5 -37.5zM438 778q0 -23 -16 -37.5t-43 -14.5
q-24 0 -38 14.5t-14 37.5q0 22 14.5 37t37.5 15q27 0 43 -14.5t16 -37.5z" />
    <glyph glyph-name="alphatonos" unicode="&#x3ac;" horiz-adv-x="572" 
d="M389 691l-139 -162l-52 36l112 182zM372 124v248q-18 17 -49.5 30.5t-57.5 13.5q-61 0 -90 -48t-29 -122q0 -174 104 -174q61 0 122 52zM378 46l-5 1q-68 -55 -159 -55q-97 0 -137.5 65t-40.5 185q0 105 51 178.5t153 73.5q81 0 141 -49l19 44h80v-413h57l5 -65
q-37 -15 -76 -17q-39 0 -59 10.5t-29 41.5z" />
    <glyph glyph-name="epsilontonos" unicode="&#x3ad;" horiz-adv-x="451" 
d="M124 258l1 4q-34 11 -57 36t-23 60q0 65 53.5 104.5t141.5 39.5q102 0 169 -27l-22 -69q-71 22 -134 22q-49 0 -73 -19.5t-24 -49.5q0 -38 24.5 -50.5t65.5 -12.5h66v-68h-67q-38 0 -67 -18t-29 -60t32 -62t86 -20q66 0 146 33l22 -65q-84 -45 -188 -45
q-95 0 -152.5 36.5t-57.5 110.5q0 42 24.5 74.5t62.5 45.5zM361 692l-139 -162l-52 36l112 182z" />
    <glyph glyph-name="etatonos" unicode="&#x3ae;" horiz-adv-x="539" 
d="M483 0h-109v314q0 54 -15.5 77t-62.5 23q-58 0 -132 -43v-371h-110v489h105l1 -43l4 -2q89 57 171 57q38 0 66 -9.5t43.5 -24t24.5 -37t11.5 -43.5t2.5 -49v-338zM374 691l-139 -162l-52 36l112 182z" />
    <glyph glyph-name="iotatonos" unicode="&#x3af;" horiz-adv-x="267" 
d="M67 77v412h109v-411h60l3 -66q-41 -18 -84 -18q-45 0 -66.5 20t-21.5 63zM254 691l-139 -162l-52 36l112 182z" />
    <glyph glyph-name="upsilondieresistonos" unicode="&#x3b0;" horiz-adv-x="537" 
d="M370 490h111v-292q0 -94 -58.5 -149.5t-156.5 -55.5q-102 0 -156 51.5t-54 138.5v307h109v-308q0 -107 100 -107q50 0 77.5 31.5t27.5 83.5v300zM372 715l-106 -183l-52 20l74 200zM205 610q0 -22 -15.5 -36.5t-40.5 -14.5q-24 0 -39 14.5t-15 36.5t14.5 37t38.5 15
q26 0 41.5 -14.5t15.5 -37.5zM458 610q0 -22 -16 -36.5t-41 -14.5q-24 0 -38 14.5t-14 36.5t15 37t39 15q25 0 40 -14.5t15 -37.5z" />
    <glyph glyph-name="alpha" unicode="&#x3b1;" horiz-adv-x="572" 
d="M372 124v248q-18 17 -49.5 30.5t-57.5 13.5q-61 0 -90 -48t-29 -122q0 -174 104 -174q61 0 122 52zM378 46l-5 1q-68 -55 -159 -55q-97 0 -137.5 65t-40.5 185q0 105 51 178.5t153 73.5q81 0 141 -49l19 44h80v-413h57l5 -65q-37 -15 -76 -17q-39 0 -59 10.5t-29 41.5z
" />
    <glyph glyph-name="beta" unicode="&#x3b2;" horiz-adv-x="528" 
d="M157 24l-3 -4v-216h-109v682q0 50 10.5 90.5t33.5 74t64.5 52t99.5 18.5q99 0 150.5 -47.5t51.5 -123.5q0 -46 -23 -85.5t-57 -56.5q115 -39 115 -188q0 -110 -55.5 -170t-147.5 -60q-79 0 -130 34zM253 642q-47 0 -72.5 -28.5t-25.5 -81.5v-428q49 -32 111 -32
q56 0 86 42t30 114q0 137 -129 137h-44v70h44q42 0 69.5 29.5t27.5 80.5q0 43 -27 70t-70 27z" />
    <glyph glyph-name="gamma" unicode="&#x3b3;" horiz-adv-x="519" 
d="M207 -208v214l-142 405l-53 -7l-15 59q64 36 102 36q49 0 68 -58q9 -25 26 -83l29 -103.5t39 -135.5h4q2 9 41 136q12 41 38.5 119.5t37.5 116.5h110l-83 -226l-93 -253v-220h-109z" />
    <glyph glyph-name="delta" unicode="&#x3b4;" horiz-adv-x="550" 
d="M296 722q93 0 159 -27l-24 -74q-59 21 -128 21q-35 0 -58 -16.5t-23 -48.5q0 -30 51 -63l32 -17.5t35.5 -20l33.5 -20.5t34.5 -24.5l29.5 -27.5t27 -34l19.5 -38t14.5 -46t4 -53q0 -46 -12.5 -87t-38.5 -76.5t-73 -56.5t-109 -21q-116 0 -170 64t-54 166q0 73 36.5 139.5
t111.5 92.5q-39 26 -58.5 54t-19.5 70q0 69 47.5 106.5t132.5 37.5zM394 230q0 64 -31.5 104t-87.5 72q-57 -14 -88 -66t-31 -119q0 -69 25 -109.5t92 -40.5q66 0 93.5 47t27.5 112z" />
    <glyph glyph-name="epsilon" unicode="&#x3b5;" horiz-adv-x="451" 
d="M124 258l1 4q-34 11 -57 36t-23 60q0 65 53.5 104.5t141.5 39.5q102 0 169 -27l-22 -69q-71 22 -134 22q-49 0 -73 -19.5t-24 -49.5q0 -38 24.5 -50.5t65.5 -12.5h66v-68h-67q-38 0 -67 -18t-29 -60t32 -62t86 -20q66 0 146 33l22 -65q-84 -45 -188 -45
q-95 0 -152.5 36.5t-57.5 110.5q0 42 24.5 74.5t62.5 45.5z" />
    <glyph glyph-name="zeta" unicode="&#x3b6;" horiz-adv-x="411" 
d="M312 622v2l-1 2q-42 0 -125.5 -0.5t-125.5 -0.5v78h386v-69q-135 -110 -216 -220.5t-84 -187.5q0 -55 34.5 -79.5t147.5 -65.5l32 -12q45 -19 59.5 -35.5t14.5 -45.5q0 -31 -34.5 -78.5t-83.5 -91.5l-53 48q66 79 66 98q0 23 -48 38l-42.5 15l-40.5 14.5l-35 13.5
t-32.5 14.5l-26.5 15.5t-24.5 18.5t-17.5 21t-14 25.5t-7.5 30t-3.5 36q0 79 73.5 196.5t201.5 219.5z" />
    <glyph glyph-name="eta" unicode="&#x3b7;" horiz-adv-x="539" 
d="M483 0h-109v314q0 54 -15.5 77t-62.5 23q-58 0 -132 -43v-371h-110v489h105l1 -43l4 -2q89 57 171 57q38 0 66 -9.5t43.5 -24t24.5 -37t11.5 -43.5t2.5 -49v-338z" />
    <glyph glyph-name="theta" unicode="&#x3b8;" horiz-adv-x="547" 
d="M270 -7q-56 0 -97 19t-66 51t-40 79.5t-20.5 97.5t-5.5 113q0 368 235 368q229 0 229 -363q0 -365 -235 -365zM276 639q-37 0 -62.5 -18t-38 -53t-17.5 -71.5t-6 -88.5h241q-1 50 -5.5 86t-16.5 71.5t-36 54.5t-59 19zM394 333h-243q0 -143 23.5 -202.5t99.5 -59.5
q66 0 93 67.5t27 194.5z" />
    <glyph glyph-name="iota" unicode="&#x3b9;" horiz-adv-x="267" 
d="M67 77v412h109v-411h60l3 -66q-41 -18 -84 -18q-45 0 -66.5 20t-21.5 63z" />
    <glyph glyph-name="kappa" unicode="&#x3ba;" horiz-adv-x="488" 
d="M160 304l6 -2l180 187h123l-187 -192q5 -7 17 -20.5t17 -20.5l167 -256h-121l-148 233q-7 -8 -15.5 -16.5l-19 -18.5l-15.5 -15v-183h-110v488h110v-80z" />
    <glyph glyph-name="lambda" unicode="&#x3bb;" horiz-adv-x="529" 
d="M304 619l158 -548h47l6 -63q-37 -15 -83 -15q-32 0 -46 14.5t-24 44.5l-96 344h-5q-44 -122 -58 -158l-93 -238h-105l183 463h58l-40 133q-8 28 -18 38t-34 10q-17 0 -51 -7l-6.5 35.5t-7.5 36.5q55 18 96 18q50 0 75 -23t44 -85z" />
    <glyph glyph-name="nu" unicode="&#x3bd;" horiz-adv-x="503" 
d="M251 77h5q2 5 21 74.5t32 108.5l30 90.5l29.5 93t14.5 45.5h110l-85 -241.5l-88 -247.5h-141l-170 489h113l78 -240q6 -19 24 -83t27 -89z" />
    <glyph glyph-name="xi" unicode="&#x3be;" horiz-adv-x="447" 
d="M146 389l1 7q-97 44 -97 149q2 83 60 131t161 48q98 0 165 -30l-9.5 -36.5t-10.5 -38.5q-71 22 -139 22q-54 0 -86.5 -28.5t-32.5 -78.5q0 -52 40.5 -78.5t100.5 -26.5h86v-77h-96q-74 0 -112 -40t-38 -100q0 -47 32.5 -73.5t127.5 -60.5q77 -27 112.5 -52t35.5 -62
q0 -62 -101 -161q-43 34 -58 45q51 68 51 88q0 12 -12 21.5t-42 21.5q-21 9 -60 24l-59.5 23.5t-48.5 25t-43 33.5t-26.5 44.5t-13.5 61.5q0 141 112 198z" />
    <glyph glyph-name="omicron" unicode="&#x3bf;" horiz-adv-x="550" 
d="M506 244q0 -51 -12.5 -94.5t-38.5 -80t-73.5 -57.5t-111.5 -21q-119 0 -172.5 69.5t-53.5 182.5q0 70 22.5 126t76.5 93.5t135 37.5q62 0 107.5 -21t71 -58t37.5 -81t12 -96zM392 243q0 177 -114 177q-34 0 -59 -15.5t-38 -42t-18.5 -55.5t-5.5 -64q0 -81 25.5 -126.5
t95.5 -45.5q114 0 114 172z" />
    <glyph glyph-name="pi" unicode="&#x3c0;" horiz-adv-x="540" 
d="M484 0h-109v413h-212v-413h-109v489h431q0 -68 -0.5 -245t-0.5 -244z" />
    <glyph glyph-name="rho" unicode="&#x3c1;" horiz-adv-x="540" 
d="M160 19l-5 -3v-222h-111v443q0 54 11.5 98.5t37.5 82.5t73 59.5t113 21.5q111 0 166.5 -68t55.5 -182q0 -120 -54.5 -189t-162.5 -69q-75 0 -124 28zM270 417q-61 0 -88 -41t-27 -106v-166q16 -12 48 -22t60 -10q60 0 94 39t34 141q0 165 -121 165z" />
    <glyph glyph-name="sigma1" unicode="&#x3c2;" horiz-adv-x="456" 
d="M272 500q81 0 154 -25l-20 -77q-60 20 -121 20q-68 0 -104 -45.5t-36 -121.5q0 -61 27 -91.5t124 -75.5q68 -31 94.5 -53.5t26.5 -50.5q0 -58 -99 -157q-1 1 -61 45q4 6 14.5 20.5t16 23t10.5 19.5t5 19q0 13 -15 23.5t-56 27.5q-115 48 -155.5 101t-40.5 146
q0 114 59.5 183t176.5 69z" />
    <glyph glyph-name="sigma" unicode="&#x3c3;" horiz-adv-x="554" 
d="M439 414l-3 -5q58 -53 58 -174q0 -107 -59.5 -174t-168.5 -67q-118 0 -174 64.5t-56 179.5q0 109 58.5 180t175.5 71h263v-75h-94zM267 410q-121 0 -121 -174q0 -165 121 -165q58 0 87 46t29 121q0 172 -116 172z" />
    <glyph glyph-name="tau" unicode="&#x3c4;" horiz-adv-x="418" 
d="M6 490h380v-75h-161v-259q0 -40 16.5 -59t56.5 -19q38 0 88 14l15 -71q-57 -27 -132 -27q-151 0 -151 131v290h-112v75z" />
    <glyph glyph-name="upsilon" unicode="&#x3c5;" horiz-adv-x="537" 
d="M370 490h111v-292q0 -94 -58.5 -149.5t-156.5 -55.5q-102 0 -156 51.5t-54 138.5v307h109v-308q0 -107 100 -107q50 0 77.5 31.5t27.5 83.5v300z" />
    <glyph glyph-name="phi" unicode="&#x3c6;" horiz-adv-x="701" 
d="M37 243q0 89 43.5 156t132.5 93l31 -61q-99 -42 -99 -188q0 -82 33 -126t120 -48v430h126q115 0 177.5 -69t62.5 -181q0 -114 -64.5 -183t-199.5 -74v-198h-103v199q-76 3 -129.5 24.5t-80.5 57.5t-38.5 76.5t-11.5 91.5zM555 249q0 79 -34.5 124t-119.5 46v-350
q154 5 154 180z" />
    <glyph glyph-name="chi" unicode="&#x3c7;" horiz-adv-x="472" 
d="M346 0l-50.5 88.5t-61.5 104.5l-56.5 -96.5l-56.5 -96.5h-117l166 255l-81 124l-71 110h121l44.5 -79.5t53.5 -91.5l50 85.5l50 85.5h118l-155 -232l166 -257h-120z" />
    <glyph glyph-name="psi" unicode="&#x3c8;" horiz-adv-x="716" 
d="M304 -209v203q-116 3 -183 59.5t-67 142.5l1 293h107v-297q0 -50 35.5 -82t106.5 -35v494h108v-494q68 2 105 35t37 82v297h107v-293q0 -86 -67 -142.5t-182 -59.5v-203h-108z" />
    <glyph glyph-name="omega" unicode="&#x3c9;" horiz-adv-x="755" 
d="M332 334h96l1 -169q1 -39 20.5 -65t56.5 -26q103 0 103 166q0 146 -92 188l21 70q93 -18 136.5 -88.5t43.5 -168.5q0 -108 -50 -178.5t-154 -70.5q-47 0 -83 20.5t-52 58.5h-3q-20 -37 -57 -58t-82 -21q-200 0 -200 249q0 98 43.5 168.5t136.5 88.5l20 -70
q-92 -42 -92 -188q0 -35 4 -62t14.5 -52t31.5 -38.5t52 -13.5q42 0 63.5 26t21.5 65v169z" />
    <glyph glyph-name="iotadieresis" unicode="&#x3ca;" horiz-adv-x="267" 
d="M67 77v412h109v-411h60l3 -66q-41 -18 -84 -18q-45 0 -66.5 20t-21.5 63zM82 612q0 -23 -15.5 -37.5t-41.5 -14.5t-41 14.5t-15 37.5t15.5 37.5t39.5 14.5q27 0 42.5 -14.5t15.5 -37.5zM280 612q0 -23 -16 -37.5t-43 -14.5q-24 0 -38.5 14.5t-14.5 37.5t15 37.5t38 14.5
q27 0 43 -14t16 -38z" />
    <glyph glyph-name="upsilondieresis" unicode="&#x3cb;" horiz-adv-x="537" 
d="M370 490h111v-292q0 -94 -58.5 -149.5t-156.5 -55.5q-102 0 -156 51.5t-54 138.5v307h109v-308q0 -107 100 -107q50 0 77.5 31.5t27.5 83.5v300zM225 612q0 -23 -15.5 -37.5t-41.5 -14.5t-41 14.5t-15 37.5t15.5 37.5t39.5 14.5q27 0 42.5 -14.5t15.5 -37.5zM423 612
q0 -23 -16 -37.5t-43 -14.5q-24 0 -38.5 14.5t-14.5 37.5t15 37.5t38 14.5q27 0 43 -14t16 -38z" />
    <glyph glyph-name="omicrontonos" unicode="&#x3cc;" horiz-adv-x="550" 
d="M506 244q0 -51 -12.5 -94.5t-38.5 -80t-73.5 -57.5t-111.5 -21q-119 0 -172.5 69.5t-53.5 182.5q0 70 22.5 126t76.5 93.5t135 37.5q62 0 107.5 -21t71 -58t37.5 -81t12 -96zM392 243q0 177 -114 177q-34 0 -59 -15.5t-38 -42t-18.5 -55.5t-5.5 -64q0 -81 25.5 -126.5
t95.5 -45.5q114 0 114 172zM404 691l-139 -162l-52 36l112 182z" />
    <glyph glyph-name="upsilontonos" unicode="&#x3cd;" horiz-adv-x="537" 
d="M370 490h111v-292q0 -94 -58.5 -149.5t-156.5 -55.5q-102 0 -156 51.5t-54 138.5v307h109v-308q0 -107 100 -107q50 0 77.5 31.5t27.5 83.5v300zM409 691l-139 -162l-52 36l112 182z" />
    <glyph glyph-name="omegatonos" unicode="&#x3ce;" horiz-adv-x="755" 
d="M332 334h96l1 -169q1 -39 20.5 -65t56.5 -26q103 0 103 166q0 146 -92 188l21 70q93 -18 136.5 -88.5t43.5 -168.5q0 -108 -50 -178.5t-154 -70.5q-47 0 -83 20.5t-52 58.5h-3q-20 -37 -57 -58t-82 -21q-200 0 -200 249q0 98 43.5 168.5t136.5 88.5l20 -70
q-92 -42 -92 -188q0 -35 4 -62t14.5 -52t31.5 -38.5t52 -13.5q42 0 63.5 26t21.5 65v169zM508 690l-139 -162l-52 36l112 182z" />
    <glyph glyph-name="Stigmagreek" unicode="&#x3da;" horiz-adv-x="689" 
d="M46 398q0 123 94 198.5t280 79.5q134 1 213 28l24 -84q-82 -33 -221 -36q-143 -2 -215 -51t-72 -136q0 -79 59 -131t206 -90q109 -27 161.5 -64.5t52.5 -94.5q0 -69 -123 -146q-4 3 -24.5 27.5t-24.5 27.5l14.5 12t14 11.5t11.5 10t10.5 11l7.5 10t5.5 11t1.5 11.5
q0 26 -24 41.5t-93 31.5q-193 47 -275.5 125.5t-82.5 196.5z" />
    <glyph glyph-name="stigmagreek" unicode="&#x3db;" horiz-adv-x="585" 
d="M43 280q0 96 72 155t215 63q100 1 163 22l21 -75q-57 -25 -172 -27q-104 -1 -158 -37.5t-54 -100.5q0 -57 45 -96.5t152 -67.5q84 -22 125 -51t41 -74q0 -57 -101 -119l-42 51q49 35 49 58q0 17 -17 27t-66 22q-146 35 -209.5 96.5t-63.5 153.5z" />
    <glyph glyph-name="Digammagreek" unicode="&#x3dc;" horiz-adv-x="551" 
d="M179 0h-110q0 95 0.5 344t0.5 345h435v-77h-327v-218q199 3 244 4v-81l-244 3q0 -46 0.5 -160.5t0.5 -159.5z" />
    <glyph glyph-name="digammagreek" unicode="&#x3dd;" horiz-adv-x="580" 
d="M179 -196h-110q0 94 0.5 343t0.5 344h435v-76l-327 -1v-217q199 3 244 4v-81l-244 3q0 -46 0.5 -159.5t0.5 -159.5z" />
    <glyph glyph-name="Koppagreek" unicode="&#x3de;" horiz-adv-x="629" 
d="M108 269l137 336l-127 -44l-32 47q35 35 85 64t94 29q32 0 50 -14.5t18 -42.5q0 -16 -7 -33l-123 -313l245 72q18 6 32 6q38 0 38 -35q0 -3 -2 -15l-99 -327l130 40l25 -44q-34 -34 -86 -59t-90 -25q-65 0 -65 54q0 12 4 30l91 295l-253 -76q-12 -4 -24 -4
q-20 0 -32 11.5t-12 28.5q0 13 3 19z" />
    <glyph glyph-name="koppagreek" unicode="&#x3df;" horiz-adv-x="471" 
d="M180 517q35 0 53 -16.5t10 -59.5l-28 -155l158 -1q62 0 38 -67l-126 -349l-102 12l73 170l68 160h-155q-55 0 -43 54l37 175l-113 -40l-24 47q37 29 80 49.5t74 20.5z" />
    <glyph glyph-name="Sampigreek" unicode="&#x3e0;" horiz-adv-x="669" 
d="M49 665l7 52q267 -15 408.5 -173.5t141.5 -407.5q0 -109 -31 -232l-56 10q14 104 14 177q0 95 -25 186l-279 -176l-37 63l298 168q-25 65 -61 113l-74.5 -46l-133.5 -83l-75 -47l-40 64l286 159q-128 150 -343 173z" />
    <glyph glyph-name="sampigreek" unicode="&#x3e1;" horiz-adv-x="600" 
d="M52 456l9 54q226 -12 341.5 -142.5t115.5 -335.5q0 -95 -25 -196l-57 11q12 87 12 150q0 72 -20 143l-223 -145l-36 61l243 135q-18 44 -47 87l-231 -145l-38 61l233 127q-108 118 -277 135z" />
    <glyph glyph-name="afii10023" unicode="&#x401;" horiz-adv-x="583" 
d="M258 777q0 -23 -15.5 -37.5t-40.5 -14.5q-26 0 -41 14t-15 38q0 22 15 37t39 15q27 0 42.5 -14.5t15.5 -37.5zM453 777q0 -23 -16 -37.5t-43 -14.5q-24 0 -38 14.5t-14 37.5q0 22 14.5 37t37.5 15q27 0 43 -14.5t16 -37.5zM534 0h-458v686h443v-82h-329v-204h277v-78
h-277v-239h344v-83z" />
    <glyph glyph-name="afii10051" unicode="&#x402;" horiz-adv-x="797" 
d="M751 213q0 -106 -58.5 -190t-142.5 -135l-46 58q130 106 130 249q0 75 -36 113.5t-99 38.5q-73 0 -146 -30v-317h-112v602h-219v84h605v-84h-274v-207q91 36 180 36q102 0 160 -59.5t58 -158.5z" />
    <glyph glyph-name="afii10052" unicode="&#x403;" horiz-adv-x="543" 
d="M429 872l-159 -139l-42 39l134 165zM191 0h-113v686h441v-85h-328v-601z" />
    <glyph glyph-name="afii10053" unicode="&#x404;" horiz-adv-x="608" 
d="M371 698q95 0 179 -28l-21 -82q-64 20 -146 20q-91 0 -142.5 -55t-62.5 -157q80 1 251 5v-85l-254 4q4 -115 51.5 -177t160.5 -62q86 0 162 23l19 -79q-82 -33 -204 -33q-308 0 -308 346q0 50 8.5 97t31 96t56.5 85t90.5 59t128.5 23z" />
    <glyph glyph-name="afii10054" unicode="&#x405;" horiz-adv-x="595" 
d="M303 698q122 0 202 -45l-32 -78q-80 34 -174 34q-55 0 -87.5 -27.5t-32.5 -80.5q0 -23 11 -40t35.5 -29t44.5 -18t55 -15q100 -26 138 -49q86 -51 86 -159q0 -98 -70.5 -149t-198.5 -51q-135 0 -234 54l33 81q104 -46 207 -46q74 0 110 25.5t36 85.5q0 49 -32 71t-100 40
q-42 11 -62.5 17t-54.5 18.5t-51 25t-36 32t-27 45t-8 58.5q0 92 65 146t177 54z" />
    <glyph glyph-name="afii10055" unicode="&#x406;" horiz-adv-x="284" 
d="M198 0h-112v686h112v-686z" />
    <glyph glyph-name="afii10056" unicode="&#x407;" horiz-adv-x="284" 
d="M101 778q0 -23 -15.5 -37.5t-40.5 -14.5q-26 0 -41 14t-15 38q0 22 15 37t39 15q27 0 42.5 -14.5t15.5 -37.5zM296 778q0 -23 -16 -37.5t-43 -14.5q-24 0 -38 14.5t-14 37.5q0 22 14.5 37t37.5 15q27 0 43 -14.5t16 -37.5zM198 0h-112v686h112v-686z" />
    <glyph glyph-name="afii10057" unicode="&#x408;" horiz-adv-x="334" 
d="M124 139l1 548h113l-1 -547q0 -132 -63.5 -209.5t-193.5 -115.5l-29 79q102 56 137.5 106t35.5 139z" />
    <glyph glyph-name="afii10058" unicode="&#x409;" horiz-adv-x="995" 
d="M707 331h-137v-252h146q53 0 87.5 32.5t34.5 93.5q0 62 -38.5 94t-92.5 32zM187 686h382l1 -276h154q107 0 169 -57t62 -149q0 -98 -59.5 -151t-155.5 -53h-283v605h-175l-4 -68q-15 -250 -25 -316q-22 -138 -89 -194q-47 -39 -128 -55l-24 80q101 36 125 107t37 303
q2 29 3 45z" />
    <glyph glyph-name="afii10059" unicode="&#x40a;" horiz-adv-x="982" 
d="M444 0v329h-254v-329h-113v686h113v-278h254v278h113v-276h154q107 0 169 -57t62 -149q0 -98 -59 -151t-156 -53h-283zM695 329h-138v-250h147q53 0 87.5 32t34.5 93q0 62 -38 93.5t-93 31.5z" />
    <glyph glyph-name="afii10060" unicode="&#x40b;" horiz-adv-x="786" 
d="M728 274v-274h-115v253q0 102 -123 102q-78 0 -151 -33v-322h-112l-1 601h-208v85h591v-85h-269v-198q94 34 181 34q93 0 150 -40.5t57 -122.5z" />
    <glyph glyph-name="afii10061" unicode="&#x40c;" horiz-adv-x="619" 
d="M188 0h-112v685h112v-278h104q93 0 119 102l45 175h108l-46 -191q-24 -101 -98 -128q88 -16 117 -126l62 -239h-112l-59 215q-16 59 -44 82t-83 23h-113v-320zM457 872l-159 -139l-42 39l134 165z" />
    <glyph glyph-name="afii10062" unicode="&#x40e;" horiz-adv-x="590" 
d="M296 244h5l60 170l99 272h112l-229 -592q-22 -57 -54.5 -81.5t-83.5 -24.5q-62 0 -126 18l20 82q54 -12 80 -12q25 0 40 10t26 40l17 46h-33l-212 514h112l105 -272zM300 717q-90 0 -172 120l52 38q28 -39 61.5 -61.5t62.5 -22.5q66 0 146 78l32 -31q-81 -121 -182 -121z
" />
    <glyph glyph-name="afii10145" unicode="&#x40f;" horiz-adv-x="682" 
d="M297 -178v178h-220v685h113v-605h300v605h115v-685h-218v-178h-90z" />
    <glyph glyph-name="afii10017" unicode="&#x410;" horiz-adv-x="617" 
d="M607 0h-117l-29 92.5l-24 76.5h-261l-53 -169h-114l116.5 346.5l113.5 339.5h143zM413 250l-48 162l-55 187h-4l-53 -183q-1 -4 -24.5 -81t-26.5 -85h211z" />
    <glyph glyph-name="afii10018" unicode="&#x411;" horiz-adv-x="597" 
d="M58 0v686h431v-79h-318v-197h155q111 0 170.5 -53.5t59.5 -145.5q0 -99 -59 -155t-155 -56h-284zM309 331h-138v-252h149q52 0 86 34.5t34 95.5q0 63 -36.5 92.5t-94.5 29.5z" />
    <glyph glyph-name="afii10019" unicode="&#x412;" horiz-adv-x="631" 
d="M464 361v-4q105 -38 105 -160q0 -89 -56.5 -143t-145.5 -54h-291v685h270q100 0 153 -48.5t53 -130.5q0 -100 -88 -145zM457 199q0 50 -32 83t-92 33h-145v-233h145q65 0 94.5 32t29.5 85zM438 497q0 49 -30 77.5t-91 28.5h-129v-210h129q58 0 89.5 27.5t31.5 76.5z" />
    <glyph glyph-name="afii10020" unicode="&#x413;" horiz-adv-x="543" 
d="M191 0h-113v686h441v-85h-328v-601z" />
    <glyph glyph-name="afii10021" unicode="&#x414;" horiz-adv-x="714" 
d="M596 0h-497v-171h-88v250l63 1q63 65 86 171t36 312l8 123h411v-606l69 -1v-250h-88v171zM301 607l-5 -72q-15 -221 -32.5 -309.5t-68.5 -145.5h308v527h-202z" />
    <glyph glyph-name="afii10022" unicode="&#x415;" horiz-adv-x="583" 
d="M534 0h-458v686h443v-82h-329v-204h277v-78h-277v-239h344v-83z" />
    <glyph glyph-name="afii10024" unicode="&#x416;" horiz-adv-x="955" 
d="M532 0h-112v320h-90q-103 0 -132 -105l-59 -215h-110l62 239q29 110 117 126q-72 26 -98 128l-47 191h106q12 -43 46 -175q26 -102 119 -102h86v278h112v-278h88q92 0 118 102l46 175h105l-46 -191q-27 -102 -98 -128q88 -16 117 -126l62 -239h-110l-58 215
q-31 105 -132 105h-92v-320z" />
    <glyph glyph-name="afii10025" unicode="&#x417;" horiz-adv-x="589" 
d="M279 697q108 0 174 -40t66 -129q0 -42 -27.5 -83.5t-76.5 -64.5l2 -5q54 -18 87.5 -62t33.5 -101q0 -104 -78.5 -160.5t-199.5 -56.5q-141 0 -230 41l25 76q100 -31 186 -31q180 0 180 133q0 55 -43.5 86t-112.5 31h-85v75h79q62 0 102 34t40 76q0 97 -141 97
q-91 0 -177 -36l-24 74q97 46 220 46z" />
    <glyph glyph-name="afii10026" unicode="&#x418;" horiz-adv-x="694" 
d="M508 686l109 -2v-684h-110v515h-3l-220 -360l-96 -155h-112v684h112q0 -86 -0.5 -258t-0.5 -258h4l97 158z" />
    <glyph glyph-name="afii10027" unicode="&#x419;" horiz-adv-x="694" 
d="M508 686l109 -2v-684h-110v515h-3l-220 -360l-96 -155h-112v684h112q0 -86 -0.5 -258t-0.5 -258h4l97 158zM338 746q-88 0 -173 121l53 39q62 -84 123 -84q67 0 147 77l34 -31q-81 -122 -184 -122z" />
    <glyph glyph-name="afii10028" unicode="&#x41a;" horiz-adv-x="619" 
d="M188 0h-112v685h112v-278h104q93 0 119 102l45 175h108l-46 -191q-24 -101 -98 -128q88 -16 117 -126l62 -239h-112l-59 215q-16 59 -44 82t-83 23h-113v-320z" />
    <glyph glyph-name="afii10029" unicode="&#x41b;" horiz-adv-x="672" 
d="M596 0h-114l-1 604h-199l-4 -67q-15 -250 -25 -316q-22 -138 -89 -194q-47 -39 -128 -55l-24 80q44 16 70.5 35.5t43.5 49t25.5 74t13.5 104.5t10 146q1 30 2 45l10 180h409v-686z" />
    <glyph glyph-name="afii10030" unicode="&#x41c;" horiz-adv-x="852" 
d="M422 186h7l116 270l50 114.5l50 114.5h130v-685h-110v507h-3l-53 -125l-137 -313h-98l-140 324q-8 20 -24 57l-23 54h-2q0 -84 -0.5 -252.5t-0.5 -251.5h-108v685h135l96 -228z" />
    <glyph glyph-name="afii10031" unicode="&#x41d;" horiz-adv-x="679" 
d="M601 0h-115v317h-296q0 -53 0.5 -159t0.5 -158h-115v685h115q0 -47 -0.5 -141t-0.5 -141h296v282h115v-685z" />
    <glyph glyph-name="afii10032" unicode="&#x41e;" horiz-adv-x="720" 
d="M663 342q0 -156 -77.5 -253.5t-221.5 -97.5q-158 0 -232.5 91.5t-74.5 256.5q0 75 17 138t52.5 113t96 78.5t141.5 28.5t140.5 -28.5t93.5 -79t49.5 -112t15.5 -135.5zM544 339q0 276 -180 276q-189 0 -189 -277q0 -131 45 -197t144 -66q90 0 135 73t45 191z" />
    <glyph glyph-name="afii10033" unicode="&#x41f;" horiz-adv-x="685" 
d="M605 0h-115v599h-296l1 -599h-115v686h525v-686z" />
    <glyph glyph-name="afii10034" unicode="&#x420;" horiz-adv-x="574" 
d="M540 482q0 -36 -11.5 -71t-34.5 -67t-66.5 -51.5t-100.5 -19.5h-137l1 -273h-115v686h241q105 0 164 -53.5t59 -150.5zM304 604h-114v-250h118q50 0 83.5 29.5t33.5 95.5q0 62 -33.5 93.5t-87.5 31.5z" />
    <glyph glyph-name="afii10035" unicode="&#x421;" horiz-adv-x="608" 
d="M371 698q97 0 178 -28l-20 -83q-69 22 -145 22q-103 0 -156 -69t-53 -199q0 -127 47 -193.5t165 -66.5q81 0 162 23l20 -79q-90 -34 -204 -34q-309 0 -309 348q0 49 8.5 96t31 96t56.5 85t90.5 59t128.5 23z" />
    <glyph glyph-name="afii10036" unicode="&#x422;" horiz-adv-x="584" 
d="M348 0h-112v601h-219v85h550v-85h-218z" />
    <glyph glyph-name="afii10037" unicode="&#x423;" horiz-adv-x="590" 
d="M296 244h5l60 170l99 272h112l-229 -592q-22 -57 -54.5 -81.5t-83.5 -24.5q-62 0 -126 18l20 82q54 -12 80 -12q25 0 40 10t26 40l17 46h-33l-212 514h112l105 -272z" />
    <glyph glyph-name="afii10038" unicode="&#x424;" horiz-adv-x="830" 
d="M790 351q0 -118 -83.5 -193.5t-233.5 -84.5v-73h-110v73q-163 8 -244 79.5t-81 195.5q0 112 84.5 191t240.5 87v59h110v-59q160 -6 238.5 -83.5t78.5 -191.5zM149 346q0 -179 214 -193v391q-111 -7 -162.5 -61t-51.5 -137zM678 348q0 80 -47 135t-157 61v-391
q97 7 150.5 60t53.5 135z" />
    <glyph glyph-name="afii10039" unicode="&#x425;" horiz-adv-x="597" 
d="M230 356l-207 329h128l151 -259l153 259h127l-215 -332l221 -353h-126l-88 147.5l-79 131.5l-162 -279h-126z" />
    <glyph glyph-name="afii10040" unicode="&#x426;" horiz-adv-x="710" 
d="M594 -170v170h-517v685h113v-605h297v605h114v-605h79v-250h-86z" />
    <glyph glyph-name="afii10041" unicode="&#x427;" horiz-adv-x="634" 
d="M557 684v-684h-112v293q-92 -29 -178 -29q-98 0 -158.5 40.5t-60.5 126.5v253h115v-228q0 -57 31.5 -81.5t91.5 -24.5q86 0 159 29v305h112z" />
    <glyph glyph-name="afii10042" unicode="&#x428;" horiz-adv-x="947" 
d="M870 0h-793v686h111v-606h230v606h111v-606h227v606h114v-686z" />
    <glyph glyph-name="afii10043" unicode="&#x429;" horiz-adv-x="978" 
d="M862 -171v171h-785v686h111v-606h230v606h111v-606h227v606h114v-606h78v-251h-86z" />
    <glyph glyph-name="afii10044" unicode="&#x42a;" horiz-adv-x="792" 
d="M367 686l-1 -276h151q108 0 171.5 -57t63.5 -149q0 -100 -59.5 -152t-157.5 -52h-282l1 603h-237v83h350zM503 333h-137v-256h146q53 0 87.5 33.5t34.5 94.5q0 62 -38 95t-93 33z" />
    <glyph glyph-name="afii10045" unicode="&#x42b;" horiz-adv-x="844" 
d="M77 0v686h112l1 -276h154q107 0 169 -57t62 -149q0 -98 -59 -151t-156 -53h-283zM327 331h-137v-252h147q53 0 87.5 32.5t34.5 93.5q0 62 -38.5 94t-93.5 32zM768 0h-112v686h112v-686z" />
    <glyph glyph-name="afii10046" unicode="&#x42c;" horiz-adv-x="615" 
d="M77 0v686h113v-276h154q107 0 169 -57t62 -149q0 -98 -59 -151t-156 -53h-283zM327 331h-137v-252h147q53 0 87.5 32.5t34.5 93.5q0 62 -38.5 94t-93.5 32z" />
    <glyph glyph-name="afii10047" unicode="&#x42d;" horiz-adv-x="598" 
d="M222 -7q-120 0 -194 31l19 80q81 -23 156 -23q113 0 163.5 61t54.5 185l-254 -4v84l254 -5q-5 96 -54 151t-146 55q-76 0 -146 -21l-18 80q78 30 164 30q320 0 320 -332q0 -80 -17 -145t-53 -117t-99.5 -81t-149.5 -29z" />
    <glyph glyph-name="afii10048" unicode="&#x42e;" horiz-adv-x="962" 
d="M906 341q0 -158 -73 -253.5t-217 -95.5q-148 0 -220 85.5t-75 242.5h-132v-320h-112v686h112v-290h133q13 137 83 219t211 82q81 0 139.5 -28t90.5 -79.5t46 -112t14 -136.5zM788 339q0 56 -6 99t-23 85.5t-53 66t-90 23.5t-91 -22.5t-55.5 -63.5t-26 -86t-7.5 -103
q0 -133 41.5 -198.5t138.5 -65.5q89 0 130.5 72.5t41.5 192.5z" />
    <glyph glyph-name="afii10049" unicode="&#x42f;" horiz-adv-x="618" 
d="M185 315v4q-54 19 -84 65t-30 105q0 88 54 142.5t158 54.5h258v-686h-113v288h-94q-51 0 -82.5 -23t-49.5 -81l-53 -184h-113l56 195q15 53 36 80t57 40zM305 370h123v233h-122q-54 0 -87 -30t-33 -89q0 -63 35.5 -88.5t83.5 -25.5z" />
    <glyph glyph-name="afii10065" unicode="&#x430;" horiz-adv-x="552" 
d="M455 332v-256h65l6 -62q-44 -22 -101 -22q-34 0 -51 12.5t-19 47.5l-2 2q-73 -63 -169 -63q-41 0 -71.5 14t-46 36t-22.5 45t-7 46q0 68 54.5 106t139.5 42l119 8v27q0 55 -21 77t-78 22q-75 0 -153 -26q-8 30 -20 70q90 40 199 40q87 0 132.5 -38.5t45.5 -127.5z
M350 227l-113 -8q-85 -6 -85 -75q0 -77 79 -77q58 0 119 55v105z" />
    <glyph glyph-name="afii10066" unicode="&#x431;" horiz-adv-x="535" 
d="M261 678q14 6 52 20.5t69 27.5t48 21q22 -44 32 -66q-56 -29 -109 -51q-111 -45 -157.5 -87.5t-61.5 -138.5q1 0 2 -1q56 79 159 79q105 0 153 -65.5t48 -176.5q0 -48 -12.5 -90.5t-38.5 -79t-73 -57.5t-111 -21q-63 0 -108.5 21t-69.5 57.5t-34.5 77.5t-10.5 89
q0 164 13 218q35 153 210 223zM274 406q-62 0 -93.5 -54.5t-31.5 -121.5q0 -159 119 -159q116 0 116 165q0 170 -110 170z" />
    <glyph glyph-name="afii10067" unicode="&#x432;" horiz-adv-x="524" 
d="M308 489q77 0 118.5 -33.5t41.5 -92.5q0 -69 -61 -103v-1q78 -30 78 -120q0 -62 -46 -100.5t-114 -38.5h-271v489h254zM285 222h-123v-148h123q46 0 68 21.5t22 53.5q0 31 -23.5 52t-66.5 21zM274 415h-112v-131h117q37 0 59 18t22 48q0 65 -86 65z" />
    <glyph glyph-name="afii10068" unicode="&#x433;" horiz-adv-x="425" 
d="M162 0h-108v490h365v-79h-257v-411z" />
    <glyph glyph-name="afii10069" unicode="&#x434;" horiz-adv-x="579" 
d="M496 490l-1 -413l51 -1v-218h-82v142h-365v-141h-84v217l45 1q44 40 59 107t24 209l6 97h347zM390 412h-149l-2 -41q-7 -129 -19 -193t-43 -101h213v335z" />
    <glyph glyph-name="afii10070" unicode="&#x435;" horiz-adv-x="523" 
d="M270 501q210 0 210 -236v-39h-325q0 -151 132 -151q74 0 157 33l24 -68q-87 -47 -194 -47q-67 0 -113.5 19.5t-71 55.5t-35 78.5t-10.5 97.5q0 32 5 64t20.5 68t39.5 62.5t65.5 44.5t95.5 18zM274 427q-107 0 -117 -141h222q0 141 -105 141z" />
    <glyph glyph-name="afii10072" unicode="&#x436;" horiz-adv-x="787" 
d="M446 0h-107v225h-62q-79 0 -103 -72v1q-15 -52 -47 -154h-106q14 44 52 174q23 68 86 88v1q-52 24 -71 90q-17 66 -38 135h102l36 -122q21 -69 92 -69h59v192h107v-192h60q72 0 91 69l37 122h101l-37 -135q-21 -68 -71 -90v-1q36 -11 55.5 -32.5t29.5 -55.5
q8 -25 25.5 -84t27.5 -90h-106l-48 154v-1q-14 42 -39.5 57t-62.5 15h-63v-225z" />
    <glyph glyph-name="afii10073" unicode="&#x437;" horiz-adv-x="470" 
d="M333 269v-3q43 -12 68 -43.5t25 -73.5q0 -75 -60.5 -116.5t-160.5 -41.5q-106 0 -183 35l22 69q81 -26 139 -26q131 0 131 87q0 40 -29.5 56.5t-68.5 16.5h-74v65h63q96 2 96 67q0 64 -92 64q-72 0 -146 -26l-19 66q84 37 184 37q89 0 136.5 -34t47.5 -93
q0 -37 -22.5 -65.5t-56.5 -40.5z" />
    <glyph glyph-name="afii10074" unicode="&#x438;" horiz-adv-x="545" 
d="M490 0h-109v348h-4l-62 -101q-138 -219 -158 -247h-103v489h108v-344h5l21 35.5t27 43.5l170 265h105v-489z" />
    <glyph glyph-name="afii10075" unicode="&#x439;" horiz-adv-x="545" 
d="M490 0h-109v348h-4l-62 -101q-138 -219 -158 -247h-103v489h108v-344h5l21 35.5t27 43.5l170 265h105v-489zM272 548q-88 0 -173 121l53 39q62 -84 123 -84q67 0 147 77l34 -31q-81 -122 -184 -122z" />
    <glyph glyph-name="afii10076" unicode="&#x43a;" horiz-adv-x="522" 
d="M160 0h-106v489h106v-192h80q71 0 91 69l37 122h101l-38 -135q-19 -68 -70 -90v-1q64 -21 85 -88q3 -9 52 -174h-106q-8 28 -47 154v-1q-24 72 -102 72h-83v-225z" />
    <glyph glyph-name="afii10077" unicode="&#x43b;" horiz-adv-x="521" 
d="M466 0h-109v412h-141l-3 -54q-10 -176 -25 -235q-27 -105 -110 -140q-20 -8 -44 -13l-28 74q72 27 88.5 83.5t24.5 235.5l6 127h341v-490z" />
    <glyph glyph-name="afii10078" unicode="&#x43c;" horiz-adv-x="672" 
d="M617 0h-103v327h-5l-40 -86q-13 -29 -45 -91.5t-48 -97.5h-69l-99 191l-45 89h-4v-332h-105v489h119l109 -208l57 -115h4q15 35 60 125l99 198h115v-489z" />
    <glyph glyph-name="afii10079" unicode="&#x43d;" horiz-adv-x="540" 
d="M485 0h-109v221h-213v-221h-109v489h110v-190h212v190h109v-489z" />
    <glyph glyph-name="afii10080" unicode="&#x43e;" horiz-adv-x="550" 
d="M506 244q0 -51 -12.5 -94.5t-38.5 -80t-73.5 -57.5t-111.5 -21q-119 0 -172.5 69.5t-53.5 182.5q0 70 22.5 126t76.5 93.5t135 37.5q62 0 107.5 -21t71 -58t37.5 -81t12 -96zM392 243q0 177 -114 177q-34 0 -59 -15.5t-38 -42t-18.5 -55.5t-5.5 -64q0 -81 25.5 -126.5
t95.5 -45.5q114 0 114 172z" />
    <glyph glyph-name="afii10081" unicode="&#x43f;" horiz-adv-x="540" 
d="M484 0h-109v413h-212v-413h-109v489h431q0 -68 -0.5 -245t-0.5 -244z" />
    <glyph glyph-name="afii10082" unicode="&#x440;" horiz-adv-x="545" 
d="M160 446l5 -4q68 54 147 54q188 0 188 -247q0 -117 -48.5 -187.5t-153.5 -70.5q-86 0 -135 32v-231h-109v698h104zM275 70q115 0 115 183q0 89 -29 124.5t-82 35.5q-26 0 -62 -14.5t-53 -30.5v-267q16 -12 49.5 -21.5t61.5 -9.5z" />
    <glyph glyph-name="afii10083" unicode="&#x441;" horiz-adv-x="469" 
d="M155 246q0 -169 131 -169q61 0 137 29l24 -73q-75 -40 -177 -40q-226 0 -226 246q0 36 5.5 69.5t21.5 69.5t40.5 62t67 43t97.5 17q82 0 146 -24l-20 -78q-51 16 -112 16q-64 0 -99.5 -45t-35.5 -123z" />
    <glyph glyph-name="afii10084" unicode="&#x442;" horiz-adv-x="467" 
d="M180 0v411h-170v79h447v-79h-169v-411h-108z" />
    <glyph glyph-name="afii10085" unicode="&#x443;" horiz-adv-x="494" 
d="M247 70l27 92l52 172.5l47 154.5h110l-195 -579q-42 -125 -152 -125q-47 0 -114 17l16 74q50 -10 76 -10q31 0 49.5 14t30.5 51l25 75h-51l-48 153.5l-56 178l-48 151.5h108l94 -329q10 -34 23 -90h6z" />
    <glyph glyph-name="afii10086" unicode="&#x444;" horiz-adv-x="707" 
d="M300 -209l1 202q-262 9 -262 250q0 113 66 182.5t196 73.5l-1 213h105v-213q132 -2 197.5 -68t65.5 -179q0 -114 -63 -183t-200 -77v-201h-105zM405 422v-355q158 8 158 179q0 80 -35 126.5t-123 49.5zM143 244q0 -173 158 -177v355q-87 -6 -122.5 -52.5t-35.5 -125.5z
" />
    <glyph glyph-name="afii10087" unicode="&#x445;" horiz-adv-x="472" 
d="M346 0l-50.5 88.5t-61.5 104.5l-56.5 -96.5l-56.5 -96.5h-117l166 255l-81 124l-71 110h121l44.5 -79.5t53.5 -91.5l50 85.5l50 85.5h118l-155 -232l166 -257h-120z" />
    <glyph glyph-name="afii10088" unicode="&#x446;" horiz-adv-x="573" 
d="M374 77v412h108v-412h60v-217h-85v140h-403v489h109v-412h211z" />
    <glyph glyph-name="afii10089" unicode="&#x447;" horiz-adv-x="513" 
d="M457 0h-109v207q-67 -34 -158 -34q-46 0 -78 12.5t-47.5 36t-21.5 49.5t-6 61v157h110v-135q0 -52 16 -74.5t61 -22.5q70 0 124 27v206h109v-490z" />
    <glyph glyph-name="afii10090" unicode="&#x448;" horiz-adv-x="756" 
d="M702 0h-647v490h108v-413h159v413h108v-413h163v413h109v-490z" />
    <glyph glyph-name="afii10091" unicode="&#x449;" horiz-adv-x="781" 
d="M676 -140v140h-621v490h108v-413h159v413h108v-413h163v413h109v-413h59v-217h-85z" />
    <glyph glyph-name="afii10092" unicode="&#x44a;" horiz-adv-x="659" 
d="M306 489v-170h150q81 0 127.5 -45.5t46.5 -113.5q0 -72 -47 -116t-118 -44h-267v412h-184v77h292zM430 249h-124v-175h132q39 0 62 23.5t23 62.5q0 41 -26 65t-67 24z" />
    <glyph glyph-name="afii10093" unicode="&#x44b;" horiz-adv-x="700" 
d="M645 0h-109v489h109v-489zM287 249h-125v-174h132q39 0 62 23.5t23 61.5q0 41 -25.5 65t-66.5 24zM54 489h108v-170h150q80 0 127 -45.5t47 -113.5q0 -72 -46.5 -116t-117.5 -44h-268v489z" />
    <glyph glyph-name="afii10094" unicode="&#x44c;" horiz-adv-x="516" 
d="M287 249h-125v-174h132q39 0 62 23.5t23 61.5q0 41 -25.5 65t-66.5 24zM54 489h108v-170h150q80 0 127 -45.5t47 -113.5q0 -72 -46.5 -116t-117.5 -44h-268v489z" />
    <glyph glyph-name="afii10095" unicode="&#x44d;" horiz-adv-x="470" 
d="M127 227v65l187 -4q-8 135 -129 135q-60 0 -122 -18l-19 66q72 30 150 30q67 0 114 -20.5t71.5 -56.5t35 -75.5t10.5 -86.5q0 -54 -11.5 -100t-37.5 -85t-73 -61.5t-112 -22.5q-99 0 -171 40l23 65q81 -28 135 -28q66 0 101 45t36 115z" />
    <glyph glyph-name="afii10096" unicode="&#x44e;" horiz-adv-x="740" 
d="M162 0h-108v490h108v-200h90q11 92 66.5 151.5t157.5 59.5q58 0 101.5 -21t68.5 -58t37 -81.5t12 -96.5q0 -109 -55.5 -181t-172.5 -72q-108 0 -160 64t-57 168h-88v-223zM585 244q0 176 -109 176q-62 0 -89 -51t-27 -126q0 -38 4 -66t15.5 -53.5t36 -39t60.5 -13.5
q109 0 109 173z" />
    <glyph glyph-name="afii10097" unicode="&#x44f;" horiz-adv-x="528" 
d="M143 222v2q-81 27 -81 117q0 65 44.5 107t130.5 42h236v-490h-107v198h-83q-40 0 -62 -13.5t-36 -52.5l-44 -132h-110l47 140q22 65 65 82zM170 345q0 -77 90 -77h106v150h-105q-91 0 -91 -73z" />
    <glyph glyph-name="afii10071" unicode="&#x451;" horiz-adv-x="523" 
d="M270 501q210 0 210 -236v-39h-325q0 -151 132 -151q74 0 157 33l24 -68q-87 -47 -194 -47q-67 0 -113.5 19.5t-71 55.5t-35 78.5t-10.5 97.5q0 32 5 64t20.5 68t39.5 62.5t65.5 44.5t95.5 18zM274 427q-107 0 -117 -141h222q0 141 -105 141zM220 615q0 -23 -15.5 -37.5
t-41.5 -14.5t-41 14.5t-15 37.5t15.5 37.5t39.5 14.5q27 0 42.5 -14.5t15.5 -37.5zM418 615q0 -23 -16 -37.5t-43 -14.5q-24 0 -38.5 14.5t-14.5 37.5t15 37.5t38 14.5q27 0 43 -14t16 -38z" />
    <glyph glyph-name="afii10099" unicode="&#x452;" horiz-adv-x="541" 
d="M5 544v51h52v118h109v-118h209v-51h-209l-1 -124q83 37 150 37q94 0 139.5 -60t45.5 -189q0 -54 -10.5 -95.5t-34.5 -75.5t-68.5 -52t-107.5 -18q-13 0 -21 1l2 75q71 2 101.5 37t30.5 130q0 166 -106 166q-53 0 -119 -33v-343h-110v544h-52z" />
    <glyph glyph-name="afii10100" unicode="&#x453;" horiz-adv-x="425" 
d="M162 0h-108v490h365v-79h-257v-411zM354 688l-158 -139l-42 40l134 166z" />
    <glyph glyph-name="afii10101" unicode="&#x454;" horiz-adv-x="476" 
d="M335 217l-180 3q7 -147 132 -147q61 0 137 28l24 -68q-73 -40 -175 -40q-229 0 -229 245q0 36 5.5 69.5t21 69.5t40.5 62.5t68 43.5t98 17q82 0 146 -25l-20 -73q-55 17 -111 17q-61 0 -96 -37.5t-41 -104.5q60 2 180 4v-64z" />
    <glyph glyph-name="afii10102" unicode="&#x455;" horiz-adv-x="466" 
d="M245 500q95 0 158 -36q-3 -7 -14 -35.5t-14 -35.5q-66 26 -129 26q-37 0 -61.5 -15t-24.5 -47q0 -17 18 -31t33.5 -19.5t44.5 -14.5l51 -15.5t44.5 -18.5t42.5 -28t24.5 -38.5t11.5 -55.5q0 -71 -55 -107t-154 -36q-112 0 -186 39l29 71q80 -33 159 -33q99 0 99 67
q0 29 -21.5 43.5t-67.5 29.5l-9 3q-91 30 -119 49q-51 34 -51 96q0 69 51.5 105.5t139.5 36.5z" />
    <glyph glyph-name="afii10103" unicode="&#x456;" horiz-adv-x="274" 
d="M190 0h-109v489h109v-489zM204 621q0 -26 -19 -44.5t-49 -18.5q-29 0 -47.5 18.5t-18.5 44.5q0 27 18.5 45.5t47.5 18.5q30 0 49 -18.5t19 -45.5z" />
    <glyph glyph-name="afii10104" unicode="&#x457;" horiz-adv-x="274" 
d="M190 0h-109v489h109v-489zM97 612q0 -23 -15.5 -37.5t-41.5 -14.5t-41 14.5t-15 37.5t15.5 37.5t39.5 14.5q27 0 42.5 -14.5t15.5 -37.5zM295 612q0 -23 -16 -37.5t-43 -14.5q-24 0 -38.5 14.5t-14.5 37.5t15 37.5t38 14.5q27 0 43 -14t16 -38z" />
    <glyph glyph-name="afii10105" unicode="&#x458;" horiz-adv-x="284" 
d="M89 32v457h109q0 -443 -1 -466q-3 -104 -46 -157.5t-151 -87.5q-4 8 -16 38t-15 36q75 42 97.5 76.5t22.5 103.5zM212 621q0 -27 -18.5 -45t-48.5 -18q-29 0 -47.5 18t-18.5 45t18.5 45.5t47.5 18.5q30 0 48.5 -18.5t18.5 -45.5z" />
    <glyph glyph-name="afii10106" unicode="&#x459;" horiz-adv-x="801" 
d="M572 249h-124v-173h132q39 0 62 23.5t23 61.5q0 41 -26 64.5t-67 23.5zM448 490v-169h150q80 0 127 -46.5t47 -113.5q0 -72 -46.5 -116.5t-117.5 -44.5h-267v412h-130l-3 -54q-10 -174 -23 -230q-26 -105 -105 -141q-22 -10 -50 -16l-29 73q72 27 88.5 83.5t24.5 235.5
l6 127h328z" />
    <glyph glyph-name="afii10107" unicode="&#x45a;" horiz-adv-x="805" 
d="M455 490v-181h141q82 0 131 -40.5t49 -112.5q0 -71 -46 -113.5t-116 -42.5h-266v234h-185v-234h-108l-1 490h109v-182h185l-1 182h108zM578 237h-123v-161h130q38 0 61 20.5t23 58.5q0 40 -25 61t-66 21z" />
    <glyph glyph-name="afii10108" unicode="&#x45b;" horiz-adv-x="557" 
d="M502 0h-109v284q0 50 -14.5 75t-63.5 25q-59 0 -133 -43v-341h-109v550h-68v53h68v110h108v-110h181v-53h-182v-136q99 57 175 57q38 0 66 -9.5t43.5 -24t24 -37.5t11 -43.5t2.5 -48.5v-308z" />
    <glyph glyph-name="afii10109" unicode="&#x45c;" horiz-adv-x="522" 
d="M160 0h-106v489h106v-192h80q71 0 91 69l37 122h101l-38 -135q-19 -68 -70 -90v-1q64 -21 85 -88q3 -9 52 -174h-106q-8 28 -47 154v-1q-24 72 -102 72h-83v-225zM399 673l-158 -139l-42 40l134 166z" />
    <glyph glyph-name="afii10110" unicode="&#x45e;" horiz-adv-x="494" 
d="M248 68l27 94l52 172.5l47 154.5h109l-195 -579q-39 -125 -159 -125q-46 0 -107 17l16 74q50 -10 76 -10q32 0 50 14t30 51l8 24.5l9 27.5t8 23h-51l-48 153.5l-56 178l-48 151.5h109l94 -329q7 -25 23 -92h6zM253 549q-88 0 -173 121l53 39q62 -84 123 -84q67 0 147 77
l34 -31q-81 -122 -184 -122z" />
    <glyph glyph-name="afii10193" unicode="&#x45f;" horiz-adv-x="540" 
d="M226 -148v148h-172v489h109v-412h213v412h109v-489h-171v-148h-88z" />
    <glyph glyph-name="afii10146" unicode="&#x462;" horiz-adv-x="615" 
d="M18 513v69h58v104h114v-104h178v-69h-178v-104h154q107 0 169 -57t62 -149q0 -98 -59.5 -150.5t-155.5 -52.5h-284v513h-58zM327 331h-137v-252h146q53 0 87.5 32.5t34.5 92.5q0 63 -38.5 95t-92.5 32z" />
    <glyph glyph-name="afii10194" unicode="&#x463;" horiz-adv-x="516" 
d="M3 474v69h51v170h108v-170h197v-69h-197v-155h151q79 0 126 -45.5t47 -113.5q0 -71 -46.5 -115.5t-117.5 -44.5h-268v474h-51zM287 249h-125v-174h132q39 0 62 23.5t23 61.5q0 41 -25.5 65t-66.5 24z" />
    <glyph glyph-name="afii10147" unicode="&#x472;" horiz-adv-x="706" 
d="M222 316v80h260v-80h-260zM658 342q0 -156 -78.5 -253.5t-222.5 -97.5q-158 0 -233.5 92t-75.5 256q0 75 17.5 138t53.5 113t96.5 78.5t141.5 28.5t141 -28.5t94 -79t50 -112t16 -135.5zM539 339q0 276 -182 276q-190 0 -190 -277q0 -131 45 -197t145 -66q90 0 136 73
t46 191z" />
    <glyph glyph-name="afii10195" unicode="&#x473;" horiz-adv-x="550" 
d="M506 244q0 -51 -12.5 -94.5t-38.5 -80t-73.5 -57.5t-111.5 -21q-119 0 -172.5 69.5t-53.5 182.5q0 70 22.5 126t76.5 93.5t135 37.5q62 0 107.5 -21t71 -58t37.5 -81t12 -96zM278 71q107 0 113 148h-234q3 -70 29.5 -109t91.5 -39zM278 420q-104 0 -119 -135h231
q-12 135 -112 135z" />
    <glyph glyph-name="uni048C" unicode="&#x48c;" horiz-adv-x="615" 
d="M18 513v69h58v104h114v-104h178v-69h-178v-104h154q107 0 169 -57t62 -149q0 -98 -59.5 -150.5t-155.5 -52.5h-284v513h-58zM327 331h-137v-252h146q53 0 87.5 32.5t34.5 92.5q0 63 -38.5 95t-92.5 32z" />
    <glyph glyph-name="uni048D" unicode="&#x48d;" horiz-adv-x="516" 
d="M3 474v69h51v170h108v-170h197v-69h-197v-155h151q79 0 126 -45.5t47 -113.5q0 -71 -46.5 -115.5t-117.5 -44.5h-268v474h-51zM287 249h-125v-174h132q39 0 62 23.5t23 61.5q0 41 -25.5 65t-66.5 24z" />
    <glyph glyph-name="afii10050" unicode="&#x490;" horiz-adv-x="545" 
d="M191 0h-113v686h364v129h82l1 -209h-334v-606z" />
    <glyph glyph-name="afii10098" unicode="&#x491;" horiz-adv-x="437" 
d="M162 0h-108v490h287v109h77v-186h-256v-413z" />
    <glyph glyph-name="uni0492" unicode="&#x492;" horiz-adv-x="552" 
d="M190 0h-114v312h-72v80h72v293h440v-82h-326v-211h263v-80h-263v-312z" />
    <glyph glyph-name="uni0493" unicode="&#x493;" horiz-adv-x="427" 
d="M2 205v70h54v214h365v-78h-257v-136h180v-70h-180v-205h-108v205h-54z" />
    <glyph glyph-name="uni0496" unicode="&#x496;" horiz-adv-x="955" 
d="M532 0h-112v320h-90q-103 0 -132 -105l-59 -215h-110l62 239q29 110 117 126q-72 26 -98 128l-47 191h106q12 -43 46 -175q26 -102 119 -102h86v278h112v-278h88q92 0 118 102l46 175h105l-46 -191q-27 -102 -98 -128q88 -16 117 -126l41 -160h44v-250h-86v171h-47
l-58 215q-31 105 -132 105h-92v-320z" />
    <glyph glyph-name="uni0497" unicode="&#x497;" horiz-adv-x="787" 
d="M446 0h-107v225h-62q-79 0 -103 -72v1q-15 -52 -47 -154h-106q14 44 52 174q23 68 86 88v1q-52 24 -71 90q-17 66 -38 135h102l36 -122q21 -69 92 -69h59v192h107v-192h60q72 0 91 69l37 122h101l-37 -135q-21 -68 -71 -90v-1q36 -11 55.5 -32.5t29.5 -55.5l29 -97h44
v-215h-85v138h-41l-48 154v-1q-14 42 -39.5 57t-62.5 15h-63v-225z" />
    <glyph glyph-name="uni049A" unicode="&#x49a;" horiz-adv-x="620" 
d="M188 0h-112v685h112v-278h104q93 0 119 102l45 175h108l-46 -191q-24 -101 -98 -128q88 -16 117 -126l41 -160h41v-250h-86v171h-46l-59 215q-16 59 -44 82t-83 23h-113v-320z" />
    <glyph glyph-name="uni049B" unicode="&#x49b;" horiz-adv-x="522" 
d="M160 0h-106v489h106v-192h80q71 0 91 69l37 122h101l-38 -135q-19 -68 -70 -90v-1q64 -21 85 -88l29 -97h44v-215h-86v138h-41q-8 28 -47 154v-1q-24 72 -102 72h-83v-225z" />
    <glyph glyph-name="uni049C" unicode="&#x49c;" horiz-adv-x="625" 
d="M76 686h113v-278h56v104h67v-104q80 6 105 101l45 175h108l-46 -191q-24 -98 -94 -126v-3q87 -26 112 -124l63 -240h-113l-58 216q-27 98 -122 104v-119h-67v119h-56v-320h-113v686z" />
    <glyph glyph-name="uni049D" unicode="&#x49d;" horiz-adv-x="528" 
d="M54 490h107v-192h44v94h67v-92q49 11 65 67l36 122h102l-38 -136q-19 -66 -69 -89v-2q63 -21 84 -88l52 -174h-106l-47 153q-19 62 -79 71v-100h-67v102h-44v-226h-107v490z" />
    <glyph glyph-name="uni04A0" unicode="&#x4a0;" horiz-adv-x="663" 
d="M232 0h-112v601h-118v84h230v-278h103q93 0 119 101l46 175h108l-47 -191q-24 -99 -94 -126l-1 -1v-1q88 -22 114 -125l62 -239h-112l-58 215q-29 105 -131 105h-109v-320z" />
    <glyph glyph-name="uni04A1" unicode="&#x4a1;" horiz-adv-x="567" 
d="M3 413v76h202v-192h80q70 0 91 70l37 122h101l-37 -136q-19 -65 -71 -91q64 -19 85 -88l53 -174h-107l-47 154q-21 71 -102 71h-83v-225h-106v413h-96z" />
    <glyph glyph-name="uni04A2" unicode="&#x4a2;" horiz-adv-x="680" 
d="M648 -171h-86v171h-76v317h-296q0 -53 0.5 -159t0.5 -158h-115v685h115q0 -47 -0.5 -141t-0.5 -141h296v282h115v-606h47v-250z" />
    <glyph glyph-name="uni04A3" unicode="&#x4a3;" horiz-adv-x="545" 
d="M438 -138v138h-62v221h-213v-221h-109v489h110v-190h212v190h109v-412h39v-215h-86z" />
    <glyph glyph-name="uni04B0" unicode="&#x4b0;" horiz-adv-x="576" 
d="M225 0v224h-144v77h134l-206 385h118l40.5 -79.5l49.5 -99.5l66 -138h5q12 23 35.5 72t35.5 72l91 173h116l-213 -385h142v-77h-150v-224h-120z" />
    <glyph glyph-name="uni04B1" unicode="&#x4b1;" horiz-adv-x="503" 
d="M456 0v-70h-153v-138h-108v138h-154v70h139l-171 488h113l78 -239q26 -78 50 -171h6q13 58 50 173l77 237h111l-175 -488h137z" />
    <glyph glyph-name="uni04B2" unicode="&#x4b2;" horiz-adv-x="597" 
d="M230 356l-207 329h128l151 -259l153 259h127l-215 -332l171 -274h53v-250h-86v171h-43l-88 147.5l-79 131.5l-162 -279h-126z" />
    <glyph glyph-name="uni04B3" unicode="&#x4b3;" horiz-adv-x="472" 
d="M346 0l-50.5 88.5t-61.5 104.5l-56.5 -96.5l-56.5 -96.5h-117l166 255l-81 124l-71 110h121l44.5 -79.5t53.5 -91.5l50 85.5l50 85.5h118l-155 -232l116 -180h52v-215h-86v138h-36z" />
    <glyph glyph-name="uni04B6" unicode="&#x4b6;" horiz-adv-x="636" 
d="M557 684v-605h47v-250h-86v171h-73v293q-92 -29 -178 -29q-98 0 -158.5 40.5t-60.5 126.5v253h115v-228q0 -57 31.5 -81.5t91.5 -24.5q86 0 159 29v305h112z" />
    <glyph glyph-name="uni04B7" unicode="&#x4b7;" horiz-adv-x="518" 
d="M410 -138v138h-62v207q-67 -34 -158 -34q-46 0 -78 12.5t-47.5 36t-21.5 49.5t-6 61v157h110v-135q0 -52 16 -74.5t61 -22.5q70 0 124 27v206h109v-413h39v-215h-86z" />
    <glyph glyph-name="uni04B8" unicode="&#x4b8;" horiz-adv-x="635" 
d="M557 684v-684h-112v293q-58 -18 -113 -25v-129h-67v125q-98 0 -157.5 40.5t-59.5 126.5v253h115v-228q0 -99 102 -105v131h67v-130q64 8 113 27v305h112z" />
    <glyph glyph-name="uni04B9" unicode="&#x4b9;" horiz-adv-x="520" 
d="M465 0h-110v207q-29 -14 -73 -25v-108h-66v99h-22q-88 0 -122.5 43t-34.5 116v157h110v-136q0 -48 13.5 -70.5t55.5 -25.5v110h66v-105q37 6 73 23v205h110v-490z" />
    <glyph glyph-name="uni04D8" unicode="&#x4d8;" horiz-adv-x="708" 
d="M345 75q170 0 185 224h-358q2 -224 173 -224zM108 560l-25 73q128 64 266 64q64 0 116.5 -18.5t95 -57.5t66.5 -108.5t24 -163.5q0 -45 -7 -89t-27.5 -94t-53.5 -87.5t-90 -62t-131 -24.5q-55 0 -99 13t-73 34t-50.5 51t-33 58.5t-18.5 63t-8.5 58.5t-1.5 50v54h473
q-5 128 -55 184t-140 56q-103 0 -228 -54z" />
    <glyph glyph-name="schwacyrillic" unicode="&#x4d9;" horiz-adv-x="507" 
d="M248 71q106 0 115 142h-218q0 -69 23 -105.5t80 -36.5zM248 -7q-45 0 -80.5 12t-57 33.5t-35.5 44.5t-20.5 52.5t-8.5 50t-2 43.5v36h320q2 156 -129 156q-72 0 -153 -33l-23 66q88 47 190 47q66 0 111.5 -19.5t69.5 -56t33.5 -78.5t9.5 -97q0 -33 -5 -64.5t-20 -67.5
t-39 -63t-65.5 -44.5t-95.5 -17.5z" />
    <glyph glyph-name="Wgrave" unicode="&#x1e80;" horiz-adv-x="885" 
d="M438 532l-7 1q-6 -28 -32 -161q-8 -31 -83 -372h-140l-167 686h119l42 -189l43 -193q2 -8 15 -74l20 -99h6l33 163l43.5 195t43.5 197h121l28 -108l46 -178l26 -100q2 -6 10.5 -41l18.5 -76t12 -51h7l20.5 103.5t14.5 75.5q76 349 82 375h116l-166 -686h-137l-97 372
l-17.5 77t-20.5 83zM457 730l-157 139l66 66l135 -164z" />
    <glyph glyph-name="wgrave" unicode="&#x1e81;" horiz-adv-x="765" 
d="M542 96h6l33 148l63 246h108l-140 -490h-124l-65 219l-43 167h-6l-40 -167l-59 -219h-124l-139 490h109l62 -241l35 -153h5l37 158l65 236h105l73 -245zM397 533l-159 138l69 71l135 -164z" />
    <glyph glyph-name="Wacute" unicode="&#x1e82;" horiz-adv-x="885" 
d="M438 532l-7 1q-6 -28 -32 -161q-8 -31 -83 -372h-140l-167 686h119l42 -189l43 -193q2 -8 15 -74l20 -99h6l33 163l43.5 195t43.5 197h121l28 -108l46 -178l26 -100q2 -6 10.5 -41l18.5 -76t12 -51h7l20.5 103.5t14.5 75.5q76 349 82 375h116l-166 -686h-137l-97 372
l-17.5 77t-20.5 83zM603 868l-159 -139l-42 39l134 165z" />
    <glyph glyph-name="wacute" unicode="&#x1e83;" horiz-adv-x="765" 
d="M542 96h6l33 148l63 246h108l-140 -490h-124l-65 219l-43 167h-6l-40 -167l-59 -219h-124l-139 490h109l62 -241l35 -153h5l37 158l65 236h105l73 -245zM538 673l-158 -139l-42 40l134 166z" />
    <glyph glyph-name="Wdieresis" unicode="&#x1e84;" horiz-adv-x="885" 
d="M438 532l-7 1q-6 -28 -32 -161q-8 -31 -83 -372h-140l-167 686h119l42 -189l43 -193q2 -8 15 -74l20 -99h6l33 163l43.5 195t43.5 197h121l28 -108l46 -178l26 -100q2 -6 10.5 -41l18.5 -76t12 -51h7l20.5 103.5t14.5 75.5q76 349 82 375h116l-166 -686h-137l-97 372
l-17.5 77t-20.5 83zM391 780q0 -23 -15.5 -37.5t-40.5 -14.5q-26 0 -41 14t-15 38q0 22 15 37t39 15q27 0 42.5 -14.5t15.5 -37.5zM586 780q0 -23 -16 -37.5t-43 -14.5q-24 0 -38 14.5t-14 37.5q0 22 14.5 37t37.5 15q27 0 43 -14.5t16 -37.5z" />
    <glyph glyph-name="wdieresis" unicode="&#x1e85;" horiz-adv-x="765" 
d="M542 96h6l33 148l63 246h108l-140 -490h-124l-65 219l-43 167h-6l-40 -167l-59 -219h-124l-139 490h109l62 -241l35 -153h5l37 158l65 236h105l73 -245zM333 599q0 -23 -15.5 -37.5t-41.5 -14.5t-41 14.5t-15 37.5t15.5 37.5t39.5 14.5q27 0 42.5 -14.5t15.5 -37.5z
M531 599q0 -23 -16 -37.5t-43 -14.5q-24 0 -38.5 14.5t-14.5 37.5t15 37.5t38 14.5q27 0 43 -14t16 -38z" />
    <glyph glyph-name="uni1E9E" unicode="&#x1e9e;" horiz-adv-x="636" 
d="M234 12l21 79q52 -16 99 -16q59 0 92 34.5t33 95.5q0 62 -39.5 94.5t-95.5 32.5h-61v65l144 170q-47 47 -107 47q-63 0 -96 -45.5t-33 -128.5v-440h-115v440q0 115 63.5 186t178.5 71q137 0 222 -111l-156 -180q100 -4 156 -61t56 -142q0 -93 -59 -152t-170 -59
q-68 0 -133 20z" />
    <glyph glyph-name="Ygrave" unicode="&#x1ef2;" horiz-adv-x="576" 
d="M225 0v283l-216 403h118l40.5 -79.5l49.5 -99.5l66 -138h5q12 23 35.5 72t35.5 72l91 173h116l-221 -399v-287h-120zM306 723l-157 139l66 66l135 -164z" />
    <glyph glyph-name="ygrave" unicode="&#x1ef3;" horiz-adv-x="494" 
d="M248 68l27 94l52 172.5l47 154.5h109l-195 -579q-39 -125 -159 -125q-46 0 -107 17l16 74q50 -10 76 -10q32 0 50 14t30 51l8 24.5l9 27.5t8 23h-51l-48 153.5l-56 178l-48 151.5h109l94 -329q7 -25 23 -92h6zM266 532l-159 138l69 71l135 -164z" />
    <glyph glyph-name="uni1F00" unicode="&#x1f00;" horiz-adv-x="572" 
d="M372 124v248q-18 17 -49.5 30.5t-57.5 13.5q-61 0 -90 -48t-29 -122q0 -174 104 -174q61 0 122 52zM378 46l-5 1q-68 -55 -159 -55q-97 0 -137.5 65t-40.5 185q0 105 51 178.5t153 73.5q81 0 141 -49l19 44h80v-413h57l5 -65q-37 -15 -76 -17q-39 0 -59 10.5t-29 41.5z
M235 769l15 8q89 -24 89 -100q0 -28 -21 -63t-59 -60l-25 28q14 14 24.5 34.5t10.5 33.5q0 40 -56 49z" />
    <glyph glyph-name="uni1F01" unicode="&#x1f01;" horiz-adv-x="572" 
d="M372 124v248q-18 17 -49.5 30.5t-57.5 13.5q-61 0 -90 -48t-29 -122q0 -174 104 -174q61 0 122 52zM378 46l-5 1q-68 -55 -159 -55q-97 0 -137.5 65t-40.5 185q0 105 51 178.5t153 73.5q81 0 141 -49l19 44h80v-413h57l5 -65q-37 -15 -76 -17q-39 0 -59 10.5t-29 41.5z
M293 777l15 -8l23 -70q-56 -9 -56 -49q0 -13 10 -33.5t24 -34.5l-24 -28q-38 26 -59.5 61t-21.5 62q0 76 89 100z" />
    <glyph glyph-name="uni1F02" unicode="&#x1f02;" horiz-adv-x="572" 
d="M372 124v248q-18 17 -49.5 30.5t-57.5 13.5q-61 0 -90 -48t-29 -122q0 -174 104 -174q61 0 122 52zM378 46l-5 1q-68 -55 -159 -55q-97 0 -137.5 65t-40.5 185q0 105 51 178.5t153 73.5q81 0 141 -49l19 44h80v-413h57l5 -65q-37 -15 -76 -17q-39 0 -59 10.5t-29 41.5z
M143 776l15 9q89 -24 89 -102q0 -26 -21.5 -61t-58.5 -61l-25 29q32 34 32 67q0 41 -54 48zM362 565l-113 187l82 37l77 -203z" />
    <glyph glyph-name="uni1F03" unicode="&#x1f03;" horiz-adv-x="572" 
d="M378 46l-5 1q-68 -55 -159 -55q-97 0 -137.5 65t-40.5 185q0 105 51 178.5t153 73.5q81 0 141 -49l19 44h80v-413h57l5 -65q-37 -15 -76 -17q-39 0 -59 10.5t-29 41.5zM372 124v248q-18 17 -49.5 30.5t-57.5 13.5q-61 0 -90 -48t-29 -122q0 -174 104 -174q61 0 122 52z
M233 784q2 -1 7 -4t7 -4l23 -71q-54 -8 -54 -48q0 -14 10 -35t23 -34l-25 -27q-37 25 -59 60.5t-22 61.5q0 77 90 101zM419 585q-16 -7 -48 -19l-50 103l-46 93l85 32q54 -193 59 -209z" />
    <glyph glyph-name="uni1F04" unicode="&#x1f04;" horiz-adv-x="572" 
d="M372 124v248q-18 17 -49.5 30.5t-57.5 13.5q-61 0 -90 -48t-29 -122q0 -174 104 -174q61 0 122 52zM378 46l-5 1q-68 -55 -159 -55q-97 0 -137.5 65t-40.5 185q0 105 51 178.5t153 73.5q81 0 141 -49l19 44h80v-413h57l5 -65q-37 -15 -76 -17q-39 0 -59 10.5t-29 41.5z
M175 776l15 9q89 -24 89 -102q0 -26 -21.5 -61t-58.5 -61l-25 29q33 35 33 67q0 41 -55 48zM441 747l-113 -187l-46 21l77 203z" />
    <glyph glyph-name="uni1F05" unicode="&#x1f05;" horiz-adv-x="572" 
d="M378 46l-5 1q-68 -55 -159 -55q-97 0 -137.5 65t-40.5 185q0 105 51 178.5t153 73.5q81 0 141 -49l19 44h80v-413h57l5 -65q-37 -15 -76 -17q-39 0 -59 10.5t-29 41.5zM372 124v248q-18 17 -49.5 30.5t-57.5 13.5q-61 0 -90 -48t-29 -122q0 -174 104 -174q61 0 122 52z
M245 784l14 -8l23 -71q-54 -8 -54 -48q0 -30 33 -69l-25 -27q-37 25 -59 60.5t-22 61.5q0 77 90 101zM287 580l77 203q15 -6 83 -38l-36 -59.5l-42 -68.5l-35 -59z" />
    <glyph glyph-name="uni1F06" unicode="&#x1f06;" horiz-adv-x="572" 
d="M372 124v248q-18 17 -49.5 30.5t-57.5 13.5q-61 0 -90 -48t-29 -122q0 -174 104 -174q61 0 122 52zM378 46l-5 1q-68 -55 -159 -55q-97 0 -137.5 65t-40.5 185q0 105 51 178.5t153 73.5q81 0 141 -49l19 44h80v-413h57l5 -65q-37 -15 -76 -17q-39 0 -59 10.5t-29 41.5z
M356 730q-36 0 -94 19t-75 19l-59 -39l-34 29q36 77 99 77q29 0 87 -19t79 -19l59 40l33 -24q-29 -83 -95 -83zM237 715l15 7q88 -20 88 -79q0 -49 -79 -88l-25 24q31 28 31 43q0 31 -51 36z" />
    <glyph glyph-name="uni1F07" unicode="&#x1f07;" horiz-adv-x="572" 
d="M372 124v248q-18 17 -49.5 30.5t-57.5 13.5q-61 0 -90 -48t-29 -122q0 -174 104 -174q61 0 122 52zM378 46l-5 1q-68 -55 -159 -55q-97 0 -137.5 65t-40.5 185q0 105 51 178.5t153 73.5q81 0 141 -49l19 44h80v-413h57l5 -65q-37 -15 -76 -17q-39 0 -59 10.5t-29 41.5z
M368 730q-37 0 -94.5 19t-74.5 19l-59 -39l-34 29q36 77 99 77q29 0 87 -19t79 -19l59 40l33 -24q-29 -83 -95 -83zM303 720l14 -7l22 -55q-52 -7 -52 -35q0 -17 32 -44l-26 -24q-81 43 -81 88q0 60 91 77z" />
    <glyph glyph-name="uni1F08" unicode="&#x1f08;" horiz-adv-x="617" 
d="M607 0h-117l-29 92.5l-24 76.5h-261l-53 -169h-114l116.5 346.5l113.5 339.5h143zM413 250l-48 162l-55 187h-4l-53 -183q-1 -4 -24.5 -81t-26.5 -85h211zM4 700l15 8q89 -24 89 -100q0 -28 -21 -63t-59 -60l-25 28q14 14 24.5 34.5t10.5 33.5q0 40 -56 49z" />
    <glyph glyph-name="uni1F09" unicode="&#x1f09;" horiz-adv-x="617" 
d="M607 0h-117l-29 92.5l-24 76.5h-261l-53 -169h-114l116.5 346.5l113.5 339.5h143zM413 250l-48 162l-55 187h-4l-53 -183q-1 -4 -24.5 -81t-26.5 -85h211zM71 701l15 -8l23 -70q-56 -9 -56 -49q0 -13 10 -33.5t24 -34.5l-24 -28q-38 26 -59.5 61t-21.5 62q0 76 89 100z
" />
    <glyph glyph-name="uni1F0A" unicode="&#x1f0a;" horiz-adv-x="617" 
d="M607 0h-117l-29 92.5l-24 76.5h-261l-53 -169h-114l116.5 346.5l113.5 339.5h143zM413 250l-48 162l-55 187h-4l-53 -183q-1 -4 -24.5 -81t-26.5 -85h211zM-127 691l15 9q89 -24 89 -102q0 -26 -21.5 -61t-58.5 -61l-25 29q32 34 32 67q0 41 -54 48zM92 480l-113 187
l82 37l77 -203z" />
    <glyph glyph-name="uni1F0B" unicode="&#x1f0b;" horiz-adv-x="617" 
d="M607 0h-117l-29 92.5l-24 76.5h-261l-53 -169h-114l116.5 346.5l113.5 339.5h143zM413 250l-48 162l-55 187h-4l-53 -183q-1 -4 -24.5 -81t-26.5 -85h211zM-53 698q3 -1 7.5 -4t6.5 -4l23 -71q-54 -8 -54 -48q0 -14 10 -35t23 -34l-25 -27q-37 25 -59 60.5t-22 61.5
q0 77 90 101zM133 499q-16 -7 -48 -19l-50 103l-46 93l85 32q55 -193 59 -209z" />
    <glyph glyph-name="uni1F0C" unicode="&#x1f0c;" horiz-adv-x="617" 
d="M607 0h-117l-29 92.5l-24 76.5h-261l-53 -169h-114l116.5 346.5l113.5 339.5h143zM413 250l-48 162l-55 187h-4l-53 -183q-1 -4 -24.5 -81t-26.5 -85h211zM-111 690l15 9q89 -24 89 -102q0 -26 -21.5 -61t-58.5 -61l-25 29q33 35 33 67q0 41 -55 48zM155 661l-113 -187
l-46 21l77 203z" />
    <glyph glyph-name="uni1F0D" unicode="&#x1f0d;" horiz-adv-x="617" 
d="M607 0h-117l-29 92.5l-24 76.5h-261l-53 -169h-114l116.5 346.5l113.5 339.5h143zM413 250l-48 162l-55 187h-4l-53 -183q-1 -4 -24.5 -81t-26.5 -85h211zM-44 699l14 -8l23 -71q-54 -8 -54 -48q0 -30 33 -69l-25 -27q-37 25 -59 60.5t-22 61.5q0 77 90 101zM-2 495
l77 203q15 -6 83 -38l-36 -59.5l-42 -68.5l-35 -59z" />
    <glyph glyph-name="uni1F0E" unicode="&#x1f0e;" horiz-adv-x="617" 
d="M607 0h-117l-29 92.5l-24 76.5h-261l-53 -169h-114l116.5 346.5l113.5 339.5h143zM413 250l-48 162l-55 187h-4l-53 -183q-1 -4 -24.5 -81t-26.5 -85h211zM77 591q-36 0 -94 19t-75 19l-59 -39l-34 29q36 77 99 77q29 0 87 -19t79 -19l59 40l33 -24q-29 -83 -95 -83z
M-42 576l15 7q88 -20 88 -79q0 -49 -79 -88l-25 24q31 28 31 43q0 31 -51 36z" />
    <glyph glyph-name="uni1F0F" unicode="&#x1f0f;" horiz-adv-x="617" 
d="M607 0h-117l-29 92.5l-24 76.5h-261l-53 -169h-114l116.5 346.5l113.5 339.5h143zM413 250l-48 162l-55 187h-4l-53 -183q-1 -4 -24.5 -81t-26.5 -85h211zM81 592q-37 0 -94.5 19t-74.5 19l-59 -39l-34 29q36 77 99 77q29 0 87 -19t79 -19l59 40l33 -24q-29 -83 -95 -83z
M16 582l14 -7l22 -55q-52 -7 -52 -35q0 -17 32 -44l-26 -24q-81 43 -81 88q0 60 91 77z" />
    <glyph glyph-name="uni1F10" unicode="&#x1f10;" horiz-adv-x="451" 
d="M124 258l1 4q-34 11 -57 36t-23 60q0 65 53.5 104.5t141.5 39.5q102 0 169 -27l-22 -69q-71 22 -134 22q-49 0 -73 -19.5t-24 -49.5q0 -38 24.5 -50.5t65.5 -12.5h66v-68h-67q-38 0 -67 -18t-29 -60t32 -62t86 -20q66 0 146 33l22 -65q-84 -45 -188 -45
q-95 0 -152.5 36.5t-57.5 110.5q0 42 24.5 74.5t62.5 45.5zM206 770l15 8q89 -24 89 -100q0 -28 -21 -63t-59 -60l-25 28q14 14 24.5 34.5t10.5 33.5q0 40 -56 49z" />
    <glyph glyph-name="uni1F11" unicode="&#x1f11;" horiz-adv-x="451" 
d="M124 258l1 4q-34 11 -57 36t-23 60q0 65 53.5 104.5t141.5 39.5q102 0 169 -27l-22 -69q-71 22 -134 22q-49 0 -73 -19.5t-24 -49.5q0 -38 24.5 -50.5t65.5 -12.5h66v-68h-67q-38 0 -67 -18t-29 -60t32 -62t86 -20q66 0 146 33l22 -65q-84 -45 -188 -45
q-95 0 -152.5 36.5t-57.5 110.5q0 42 24.5 74.5t62.5 45.5zM259 777l15 -8l23 -70q-56 -9 -56 -49q0 -13 10 -33.5t24 -34.5l-24 -28q-38 26 -59.5 61t-21.5 62q0 76 89 100z" />
    <glyph glyph-name="uni1F12" unicode="&#x1f12;" horiz-adv-x="451" 
d="M124 258l1 4q-34 11 -57 36t-23 60q0 65 53.5 104.5t141.5 39.5q102 0 169 -27l-22 -69q-71 22 -134 22q-49 0 -73 -19.5t-24 -49.5q0 -38 24.5 -50.5t65.5 -12.5h66v-68h-67q-38 0 -67 -18t-29 -60t32 -62t86 -20q66 0 146 33l22 -65q-84 -45 -188 -45
q-95 0 -152.5 36.5t-57.5 110.5q0 42 24.5 74.5t62.5 45.5zM128 775l15 9q89 -24 89 -102q0 -26 -21.5 -61t-58.5 -61l-25 29q32 34 32 67q0 41 -54 48zM347 564l-113 187l82 37l77 -203z" />
    <glyph glyph-name="uni1F13" unicode="&#x1f13;" horiz-adv-x="451" 
d="M124 258l1 4q-34 11 -57 36t-23 60q0 65 53.5 104.5t141.5 39.5q102 0 169 -27l-22 -69q-71 22 -134 22q-49 0 -73 -19.5t-24 -49.5q0 -38 24.5 -50.5t65.5 -12.5h66v-68h-67q-38 0 -67 -18t-29 -60t32 -62t86 -20q66 0 146 33l22 -65q-84 -45 -188 -45
q-95 0 -152.5 36.5t-57.5 110.5q0 42 24.5 74.5t62.5 45.5zM197 783q3 -1 7.5 -4t6.5 -4l23 -71q-54 -8 -54 -48q0 -14 10 -35t23 -34l-25 -27q-37 25 -59 60.5t-22 61.5q0 77 90 101zM383 584q-16 -7 -48 -19l-50 103l-46 93l85 32q55 -193 59 -209z" />
    <glyph glyph-name="uni1F14" unicode="&#x1f14;" horiz-adv-x="451" 
d="M124 258l1 4q-34 11 -57 36t-23 60q0 65 53.5 104.5t141.5 39.5q102 0 169 -27l-22 -69q-71 22 -134 22q-49 0 -73 -19.5t-24 -49.5q0 -38 24.5 -50.5t65.5 -12.5h66v-68h-67q-38 0 -67 -18t-29 -60t32 -62t86 -20q66 0 146 33l22 -65q-84 -45 -188 -45
q-95 0 -152.5 36.5t-57.5 110.5q0 42 24.5 74.5t62.5 45.5zM138 775l15 9q89 -24 89 -102q0 -26 -21.5 -61t-58.5 -61l-25 29q33 35 33 67q0 41 -55 48zM404 746l-113 -187l-46 21l77 203z" />
    <glyph glyph-name="uni1F15" unicode="&#x1f15;" horiz-adv-x="451" 
d="M124 258l1 4q-34 11 -57 36t-23 60q0 65 53.5 104.5t141.5 39.5q102 0 169 -27l-22 -69q-71 22 -134 22q-49 0 -73 -19.5t-24 -49.5q0 -38 24.5 -50.5t65.5 -12.5h66v-68h-67q-38 0 -67 -18t-29 -60t32 -62t86 -20q66 0 146 33l22 -65q-84 -45 -188 -45
q-95 0 -152.5 36.5t-57.5 110.5q0 42 24.5 74.5t62.5 45.5zM210 783l14 -8l23 -71q-54 -8 -54 -48q0 -30 33 -69l-25 -27q-37 25 -59 60.5t-22 61.5q0 77 90 101zM252 579l77 203q15 -6 83 -38l-36 -59.5l-42 -68.5l-35 -59z" />
    <glyph glyph-name="uni1F18" unicode="&#x1f18;" horiz-adv-x="583" 
d="M534 0h-458v686h443v-82h-329v-204h277v-78h-277v-239h344v-83zM-110 698l15 8q89 -24 89 -100q0 -28 -21 -63t-59 -60l-25 28q14 14 24.5 34.5t10.5 33.5q0 40 -56 49z" />
    <glyph glyph-name="uni1F19" unicode="&#x1f19;" horiz-adv-x="583" 
d="M534 0h-458v686h443v-82h-329v-204h277v-78h-277v-239h344v-83zM-38 701l15 -8l23 -70q-56 -9 -56 -49q0 -13 10.5 -33.5t23.5 -34.5l-24 -28q-38 26 -59.5 61t-21.5 62q0 76 89 100z" />
    <glyph glyph-name="uni1F1A" unicode="&#x1f1a;" horiz-adv-x="583" 
d="M534 0h-458v686h443v-82h-329v-204h277v-78h-277v-239h344v-83zM-242 697l15 9q89 -24 89 -102q0 -26 -21.5 -61t-58.5 -61l-25 29q32 34 32 67q0 41 -54 48zM-23 486l-113 187l82 37l77 -203z" />
    <glyph glyph-name="uni1F1B" unicode="&#x1f1b;" horiz-adv-x="583" 
d="M534 0h-458v686h443v-82h-329v-204h277v-78h-277v-239h344v-83zM-166 703q2 -1 6.5 -4t7.5 -4l23 -71q-54 -8 -54 -48q0 -14 10 -35t23 -34l-25 -27q-37 25 -59 60.5t-22 61.5q0 77 90 101zM20 504q-16 -7 -48 -19l-50 103l-46 93l85 32q54 -193 59 -209z" />
    <glyph glyph-name="uni1F1C" unicode="&#x1f1c;" horiz-adv-x="583" 
d="M534 0h-458v686h443v-82h-329v-204h277v-78h-277v-239h344v-83zM-261 695l15 9q89 -24 89 -102q0 -26 -21.5 -61t-58.5 -61l-25 29q33 35 33 67q0 41 -55 48zM5 666l-113 -187l-46 21l77 203z" />
    <glyph glyph-name="uni1F1D" unicode="&#x1f1d;" horiz-adv-x="583" 
d="M534 0h-458v686h443v-82h-329v-204h277v-78h-277v-239h344v-83zM-197 702l14 -8l23 -71q-54 -8 -54 -48q0 -30 33 -69l-25 -27q-37 25 -59 60.5t-22 61.5q0 77 90 101zM-155 498l77 203q15 -6 83 -38l-36 -59.5l-42 -68.5l-35 -59z" />
    <glyph glyph-name="uni1F20" unicode="&#x1f20;" horiz-adv-x="539" 
d="M483 0h-109v314q0 54 -15.5 77t-62.5 23q-58 0 -132 -43v-371h-110v489h105l1 -43l4 -2q89 57 171 57q38 0 66 -9.5t43.5 -24t24.5 -37t11.5 -43.5t2.5 -49v-338zM207 769l15 8q89 -24 89 -100q0 -28 -21 -63t-59 -60l-25 28q14 14 24.5 34.5t10.5 33.5q0 40 -56 49z" />
    <glyph glyph-name="uni1F21" unicode="&#x1f21;" horiz-adv-x="539" 
d="M483 0h-109v314q0 54 -15.5 77t-62.5 23q-58 0 -132 -43v-371h-110v489h105l1 -43l4 -2q89 57 171 57q38 0 66 -9.5t43.5 -24t24.5 -37t11.5 -43.5t2.5 -49v-338zM273 777l15 -8l23 -70q-56 -9 -56 -49q0 -13 10.5 -33.5t23.5 -34.5l-24 -28q-38 26 -59.5 61t-21.5 62
q0 76 89 100z" />
    <glyph glyph-name="uni1F22" unicode="&#x1f22;" horiz-adv-x="539" 
d="M483 0h-109v314q0 54 -15.5 77t-62.5 23q-58 0 -132 -43v-371h-110v489h105l1 -43l4 -2q89 57 171 57q38 0 66 -9.5t43.5 -24t24.5 -37t11.5 -43.5t2.5 -49v-338zM123 776l15 9q89 -24 89 -102q0 -26 -21.5 -61t-58.5 -61l-25 29q32 34 32 67q0 41 -54 48zM342 565
l-113 187l82 37l77 -203z" />
    <glyph glyph-name="uni1F23" unicode="&#x1f23;" horiz-adv-x="539" 
d="M483 0h-109v314q0 54 -15.5 77t-62.5 23q-58 0 -132 -43v-371h-110v489h105l1 -43l4 -2q89 57 171 57q38 0 66 -9.5t43.5 -24t24.5 -37t11.5 -43.5t2.5 -49v-338zM202 784q3 -1 7.5 -4t6.5 -4l23 -71q-54 -8 -54 -48q0 -14 10 -35t23 -34l-25 -27q-37 25 -59 60.5
t-22 61.5q0 77 90 101zM388 585q-16 -7 -48 -19l-50 103l-46 93l85 32q55 -193 59 -209z" />
    <glyph glyph-name="uni1F24" unicode="&#x1f24;" horiz-adv-x="539" 
d="M483 0h-109v314q0 54 -15.5 77t-62.5 23q-58 0 -132 -43v-371h-110v489h105l1 -43l4 -2q89 57 171 57q38 0 66 -9.5t43.5 -24t24.5 -37t11.5 -43.5t2.5 -49v-338zM146 776l15 9q89 -24 89 -102q0 -26 -21.5 -61t-58.5 -61l-25 29q33 35 33 67q0 41 -55 48zM412 747
l-113 -187l-46 21l77 203z" />
    <glyph glyph-name="uni1F25" unicode="&#x1f25;" horiz-adv-x="539" 
d="M483 0h-109v314q0 54 -15.5 77t-62.5 23q-58 0 -132 -43v-371h-110v489h105l1 -43l4 -2q89 57 171 57q38 0 66 -9.5t43.5 -24t24.5 -37t11.5 -43.5t2.5 -49v-338zM213 784l14 -8l23 -71q-54 -8 -54 -48q0 -30 33 -69l-25 -27q-37 25 -59 60.5t-22 61.5q0 77 90 101z
M255 580l77 203q15 -6 83 -38l-36 -59.5l-42 -68.5l-35 -59z" />
    <glyph glyph-name="uni1F26" unicode="&#x1f26;" horiz-adv-x="539" 
d="M483 0h-109v314q0 54 -15.5 77t-62.5 23q-58 0 -132 -43v-371h-110v489h105l1 -43l4 -2q89 57 171 57q38 0 66 -9.5t43.5 -24t24.5 -37t11.5 -43.5t2.5 -49v-338zM330 729q-36 0 -94 19t-75 19l-59 -39l-34 29q36 77 99 77q29 0 87 -19t79 -19l59 40l33 -24
q-29 -83 -95 -83zM211 714l15 7q88 -20 88 -79q0 -49 -79 -88l-25 24q31 28 31 43q0 31 -51 36z" />
    <glyph glyph-name="uni1F27" unicode="&#x1f27;" horiz-adv-x="539" 
d="M483 0h-109v314q0 54 -15.5 77t-62.5 23q-58 0 -132 -43v-371h-110v489h105l1 -43l4 -2q89 57 171 57q38 0 66 -9.5t43.5 -24t24.5 -37t11.5 -43.5t2.5 -49v-338zM336 728q-37 0 -94.5 19t-74.5 19l-59 -39l-34 29q36 77 99 77q29 0 87 -19t79 -19l59 40l33 -24
q-29 -83 -95 -83zM271 718l14 -7l22 -55q-52 -7 -52 -35q0 -17 32 -44l-26 -24q-81 43 -81 88q0 60 91 77z" />
    <glyph glyph-name="uni1F28" unicode="&#x1f28;" horiz-adv-x="679" 
d="M601 0h-115v317h-296q0 -53 0.5 -159t0.5 -158h-115v685h115q0 -47 -0.5 -141t-0.5 -141h296v282h115v-685zM-105 699l15 8q89 -24 89 -100q0 -28 -21 -63t-59 -60l-25 28q14 14 24.5 34.5t10.5 33.5q0 40 -56 49z" />
    <glyph glyph-name="uni1F29" unicode="&#x1f29;" horiz-adv-x="679" 
d="M601 0h-115v317h-296q0 -53 0.5 -159t0.5 -158h-115v685h115q0 -47 -0.5 -141t-0.5 -141h296v282h115v-685zM-38 701l15 -8l23 -70q-56 -9 -56 -49q0 -13 10.5 -33.5t23.5 -34.5l-24 -28q-38 26 -59.5 61t-21.5 62q0 76 89 100z" />
    <glyph glyph-name="uni1F2A" unicode="&#x1f2a;" horiz-adv-x="679" 
d="M601 0h-115v317h-296q0 -53 0.5 -159t0.5 -158h-115v685h115q0 -47 -0.5 -141t-0.5 -141h296v282h115v-685zM-242 691l15 9q89 -24 89 -102q0 -26 -21.5 -61t-58.5 -61l-25 29q32 34 32 67q0 41 -54 48zM-23 480l-113 187l82 37l77 -203z" />
    <glyph glyph-name="uni1F2B" unicode="&#x1f2b;" horiz-adv-x="679" 
d="M601 0h-115v317h-296q0 -53 0.5 -159t0.5 -158h-115v685h115q0 -47 -0.5 -141t-0.5 -141h296v282h115v-685zM-167 700q2 -1 7 -4t7 -4l23 -71q-54 -8 -54 -48q0 -14 10 -35t23 -34l-25 -27q-37 25 -59 60.5t-22 61.5q0 77 90 101zM19 501q-16 -7 -48 -19l-50 103l-46 93
l85 32q55 -193 59 -209z" />
    <glyph glyph-name="uni1F2C" unicode="&#x1f2c;" horiz-adv-x="679" 
d="M601 0h-115v317h-296q0 -53 0.5 -159t0.5 -158h-115v685h115q0 -47 -0.5 -141t-0.5 -141h296v282h115v-685zM-243 691l15 9q89 -24 89 -102q0 -26 -21.5 -61t-58.5 -61l-25 29q33 35 33 67q0 41 -55 48zM23 662l-113 -187l-46 21l77 203z" />
    <glyph glyph-name="uni1F2D" unicode="&#x1f2d;" horiz-adv-x="679" 
d="M601 0h-115v317h-296q0 -53 0.5 -159t0.5 -158h-115v685h115q0 -47 -0.5 -141t-0.5 -141h296v282h115v-685zM-182 699l14 -8l23 -71q-54 -8 -54 -48q0 -30 33 -69l-25 -27q-37 25 -59 60.5t-22 61.5q0 77 90 101zM-140 495l77 203q15 -6 83 -38l-36 -59.5l-42 -68.5
l-35 -59z" />
    <glyph glyph-name="uni1F2E" unicode="&#x1f2e;" horiz-adv-x="679" 
d="M601 0h-115v317h-296q0 -53 0.5 -159t0.5 -158h-115v685h115q0 -47 -0.5 -141t-0.5 -141h296v282h115v-685zM-65 591q-36 0 -94 19t-75 19l-59 -39l-34 29q36 77 99 77q29 0 87 -19t79 -19l59 40l33 -24q-29 -83 -95 -83zM-184 576l15 7q88 -20 88 -79q0 -49 -79 -88
l-25 24q31 28 31 43q0 31 -51 36z" />
    <glyph glyph-name="uni1F2F" unicode="&#x1f2f;" horiz-adv-x="679" 
d="M601 0h-115v317h-296q0 -53 0.5 -159t0.5 -158h-115v685h115q0 -47 -0.5 -141t-0.5 -141h296v282h115v-685zM-59 592q-37 0 -94.5 19t-74.5 19l-59 -39l-34 29q36 77 99 77q29 0 87 -19t79 -19l59 40l33 -24q-29 -83 -95 -83zM-124 582l14 -7l22 -55q-52 -7 -52 -35
q0 -17 32 -44l-26 -24q-81 43 -81 88q0 60 91 77z" />
    <glyph glyph-name="uni1F30" unicode="&#x1f30;" horiz-adv-x="267" 
d="M67 77v412h109v-411h60l3 -66q-41 -18 -84 -18q-45 0 -66.5 20t-21.5 63zM95 769l15 8q89 -24 89 -100q0 -28 -21 -63t-59 -60l-25 28q14 14 24.5 34.5t10.5 33.5q0 40 -56 49z" />
    <glyph glyph-name="uni1F31" unicode="&#x1f31;" horiz-adv-x="267" 
d="M67 77v412h109v-411h60l3 -66q-41 -18 -84 -18q-45 0 -66.5 20t-21.5 63zM153 777l15 -8l23 -70q-56 -9 -56 -49q0 -13 10 -33.5t24 -34.5l-24 -28q-38 26 -59.5 61t-21.5 62q0 76 89 100z" />
    <glyph glyph-name="uni1F32" unicode="&#x1f32;" horiz-adv-x="267" 
d="M67 77v412h109v-411h60l3 -66q-41 -18 -84 -18q-45 0 -66.5 20t-21.5 63zM-13 776l15 9q89 -24 89 -102q0 -26 -21.5 -61t-58.5 -61l-25 29q32 34 32 67q0 41 -54 48zM206 565l-113 187l82 37l77 -203z" />
    <glyph glyph-name="uni1F33" unicode="&#x1f33;" horiz-adv-x="267" 
d="M67 77v412h109v-411h60l3 -66q-41 -18 -84 -18q-45 0 -66.5 20t-21.5 63zM66 786q3 -1 7.5 -4t6.5 -4l23 -71q-54 -8 -54 -48q0 -14 10 -35t23 -34l-25 -27q-37 25 -59 60.5t-22 61.5q0 77 90 101zM252 587q-16 -7 -48 -19l-50 103l-46 93l85 32q55 -193 59 -209z" />
    <glyph glyph-name="uni1F34" unicode="&#x1f34;" horiz-adv-x="267" 
d="M67 77v412h109v-411h60l3 -66q-41 -18 -84 -18q-45 0 -66.5 20t-21.5 63zM23 776l15 9q89 -24 89 -102q0 -26 -21.5 -61t-58.5 -61l-25 29q33 35 33 67q0 41 -55 48zM289 747l-113 -187l-46 21l77 203z" />
    <glyph glyph-name="uni1F35" unicode="&#x1f35;" horiz-adv-x="267" 
d="M67 77v412h109v-411h60l3 -66q-41 -18 -84 -18q-45 0 -66.5 20t-21.5 63zM85 784l14 -8l23 -71q-54 -8 -54 -48q0 -30 33 -69l-25 -27q-37 25 -59 60.5t-22 61.5q0 77 90 101zM127 580l77 203q15 -6 83 -38l-36 -59.5l-42 -68.5l-35 -59z" />
    <glyph glyph-name="uni1F36" unicode="&#x1f36;" horiz-adv-x="267" 
d="M67 77v412h109v-411h60l3 -66q-41 -18 -84 -18q-45 0 -66.5 20t-21.5 63zM206 729q-36 0 -94 19t-75 19l-59 -39l-34 29q36 77 99 77q29 0 87 -19t79 -19l59 40l33 -24q-29 -83 -95 -83zM87 714l15 7q88 -20 88 -79q0 -49 -79 -88l-25 24q31 28 31 43q0 31 -51 36z" />
    <glyph glyph-name="uni1F37" unicode="&#x1f37;" horiz-adv-x="267" 
d="M67 77v412h109v-411h60l3 -66q-41 -18 -84 -18q-45 0 -66.5 20t-21.5 63zM207 729q-37 0 -94.5 19t-74.5 19l-59 -39l-34 29q36 77 99 77q29 0 87 -19t79 -19l59 40l33 -24q-29 -83 -95 -83zM142 719l14 -7l22 -55q-52 -7 -52 -35q0 -17 32 -44l-26 -24q-81 43 -81 88
q0 60 91 77z" />
    <glyph glyph-name="uni1F38" unicode="&#x1f38;" horiz-adv-x="284" 
d="M198 0h-112v686h112v-686zM-100 698l15 8q89 -24 89 -100q0 -28 -21 -63t-59 -60l-25 28q14 14 24.5 34.5t10.5 33.5q0 40 -56 49z" />
    <glyph glyph-name="uni1F39" unicode="&#x1f39;" horiz-adv-x="284" 
d="M198 0h-112v686h112v-686zM-29 702l15 -8l23 -70q-56 -9 -56 -49q0 -13 10.5 -33.5t23.5 -34.5l-24 -28q-38 26 -59.5 61t-21.5 62q0 76 89 100z" />
    <glyph glyph-name="uni1F3A" unicode="&#x1f3a;" horiz-adv-x="284" 
d="M198 0h-112v686h112v-686zM-235 691l15 9q89 -24 89 -102q0 -26 -21.5 -61t-58.5 -61l-25 29q32 34 32 67q0 41 -54 48zM-16 480l-113 187l82 37l77 -203z" />
    <glyph glyph-name="uni1F3B" unicode="&#x1f3b;" horiz-adv-x="284" 
d="M198 0h-112v686h112v-686zM-161 699q2 -1 6.5 -4t7.5 -4l23 -71q-54 -8 -54 -48q0 -14 10 -35t23 -34l-25 -27q-37 25 -59 60.5t-22 61.5q0 77 90 101zM25 500q-16 -7 -48 -19l-50 103l-46 93l85 32q54 -193 59 -209z" />
    <glyph glyph-name="uni1F3C" unicode="&#x1f3c;" horiz-adv-x="284" 
d="M198 0h-112v686h112v-686zM-236 691l15 9q89 -24 89 -102q0 -26 -21.5 -61t-58.5 -61l-25 29q33 35 33 67q0 41 -55 48zM30 662l-113 -187l-46 21l77 203z" />
    <glyph glyph-name="uni1F3D" unicode="&#x1f3d;" horiz-adv-x="284" 
d="M198 0h-112v686h112v-686zM-177 699l14 -8l23 -71q-54 -8 -54 -48q0 -30 33 -69l-25 -27q-37 25 -59 60.5t-22 61.5q0 77 90 101zM-135 495l77 203q15 -6 83 -38l-36 -59.5l-42 -68.5l-35 -59z" />
    <glyph glyph-name="uni1F3E" unicode="&#x1f3e;" horiz-adv-x="284" 
d="M198 0h-112v686h112v-686zM-53 593q-36 0 -94 19t-75 19l-59 -39l-34 29q36 77 99 77q29 0 87 -19t79 -19l59 40l33 -24q-29 -83 -95 -83zM-172 578l15 7q88 -20 88 -79q0 -49 -79 -88l-25 24q31 28 31 43q0 31 -51 36z" />
    <glyph glyph-name="uni1F3F" unicode="&#x1f3f;" horiz-adv-x="284" 
d="M198 0h-112v686h112v-686zM-56 592q-37 0 -94.5 19t-74.5 19l-59 -39l-34 29q36 77 99 77q29 0 87 -19t79 -19l59 40l33 -24q-29 -83 -95 -83zM-121 582l14 -7l22 -55q-52 -7 -52 -35q0 -17 32 -44l-26 -24q-81 43 -81 88q0 60 91 77z" />
    <glyph glyph-name="uni1F40" unicode="&#x1f40;" horiz-adv-x="550" 
d="M506 244q0 -51 -12.5 -94.5t-38.5 -80t-73.5 -57.5t-111.5 -21q-119 0 -172.5 69.5t-53.5 182.5q0 70 22.5 126t76.5 93.5t135 37.5q62 0 107.5 -21t71 -58t37.5 -81t12 -96zM392 243q0 177 -114 177q-34 0 -59 -15.5t-38 -42t-18.5 -55.5t-5.5 -64q0 -81 25.5 -126.5
t95.5 -45.5q114 0 114 172zM229 769l15 8q89 -24 89 -100q0 -28 -21 -63t-59 -60l-25 28q14 14 24.5 34.5t10.5 33.5q0 40 -56 49z" />
    <glyph glyph-name="uni1F41" unicode="&#x1f41;" horiz-adv-x="550" 
d="M506 244q0 -51 -12.5 -94.5t-38.5 -80t-73.5 -57.5t-111.5 -21q-119 0 -172.5 69.5t-53.5 182.5q0 70 22.5 126t76.5 93.5t135 37.5q62 0 107.5 -21t71 -58t37.5 -81t12 -96zM392 243q0 177 -114 177q-34 0 -59 -15.5t-38 -42t-18.5 -55.5t-5.5 -64q0 -81 25.5 -126.5
t95.5 -45.5q114 0 114 172zM306 777l15 -8l23 -70q-56 -9 -56 -49q0 -13 10 -33.5t24 -34.5l-24 -28q-38 26 -59.5 61t-21.5 62q0 76 89 100z" />
    <glyph glyph-name="uni1F42" unicode="&#x1f42;" horiz-adv-x="550" 
d="M506 244q0 -51 -12.5 -94.5t-38.5 -80t-73.5 -57.5t-111.5 -21q-119 0 -172.5 69.5t-53.5 182.5q0 70 22.5 126t76.5 93.5t135 37.5q62 0 107.5 -21t71 -58t37.5 -81t12 -96zM392 243q0 177 -114 177q-34 0 -59 -15.5t-38 -42t-18.5 -55.5t-5.5 -64q0 -81 25.5 -126.5
t95.5 -45.5q114 0 114 172zM161 775l15 9q89 -24 89 -102q0 -26 -21.5 -61t-58.5 -61l-25 29q32 34 32 67q0 41 -54 48zM380 564l-113 187l82 37l77 -203z" />
    <glyph glyph-name="uni1F43" unicode="&#x1f43;" horiz-adv-x="550" 
d="M506 244q0 -51 -12.5 -94.5t-38.5 -80t-73.5 -57.5t-111.5 -21q-119 0 -172.5 69.5t-53.5 182.5q0 70 22.5 126t76.5 93.5t135 37.5q62 0 107.5 -21t71 -58t37.5 -81t12 -96zM392 243q0 177 -114 177q-34 0 -59 -15.5t-38 -42t-18.5 -55.5t-5.5 -64q0 -81 25.5 -126.5
t95.5 -45.5q114 0 114 172zM240 784q3 -1 7 -4t7 -4l23 -71q-54 -8 -54 -48q0 -14 10 -35t23 -34l-25 -27q-37 25 -59 60.5t-22 61.5q0 77 90 101zM426 585q-16 -7 -48 -19l-50 103l-46 93l85 32q55 -193 59 -209z" />
    <glyph glyph-name="uni1F44" unicode="&#x1f44;" horiz-adv-x="550" 
d="M506 244q0 -51 -12.5 -94.5t-38.5 -80t-73.5 -57.5t-111.5 -21q-119 0 -172.5 69.5t-53.5 182.5q0 70 22.5 126t76.5 93.5t135 37.5q62 0 107.5 -21t71 -58t37.5 -81t12 -96zM392 243q0 177 -114 177q-34 0 -59 -15.5t-38 -42t-18.5 -55.5t-5.5 -64q0 -81 25.5 -126.5
t95.5 -45.5q114 0 114 172zM197 776l15 9q89 -24 89 -102q0 -26 -21.5 -61t-58.5 -61l-25 29q33 35 33 67q0 41 -55 48zM463 747l-113 -187l-46 21l77 203z" />
    <glyph glyph-name="uni1F45" unicode="&#x1f45;" horiz-adv-x="550" 
d="M506 244q0 -51 -12.5 -94.5t-38.5 -80t-73.5 -57.5t-111.5 -21q-119 0 -172.5 69.5t-53.5 182.5q0 70 22.5 126t76.5 93.5t135 37.5q62 0 107.5 -21t71 -58t37.5 -81t12 -96zM392 243q0 177 -114 177q-34 0 -59 -15.5t-38 -42t-18.5 -55.5t-5.5 -64q0 -81 25.5 -126.5
t95.5 -45.5q114 0 114 172zM243 784l14 -8l23 -71q-54 -8 -54 -48q0 -30 33 -69l-25 -27q-37 25 -59 60.5t-22 61.5q0 77 90 101zM285 580l77 203q15 -6 83 -38l-36 -59.5l-42 -68.5l-35 -59z" />
    <glyph glyph-name="uni1F48" unicode="&#x1f48;" horiz-adv-x="720" 
d="M663 342q0 -156 -77.5 -253.5t-221.5 -97.5q-158 0 -232.5 91.5t-74.5 256.5q0 75 17 138t52.5 113t96 78.5t141.5 28.5t140.5 -28.5t93.5 -79t49.5 -112t15.5 -135.5zM544 339q0 276 -180 276q-189 0 -189 -277q0 -131 45 -197t144 -66q90 0 135 73t45 191zM-93 700
l15 8q89 -24 89 -100q0 -28 -21 -63t-59 -60l-25 28q14 14 24.5 34.5t10.5 33.5q0 40 -56 49z" />
    <glyph glyph-name="uni1F49" unicode="&#x1f49;" horiz-adv-x="720" 
d="M663 342q0 -156 -77.5 -253.5t-221.5 -97.5q-158 0 -232.5 91.5t-74.5 256.5q0 75 17 138t52.5 113t96 78.5t141.5 28.5t140.5 -28.5t93.5 -79t49.5 -112t15.5 -135.5zM544 339q0 276 -180 276q-189 0 -189 -277q0 -131 45 -197t144 -66q90 0 135 73t45 191zM-20 701
l15 -8l23 -70q-56 -9 -56 -49q0 -13 10.5 -33.5t23.5 -34.5l-24 -28q-38 26 -59.5 61t-21.5 62q0 76 89 100z" />
    <glyph glyph-name="uni1F4A" unicode="&#x1f4a;" horiz-adv-x="720" 
d="M663 342q0 -156 -77.5 -253.5t-221.5 -97.5q-158 0 -232.5 91.5t-74.5 256.5q0 75 17 138t52.5 113t96 78.5t141.5 28.5t140.5 -28.5t93.5 -79t49.5 -112t15.5 -135.5zM544 339q0 276 -180 276q-189 0 -189 -277q0 -131 45 -197t144 -66q90 0 135 73t45 191zM-226 690
l15 9q89 -24 89 -102q0 -26 -21.5 -61t-58.5 -61l-25 29q32 34 32 67q0 41 -54 48zM-7 479l-113 187l82 37l77 -203z" />
    <glyph glyph-name="uni1F4B" unicode="&#x1f4b;" horiz-adv-x="720" 
d="M663 342q0 -156 -77.5 -253.5t-221.5 -97.5q-158 0 -232.5 91.5t-74.5 256.5q0 75 17 138t52.5 113t96 78.5t141.5 28.5t140.5 -28.5t93.5 -79t49.5 -112t15.5 -135.5zM544 339q0 276 -180 276q-189 0 -189 -277q0 -131 45 -197t144 -66q90 0 135 73t45 191zM-156 699
q2 -1 6.5 -4t7.5 -4l23 -71q-54 -8 -54 -48q0 -14 10 -35t23 -34l-25 -27q-37 25 -59 60.5t-22 61.5q0 77 90 101zM30 500q-16 -7 -48 -19l-50 103l-46 93l85 32q54 -193 59 -209z" />
    <glyph glyph-name="uni1F4C" unicode="&#x1f4c;" horiz-adv-x="720" 
d="M663 342q0 -156 -77.5 -253.5t-221.5 -97.5q-158 0 -232.5 91.5t-74.5 256.5q0 75 17 138t52.5 113t96 78.5t141.5 28.5t140.5 -28.5t93.5 -79t49.5 -112t15.5 -135.5zM544 339q0 276 -180 276q-189 0 -189 -277q0 -131 45 -197t144 -66q90 0 135 73t45 191zM-207 691
l15 9q89 -24 89 -102q0 -26 -21.5 -61t-58.5 -61l-25 29q33 35 33 67q0 41 -55 48zM59 662l-113 -187l-46 21l77 203z" />
    <glyph glyph-name="uni1F4D" unicode="&#x1f4d;" horiz-adv-x="720" 
d="M663 342q0 -156 -77.5 -253.5t-221.5 -97.5q-158 0 -232.5 91.5t-74.5 256.5q0 75 17 138t52.5 113t96 78.5t141.5 28.5t140.5 -28.5t93.5 -79t49.5 -112t15.5 -135.5zM544 339q0 276 -180 276q-189 0 -189 -277q0 -131 45 -197t144 -66q90 0 135 73t45 191zM-145 700
l14 -8l23 -71q-54 -8 -54 -48q0 -30 33 -69l-25 -27q-37 25 -59 60.5t-22 61.5q0 77 90 101zM-103 496l77 203q15 -6 83 -38l-36 -59.5l-42 -68.5l-35 -59z" />
    <glyph glyph-name="uni1F50" unicode="&#x1f50;" horiz-adv-x="537" 
d="M370 490h111v-292q0 -94 -58.5 -149.5t-156.5 -55.5q-102 0 -156 51.5t-54 138.5v307h109v-308q0 -107 100 -107q50 0 77.5 31.5t27.5 83.5v300zM242 769l15 8q89 -24 89 -100q0 -28 -21 -63t-59 -60l-25 28q14 14 24.5 34.5t10.5 33.5q0 40 -56 49z" />
    <glyph glyph-name="uni1F51" unicode="&#x1f51;" horiz-adv-x="537" 
d="M370 490h111v-292q0 -94 -58.5 -149.5t-156.5 -55.5q-102 0 -156 51.5t-54 138.5v307h109v-308q0 -107 100 -107q50 0 77.5 31.5t27.5 83.5v300zM293 777l15 -8l23 -70q-56 -9 -56 -49q0 -13 10 -33.5t24 -34.5l-24 -28q-38 26 -59.5 61t-21.5 62q0 76 89 100z" />
    <glyph glyph-name="uni1F52" unicode="&#x1f52;" horiz-adv-x="537" 
d="M370 490h111v-292q0 -94 -58.5 -149.5t-156.5 -55.5q-102 0 -156 51.5t-54 138.5v307h109v-308q0 -107 100 -107q50 0 77.5 31.5t27.5 83.5v300zM151 776l15 9q89 -24 89 -102q0 -26 -21.5 -61t-58.5 -61l-25 29q32 34 32 67q0 41 -54 48zM370 565l-113 187l82 37
l77 -203z" />
    <glyph glyph-name="uni1F53" unicode="&#x1f53;" horiz-adv-x="537" 
d="M370 490h111v-292q0 -94 -58.5 -149.5t-156.5 -55.5q-102 0 -156 51.5t-54 138.5v307h109v-308q0 -107 100 -107q50 0 77.5 31.5t27.5 83.5v300zM212 784q3 -1 7.5 -4t6.5 -4l23 -71q-54 -8 -54 -48q0 -14 10 -35t23 -34l-25 -27q-37 25 -59 60.5t-22 61.5q0 77 90 101z
M398 585q-16 -7 -48 -19l-50 103l-46 93l85 32q55 -193 59 -209z" />
    <glyph glyph-name="uni1F54" unicode="&#x1f54;" horiz-adv-x="537" 
d="M370 490h111v-292q0 -94 -58.5 -149.5t-156.5 -55.5q-102 0 -156 51.5t-54 138.5v307h109v-308q0 -107 100 -107q50 0 77.5 31.5t27.5 83.5v300zM172 776l15 9q89 -24 89 -102q0 -26 -21.5 -61t-58.5 -61l-25 29q33 35 33 67q0 41 -55 48zM438 747l-113 -187l-46 21
l77 203z" />
    <glyph glyph-name="uni1F55" unicode="&#x1f55;" horiz-adv-x="537" 
d="M370 490h111v-292q0 -94 -58.5 -149.5t-156.5 -55.5q-102 0 -156 51.5t-54 138.5v307h109v-308q0 -107 100 -107q50 0 77.5 31.5t27.5 83.5v300zM224 784l14 -8l23 -71q-54 -8 -54 -48q0 -30 33 -69l-25 -27q-37 25 -59 60.5t-22 61.5q0 77 90 101zM266 580l77 203
q15 -6 83 -38l-36 -59.5l-42 -68.5l-35 -59z" />
    <glyph glyph-name="uni1F56" unicode="&#x1f56;" horiz-adv-x="537" 
d="M370 490h111v-292q0 -94 -58.5 -149.5t-156.5 -55.5q-102 0 -156 51.5t-54 138.5v307h109v-308q0 -107 100 -107q50 0 77.5 31.5t27.5 83.5v300zM338 728q-36 0 -94 19t-75 19l-59 -39l-34 29q36 77 99 77q29 0 87 -19t79 -19l59 40l33 -24q-29 -83 -95 -83zM219 713
l15 7q88 -20 88 -79q0 -49 -79 -88l-25 24q31 28 31 43q0 31 -51 36z" />
    <glyph glyph-name="uni1F57" unicode="&#x1f57;" horiz-adv-x="537" 
d="M370 490h111v-292q0 -94 -58.5 -149.5t-156.5 -55.5q-102 0 -156 51.5t-54 138.5v307h109v-308q0 -107 100 -107q50 0 77.5 31.5t27.5 83.5v300zM349 728q-37 0 -94.5 19t-74.5 19l-59 -39l-34 29q36 77 99 77q29 0 87 -19t79 -19l59 40l33 -24q-29 -83 -95 -83zM284 718
l14 -7l22 -55q-52 -7 -52 -35q0 -17 32 -44l-26 -24q-81 43 -81 88q0 60 91 77z" />
    <glyph glyph-name="uni1F59" unicode="&#x1f59;" horiz-adv-x="576" 
d="M225 0v283l-216 403h118l40.5 -79.5l49.5 -99.5l66 -138h5q12 23 35.5 72t35.5 72l91 173h116l-221 -399v-287h-120zM-69 701l15 -8l23 -70q-56 -9 -56 -49q0 -13 10.5 -33.5t23.5 -34.5l-24 -28q-38 26 -59.5 61t-21.5 62q0 76 89 100z" />
    <glyph glyph-name="uni1F5B" unicode="&#x1f5b;" horiz-adv-x="576" 
d="M225 0v283l-216 403h118l40.5 -79.5l49.5 -99.5l66 -138h5q12 23 35.5 72t35.5 72l91 173h116l-221 -399v-287h-120zM-188 699q3 -1 7.5 -4t6.5 -4l23 -71q-54 -8 -54 -48q0 -14 10 -35t23 -34l-25 -27q-37 25 -59 60.5t-22 61.5q0 77 90 101zM-2 500q-16 -7 -48 -19
l-50 103l-46 93l85 32q55 -193 59 -209z" />
    <glyph glyph-name="uni1F5D" unicode="&#x1f5d;" horiz-adv-x="576" 
d="M225 0v283l-216 403h118l40.5 -79.5l49.5 -99.5l66 -138h5q12 23 35.5 72t35.5 72l91 173h116l-221 -399v-287h-120zM-213 699l14 -8l23 -71q-54 -8 -54 -48q0 -30 33 -69l-25 -27q-37 25 -59 60.5t-22 61.5q0 77 90 101zM-171 495l77 203q15 -6 83 -38l-36 -59.5
l-42 -68.5l-35 -59z" />
    <glyph glyph-name="uni1F5F" unicode="&#x1f5f;" horiz-adv-x="576" 
d="M225 0v283l-216 403h118l40.5 -79.5l49.5 -99.5l66 -138h5q12 23 35.5 72t35.5 72l91 173h116l-221 -399v-287h-120zM-104 591q-37 0 -94.5 19t-74.5 19l-59 -39l-34 29q36 77 99 77q29 0 87 -19t79 -19l59 40l33 -24q-29 -83 -95 -83zM-169 581l14 -7l22 -55
q-52 -7 -52 -35q0 -17 32 -44l-26 -24q-81 43 -81 88q0 60 91 77z" />
    <glyph glyph-name="uni1F60" unicode="&#x1f60;" horiz-adv-x="755" 
d="M332 334h96l1 -169q1 -39 20.5 -65t56.5 -26q103 0 103 166q0 146 -92 188l21 70q93 -18 136.5 -88.5t43.5 -168.5q0 -108 -50 -178.5t-154 -70.5q-47 0 -83 20.5t-52 58.5h-3q-20 -37 -57 -58t-82 -21q-200 0 -200 249q0 98 43.5 168.5t136.5 88.5l20 -70
q-92 -42 -92 -188q0 -35 4 -62t14.5 -52t31.5 -38.5t52 -13.5q42 0 63.5 26t21.5 65v169zM343 769l15 8q89 -24 89 -100q0 -28 -21 -63t-59 -60l-25 28q14 14 24.5 34.5t10.5 33.5q0 40 -56 49z" />
    <glyph glyph-name="uni1F61" unicode="&#x1f61;" horiz-adv-x="755" 
d="M332 334h96l1 -169q1 -39 20.5 -65t56.5 -26q103 0 103 166q0 146 -92 188l21 70q93 -18 136.5 -88.5t43.5 -168.5q0 -108 -50 -178.5t-154 -70.5q-47 0 -83 20.5t-52 58.5h-3q-20 -37 -57 -58t-82 -21q-200 0 -200 249q0 98 43.5 168.5t136.5 88.5l20 -70
q-92 -42 -92 -188q0 -35 4 -62t14.5 -52t31.5 -38.5t52 -13.5q42 0 63.5 26t21.5 65v169zM391 777l15 -8l23 -70q-56 -9 -56 -49q0 -13 10.5 -33.5t23.5 -34.5l-24 -28q-38 26 -59.5 61t-21.5 62q0 76 89 100z" />
    <glyph glyph-name="uni1F62" unicode="&#x1f62;" horiz-adv-x="755" 
d="M332 334h96l1 -169q1 -39 20.5 -65t56.5 -26q103 0 103 166q0 146 -92 188l21 70q93 -18 136.5 -88.5t43.5 -168.5q0 -108 -50 -178.5t-154 -70.5q-47 0 -83 20.5t-52 58.5h-3q-20 -37 -57 -58t-82 -21q-200 0 -200 249q0 98 43.5 168.5t136.5 88.5l20 -70
q-92 -42 -92 -188q0 -35 4 -62t14.5 -52t31.5 -38.5t52 -13.5q42 0 63.5 26t21.5 65v169zM263 776l15 9q89 -24 89 -102q0 -26 -21.5 -61t-58.5 -61l-25 29q32 34 32 67q0 41 -54 48zM482 565l-113 187l82 37l77 -203z" />
    <glyph glyph-name="uni1F63" unicode="&#x1f63;" horiz-adv-x="755" 
d="M332 334h96l1 -169q1 -39 20.5 -65t56.5 -26q103 0 103 166q0 146 -92 188l21 70q93 -18 136.5 -88.5t43.5 -168.5q0 -108 -50 -178.5t-154 -70.5q-47 0 -83 20.5t-52 58.5h-3q-20 -37 -57 -58t-82 -21q-200 0 -200 249q0 98 43.5 168.5t136.5 88.5l20 -70
q-92 -42 -92 -188q0 -35 4 -62t14.5 -52t31.5 -38.5t52 -13.5q42 0 63.5 26t21.5 65v169zM335 784q3 -1 7 -4t7 -4l23 -71q-54 -8 -54 -48q0 -14 10 -35t23 -34l-25 -27q-37 25 -59 60.5t-22 61.5q0 77 90 101zM521 585q-16 -7 -48 -19l-50 103l-46 93l85 32
q55 -193 59 -209z" />
    <glyph glyph-name="uni1F64" unicode="&#x1f64;" horiz-adv-x="755" 
d="M332 334h96l1 -169q1 -39 20.5 -65t56.5 -26q103 0 103 166q0 146 -92 188l21 70q93 -18 136.5 -88.5t43.5 -168.5q0 -108 -50 -178.5t-154 -70.5q-47 0 -83 20.5t-52 58.5h-3q-20 -37 -57 -58t-82 -21q-200 0 -200 249q0 98 43.5 168.5t136.5 88.5l20 -70
q-92 -42 -92 -188q0 -35 4 -62t14.5 -52t31.5 -38.5t52 -13.5q42 0 63.5 26t21.5 65v169zM296 776l15 9q89 -24 89 -102q0 -26 -21.5 -61t-58.5 -61l-25 29q33 35 33 67q0 41 -55 48zM562 747l-113 -187l-46 21l77 203z" />
    <glyph glyph-name="uni1F65" unicode="&#x1f65;" horiz-adv-x="755" 
d="M332 334h96l1 -169q1 -39 20.5 -65t56.5 -26q103 0 103 166q0 146 -92 188l21 70q93 -18 136.5 -88.5t43.5 -168.5q0 -108 -50 -178.5t-154 -70.5q-47 0 -83 20.5t-52 58.5h-3q-20 -37 -57 -58t-82 -21q-200 0 -200 249q0 98 43.5 168.5t136.5 88.5l20 -70
q-92 -42 -92 -188q0 -35 4 -62t14.5 -52t31.5 -38.5t52 -13.5q42 0 63.5 26t21.5 65v169zM342 784l14 -8l23 -71q-54 -8 -54 -48q0 -30 33 -69l-25 -27q-37 25 -59 60.5t-22 61.5q0 77 90 101zM384 580l77 203q15 -6 83 -38l-36 -59.5l-42 -68.5l-35 -59z" />
    <glyph glyph-name="uni1F66" unicode="&#x1f66;" horiz-adv-x="755" 
d="M332 334h96l1 -169q1 -39 20.5 -65t56.5 -26q103 0 103 166q0 146 -92 188l21 70q93 -18 136.5 -88.5t43.5 -168.5q0 -108 -50 -178.5t-154 -70.5q-47 0 -83 20.5t-52 58.5h-3q-20 -37 -57 -58t-82 -21q-200 0 -200 249q0 98 43.5 168.5t136.5 88.5l20 -70
q-92 -42 -92 -188q0 -35 4 -62t14.5 -52t31.5 -38.5t52 -13.5q42 0 63.5 26t21.5 65v169zM461 700q-36 0 -94 19t-75 19l-59 -39l-34 29q36 77 99 77q29 0 87 -19t79 -19l59 40l33 -24q-29 -83 -95 -83zM342 685l15 7q88 -20 88 -79q0 -49 -79 -88l-25 24q31 28 31 43
q0 31 -51 36z" />
    <glyph glyph-name="uni1F67" unicode="&#x1f67;" horiz-adv-x="755" 
d="M332 334h96l1 -169q1 -39 20.5 -65t56.5 -26q103 0 103 166q0 146 -92 188l21 70q93 -18 136.5 -88.5t43.5 -168.5q0 -108 -50 -178.5t-154 -70.5q-47 0 -83 20.5t-52 58.5h-3q-20 -37 -57 -58t-82 -21q-200 0 -200 249q0 98 43.5 168.5t136.5 88.5l20 -70
q-92 -42 -92 -188q0 -35 4 -62t14.5 -52t31.5 -38.5t52 -13.5q42 0 63.5 26t21.5 65v169zM463 710q-37 0 -94.5 19t-74.5 19l-59 -39l-34 29q36 77 99 77q29 0 87 -19t79 -19l59 40l33 -24q-29 -83 -95 -83zM398 700l14 -7l22 -55q-52 -7 -52 -35q0 -17 32 -44l-26 -24
q-81 43 -81 88q0 60 91 77z" />
    <glyph glyph-name="uni1F68" unicode="&#x1f68;" horiz-adv-x="719" 
d="M570 81l1 -1l2 -2h110v-78h-267v81q71 19 100 88t29 183q0 261 -182 261q-98 0 -143 -70t-45 -190q0 -118 27.5 -186.5t95.5 -84.5v-82h-264v78h105l2 4q-49 36 -66.5 105t-17.5 168q0 72 18 132.5t53.5 108.5t95.5 75t138 27q80 0 139.5 -27t94.5 -75t51.5 -108
t16.5 -131q0 -198 -94 -276zM-78 698l15 8q89 -24 89 -100q0 -28 -21 -63t-59 -60l-25 28q14 14 24.5 34.5t10.5 33.5q0 40 -56 49z" />
    <glyph glyph-name="uni1F69" unicode="&#x1f69;" horiz-adv-x="719" 
d="M570 81l1 -1l2 -2h110v-78h-267v81q71 19 100 88t29 183q0 261 -182 261q-98 0 -143 -70t-45 -190q0 -118 27.5 -186.5t95.5 -84.5v-82h-264v78h105l2 4q-49 36 -66.5 105t-17.5 168q0 72 18 132.5t53.5 108.5t95.5 75t138 27q80 0 139.5 -27t94.5 -75t51.5 -108
t16.5 -131q0 -198 -94 -276zM0 693l15 -8l23 -70q-56 -9 -56 -49q0 -13 10 -33.5t24 -34.5l-24 -28q-38 26 -59.5 61t-21.5 62q0 76 89 100z" />
    <glyph glyph-name="uni1F6A" unicode="&#x1f6a;" horiz-adv-x="719" 
d="M570 81l1 -1l2 -2h110v-78h-267v81q71 19 100 88t29 183q0 261 -182 261q-98 0 -143 -70t-45 -190q0 -118 27.5 -186.5t95.5 -84.5v-82h-264v78h105l2 4q-49 36 -66.5 105t-17.5 168q0 72 18 132.5t53.5 108.5t95.5 75t138 27q80 0 139.5 -27t94.5 -75t51.5 -108
t16.5 -131q0 -198 -94 -276zM-216 690l15 9q89 -24 89 -102q0 -26 -21.5 -61t-58.5 -61l-25 29q32 34 32 67q0 41 -54 48zM3 479l-113 187l82 37l77 -203z" />
    <glyph glyph-name="uni1F6B" unicode="&#x1f6b;" horiz-adv-x="719" 
d="M570 81l1 -1l2 -2h110v-78h-267v81q71 19 100 88t29 183q0 261 -182 261q-98 0 -143 -70t-45 -190q0 -118 27.5 -186.5t95.5 -84.5v-82h-264v78h105l2 4q-49 36 -66.5 105t-17.5 168q0 72 18 132.5t53.5 108.5t95.5 75t138 27q80 0 139.5 -27t94.5 -75t51.5 -108
t16.5 -131q0 -198 -94 -276zM-141 699q2 -1 6.5 -4t7.5 -4l23 -71q-54 -8 -54 -48q0 -14 10 -35t23 -34l-25 -27q-37 25 -59 60.5t-22 61.5q0 77 90 101zM45 500q-16 -7 -48 -19l-50 103l-46 93l85 32q54 -193 59 -209z" />
    <glyph glyph-name="uni1F6C" unicode="&#x1f6c;" horiz-adv-x="719" 
d="M570 81l1 -1l2 -2h110v-78h-267v81q71 19 100 88t29 183q0 261 -182 261q-98 0 -143 -70t-45 -190q0 -118 27.5 -186.5t95.5 -84.5v-82h-264v78h105l2 4q-49 36 -66.5 105t-17.5 168q0 72 18 132.5t53.5 108.5t95.5 75t138 27q80 0 139.5 -27t94.5 -75t51.5 -108
t16.5 -131q0 -198 -94 -276zM-181 690l15 9q89 -24 89 -102q0 -26 -21.5 -61t-58.5 -61l-25 29q33 35 33 67q0 41 -55 48zM85 661l-113 -187l-46 21l77 203z" />
    <glyph glyph-name="uni1F6D" unicode="&#x1f6d;" horiz-adv-x="719" 
d="M570 81l1 -1l2 -2h110v-78h-267v81q71 19 100 88t29 183q0 261 -182 261q-98 0 -143 -70t-45 -190q0 -118 27.5 -186.5t95.5 -84.5v-82h-264v78h105l2 4q-49 36 -66.5 105t-17.5 168q0 72 18 132.5t53.5 108.5t95.5 75t138 27q80 0 139.5 -27t94.5 -75t51.5 -108
t16.5 -131q0 -198 -94 -276zM-118 697l14 -8l23 -71q-54 -8 -54 -48q0 -30 33 -69l-25 -27q-37 25 -59 60.5t-22 61.5q0 77 90 101zM-76 493l77 203q15 -6 83 -38l-36 -59.5l-42 -68.5l-35 -59z" />
    <glyph glyph-name="uni1F6E" unicode="&#x1f6e;" horiz-adv-x="719" 
d="M570 81l1 -1l2 -2h110v-78h-267v81q71 19 100 88t29 183q0 261 -182 261q-98 0 -143 -70t-45 -190q0 -118 27.5 -186.5t95.5 -84.5v-82h-264v78h105l2 4q-49 36 -66.5 105t-17.5 168q0 72 18 132.5t53.5 108.5t95.5 75t138 27q80 0 139.5 -27t94.5 -75t51.5 -108
t16.5 -131q0 -198 -94 -276zM-3 594q-36 0 -94 19t-75 19l-59 -39l-34 29q36 77 99 77q29 0 87 -19t79 -19l59 40l33 -24q-29 -83 -95 -83zM-122 579l15 7q88 -20 88 -79q0 -49 -79 -88l-25 24q31 28 31 43q0 31 -51 36z" />
    <glyph glyph-name="uni1F6F" unicode="&#x1f6f;" horiz-adv-x="719" 
d="M570 81l1 -1l2 -2h110v-78h-267v81q71 19 100 88t29 183q0 261 -182 261q-98 0 -143 -70t-45 -190q0 -118 27.5 -186.5t95.5 -84.5v-82h-264v78h105l2 4q-49 36 -66.5 105t-17.5 168q0 72 18 132.5t53.5 108.5t95.5 75t138 27q80 0 139.5 -27t94.5 -75t51.5 -108
t16.5 -131q0 -198 -94 -276zM-1 591q-37 0 -94.5 19t-74.5 19l-59 -39l-34 29q36 77 99 77q29 0 87 -19t79 -19l59 40l33 -24q-29 -83 -95 -83zM-66 581l14 -7l22 -55q-52 -7 -52 -35q0 -17 32 -44l-26 -24q-81 43 -81 88q0 60 91 77z" />
    <glyph glyph-name="uni1F70" unicode="&#x1f70;" horiz-adv-x="572" 
d="M372 124v248q-18 17 -49.5 30.5t-57.5 13.5q-61 0 -90 -48t-29 -122q0 -174 104 -174q61 0 122 52zM378 46l-5 1q-68 -55 -159 -55q-97 0 -137.5 65t-40.5 185q0 105 51 178.5t153 73.5q81 0 141 -49l19 44h80v-413h57l5 -65q-37 -15 -76 -17q-39 0 -59 10.5t-29 41.5z
M294 540l-139 200l92 46l95 -221z" />
    <glyph glyph-name="uni1F71" unicode="&#x1f71;" horiz-adv-x="572" 
d="M372 124v248q-18 17 -49.5 30.5t-57.5 13.5q-61 0 -90 -48t-29 -122q0 -174 104 -174q61 0 122 52zM378 46l-5 1q-68 -55 -159 -55q-97 0 -137.5 65t-40.5 185q0 105 51 178.5t153 73.5q81 0 141 -49l19 44h80v-413h57l5 -65q-37 -15 -76 -17q-39 0 -59 10.5t-29 41.5z
M409 740l-139 -200l-48 23l94 221z" />
    <glyph glyph-name="uni1F72" unicode="&#x1f72;" horiz-adv-x="451" 
d="M124 258l1 4q-34 11 -57 36t-23 60q0 65 53.5 104.5t141.5 39.5q102 0 169 -27l-22 -69q-71 22 -134 22q-49 0 -73 -19.5t-24 -49.5q0 -38 24.5 -50.5t65.5 -12.5h66v-68h-67q-38 0 -67 -18t-29 -60t32 -62t86 -20q66 0 146 33l22 -65q-84 -45 -188 -45
q-95 0 -152.5 36.5t-57.5 110.5q0 42 24.5 74.5t62.5 45.5zM253 540l-139 200l92 46l95 -221z" />
    <glyph glyph-name="uni1F73" unicode="&#x1f73;" horiz-adv-x="451" 
d="M124 258l1 4q-34 11 -57 36t-23 60q0 65 53.5 104.5t141.5 39.5q102 0 169 -27l-22 -69q-71 22 -134 22q-49 0 -73 -19.5t-24 -49.5q0 -38 24.5 -50.5t65.5 -12.5h66v-68h-67q-38 0 -67 -18t-29 -60t32 -62t86 -20q66 0 146 33l22 -65q-84 -45 -188 -45
q-95 0 -152.5 36.5t-57.5 110.5q0 42 24.5 74.5t62.5 45.5zM371 740l-139 -200l-48 23l94 221z" />
    <glyph glyph-name="uni1F74" unicode="&#x1f74;" horiz-adv-x="539" 
d="M483 0h-109v314q0 54 -15.5 77t-62.5 23q-58 0 -132 -43v-371h-110v489h105l1 -43l4 -2q89 57 171 57q38 0 66 -9.5t43.5 -24t24.5 -37t11.5 -43.5t2.5 -49v-338zM253 540l-139 200l92 46l95 -221z" />
    <glyph glyph-name="uni1F75" unicode="&#x1f75;" horiz-adv-x="539" 
d="M483 0h-109v314q0 54 -15.5 77t-62.5 23q-58 0 -132 -43v-371h-110v489h105l1 -43l4 -2q89 57 171 57q38 0 66 -9.5t43.5 -24t24.5 -37t11.5 -43.5t2.5 -49v-338zM377 740l-139 -200l-48 23l94 221z" />
    <glyph glyph-name="uni1F76" unicode="&#x1f76;" horiz-adv-x="267" 
d="M67 77v412h109v-411h60l3 -66q-41 -18 -84 -18q-45 0 -66.5 20t-21.5 63zM125 540l-139 200l92 46l95 -221z" />
    <glyph glyph-name="uni1F77" unicode="&#x1f77;" horiz-adv-x="267" 
d="M67 77v412h109v-411h60l3 -66q-41 -18 -84 -18q-45 0 -66.5 20t-21.5 63zM269 740l-139 -200l-48 23l94 221z" />
    <glyph glyph-name="uni1F78" unicode="&#x1f78;" horiz-adv-x="550" 
d="M506 244q0 -51 -12.5 -94.5t-38.5 -80t-73.5 -57.5t-111.5 -21q-119 0 -172.5 69.5t-53.5 182.5q0 70 22.5 126t76.5 93.5t135 37.5q62 0 107.5 -21t71 -58t37.5 -81t12 -96zM392 243q0 177 -114 177q-34 0 -59 -15.5t-38 -42t-18.5 -55.5t-5.5 -64q0 -81 25.5 -126.5
t95.5 -45.5q114 0 114 172zM292 540l-139 200l92 46l95 -221z" />
    <glyph glyph-name="uni1F79" unicode="&#x1f79;" horiz-adv-x="550" 
d="M506 244q0 -51 -12.5 -94.5t-38.5 -80t-73.5 -57.5t-111.5 -21q-119 0 -172.5 69.5t-53.5 182.5q0 70 22.5 126t76.5 93.5t135 37.5q62 0 107.5 -21t71 -58t37.5 -81t12 -96zM392 243q0 177 -114 177q-34 0 -59 -15.5t-38 -42t-18.5 -55.5t-5.5 -64q0 -81 25.5 -126.5
t95.5 -45.5q114 0 114 172zM418 740l-139 -200l-48 23l94 221z" />
    <glyph glyph-name="uni1F7A" unicode="&#x1f7a;" horiz-adv-x="537" 
d="M370 490h111v-292q0 -94 -58.5 -149.5t-156.5 -55.5q-102 0 -156 51.5t-54 138.5v307h109v-308q0 -107 100 -107q50 0 77.5 31.5t27.5 83.5v300zM269 540l-139 200l92 46l95 -221z" />
    <glyph glyph-name="uni1F7B" unicode="&#x1f7b;" horiz-adv-x="537" 
d="M370 490h111v-292q0 -94 -58.5 -149.5t-156.5 -55.5q-102 0 -156 51.5t-54 138.5v307h109v-308q0 -107 100 -107q50 0 77.5 31.5t27.5 83.5v300zM395 740l-139 -200l-48 23l94 221z" />
    </font>
</defs>
</svg>
