<?xml version="1.0" standalone="no"?>
<!DOCTYPE svg PUBLIC "-//W3C//DTD SVG 1.1//EN" "http://www.w3.org/Graphics/SVG/1.1/DTD/svg11.dtd" >
<svg>
<metadata>
Created by FontForge 20090622 at Tue May  7 19:31:44 2019
 By deploy user
Copyright (c) 2006 Parachute&#194;&#174;, www.parachute.gr.  All rights reserved.
</metadata>
<defs>
<font id="PFCentroSansPro-Light" horiz-adv-x="1818" >
  <font-face 
    font-family="PF Centro Sans Pro Light"
    font-weight="300"
    font-stretch="normal"
    units-per-em="1000"
    panose-1="2 0 5 0 0 0 0 2 0 4"
    ascent="750"
    descent="-250"
    x-height="486"
    cap-height="684"
    bbox="-321 -251 1760 913"
    underline-thickness="40"
    underline-position="-140"
    unicode-range="U+0020-U+FB05"
  />
<missing-glyph horiz-adv-x="432" 
d="M0 0v684h432v-684h-432zM57 31h318l-159 283zM216 371l159 282h-318zM31 632v-580l165 290zM237 342l164 -292v587z" />
    <glyph glyph-name="fj" unicode="fj" horiz-adv-x="528" 
d="M152 555v-69h292v-493q-2 -79 -33.5 -125.5t-122.5 -82.5q-10 26 -16 38q71 39 94 74.5t23 99.5v446h-237q0 -74 -0.5 -222t-0.5 -221h-54v443h-69v31q10 3 21.5 5.5t25.5 5t22 4.5v83q0 152 179 152q79 -2 136 -16q-5 -24 -8 -44q-63 11 -120 11q-73 0 -102.5 -24.5
t-29.5 -95.5z" />
    <glyph glyph-name="ffj" unicode="ffj" horiz-adv-x="805" 
d="M696 721l-8 -43q-66 11 -120 11q-71 0 -100.5 -25.5t-29.5 -95.5v-81h287v-466q0 -100 -31.5 -149.5t-125.5 -87.5l-15 38q71 39 93.5 74.5t22.5 99.5v447h-231v-443h-55v443h-229q0 -26 -0.5 -221t-0.5 -222h-55v443h-67v32q8 2 36.5 7.5t31.5 6.5v63q0 81 49.5 121.5
t137.5 40.5q70 0 137 -20q42 43 134 43q66 0 139 -16zM384 487v95q0 39 13 70q-53 15 -100 15q-82 0 -112.5 -31t-30.5 -104v-45h230z" />
    <glyph glyph-name="ff" unicode="ff" horiz-adv-x="614" 
d="M286 714q71 0 131 -18q37 40 113 40q47 0 88 -10l-8 -42q-46 6 -69 6q-52 0 -77.5 -22t-25.5 -74v-107h145v-44h-145v-443h-55v443h-229q0 -39 -0.5 -221t-0.5 -222h-55v443h-67v32q8 2 36.5 7.5t31.5 6.5v67q1 79 50.5 118.5t136.5 39.5zM383 593q0 36 9 60
q-50 14 -95 14q-82 0 -112.5 -31t-30.5 -104v-45h229v106z" />
    <glyph glyph-name="fi" unicode="fi" horiz-adv-x="513" 
d="M440 0h-56v443h-232v-443h-54v443h-69v32q8 2 37 7.5t33 6.5v74q0 89 46 125t130 36q61 0 138 -15q-4 -15 -9 -44q-75 11 -122 11q-72 0 -101 -25t-29 -96v-68h288v-487z" />
    <glyph glyph-name="fl" unicode="fl" horiz-adv-x="520" 
d="M305 487v-44h-151q0 -39 -0.5 -221t-0.5 -222h-54v443h-69v32q8 2 37 7.5t33 6.5v69q0 90 46 126t135 36q74 -4 126 -12l20 4t19 3q0 -67 -0.5 -357.5t-0.5 -357.5h-54v662q-72 10 -109 10q-70 0 -99 -25.5t-29 -95.5v-64h151z" />
    <glyph glyph-name="ffi" unicode="ffi" horiz-adv-x="797" 
d="M724 0h-56v443h-230v-443h-55v443h-229q0 -39 -0.5 -221t-0.5 -222h-55v443h-67v32q8 2 36.5 7.5t31.5 6.5v67q0 82 51 120.5t138 38.5q68 0 135 -21q42 42 139 42q69 0 137 -15l-8 -45q-65 13 -119 13q-74 0 -104 -25t-30 -96v-80h286v-488zM384 488v97q0 39 14 67
q-53 15 -101 15q-82 0 -112.5 -31t-30.5 -104v-44h230z" />
    <glyph glyph-name="ffl" unicode="ffl" horiz-adv-x="806" 
d="M567 688q-71 0 -100.5 -25.5t-29.5 -95.5v-81h153v-43h-153v-443h-55v443h-230q0 -73 -0.5 -221t-0.5 -222h-54v443h-67v31q25 7 68 14v55q0 83 48 127t139 44q71 0 137 -21q43 42 159 42q50 -1 116 -11l34 8v-732h-55v678q-60 10 -109 10zM297 667q-83 0 -114 -31
t-31 -105v-45h231v75q0 61 14 90q-57 16 -100 16z" />
    <glyph glyph-name="ft" unicode="ft" horiz-adv-x="647" 
d="M97 0v444h-68v32l69 14v88q0 142 146 142q58 0 96 -10l-8 -42q-40 7 -76 7q-53 0 -78.5 -22t-25.5 -74v-91h234l19 106l35 5v-112h145v-43h-145v-321q0 -40 15.5 -60.5t56.5 -20.5q36 0 93 17l10 -38q-57 -25 -113 -25q-117 0 -117 110v338h-233v-444h-55z" />
    <glyph glyph-name=".notdef" horiz-adv-x="432" 
d="M0 0v684h432v-684h-432zM57 31h318l-159 283zM216 371l159 282h-318zM31 632v-580l165 290zM237 342l164 -292v587z" />
    <glyph glyph-name=".null" horiz-adv-x="0" 
 />
    <glyph glyph-name="nonmarkingreturn" horiz-adv-x="333" 
 />
    <glyph glyph-name="space" unicode=" " horiz-adv-x="264" 
 />
    <glyph glyph-name="exclam" unicode="!" horiz-adv-x="207" 
d="M78 693h56l-1 -307l-7 -221h-37l-8 221zM107 75q17 0 30 -12t13 -29q0 -18 -13 -31t-30 -13q-18 0 -31 12.5t-13 31.5q0 17 13 29t31 12z" />
    <glyph glyph-name="quotedbl" unicode="&#x22;" horiz-adv-x="230" 
d="M180 493h-32l-11 191h54zM85 493h-30l-13 191h55z" />
    <glyph glyph-name="numbersign" unicode="#" horiz-adv-x="532" 
d="M486 418h-75l-39 -181h79l-7 -37h-79l-43 -200h-41l43 200h-159l-44 -200h-40l44 200h-74l7 37h74l40 181h-78l7 35h78l38 173h39l-37 -173h160l37 173h40l-37 -173h75zM211 418l-38 -181h159l39 181h-160z" />
    <glyph glyph-name="dollar" unicode="$" horiz-adv-x="532" 
d="M425 182q0 37 -19.5 63t-51 41t-69.5 27.5l-76 26t-69.5 31.5t-51 50t-19.5 76q0 77 50 120t120 50v99h44v-98q92 -4 148 -38l-15 -41q-69 34 -151 34q-61 0 -103 -30t-42 -96q0 -35 19.5 -60t51 -39t69.5 -26t76 -26t69.5 -32.5t51 -52t19.5 -79.5q0 -84 -55.5 -128
t-137.5 -51v-97h-44v96q-98 4 -177 49l20 43q83 -45 175 -45q168 0 168 133z" />
    <glyph glyph-name="percent" unicode="%" horiz-adv-x="800" 
d="M341 462q0 -82 -36 -140.5t-118 -58.5q-48 0 -81 16.5t-49 47t-22 62t-6 72.5q0 30 3.5 56t14 54.5t27.5 49t46.5 34t68.5 13.5q152 0 152 -206zM293 461q0 168 -104 168q-111 0 -111 -169q0 -77 23 -118.5t88 -41.5q104 0 104 161zM562 699l-285 -722h-42l287 722h40z
M770 196q0 -38 -7.5 -71t-24 -63.5t-48 -48t-74.5 -17.5q-48 0 -81 16.5t-49 47t-22 62.5t-6 73q0 30 3.5 56t14 54.5t27.5 49t46.5 34t68.5 13.5q152 0 152 -206zM722 195q0 168 -104 168q-111 0 -111 -169q0 -77 23 -118.5t88 -41.5q104 0 104 161z" />
    <glyph glyph-name="ampersand" unicode="&#x26;" horiz-adv-x="706" 
d="M279 675q66 0 100.5 -36t34.5 -90q0 -49 -36 -89.5t-108 -80.5q112 -162 200 -250q110 104 122 272h47q-12 -185 -136 -303q75 -74 153 -106q-7 -14 -23 -40q-35 16 -83.5 49t-85.5 67q-101 -77 -224 -77q-93 0 -152 48t-59 140q0 123 171 218q-56 76 -56 139
q0 59 36.5 99t98.5 40zM81 181q0 -72 44.5 -110.5t112.5 -38.5q98 0 194 67q-37 39 -94 108q-80 102 -113 151q-69 -37 -106.5 -79.5t-37.5 -97.5zM276 632q-40 0 -60 -29t-20 -62q0 -50 51 -123q118 59 118 131q0 37 -24 60t-65 23z" />
    <glyph glyph-name="quotesingle" unicode="'" horiz-adv-x="166" 
d="M99 493h-31l-12 191h55z" />
    <glyph glyph-name="parenleft" unicode="(" horiz-adv-x="271" 
d="M59 286q0 239 143 427l23 -16q-22 -34 -42.5 -76.5t-44.5 -137.5t-24 -196q0 -255 112 -442l-24 -17q-143 195 -143 458z" />
    <glyph glyph-name="parenright" unicode=")" horiz-adv-x="272" 
d="M207 286q0 -263 -143 -458l-24 17q112 187 112 442q0 101 -24 196t-44.5 137.5t-42.5 76.5l24 16q142 -192 142 -427z" />
    <glyph glyph-name="asterisk" unicode="*" horiz-adv-x="359" 
d="M195 569q62 28 106 51q19 -23 19 -60q-18 -2 -38 -5t-43.5 -7t-37.5 -6q16 -15 45 -45l38 -39q-19 -25 -49 -37l-55 106l-52 -105q-31 10 -51 36l26 27l30.5 31.5l25.5 26.5l-57.5 9.5t-58.5 9.5q2 35 19 60l106 -53l-18 117q16 3 33 3q21 0 31 -3l-9 -58t-10 -59z" />
    <glyph glyph-name="plus" unicode="+" horiz-adv-x="532" 
d="M455 276h-164v-169h-45v169h-165v43h165v163h45v-163h164v-43z" />
    <glyph glyph-name="comma" unicode="," horiz-adv-x="169" 
d="M40 35q0 17 12 29.5t30 12.5q21 0 33.5 -14.5t12.5 -37.5q0 -35 -22 -76t-55 -61l-15 18q34 39 36 90q-32 7 -32 39z" />
    <glyph glyph-name="hyphen" unicode="-" horiz-adv-x="346" 
d="M294 233h-242v50h242v-50z" />
    <glyph glyph-name="period" unicode="." horiz-adv-x="178" 
d="M129 36q0 -17 -12.5 -29.5t-29.5 -12.5t-29.5 12.5t-12.5 29.5t12.5 29.5t29.5 12.5t29.5 -12.5t12.5 -29.5z" />
    <glyph glyph-name="slash" unicode="/" horiz-adv-x="322" 
d="M310 699l-257 -726h-42l258 726h41z" />
    <glyph glyph-name="zero" unicode="0" horiz-adv-x="532" 
d="M502 338q0 -66 -11.5 -124t-37 -109.5t-72.5 -81.5t-111 -30q-59 0 -103.5 20t-70 51.5t-41 78.5t-20.5 92t-5 100q0 50 5 95.5t21 95.5t41.5 85.5t70 59t103.5 23.5q231 0 231 -356zM445 335q0 35 -1.5 62t-6.5 67t-17 69t-30.5 56.5t-48.5 42.5t-70 15
q-184 0 -184 -314q0 -52 4 -93t16.5 -80t32.5 -64.5t53 -41t78 -15.5q50 0 86 26t54 71t26 93.5t8 105.5z" />
    <glyph glyph-name="one" unicode="1" horiz-adv-x="532" 
d="M254 624l-153 -15v39l155 35h54v-683h-56v624z" />
    <glyph glyph-name="two" unicode="2" horiz-adv-x="532" 
d="M460 0h-426v42l120 116t105 114t87.5 126t29.5 109q0 67 -39.5 101.5t-104.5 34.5q-88 0 -171 -56l-22 37q95 69 202 69q86 0 140 -46t54 -136q0 -52 -24 -108t-74.5 -118t-86.5 -101t-102 -103l-36 -35l1 -2h347v-44z" />
    <glyph glyph-name="three" unicode="3" horiz-adv-x="532" 
d="M64 683h375l10 -38l-225 -235l2 -4q9 1 27 1q95 0 155 -48.5t60 -146.5q0 -106 -67.5 -163t-169.5 -57q-115 0 -192 35l15 42q91 -30 170 -30q85 0 135.5 44t50.5 129q0 71 -47.5 110t-128.5 39q-54 0 -80 -5l-13 36l226 239l-2 5h-301v47z" />
    <glyph glyph-name="four" unicode="4" horiz-adv-x="532" 
d="M348 683h59v-444h99v-44h-99v-195h-54v195h-328v45l181.5 248.5zM81 239h273v372h-3l-139 -191.5z" />
    <glyph glyph-name="five" unicode="5" horiz-adv-x="532" 
d="M264 421q86 0 149 -51.5t63 -156.5q0 -108 -66.5 -165t-165.5 -57q-114 0 -197 37l15 42q93 -31 163 -31q91 0 141.5 43.5t50.5 130.5q0 78 -47.5 120t-120.5 42q-64 0 -124 -29l-36 24l18 313h339v-47h-292l-13 -239q55 24 123 24z" />
    <glyph glyph-name="six" unicode="6" horiz-adv-x="532" 
d="M306 693q81 0 141 -31l-14 -42q-63 26 -127 26q-56 0 -96.5 -30.5t-60.5 -78t-29 -88t-11 -78.5l3 -3q86 52 180 52q85 0 141 -51t56 -157q0 -101 -59.5 -160t-156.5 -59q-64 0 -109 24.5t-68.5 70.5t-33.5 100t-10 125q0 173 65 276.5t189 103.5zM433 207
q0 167 -151 167q-48 0 -91 -14.5t-59 -25.5t-23 -18v-26q0 -252 166 -252q74 0 116 47t42 122z" />
    <glyph glyph-name="seven" unicode="7" horiz-adv-x="532" 
d="M459 639l-277 -639h-56l278 636h-337v47h392v-44z" />
    <glyph glyph-name="eight" unicode="8" horiz-adv-x="532" 
d="M465 532q0 -100 -105 -177q121 -62 121 -176q0 -79 -59 -132.5t-162 -53.5q-107 0 -163 48.5t-56 123.5q0 63 32 121.5t99 97.5q-50 29 -73.5 62t-23.5 80q0 69 55 118t141 49q77 0 135.5 -40.5t58.5 -120.5zM263 37q78 0 120.5 41.5t42.5 100.5q0 35 -12.5 60.5
t-40 45.5t-55.5 34t-74 33q-7 2 -10.5 3.5t-8.5 4t-10 4.5q-117 -75 -117 -193q0 -56 41 -95t124 -39zM268 647q-59 0 -97.5 -35t-38.5 -86q0 -23 11.5 -43.5t24.5 -33.5t43.5 -29t45 -22l53.5 -22q101 72 101 155q0 42 -35.5 79t-107.5 37z" />
    <glyph glyph-name="nine" unicode="9" horiz-adv-x="532" 
d="M220 -6q-93 0 -151 29l15 42q63 -26 136 -26q43 0 77.5 19.5t55.5 48.5t36 67.5t21 72.5t8 67l-4 3q-83 -53 -179 -53q-86 0 -141.5 51t-55.5 158q0 101 59.5 160.5t156.5 59.5q64 0 108.5 -24.5t68.5 -70.5t34 -100.5t10 -125.5q0 -172 -65.5 -275t-189.5 -103zM94 477
q0 -166 150 -166q48 0 91.5 14.5t59 25t22.5 17.5v27q0 250 -165 250q-75 0 -116.5 -46.5t-41.5 -121.5z" />
    <glyph glyph-name="colon" unicode=":" horiz-adv-x="176" 
d="M131 38q0 -18 -11.5 -30.5t-29.5 -12.5t-30.5 13t-12.5 30t12.5 29t29.5 12t29.5 -12t12.5 -29zM131 349q0 -18 -12 -30.5t-29 -12.5t-30 13t-13 30t12.5 29t29.5 12t29.5 -12t12.5 -29z" />
    <glyph glyph-name="semicolon" unicode=";" horiz-adv-x="176" 
d="M131 349q0 -18 -12 -30.5t-29 -12.5t-30 13t-13 30t12.5 29t29.5 12t29.5 -12t12.5 -29zM45 35q0 17 12.5 29.5t30.5 12.5q20 0 33 -14.5t13 -37.5q0 -34 -22.5 -75t-55.5 -62l-15 19q34 39 36 89q-32 7 -32 39z" />
    <glyph glyph-name="less" unicode="&#x3c;" horiz-adv-x="532" 
d="M458 132v-51l-379 195v41l379 194v-51l-329 -163z" />
    <glyph glyph-name="equal" unicode="=" horiz-adv-x="532" 
d="M457 350h-383v44h383v-44zM457 208h-383v43h383v-43z" />
    <glyph glyph-name="greater" unicode="&#x3e;" horiz-adv-x="532" 
d="M79 81v51l329 165l-329 163v51l379 -194v-41z" />
    <glyph glyph-name="question" unicode="?" horiz-adv-x="424" 
d="M397 568q0 -37 -23 -73.5t-55.5 -66.5l-65 -58.5t-55.5 -60.5t-23 -63q0 -22 9 -74l-49 -9q-12 52 -12 90t22 73.5t53.5 64l63 55.5t53.5 58t22 62q0 88 -123 88q-75 0 -158 -27l-14 45q87 30 173 30q89 0 135.5 -35t46.5 -99zM221 33q0 -18 -12.5 -29.5t-29.5 -11.5
q-18 0 -30.5 11.5t-12.5 29.5q0 17 12.5 29t29.5 12q18 0 30.5 -12t12.5 -29z" />
    <glyph glyph-name="at" unicode="@" horiz-adv-x="864" 
d="M452 685q159 0 251 -87t92 -234q-1 -97 -50.5 -150t-112.5 -53q-83 0 -106 57q-60 -56 -138 -56q-56 0 -79.5 32.5t-23.5 73.5q0 95 122 107l110 8v32q0 51 -18 70.5t-64 19.5q-55 0 -115 -22q-7 17 -10 33q63 29 136 29q114 0 114 -116v-162q0 -69 75 -69q47 0 84 41.5
t37 123.5q0 136 -82.5 212t-221.5 76q-140 0 -240 -91.5t-100 -225.5q0 -137 89.5 -227t222.5 -90q61 0 119 19l10 -33q-61 -22 -126 -22q-155 0 -254 99t-99 252q0 151 111 252t267 101zM517 352l-105 -9q-36 -2 -58.5 -21.5t-22.5 -50.5q0 -73 73 -73q58 0 113 49v105z
" />
    <glyph glyph-name="A" unicode="A" horiz-adv-x="551" 
d="M535 0h-61l-60 187h-281l-28 -91t-30 -96h-61l223 683h76l120.5 -369zM400 233l-91 289q-9 33 -33 110h-3l-34 -110l-90 -289h251z" />
    <glyph glyph-name="B" unicode="B" horiz-adv-x="584" 
d="M413 360v-7q41 -14 67.5 -45.5t35 -62.5t8.5 -63q0 -81 -53.5 -131.5t-131.5 -50.5h-259v682h227q96 0 146 -46.5t50 -124.5q0 -37 -20 -80t-70 -71zM318 331h-180v-285h181q74 0 110 40.5t36 102.5q0 58 -40.5 100t-106.5 42zM138 636v-258h163q66 0 104.5 34.5
t38.5 92.5q0 60 -36.5 95.5t-111.5 35.5h-158z" />
    <glyph glyph-name="C" unicode="C" horiz-adv-x="569" 
d="M346 694q102 0 170 -27l-14 -45q-73 24 -151 24q-116 0 -173 -81.5t-57 -228.5q0 -64 9.5 -112.5t33 -92.5t70.5 -67t117 -23q88 0 166 23l12 -42q-74 -29 -188 -29q-149 0 -215 89t-66 255q0 48 7.5 94t27 95t50.5 85t83 59.5t118 23.5z" />
    <glyph glyph-name="D" unicode="D" horiz-adv-x="623" 
d="M280 0h-200v684h210q273 0 273 -341q0 -343 -283 -343zM279 637h-139v-589h132q19 0 32.5 1t39 6.5t44.5 16t42 32t37.5 51t24.5 76t10 105.5q0 60 -9 108t-23 79t-35 53.5t-39.5 34t-43 18t-39.5 7.5t-34 1z" />
    <glyph glyph-name="E" unicode="E" horiz-adv-x="531" 
d="M490 0h-410v683h393v-46h-334v-252h286v-46h-286v-292h351v-47z" />
    <glyph glyph-name="F" unicode="F" horiz-adv-x="503" 
d="M139 0h-59v683h391v-47h-332v-254h282v-47h-282v-335z" />
    <glyph glyph-name="G" unicode="G" horiz-adv-x="609" 
d="M360 694q105 0 173 -27l-12 -44q-79 23 -157 23q-121 0 -182 -82.5t-61 -229.5q0 -50 5.5 -89.5t20.5 -78.5t40 -65.5t66 -42.5t96 -16q79 0 134 19v285h56v-324q-88 -29 -197 -29q-282 0 -282 345q0 48 8 93.5t29 94.5t53.5 85t86.5 59.5t123 23.5z" />
    <glyph glyph-name="H" unicode="H" horiz-adv-x="626" 
d="M546 0h-61v336h-345q0 -30 0.5 -167.5t0.5 -168.5h-61v683h61q0 -27 -0.5 -148.5t-0.5 -148.5h345v297h61v-683z" />
    <glyph glyph-name="I" unicode="I" horiz-adv-x="238" 
d="M148 0h-58v684h58v-684z" />
    <glyph glyph-name="J" unicode="J" horiz-adv-x="283" 
d="M125 115v569h58v-566q0 -117 -51 -185t-157 -112l-18 43q94 55 131 107t37 144z" />
    <glyph glyph-name="K" unicode="K" horiz-adv-x="550" 
d="M139 285v-285h-59v684h59v-330l320 330h70l-268 -274l275 -410h-67l-247 369z" />
    <glyph glyph-name="L" unicode="L" horiz-adv-x="531" 
d="M516 0h-425v683h60v-637h365v-46z" />
    <glyph glyph-name="M" unicode="M" horiz-adv-x="794" 
d="M146 682l107.5 -241l104.5 -234l36 -83h5q13 28 37 84l214 474h63v-682h-57q0 94 -0.5 284.5t-0.5 285.5h-2l-46 -104l-183 -404h-57l-79 174l-105 233l-44 102h-3v-571h-56v682h66z" />
    <glyph glyph-name="N" unicode="N" horiz-adv-x="658" 
d="M516 100h4v583h58l-1 -683h-57l-142.5 221l-156.5 242l-80 129q-1 0 -2 -0.5t-2 -0.5v-591h-57v683h60l296 -459z" />
    <glyph glyph-name="O" unicode="O" horiz-adv-x="676" 
d="M616 339q0 -154 -70.5 -249.5t-201.5 -96.5q-150 0 -217 88.5t-67 254.5q0 58 9 109t30 97.5t53 79.5t81 52.5t111 19.5q272 0 272 -355zM554 336q0 312 -210 312q-223 0 -223 -314q0 -147 53 -221t167 -74q105 0 159 83t54 214z" />
    <glyph glyph-name="P" unicode="P" horiz-adv-x="525" 
d="M496 490q0 -34 -9.5 -66.5t-30 -64t-61 -51t-95.5 -19.5h-161l1 -289h-60v684h211q91 0 148 -50t57 -144zM290 637h-151v-302h154q60 0 101 35.5t41 116.5q0 73 -40.5 111.5t-104.5 38.5z" />
    <glyph glyph-name="Q" unicode="Q" horiz-adv-x="676" 
d="M616 338q0 -119 -44 -205.5t-126 -119.5q39 -11 164 -42l-20 -55l-63.5 20.5l-95 31t-62.5 21.5q-3 0 -12.5 0.5t-12.5 1.5q-151 5 -217.5 91.5t-66.5 253.5q0 74 15 135.5t46.5 113t88.5 80.5t134 29q62 0 110.5 -20t78.5 -52.5t49 -79.5t26.5 -96.5t7.5 -107.5z
M554 336q0 311 -210 311q-223 0 -223 -313q0 -147 53 -221.5t166 -74.5q105 0 159.5 83.5t54.5 214.5z" />
    <glyph glyph-name="R" unicode="R" horiz-adv-x="563" 
d="M497 500q0 -63 -31 -113t-92 -65q37 -12 57.5 -41t34.5 -77l59 -204h-60l-56 196q-20 63 -53.5 87t-86.5 24h-130v-307h-59v684h215q101 0 151.5 -50.5t50.5 -133.5zM139 354h153q63 0 103.5 34.5t40.5 108.5q0 69 -40 104t-107 35h-150v-282z" />
    <glyph glyph-name="S" unicode="S" horiz-adv-x="547" 
d="M277 695q106 0 179 -36l-19 -45q-82 32 -164 32q-69 0 -111 -35.5t-42 -102.5q0 -24 10 -43t23.5 -31t39 -23.5t44 -16.5l50.5 -14q102 -28 139 -51q76 -48 76 -145t-66 -144t-176 -47q-128 0 -214 50l20 44q96 -46 192 -46q91 0 137 33.5t46 109.5q0 62 -39.5 91
t-121.5 50q-44 12 -69 19.5t-58 23t-50.5 32.5t-30.5 44.5t-13 62.5q0 88 60.5 138t157.5 50z" />
    <glyph glyph-name="T" unicode="T" horiz-adv-x="536" 
d="M297 0h-58v636h-220v48h497v-48h-218z" />
    <glyph glyph-name="U" unicode="U" horiz-adv-x="654" 
d="M579 684v-441q0 -116 -64 -183t-189 -67q-250 0 -250 250v441h57l1 -440q0 -101 49 -153t144 -52q94 0 143.5 52t49.5 153v440h59z" />
    <glyph glyph-name="V" unicode="V" horiz-adv-x="528" 
d="M263 61h4l40 136l146 487h61l-214 -684h-72l-214 684h63l147 -489z" />
    <glyph glyph-name="W" unicode="W" horiz-adv-x="807" 
d="M396 594h-6l-21.5 -93.5t-20.5 -93.5l-94 -407h-74l-166 682h60l98 -420l44 -193h4q20 81 43 188l47.5 203.5l51.5 221.5h62l34 -126.5l46.5 -175t33.5 -121.5q3 -8 13.5 -48l23.5 -88.5t14 -53.5h5l43 191l97 422h58l-166 -682h-71l-55.5 206l-56.5 210q-30 118 -47 178
z" />
    <glyph glyph-name="X" unicode="X" horiz-adv-x="528" 
d="M228 354l-201 329h66l172 -288l173 288h65l-112.5 -182.5l-92.5 -148.5l216 -352h-66l-186 310l-185 -310h-64z" />
    <glyph glyph-name="Y" unicode="Y" horiz-adv-x="500" 
d="M216 0v304l-204 380h63l107 -203l63 -125h4l65 124l111 204h62l-209 -376v-308h-62z" />
    <glyph glyph-name="Z" unicode="Z" horiz-adv-x="502" 
d="M43 635v49h423v-48l-376 -587h393v-49h-464v48l376 587h-352z" />
    <glyph glyph-name="bracketleft" unicode="[" horiz-adv-x="244" 
d="M208 -160h-150v856h150v-42h-96v-771h96v-43z" />
    <glyph glyph-name="backslash" unicode="\" horiz-adv-x="322" 
d="M268 -27l-257 726h41l258 -726h-42z" />
    <glyph glyph-name="bracketright" unicode="]" horiz-adv-x="244" 
d="M186 -160h-149v43h96v771h-96v42h149v-856z" />
    <glyph glyph-name="asciicircum" unicode="^" horiz-adv-x="430" 
d="M402 391h-47l-141 245l-140 -245h-49l170 291h41z" />
    <glyph glyph-name="underscore" unicode="_" horiz-adv-x="500" 
d="M500 -124h-500v36h500v-36z" />
    <glyph glyph-name="grave" unicode="`" horiz-adv-x="478" 
d="M263 543l-130 136l45 41l113 -153z" />
    <glyph glyph-name="a" unicode="a" horiz-adv-x="506" 
d="M252 493q77 0 116 -37.5t39 -121.5v-290h66l3 -33q-33 -16 -73 -16q-28 0 -40 14t-11 46q-1 1 -2 1q-79 -62 -169 -62q-75 0 -108 40t-33 94q0 65 43.5 101.5t115.5 41.5l153 8v40q0 70 -24 98.5t-88 28.5q-68 0 -152 -29l-14 39q86 37 178 37zM352 239l-139 -8
q-55 -2 -84 -27.5t-29 -69.5q0 -97 102 -97q67 0 150 69v133z" />
    <glyph glyph-name="b" unicode="b" horiz-adv-x="497" 
d="M113 453l3 -2q86 45 154 45q97 0 137.5 -67.5t40.5 -188.5q0 -246 -200 -246q-99 0 -189 40v676h56v-159q0 -6 -1 -48.5t-1 -49.5zM262 449q-65 0 -147 -47v-337q60 -26 129 -26q72 0 109.5 46.5t37.5 152.5q0 117 -33 164t-96 47z" />
    <glyph glyph-name="c" unicode="c" horiz-adv-x="445" 
d="M107 240q0 -201 151 -201q63 0 145 33l15 -39q-73 -40 -163 -40q-206 0 -206 243q0 34 5 66t19 68.5t36.5 63.5t62 44.5t90.5 17.5q79 0 137 -25l-15 -42q-56 20 -118 20q-78 0 -118.5 -56t-40.5 -153z" />
    <glyph glyph-name="d" unicode="d" horiz-adv-x="498" 
d="M383 50q-1 0 -1 0.5t-1 0.5q-70 -57 -155 -57q-177 0 -177 239q0 119 46 190.5t145 71.5q79 0 142 -38v252h56v-709h-55v50zM382 98v311q-24 15 -62 27t-73 12q-140 0 -140 -216q0 -105 34.5 -149t99.5 -44q32 0 74.5 18t66.5 41z" />
    <glyph glyph-name="e" unicode="e" horiz-adv-x="486" 
d="M254 453q-131 0 -146 -180h278q0 180 -132 180zM253 495q187 0 187 -233v-29h-333q-2 -195 150 -195q74 0 155 37l15 -38q-82 -44 -172 -44q-60 0 -102 19t-64 55t-31 78t-9 96q0 29 4 58t17 66t34 64.5t59.5 46.5t89.5 19z" />
    <glyph glyph-name="f" unicode="f" horiz-adv-x="337" 
d="M106 0v444h-69v32l69 14v86q0 143 147 143q45 0 88 -10l-7 -42q-40 7 -70 7q-53 0 -78 -22.5t-25 -73.5v-90h145v-44h-145l-1 -444h-54z" />
    <glyph glyph-name="g" unicode="g" horiz-adv-x="522" 
d="M133 192l1 3q-30 15 -50 48.5t-20 82.5q0 85 54.5 127.5t128.5 42.5q55 0 89 -11h150v-40h-84l-2 -3q44 -37 44 -113q0 -77 -54 -121t-143 -44h-57q-43 0 -65.5 -8.5t-22.5 -33.5q0 -39 59 -39h134q88 0 132 -37t44 -105q0 -73 -62 -115.5t-164 -42.5q-200 0 -200 142
q0 40 19 73.5t45 48.5q-61 9 -61 67q0 69 85 78zM286 40h-119q-28 -11 -47.5 -42t-19.5 -62q0 -110 154 -110q73 0 117 31t44 83q0 100 -129 100zM388 329q0 49 -32.5 86.5t-102.5 37.5q-64 0 -98.5 -33.5t-34.5 -91.5q0 -54 34 -88t87 -34q67 0 107 31.5t40 91.5z" />
    <glyph glyph-name="h" unicode="h" horiz-adv-x="490" 
d="M112 443l6 -3q105 56 178 56q37 0 63.5 -10t40 -23.5t21 -36.5t9 -39.5t1.5 -41.5v-345h-56v328q0 63 -17.5 91.5t-76.5 28.5q-70 0 -166 -53v-395h-56v710h55v-149q0 -78 -2 -118z" />
    <glyph glyph-name="i" unicode="i" horiz-adv-x="225" 
d="M140 0h-56v487h56v-487zM153 612q0 -16 -12 -28t-29 -12q-16 0 -28 12t-12 28q0 17 12 29.5t28 12.5q17 0 29 -12.5t12 -29.5z" />
    <glyph glyph-name="j" unicode="j" horiz-adv-x="234" 
d="M92 -3l-1 490h56v-489q-2 -86 -34.5 -132t-120.5 -82l-17 39q70 39 93.5 75t23.5 99zM80 612q0 17 12 29.5t28 12.5q17 0 29 -12.5t12 -29.5q0 -16 -12.5 -28t-28.5 -12t-28 12t-12 28z" />
    <glyph glyph-name="k" unicode="k" horiz-adv-x="429" 
d="M112 265q1 0 5 -2l59 60l165 163h65l-191 -190q2 -2 13.5 -17l17.5 -23l173 -256h-63l-97.5 143.5l-79.5 118.5q-10 -11 -32.5 -32.5t-32.5 -32.5v-197h-56v708h56v-321z" />
    <glyph glyph-name="l" unicode="l" horiz-adv-x="205" 
d="M130 710v-710h-56v710h56z" />
    <glyph glyph-name="m" unicode="m" horiz-adv-x="788" 
d="M728 0h-56v327q0 63 -18 92t-78 29q-73 0 -159 -52q4 -25 4 -56v-340h-56v336q0 57 -19.5 84t-70.5 27q-71 0 -160 -53v-394h-56v487h54q0 -3 0.5 -22.5t0.5 -23.5l2 -1l2 -1q92 56 171 56q87 0 118 -61q99 61 181 61q46 0 76 -13t43 -37t17 -45.5t4 -51.5v-348z" />
    <glyph glyph-name="n" unicode="n" horiz-adv-x="490" 
d="M431 0h-56v327q0 62 -19 91.5t-75 29.5q-70 0 -166 -53v-395h-56v487h55q0 -3 0.5 -22t0.5 -23q2 -1 3 -2q92 56 177 56q45 0 74.5 -12.5t41.5 -36t16 -44.5t4 -52v-351z" />
    <glyph glyph-name="o" unicode="o" horiz-adv-x="505" 
d="M457 241q0 -49 -10 -90.5t-32 -78.5t-64 -58t-101 -21q-108 0 -154.5 68.5t-46.5 177.5q0 107 51 181.5t157 74.5q56 0 97 -21.5t62.5 -59t31 -80.5t9.5 -93zM399 239q0 211 -142 211q-43 0 -73.5 -18.5t-46.5 -50.5t-23 -67t-7 -76q0 -43 6 -75.5t21 -62.5t46 -46
t77 -16q142 0 142 201z" />
    <glyph glyph-name="p" unicode="p" horiz-adv-x="497" 
d="M113 439l4 -3q72 57 153 57q177 0 177 -241q0 -118 -46 -188.5t-145 -70.5q-83 0 -142 37v-240h-55v697h52q0 -4 1 -24t1 -24zM114 387v-310q23 -16 61.5 -28t73.5 -12q141 0 141 217q0 104 -35 148t-100 44q-32 0 -74.5 -18t-66.5 -41z" />
    <glyph glyph-name="q" unicode="q" horiz-adv-x="498" 
d="M384 31l-6 4q-83 -44 -148 -44q-98 0 -139 64t-41 180q0 259 202 259q98 0 186 -40v-664h-55v129q0 75 1 112zM235 37q63 0 147 46v341q-59 25 -126 25q-147 0 -150 -203q0 -115 33 -162t96 -47z" />
    <glyph glyph-name="r" unicode="r" horiz-adv-x="314" 
d="M123 423l5 -2q34 29 81.5 53t78.5 24q20 0 20 -19q0 -28 -19 -55q-17 -2 -82.5 -15.5t-79.5 -15.5v-393h-57v487h56q0 -5 -1.5 -32t-1.5 -32z" />
    <glyph glyph-name="s" unicode="s" horiz-adv-x="428" 
d="M42 30l19 40q67 -33 144 -33q57 0 92 22.5t35 68.5q0 39 -29.5 59.5t-86.5 39.5q-40 13 -61 21.5t-48 25t-39 39t-12 52.5q0 65 46.5 97.5t118.5 32.5q80 0 136 -30q-15 -37 -17 -41q-63 25 -120 25q-49 0 -79.5 -21t-30.5 -64q0 -53 112 -88q35 -11 49.5 -16t42 -18.5
t39.5 -26.5t22.5 -35.5t10.5 -50.5q0 -68 -50.5 -102t-130.5 -34q-101 0 -163 37z" />
    <glyph glyph-name="t" unicode="t" horiz-adv-x="333" 
d="M116 590l36 6v-109h144v-43h-145v-321q0 -40 15.5 -60.5t57.5 -20.5q34 0 93 17l9 -38q-55 -25 -113 -25q-117 0 -117 110v338h-70v31l72 17z" />
    <glyph glyph-name="u" unicode="u" horiz-adv-x="481" 
d="M195 -10q-38 0 -65 10t-40.5 23t-21 36.5t-8.5 39t-1 41.5v347h56v-330q0 -64 17 -92.5t76 -28.5q33 0 77 18.5t82 51.5l-1 381q8 0 28 0.5t28 0.5v-488h-55v59l-3 2q-81 -71 -169 -71z" />
    <glyph glyph-name="v" unicode="v" horiz-adv-x="423" 
d="M175 0l-50.5 150.5l-60 179.5l-52.5 156h57l43.5 -132.5l52.5 -164.5q35 -115 44 -142h5q2 5 18 59t28 90l47 143t47 147h58l-169 -486h-68z" />
    <glyph glyph-name="w" unicode="w" horiz-adv-x="686" 
d="M498 55h5l35 140l79 292h57l-140 -487h-64l-88 275l-43 147h-4l-38 -141l-82 -281h-65l-138 487h56l77 -281l38 -151h4l43 159l79 273h56l93 -295z" />
    <glyph glyph-name="x" unicode="x" horiz-adv-x="406" 
d="M335 0l-133 220l-135 -220h-60l72.5 115.5l89.5 140.5l-146 231h63l116 -193l58.5 96.5l58.5 96.5h62l-71.5 -111l-75.5 -118l52.5 -81l61 -95.5l51.5 -81.5h-64z" />
    <glyph glyph-name="y" unicode="y" horiz-adv-x="434" 
d="M217 37q2 5 7.5 23.5l15.5 51.5l19 61l49.5 157t50.5 157h57q-181 -555 -193 -589q-18 -57 -46.5 -86t-76.5 -29q-58 3 -101 15l9 42q54 -11 80 -11q32 0 50 13.5t33 58.5l33 101h-29q-16 53 -83.5 256t-75.5 229h55l50 -156t50 -160l42 -134h4z" />
    <glyph glyph-name="z" unicode="z" horiz-adv-x="402" 
d="M86 48l2 -5l297 1v-44h-371v39l291 400l-3 4h-261v44h334v-42z" />
    <glyph glyph-name="braceleft" unicode="{" horiz-adv-x="247" 
d="M222 -165h-45q-79 0 -79 103v231q0 98 -68 111v34q68 12 68 112v146q0 128 77 128h47v-43h-23q-48 0 -48 -64v-170q0 -106 -57 -125q37 -20 47 -50.5t10 -92.5v-215q0 -31 8.5 -47t35.5 -16h27v-42z" />
    <glyph glyph-name="bar" unicode="|" horiz-adv-x="222" 
d="M131 -137h-44v835h44v-835z" />
    <glyph glyph-name="braceright" unicode="}" horiz-adv-x="247" 
d="M72 -165h-44v42h27q26 0 34.5 16t8.5 47v215q0 62 10 92.5t48 50.5q-58 19 -58 125v170q0 64 -48 64h-22v43h46q77 0 77 -128v-146q0 -100 68 -112v-34q-68 -13 -68 -111v-231q0 -103 -79 -103z" />
    <glyph glyph-name="asciitilde" unicode="~" horiz-adv-x="532" 
d="M382 248q-39 0 -119.5 21t-106.5 21l-60 -44l-25 19q34 72 91 72q32 0 117.5 -21t109.5 -21l57 43l24 -18q-31 -72 -88 -72z" />
    <glyph glyph-name="uni00A0" unicode="&#xa0;" horiz-adv-x="264" 
 />
    <glyph glyph-name="exclamdown" unicode="&#xa1;" horiz-adv-x="207" 
d="M89 319h36q5 -146 7 -274q0 -7 1 -127t1 -127h-56l3 285zM149 451q0 -17 -12.5 -29.5t-30.5 -12.5q-17 0 -30 12.5t-13 29.5q0 18 13 31t31 13q17 0 29.5 -13t12.5 -31z" />
    <glyph glyph-name="cent" unicode="&#xa2;" horiz-adv-x="532" 
d="M297 448q-73 0 -115 -54.5t-42 -154.5q0 -201 150 -201q67 0 145 33l16 -38q-56 -32 -143 -38v-92h-43v92q-184 11 -184 240q0 45 9 86t29 79t57.5 63t88.5 30v93h43v-92q69 -2 123 -24l-14 -42q-58 20 -120 20z" />
    <glyph glyph-name="sterling" unicode="&#xa3;" horiz-adv-x="532" 
d="M479 0h-427v44q71 31 80 189l5 96h-69v40h71l5 112q9 211 185 211q97 0 157 -30l-18 -44q-63 26 -135 26q-74 0 -103 -41.5t-32 -120.5l-5 -113h195v-40h-197l-4 -96q-6 -143 -59 -189h351v-44z" />
    <glyph glyph-name="currency" unicode="&#xa4;" horiz-adv-x="528" 
d="M119 306q0 -60 42.5 -102t101.5 -42t101 42t42 102q0 59 -42 101t-101 42t-101.5 -42t-42.5 -101zM118 422l-63 64l28 29l64 -63q52 41 117 41q60 0 116 -41l64 63l29 -30l-65 -62q41 -52 41 -116q0 -62 -41 -117q12 -12 66 -60l-30 -32l-65 63q-48 -40 -115 -40
q-66 0 -116 40l-65 -64l-29 31l64 62q-41 50 -41 115q0 71 41 117z" />
    <glyph glyph-name="yen" unicode="&#xa5;" horiz-adv-x="532" 
d="M68 243h167v51h-167v34h150l-175 355h61l99 -208l60 -128h3l66 136l98 200h58l-181 -355h154v-34h-169v-51h169v-34h-169v-209h-57v209h-167v34z" />
    <glyph glyph-name="brokenbar" unicode="&#xa6;" horiz-adv-x="222" 
d="M131 348h-44v350h44v-350zM87 249h44v-386h-44v386z" />
    <glyph glyph-name="section" unicode="&#xa7;" horiz-adv-x="456" 
d="M398 299q0 -69 -69 -130q77 -49 77 -121q0 -75 -55 -114t-136 -39q-70 0 -146 24l12 40q74 -23 135 -23t99 28t38 78q0 39 -27.5 65.5t-78.5 48.5l-42 18.5t-45.5 20.5t-37 21.5t-35 28t-19.5 32.5t-9 43q0 79 78 134q-65 44 -65 106q0 70 48.5 108t126.5 38
q70 0 139 -23l-14 -41q-66 21 -126 21q-51 0 -87 -25t-36 -75q0 -12 4 -23.5t14.5 -22t18.5 -17.5t26 -17t27 -14.5l31.5 -15t29.5 -13.5q64 -31 94 -63.5t30 -77.5zM349 292q0 11 -2.5 21t-9 19.5l-11.5 16.5t-18 16l-20.5 14t-25.5 14t-26 13.5t-30.5 15l-31.5 14.5
q-64 -52 -64 -105q0 -29 18.5 -51t39.5 -33t62.5 -29t61.5 -29q57 53 57 103z" />
    <glyph glyph-name="dieresis" unicode="&#xa8;" horiz-adv-x="468" 
d="M345 605q0 -15 -11 -25t-27 -10q-15 0 -25 10t-10 25t10.5 25.5t24.5 10.5q16 0 27 -10t11 -26zM182 605q0 -15 -11 -25t-27 -10q-15 0 -25.5 10t-10.5 25t11 25.5t25 10.5q17 0 27.5 -10t10.5 -26z" />
    <glyph glyph-name="copyright" unicode="&#xa9;" horiz-adv-x="828" 
d="M781 334q0 -149 -107.5 -254.5t-257.5 -105.5t-256 105.5t-106 254.5q0 148 106 253t256 105t257.5 -105.5t107.5 -252.5zM745 334q0 135 -95.5 230t-233.5 95q-135 0 -232 -95t-97 -230t97 -230t232 -95q138 0 233.5 95t95.5 230zM262 325q0 -98 37 -154.5t132 -56.5
q65 0 117 17l9 -34q-52 -22 -134 -22q-207 0 -207 251q0 33 5.5 66t20 68.5t37.5 62t61 44t87 17.5q71 0 122 -19l-10 -37q-51 18 -109 18q-82 0 -125 -59t-43 -162z" />
    <glyph glyph-name="ordfeminine" unicode="&#xaa;" horiz-adv-x="332" 
d="M275 485v-179h46l3 -32q-27 -11 -57 -11q-33 0 -39 37q-54 -39 -110 -39q-54 0 -76.5 27.5t-22.5 65.5q0 83 108 94q32 4 101 6v22q0 43 -15 60t-56 17q-47 0 -105 -21q-11 30 -12 34q63 26 127 26q54 0 81 -25t27 -82zM228 421q-31 -1 -84 -5q-76 -6 -76 -58
q0 -59 64 -59q43 0 96 39v83z" />
    <glyph glyph-name="guillemotleft" unicode="&#xab;" horiz-adv-x="403" 
d="M64 166v36l141 151l24 -20l-107 -149l108 -149l-24 -19zM190 166v36l141 151l25 -20l-108 -149l109 -149l-25 -19z" />
    <glyph glyph-name="logicalnot" unicode="&#xac;" horiz-adv-x="532" 
d="M455 319v-212h-45v169h-329v43h374z" />
    <glyph glyph-name="sfthyphen" unicode="&#xad;" horiz-adv-x="346" 
d="M294 233h-242v50h242v-50z" />
    <glyph glyph-name="registered" unicode="&#xae;" horiz-adv-x="573" 
d="M282 708q98 0 167.5 -69t69.5 -166q0 -98 -69.5 -166t-167.5 -68q-99 0 -168 67.5t-69 166.5q0 97 69.5 166t167.5 69zM282 681q-86 0 -147 -61.5t-61 -146.5q0 -86 60 -146t148 -60t148 59t60 147q0 86 -60.5 147t-147.5 61zM335 469v-2q23 -10 35 -48l26 -89h-35
l-25 82q-9 29 -20 38t-35 9h-46v-129h-34v291h95q44 0 66 -21.5t22 -56.5q0 -58 -49 -74zM235 594v-109h56q58 0 58 55q0 54 -59 54h-55z" />
    <glyph glyph-name="macron" unicode="&#xaf;" horiz-adv-x="487" 
d="M85 596v47h310v-47h-310z" />
    <glyph glyph-name="degree" unicode="&#xb0;" horiz-adv-x="339" 
d="M296 542q0 -52 -36 -88t-88 -36q-58 0 -92.5 35t-34.5 89q0 51 37.5 89t89.5 38q51 0 87.5 -38t36.5 -89zM259 541q0 37 -27 64t-62 27q-36 0 -62 -27t-26 -64q0 -35 26 -61t62 -26q35 0 62 26t27 61z" />
    <glyph glyph-name="plusminus" unicode="&#xb1;" horiz-adv-x="532" 
d="M455 274h-164v-165h-45v165h-165v45h165v160h45v-160h164v-45zM78 50h379v-41h-379v41z" />
    <glyph glyph-name="twosuperior" unicode="&#xb2;" horiz-adv-x="347" 
d="M288 651q0 -32 -17.5 -66.5t-51 -70t-57 -57t-60.5 -52.5q-8 -7 -12 -10q13 0 107 -0.5t106 -0.5v-38h-284v33l78 66.5t66.5 64t55 69.5t18.5 58q0 69 -86 69q-52 0 -111 -34l-19 33q63 42 135 42q59 0 95.5 -26.5t36.5 -79.5z" />
    <glyph glyph-name="threesuperior" unicode="&#xb3;" horiz-adv-x="347" 
d="M37 752h252q1 -7 8 -29q-6 -5 -138 -128h9q62 0 100.5 -29t38.5 -85q0 -60 -44.5 -95t-108.5 -35q-81 0 -135 23q5 12 13 36q63 -19 117 -19q49 0 79.5 23.5t30.5 67.5q0 37 -31.5 56.5t-84.5 19.5q-23 0 -46 -3l-12 28l68.5 63.5l68.5 63.5q-1 1 -1 2q-31 0 -92.5 0.5
t-91.5 0.5v39z" />
    <glyph glyph-name="acute" unicode="&#xb4;" horiz-adv-x="480" 
d="M325 679l-131 -136l-26 22l112 154z" />
    <glyph glyph-name="mu" unicode="&#xb5;" horiz-adv-x="485" 
d="M120 12l-5 -2v-220h-56v698h55v-337q0 -59 22 -86.5t83 -27.5q31 0 72.5 18t77.5 51v382h56v-488h-55v60h-1q-1 1 -2 1q-81 -70 -167 -70q-55 0 -80 21z" />
    <glyph glyph-name="mu" unicode="&#x3bc;" horiz-adv-x="485" 
d="M120 12l-5 -2v-220h-56v698h55v-337q0 -59 22 -86.5t83 -27.5q31 0 72.5 18t77.5 51v382h56v-488h-55v60h-1q-1 1 -2 1q-81 -70 -167 -70q-55 0 -80 21z" />
    <glyph glyph-name="paragraph" unicode="&#xb6;" horiz-adv-x="491" 
d="M238 352h-18q-72 0 -120.5 48.5t-48.5 119.5t49 122.5t120 51.5h181v-875h-44v831h-74l1 -831h-46v533z" />
    <glyph glyph-name="periodcentered" unicode="&#xb7;" horiz-adv-x="180" 
d="M137 283q0 -18 -13.5 -31.5t-30.5 -13.5t-31 13.5t-14 31.5t13.5 30.5t31.5 12.5t31 -12.5t13 -30.5z" />
    <glyph glyph-name="cedilla" unicode="&#xb8;" horiz-adv-x="485" 
d="M306 10q-38 -46 -62 -78q115 -2 115 -74q0 -43 -43.5 -71t-128.5 -28q0 4 -0.5 13.5t-0.5 14.5q125 10 125 67q0 42 -75 44q-11 1 -30 1l-11 16l38.5 49.5t49.5 60.5z" />
    <glyph glyph-name="onesuperior" unicode="&#xb9;" horiz-adv-x="347" 
d="M159 356v348l-103 -14l-7 33l115 30h43v-397h-48z" />
    <glyph glyph-name="ordmasculine" unicode="&#xba;" horiz-adv-x="345" 
d="M315 426q0 -70 -33 -117t-112 -47q-76 0 -108 45.5t-32 117.5q0 71 35 120t110 49q76 0 108 -48t32 -120zM267 425q0 132 -92 132q-53 0 -75 -38.5t-22 -93.5q0 -57 20 -90.5t77 -33.5q92 0 92 124z" />
    <glyph glyph-name="guillemotright" unicode="&#xbb;" horiz-adv-x="403" 
d="M348 202v-36l-142 -150l-24 19l108 149l-108 149l25 20zM222 202v-36l-142 -150l-25 19l108 149l-107 149l25 20z" />
    <glyph glyph-name="onequarter" unicode="&#xbc;" horiz-adv-x="800" 
d="M719 112h-62v-112h-48v112h-209v34q17 22 107.5 129t102.5 122h47v-247h62v-38zM543 699l-285 -722h-42l287 722h40zM191 266v348l-103 -14l-7 33l115 30h43v-397h-48zM610 336h-3l-153 -186h156v186z" />
    <glyph glyph-name="onehalf" unicode="&#xbd;" horiz-adv-x="800" 
d="M713 294q0 -25 -13.5 -54.5t-29.5 -51.5t-47 -52.5t-47 -44.5l-48 -41q-9 -8 -13 -11h213v-39h-284v34l102.5 87.5t77 84.5t38.5 85q0 69 -86 69q-52 0 -111 -34l-19 33q63 42 135 42q59 0 95.5 -27t36.5 -80zM517 699l-285 -722h-42l287 722h40zM182 266v348l-103 -14
l-7 33l115 30h43v-397h-48z" />
    <glyph glyph-name="threequarters" unicode="&#xbe;" horiz-adv-x="800" 
d="M755 112h-62v-112h-48v112h-209v34q17 22 107.5 129t102.5 122h47v-247h62v-38zM63 662h252q1 -7 8 -29q-6 -5 -138 -128h9q62 0 100.5 -29t38.5 -85q0 -60 -44.5 -95t-108.5 -35q-81 0 -135 23q5 12 13 36q63 -19 117 -19q49 0 79.5 23.5t30.5 67.5q0 37 -31.5 56.5
t-84.5 19.5q-23 0 -46 -3l-12 28l68.5 63.5l68.5 63.5q-1 1 -1 2q-31 0 -92.5 0.5t-91.5 0.5v39zM581 699l-285 -722h-42l287 722h40zM646 336h-3l-153 -186h156v186z" />
    <glyph glyph-name="questiondown" unicode="&#xbf;" horiz-adv-x="424" 
d="M179 39q-42 -32 -62 -59t-20 -61q0 -88 122 -88q74 0 160 27l12 -43q-89 -32 -173 -32q-88 0 -134 34t-48 96q0 78 90 149q72 57 102 95.5t30 81.5q0 28 -8 73l47 8q11 -54 11 -88q0 -49 -30.5 -92t-98.5 -101zM212 452q0 18 12.5 30.5t29.5 12.5q18 0 31 -12.5t13 -30.5
q0 -17 -13 -29.5t-30 -12.5t-30 12.5t-13 29.5z" />
    <glyph glyph-name="Agrave" unicode="&#xc0;" horiz-adv-x="551" 
d="M535 0h-61l-60 187h-281l-28 -91t-30 -96h-61l223 683h76l120.5 -369zM400 233l-91 289q-9 33 -33 110h-3l-34 -110l-90 -289h251zM277 722l-129 135l44 41l113 -153z" />
    <glyph glyph-name="Aacute" unicode="&#xc1;" horiz-adv-x="551" 
d="M535 0h-61l-60 187h-281l-28 -91t-30 -96h-61l223 683h76l120.5 -369zM400 233l-91 289q-9 33 -33 110h-3l-34 -110l-90 -289h251zM408 857l-130 -135l-28 22l113 153z" />
    <glyph glyph-name="Acircumflex" unicode="&#xc2;" horiz-adv-x="551" 
d="M535 0h-61l-60 187h-281l-28 -91t-30 -96h-61l223 683h76l120.5 -369zM400 233l-91 289q-9 33 -33 110h-3l-34 -110l-90 -289h251zM438 740l-19 -22l-145 95l-144 -96l-18 21l141 131h43z" />
    <glyph glyph-name="Atilde" unicode="&#xc3;" horiz-adv-x="551" 
d="M535 0h-61l-60 187h-281l-28 -91t-30 -96h-61l223 683h76l120.5 -369zM400 233l-91 289q-9 33 -33 110h-3l-34 -110l-90 -289h251zM347 753q-27 0 -78.5 19.5t-67.5 19.5l-53 -40l-22 15q11 30 32 48.5t46 18.5q24 0 76 -18.5t69 -18.5l52 40l21 -16q-11 -30 -31 -49
t-44 -19z" />
    <glyph glyph-name="Adieresis" unicode="&#xc4;" horiz-adv-x="551" 
d="M535 0h-61l-60 187h-281l-28 -91t-30 -96h-61l223 683h76l120.5 -369zM400 233l-91 289q-9 33 -33 110h-3l-34 -110l-90 -289h251zM230 764q0 -16 -11 -26t-27 -10q-15 0 -25.5 10t-10.5 26q0 14 11 24.5t25 10.5q16 0 27 -10t11 -25zM393 764q0 -16 -11 -26t-28 -10
q-14 0 -24 10t-10 26q0 14 10 24.5t24 10.5q17 0 28 -10t11 -25z" />
    <glyph glyph-name="Aring" unicode="&#xc5;" horiz-adv-x="551" 
d="M535 0h-61l-60 187h-281l-28 -91t-30 -96h-61l223 683h76l120.5 -369zM400 233l-91 289q-9 33 -33 110h-3l-34 -110l-90 -289h251zM275 705q-43 0 -70.5 27.5t-27.5 67.5q0 39 28.5 67t69.5 28t68 -27.5t27 -67.5t-27.5 -67.5t-67.5 -27.5zM275 861q-28 0 -45 -18
t-17 -46q0 -27 16.5 -43.5t45.5 -16.5q27 0 43.5 17t16.5 43q0 27 -16.5 45.5t-43.5 18.5z" />
    <glyph glyph-name="AE" unicode="&#xc6;" horiz-adv-x="906" 
d="M475 0v201h-274l-127 -201h-64l432 683h405v-45h-313v-254h267v-45h-267v-293h330v-46h-389zM471 633l-243 -384h247v384h-4z" />
    <glyph glyph-name="Ccedilla" unicode="&#xc7;" horiz-adv-x="569" 
d="M346 694q102 0 170 -27l-14 -45q-73 24 -151 24q-116 0 -173 -81.5t-57 -228.5q0 -64 9.5 -112.5t33 -92.5t70.5 -67t117 -23q88 0 166 23l12 -42q-70 -27 -178 -29l-55 -70q115 -2 115 -74q0 -43 -43.5 -71t-128.5 -28q0 4 -0.5 13.5t-0.5 14.5q125 10 125 67
q0 42 -75 44q-11 1 -30 1l-11 16l31.5 41t37.5 47q-135 7 -195.5 95.5t-60.5 247.5q0 48 7.5 94t27 95t50.5 85t83 59.5t118 23.5z" />
    <glyph glyph-name="Egrave" unicode="&#xc8;" horiz-adv-x="531" 
d="M490 0h-410v683h393v-46h-334v-252h286v-46h-286v-292h351v-47zM305 722l-129 135l44 41l113 -153z" />
    <glyph glyph-name="Eacute" unicode="&#xc9;" horiz-adv-x="531" 
d="M490 0h-410v683h393v-46h-334v-252h286v-46h-286v-292h351v-47zM403 857l-130 -135l-28 22l113 153z" />
    <glyph glyph-name="Ecircumflex" unicode="&#xca;" horiz-adv-x="531" 
d="M490 0h-410v683h393v-46h-334v-252h286v-46h-286v-292h351v-47zM439 746l-19 -22l-145 95l-144 -96l-18 21l141 131h43z" />
    <glyph glyph-name="Edieresis" unicode="&#xcb;" horiz-adv-x="531" 
d="M490 0h-410v683h393v-46h-334v-252h286v-46h-286v-292h351v-47zM401 767q0 -16 -11 -26t-28 -10q-14 0 -24 10t-10 26q0 14 10 24.5t24 10.5q17 0 28 -10t11 -25zM238 767q0 -16 -11 -26t-27 -10q-15 0 -25.5 10t-10.5 26q0 14 11 24.5t25 10.5q16 0 27 -10t11 -25z" />
    <glyph glyph-name="Igrave" unicode="&#xcc;" horiz-adv-x="238" 
d="M148 0h-58v684h58v-684zM122 722l-129 135l44 41l113 -153z" />
    <glyph glyph-name="Iacute" unicode="&#xcd;" horiz-adv-x="238" 
d="M148 0h-58v684h58v-684zM248 857l-130 -135l-28 22l113 153z" />
    <glyph glyph-name="Icircumflex" unicode="&#xce;" horiz-adv-x="238" 
d="M148 0h-58v684h58v-684zM283 741l-19 -22l-145 95l-144 -96l-18 21l141 131h43z" />
    <glyph glyph-name="Idieresis" unicode="&#xcf;" horiz-adv-x="238" 
d="M148 0h-58v684h58v-684zM240 768q0 -16 -11 -26t-28 -10q-14 0 -24 10t-10 26q0 14 10 24.5t24 10.5q17 0 28 -10t11 -25zM77 768q0 -16 -11 -26t-27 -10q-15 0 -25.5 10t-10.5 26q0 14 11 24.5t25 10.5q16 0 27 -10t11 -25z" />
    <glyph glyph-name="Eth" unicode="&#xd0;" horiz-adv-x="623" 
d="M280 0h-200v337h-64v44h64v303h210q273 0 273 -341q0 -343 -283 -343zM279 637h-139v-256h181v-44h-181v-289h132q19 0 32.5 1t39 6.5t44.5 16t42 32t37.5 51t24.5 76t10 105.5q0 60 -9 108t-23 79t-35 53.5t-39.5 34t-43 18t-39.5 7.5t-34 1z" />
    <glyph glyph-name="Ntilde" unicode="&#xd1;" horiz-adv-x="658" 
d="M516 100h4v583h58l-1 -683h-57l-142.5 221l-156.5 242l-80 129q-1 0 -2 -0.5t-2 -0.5v-591h-57v683h60l296 -459zM404 752q-27 0 -78.5 19.5t-67.5 19.5l-53 -40l-22 15q11 30 32 48.5t46 18.5q23 0 75 -18.5t70 -18.5l52 40l21 -16q-11 -30 -31 -49t-44 -19z" />
    <glyph glyph-name="Ograve" unicode="&#xd2;" horiz-adv-x="676" 
d="M616 339q0 -154 -70.5 -249.5t-201.5 -96.5q-150 0 -217 88.5t-67 254.5q0 58 9 109t30 97.5t53 79.5t81 52.5t111 19.5q272 0 272 -355zM554 336q0 312 -210 312q-223 0 -223 -314q0 -147 53 -221t167 -74q105 0 159 83t54 214zM347 722l-129 135l44 41l113 -153z" />
    <glyph glyph-name="Oacute" unicode="&#xd3;" horiz-adv-x="676" 
d="M616 339q0 -154 -70.5 -249.5t-201.5 -96.5q-150 0 -217 88.5t-67 254.5q0 58 9 109t30 97.5t53 79.5t81 52.5t111 19.5q272 0 272 -355zM554 336q0 312 -210 312q-223 0 -223 -314q0 -147 53 -221t167 -74q105 0 159 83t54 214zM466 857l-130 -135l-28 22l113 153z" />
    <glyph glyph-name="Ocircumflex" unicode="&#xd4;" horiz-adv-x="676" 
d="M616 339q0 -154 -70.5 -249.5t-201.5 -96.5q-150 0 -217 88.5t-67 254.5q0 58 9 109t30 97.5t53 79.5t81 52.5t111 19.5q272 0 272 -355zM554 336q0 312 -210 312q-223 0 -223 -314q0 -147 53 -221t167 -74q105 0 159 83t54 214zM509 746l-19 -22l-145 95l-144 -96
l-18 21l141 131h43z" />
    <glyph glyph-name="Otilde" unicode="&#xd5;" horiz-adv-x="676" 
d="M616 339q0 -154 -70.5 -249.5t-201.5 -96.5q-150 0 -217 88.5t-67 254.5q0 58 9 109t30 97.5t53 79.5t81 52.5t111 19.5q272 0 272 -355zM554 336q0 312 -210 312q-223 0 -223 -314q0 -147 53 -221t167 -74q105 0 159 83t54 214zM417 765q-27 0 -78.5 19.5t-67.5 19.5
l-53 -40l-22 15q11 30 32 48.5t46 18.5q24 0 76 -18.5t69 -18.5l52 40l21 -16q-11 -30 -31 -49t-44 -19z" />
    <glyph glyph-name="Odieresis" unicode="&#xd6;" horiz-adv-x="676" 
d="M616 339q0 -154 -70.5 -249.5t-201.5 -96.5q-150 0 -217 88.5t-67 254.5q0 58 9 109t30 97.5t53 79.5t81 52.5t111 19.5q272 0 272 -355zM554 336q0 312 -210 312q-223 0 -223 -314q0 -147 53 -221t167 -74q105 0 159 83t54 214zM462 778q0 -16 -11 -26t-28 -10
q-14 0 -24 10t-10 26q0 14 10 24.5t24 10.5q17 0 28 -10t11 -25zM299 778q0 -16 -11 -26t-27 -10q-15 0 -25.5 10t-10.5 26q0 14 11 24.5t25 10.5q16 0 27 -10t11 -25z" />
    <glyph glyph-name="multiply" unicode="&#xd7;" horiz-adv-x="532" 
d="M393 128l-125 127l-127 -128l-32 32l126 128l-127 127l32 31l126 -127l122 126l32 -33l-121 -125l127 -126z" />
    <glyph glyph-name="Oslash" unicode="&#xd8;" horiz-adv-x="656" 
d="M606 339q0 -154 -70.5 -249.5t-201.5 -96.5q-129 0 -198 67l-48 -65h-39l66 88q-65 83 -65 253q0 58 9 109t30 97.5t53 79.5t81 52.5t111 19.5q117 0 183 -68l51 69h42l-70 -94q66 -90 66 -262zM544 336q0 138 -44 216l-329 -448q52 -65 160 -65q105 0 159 83t54 214z
M111 334q0 -133 42 -201l330 448q-54 67 -149 67q-223 0 -223 -314z" />
    <glyph glyph-name="Ugrave" unicode="&#xd9;" horiz-adv-x="654" 
d="M579 684v-441q0 -116 -64 -183t-189 -67q-250 0 -250 250v441h57l1 -440q0 -101 49 -153t144 -52q94 0 143.5 52t49.5 153v440h59zM342 722l-129 135l44 41l113 -153z" />
    <glyph glyph-name="Uacute" unicode="&#xda;" horiz-adv-x="654" 
d="M579 684v-441q0 -116 -64 -183t-189 -67q-250 0 -250 250v441h57l1 -440q0 -101 49 -153t144 -52q94 0 143.5 52t49.5 153v440h59zM442 857l-130 -135l-28 22l113 153z" />
    <glyph glyph-name="Ucircumflex" unicode="&#xdb;" horiz-adv-x="654" 
d="M579 684v-441q0 -116 -64 -183t-189 -67q-250 0 -250 250v441h57l1 -440q0 -101 49 -153t144 -52q94 0 143.5 52t49.5 153v440h59zM495 745l-20 -21l-150 93l-150 -94l-19 20l147 129h44z" />
    <glyph glyph-name="Udieresis" unicode="&#xdc;" horiz-adv-x="654" 
d="M579 684v-441q0 -116 -64 -183t-189 -67q-250 0 -250 250v441h57l1 -440q0 -101 49 -153t144 -52q94 0 143.5 52t49.5 153v440h59zM446 769q0 -16 -11 -26t-28 -10q-14 0 -24 10t-10 26q0 14 10 24.5t24 10.5q17 0 28 -10t11 -25zM283 769q0 -16 -11 -26t-27 -10
q-15 0 -25.5 10t-10.5 26q0 14 11 24.5t25 10.5q16 0 27 -10t11 -25z" />
    <glyph glyph-name="Yacute" unicode="&#xdd;" horiz-adv-x="500" 
d="M216 0v304l-204 380h63l107 -203l63 -125h4l65 124l111 204h62l-209 -376v-308h-62zM370 847l-130 -135l-28 22l113 153z" />
    <glyph glyph-name="Thorn" unicode="&#xde;" horiz-adv-x="525" 
d="M496 356q0 -34 -9.5 -66.5t-30 -64t-61 -51t-95.5 -19.5h-161v-155h-59v684h59v-134h152q91 0 148 -49.5t57 -144.5zM290 503h-151v-302h154q60 0 101 35.5t41 116.5q0 73 -40.5 111.5t-104.5 38.5z" />
    <glyph glyph-name="germandbls" unicode="&#xdf;" horiz-adv-x="562" 
d="M276 717q84 0 122.5 -38t38.5 -84q0 -33 -17 -62.5t-38 -48t-38 -41.5t-17 -43q0 -43 89 -114q30 -24 42.5 -35t32.5 -34.5t28.5 -48.5t8.5 -56q-3 -51 -40.5 -88t-115.5 -37q-77 0 -137 23l14 44q71 -25 123 -25q46 0 72.5 23t26.5 58q0 9 -1.5 18t-3.5 16t-7 16t-7 14
t-10 14t-10 12t-12 12t-11.5 10.5t-12.5 11.5l-11 10q-3 3 -19 17l-21 18.5t-18.5 18t-18.5 20l-14.5 18.5t-13 20.5t-7 20t-3.5 21.5q0 31 27.5 64l55 64.5t27.5 59.5q0 85 -108 85q-56 0 -86 -35.5t-30 -89.5v-546h-55v389h-73v41h73v115q0 26 7.5 52.5t25 55t54.5 46.5
t88 18z" />
    <glyph glyph-name="agrave" unicode="&#xe0;" horiz-adv-x="506" 
d="M252 493q77 0 116 -37.5t39 -121.5v-290h66l3 -33q-33 -16 -73 -16q-28 0 -40 14t-11 46q-1 1 -2 1q-79 -62 -169 -62q-75 0 -108 40t-33 94q0 65 43.5 101.5t115.5 41.5l153 8v40q0 70 -24 98.5t-88 28.5q-68 0 -152 -29l-14 39q86 37 178 37zM352 239l-139 -8
q-55 -2 -84 -27.5t-29 -69.5q0 -97 102 -97q67 0 150 69v133zM261 543l-130 136l45 41l113 -153z" />
    <glyph glyph-name="aacute" unicode="&#xe1;" horiz-adv-x="506" 
d="M252 493q77 0 116 -37.5t39 -121.5v-290h66l3 -33q-33 -16 -73 -16q-28 0 -40 14t-11 46q-1 1 -2 1q-79 -62 -169 -62q-75 0 -108 40t-33 94q0 65 43.5 101.5t115.5 41.5l153 8v40q0 70 -24 98.5t-88 28.5q-68 0 -152 -29l-14 39q86 37 178 37zM352 239l-139 -8
q-55 -2 -84 -27.5t-29 -69.5q0 -97 102 -97q67 0 150 69v133zM358 679l-131 -136l-26 22l112 154z" />
    <glyph glyph-name="acircumflex" unicode="&#xe2;" horiz-adv-x="506" 
d="M252 493q77 0 116 -37.5t39 -121.5v-290h66l3 -33q-33 -16 -73 -16q-28 0 -40 14t-11 46q-1 1 -2 1q-79 -62 -169 -62q-75 0 -108 40t-33 94q0 65 43.5 101.5t115.5 41.5l153 8v40q0 70 -24 98.5t-88 28.5q-68 0 -152 -29l-14 39q86 37 178 37zM352 239l-139 -8
q-55 -2 -84 -27.5t-29 -69.5q0 -97 102 -97q67 0 150 69v133zM409 562l-18 -22l-145 98l-145 -99l-17 21l140 134h43z" />
    <glyph glyph-name="atilde" unicode="&#xe3;" horiz-adv-x="506" 
d="M252 493q77 0 116 -37.5t39 -121.5v-290h66l3 -33q-33 -16 -73 -16q-28 0 -40 14t-11 46q-1 1 -2 1q-79 -62 -169 -62q-75 0 -108 40t-33 94q0 65 43.5 101.5t115.5 41.5l153 8v40q0 70 -24 98.5t-88 28.5q-68 0 -152 -29l-14 39q86 37 178 37zM352 239l-139 -8
q-55 -2 -84 -27.5t-29 -69.5q0 -97 102 -97q67 0 150 69v133zM317 577q-27 0 -78.5 19.5t-67.5 19.5l-53 -40l-22 15q11 30 32 48.5t46 18.5q24 0 76 -18.5t69 -18.5l52 40l21 -16q-11 -30 -31 -49t-44 -19z" />
    <glyph glyph-name="adieresis" unicode="&#xe4;" horiz-adv-x="506" 
d="M252 493q77 0 116 -37.5t39 -121.5v-290h66l3 -33q-33 -16 -73 -16q-28 0 -40 14t-11 46q-1 1 -2 1q-79 -62 -169 -62q-75 0 -108 40t-33 94q0 65 43.5 101.5t115.5 41.5l153 8v40q0 70 -24 98.5t-88 28.5q-68 0 -152 -29l-14 39q86 37 178 37zM352 239l-139 -8
q-55 -2 -84 -27.5t-29 -69.5q0 -97 102 -97q67 0 150 69v133zM205 605q0 -15 -11 -25t-27 -10q-15 0 -25.5 10t-10.5 25t11 25.5t25 10.5q17 0 27.5 -10t10.5 -26zM368 605q0 -15 -11 -25t-27 -10q-15 0 -25 10t-10 25t10.5 25.5t24.5 10.5q16 0 27 -10t11 -26z" />
    <glyph glyph-name="aring" unicode="&#xe5;" horiz-adv-x="506" 
d="M252 493q77 0 116 -37.5t39 -121.5v-290h66l3 -33q-33 -16 -73 -16q-28 0 -40 14t-11 46q-1 1 -2 1q-79 -62 -169 -62q-75 0 -108 40t-33 94q0 65 43.5 101.5t115.5 41.5l153 8v40q0 70 -24 98.5t-88 28.5q-68 0 -152 -29l-14 39q86 37 178 37zM352 239l-139 -8
q-55 -2 -84 -27.5t-29 -69.5q0 -97 102 -97q67 0 150 69v133zM256 548q-43 0 -70.5 27.5t-27.5 67.5q0 39 28.5 67t69.5 28t68 -27.5t27 -67.5t-27.5 -67.5t-67.5 -27.5zM256 704q-28 0 -45 -18t-17 -46q0 -27 16.5 -43.5t45.5 -16.5q27 0 43.5 17t16.5 43q0 27 -16.5 45.5
t-43.5 18.5z" />
    <glyph glyph-name="ae" unicode="&#xe6;" horiz-adv-x="777" 
d="M556 495q184 0 184 -233v-29h-331q-2 -194 149 -194q75 0 154 36l15 -38q-81 -44 -170 -44q-117 0 -167 76q-100 -76 -215 -76q-75 0 -107 41.5t-32 94.5q0 66 45.5 104.5t121.5 38.5h149v48q0 71 -26 99.5t-91 28.5q-67 0 -152 -30l-14 39q86 37 178 37q119 0 144 -96
q51 97 165 97zM198 36q37 0 87.5 17t88.5 49q-22 51 -22 131h-140q-56 0 -86.5 -26t-30.5 -71q0 -100 103 -100zM556 451q-130 0 -146 -179h276q0 179 -130 179z" />
    <glyph glyph-name="ccedilla" unicode="&#xe7;" horiz-adv-x="445" 
d="M107 240q0 -201 151 -201q63 0 145 33l15 -39q-67 -37 -154 -40q-23 -27 -47 -61q115 -2 115 -74q0 -43 -43.5 -71t-128.5 -28q0 4 -0.5 13.5t-0.5 14.5q125 10 125 67q0 42 -75 44q-11 1 -30 1l-11 16l62 79q-181 15 -181 242q0 34 5 66t19 68.5t36.5 63.5t62 44.5
t90.5 17.5q79 0 137 -25l-15 -42q-56 20 -118 20q-78 0 -118.5 -56t-40.5 -153z" />
    <glyph glyph-name="egrave" unicode="&#xe8;" horiz-adv-x="486" 
d="M254 453q-131 0 -146 -180h278q0 180 -132 180zM253 495q187 0 187 -233v-29h-333q-2 -195 150 -195q74 0 155 37l15 -38q-82 -44 -172 -44q-60 0 -102 19t-64 55t-31 78t-9 96q0 29 4 58t17 66t34 64.5t59.5 46.5t89.5 19zM263 543l-130 136l45 41l113 -153z" />
    <glyph glyph-name="eacute" unicode="&#xe9;" horiz-adv-x="486" 
d="M254 453q-131 0 -146 -180h278q0 180 -132 180zM253 495q187 0 187 -233v-29h-333q-2 -195 150 -195q74 0 155 37l15 -38q-82 -44 -172 -44q-60 0 -102 19t-64 55t-31 78t-9 96q0 29 4 58t17 66t34 64.5t59.5 46.5t89.5 19zM368 679l-131 -136l-26 22l112 154z" />
    <glyph glyph-name="ecircumflex" unicode="&#xea;" horiz-adv-x="486" 
d="M254 453q-131 0 -146 -180h278q0 180 -132 180zM253 495q187 0 187 -233v-29h-333q-2 -195 150 -195q74 0 155 37l15 -38q-82 -44 -172 -44q-60 0 -102 19t-64 55t-31 78t-9 96q0 29 4 58t17 66t34 64.5t59.5 46.5t89.5 19zM421 555l-18 -22l-145 98l-145 -99l-17 21
l140 134h43z" />
    <glyph glyph-name="edieresis" unicode="&#xeb;" horiz-adv-x="486" 
d="M254 453q-131 0 -146 -180h278q0 180 -132 180zM253 495q187 0 187 -233v-29h-333q-2 -195 150 -195q74 0 155 37l15 -38q-82 -44 -172 -44q-60 0 -102 19t-64 55t-31 78t-9 96q0 29 4 58t17 66t34 64.5t59.5 46.5t89.5 19zM378 605q0 -15 -11 -25t-27 -10q-15 0 -25 10
t-10 25t10.5 25.5t24.5 10.5q16 0 27 -10t11 -26zM215 605q0 -15 -11 -25t-27 -10q-15 0 -25.5 10t-10.5 25t11 25.5t25 10.5q17 0 27.5 -10t10.5 -26z" />
    <glyph glyph-name="igrave" unicode="&#xec;" horiz-adv-x="225" 
d="M140 0h-56v487h56v-487zM121 543l-130 136l45 41l113 -153z" />
    <glyph glyph-name="iacute" unicode="&#xed;" horiz-adv-x="225" 
d="M140 0h-56v487h56v-487zM243 679l-131 -136l-26 22l112 154z" />
    <glyph glyph-name="icircumflex" unicode="&#xee;" horiz-adv-x="225" 
d="M140 0h-56v487h56v-487zM274 562l-18 -22l-145 98l-145 -99l-17 21l140 134h43z" />
    <glyph glyph-name="idieresis" unicode="&#xef;" horiz-adv-x="225" 
d="M140 0h-56v487h56v-487zM230 605q0 -15 -11 -25t-27 -10q-15 0 -25 10t-10 25t10.5 25.5t24.5 10.5q16 0 27 -10t11 -26zM67 605q0 -15 -11 -25t-27 -10q-15 0 -25.5 10t-10.5 25t11 25.5t25 10.5q17 0 27.5 -10t10.5 -26z" />
    <glyph glyph-name="eth" unicode="&#xf0;" horiz-adv-x="486" 
d="M310 613l84 56l19 -26l-80 -54q118 -135 115 -328q0 -34 -4.5 -66t-18.5 -70t-35.5 -66t-60.5 -47t-90 -19q-56 0 -97 20.5t-62 55t-30 70.5t-9 75q0 91 51.5 163t149.5 72q75 0 135 -43q-27 91 -83 156l-92 -62l-19 26l89 60q-51 53 -121 93l19 34q83 -41 140 -100z
M246 406q-53 0 -88 -31.5t-48 -72t-13 -86.5q0 -33 6 -62t21.5 -57t46 -44t74.5 -16q46 0 77.5 23t45.5 60.5t19.5 70.5t5.5 68q0 43 -9 91q-60 56 -138 56z" />
    <glyph glyph-name="ntilde" unicode="&#xf1;" horiz-adv-x="490" 
d="M431 0h-56v327q0 62 -19 91.5t-75 29.5q-70 0 -166 -53v-395h-56v487h55q0 -3 0.5 -22t0.5 -23q2 -1 3 -2q92 56 177 56q45 0 74.5 -12.5t41.5 -36t16 -44.5t4 -52v-351zM307 590q-27 0 -78.5 19.5t-67.5 19.5l-53 -40l-22 15q11 30 32 48.5t46 18.5q24 0 76 -18.5
t69 -18.5l52 40l21 -16q-11 -30 -31 -49t-44 -19z" />
    <glyph glyph-name="ograve" unicode="&#xf2;" horiz-adv-x="505" 
d="M457 241q0 -49 -10 -90.5t-32 -78.5t-64 -58t-101 -21q-108 0 -154.5 68.5t-46.5 177.5q0 107 51 181.5t157 74.5q56 0 97 -21.5t62.5 -59t31 -80.5t9.5 -93zM399 239q0 211 -142 211q-43 0 -73.5 -18.5t-46.5 -50.5t-23 -67t-7 -76q0 -43 6 -75.5t21 -62.5t46 -46
t77 -16q142 0 142 201zM267 543l-130 136l45 41l113 -153z" />
    <glyph glyph-name="oacute" unicode="&#xf3;" horiz-adv-x="505" 
d="M457 241q0 -49 -10 -90.5t-32 -78.5t-64 -58t-101 -21q-108 0 -154.5 68.5t-46.5 177.5q0 107 51 181.5t157 74.5q56 0 97 -21.5t62.5 -59t31 -80.5t9.5 -93zM399 239q0 211 -142 211q-43 0 -73.5 -18.5t-46.5 -50.5t-23 -67t-7 -76q0 -43 6 -75.5t21 -62.5t46 -46
t77 -16q142 0 142 201zM380 679l-131 -136l-26 22l112 154z" />
    <glyph glyph-name="ocircumflex" unicode="&#xf4;" horiz-adv-x="505" 
d="M457 241q0 -49 -10 -90.5t-32 -78.5t-64 -58t-101 -21q-108 0 -154.5 68.5t-46.5 177.5q0 107 51 181.5t157 74.5q56 0 97 -21.5t62.5 -59t31 -80.5t9.5 -93zM399 239q0 211 -142 211q-43 0 -73.5 -18.5t-46.5 -50.5t-23 -67t-7 -76q0 -43 6 -75.5t21 -62.5t46 -46
t77 -16q142 0 142 201zM422 562l-18 -22l-145 98l-145 -99l-17 21l140 134h43z" />
    <glyph glyph-name="otilde" unicode="&#xf5;" horiz-adv-x="505" 
d="M457 241q0 -49 -10 -90.5t-32 -78.5t-64 -58t-101 -21q-108 0 -154.5 68.5t-46.5 177.5q0 107 51 181.5t157 74.5q56 0 97 -21.5t62.5 -59t31 -80.5t9.5 -93zM399 239q0 211 -142 211q-43 0 -73.5 -18.5t-46.5 -50.5t-23 -67t-7 -76q0 -43 6 -75.5t21 -62.5t46 -46
t77 -16q142 0 142 201zM331 577q-27 0 -78.5 19.5t-67.5 19.5l-53 -40l-22 15q11 30 32 48.5t46 18.5q24 0 76 -18.5t69 -18.5l52 40l21 -16q-11 -30 -31 -49t-44 -19z" />
    <glyph glyph-name="odieresis" unicode="&#xf6;" horiz-adv-x="505" 
d="M457 241q0 -49 -10 -90.5t-32 -78.5t-64 -58t-101 -21q-108 0 -154.5 68.5t-46.5 177.5q0 107 51 181.5t157 74.5q56 0 97 -21.5t62.5 -59t31 -80.5t9.5 -93zM399 239q0 211 -142 211q-43 0 -73.5 -18.5t-46.5 -50.5t-23 -67t-7 -76q0 -43 6 -75.5t21 -62.5t46 -46
t77 -16q142 0 142 201zM378 605q0 -15 -11 -25t-27 -10q-15 0 -25 10t-10 25t10.5 25.5t24.5 10.5q16 0 27 -10t11 -26zM215 605q0 -15 -11 -25t-27 -10q-15 0 -25.5 10t-10.5 25t11 25.5t25 10.5q17 0 27.5 -10t10.5 -26z" />
    <glyph glyph-name="divide" unicode="&#xf7;" horiz-adv-x="532" 
d="M309 444q0 -17 -12 -29.5t-29 -12.5t-29.5 12.5t-12.5 29.5t12.5 29t29.5 12t29 -12t12 -29zM454 276h-375v43h375v-43zM309 150q0 -17 -12 -29.5t-29 -12.5t-29.5 12.5t-12.5 29.5q0 16 12.5 28t29.5 12t29 -12t12 -28z" />
    <glyph glyph-name="oslash" unicode="&#xf8;" horiz-adv-x="487" 
d="M248 495q83 0 132 -49l37 48q3 0 16 0.5t17 0.5q-2 -2 -23.5 -31.5t-28.5 -37.5q49 -67 49 -185q0 -49 -10 -90.5t-32 -78.5t-64 -58t-100 -21q-87 0 -135 46l-33 -44q-5 0 -18 -0.5t-16 -0.5q5 6 24 32t25 33q-48 61 -48 180q0 107 51 181.5t157 74.5zM389 239
q0 90 -28 142l-107.5 -146.5l-114.5 -155.5q36 -41 109 -41q141 0 141 201zM248 450q-56 0 -91 -33t-46.5 -77t-12.5 -100q0 -89 26 -136q21 26 113 152t110 149q-37 45 -99 45z" />
    <glyph glyph-name="ugrave" unicode="&#xf9;" horiz-adv-x="481" 
d="M195 -10q-38 0 -65 10t-40.5 23t-21 36.5t-8.5 39t-1 41.5v347h56v-330q0 -64 17 -92.5t76 -28.5q33 0 77 18.5t82 51.5l-1 381q8 0 28 0.5t28 0.5v-488h-55v59l-3 2q-81 -71 -169 -71zM258 543l-130 136l45 41l113 -153z" />
    <glyph glyph-name="uacute" unicode="&#xfa;" horiz-adv-x="481" 
d="M195 -10q-38 0 -65 10t-40.5 23t-21 36.5t-8.5 39t-1 41.5v347h56v-330q0 -64 17 -92.5t76 -28.5q33 0 77 18.5t82 51.5l-1 381q8 0 28 0.5t28 0.5v-488h-55v59l-3 2q-81 -71 -169 -71zM360 679l-131 -136l-26 22l112 154z" />
    <glyph glyph-name="ucircumflex" unicode="&#xfb;" horiz-adv-x="481" 
d="M195 -10q-38 0 -65 10t-40.5 23t-21 36.5t-8.5 39t-1 41.5v347h56v-330q0 -64 17 -92.5t76 -28.5q33 0 77 18.5t82 51.5l-1 381q8 0 28 0.5t28 0.5v-488h-55v59l-3 2q-81 -71 -169 -71zM402 562l-18 -22l-145 98l-145 -99l-17 21l140 134h43z" />
    <glyph glyph-name="udieresis" unicode="&#xfc;" horiz-adv-x="481" 
d="M195 -10q-38 0 -65 10t-40.5 23t-21 36.5t-8.5 39t-1 41.5v347h56v-330q0 -64 17 -92.5t76 -28.5q33 0 77 18.5t82 51.5l-1 381q8 0 28 0.5t28 0.5v-488h-55v59l-3 2q-81 -71 -169 -71zM360 605q0 -15 -11 -25t-27 -10q-15 0 -25 10t-10 25t10.5 25.5t24.5 10.5
q16 0 27 -10t11 -26zM197 605q0 -15 -11 -25t-27 -10q-15 0 -25.5 10t-10.5 25t11 25.5t25 10.5q17 0 27.5 -10t10.5 -26z" />
    <glyph glyph-name="yacute" unicode="&#xfd;" horiz-adv-x="434" 
d="M217 37q2 5 7.5 23.5l15.5 51.5l19 61l49.5 157t50.5 157h57q-181 -555 -193 -589q-18 -57 -46.5 -86t-76.5 -29q-58 3 -101 15l9 42q54 -11 80 -11q32 0 50 13.5t33 58.5l33 101h-29q-16 53 -83.5 256t-75.5 229h55l50 -156t50 -160l42 -134h4zM332 679l-131 -136
l-26 22l112 154z" />
    <glyph glyph-name="thorn" unicode="&#xfe;" horiz-adv-x="497" 
d="M114 388v-311q23 -16 61 -28t74 -12q63 0 101.5 51t38.5 166q0 104 -34.5 148.5t-99.5 44.5q-33 0 -75.5 -18t-65.5 -41zM113 695v-261h1q72 58 155 58q94 0 136 -65t42 -174q0 -120 -46 -190t-146 -70q-81 0 -141 37q0 -40 -0.5 -120t-0.5 -119h-55v904h55z" />
    <glyph glyph-name="ydieresis" unicode="&#xff;" horiz-adv-x="434" 
d="M217 37q2 5 7.5 23.5l15.5 51.5l19 61l49.5 157t50.5 157h57q-181 -555 -193 -589q-18 -57 -46.5 -86t-76.5 -29q-58 3 -101 15l9 42q54 -11 80 -11q32 0 50 13.5t33 58.5l33 101h-29q-16 53 -83.5 256t-75.5 229h55l50 -156t50 -160l42 -134h4zM179 605q0 -15 -11 -25
t-27 -10q-15 0 -25.5 10t-10.5 25t11 25.5t25 10.5q17 0 27.5 -10t10.5 -26zM342 605q0 -15 -11 -25t-27 -10q-15 0 -25 10t-10 25t10.5 25.5t24.5 10.5q16 0 27 -10t11 -26z" />
    <glyph glyph-name="Amacron" unicode="&#x100;" horiz-adv-x="551" 
d="M535 0h-61l-60 187h-281l-28 -91t-30 -96h-61l223 683h76l120.5 -369zM400 233l-91 289q-9 33 -33 110h-3l-34 -110l-90 -289h251zM122 748v47h308v-47h-308z" />
    <glyph glyph-name="amacron" unicode="&#x101;" horiz-adv-x="506" 
d="M252 493q77 0 116 -37.5t39 -121.5v-290h66l3 -33q-33 -16 -73 -16q-28 0 -40 14t-11 46q-1 1 -2 1q-79 -62 -169 -62q-75 0 -108 40t-33 94q0 65 43.5 101.5t115.5 41.5l153 8v40q0 70 -24 98.5t-88 28.5q-68 0 -152 -29l-14 39q86 37 178 37zM352 239l-139 -8
q-55 -2 -84 -27.5t-29 -69.5q0 -97 102 -97q67 0 150 69v133zM88 596v47h310v-47h-310z" />
    <glyph glyph-name="Abreve" unicode="&#x102;" horiz-adv-x="551" 
d="M535 0h-61l-60 187h-281l-28 -91t-30 -96h-61l223 683h76l120.5 -369zM400 233l-91 289q-9 33 -33 110h-3l-34 -110l-90 -289h251zM270 725q-82 0 -151 102l37 25q56 -81 118 -81q61 0 138 75l21 -17q-75 -104 -163 -104z" />
    <glyph glyph-name="abreve" unicode="&#x103;" horiz-adv-x="506" 
d="M252 493q77 0 116 -37.5t39 -121.5v-290h66l3 -33q-33 -16 -73 -16q-28 0 -40 14t-11 46q-1 1 -2 1q-79 -62 -169 -62q-75 0 -108 40t-33 94q0 65 43.5 101.5t115.5 41.5l153 8v40q0 70 -24 98.5t-88 28.5q-68 0 -152 -29l-14 39q86 37 178 37zM352 239l-139 -8
q-55 -2 -84 -27.5t-29 -69.5q0 -97 102 -97q67 0 150 69v133zM242 557q-82 0 -151 103l36 25q57 -80 118 -80q63 0 138 74l21 -18q-74 -104 -162 -104z" />
    <glyph glyph-name="Aogonek" unicode="&#x104;" horiz-adv-x="551" 
d="M535 0h-43q-53 -59 -53 -114q0 -51 61 -51q30 0 70 11l6 -24q-45 -24 -98 -24q-44 0 -67 18.5t-23 50.5q0 76 82 143l-17.5 55.5l-20.5 65l-18 56.5h-281l-28 -91t-30 -96h-61l223 683h76l120.5 -369zM400 233l-91 289q-9 33 -33 110h-3l-34 -110l-90 -289h251z" />
    <glyph glyph-name="aogonek" unicode="&#x105;" horiz-adv-x="506" 
d="M252 493q77 0 116 -37.5t39 -121.5v-290h66l3 -33q-33 -16 -73 -16q-9 0 -12 1q-47 -56 -47 -107t61 -51q30 0 70 11l6 -24q-45 -24 -98 -24q-44 0 -67 18.5t-23 50.5q0 71 73 135q-15 13 -14 50q-1 1 -2 1q-79 -62 -169 -62q-75 0 -108 40t-33 94q0 65 43.5 101.5
t115.5 41.5l153 8v40q0 70 -24 98.5t-88 28.5q-68 0 -152 -29l-14 39q86 37 178 37zM352 239l-139 -8q-55 -2 -84 -27.5t-29 -69.5q0 -97 102 -97q67 0 150 69v133z" />
    <glyph glyph-name="Cacute" unicode="&#x106;" horiz-adv-x="569" 
d="M346 694q102 0 170 -27l-14 -45q-73 24 -151 24q-116 0 -173 -81.5t-57 -228.5q0 -64 9.5 -112.5t33 -92.5t70.5 -67t117 -23q88 0 166 23l12 -42q-74 -29 -188 -29q-149 0 -215 89t-66 255q0 48 7.5 94t27 95t50.5 85t83 59.5t118 23.5zM460 857l-130 -135l-28 22
l113 153z" />
    <glyph glyph-name="cacute" unicode="&#x107;" horiz-adv-x="445" 
d="M107 240q0 -201 151 -201q63 0 145 33l15 -39q-73 -40 -163 -40q-206 0 -206 243q0 34 5 66t19 68.5t36.5 63.5t62 44.5t90.5 17.5q79 0 137 -25l-15 -42q-56 20 -118 20q-78 0 -118.5 -56t-40.5 -153zM351 679l-131 -136l-26 22l112 154z" />
    <glyph glyph-name="Ccircumflex" unicode="&#x108;" horiz-adv-x="569" 
d="M346 694q102 0 170 -27l-14 -45q-73 24 -151 24q-116 0 -173 -81.5t-57 -228.5q0 -64 9.5 -112.5t33 -92.5t70.5 -67t117 -23q88 0 166 23l12 -42q-74 -29 -188 -29q-149 0 -215 89t-66 255q0 48 7.5 94t27 95t50.5 85t83 59.5t118 23.5zM490 746l-19 -22l-145 95
l-144 -96l-18 21l141 131h43z" />
    <glyph glyph-name="ccircumflex" unicode="&#x109;" horiz-adv-x="445" 
d="M107 240q0 -201 151 -201q63 0 145 33l15 -39q-73 -40 -163 -40q-206 0 -206 243q0 34 5 66t19 68.5t36.5 63.5t62 44.5t90.5 17.5q79 0 137 -25l-15 -42q-56 20 -118 20q-78 0 -118.5 -56t-40.5 -153zM412 562l-18 -22l-145 98l-145 -99l-17 21l140 134h43z" />
    <glyph glyph-name="Cdotaccent" unicode="&#x10a;" horiz-adv-x="569" 
d="M346 694q102 0 170 -27l-14 -45q-73 24 -151 24q-116 0 -173 -81.5t-57 -228.5q0 -64 9.5 -112.5t33 -92.5t70.5 -67t117 -23q88 0 166 23l12 -42q-74 -29 -188 -29q-149 0 -215 89t-66 255q0 48 7.5 94t27 95t50.5 85t83 59.5t118 23.5zM370 806q0 -17 -13 -30t-30 -13
t-29.5 13t-12.5 30t12.5 30t29.5 13t30 -13t13 -30z" />
    <glyph glyph-name="cdotaccent" unicode="&#x10b;" horiz-adv-x="445" 
d="M107 240q0 -201 151 -201q63 0 145 33l15 -39q-73 -40 -163 -40q-206 0 -206 243q0 34 5 66t19 68.5t36.5 63.5t62 44.5t90.5 17.5q79 0 137 -25l-15 -42q-56 20 -118 20q-78 0 -118.5 -56t-40.5 -153zM288 609q0 -17 -11.5 -29.5t-26.5 -12.5q-16 0 -27 12.5t-11 29.5
t11 29t27 12q15 0 26.5 -12.5t11.5 -28.5z" />
    <glyph glyph-name="Ccaron" unicode="&#x10c;" horiz-adv-x="569" 
d="M346 694q102 0 170 -27l-14 -45q-73 24 -151 24q-116 0 -173 -81.5t-57 -228.5q0 -64 9.5 -112.5t33 -92.5t70.5 -67t117 -23q88 0 166 23l12 -42q-74 -29 -188 -29q-149 0 -215 89t-66 255q0 48 7.5 94t27 95t50.5 85t83 59.5t118 23.5zM469 874l18 -21l-142 -129h-42
l-142 130l18 21l145 -97z" />
    <glyph glyph-name="ccaron" unicode="&#x10d;" horiz-adv-x="445" 
d="M107 240q0 -201 151 -201q63 0 145 33l15 -39q-73 -40 -163 -40q-206 0 -206 243q0 34 5 66t19 68.5t36.5 63.5t62 44.5t90.5 17.5q79 0 137 -25l-15 -42q-56 20 -118 20q-78 0 -118.5 -56t-40.5 -153zM395 706l18 -22l-141 -133h-43l-141 135l18 21l145 -100z" />
    <glyph glyph-name="Dcaron" unicode="&#x10e;" horiz-adv-x="623" 
d="M280 0h-200v684h210q273 0 273 -341q0 -343 -283 -343zM279 637h-139v-589h132q19 0 32.5 1t39 6.5t44.5 16t42 32t37.5 51t24.5 76t10 105.5q0 60 -9 108t-23 79t-35 53.5t-39.5 34t-43 18t-39.5 7.5t-34 1zM417 874l18 -21l-142 -129h-42l-142 130l18 21l145 -97z" />
    <glyph glyph-name="dcaron" unicode="&#x10f;" horiz-adv-x="571" 
d="M500 682q0 17 11.5 28.5t29.5 11.5q20 0 32.5 -13.5t12.5 -36.5q-3 -65 -66 -104l-15 17q26 27 26 59q-31 7 -31 38zM383 50q-1 0 -1 0.5t-1 0.5q-70 -57 -155 -57q-177 0 -177 239q0 119 46 190.5t145 71.5q79 0 142 -38v252h56v-709h-55v50zM382 98v311q-24 15 -62 27
t-73 12q-140 0 -140 -216q0 -105 34.5 -149t99.5 -44q32 0 74.5 18t66.5 41z" />
    <glyph glyph-name="Dcroat" unicode="&#x110;" horiz-adv-x="623" 
d="M280 0h-200v337h-64v44h64v303h210q273 0 273 -341q0 -343 -283 -343zM279 637h-139v-256h181v-44h-181v-289h132q19 0 32.5 1t39 6.5t44.5 16t42 32t37.5 51t24.5 76t10 105.5q0 60 -9 108t-23 79t-35 53.5t-39.5 34t-43 18t-39.5 7.5t-34 1z" />
    <glyph glyph-name="dcroat" unicode="&#x111;" horiz-adv-x="498" 
d="M383 0v51l-1 1q-71 -58 -157 -58q-177 0 -177 233q0 118 46.5 187.5t145.5 69.5q77 0 142 -39v104h-161v36h161v124h55v-124h62v-36h-62v-549h-54zM382 97v300q-60 40 -136 40q-140 0 -140 -211q0 -104 34.5 -146t100.5 -42q32 0 74.5 18t66.5 41z" />
    <glyph glyph-name="Emacron" unicode="&#x112;" horiz-adv-x="531" 
d="M490 0h-410v683h393v-46h-334v-252h286v-46h-286v-292h351v-47zM128 748v47h308v-47h-308z" />
    <glyph glyph-name="emacron" unicode="&#x113;" horiz-adv-x="486" 
d="M254 453q-131 0 -146 -180h278q0 180 -132 180zM253 495q187 0 187 -233v-29h-333q-2 -195 150 -195q74 0 155 37l15 -38q-82 -44 -172 -44q-60 0 -102 19t-64 55t-31 78t-9 96q0 29 4 58t17 66t34 64.5t59.5 46.5t89.5 19zM100 596v47h310v-47h-310z" />
    <glyph glyph-name="Ebreve" unicode="&#x114;" horiz-adv-x="531" 
d="M490 0h-410v683h393v-46h-334v-252h286v-46h-286v-292h351v-47zM274 725q-82 0 -151 102l37 25q56 -81 118 -81q61 0 138 75l21 -17q-75 -104 -163 -104z" />
    <glyph glyph-name="ebreve" unicode="&#x115;" horiz-adv-x="486" 
d="M254 453q-131 0 -146 -180h278q0 180 -132 180zM253 495q187 0 187 -233v-29h-333q-2 -195 150 -195q74 0 155 37l15 -38q-82 -44 -172 -44q-60 0 -102 19t-64 55t-31 78t-9 96q0 29 4 58t17 66t34 64.5t59.5 46.5t89.5 19zM247 557q-82 0 -151 103l36 25q57 -80 118 -80
q63 0 138 74l21 -18q-74 -104 -162 -104z" />
    <glyph glyph-name="Edotaccent" unicode="&#x116;" horiz-adv-x="531" 
d="M490 0h-410v683h393v-46h-334v-252h286v-46h-286v-292h351v-47zM332 799q0 -17 -13 -30t-30 -13t-29.5 13t-12.5 30t12.5 30t29.5 13t30 -13t13 -30z" />
    <glyph glyph-name="edotaccent" unicode="&#x117;" horiz-adv-x="486" 
d="M254 453q-131 0 -146 -180h278q0 180 -132 180zM253 495q187 0 187 -233v-29h-333q-2 -195 150 -195q74 0 155 37l15 -38q-82 -44 -172 -44q-60 0 -102 19t-64 55t-31 78t-9 96q0 29 4 58t17 66t34 64.5t59.5 46.5t89.5 19zM297 606q0 -17 -13 -30t-30 -13t-29.5 13
t-12.5 30t12.5 30t29.5 13t30 -13t13 -30z" />
    <glyph glyph-name="Eogonek" unicode="&#x118;" horiz-adv-x="531" 
d="M490 0h-22q-54 -58 -54 -115q0 -51 61 -51q30 0 70 11l6 -24q-45 -24 -98 -24q-44 0 -67 18.5t-23 50.5q0 69 72 134h-355v683h393v-46h-334v-252h286v-46h-286v-292h351v-47z" />
    <glyph glyph-name="eogonek" unicode="&#x119;" horiz-adv-x="486" 
d="M253 495q187 0 187 -233v-29h-333q-2 -195 150 -195q74 0 155 37l15 -38q-33 -17 -56 -25q-45 -55 -45 -104q0 -51 61 -51q30 0 70 11l6 -24q-45 -24 -98 -24q-44 0 -67 18.5t-23 50.5q0 56 48 110q-33 -6 -68 -6q-60 0 -102 19t-64 55t-31 78t-9 96q0 29 4 58t17 66
t34 64.5t59.5 46.5t89.5 19zM254 453q-131 0 -146 -180h278q0 180 -132 180z" />
    <glyph glyph-name="Ecaron" unicode="&#x11a;" horiz-adv-x="531" 
d="M490 0h-410v683h393v-46h-334v-252h286v-46h-286v-292h351v-47zM418 874l18 -21l-142 -129h-42l-142 130l18 21l145 -97z" />
    <glyph glyph-name="ecaron" unicode="&#x11b;" horiz-adv-x="486" 
d="M254 453q-131 0 -146 -180h278q0 180 -132 180zM253 495q187 0 187 -233v-29h-333q-2 -195 150 -195q74 0 155 37l15 -38q-82 -44 -172 -44q-60 0 -102 19t-64 55t-31 78t-9 96q0 29 4 58t17 66t34 64.5t59.5 46.5t89.5 19zM397 701l18 -22l-141 -133h-43l-141 135l18 21
l145 -100z" />
    <glyph glyph-name="Gcircumflex" unicode="&#x11c;" horiz-adv-x="609" 
d="M360 694q105 0 173 -27l-12 -44q-79 23 -157 23q-121 0 -182 -82.5t-61 -229.5q0 -50 5.5 -89.5t20.5 -78.5t40 -65.5t66 -42.5t96 -16q79 0 134 19v285h56v-324q-88 -29 -197 -29q-282 0 -282 345q0 48 8 93.5t29 94.5t53.5 85t86.5 59.5t123 23.5zM509 746l-19 -22
l-145 95l-144 -96l-18 21l141 131h43z" />
    <glyph glyph-name="gcircumflex" unicode="&#x11d;" horiz-adv-x="522" 
d="M133 192l1 3q-30 15 -50 48.5t-20 82.5q0 85 54.5 127.5t128.5 42.5q55 0 89 -11h150v-40h-84l-2 -3q44 -37 44 -113q0 -77 -54 -121t-143 -44h-57q-43 0 -65.5 -8.5t-22.5 -33.5q0 -39 59 -39h134q88 0 132 -37t44 -105q0 -73 -62 -115.5t-164 -42.5q-200 0 -200 142
q0 40 19 73.5t45 48.5q-61 9 -61 67q0 69 85 78zM286 40h-119q-28 -11 -47.5 -42t-19.5 -62q0 -110 154 -110q73 0 117 31t44 83q0 100 -129 100zM388 329q0 49 -32.5 86.5t-102.5 37.5q-64 0 -98.5 -33.5t-34.5 -91.5q0 -54 34 -88t87 -34q67 0 107 31.5t40 91.5zM414 562
l-18 -22l-145 98l-145 -99l-17 21l140 134h43z" />
    <glyph glyph-name="Gbreve" unicode="&#x11e;" horiz-adv-x="609" 
d="M360 694q105 0 173 -27l-12 -44q-79 23 -157 23q-121 0 -182 -82.5t-61 -229.5q0 -50 5.5 -89.5t20.5 -78.5t40 -65.5t66 -42.5t96 -16q79 0 134 19v285h56v-324q-88 -29 -197 -29q-282 0 -282 345q0 48 8 93.5t29 94.5t53.5 85t86.5 59.5t123 23.5zM338 733
q-82 0 -151 102l37 25q56 -81 118 -81q61 0 138 75l21 -17q-75 -104 -163 -104z" />
    <glyph glyph-name="gbreve" unicode="&#x11f;" horiz-adv-x="522" 
d="M133 192l1 3q-30 15 -50 48.5t-20 82.5q0 85 54.5 127.5t128.5 42.5q55 0 89 -11h150v-40h-84l-2 -3q44 -37 44 -113q0 -77 -54 -121t-143 -44h-57q-43 0 -65.5 -8.5t-22.5 -33.5q0 -39 59 -39h134q88 0 132 -37t44 -105q0 -73 -62 -115.5t-164 -42.5q-200 0 -200 142
q0 40 19 73.5t45 48.5q-61 9 -61 67q0 69 85 78zM286 40h-119q-28 -11 -47.5 -42t-19.5 -62q0 -110 154 -110q73 0 117 31t44 83q0 100 -129 100zM388 329q0 49 -32.5 86.5t-102.5 37.5q-64 0 -98.5 -33.5t-34.5 -91.5q0 -54 34 -88t87 -34q67 0 107 31.5t40 91.5zM253 557
q-82 0 -151 103l36 25q57 -80 118 -80q63 0 138 74l21 -18q-74 -104 -162 -104z" />
    <glyph glyph-name="Gdotaccent" unicode="&#x120;" horiz-adv-x="609" 
d="M360 694q105 0 173 -27l-12 -44q-79 23 -157 23q-121 0 -182 -82.5t-61 -229.5q0 -50 5.5 -89.5t20.5 -78.5t40 -65.5t66 -42.5t96 -16q79 0 134 19v285h56v-324q-88 -29 -197 -29q-282 0 -282 345q0 48 8 93.5t29 94.5t53.5 85t86.5 59.5t123 23.5zM396 800
q0 -17 -13 -30t-30 -13t-29.5 13t-12.5 30t12.5 30t29.5 13t30 -13t13 -30z" />
    <glyph glyph-name="gdotaccent" unicode="&#x121;" horiz-adv-x="522" 
d="M133 192l1 3q-30 15 -50 48.5t-20 82.5q0 85 54.5 127.5t128.5 42.5q55 0 89 -11h150v-40h-84l-2 -3q44 -37 44 -113q0 -77 -54 -121t-143 -44h-57q-43 0 -65.5 -8.5t-22.5 -33.5q0 -39 59 -39h134q88 0 132 -37t44 -105q0 -73 -62 -115.5t-164 -42.5q-200 0 -200 142
q0 40 19 73.5t45 48.5q-61 9 -61 67q0 69 85 78zM286 40h-119q-28 -11 -47.5 -42t-19.5 -62q0 -110 154 -110q73 0 117 31t44 83q0 100 -129 100zM388 329q0 49 -32.5 86.5t-102.5 37.5q-64 0 -98.5 -33.5t-34.5 -91.5q0 -54 34 -88t87 -34q67 0 107 31.5t40 91.5zM292 613
q0 -17 -13 -30t-30 -13t-29.5 13t-12.5 30t12.5 30t29.5 13t30 -13t13 -30z" />
    <glyph glyph-name="Gcommaaccent" unicode="&#x122;" horiz-adv-x="609" 
d="M360 694q105 0 173 -27l-12 -44q-79 23 -157 23q-121 0 -182 -82.5t-61 -229.5q0 -50 5.5 -89.5t20.5 -78.5t40 -65.5t66 -42.5t96 -16q79 0 134 19v285h56v-324q-88 -29 -197 -29q-282 0 -282 345q0 48 8 93.5t29 94.5t53.5 85t86.5 59.5t123 23.5zM296 -98
q0 17 11.5 28.5t29.5 11.5q20 0 32.5 -13.5t12.5 -36.5q-3 -65 -66 -104l-15 17q26 27 26 59q-31 7 -31 38z" />
    <glyph glyph-name="gcommaaccent" unicode="&#x123;" horiz-adv-x="522" 
d="M133 192l1 3q-30 15 -50 48.5t-20 82.5q0 85 54.5 127.5t128.5 42.5q55 0 89 -11h150v-40h-84l-2 -3q44 -37 44 -113q0 -77 -54 -121t-143 -44h-57q-43 0 -65.5 -8.5t-22.5 -33.5q0 -39 59 -39h134q88 0 132 -37t44 -105q0 -73 -62 -115.5t-164 -42.5q-200 0 -200 142
q0 40 19 73.5t45 48.5q-61 9 -61 67q0 69 85 78zM286 40h-119q-28 -11 -47.5 -42t-19.5 -62q0 -110 154 -110q73 0 117 31t44 83q0 100 -129 100zM388 329q0 49 -32.5 86.5t-102.5 37.5q-64 0 -98.5 -33.5t-34.5 -91.5q0 -54 34 -88t87 -34q67 0 107 31.5t40 91.5zM295 593
q0 -17 -12 -29t-31 -12q-20 0 -32 13.5t-12 35.5v2q0 61 66 102q10 -12 15 -17q-26 -27 -26 -57q32 -7 32 -38z" />
    <glyph glyph-name="Hcircumflex" unicode="&#x124;" horiz-adv-x="626" 
d="M546 0h-61v336h-345q0 -30 0.5 -167.5t0.5 -168.5h-61v683h61q0 -27 -0.5 -148.5t-0.5 -148.5h345v297h61v-683zM472 746l-19 -22l-145 95l-144 -96l-18 21l141 131h43z" />
    <glyph glyph-name="hcircumflex" unicode="&#x125;" horiz-adv-x="490" 
d="M112 443l6 -3q105 56 178 56q37 0 63.5 -10t40 -23.5t21 -36.5t9 -39.5t1.5 -41.5v-345h-56v328q0 63 -17.5 91.5t-76.5 28.5q-70 0 -166 -53v-395h-56v710h55v-149q0 -78 -2 -118zM253 757l-18 -22l-145 98l-145 -99l-17 21l140 134h43z" />
    <glyph glyph-name="Hbar" unicode="&#x126;" horiz-adv-x="626" 
d="M546 0h-61v336h-344v-336h-61v513h-61v37h61v133h61v-133h344v133h61v-133h61v-37h-61v-513zM141 386h344v127h-344v-127z" />
    <glyph glyph-name="hbar" unicode="&#x127;" horiz-adv-x="501" 
d="M441 0h-56v311q0 63 -17.5 92t-76.5 29q-67 0 -165 -54v-378h-57v554h-67v35h67v121h56v-121h195v-35h-195v-133q109 58 182 58q37 0 63.5 -10t40 -23.5t20.5 -36.5t8.5 -39.5t1.5 -41.5v-328z" />
    <glyph glyph-name="Itilde" unicode="&#x128;" horiz-adv-x="238" 
d="M148 0h-58v684h58v-684zM193 757q-27 0 -78.5 19.5t-67.5 19.5l-53 -40l-22 15q11 30 32 48.5t46 18.5q23 0 75.5 -18.5t69.5 -18.5l52 40l21 -16q-11 -30 -31 -49t-44 -19z" />
    <glyph glyph-name="itilde" unicode="&#x129;" horiz-adv-x="225" 
d="M139 0h-56v486h56v-486zM41 618l-53 -40l-21 16q11 31 31 49t46 18q23 0 74.5 -19t69.5 -19l53 40l21 -16q-25 -67 -76 -67q-26 0 -77.5 19t-67.5 19z" />
    <glyph glyph-name="Imacron" unicode="&#x12a;" horiz-adv-x="238" 
d="M148 0h-58v684h58v-684zM-34 748v47h308v-47h-308z" />
    <glyph glyph-name="imacron" unicode="&#x12b;" horiz-adv-x="225" 
d="M139 0h-56v486h56v-486zM-42 642h309v-47h-309v47z" />
    <glyph glyph-name="Ibreve" unicode="&#x12c;" horiz-adv-x="238" 
d="M114 728q-82 0 -151 102l37 25q56 -81 118 -81q61 0 138 75l21 -17q-75 -104 -163 -104zM148 0h-58v684h58v-684z" />
    <glyph glyph-name="ibreve" unicode="&#x12d;" horiz-adv-x="225" 
d="M140 0h-56v487h56v-487zM106 557q-80 0 -151 103l37 25q55 -80 117 -80q63 0 139 74l21 -18q-76 -104 -163 -104z" />
    <glyph glyph-name="Iogonek" unicode="&#x12e;" horiz-adv-x="238" 
d="M148 0h-30q-53 -59 -53 -114q0 -51 61 -51q30 0 70 11l6 -24q-45 -24 -98 -24q-44 0 -67 18.5t-23 50.5q0 72 76 137v680h58v-684z" />
    <glyph glyph-name="iogonek" unicode="&#x12f;" horiz-adv-x="225" 
d="M140 0h-26q-49 -56 -49 -109q0 -51 61 -51q30 0 70 11l6 -24q-45 -24 -98 -24q-44 0 -67 18.5t-23 50.5q0 68 70 132v483h56v-487zM153 612q0 -16 -12 -28t-29 -12q-16 0 -28 12t-12 28q0 17 12 29.5t28 12.5q17 0 29 -12.5t12 -29.5z" />
    <glyph glyph-name="Idotaccent" unicode="&#x130;" horiz-adv-x="238" 
d="M148 0h-58v684h58v-684zM162 806q0 -17 -13 -30t-30 -13t-29.5 13t-12.5 30t12.5 30t29.5 13t30 -13t13 -30z" />
    <glyph glyph-name="dotlessi" unicode="&#x131;" horiz-adv-x="225" 
d="M140 0h-56v487h56v-487z" />
    <glyph glyph-name="IJ" unicode="&#x132;" horiz-adv-x="516" 
d="M149 0h-59v684h59v-684zM356 115v569h59v-565q0 -118 -51 -186t-157 -112l-19 43q94 55 131 107t37 144z" />
    <glyph glyph-name="ij" unicode="&#x133;" horiz-adv-x="435" 
d="M297 -3v490h56v-489q-2 -86 -35 -132t-121 -82q-2 6 -8.5 20.5t-8.5 18.5q71 39 94 74.5t23 99.5zM140 0h-57q0 50 0.5 243t0.5 244h56v-487zM285 612q0 17 12 29.5t28 12.5q17 0 29.5 -12.5t12.5 -29.5q0 -16 -12.5 -28t-29.5 -12q-16 0 -28 12t-12 28zM153 612
q0 -16 -12.5 -28t-29.5 -12q-15 0 -27.5 12t-12.5 28q0 17 12.5 29.5t27.5 12.5q17 0 29.5 -12.5t12.5 -29.5z" />
    <glyph glyph-name="Jcircumflex" unicode="&#x134;" horiz-adv-x="283" 
d="M125 116v569h58v-566q0 -117 -51 -185t-157 -112l-18 43q94 55 131 107t37 144zM318 746l-19 -22l-145 95l-144 -96l-18 21l141 131h43z" />
    <glyph glyph-name="jcircumflex" unicode="&#x135;" horiz-adv-x="234" 
d="M91 -2v488h55v-487q-2 -86 -34.5 -132.5t-118.5 -81.5l-18 39q70 39 93 74.5t23 99.5zM265 540l-145 96l-143 -97q-3 3 -8.5 10t-9.5 11l139 134h43l45.5 -42.5l52 -48.5l44.5 -42z" />
    <glyph glyph-name="Kcommaaccent" unicode="&#x136;" horiz-adv-x="550" 
d="M139 285v-285h-59v684h59v-330l320 330h70l-268 -274l275 -410h-67l-247 369zM243 -87q0 17 11.5 28.5t29.5 11.5q20 0 32.5 -13.5t12.5 -36.5q-3 -65 -66 -104l-15 17q26 27 26 59q-31 7 -31 38z" />
    <glyph glyph-name="kcommaaccent" unicode="&#x137;" horiz-adv-x="429" 
d="M112 265q1 0 5 -2l59 60l165 163h65l-191 -190q2 -2 13.5 -17l17.5 -23l173 -256h-63l-97.5 143.5l-79.5 118.5q-10 -11 -32.5 -32.5t-32.5 -32.5v-197h-56v708h56v-321zM180 -85q0 17 11.5 28.5t29.5 11.5q20 0 32.5 -13.5t12.5 -36.5q-3 -65 -66 -104l-15 17
q26 27 26 59q-31 7 -31 38z" />
    <glyph glyph-name="kgreenlandic" unicode="&#x138;" horiz-adv-x="429" 
d="M112 265q1 0 5 -2l57 58l167 165h65l-191 -190q2 -2 13.5 -17l17.5 -23l173 -256h-63l-97.5 143.5l-79.5 118.5q-10 -11 -32.5 -32.5t-32.5 -32.5v-197h-56v486h56v-93z" />
    <glyph glyph-name="Lacute" unicode="&#x139;" horiz-adv-x="531" 
d="M516 0h-425v683h60v-637h365v-46zM260 857l-130 -135l-28 22l113 153z" />
    <glyph glyph-name="lacute" unicode="&#x13a;" horiz-adv-x="205" 
d="M130 710v-710h-56v710h56zM229 867l-130 -135l-28 22l113 153z" />
    <glyph glyph-name="Lcommaaccent" unicode="&#x13b;" horiz-adv-x="531" 
d="M516 0h-425v683h60v-637h365v-46zM249 -98q0 17 11.5 28.5t29.5 11.5q20 0 32.5 -13.5t12.5 -36.5q-3 -65 -66 -104l-15 17q26 27 26 59q-31 7 -31 38z" />
    <glyph glyph-name="lcommaaccent" unicode="&#x13c;" horiz-adv-x="205" 
d="M130 710v-710h-56v710h56zM59 -98q0 17 11.5 28.5t29.5 11.5q20 0 32.5 -13.5t12.5 -36.5q-3 -65 -66 -104l-15 17q26 27 26 59q-31 7 -31 38z" />
    <glyph glyph-name="Lcaron" unicode="&#x13d;" horiz-adv-x="531" 
d="M150 682v-637h366v-45h-425v682h59zM378 597q-30 5 -30 38q0 17 11.5 28.5t29.5 11.5q20 0 32 -13t12 -35q0 -65 -66 -107l-14 18q25 26 25 59z" />
    <glyph glyph-name="lcaron" unicode="&#x13e;" horiz-adv-x="283" 
d="M221 630q-30 5 -30 37q0 17 11.5 29t29.5 12q19 0 31.5 -13.5t12.5 -34.5q0 -66 -66 -107l-14 18q25 26 25 59zM130 709q0 -119 -0.5 -355t-0.5 -354h-56v709h57z" />
    <glyph glyph-name="Ldot" unicode="&#x13f;" horiz-adv-x="531" 
d="M150 682v-637h366v-45h-425v682h59zM421 373q0 -18 -13 -30.5t-30 -12.5q-18 0 -30 12.5t-12 30.5t12 30.5t30 12.5q17 0 30 -13t13 -30z" />
    <glyph glyph-name="ldot" unicode="&#x140;" horiz-adv-x="278" 
d="M270 353q0 -17 -12.5 -29.5t-29.5 -12.5q-18 0 -30 12.5t-12 29.5q0 18 12 30.5t30 12.5q17 0 29.5 -12.5t12.5 -30.5zM130 710v-710h-56v710h56z" />
    <glyph glyph-name="Lslash" unicode="&#x141;" horiz-adv-x="531" 
d="M516 0h-425v258l-69 -40l-21 34l90 51v380h60v-345l132 76l20 -32l-152 -89v-247h365v-46z" />
    <glyph glyph-name="lslash" unicode="&#x142;" horiz-adv-x="205" 
d="M130 710l-1 -332l82 46q13 -20 19 -33q-44 -27 -101 -57v-334h-55v302q-8 -5 -74 -44q-2 5 -9.5 18t-9.5 16l93 54v364h56z" />
    <glyph glyph-name="Nacute" unicode="&#x143;" horiz-adv-x="658" 
d="M516 100h4v583h58l-1 -683h-57l-142.5 221l-156.5 242l-80 129q-1 0 -2 -0.5t-2 -0.5v-591h-57v683h60l296 -459zM457 850l-130 -135l-28 22l113 153z" />
    <glyph glyph-name="nacute" unicode="&#x144;" horiz-adv-x="490" 
d="M431 0h-56v327q0 62 -19 91.5t-75 29.5q-70 0 -166 -53v-395h-56v487h55q0 -3 0.5 -22t0.5 -23q2 -1 3 -2q92 56 177 56q45 0 74.5 -12.5t41.5 -36t16 -44.5t4 -52v-351zM340 679l-131 -136l-26 22l112 154z" />
    <glyph glyph-name="Ncommaaccent" unicode="&#x145;" horiz-adv-x="658" 
d="M516 100h4v583h58l-1 -683h-57l-142.5 221l-156.5 242l-80 129q-1 0 -2 -0.5t-2 -0.5v-591h-57v683h60l296 -459zM279 -93q0 17 11.5 28.5t29.5 11.5q20 0 32.5 -13.5t12.5 -36.5q-3 -65 -66 -104l-15 17q26 27 26 59q-31 7 -31 38z" />
    <glyph glyph-name="ncommaaccent" unicode="&#x146;" horiz-adv-x="490" 
d="M431 0h-56v327q0 62 -19 91.5t-75 29.5q-70 0 -166 -53v-395h-56v487h55q0 -3 0.5 -22t0.5 -23q2 -1 3 -2q92 56 177 56q45 0 74.5 -12.5t41.5 -36t16 -44.5t4 -52v-351zM209 -90q0 17 11.5 28.5t29.5 11.5q20 0 32.5 -13.5t12.5 -36.5q-3 -65 -66 -104l-15 17
q26 27 26 59q-31 7 -31 38z" />
    <glyph glyph-name="Ncaron" unicode="&#x147;" horiz-adv-x="658" 
d="M516 100h4v583h58l-1 -683h-57l-142.5 221l-156.5 242l-80 129q-1 0 -2 -0.5t-2 -0.5v-591h-57v683h60l296 -459zM489 874l18 -21l-142 -129h-42l-142 130l18 21l145 -97z" />
    <glyph glyph-name="ncaron" unicode="&#x148;" horiz-adv-x="490" 
d="M431 0h-56v327q0 62 -19 91.5t-75 29.5q-70 0 -166 -53v-395h-56v487h55q0 -3 0.5 -22t0.5 -23q2 -1 3 -2q92 56 177 56q45 0 74.5 -12.5t41.5 -36t16 -44.5t4 -52v-351zM380 706l18 -22l-141 -133h-43l-141 135l18 21l145 -100z" />
    <glyph glyph-name="napostrophe" unicode="&#x149;" horiz-adv-x="540" 
d="M481 0h-56v327q0 62 -19 91.5t-75 29.5q-70 0 -166 -53v-395h-56v487h55q0 -3 0.5 -22t0.5 -23q2 -1 3 -2q92 56 177 56q45 0 74.5 -12.5t41.5 -36t16 -44.5t4 -52v-351zM-10 602q0 17 11.5 28.5t29.5 11.5q20 0 32.5 -13.5t12.5 -36.5q-3 -65 -66 -104l-15 17
q26 27 26 59q-31 7 -31 38z" />
    <glyph glyph-name="Eng" unicode="&#x14a;" horiz-adv-x="658" 
d="M516 100h4v583h58l-1 -742q0 -58 -33.5 -89t-96.5 -31q-36 0 -78 10l7 43q37 -5 65 -5q82 0 82 69v56l-302 469l-80 129q-1 0 -2 -0.5t-2 -0.5v-591h-57v683h60l296 -459z" />
    <glyph glyph-name="eng" unicode="&#x14b;" horiz-adv-x="490" 
d="M287 -107q87 0 87 75v359q0 64 -17.5 92t-76.5 28q-72 0 -166 -53v-394h-55q0 81 -0.5 243t-0.5 243h57v-46q1 0 1 -1q93 56 177 56q45 0 74.5 -12.5t42 -36t16.5 -44.5t4 -52t-0.5 -146t-0.5 -224q0 -63 -30.5 -96.5t-104.5 -33.5q-38 0 -75 8l9 42q30 -7 59 -7z" />
    <glyph glyph-name="Omacron" unicode="&#x14c;" horiz-adv-x="676" 
d="M616 339q0 -154 -70.5 -249.5t-201.5 -96.5q-150 0 -217 88.5t-67 254.5q0 58 9 109t30 97.5t53 79.5t81 52.5t111 19.5q272 0 272 -355zM554 336q0 312 -210 312q-223 0 -223 -314q0 -147 53 -221t167 -74q105 0 159 83t54 214zM184 748v47h308v-47h-308z" />
    <glyph glyph-name="omacron" unicode="&#x14d;" horiz-adv-x="505" 
d="M457 241q0 -49 -10 -90.5t-32 -78.5t-64 -58t-101 -21q-108 0 -154.5 68.5t-46.5 177.5q0 107 51 181.5t157 74.5q56 0 97 -21.5t62.5 -59t31 -80.5t9.5 -93zM399 239q0 211 -142 211q-43 0 -73.5 -18.5t-46.5 -50.5t-23 -67t-7 -76q0 -43 6 -75.5t21 -62.5t46 -46
t77 -16q142 0 142 201zM100 596v47h310v-47h-310z" />
    <glyph glyph-name="Obreve" unicode="&#x14e;" horiz-adv-x="676" 
d="M616 339q0 -154 -70.5 -249.5t-201.5 -96.5q-150 0 -217 88.5t-67 254.5q0 58 9 109t30 97.5t53 79.5t81 52.5t111 19.5q272 0 272 -355zM554 336q0 312 -210 312q-223 0 -223 -314q0 -147 53 -221t167 -74q105 0 159 83t54 214zM337 731q-82 0 -151 102l37 25
q56 -81 118 -81q61 0 138 75l21 -17q-75 -104 -163 -104z" />
    <glyph glyph-name="obreve" unicode="&#x14f;" horiz-adv-x="505" 
d="M457 241q0 -49 -10 -90.5t-32 -78.5t-64 -58t-101 -21q-108 0 -154.5 68.5t-46.5 177.5q0 107 51 181.5t157 74.5q56 0 97 -21.5t62.5 -59t31 -80.5t9.5 -93zM399 239q0 211 -142 211q-43 0 -73.5 -18.5t-46.5 -50.5t-23 -67t-7 -76q0 -43 6 -75.5t21 -62.5t46 -46
t77 -16q142 0 142 201zM252 556q-79 0 -149 104l36 25q56 -81 116 -81q62 0 137 75l21 -18q-74 -105 -161 -105z" />
    <glyph glyph-name="Ohungarumlaut" unicode="&#x150;" horiz-adv-x="676" 
d="M616 339q0 -154 -70.5 -249.5t-201.5 -96.5q-150 0 -217 88.5t-67 254.5q0 58 9 109t30 97.5t53 79.5t81 52.5t111 19.5q272 0 272 -355zM554 336q0 312 -210 312q-223 0 -223 -314q0 -147 53 -221t167 -74q105 0 159 83t54 214zM518 863l-128 -140l-29 21l110 156z
M408 863l-127 -140l-29 21l109 156z" />
    <glyph glyph-name="ohungarumlaut" unicode="&#x151;" horiz-adv-x="505" 
d="M457 241q0 -49 -10 -90.5t-32 -78.5t-64 -58t-101 -21q-108 0 -154.5 68.5t-46.5 177.5q0 107 51 181.5t157 74.5q56 0 97 -21.5t62.5 -59t31 -80.5t9.5 -93zM399 239q0 211 -142 211q-43 0 -73.5 -18.5t-46.5 -50.5t-23 -67t-7 -76q0 -43 6 -75.5t21 -62.5t46 -46
t77 -16q142 0 142 201zM308 682l-128 -139l-26 20l109 157zM419 682l-128 -139l-26 20l109 157z" />
    <glyph glyph-name="OE" unicode="&#x152;" horiz-adv-x="781" 
d="M334 694q54 0 92 -12h307v-45h-312v-254h265v-45h-265v-293h329v-45h-351q-28 -5 -65 -7q-150 0 -217 88.5t-67 254.5q0 58 9 109t30 97.5t53 79.5t81 52.5t111 19.5zM331 38q11 0 31 2v605q-4 0 -13.5 1t-15.5 1q-222 0 -222 -313q0 -147 53 -221.5t167 -74.5z" />
    <glyph glyph-name="oe" unicode="&#x153;" horiz-adv-x="820" 
d="M754 75l15 -38q-83 -43 -171 -43q-136 0 -179 112q-48 -113 -176 -113q-108 0 -154.5 68.5t-46.5 177.5q0 68 19 123.5t67.5 94t120.5 38.5q128 0 172 -121q48 121 177 121q185 0 185 -232v-28h-332q-2 -196 149 -196q75 0 154 36zM391 239q0 211 -142 211
q-43 0 -73.5 -18.5t-46 -50.5t-22.5 -67t-7 -76q0 -43 6 -75.5t21 -62.5t46 -46t76 -16q142 0 142 201zM452 272h277q0 179 -132 179t-145 -179z" />
    <glyph glyph-name="Racute" unicode="&#x154;" horiz-adv-x="563" 
d="M497 500q0 -63 -31 -113t-92 -65q37 -12 57.5 -41t34.5 -77l59 -204h-60l-56 196q-20 63 -53.5 87t-86.5 24h-130v-307h-59v684h215q101 0 151.5 -50.5t50.5 -133.5zM139 354h153q63 0 103.5 34.5t40.5 108.5q0 69 -40 104t-107 35h-150v-282zM386 857l-130 -135l-28 22
l113 153z" />
    <glyph glyph-name="racute" unicode="&#x155;" horiz-adv-x="314" 
d="M123 423l5 -2q34 29 81.5 53t78.5 24q20 0 20 -19q0 -28 -19 -55q-17 -2 -82.5 -15.5t-79.5 -15.5v-393h-57v487h56q0 -5 -1.5 -32t-1.5 -32zM246 679l-131 -136l-26 22l112 154z" />
    <glyph glyph-name="Rcommaaccent" unicode="&#x156;" horiz-adv-x="563" 
d="M497 500q0 -63 -31 -113t-92 -65q37 -12 57.5 -41t34.5 -77l59 -204h-60l-56 196q-20 63 -53.5 87t-86.5 24h-130v-307h-59v684h215q101 0 151.5 -50.5t50.5 -133.5zM139 354h153q63 0 103.5 34.5t40.5 108.5q0 69 -40 104t-107 35h-150v-282zM244 -90q0 17 11.5 28.5
t29.5 11.5q20 0 32.5 -13.5t12.5 -36.5q-3 -65 -66 -104l-15 17q26 27 26 59q-31 7 -31 38z" />
    <glyph glyph-name="rcommaaccent" unicode="&#x157;" horiz-adv-x="314" 
d="M123 423l5 -2q34 29 81.5 53t78.5 24q20 0 20 -19q0 -28 -19 -55q-17 -2 -82.5 -15.5t-79.5 -15.5v-393h-57v487h56q0 -5 -1.5 -32t-1.5 -32zM58 -92q0 17 11.5 28.5t29.5 11.5q20 0 32.5 -13.5t12.5 -36.5q-3 -65 -66 -104l-15 17q26 27 26 59q-31 7 -31 38z" />
    <glyph glyph-name="Rcaron" unicode="&#x158;" horiz-adv-x="563" 
d="M497 500q0 -63 -31 -113t-92 -65q37 -12 57.5 -41t34.5 -77l59 -204h-60l-56 196q-20 63 -53.5 87t-86.5 24h-130v-307h-59v684h215q101 0 151.5 -50.5t50.5 -133.5zM139 354h153q63 0 103.5 34.5t40.5 108.5q0 69 -40 104t-107 35h-150v-282zM401 874l18 -21l-142 -129
h-42l-142 130l18 21l145 -97z" />
    <glyph glyph-name="rcaron" unicode="&#x159;" horiz-adv-x="314" 
d="M123 423l5 -2q34 29 81.5 53t78.5 24q20 0 20 -19q0 -28 -19 -55q-17 -2 -82.5 -15.5t-79.5 -15.5v-393h-57v487h56q0 -5 -1.5 -32t-1.5 -32zM291 706l18 -22l-141 -133h-43l-141 135l18 21l145 -100z" />
    <glyph glyph-name="Sacute" unicode="&#x15a;" horiz-adv-x="547" 
d="M277 695q106 0 179 -36l-19 -45q-82 32 -164 32q-69 0 -111 -35.5t-42 -102.5q0 -24 10 -43t23.5 -31t39 -23.5t44 -16.5l50.5 -14q102 -28 139 -51q76 -48 76 -145t-66 -144t-176 -47q-128 0 -214 50l20 44q96 -46 192 -46q91 0 137 33.5t46 109.5q0 62 -39.5 91
t-121.5 50q-44 12 -69 19.5t-58 23t-50.5 32.5t-30.5 44.5t-13 62.5q0 88 60.5 138t157.5 50zM381 855l-130 -135l-28 22l113 153z" />
    <glyph glyph-name="sacute" unicode="&#x15b;" horiz-adv-x="428" 
d="M42 30l19 40q67 -33 144 -33q57 0 92 22.5t35 68.5q0 39 -29.5 59.5t-86.5 39.5q-40 13 -61 21.5t-48 25t-39 39t-12 52.5q0 65 46.5 97.5t118.5 32.5q80 0 136 -30q-15 -37 -17 -41q-63 25 -120 25q-49 0 -79.5 -21t-30.5 -64q0 -53 112 -88q35 -11 49.5 -16t42 -18.5
t39.5 -26.5t22.5 -35.5t10.5 -50.5q0 -68 -50.5 -102t-130.5 -34q-101 0 -163 37zM322 679l-131 -136l-26 22l112 154z" />
    <glyph glyph-name="Scircumflex" unicode="&#x15c;" horiz-adv-x="547" 
d="M277 695q106 0 179 -36l-19 -45q-82 32 -164 32q-69 0 -111 -35.5t-42 -102.5q0 -24 10 -43t23.5 -31t39 -23.5t44 -16.5l50.5 -14q102 -28 139 -51q76 -48 76 -145t-66 -144t-176 -47q-128 0 -214 50l20 44q96 -46 192 -46q91 0 137 33.5t46 109.5q0 62 -39.5 91
t-121.5 50q-44 12 -69 19.5t-58 23t-50.5 32.5t-30.5 44.5t-13 62.5q0 88 60.5 138t157.5 50zM447 746l-19 -22l-145 95l-144 -96l-18 21l141 131h43z" />
    <glyph glyph-name="scircumflex" unicode="&#x15d;" horiz-adv-x="428" 
d="M42 30l19 40q67 -33 144 -33q57 0 92 22.5t35 68.5q0 39 -29.5 59.5t-86.5 39.5q-40 13 -61 21.5t-48 25t-39 39t-12 52.5q0 65 46.5 97.5t118.5 32.5q80 0 136 -30q-15 -37 -17 -41q-63 25 -120 25q-49 0 -79.5 -21t-30.5 -64q0 -53 112 -88q35 -11 49.5 -16t42 -18.5
t39.5 -26.5t22.5 -35.5t10.5 -50.5q0 -68 -50.5 -102t-130.5 -34q-101 0 -163 37zM384 562l-18 -22l-145 98l-145 -99l-17 21l140 134h43z" />
    <glyph glyph-name="Scedilla" unicode="&#x15e;" horiz-adv-x="547" 
d="M277 695q106 0 179 -36l-19 -45q-82 32 -164 32q-69 0 -111 -35.5t-42 -102.5q0 -24 10 -43t23.5 -31t39 -23.5t44 -16.5l50.5 -14q102 -28 139 -51q76 -48 76 -145q0 -91 -58 -137.5t-157 -52.5q-24 -29 -48 -62q115 -2 115 -74q0 -43 -43.5 -71t-128.5 -28
q0 4 -0.5 13.5t-0.5 14.5q125 10 125 67q0 42 -75 44q-11 1 -30 1l-11 16q9 11 29 37.5t32 40.5q-124 2 -205 50l20 44q96 -46 192 -46q91 0 137 33.5t46 109.5q0 62 -39.5 91t-121.5 50q-44 12 -69 19.5t-58 23t-50.5 32.5t-30.5 44.5t-13 62.5q0 88 60.5 138t157.5 50z
" />
    <glyph glyph-name="scedilla" unicode="&#x15f;" horiz-adv-x="428" 
d="M42 30l19 40q67 -33 144 -33q57 0 92 22.5t35 68.5q0 39 -29.5 59.5t-86.5 39.5q-40 13 -61 21.5t-48 25t-39 39t-12 52.5q0 65 46.5 97.5t118.5 32.5q80 0 136 -30q-15 -37 -17 -41q-63 25 -120 25q-49 0 -79.5 -21t-30.5 -64q0 -53 112 -88q35 -11 49.5 -16t42 -18.5
t39.5 -26.5t22.5 -35.5t10.5 -50.5q0 -62 -43 -96t-113 -39q-35 -43 -48 -62q115 -2 115 -74q0 -43 -43.5 -71t-128.5 -28q0 4 -0.5 13.5t-0.5 14.5q125 10 125 67q0 42 -75 44q-11 1 -30 1l-11 16q9 11 29 37.5t32 40.5q-98 4 -152 37z" />
    <glyph glyph-name="Scaron" unicode="&#x160;" horiz-adv-x="547" 
d="M277 695q106 0 179 -36l-19 -45q-82 32 -164 32q-69 0 -111 -35.5t-42 -102.5q0 -24 10 -43t23.5 -31t39 -23.5t44 -16.5l50.5 -14q102 -28 139 -51q76 -48 76 -145t-66 -144t-176 -47q-128 0 -214 50l20 44q96 -46 192 -46q91 0 137 33.5t46 109.5q0 62 -39.5 91
t-121.5 50q-44 12 -69 19.5t-58 23t-50.5 32.5t-30.5 44.5t-13 62.5q0 88 60.5 138t157.5 50zM413 874l18 -21l-142 -129h-42l-142 130l18 21l145 -97z" />
    <glyph glyph-name="scaron" unicode="&#x161;" horiz-adv-x="428" 
d="M42 30l19 40q67 -33 144 -33q57 0 92 22.5t35 68.5q0 39 -29.5 59.5t-86.5 39.5q-40 13 -61 21.5t-48 25t-39 39t-12 52.5q0 65 46.5 97.5t118.5 32.5q80 0 136 -30q-15 -37 -17 -41q-63 25 -120 25q-49 0 -79.5 -21t-30.5 -64q0 -53 112 -88q35 -11 49.5 -16t42 -18.5
t39.5 -26.5t22.5 -35.5t10.5 -50.5q0 -68 -50.5 -102t-130.5 -34q-101 0 -163 37zM355 706l18 -22l-141 -133h-43l-141 135l18 21l145 -100z" />
    <glyph glyph-name="Tcommaaccent" unicode="&#x162;" horiz-adv-x="536" 
d="M297 0h-13q-30 -34 -54 -69q115 -2 115 -74q0 -43 -43.5 -71t-128.5 -28q0 4 -0.5 13.5t-0.5 14.5q125 10 125 67q0 42 -75 44q-11 1 -30 1l-11 16l31.5 40.5l35.5 45.5h-9v636h-220v48h497v-48h-218z" />
    <glyph glyph-name="tcommaaccent" unicode="&#x163;" horiz-adv-x="333" 
d="M116 590l36 6v-109h144v-43h-145v-321q0 -40 15.5 -60.5t57.5 -20.5q34 0 93 17l9 -38q-55 -25 -113 -25q-25 0 -51 7q-26 -31 -44 -57q115 -2 115 -74q0 -43 -43.5 -71t-128.5 -28q0 4 -0.5 13.5t-0.5 14.5q125 10 125 67q0 42 -75 44q-11 1 -30 1l-11 16l31.5 40.5
l35.5 45.5q-40 27 -40 91v338h-70v31l72 17z" />
    <glyph glyph-name="Tcaron" unicode="&#x164;" horiz-adv-x="536" 
d="M297 0h-58v636h-220v48h497v-48h-218zM414 874l18 -21l-142 -129h-42l-142 130l18 21l145 -97z" />
    <glyph glyph-name="tcaron" unicode="&#x165;" horiz-adv-x="371" 
d="M301 638q0 17 11.5 28.5t29.5 11.5q20 0 32.5 -13.5t12.5 -36.5q-3 -65 -66 -104l-15 17q26 27 26 59q-31 7 -31 38zM116 590l36 6v-109h144v-43h-145v-321q0 -40 15.5 -60.5t57.5 -20.5q34 0 93 17l9 -38q-55 -25 -113 -25q-117 0 -117 110v338h-70v31l72 17z" />
    <glyph glyph-name="Tbar" unicode="&#x166;" horiz-adv-x="536" 
d="M297 0h-58v346h-174v39h174v251h-220v48h497v-48h-218l-1 -251h173v-39h-173v-346z" />
    <glyph glyph-name="tbar" unicode="&#x167;" horiz-adv-x="341" 
d="M149 444v-92h137v-37h-137v-196q0 -77 71 -77q34 0 93 16q2 -5 5.5 -20t4.5 -18q-58 -24 -113 -24q-117 0 -117 111v208h-66v37h66v92h-70v31l72 17q1 7 8 49t9 49l37 6v-109h143v-43h-143z" />
    <glyph glyph-name="Utilde" unicode="&#x168;" horiz-adv-x="654" 
d="M579 684v-441q0 -116 -64 -183t-189 -67q-250 0 -250 250v441h57l1 -440q0 -101 49 -153t144 -52q94 0 143.5 52t49.5 153v440h59zM399 763q-27 0 -78.5 19.5t-67.5 19.5l-53 -40l-22 15q11 30 32 48.5t46 18.5q24 0 76 -18.5t69 -18.5l52 40l21 -16q-11 -30 -31 -49
t-44 -19z" />
    <glyph glyph-name="utilde" unicode="&#x169;" horiz-adv-x="481" 
d="M195 -10q-38 0 -65 10t-40.5 23t-21 36.5t-8.5 39t-1 41.5v347h56v-330q0 -64 17 -92.5t76 -28.5q33 0 77 18.5t82 51.5l-1 381q8 0 28 0.5t28 0.5v-488h-55v59l-3 2q-81 -71 -169 -71zM313 577q-27 0 -78.5 19.5t-67.5 19.5l-53 -40l-22 15q11 30 32 48.5t46 18.5
q24 0 76 -18.5t69 -18.5l52 40l21 -16q-11 -30 -31 -49t-44 -19z" />
    <glyph glyph-name="Umacron" unicode="&#x16a;" horiz-adv-x="654" 
d="M579 684v-441q0 -116 -64 -183t-189 -67q-250 0 -250 250v441h57l1 -440q0 -101 49 -153t144 -52q94 0 143.5 52t49.5 153v440h59zM170 748v47h308v-47h-308z" />
    <glyph glyph-name="umacron" unicode="&#x16b;" horiz-adv-x="481" 
d="M195 -10q-38 0 -65 10t-40.5 23t-21 36.5t-8.5 39t-1 41.5v347h56v-330q0 -64 17 -92.5t76 -28.5q33 0 77 18.5t82 51.5l-1 381q8 0 28 0.5t28 0.5v-488h-55v59l-3 2q-81 -71 -169 -71zM82 596v47h310v-47h-310z" />
    <glyph glyph-name="Ubreve" unicode="&#x16c;" horiz-adv-x="654" 
d="M579 684v-441q0 -116 -64 -183t-189 -67q-250 0 -250 250v441h57l1 -440q0 -101 49 -153t144 -52q94 0 143.5 52t49.5 153v440h59zM332 729q-82 0 -151 103l36 25q57 -80 118 -80q63 0 138 74l21 -18q-74 -104 -162 -104z" />
    <glyph glyph-name="ubreve" unicode="&#x16d;" horiz-adv-x="481" 
d="M195 -10q-38 0 -65 10t-40.5 23t-21 36.5t-8.5 39t-1 41.5v347h56v-330q0 -64 17 -92.5t76 -28.5q33 0 77 18.5t82 51.5l-1 381q8 0 28 0.5t28 0.5v-488h-55v59l-3 2q-81 -71 -169 -71zM233 557q-82 0 -151 103l36 25q57 -80 118 -80q63 0 138 74l21 -18
q-74 -104 -162 -104z" />
    <glyph glyph-name="Uring" unicode="&#x16e;" horiz-adv-x="654" 
d="M579 684v-441q0 -116 -64 -183t-189 -67q-250 0 -250 250v441h57l1 -440q0 -101 49 -153t144 -52q94 0 143.5 52t49.5 153v440h59zM330 710q-43 0 -70.5 27.5t-27.5 67.5q0 39 28.5 67t69.5 28t68 -27.5t27 -67.5t-27.5 -67.5t-67.5 -27.5zM330 866q-28 0 -45 -18
t-17 -46q0 -27 16.5 -43.5t45.5 -16.5q27 0 43.5 17t16.5 43q0 27 -16.5 45.5t-43.5 18.5z" />
    <glyph glyph-name="uring" unicode="&#x16f;" horiz-adv-x="481" 
d="M195 -10q-38 0 -65 10t-40.5 23t-21 36.5t-8.5 39t-1 41.5v347h56v-330q0 -64 17 -92.5t76 -28.5q33 0 77 18.5t82 51.5l-1 381q8 0 28 0.5t28 0.5v-488h-55v59l-3 2q-81 -71 -169 -71zM244 548q-43 0 -70.5 27.5t-27.5 67.5q0 39 28.5 67t69.5 28t68 -27.5t27 -67.5
t-27.5 -67.5t-67.5 -27.5zM244 704q-28 0 -45 -18t-17 -46q0 -27 16.5 -43.5t45.5 -16.5q27 0 43.5 17t16.5 43q0 27 -16.5 45.5t-43.5 18.5z" />
    <glyph glyph-name="Uhungarumlaut" unicode="&#x170;" horiz-adv-x="654" 
d="M579 684v-441q0 -116 -64 -183t-189 -67q-250 0 -250 250v441h57l1 -440q0 -101 49 -153t144 -52q94 0 143.5 52t49.5 153v440h59zM507 863l-128 -140l-29 21l110 156zM397 863l-127 -140l-29 21l109 156z" />
    <glyph glyph-name="uhungarumlaut" unicode="&#x171;" horiz-adv-x="481" 
d="M195 -10q-38 0 -65 10t-40.5 23t-21 36.5t-8.5 39t-1 41.5v347h56v-330q0 -64 17 -92.5t76 -28.5q33 0 77 18.5t82 51.5l-1 381q8 0 28 0.5t28 0.5v-488h-55v59l-3 2q-81 -71 -169 -71zM303 682l-128 -139l-26 20l109 157zM414 682l-128 -139l-26 20l109 157z" />
    <glyph glyph-name="Uogonek" unicode="&#x172;" horiz-adv-x="654" 
d="M579 684v-441q0 -111 -59 -177.5t-174 -71.5q-51 -58 -51 -112q0 -51 61 -51q30 0 70 11l6 -24q-45 -24 -98 -24q-44 0 -67 18.5t-23 50.5q0 68 68 130q-236 7 -236 250v441h57l1 -440q0 -101 49 -153t144 -52q94 0 143.5 52t49.5 153v440h59z" />
    <glyph glyph-name="uogonek" unicode="&#x173;" horiz-adv-x="481" 
d="M195 -10q-38 0 -65 10t-40.5 23t-21 36.5t-8.5 39t-1 41.5v347h56v-330q0 -64 17 -92.5t76 -28.5q33 0 77 18.5t82 51.5l-1 381q8 0 28 0.5t28 0.5v-488h-34q-48 -55 -48 -108q0 -51 61 -51q30 0 70 11l6 -24q-45 -24 -98 -24q-44 0 -67 18.5t-23 50.5q0 72 78 139v47
l-3 2q-81 -71 -169 -71z" />
    <glyph glyph-name="Wcircumflex" unicode="&#x174;" horiz-adv-x="807" 
d="M396 594h-6l-21.5 -93.5t-20.5 -93.5l-94 -407h-74l-166 682h60l98 -420l44 -193h4q20 81 43 188l47.5 203.5l51.5 221.5h62l34 -126.5l46.5 -175t33.5 -121.5q3 -8 13.5 -48l23.5 -88.5t14 -53.5h5l43 191l97 422h58l-166 -682h-71l-55.5 206l-56.5 210q-30 118 -47 178
zM557 746l-19 -22l-145 95l-144 -96l-18 21l141 131h43z" />
    <glyph glyph-name="wcircumflex" unicode="&#x175;" horiz-adv-x="686" 
d="M498 55h5l35 140l79 292h57l-140 -487h-64l-88 275l-43 147h-4l-38 -141l-82 -281h-65l-138 487h56l77 -281l38 -151h4l43 159l79 273h56l93 -295zM498 562l-18 -22l-145 98l-145 -99l-17 21l140 134h43z" />
    <glyph glyph-name="Ycircumflex" unicode="&#x176;" horiz-adv-x="500" 
d="M216 0v304l-204 380h63l107 -203l63 -125h4l65 124l111 204h62l-209 -376v-308h-62zM411 746l-19 -22l-145 95l-144 -96l-18 21l141 131h43z" />
    <glyph glyph-name="ycircumflex" unicode="&#x177;" horiz-adv-x="434" 
d="M217 37q2 5 7.5 23.5l15.5 51.5l19 61l49.5 157t50.5 157h57q-181 -555 -193 -589q-18 -57 -46.5 -86t-76.5 -29q-58 3 -101 15l9 42q54 -11 80 -11q32 0 50 13.5t33 58.5l33 101h-29q-16 53 -83.5 256t-75.5 229h55l50 -156t50 -160l42 -134h4zM384 562l-18 -22l-145 98
l-145 -99l-17 21l140 134h43z" />
    <glyph glyph-name="Ydieresis" unicode="&#x178;" horiz-adv-x="500" 
d="M216 0v304l-204 380h63l107 -203l63 -125h4l65 124l111 204h62l-209 -376v-308h-62zM366 760q0 -16 -11 -26t-28 -10q-14 0 -24 10t-10 26q0 14 10 24.5t24 10.5q17 0 28 -10t11 -25zM203 760q0 -16 -11 -26t-27 -10q-15 0 -25.5 10t-10.5 26q0 14 11 24.5t25 10.5
q16 0 27 -10t11 -25z" />
    <glyph glyph-name="Zacute" unicode="&#x179;" horiz-adv-x="502" 
d="M43 635v49h423v-48l-376 -587h393v-49h-464v48l376 587h-352zM371 857l-130 -135l-28 22l113 153z" />
    <glyph glyph-name="zacute" unicode="&#x17a;" horiz-adv-x="402" 
d="M86 48l2 -5l297 1v-44h-371v39l291 400l-3 4h-261v44h334v-42zM312 679l-131 -136l-26 22l112 154z" />
    <glyph glyph-name="Zdotaccent" unicode="&#x17b;" horiz-adv-x="502" 
d="M43 635v49h423v-48l-376 -587h393v-49h-464v48l376 587h-352zM302 796q0 -17 -13 -30t-30 -13t-29.5 13t-12.5 30t12.5 30t29.5 13t30 -13t13 -30z" />
    <glyph glyph-name="zdotaccent" unicode="&#x17c;" horiz-adv-x="402" 
d="M86 48l2 -5l297 1v-44h-371v39l291 400l-3 4h-261v44h334v-42zM253 604q0 -17 -13 -30t-30 -13t-29.5 13t-12.5 30t12.5 30t29.5 13t30 -13t13 -30z" />
    <glyph glyph-name="Zcaron" unicode="&#x17d;" horiz-adv-x="502" 
d="M43 635v49h423v-48l-376 -587h393v-49h-464v48l376 587h-352zM412 874l18 -21l-142 -129h-42l-142 130l18 21l145 -97z" />
    <glyph glyph-name="zcaron" unicode="&#x17e;" horiz-adv-x="402" 
d="M86 48l2 -5l297 1v-44h-371v39l291 400l-3 4h-261v44h334v-42zM357 706l18 -22l-141 -133h-43l-141 135l18 21l145 -100z" />
    <glyph glyph-name="florin" unicode="&#x192;" horiz-adv-x="532" 
d="M157 362v41h99l11 93q11 93 46 145.5t110 52.5q39 0 81 -13l-12 -39q-37 7 -64 7q-50 0 -74 -37t-32 -106l-13 -103h103v-41h-108l-25 -197q-6 -45 -8 -63t-9.5 -57t-14 -56t-19.5 -43.5t-28 -38t-38 -21t-51 -9.5q-41 0 -79 16l15 39q30 -9 56 -9q62 0 85.5 58.5
t43.5 222.5l18 158h-93z" />
    <glyph glyph-name="Ohorn" unicode="&#x1a0;" horiz-adv-x="678" 
d="M610 338q0 -153 -71 -248.5t-202 -96.5q-150 0 -216.5 87.5t-66.5 254.5q0 74 15 136t46.5 113t88 80t133.5 29q141 0 209 -99h16q35 0 51 19.5t16 60.5v73h44v-80q0 -107 -100 -112h-2q39 -86 39 -217zM548 335q0 312 -211 312q-222 0 -222 -313q0 -147 53 -221.5
t167 -74.5q104 0 158.5 83.5t54.5 213.5z" />
    <glyph glyph-name="ohorn" unicode="&#x1a1;" horiz-adv-x="517" 
d="M251 494q110 0 162 -84q63 1 63 81v68h45v-76q0 -101 -90 -112q20 -56 20 -130q0 -49 -10 -90.5t-32 -78.5t-64 -58t-100 -21q-108 0 -154.5 68t-46.5 177q0 68 19 123.5t67.5 94t120.5 38.5zM393 238q0 212 -142 212q-43 0 -73.5 -18.5t-46 -50.5t-22.5 -67.5t-7 -76.5
q0 -43 6 -75.5t21 -62.5t45.5 -46t76.5 -16q142 0 142 201z" />
    <glyph glyph-name="Uhorn" unicode="&#x1af;" horiz-adv-x="702" 
d="M579 684v-94h25q37 0 54 16t17 57v85h46v-90q0 -110 -111 -110h-31v-305q0 -116 -64 -183t-189 -67q-250 0 -250 250v441h57l1 -440q0 -101 49 -153t144 -52q94 0 143.5 52t49.5 153v440h59z" />
    <glyph glyph-name="uhorn" unicode="&#x1b0;" horiz-adv-x="537" 
d="M421 0h-55v60l-1 1q-84 -71 -171 -71q-38 0 -65 10t-40.5 23t-20.5 36t-8 38.5t-1 41.5v347h55v-330q0 -64 17.5 -92.5t75.5 -28.5q33 0 77.5 18.5t81.5 52.5v380h55v-73h7q36 0 52 16.5t16 57.5v73h45v-76q0 -113 -112 -113h-8v-371z" />
    <glyph glyph-name="AEacute" unicode="&#x1fc;" horiz-adv-x="906" 
d="M475 0v201h-274l-127 -201h-64l432 683h405v-45h-313v-254h267v-45h-267v-293h330v-46h-389zM471 633l-243 -384h247v384h-4zM694 857l-130 -135l-28 22l113 153z" />
    <glyph glyph-name="aeacute" unicode="&#x1fd;" horiz-adv-x="777" 
d="M556 495q184 0 184 -233v-29h-331q-2 -194 149 -194q75 0 154 36l15 -38q-81 -44 -170 -44q-117 0 -167 76q-100 -76 -215 -76q-75 0 -107 41.5t-32 94.5q0 66 45.5 104.5t121.5 38.5h149v48q0 71 -26 99.5t-91 28.5q-67 0 -152 -30l-14 39q86 37 178 37q119 0 144 -96
q51 97 165 97zM198 36q37 0 87.5 17t88.5 49q-22 51 -22 131h-140q-56 0 -86.5 -26t-30.5 -71q0 -100 103 -100zM556 451q-130 0 -146 -179h276q0 179 -130 179zM532 679l-131 -136l-26 22l112 154z" />
    <glyph glyph-name="Oslashacute" unicode="&#x1fe;" horiz-adv-x="656" 
d="M606 339q0 -154 -70.5 -249.5t-201.5 -96.5q-129 0 -198 67l-48 -65h-39l66 88q-65 83 -65 253q0 58 9 109t30 97.5t53 79.5t81 52.5t111 19.5q117 0 183 -68l51 69h42l-70 -94q66 -90 66 -262zM544 336q0 138 -44 216l-329 -448q52 -65 160 -65q105 0 159 83t54 214z
M111 334q0 -133 42 -201l330 448q-54 67 -149 67q-223 0 -223 -314zM466 857l-130 -135l-28 22l113 153z" />
    <glyph glyph-name="oslashacute" unicode="&#x1ff;" horiz-adv-x="487" 
d="M248 495q83 0 132 -49l37 48q3 0 16 0.5t17 0.5q-2 -2 -23.5 -31.5t-28.5 -37.5q49 -67 49 -185q0 -49 -10 -90.5t-32 -78.5t-64 -58t-100 -21q-87 0 -135 46l-33 -44q-5 0 -18 -0.5t-16 -0.5q5 6 24 32t25 33q-48 61 -48 180q0 107 51 181.5t157 74.5zM389 239
q0 90 -28 142l-107.5 -146.5l-114.5 -155.5q36 -41 109 -41q141 0 141 201zM248 450q-56 0 -91 -33t-46.5 -77t-12.5 -100q0 -89 26 -136q21 26 113 152t110 149q-37 45 -99 45zM373 679l-131 -136l-26 22l112 154z" />
    <glyph glyph-name="Scommaaccent" unicode="&#x218;" horiz-adv-x="547" 
d="M277 695q106 0 179 -36l-19 -45q-82 32 -164 32q-69 0 -111 -35.5t-42 -102.5q0 -24 10 -43t23.5 -31t39 -23.5t44 -16.5l50.5 -14q102 -28 139 -51q76 -48 76 -145t-66 -144t-176 -47q-128 0 -214 50l20 44q96 -46 192 -46q91 0 137 33.5t46 109.5q0 62 -39.5 91
t-121.5 50q-44 12 -69 19.5t-58 23t-50.5 32.5t-30.5 44.5t-13 62.5q0 88 60.5 138t157.5 50zM213 -98q0 17 11.5 28.5t29.5 11.5q20 0 32.5 -13.5t12.5 -36.5q-3 -65 -66 -104l-15 17q26 27 26 59q-31 7 -31 38z" />
    <glyph glyph-name="scommaaccent" unicode="&#x219;" horiz-adv-x="428" 
d="M42 30l19 40q67 -33 144 -33q57 0 92 22.5t35 68.5q0 39 -29.5 59.5t-86.5 39.5q-40 13 -61 21.5t-48 25t-39 39t-12 52.5q0 65 46.5 97.5t118.5 32.5q80 0 136 -30q-15 -37 -17 -41q-63 25 -120 25q-49 0 -79.5 -21t-30.5 -64q0 -53 112 -88q35 -11 49.5 -16t42 -18.5
t39.5 -26.5t22.5 -35.5t10.5 -50.5q0 -68 -50.5 -102t-130.5 -34q-101 0 -163 37zM160 -98q0 17 11.5 28.5t29.5 11.5q20 0 32.5 -13.5t12.5 -36.5q-3 -65 -66 -104l-15 17q26 27 26 59q-31 7 -31 38z" />
    <glyph glyph-name="uni021A" unicode="&#x21a;" horiz-adv-x="536" 
d="M297 0h-58v636h-220v48h497v-48h-218zM222 -98q0 17 11.5 28.5t29.5 11.5q20 0 32.5 -13.5t12.5 -36.5q-3 -65 -66 -104l-15 17q26 27 26 59q-31 7 -31 38z" />
    <glyph glyph-name="uni021B" unicode="&#x21b;" horiz-adv-x="333" 
d="M116 590l36 6v-109h144v-43h-145v-321q0 -40 15.5 -60.5t57.5 -20.5q34 0 93 17l9 -38q-55 -25 -113 -25q-117 0 -117 110v338h-70v31l72 17zM99 -98q0 17 11.5 28.5t29.5 11.5q20 0 32.5 -13.5t12.5 -36.5q-3 -65 -66 -104l-15 17q26 27 26 59q-31 7 -31 38z" />
    <glyph glyph-name="schwa" unicode="&#x259;" horiz-adv-x="466" 
d="M229 38q132 0 145 179h-276q0 -179 131 -179zM228 -7q-185 0 -185 233v29h332q2 195 -149 195q-74 0 -154 -35l-15 37q79 43 171 43q60 0 101.5 -19t63.5 -54.5t31 -77t9 -96.5q0 -29 -4 -58t-17 -66t-34 -65t-60 -47t-90 -19z" />
    <glyph glyph-name="primemod" unicode="&#x2b9;" horiz-adv-x="225" 
d="M226 654l-154 -249l-28 16l133 261z" />
    <glyph glyph-name="circumflex" unicode="&#x2c6;" horiz-adv-x="487" 
d="M400 562l-18 -22l-145 98l-145 -99l-17 21l140 134h43z" />
    <glyph glyph-name="caron" unicode="&#x2c7;" horiz-adv-x="487" 
d="M386 706l18 -22l-141 -133h-43l-141 135l18 21l145 -100z" />
    <glyph glyph-name="breve" unicode="&#x2d8;" horiz-adv-x="510" 
d="M247 557q-82 0 -151 103l36 25q57 -80 118 -80q63 0 138 74l21 -18q-74 -104 -162 -104z" />
    <glyph glyph-name="dotaccent" unicode="&#x2d9;" horiz-adv-x="487" 
d="M288 614q0 -17 -13 -30t-30 -13t-29.5 13t-12.5 30t12.5 30t29.5 13t30 -13t13 -30z" />
    <glyph glyph-name="ring" unicode="&#x2da;" horiz-adv-x="487" 
d="M245 548q-43 0 -70.5 27.5t-27.5 67.5q0 39 28.5 67t69.5 28t68 -27.5t27 -67.5t-27.5 -67.5t-67.5 -27.5zM245 704q-28 0 -45 -18t-17 -46q0 -27 16.5 -43.5t45.5 -16.5q27 0 43.5 17t16.5 43q0 27 -16.5 45.5t-43.5 18.5z" />
    <glyph glyph-name="ogonek" unicode="&#x2db;" horiz-adv-x="512" 
d="M375 27l13 -13q-34 -31 -51 -66.5t-17 -62.5q0 -51 61 -51q30 0 70 11l6 -24q-45 -24 -98 -24q-44 0 -67 18.5t-23 50.5q0 85 106 161z" />
    <glyph glyph-name="tilde" unicode="&#x2dc;" horiz-adv-x="487" 
d="M316 577q-27 0 -78.5 19.5t-67.5 19.5l-53 -40l-22 15q11 30 32 48.5t46 18.5q24 0 75.5 -18.5t69.5 -18.5l52 40l21 -16q-11 -30 -31 -49t-44 -19z" />
    <glyph glyph-name="hungarumlaut" unicode="&#x2dd;" horiz-adv-x="487" 
d="M288 682l-128 -139l-26 20l109 157zM399 682l-128 -139l-26 20l109 157z" />
    <glyph glyph-name="tonos" unicode="&#x384;" horiz-adv-x="480" 
d="M322 683l-124 -143l-29 22l106 158z" />
    <glyph glyph-name="dieresistonos" unicode="&#x385;" horiz-adv-x="479" 
d="M356 606q0 -15 -11.5 -25.5t-26.5 -10.5t-25 10t-10 26q0 15 11 25.5t25 10.5q15 0 26 -10.5t11 -25.5zM171 606q0 -16 -10.5 -26t-25.5 -10q-16 0 -26.5 10t-10.5 26q0 15 10.5 25.5t24.5 10.5q17 0 27.5 -10t10.5 -26zM311 699l-104 -156l-31 14l84 170z" />
    <glyph glyph-name="Alphatonos" unicode="&#x386;" horiz-adv-x="551" 
d="M535 0h-61l-60 187h-281l-28 -91t-30 -96h-61l223 683h76l120.5 -369zM400 233l-91 289q-9 33 -33 110h-3l-34 -110l-90 -289h251zM140 681l-124 -143l-29 22l106 158z" />
    <glyph glyph-name="anoteleia" unicode="&#x387;" horiz-adv-x="176" 
d="M131 349q0 -18 -12 -30.5t-29 -12.5t-30 13t-13 30t12.5 29t29.5 12t29.5 -12t12.5 -29z" />
    <glyph glyph-name="Epsilontonos" unicode="&#x388;" horiz-adv-x="531" 
d="M490 0h-410v683h393v-46h-334v-252h286v-46h-286v-292h351v-47zM22 681l-124 -143l-29 22l106 158z" />
    <glyph glyph-name="Etatonos" unicode="&#x389;" horiz-adv-x="626" 
d="M546 0h-61v336h-345q0 -30 0.5 -167.5t0.5 -168.5h-61v683h61q0 -27 -0.5 -148.5t-0.5 -148.5h345v297h61v-683zM29 681l-124 -143l-29 22l106 158z" />
    <glyph glyph-name="Iotatonos" unicode="&#x38a;" horiz-adv-x="238" 
d="M148 0h-58v684h58v-684zM30 681l-124 -143l-29 22l106 158z" />
    <glyph glyph-name="Omicrontonos" unicode="&#x38c;" horiz-adv-x="676" 
d="M616 339q0 -154 -70.5 -249.5t-201.5 -96.5q-150 0 -217 88.5t-67 254.5q0 58 9 109t30 97.5t53 79.5t81 52.5t111 19.5q272 0 272 -355zM554 336q0 312 -210 312q-223 0 -223 -314q0 -147 53 -221t167 -74q105 0 159 83t54 214zM71 681l-124 -143l-29 22l106 158z" />
    <glyph glyph-name="Upsilontonos" unicode="&#x38e;" horiz-adv-x="500" 
d="M216 0v304l-204 380h63l107 -203l63 -125h4l65 124l111 204h62l-209 -376v-308h-62zM-13 681l-124 -143l-29 22l106 158z" />
    <glyph glyph-name="Omegatonos" unicode="&#x38f;" horiz-adv-x="677" 
d="M340 694q77 0 133 -28t86.5 -78t44 -107.5t13.5 -126.5q0 -229 -118 -309q1 0 2 -1h134v-44h-232v47q151 45 151 305q0 295 -214 295q-59 0 -103 -23.5t-68.5 -65.5t-36 -92.5t-11.5 -111.5q0 -130 31 -207t113 -99v-48h-225v44h126l1 1q-44 26 -69 80t-31.5 105.5
t-6.5 120.5t15.5 128.5t47 109t87.5 77.5t130 28zM75 681l-124 -143l-29 22l106 158z" />
    <glyph glyph-name="iotadieresistonos" unicode="&#x390;" horiz-adv-x="219" 
d="M76 53v434h55v-442h63l3 -34q-35 -15 -64 -15t-43 13t-14 44zM240 606q0 -15 -11.5 -25.5t-26.5 -10.5t-25 10t-10 26q0 15 11 25.5t25 10.5q15 0 26 -10.5t11 -25.5zM55 606q0 -16 -10.5 -26t-25.5 -10q-16 0 -26.5 10t-10.5 26q0 15 10.5 25.5t24.5 10.5q17 0 27.5 -10
t10.5 -26zM195 699l-104 -156l-31 14l84 170z" />
    <glyph glyph-name="Alpha" unicode="&#x391;" horiz-adv-x="551" 
d="M535 0h-61l-60 187h-281l-28 -91t-30 -96h-61l223 683h76l120.5 -369zM400 233l-91 289q-9 33 -33 110h-3l-34 -110l-90 -289h251z" />
    <glyph glyph-name="Beta" unicode="&#x392;" horiz-adv-x="584" 
d="M413 360v-7q41 -14 67.5 -45.5t35 -62.5t8.5 -63q0 -81 -53.5 -131.5t-131.5 -50.5h-259v682h227q96 0 146 -46.5t50 -124.5q0 -37 -20 -80t-70 -71zM318 331h-180v-285h181q74 0 110 40.5t36 102.5q0 58 -40.5 100t-106.5 42zM138 636v-258h163q66 0 104.5 34.5
t38.5 92.5q0 60 -36.5 95.5t-111.5 35.5h-158z" />
    <glyph glyph-name="Gamma" unicode="&#x393;" horiz-adv-x="489" 
d="M139 0h-59v683h391v-48h-332v-635z" />
    <glyph glyph-name="Delta" unicode="&#x394;" horiz-adv-x="599" 
d="M568 41v-41h-539v36q18 54 64.5 183l103 283l66.5 182h72zM301 632l-5 1l-51 -146l-158 -442h421l-157 444z" />
    <glyph glyph-name="Delta" unicode="&#x2206;" horiz-adv-x="599" 
d="M568 41v-41h-539v36q18 54 64.5 183l103 283l66.5 182h72zM301 632l-5 1l-51 -146l-158 -442h421l-157 444z" />
    <glyph glyph-name="Epsilon" unicode="&#x395;" horiz-adv-x="531" 
d="M490 0h-410v683h393v-46h-334v-252h286v-46h-286v-292h351v-47z" />
    <glyph glyph-name="Zeta" unicode="&#x396;" horiz-adv-x="502" 
d="M43 635v49h423v-48l-376 -587h393v-49h-464v48l376 587h-352z" />
    <glyph glyph-name="Eta" unicode="&#x397;" horiz-adv-x="626" 
d="M546 0h-61v336h-345q0 -30 0.5 -167.5t0.5 -168.5h-61v683h61q0 -27 -0.5 -148.5t-0.5 -148.5h345v297h61v-683z" />
    <glyph glyph-name="Theta" unicode="&#x398;" horiz-adv-x="656" 
d="M179 332v50h296v-50h-296zM606 339q0 -154 -70.5 -249.5t-201.5 -96.5q-150 0 -217 88.5t-67 254.5q0 58 9 109t30 97.5t53 79.5t81 52.5t111 19.5q272 0 272 -355zM544 336q0 312 -210 312q-223 0 -223 -314q0 -147 53 -221t167 -74q105 0 159 83t54 214z" />
    <glyph glyph-name="Iota" unicode="&#x399;" horiz-adv-x="238" 
d="M148 0h-58v684h58v-684z" />
    <glyph glyph-name="Kappa" unicode="&#x39a;" horiz-adv-x="550" 
d="M139 285v-285h-59v684h59v-330l320 330h70l-268 -274l275 -410h-67l-247 369z" />
    <glyph glyph-name="Lambda" unicode="&#x39b;" horiz-adv-x="551" 
d="M474 0l-164 524l-33 109h-3q0 -4 -34 -110l-165 -523h-60l114.5 351l108.5 333h76l221 -684h-61z" />
    <glyph glyph-name="Mu" unicode="&#x39c;" horiz-adv-x="794" 
d="M146 682l107.5 -241l104.5 -234l36 -83h5q13 28 37 84l214 474h63v-682h-57q0 94 -0.5 284.5t-0.5 285.5h-2l-46 -104l-183 -404h-57l-79 174l-105 233l-44 102h-3v-571h-56v682h66z" />
    <glyph glyph-name="Nu" unicode="&#x39d;" horiz-adv-x="658" 
d="M516 100h4v583h58l-1 -683h-57l-142.5 221l-156.5 242l-80 129q-1 0 -2 -0.5t-2 -0.5v-591h-57v683h60l296 -459z" />
    <glyph glyph-name="Xi" unicode="&#x39e;" horiz-adv-x="541" 
d="M494 629h-448v54h448v-54zM29 54h482v-54h-482v54zM453 331h-359v54h359v-54z" />
    <glyph glyph-name="Omicron" unicode="&#x39f;" horiz-adv-x="676" 
d="M616 339q0 -154 -70.5 -249.5t-201.5 -96.5q-150 0 -217 88.5t-67 254.5q0 58 9 109t30 97.5t53 79.5t81 52.5t111 19.5q272 0 272 -355zM554 336q0 312 -210 312q-223 0 -223 -314q0 -147 53 -221t167 -74q105 0 159 83t54 214z" />
    <glyph glyph-name="Pi" unicode="&#x3a0;" horiz-adv-x="626" 
d="M546 0h-61v633h-345l1 -633h-61v684h466v-684z" />
    <glyph glyph-name="Rho" unicode="&#x3a1;" horiz-adv-x="525" 
d="M496 490q0 -34 -9.5 -66.5t-30 -64t-61 -51t-95.5 -19.5h-161l1 -289h-60v684h211q91 0 148 -50t57 -144zM290 637h-151v-302h154q60 0 101 35.5t41 116.5q0 73 -40.5 111.5t-104.5 38.5z" />
    <glyph glyph-name="Sigma" unicode="&#x3a3;" horiz-adv-x="521" 
d="M37 683h447v-48h-373l18 -35l157 -228v-19l-181 -302q2 0 16.5 -1t22.5 -2h353v-48h-463v46l189 316l-186 275v46z" />
    <glyph glyph-name="Tau" unicode="&#x3a4;" horiz-adv-x="536" 
d="M297 0h-58v636h-220v48h497v-48h-218z" />
    <glyph glyph-name="Upsilon" unicode="&#x3a5;" horiz-adv-x="500" 
d="M216 0v304l-204 380h63l107 -203l63 -125h4l65 124l111 204h62l-209 -376v-308h-62z" />
    <glyph glyph-name="Phi" unicode="&#x3a6;" horiz-adv-x="783" 
d="M739 350q0 -112 -84 -186t-230 -80v-84h-57v84q-165 7 -244.5 75.5t-79.5 187.5q0 107 82 184t242 85v67h57v-67q161 -6 237.5 -81.5t76.5 -184.5zM102 345q0 -204 266 -216v441q-136 -7 -201 -69.5t-65 -155.5zM681 347q0 41 -12.5 77t-40.5 68.5t-80 53.5t-123 24v-441
q119 4 187.5 65.5t68.5 152.5z" />
    <glyph glyph-name="Chi" unicode="&#x3a7;" horiz-adv-x="528" 
d="M228 354l-201 329h66l172 -288l173 288h65l-112.5 -182.5l-92.5 -148.5l216 -352h-66l-186 310l-185 -310h-64z" />
    <glyph glyph-name="Psi" unicode="&#x3a8;" horiz-adv-x="736" 
d="M663 683q0 -43 0.5 -129t0.5 -129q0 -109 -70.5 -173t-197.5 -68v-184h-58v183q-266 15 -266 249v251h58v-256q0 -90 54.5 -141t153.5 -56v453h58v-453q210 12 210 202v251h57z" />
    <glyph glyph-name="Omega" unicode="&#x3a9;" horiz-adv-x="677" 
d="M340 694q77 0 133 -28t86.5 -78t44 -107.5t13.5 -126.5q0 -229 -118 -309q1 0 2 -1h134v-44h-232v47q151 45 151 305q0 295 -214 295q-59 0 -103 -23.5t-68.5 -65.5t-36 -92.5t-11.5 -111.5q0 -130 31 -207t113 -99v-48h-225v44h126l1 1q-44 26 -69 80t-31.5 105.5
t-6.5 120.5t15.5 128.5t47 109t87.5 77.5t130 28z" />
    <glyph glyph-name="Iotadieresis" unicode="&#x3aa;" horiz-adv-x="238" 
d="M148 0h-58v684h58v-684zM238 760q0 -16 -11 -26t-28 -10q-14 0 -24 10t-10 26q0 14 10 24.5t24 10.5q17 0 28 -10t11 -25zM75 760q0 -16 -11 -26t-27 -10q-15 0 -25.5 10t-10.5 26q0 14 11 24.5t25 10.5q16 0 27 -10t11 -25z" />
    <glyph glyph-name="Upsilondieresis" unicode="&#x3ab;" horiz-adv-x="500" 
d="M216 0v304l-204 380h63l107 -203l63 -125h4l65 124l111 204h62l-209 -376v-308h-62zM365 760q0 -16 -11 -26t-28 -10q-14 0 -24 10t-10 26q0 14 10 24.5t24 10.5q17 0 28 -10t11 -25zM202 760q0 -16 -11 -26t-27 -10q-15 0 -25.5 10t-10.5 26q0 14 11 24.5t25 10.5
q16 0 27 -10t11 -25z" />
    <glyph glyph-name="alphatonos" unicode="&#x3ac;" horiz-adv-x="524" 
d="M378 52h-1q-1 1 -2 1q-75 -59 -163 -59q-169 0 -169 242q0 41 6.5 77.5t21 70t36.5 57.5t55 38t74 14q71 0 143 -50l13 44h39v-443h64l3 -34q-32 -14 -66 -14q-56 0 -54 56zM375 103q0 48 0.5 145.5t0.5 146.5q-69 51 -132 51q-70 0 -106.5 -55t-36.5 -154
q0 -110 34 -154t96 -44q33 0 73 17t71 47zM352 683l-124 -143l-29 22l106 158z" />
    <glyph glyph-name="epsilontonos" unicode="&#x3ad;" horiz-adv-x="425" 
d="M224 496q91 0 153 -23l-13 -41q-63 21 -134 21q-62 0 -92.5 -25.5t-30.5 -63.5q0 -78 113 -78h69v-42h-70q-48 0 -84.5 -24.5t-36.5 -78.5q0 -53 39.5 -79t102.5 -26q66 0 149 36l15 -36q-76 -43 -167 -43q-84 0 -140 33t-56 108q0 47 26 81t68 46l1 3q-38 10 -62 34.5
t-24 61.5q0 64 49.5 100t124.5 36zM321 683l-124 -143l-29 22l106 158z" />
    <glyph glyph-name="etatonos" unicode="&#x3ae;" horiz-adv-x="490" 
d="M431 0h-56v327q0 32 -2.5 50.5t-11.5 37t-28.5 26t-51.5 7.5q-70 0 -166 -53v-395h-56v487h56v-45q2 -1 3 -2q92 56 177 56q45 0 74.5 -12.5t41.5 -36t16 -44.5t4 -52v-351zM325 683l-124 -143l-29 22l106 158z" />
    <glyph glyph-name="iotatonos" unicode="&#x3af;" horiz-adv-x="219" 
d="M76 53v434h55v-442h63l3 -34q-35 -15 -64 -15t-43 13t-14 44zM218 683l-124 -143l-29 22l106 158z" />
    <glyph glyph-name="upsilondieresistonos" unicode="&#x3b0;" horiz-adv-x="491" 
d="M374 487h57v-303q0 -82 -49.5 -135.5t-139.5 -53.5q-91 0 -136.5 48t-45.5 130v314h56v-313q0 -133 125 -133q67 0 100 40.5t33 102.5v303zM378 606q0 -15 -11.5 -25.5t-26.5 -10.5t-25 10t-10 26q0 15 11 25.5t25 10.5q15 0 26 -10.5t11 -25.5zM193 606q0 -16 -10.5 -26
t-25.5 -10q-16 0 -26.5 10t-10.5 26q0 15 10.5 25.5t24.5 10.5q17 0 27.5 -10t10.5 -26zM333 699l-104 -156l-31 14l84 170z" />
    <glyph glyph-name="alpha" unicode="&#x3b1;" horiz-adv-x="524" 
d="M378 52h-1q-1 1 -2 1q-75 -59 -163 -59q-169 0 -169 242q0 41 6.5 77.5t21 70t36.5 57.5t55 38t74 14q71 0 143 -50l13 44h39v-443h64l3 -34q-32 -14 -66 -14q-56 0 -54 56zM375 103q0 48 0.5 145.5t0.5 146.5q-69 51 -132 51q-70 0 -106.5 -55t-36.5 -154
q0 -110 34 -154t96 -44q33 0 73 17t71 47z" />
    <glyph glyph-name="beta" unicode="&#x3b2;" horiz-adv-x="480" 
d="M108 29l-5 -3v-227h-55v711q0 98 46 151.5t132 53.5t132.5 -43t46.5 -120q0 -49 -25.5 -90.5t-63.5 -57.5q121 -31 121 -191q0 -108 -52.5 -164t-140.5 -56q-85 0 -136 36zM226 670q-56 0 -89 -34.5t-33 -100.5v-457q60 -41 136 -41q67 0 103.5 48t36.5 132
q0 161 -150 161h-53v44h52q51 0 85 35t34 98q0 51 -32 83t-90 32z" />
    <glyph glyph-name="gamma" unicode="&#x3b3;" horiz-adv-x="454" 
d="M207 -210v226l-146 427l-51 -12l-11 34q42 32 71 32q20 0 29.5 -10.5t17.5 -32.5q7 -21 15.5 -49l20 -65.5l19.5 -61.5l62 -195h3q4 17 44 131l93 274h56l-166 -468v-230h-57z" />
    <glyph glyph-name="delta" unicode="&#x3b4;" horiz-adv-x="506" 
d="M272 718q74 0 134 -22q-12 -36 -14 -43q-54 18 -117 18q-44 0 -71 -20.5t-27 -59.5q0 -32 23 -56t76 -55q35 -20 52 -31t46 -35.5t43.5 -47t26 -58.5t11.5 -78q0 -43 -10 -82t-31.5 -75.5t-64 -58t-101.5 -21.5q-55 0 -95 18t-61.5 50.5t-31.5 71t-10 84.5t14 91t52.5 88
t95.5 61q-49 30 -73 59.5t-24 71.5q0 61 42.5 95.5t114.5 34.5zM399 224q0 57 -22 99t-48 62t-71 45q-73 -18 -112 -77.5t-39 -137.5q0 -178 145 -178q43 0 73.5 17.5t45.5 47t21.5 59.5t6.5 63z" />
    <glyph glyph-name="epsilon" unicode="&#x3b5;" horiz-adv-x="425" 
d="M224 496q91 0 153 -23l-13 -41q-63 21 -134 21q-62 0 -92.5 -25.5t-30.5 -63.5q0 -78 113 -78h69v-42h-70q-48 0 -84.5 -24.5t-36.5 -78.5q0 -53 39.5 -79t102.5 -26q66 0 149 36l15 -36q-76 -43 -167 -43q-84 0 -140 33t-56 108q0 47 26 81t68 46l1 3q-38 10 -62 34.5
t-24 61.5q0 64 49.5 100t124.5 36z" />
    <glyph glyph-name="zeta" unicode="&#x3b6;" horiz-adv-x="381" 
d="M62 702h349v-42q-143 -119 -229.5 -243t-86.5 -211q0 -61 42.5 -90.5t177.5 -76.5q47 -18 63.5 -33.5t16.5 -39.5q0 -38 -87 -137l-32 25q63 80 63 104q0 22 -56 41q-130 44 -167 66q-69 42 -75 120q-1 9 -1 19q0 79 77.5 205t224.5 247v1h-280v45z" />
    <glyph glyph-name="eta" unicode="&#x3b7;" horiz-adv-x="490" 
d="M431 0h-56v327q0 32 -2.5 50.5t-11.5 37t-28.5 26t-51.5 7.5q-70 0 -166 -53v-395h-56v487h56v-45q2 -1 3 -2q92 56 177 56q45 0 74.5 -12.5t41.5 -36t16 -44.5t4 -52v-351z" />
    <glyph glyph-name="theta" unicode="&#x3b8;" horiz-adv-x="501" 
d="M249 -6q-52 0 -90 19t-60.5 49.5t-35.5 78.5t-17 96t-4 113q0 58 4.5 105.5t18 98t36 84t61.5 55.5t92 22q44 0 78 -14.5t55.5 -42.5t36 -60.5t22 -76.5t10 -82.5t2.5 -86.5q0 -358 -209 -358zM99 352q0 -167 30 -240.5t123 -73.5q46 0 77 26t46 74.5t20.5 98.5t5.5 115
h-302zM254 669q-37 0 -65 -16t-44 -41t-26 -63t-14 -73t-5 -80h300q-1 45 -4.5 80t-13 73t-25 63t-41.5 41t-62 16z" />
    <glyph glyph-name="iota" unicode="&#x3b9;" horiz-adv-x="219" 
d="M76 53v434h55v-442h63l3 -34q-35 -15 -64 -15t-43 13t-14 44z" />
    <glyph glyph-name="kappa" unicode="&#x3ba;" horiz-adv-x="429" 
d="M112 265q1 0 5 -2l57 58l167 165h65l-191 -190q2 -2 13.5 -17l17.5 -23l173 -256h-63l-97.5 143.5l-79.5 118.5q-10 -11 -32.5 -32.5t-32.5 -32.5v-197h-56v486h56v-93z" />
    <glyph glyph-name="lambda" unicode="&#x3bb;" horiz-adv-x="461" 
d="M230 622l170 -583h44l4 -34q-27 -11 -55 -11q-34 0 -42 27l-119 407h-4l-169 -428h-54l184 464h33l-49 163q-8 25 -17.5 33t-30.5 8t-47 -6l-8 38q38 15 70 15q39 0 57 -19t33 -74z" />
    <glyph glyph-name="nu" unicode="&#x3bd;" horiz-adv-x="423" 
d="M175 0l-50.5 150.5l-60 179.5l-52.5 156h57l43.5 -132.5l52.5 -164.5q35 -115 44 -142h5q2 5 18 59t28 90l47 143t47 147h58l-169 -486h-68z" />
    <glyph glyph-name="xi" unicode="&#x3be;" horiz-adv-x="418" 
d="M256 717q88 0 152 -27l-12 -42q-69 24 -138 24q-71 0 -107.5 -35.5t-36.5 -94.5q0 -61 42 -94t113 -33h93v-43h-96q-83 0 -128.5 -50t-45.5 -122q0 -63 41.5 -96.5t141.5 -68.5q95 -33 117 -51q24 -18 24 -42q0 -46 -80 -134q-6 4 -31 24q55 73 55 93q0 14 -14 25t-52 25
l-38.5 13.5l-39 14t-35.5 14t-34.5 15.5t-29.5 17t-27.5 20.5t-21 23.5t-17.5 29t-10 33.5t-4 39.5q0 149 133 200q-113 34 -113 152q0 74 53 122t146 48z" />
    <glyph glyph-name="omicron" unicode="&#x3bf;" horiz-adv-x="505" 
d="M457 241q0 -49 -10 -90.5t-32 -78.5t-64 -58t-101 -21q-108 0 -154.5 68.5t-46.5 177.5q0 107 51 181.5t157 74.5q56 0 97 -21.5t62.5 -59t31 -80.5t9.5 -93zM399 239q0 211 -142 211q-43 0 -73.5 -18.5t-46.5 -50.5t-23 -67t-7 -76q0 -43 6 -75.5t21 -62.5t46 -46
t77 -16q142 0 142 201z" />
    <glyph glyph-name="pi" unicode="&#x3c0;" horiz-adv-x="491" 
d="M431 0h-56v442h-260v-442h-56v486h372v-486z" />
    <glyph glyph-name="rho" unicode="&#x3c1;" horiz-adv-x="495" 
d="M108 28l-3 -3v-232h-57v417q0 52 1 77q2 90 55 148.5t149 58.5q101 0 149.5 -66t48.5 -180q0 -123 -52.5 -189t-156.5 -66q-80 0 -134 35zM236 37q75 0 116 45.5t41 167.5q0 109 -38.5 153.5t-109.5 44.5q-68 0 -104 -50.5t-36 -116.5v-202q19 -15 58 -28.5t73 -13.5z
" />
    <glyph glyph-name="sigma1" unicode="&#x3c2;" horiz-adv-x="427" 
d="M252 496q76 0 145 -26l-7 -21t-7 -22q-62 24 -123 24q-80 0 -122 -56.5t-42 -145.5q0 -75 33.5 -115.5t133.5 -84.5q68 -29 91 -47.5t23 -43.5q0 -42 -78 -127l-32 25q52 73 52 91q0 14 -18 25.5t-70 33.5q-117 49 -154.5 101t-37.5 142q0 112 56.5 179.5t156.5 67.5z
" />
    <glyph glyph-name="sigma" unicode="&#x3c3;" horiz-adv-x="511" 
d="M379 443q0 -2 -2 -4q69 -54 69 -203q0 -106 -53 -173t-149 -67q-205 0 -205 239q0 69 19 123.5t67 91.5t121 37h238v-44h-105zM246 442q-81 0 -115.5 -58.5t-34.5 -150.5q0 -97 36 -146t114 -49q70 0 106 55t36 142q0 207 -142 207z" />
    <glyph glyph-name="tau" unicode="&#x3c4;" horiz-adv-x="375" 
d="M10 487h334v-43h-163v-321q0 -40 16 -60.5t58 -20.5q39 0 93 16l9 -37q-55 -25 -113 -25q-118 0 -118 110v338h-116v43z" />
    <glyph glyph-name="upsilon" unicode="&#x3c5;" horiz-adv-x="491" 
d="M374 487h57v-303q0 -82 -49.5 -135.5t-139.5 -53.5q-91 0 -136.5 48t-45.5 130v314h56v-313q0 -133 125 -133q67 0 100 40.5t33 102.5v303z" />
    <glyph glyph-name="phi" unicode="&#x3c6;" horiz-adv-x="633" 
d="M40 240q0 91 39 157.5t118 90.5l15 -37q-116 -42 -116 -211q0 -97 41 -148.5t152 -55.5v456h67q121 0 179 -66.5t58 -178.5t-59 -181t-192 -74v-201h-54v201q-74 3 -124.5 23t-76.5 55.5t-36.5 76t-10.5 93.5zM538 246q0 95 -43.5 148t-152.5 53v-411q196 4 196 210z" />
    <glyph glyph-name="chi" unicode="&#x3c7;" horiz-adv-x="406" 
d="M335 0l-133 220l-135 -220h-60l72.5 115.5l89.5 140.5l-146 231h63l116 -193l58.5 96.5l58.5 96.5h62l-71.5 -111l-75.5 -118l52.5 -81l61 -95.5l51.5 -81.5h-64z" />
    <glyph glyph-name="psi" unicode="&#x3c8;" horiz-adv-x="645" 
d="M294 -210v204q-110 1 -172.5 53.5t-62.5 133.5l1 305h55v-305q0 -62 45 -100.5t134 -41.5v518h56v-518q86 2 133.5 42t47.5 101v304h55v-305q0 -81 -63.5 -133.5t-172.5 -53.5v-204h-56z" />
    <glyph glyph-name="omega" unicode="&#x3c9;" horiz-adv-x="718" 
d="M335 333h53v-181q0 -46 26 -79t75 -33q134 0 134 198q0 168 -107 215l15 39q76 -22 111.5 -92.5t35.5 -160.5q0 -107 -44.5 -176t-141.5 -69q-45 0 -80 21.5t-51 58.5h-2q-19 -38 -54.5 -59t-79.5 -21q-185 0 -185 245q0 89 35.5 160t112.5 93l13 -39q-105 -46 -105 -215
q0 -198 132 -198q53 0 80 33t27 79v181z" />
    <glyph glyph-name="iotadieresis" unicode="&#x3ca;" horiz-adv-x="219" 
d="M76 53v434h55v-442h63l3 -34q-35 -15 -64 -15t-43 13t-14 44zM224 605q0 -15 -11 -25t-27 -10q-15 0 -25 10t-10 25t10.5 25.5t24.5 10.5q16 0 27 -10t11 -26zM61 605q0 -15 -11 -25t-27 -10q-15 0 -25.5 10t-10.5 25t11 25.5t25 10.5q17 0 27.5 -10t10.5 -26z" />
    <glyph glyph-name="upsilondieresis" unicode="&#x3cb;" horiz-adv-x="491" 
d="M374 487h57v-303q0 -82 -49.5 -135.5t-139.5 -53.5q-91 0 -136.5 48t-45.5 130v314h56v-313q0 -133 125 -133q67 0 100 40.5t33 102.5v303zM361 605q0 -15 -11 -25t-27 -10q-15 0 -25 10t-10 25t10.5 25.5t24.5 10.5q16 0 27 -10t11 -26zM198 605q0 -15 -11 -25t-27 -10
q-15 0 -25.5 10t-10.5 25t11 25.5t25 10.5q17 0 27.5 -10t10.5 -26z" />
    <glyph glyph-name="omicrontonos" unicode="&#x3cc;" horiz-adv-x="505" 
d="M457 241q0 -49 -10 -90.5t-32 -78.5t-64 -58t-101 -21q-108 0 -154.5 68.5t-46.5 177.5q0 107 51 181.5t157 74.5q56 0 97 -21.5t62.5 -59t31 -80.5t9.5 -93zM399 239q0 211 -142 211q-43 0 -73.5 -18.5t-46.5 -50.5t-23 -67t-7 -76q0 -43 6 -75.5t21 -62.5t46 -46
t77 -16q142 0 142 201zM364 683l-124 -143l-29 22l106 158z" />
    <glyph glyph-name="upsilontonos" unicode="&#x3cd;" horiz-adv-x="491" 
d="M374 487h57v-303q0 -82 -49.5 -135.5t-139.5 -53.5q-91 0 -136.5 48t-45.5 130v314h56v-313q0 -133 125 -133q67 0 100 40.5t33 102.5v303zM363 683l-124 -143l-29 22l106 158z" />
    <glyph glyph-name="omegatonos" unicode="&#x3ce;" horiz-adv-x="718" 
d="M335 333h53v-181q0 -46 26 -79t75 -33q134 0 134 198q0 168 -107 215l15 39q76 -22 111.5 -92.5t35.5 -160.5q0 -107 -44.5 -176t-141.5 -69q-45 0 -80 21.5t-51 58.5h-2q-19 -38 -54.5 -59t-79.5 -21q-185 0 -185 245q0 89 35.5 160t112.5 93l13 -39q-105 -46 -105 -215
q0 -198 132 -198q53 0 80 33t27 79v181zM468 683l-124 -143l-29 22l106 158z" />
    <glyph glyph-name="Stigmagreek" unicode="&#x3da;" horiz-adv-x="679" 
d="M55 399q0 120 92 193t269 74q133 1 214 27l14 -49q-84 -30 -213 -31q-158 0 -239.5 -56.5t-81.5 -157.5q0 -92 72 -154t233 -102q197 -49 197 -138q0 -58 -100 -123q-2 2 -13.5 16t-14.5 16q3 3 13.5 11t14.5 11.5l12 10.5t11.5 12l8 12t6.5 13.5t2 13.5q0 29 -32.5 49.5
t-113.5 41.5q-189 47 -270 121.5t-81 188.5z" />
    <glyph glyph-name="stigmagreek" unicode="&#x3db;" horiz-adv-x="565" 
d="M51 279q0 93 70 149.5t204 57.5q106 1 160 20l13 -47q-56 -20 -165 -22q-116 0 -174.5 -42t-58.5 -116q0 -67 53.5 -113.5t170.5 -75.5q78 -19 114 -45t36 -62q0 -46 -78 -97l-25 30q50 35 50 62q0 21 -22.5 34.5t-82.5 28.5q-139 34 -202 92.5t-63 145.5z" />
    <glyph glyph-name="Digammagreek" unicode="&#x3dc;" horiz-adv-x="484" 
d="M111 0h-58v684h395v-44h-337v-258q6 0 276 6v-53l-276 4v-339z" />
    <glyph glyph-name="digammagreek" unicode="&#x3dd;" horiz-adv-x="505" 
d="M111 -196h-58v684h395v-45h-337v-259q85 3 276 7v-53l-276 4v-338z" />
    <glyph glyph-name="Koppagreek" unicode="&#x3de;" horiz-adv-x="625" 
d="M347 -51q4 26 8 36l93 320l-291 -81q-7 -3 -13 -3q-13 0 -20.5 8.5t-7.5 20.5q0 8 1 12l148 371q-23 -6 -68.5 -19t-66.5 -18q-12 20 -17 31q32 24 80 44t80 20q43 0 43 -35q0 -14 -4 -21l-140 -361l280 77q14 3 23 3q24 0 24 -21q0 -3 -2 -9l-53 -189.5l-48 -170.5
l121 37l16 -28q-31 -27 -74.5 -46t-70.5 -19q-41 0 -41 34v7z" />
    <glyph glyph-name="koppagreek" unicode="&#x3df;" horiz-adv-x="456" 
d="M124 254q0 13 6 39q6 31 16 89.5t13 74.5l-56.5 -17l-61.5 -18l-15 29q27 19 71 36.5t70 17.5q15 0 23 -5q14 -10 14 -31v-7q-20 -128 -31 -193h173q39 0 39 -24q0 -11 -5 -19l-66 -184l-58 -159q-40 5 -64 7l74 171l70 163h-177q-35 0 -35 28v2z" />
    <glyph glyph-name="Sampigreek" unicode="&#x3e0;" horiz-adv-x="669" 
d="M63 688l3 28q265 -16 405.5 -177t140.5 -413q0 -104 -29 -223l-30 5q14 98 14 179q0 110 -31 212l-300 -190l-23 40l313 178q-30 86 -77 145l-144.5 -90.5t-155.5 -98.5q-11 20 -26 41l308 174q-136 164 -368 190z" />
    <glyph glyph-name="sampigreek" unicode="&#x3e1;" horiz-adv-x="591" 
d="M62 473l5 28q222 -13 335 -144t113 -338q0 -92 -23 -187l-30 6q10 74 10 144q0 94 -23 175q-4 -2 -118.5 -76t-118.5 -77l-25 38l252 141q-24 61 -60 113l-240 -151l-25 39l246 136q-114 134 -298 153z" />
    <glyph glyph-name="afii10023" unicode="&#x401;" horiz-adv-x="531" 
d="M394 760q0 -16 -11 -26t-28 -10q-14 0 -24 10t-10 26q0 14 10 24.5t24 10.5q17 0 28 -10t11 -25zM231 760q0 -16 -11 -26t-27 -10q-15 0 -25.5 10t-10.5 26q0 14 11 24.5t25 10.5q16 0 27 -10t11 -25zM490 0h-410v683h393v-46h-334v-252h286v-46h-286v-292h351v-47z" />
    <glyph glyph-name="afii10051" unicode="&#x402;" horiz-adv-x="730" 
d="M687 219q0 -104 -52.5 -183.5t-129.5 -129.5l-24 33q66 47 106.5 116.5t40.5 152.5q0 80 -41 123.5t-116 43.5q-84 0 -174 -39v-336h-58v636h-219v47h546v-47h-269v-255q97 41 189 41q99 0 150 -58t51 -145z" />
    <glyph glyph-name="afii10052" unicode="&#x403;" horiz-adv-x="489" 
d="M383 858l-130 -135l-28 22l113 153zM139 0h-59v683h391v-48h-332v-635z" />
    <glyph glyph-name="afii10053" unicode="&#x404;" horiz-adv-x="569" 
d="M516 63l12 -42q-74 -28 -187 -28q-149 0 -215 89t-66 254q0 48 7 94t27 95t50.5 85.5t82 60t117.5 23.5q96 0 171 -27l-14 -45q-70 23 -151 23q-107 0 -163.5 -70t-64.5 -195q40 0 85 1t100 2.5t86 2.5v-52q-31 0 -86.5 1t-101 1.5t-85.5 0.5v-7q0 -290 230 -290
q88 0 166 23z" />
    <glyph glyph-name="afii10054" unicode="&#x405;" horiz-adv-x="547" 
d="M277 695q106 0 179 -36l-19 -45q-82 32 -164 32q-69 0 -111 -35.5t-42 -102.5q0 -24 10 -43t23.5 -31t39 -23.5t44 -16.5l50.5 -14q102 -28 139 -51q76 -48 76 -145t-66 -144t-176 -47q-128 0 -214 50l20 44q96 -46 192 -46q91 0 137 33.5t46 109.5q0 62 -39.5 91
t-121.5 50q-44 12 -69 19.5t-58 23t-50.5 32.5t-30.5 44.5t-13 62.5q0 88 60.5 138t157.5 50z" />
    <glyph glyph-name="afii10055" unicode="&#x406;" horiz-adv-x="238" 
d="M148 0h-58v684h58v-684z" />
    <glyph glyph-name="afii10056" unicode="&#x407;" horiz-adv-x="238" 
d="M239 760q0 -16 -11 -26t-28 -10q-14 0 -24 10t-10 26q0 14 10 24.5t24 10.5q17 0 28 -10t11 -25zM76 760q0 -16 -11 -26t-27 -10q-15 0 -25.5 10t-10.5 26q0 14 11 24.5t25 10.5q16 0 27 -10t11 -25zM148 0h-58v684h58v-684z" />
    <glyph glyph-name="afii10057" unicode="&#x408;" horiz-adv-x="283" 
d="M125 115v569h58v-566q0 -117 -51 -185t-157 -112l-18 43q94 55 131 107t37 144z" />
    <glyph glyph-name="afii10058" unicode="&#x409;" horiz-adv-x="938" 
d="M236 637l-5 -111q-11 -244 -23 -315q-22 -139 -94 -192q-37 -28 -92 -41l-12 43q28 10 49 22t37.5 32t27.5 36.5t19.5 50.5t13 57.5t9 74t6.5 84t5 102.5q0 9 0.5 14t1 12.5t0.5 14.5l8 163h318l1 -290h183q104 0 156.5 -58t52.5 -138q0 -96 -55.5 -147t-143.5 -51h-253
v637h-210zM684 349h-178v-304h188q63 0 103.5 39.5t40.5 112.5q0 78 -45.5 115t-108.5 37z" />
    <glyph glyph-name="afii10059" unicode="&#x40a;" horiz-adv-x="927" 
d="M495 684v-290h183q105 0 157 -57.5t52 -138.5q0 -95 -55.5 -146.5t-142.5 -51.5h-254v347h-295v-347h-60v683h60v-290h295v291h60zM674 347h-179v-302h188q64 0 104 39t40 112q0 79 -44.5 115t-108.5 36z" />
    <glyph glyph-name="afii10060" unicode="&#x40b;" horiz-adv-x="741" 
d="M672 276v-276h-59v259q0 121 -140 121q-40 0 -94 -13.5t-92 -32.5v-334h-58v636h-209v47h536v-47h-268v-254q108 46 199 46t138 -42t47 -110z" />
    <glyph glyph-name="afii10061" unicode="&#x40c;" horiz-adv-x="562" 
d="M139 0h-59v684h59v-295h134q98 0 130 108l56 185h55l-52 -184q-33 -111 -101 -132q48 -11 74 -43.5t41 -85.5l66 -237h-58l-65 226q-34 113 -137 113h-143v-339zM393 860l-130 -135l-28 22l113 153z" />
    <glyph glyph-name="afii10062" unicode="&#x40e;" horiz-adv-x="535" 
d="M23 683h59q6 -14 53 -133t62 -153q3 -7 33 -87.5t40 -105.5h4q0 1 26 71l37 99q3 7 116 309h60l-228 -593q-38 -97 -116 -97q-51 0 -103 14l13 48q60 -12 77 -12q29 0 47 14.5t32 52.5l20 56h-22q-4 9 -93.5 231zM274 717q-82 0 -151 102l37 25q56 -81 118 -81
q61 0 138 75l21 -17q-75 -104 -163 -104z" />
    <glyph glyph-name="afii10145" unicode="&#x40f;" horiz-adv-x="626" 
d="M485 682h60v-682h-205v-166h-51v166h-209v682h59v-637h346v637z" />
    <glyph glyph-name="afii10017" unicode="&#x410;" horiz-adv-x="551" 
d="M535 0h-61l-60 187h-281l-28 -91t-30 -96h-61l223 683h76l120.5 -369zM400 233l-91 289q-9 33 -33 110h-3l-34 -110l-90 -289h251z" />
    <glyph glyph-name="afii10018" unicode="&#x411;" horiz-adv-x="559" 
d="M450 683v-45h-323v-244h184q107 0 157.5 -55t50.5 -136q0 -97 -55.5 -150t-142.5 -53h-254v683h383zM306 349h-179v-304h190q63 0 103 41t40 114q0 78 -44 113.5t-110 35.5z" />
    <glyph glyph-name="afii10019" unicode="&#x412;" horiz-adv-x="584" 
d="M413 360v-7q41 -14 67.5 -45.5t35 -62.5t8.5 -63q0 -81 -53.5 -131.5t-131.5 -50.5h-259v682h227q96 0 146 -46.5t50 -124.5q0 -37 -20 -80t-70 -71zM318 331h-180v-285h181q74 0 110 40.5t36 102.5q0 58 -40.5 100t-106.5 42zM138 636v-258h163q66 0 104.5 34.5
t38.5 92.5q0 60 -36.5 95.5t-111.5 35.5h-158z" />
    <glyph glyph-name="afii10020" unicode="&#x413;" horiz-adv-x="489" 
d="M139 0h-59v683h391v-48h-332v-635z" />
    <glyph glyph-name="afii10021" unicode="&#x414;" horiz-adv-x="662" 
d="M574 0h-514v-161h-48v206h52q22 17 39.5 44t29.5 51.5t22 70l15.5 72.5t11 89t7.5 89t7 101l8 121h357v-638h61v-206h-48v161zM255 638l-6 -84q-7 -101 -11 -147.5t-13.5 -117t-20 -107t-29 -75t-43.5 -62.5h370v593h-247z" />
    <glyph glyph-name="afii10022" unicode="&#x415;" horiz-adv-x="531" 
d="M490 0h-410v683h393v-46h-334v-252h286v-46h-286v-292h351v-47z" />
    <glyph glyph-name="afii10024" unicode="&#x416;" horiz-adv-x="888" 
d="M473 0h-59v340h-124q-102 0 -137 -114l-65 -226h-58l66 237q30 109 116 129q-68 21 -101 132l-52 184h54l56 -185q31 -108 129 -108h116v295h59v-295h116q98 0 129 108l56 185h54l-53 -184q-31 -110 -100 -132q48 -11 74 -43.5t41 -85.5l66 -237h-56l-66 226
q-35 114 -136 114h-125v-340z" />
    <glyph glyph-name="afii10025" unicode="&#x417;" horiz-adv-x="547" 
d="M363 383l-1 -5q61 -15 98 -59t37 -112q0 -100 -73 -156t-184 -56q-126 0 -213 37l15 42q96 -31 179 -31q103 0 159.5 42.5t56.5 121.5q0 68 -51 107t-138 39h-82v45h80q80 0 125.5 37.5t45.5 96.5q0 56 -44.5 85.5t-122.5 29.5q-93 0 -181 -41l-17 41q86 47 205 47
q103 0 162.5 -41t59.5 -119q0 -50 -32 -92t-84 -59z" />
    <glyph glyph-name="afii10026" unicode="&#x418;" horiz-adv-x="641" 
d="M503 684l58 -2v-682h-58v589h-3l-361 -589h-59v682h58v-585h3z" />
    <glyph glyph-name="afii10027" unicode="&#x419;" horiz-adv-x="641" 
d="M503 684l58 -2v-682h-58v589h-3l-361 -589h-59v682h58v-585h3zM309 740q-82 0 -151 103l36 25q57 -80 118 -80q63 0 138 74l21 -18q-74 -104 -162 -104z" />
    <glyph glyph-name="afii10028" unicode="&#x41a;" horiz-adv-x="562" 
d="M139 0h-59v684h59v-295h134q98 0 130 108l56 185h55l-52 -184q-33 -111 -101 -132q48 -11 74 -43.5t41 -85.5l66 -237h-58l-65 226q-34 113 -137 113h-143v-339z" />
    <glyph glyph-name="afii10029" unicode="&#x41b;" horiz-adv-x="616" 
d="M536 0h-61v637h-239l-5 -111q-11 -244 -23 -315q-22 -139 -94 -192q-37 -28 -92 -41l-12 43q44 17 72.5 41.5t45.5 58.5t25.5 85t13.5 113.5t9 150.5q1 34 2 51l8 163h350v-684z" />
    <glyph glyph-name="afii10030" unicode="&#x41c;" horiz-adv-x="794" 
d="M146 682l107.5 -241l104.5 -234l36 -83h5q13 28 37 84l214 474h63v-682h-57q0 94 -0.5 284.5t-0.5 285.5h-2l-46 -104l-183 -404h-57l-79 174l-105 233l-44 102h-3v-571h-56v682h66z" />
    <glyph glyph-name="afii10031" unicode="&#x41d;" horiz-adv-x="626" 
d="M546 0h-61v336h-345q0 -30 0.5 -167.5t0.5 -168.5h-61v683h61q0 -27 -0.5 -148.5t-0.5 -148.5h345v297h61v-683z" />
    <glyph glyph-name="afii10032" unicode="&#x41e;" horiz-adv-x="676" 
d="M616 339q0 -154 -70.5 -249.5t-201.5 -96.5q-150 0 -217 88.5t-67 254.5q0 58 9 109t30 97.5t53 79.5t81 52.5t111 19.5q272 0 272 -355zM554 336q0 312 -210 312q-223 0 -223 -314q0 -147 53 -221t167 -74q105 0 159 83t54 214z" />
    <glyph glyph-name="afii10033" unicode="&#x41f;" horiz-adv-x="626" 
d="M546 0h-61v633h-345l1 -633h-61v684h466v-684z" />
    <glyph glyph-name="afii10034" unicode="&#x420;" horiz-adv-x="525" 
d="M496 490q0 -34 -9.5 -66.5t-30 -64t-61 -51t-95.5 -19.5h-161l1 -289h-60v684h211q91 0 148 -50t57 -144zM290 637h-151v-302h154q60 0 101 35.5t41 116.5q0 73 -40.5 111.5t-104.5 38.5z" />
    <glyph glyph-name="afii10035" unicode="&#x421;" horiz-adv-x="569" 
d="M346 694q102 0 170 -27l-14 -45q-73 24 -151 24q-116 0 -173 -81.5t-57 -228.5q0 -64 9.5 -112.5t33 -92.5t70.5 -67t117 -23q88 0 166 23l12 -42q-74 -29 -188 -29q-149 0 -215 89t-66 255q0 48 7.5 94t27 95t50.5 85t83 59.5t118 23.5z" />
    <glyph glyph-name="afii10036" unicode="&#x422;" horiz-adv-x="536" 
d="M297 0h-58v636h-220v48h497v-48h-218z" />
    <glyph glyph-name="afii10037" unicode="&#x423;" horiz-adv-x="535" 
d="M23 683h59q6 -14 53 -133t62 -153q3 -7 33 -87.5t40 -105.5h4q0 1 26 71l37 99q3 7 116 309h60l-228 -593q-38 -97 -116 -97q-51 0 -103 14l13 48q60 -12 77 -12q29 0 47 14.5t32 52.5l20 56h-22q-4 9 -93.5 231z" />
    <glyph glyph-name="afii10038" unicode="&#x424;" horiz-adv-x="783" 
d="M739 350q0 -112 -84 -186t-230 -80v-84h-57v84q-165 7 -244.5 75.5t-79.5 187.5q0 107 82 184t242 85v67h57v-67q161 -6 237.5 -81.5t76.5 -184.5zM102 345q0 -204 266 -216v441q-136 -7 -201 -69.5t-65 -155.5zM681 347q0 41 -12.5 77t-40.5 68.5t-80 53.5t-123 24v-441
q119 4 187.5 65.5t68.5 152.5z" />
    <glyph glyph-name="afii10039" unicode="&#x425;" horiz-adv-x="528" 
d="M228 354l-201 329h66l172 -288l173 288h65l-112.5 -182.5l-92.5 -148.5l216 -352h-66l-186 310l-185 -310h-64z" />
    <glyph glyph-name="afii10040" unicode="&#x426;" horiz-adv-x="648" 
d="M545 682l1 -637h67v-206h-49v161h-484v682h59v-637h346v637h60z" />
    <glyph glyph-name="afii10041" unicode="&#x427;" horiz-adv-x="587" 
d="M507 682v-682h-59v311q-97 -36 -203 -36q-93 0 -142 41.5t-49 110.5v255h60v-237q0 -62 34 -92t106 -30q110 0 194 37v322h59z" />
    <glyph glyph-name="afii10042" unicode="&#x428;" horiz-adv-x="878" 
d="M411 45v638h59v-638h268v638h59l1 -683h-718v683h58v-638h273z" />
    <glyph glyph-name="afii10043" unicode="&#x429;" horiz-adv-x="900" 
d="M80 0v683h58v-638h273v638h59v-638h268v638h60v-638h67v-206h-49v161h-736z" />
    <glyph glyph-name="afii10044" unicode="&#x42a;" horiz-adv-x="738" 
d="M303 683v-289h186q104 0 156.5 -58t52.5 -138q0 -96 -55.5 -147t-143.5 -51h-256l1 636h-231v47h290zM485 349h-182v-304h191q63 0 103 39.5t40 112.5q0 78 -44.5 115t-107.5 37z" />
    <glyph glyph-name="afii10045" unicode="&#x42b;" horiz-adv-x="761" 
d="M320 349h-181v-304h190q64 0 104.5 39.5t40.5 112.5q0 78 -45.5 115t-108.5 37zM139 684v-290h185q105 0 157.5 -58t52.5 -139q0 -95 -56 -146t-143 -51h-255v684h59zM681 0h-58v684h58v-684z" />
    <glyph glyph-name="afii10046" unicode="&#x42c;" horiz-adv-x="574" 
d="M320 349h-181v-304h190q64 0 104.5 39.5t40.5 112.5q0 78 -45.5 115t-108.5 37zM139 684v-290h185q105 0 157.5 -58t52.5 -139q0 -95 -56 -146t-143 -51h-255v684h59z" />
    <glyph glyph-name="afii10047" unicode="&#x42d;" horiz-adv-x="560" 
d="M211 -7q-111 0 -183 28l12 44q83 -24 163 -24q234 0 236 305q-245 -5 -277 -5v52l277 -5q-7 258 -219 258q-76 0 -155 -24l-12 44q76 28 166 28q281 0 281 -332q0 -108 -27.5 -188t-94 -130.5t-167.5 -50.5z" />
    <glyph glyph-name="afii10048" unicode="&#x42e;" horiz-adv-x="882" 
d="M138 0h-58v683h58v-301h149q20 311 273 311q62 0 109.5 -20t76 -52t46 -79.5t24 -96t6.5 -107.5q0 -155 -66 -249.5t-196 -95.5q-145 0 -209.5 88t-64.5 256h-148v-337zM761 335q0 48 -3.5 86.5t-16 82.5t-33.5 73.5t-58.5 49.5t-89.5 20q-65 0 -109 -26t-66 -73.5
t-30.5 -98.5t-8.5 -116q0 -149 49 -222t161 -73q104 0 154.5 82t50.5 215z" />
    <glyph glyph-name="afii10049" unicode="&#x42f;" horiz-adv-x="571" 
d="M74 495q0 84 50.5 136.5t150.5 52.5h216v-684h-59v307h-121q-58 0 -97 -24.5t-58 -86.5l-57 -196h-59l58 204q29 96 98 118q-61 15 -91.5 62.5t-30.5 110.5zM279 354h153v282h-151q-66 0 -106.5 -37t-40.5 -106q0 -139 145 -139z" />
    <glyph glyph-name="afii10065" unicode="&#x430;" horiz-adv-x="506" 
d="M252 493q77 0 116 -37.5t39 -121.5v-290h66l3 -33q-33 -16 -73 -16q-28 0 -40 14t-11 46q-1 1 -2 1q-79 -62 -169 -62q-75 0 -108 40t-33 94q0 65 43.5 101.5t115.5 41.5l153 8v40q0 70 -24 98.5t-88 28.5q-68 0 -152 -29l-14 39q86 37 178 37zM352 239l-139 -8
q-55 -2 -84 -27.5t-29 -69.5q0 -97 102 -97q67 0 150 69v133z" />
    <glyph glyph-name="afii10066" unicode="&#x431;" horiz-adv-x="487" 
d="M233 667q137 56 163 69q7 -12 20 -38q-56 -29 -165 -73q-78 -32 -114 -89.5t-45 -151.5q1 0 2 -1q24 45 67 72t97 27q52 0 90 -20.5t58.5 -56t30 -76.5t9.5 -89q0 -37 -5.5 -70.5t-20.5 -66.5t-38 -57t-60 -38.5t-85 -14.5q-57 0 -97.5 21t-61 57.5t-29.5 75.5t-9 85
q3 178 11 222q31 153 182 213zM250 439q-41 0 -72 -19.5t-47.5 -51.5t-24.5 -66.5t-8 -70.5q0 -39 5 -69t19.5 -61t45 -48t75.5 -17q145 0 145 200q0 28 -3 53.5t-12 54t-23.5 48.5t-40 33.5t-59.5 13.5z" />
    <glyph glyph-name="afii10067" unicode="&#x432;" horiz-adv-x="471" 
d="M261 487q76 0 116 -33.5t40 -89.5q0 -74 -69 -107q46 -15 65.5 -49t19.5 -73q0 -59 -43 -97t-104 -38h-227v487h202zM267 232h-153v-187h153q56 0 83.5 27.5t27.5 68.5q0 38 -29.5 64.5t-81.5 26.5zM249 442h-135v-168h144q46 0 74.5 23.5t28.5 60.5q0 39 -27.5 61.5
t-84.5 22.5z" />
    <glyph glyph-name="afii10068" unicode="&#x433;" horiz-adv-x="383" 
d="M113 0h-54v487h317v-45h-263v-442z" />
    <glyph glyph-name="afii10069" unicode="&#x434;" horiz-adv-x="533" 
d="M452 487v-443h43v-177h-45v133h-389v-133h-46v177h40q27 19 44 52t26 86.5t12.5 94t7.5 115.5l5 95h302zM396 442h-196l-3 -58q-4 -75 -7 -111.5t-10.5 -87.5t-21 -83.5t-35.5 -57.5h273v398z" />
    <glyph glyph-name="afii10070" unicode="&#x435;" horiz-adv-x="486" 
d="M254 453q-131 0 -146 -180h278q0 180 -132 180zM253 495q187 0 187 -233v-29h-333q-2 -195 150 -195q74 0 155 37l15 -38q-82 -44 -172 -44q-60 0 -102 19t-64 55t-31 78t-9 96q0 29 4 58t17 66t34 64.5t59.5 46.5t89.5 19z" />
    <glyph glyph-name="afii10072" unicode="&#x436;" horiz-adv-x="710" 
d="M382 0h-55v238h-75q-48 0 -76.5 -14.5t-44.5 -63.5q-9 -30 -27 -84.5l-25 -75.5h-54l54 168q13 38 30.5 60t49.5 32q-42 16 -69 92q-7 25 -22.5 70.5t-21.5 65.5h52l46 -135q11 -33 30.5 -50t36 -20t44.5 -3h72v208h55v-208h71q29 0 45.5 3t35.5 20t30 50l46 135h53
l-45 -136q-25 -76 -69 -92q33 -10 50.5 -32t30.5 -60l54 -168h-55l-52 159q-16 50 -44.5 64.5t-76.5 14.5h-74v-238z" />
    <glyph glyph-name="afii10073" unicode="&#x437;" horiz-adv-x="434" 
d="M190 -7q-96 0 -166 30q7 23 14 38q75 -26 144 -26q71 0 111 27.5t40 84.5q0 48 -39 72.5t-93 24.5h-71v40h61q55 0 90.5 22.5t35.5 66.5q0 79 -116 79q-69 0 -146 -31q-12 36 -13 38q77 37 166 37q77 0 121 -31t44 -87q0 -40 -25 -69.5t-63 -40.5v-2q45 -10 74.5 -42
t29.5 -79q0 -73 -55 -112.5t-144 -39.5z" />
    <glyph glyph-name="afii10074" unicode="&#x438;" horiz-adv-x="496" 
d="M437 0h-55v408h-3q0 -1 -73 -113l-195 -295h-52v487h54v-404h4l29 45l34 52l70.5 106.5l89 134t43.5 66.5h54v-487z" />
    <glyph glyph-name="afii10075" unicode="&#x439;" horiz-adv-x="496" 
d="M437 0h-55v408h-3q0 -1 -73 -113l-195 -295h-52v487h54v-404h4l29 45l34 52l70.5 106.5l89 134t43.5 66.5h54v-487zM238 543q-82 0 -151 103l36 25q57 -80 118 -80q63 0 138 74l21 -18q-74 -104 -162 -104z" />
    <glyph glyph-name="afii10076" unicode="&#x43a;" horiz-adv-x="458" 
d="M113 0h-54v489h54v-209h108q71 0 95 73l46 135h52q-5 -14 -22 -67.5t-22 -67.5q-25 -75 -69 -93q33 -9 50.5 -31t30.5 -60l54 -169h-54l-27 82l-26 79v-1q-27 78 -103 78h-113v-238z" />
    <glyph glyph-name="afii10077" unicode="&#x43b;" horiz-adv-x="483" 
d="M424 0h-56v442h-187l-5 -74q-12 -176 -23 -227q-24 -111 -100 -146q-16 -7 -35 -12l-14 40q31 12 51.5 31t32.5 42t19 62.5t10 76.5t7 101q1 23 2 36l7 115h291v-487z" />
    <glyph glyph-name="afii10078" unicode="&#x43c;" horiz-adv-x="623" 
d="M564 0h-54v389h-2l-16 -34.5l-19 -39.5l-67 -133l-69 -138h-42l-146 279l-35 70h-3v-393h-52v487h60q17 -30 71 -137.5l82 -159.5l44 -86h1l64 132l40 80.5l55 110.5l30 60h58v-487z" />
    <glyph glyph-name="afii10079" unicode="&#x43d;" horiz-adv-x="490" 
d="M431 0h-56v236h-261v-236h-55v487h56v-205h260v205h56v-487z" />
    <glyph glyph-name="afii10080" unicode="&#x43e;" horiz-adv-x="505" 
d="M457 241q0 -49 -10 -90.5t-32 -78.5t-64 -58t-101 -21q-108 0 -154.5 68.5t-46.5 177.5q0 107 51 181.5t157 74.5q56 0 97 -21.5t62.5 -59t31 -80.5t9.5 -93zM399 239q0 211 -142 211q-43 0 -73.5 -18.5t-46.5 -50.5t-23 -67t-7 -76q0 -43 6 -75.5t21 -62.5t46 -46
t77 -16q142 0 142 201z" />
    <glyph glyph-name="afii10081" unicode="&#x43f;" horiz-adv-x="491" 
d="M431 0h-56v442h-260v-442h-56v486h372v-486z" />
    <glyph glyph-name="afii10082" unicode="&#x440;" horiz-adv-x="497" 
d="M113 439l4 -3q72 57 153 57q177 0 177 -241q0 -118 -46 -188.5t-145 -70.5q-83 0 -142 37v-240h-55v697h52q0 -4 1 -24t1 -24zM114 387v-310q23 -16 61.5 -28t73.5 -12q141 0 141 217q0 104 -35 148t-100 44q-32 0 -74.5 -18t-66.5 -41z" />
    <glyph glyph-name="afii10083" unicode="&#x441;" horiz-adv-x="445" 
d="M107 240q0 -201 151 -201q63 0 145 33l15 -39q-73 -40 -163 -40q-206 0 -206 243q0 34 5 66t19 68.5t36.5 63.5t62 44.5t90.5 17.5q79 0 137 -25l-15 -42q-56 20 -118 20q-78 0 -118.5 -56t-40.5 -153z" />
    <glyph glyph-name="afii10084" unicode="&#x442;" horiz-adv-x="426" 
d="M186 0v442h-172v45h397v-45h-170v-442h-55z" />
    <glyph glyph-name="afii10085" unicode="&#x443;" horiz-adv-x="434" 
d="M217 38l42 135l49.5 157t50.5 157h57q-181 -555 -193 -589q-18 -57 -46.5 -86t-76.5 -29q-58 3 -101 15l9 42q54 -11 80 -11q32 0 50 13.5t33 58.5l33 101h-29q-16 53 -83.5 256t-75.5 229h55l50 -156t50 -160l42 -133h4z" />
    <glyph glyph-name="afii10086" unicode="&#x444;" horiz-adv-x="641" 
d="M293 -207l1 200q-254 10 -254 245q0 113 62.5 181.5t191.5 73.5l-1 215h54v-215q130 -2 192 -67t62 -177t-60.5 -181t-193.5 -75v-200h-54zM347 449v-413q199 9 199 208q0 94 -44 148t-155 57zM294 449q-200 -10 -200 -208q0 -95 45 -148t155 -57v413z" />
    <glyph glyph-name="afii10087" unicode="&#x445;" horiz-adv-x="406" 
d="M335 0l-133 220l-135 -220h-60l72.5 115.5l89.5 140.5l-146 231h63l116 -193l58.5 96.5l58.5 96.5h62l-71.5 -111l-75.5 -118l52.5 -81l61 -95.5l51.5 -81.5h-64z" />
    <glyph glyph-name="afii10088" unicode="&#x446;" horiz-adv-x="517" 
d="M375 45v442h55v-442h55v-178h-46v133h-380v487h55v-442h261z" />
    <glyph glyph-name="afii10089" unicode="&#x447;" horiz-adv-x="463" 
d="M404 0h-56v237q-74 -48 -170 -48q-38 0 -64.5 9.5t-40.5 23t-21.5 36t-9 39.5t-1.5 42v148h55v-132q0 -63 18 -91.5t75 -28.5q95 0 159 48v205h56v-488z" />
    <glyph glyph-name="afii10090" unicode="&#x448;" horiz-adv-x="688" 
d="M574 45v442h56v-487h-570v487h54v-442h202v442h56v-442h202z" />
    <glyph glyph-name="afii10091" unicode="&#x449;" horiz-adv-x="709" 
d="M574 45v442h56v-442h54v-178h-46v133h-578v487h54v-442h202v442h56v-442h202z" />
    <glyph glyph-name="afii10092" unicode="&#x44a;" horiz-adv-x="599" 
d="M245 487v-190h164q81 0 120.5 -44.5t39.5 -103.5q0 -69 -43.5 -109t-110.5 -40h-225v442h-177v45h232zM400 254h-155v-210h163q47 0 76.5 27.5t29.5 76.5q0 53 -32.5 79.5t-81.5 26.5z" />
    <glyph glyph-name="afii10093" unicode="&#x44b;" horiz-adv-x="614" 
d="M556 0h-56v487h56v-487zM269 254h-155v-209h164q47 0 76 27.5t29 75.5q0 53 -32.5 79.5t-81.5 26.5zM59 487h55v-190h164q82 0 121 -44.5t39 -103.5q0 -69 -43.5 -109t-110.5 -40h-225v487z" />
    <glyph glyph-name="afii10094" unicode="&#x44c;" horiz-adv-x="468" 
d="M269 254h-155v-209h164q47 0 76 27.5t29 75.5q0 53 -32.5 79.5t-81.5 26.5zM59 487h55v-190h164q82 0 121 -44.5t39 -103.5q0 -69 -43.5 -109t-110.5 -40h-225v487z" />
    <glyph glyph-name="afii10095" unicode="&#x44d;" horiz-adv-x="441" 
d="M184 496q62 0 105.5 -22t65 -59.5t30 -76t8.5 -83.5q0 -112 -52.5 -187t-160.5 -75q-85 0 -158 39l15 37q76 -32 141 -32q77 0 117 58t40 145l-206 -2v43l206 -4q-3 82 -41.5 128.5t-111.5 46.5q-65 0 -125 -21l-14 37q63 28 141 28z" />
    <glyph glyph-name="afii10096" unicode="&#x44e;" horiz-adv-x="654" 
d="M113 0h-54v487h54v-210h96q8 95 57.5 156.5t144.5 61.5q55 0 94.5 -22t60 -60t30 -80.5t9.5 -91.5q0 -48 -9.5 -89.5t-31.5 -78.5t-63 -58.5t-98 -21.5q-54 0 -93.5 20.5t-60.5 56.5t-31 77t-10 90h-95v-237zM548 239q0 39 -5.5 72t-19 66.5t-42.5 53t-70 19.5
q-55 0 -89.5 -34t-45.5 -78t-11 -100q0 -43 5 -74.5t19.5 -62.5t45 -47.5t76.5 -16.5q33 0 58 12.5t39.5 32.5t24 47.5t12.5 53.5t3 56z" />
    <glyph glyph-name="afii10097" unicode="&#x44f;" horiz-adv-x="477" 
d="M362 0v211h-113q-44 0 -71.5 -15.5t-41.5 -57.5l-47 -138h-57l50 147q21 63 68 81v1q-89 26 -89 119q0 58 40.5 98t121.5 40h194v-486h-55zM362 442h-132q-113 0 -113 -93q0 -94 114 -94h131v187z" />
    <glyph glyph-name="afii10071" unicode="&#x451;" horiz-adv-x="486" 
d="M254 453q-131 0 -146 -180h278q0 180 -132 180zM253 495q187 0 187 -233v-29h-333q-2 -195 150 -195q74 0 155 37l15 -38q-82 -44 -172 -44q-60 0 -102 19t-64 55t-31 78t-9 96q0 29 4 58t17 66t34 64.5t59.5 46.5t89.5 19zM367 612q0 -15 -11 -25t-27 -10q-15 0 -25 10
t-10 25t10.5 25.5t24.5 10.5q16 0 27 -10t11 -26zM204 612q0 -15 -11 -25t-27 -10q-15 0 -25.5 10t-10.5 25t11 25.5t25 10.5q17 0 27.5 -10t10.5 -26z" />
    <glyph glyph-name="afii10099" unicode="&#x452;" horiz-adv-x="497" 
d="M119 425q94 41 163 41q84 0 126 -60t42 -190q0 -239 -209 -239v40q79 2 116 47t37 154q0 112 -32 157.5t-95 45.5q-60 0 -148 -40v-381h-56v556h-57v35h57v118h56v-118h214v-35h-214v-131z" />
    <glyph glyph-name="afii10100" unicode="&#x453;" horiz-adv-x="383" 
d="M113 0h-54v487h317v-45h-263v-442zM313 698l-131 -136l-26 22l112 154z" />
    <glyph glyph-name="afii10101" unicode="&#x454;" horiz-adv-x="450" 
d="M311 228l-204 3q4 -193 150 -193q64 0 146 33l15 -38q-71 -39 -163 -39q-206 0 -206 241q0 34 5 66.5t19 69t36.5 63t61.5 44.5t90 18q77 0 138 -25l-15 -42q-58 20 -118 20q-72 0 -112.5 -48.5t-45.5 -133.5l203 5v-44z" />
    <glyph glyph-name="afii10102" unicode="&#x455;" horiz-adv-x="428" 
d="M42 30l19 40q67 -33 144 -33q57 0 92 22.5t35 68.5q0 39 -29.5 59.5t-86.5 39.5q-40 13 -61 21.5t-48 25t-39 39t-12 52.5q0 65 46.5 97.5t118.5 32.5q80 0 136 -30q-15 -37 -17 -41q-63 25 -120 25q-49 0 -79.5 -21t-30.5 -64q0 -53 112 -88q35 -11 49.5 -16t42 -18.5
t39.5 -26.5t22.5 -35.5t10.5 -50.5q0 -68 -50.5 -102t-130.5 -34q-101 0 -163 37z" />
    <glyph glyph-name="afii10103" unicode="&#x456;" horiz-adv-x="225" 
d="M140 0h-56v487h56v-487zM153 612q0 -16 -12 -28t-29 -12q-16 0 -28 12t-12 28q0 17 12 29.5t28 12.5q17 0 29 -12.5t12 -29.5z" />
    <glyph glyph-name="afii10104" unicode="&#x457;" horiz-adv-x="225" 
d="M140 0h-56v487h56v-487zM233 605q0 -15 -11 -25t-27 -10q-15 0 -25 10t-10 25t10.5 25.5t24.5 10.5q16 0 27 -10t11 -26zM70 605q0 -15 -11 -25t-27 -10q-15 0 -25.5 10t-10.5 25t11 25.5t25 10.5q17 0 27.5 -10t10.5 -26z" />
    <glyph glyph-name="afii10105" unicode="&#x458;" horiz-adv-x="234" 
d="M92 -3l-1 490h56v-489q-2 -86 -34.5 -132t-120.5 -82l-17 39q70 39 93.5 75t23.5 99zM80 612q0 17 12 29.5t28 12.5q17 0 29 -12.5t12 -29.5q0 -16 -12.5 -28t-28.5 -12t-28 12t-12 28z" />
    <glyph glyph-name="afii10106" unicode="&#x459;" horiz-adv-x="747" 
d="M392 487v-189h164q82 0 121.5 -44.5t39.5 -104.5q0 -69 -43.5 -109t-110.5 -40h-226v442h-156l-4 -74q-9 -183 -25 -244q-26 -101 -105 -132q-13 -5 -29 -9l-14 40q23 8 40 21t29 25.5t20.5 39t13.5 44.5t9 61.5t6 69.5t5 88l6 115h259zM548 254h-156v-209h164
q48 0 77 27.5t29 75.5q0 53 -32.5 79.5t-81.5 26.5z" />
    <glyph glyph-name="afii10107" unicode="&#x45a;" horiz-adv-x="741" 
d="M387 487v-195h159q83 0 124 -42t41 -104q0 -68 -43 -107t-110 -39h-225v248h-219v-248h-54v487h54v-195h219l-1 195h55zM543 248h-156v-203h164q48 0 77 26t29 75q0 53 -32.5 77.5t-81.5 24.5z" />
    <glyph glyph-name="afii10108" unicode="&#x45b;" horiz-adv-x="501" 
d="M441 0h-56v311q0 63 -17.5 92t-76.5 29q-67 0 -165 -54v-378h-57v554h-67v35h67v121h56v-121h195v-35h-195v-133q109 58 182 58q37 0 63.5 -10t40 -23.5t20.5 -36.5t8.5 -39.5t1.5 -41.5v-328z" />
    <glyph glyph-name="afii10109" unicode="&#x45c;" horiz-adv-x="458" 
d="M113 0h-54v489h54v-209h108q71 0 95 73l46 135h52q-5 -14 -22 -67.5t-22 -67.5q-25 -75 -69 -93q33 -9 50.5 -31t30.5 -60l54 -169h-54l-27 82l-26 79v-1q-27 78 -103 78h-113v-238zM339 679l-131 -136l-26 22l112 154z" />
    <glyph glyph-name="afii10110" unicode="&#x45e;" horiz-adv-x="434" 
d="M217 37q2 5 7.5 23.5l15.5 51.5l19 61l49.5 157t50.5 157h57q-181 -555 -193 -589q-18 -57 -46.5 -86t-76.5 -29q-58 3 -101 15l9 42q54 -11 80 -11q32 0 50 13.5t33 58.5l33 101h-29q-16 53 -83.5 256t-75.5 229h55l50 -156t50 -160l42 -134h4zM212 552q-82 0 -151 103
l36 25q57 -80 118 -80q63 0 138 74l21 -18q-74 -104 -162 -104z" />
    <glyph glyph-name="afii10193" unicode="&#x45f;" horiz-adv-x="490" 
d="M221 -140v140h-162v487h56v-442h261v442h55v-487h-162v-140h-48z" />
    <glyph glyph-name="afii10146" unicode="&#x462;" horiz-adv-x="574" 
d="M80 683h59v-116h195v-44h-195v-130h185q105 0 157.5 -57.5t52.5 -138.5q0 -96 -56.5 -146.5t-143.5 -50.5h-254v523h-59v44h59v116zM319 349h-180v-305h190q63 0 104 39.5t41 112.5q0 79 -46 116t-109 37z" />
    <glyph glyph-name="afii10194" unicode="&#x463;" horiz-adv-x="468" 
d="M4 480v43h55v187h55v-187h208v-43h-208v-183h164q82 0 121 -44.5t39 -103.5q0 -69 -43.5 -109t-110.5 -40h-225v480h-55zM269 254h-155v-209h163q48 0 77 27.5t29 76.5q0 53 -32.5 79t-81.5 26z" />
    <glyph glyph-name="afii10147" unicode="&#x472;" horiz-adv-x="656" 
d="M179 332v50h296v-50h-296zM606 339q0 -154 -70.5 -249.5t-201.5 -96.5q-150 0 -217 88.5t-67 254.5q0 58 9 109t30 97.5t53 79.5t81 52.5t111 19.5q272 0 272 -355zM544 336q0 312 -210 312q-223 0 -223 -314q0 -147 53 -221t167 -74q105 0 159 83t54 214z" />
    <glyph glyph-name="afii10195" unicode="&#x473;" horiz-adv-x="506" 
d="M457 241q0 -49 -10 -90.5t-32 -78.5t-64 -58t-101 -21q-108 0 -154.5 68.5t-46.5 177.5q0 107 51 181.5t157 74.5q56 0 97 -21.5t62.5 -59t31 -80.5t9.5 -93zM257 38q138 0 142 193h-292q0 -42 6.5 -73.5t22 -60t46 -44t75.5 -15.5zM257 450q-135 0 -149 -175h290
q-12 175 -141 175z" />
    <glyph glyph-name="uni048C" unicode="&#x48c;" horiz-adv-x="574" 
d="M80 683h59v-116h195v-44h-195v-130h185q105 0 157.5 -57.5t52.5 -138.5q0 -96 -56.5 -146.5t-143.5 -50.5h-254v523h-59v44h59v116zM319 349h-180v-305h190q63 0 104 39.5t41 112.5q0 79 -46 116t-109 37z" />
    <glyph glyph-name="uni048D" unicode="&#x48d;" horiz-adv-x="468" 
d="M4 480v43h55v187h55v-187h208v-43h-208v-183h164q82 0 121 -44.5t39 -103.5q0 -69 -43.5 -109t-110.5 -40h-225v480h-55zM269 254h-155v-209h163q48 0 77 27.5t29 76.5q0 53 -32.5 79t-81.5 26z" />
    <glyph glyph-name="afii10050" unicode="&#x490;" horiz-adv-x="489" 
d="M139 0h-59v683h347v127h48v-172h-336v-638z" />
    <glyph glyph-name="afii10098" unicode="&#x491;" horiz-adv-x="384" 
d="M328 487v101h42v-146h-257v-442h-54v487h269z" />
    <glyph glyph-name="uni0492" unicode="&#x492;" horiz-adv-x="503" 
d="M138 335v-335h-58v335h-74v46h74v301h391v-47h-333v-254h282v-46h-282z" />
    <glyph glyph-name="uni0493" unicode="&#x493;" horiz-adv-x="383" 
d="M113 441v-176h186v-45h-186v-220h-55v220h-55v45h55v221h317v-45h-262z" />
    <glyph glyph-name="uni0496" unicode="&#x496;" horiz-adv-x="888" 
d="M473 0h-59v340h-124q-102 0 -137 -114l-65 -226h-58l66 237q30 109 116 129q-68 21 -101 132l-52 184h54l56 -185q31 -108 129 -108h116v295h59v-295h116q98 0 129 108l56 185h54l-53 -184q-31 -110 -100 -132q48 -11 74 -43.5t41 -85.5l53 -193h32v-204h-50v160h-25
l-66 226q-35 114 -136 114h-125v-340z" />
    <glyph glyph-name="uni0497" unicode="&#x497;" horiz-adv-x="711" 
d="M382 0h-55v238h-75q-48 0 -76.5 -14.5t-44.5 -63.5q-9 -30 -27 -84.5l-25 -75.5h-54l54 168q13 38 30.5 60t49.5 32q-42 16 -69 92q-7 25 -22.5 70.5t-21.5 65.5h52l46 -135q11 -33 30.5 -50t36 -20t44.5 -3h72v208h55v-208h71q29 0 45.5 3t35.5 20t30 50l46 135h53
l-45 -136q-25 -76 -69 -92q33 -10 50.5 -32t30.5 -60l40 -124h29v-176h-47v132h-23l-52 159q-16 50 -44.5 64.5t-76.5 14.5h-74v-238z" />
    <glyph glyph-name="uni049A" unicode="&#x49a;" horiz-adv-x="563" 
d="M139 0h-59v684h59v-295h134q98 0 130 108l56 185h55l-52 -184q-33 -111 -101 -132q48 -11 74 -43.5t41 -85.5l53 -193h30v-204h-50v160h-25l-65 226q-34 113 -137 113h-143v-339z" />
    <glyph glyph-name="uni049B" unicode="&#x49b;" horiz-adv-x="458" 
d="M113 0h-54v489h54v-209h108q71 0 95 73l46 135h52q-5 -14 -22 -67.5t-22 -67.5q-25 -75 -69 -93q33 -9 50.5 -31t30.5 -60l40 -125h28v-176h-46v132h-22l-27 82l-26 79v-1q-27 78 -103 78h-113v-238z" />
    <glyph glyph-name="uni049C" unicode="&#x49c;" horiz-adv-x="563" 
d="M139 0h-59v684h59v-295h85v118h48v-118h1q98 0 130 108l56 185h55l-52 -184q-33 -111 -101 -132q48 -11 74 -43.5t41 -85.5l66 -237h-58l-65 226q-34 113 -137 113h-10v-129h-48v129h-85v-339z" />
    <glyph glyph-name="uni049D" unicode="&#x49d;" horiz-adv-x="458" 
d="M113 0h-54v489h54v-209h68v109h48v-109q63 2 87 73l46 135h52q-5 -14 -22 -67.5t-22 -67.5q-25 -75 -69 -93q33 -9 50.5 -31t30.5 -60l54 -169h-54l-27 82l-26 79v-1q-27 76 -100 78v-114h-48v114h-68v-238z" />
    <glyph glyph-name="uni04A0" unicode="&#x4a0;" horiz-adv-x="604" 
d="M1 634v49h179v-294h134q98 0 130 108l55 185h56l-54 -190q-30 -107 -99 -126q47 -11 73.5 -43t41.5 -86l66 -237h-58l-65 225q-33 114 -137 114h-143v-339h-59v634h-120z" />
    <glyph glyph-name="uni04A1" unicode="&#x4a1;" horiz-adv-x="501" 
d="M2 443v44h154v-207h109q70 0 95 74l45 132h52l-44 -133q-24 -75 -68 -92q33 -10 50 -32t30 -60l54 -169h-54l-53 160q-15 45 -40.5 61.5t-62.5 16.5h-113v-238h-54v443h-100z" />
    <glyph glyph-name="uni04A2" unicode="&#x4a2;" horiz-adv-x="626" 
d="M577 -160h-50v160h-42v336h-345q0 -30 0.5 -167.5t0.5 -168.5h-61v683h61q0 -27 -0.5 -148.5t-0.5 -148.5h345v297h61v-639h31v-204z" />
    <glyph glyph-name="uni04A3" unicode="&#x4a3;" horiz-adv-x="490" 
d="M455 -132h-46v132h-34v236h-261v-236h-55v487h56v-205h260v205h56v-443h24v-176z" />
    <glyph glyph-name="uni04B0" unicode="&#x4b0;" horiz-adv-x="501" 
d="M69 265v49h141l-198 370h63l107 -203l63 -125h4l65 124l111 204h62l-206 -370h145v-49h-148v-265h-62v265h-147z" />
    <glyph glyph-name="uni04B1" unicode="&#x4b1;" horiz-adv-x="424" 
d="M69 486l87 -271q39 -119 53 -169h4q26 92 52 171l89 269h57l-168 -486h136v-44h-143v-165h-55v165h-143v44h136l-163 486h58z" />
    <glyph glyph-name="uni04B2" unicode="&#x4b2;" horiz-adv-x="528" 
d="M228 354l-201 329h66l172 -288l173 288h65l-112.5 -182.5l-92.5 -148.5l189 -308h31v-204h-49v160h-21l-186 310l-185 -310h-64z" />
    <glyph glyph-name="uni04B3" unicode="&#x4b3;" horiz-adv-x="407" 
d="M335 0l-133 220l-135 -220h-60l72.5 115.5l89.5 140.5l-146 231h63l116 -193l58.5 96.5l58.5 96.5h62l-71.5 -111l-75.5 -118l136 -214h31v-176h-47v132h-19z" />
    <glyph glyph-name="uni04B6" unicode="&#x4b6;" horiz-adv-x="587" 
d="M507 682v-638h31v-204h-50v160h-40v311q-97 -36 -203 -36q-93 0 -142 41.5t-49 110.5v255h60v-237q0 -62 34 -92t106 -30q110 0 194 37v322h59z" />
    <glyph glyph-name="uni04B7" unicode="&#x4b7;" horiz-adv-x="464" 
d="M428 -132h-46v132h-34v237q-74 -48 -170 -48q-38 0 -64.5 9.5t-40.5 23t-21.5 36t-9 39.5t-1.5 42v148h55v-132q0 -63 18 -91.5t75 -28.5q95 0 159 48v205h56v-444h24v-176z" />
    <glyph glyph-name="uni04B8" unicode="&#x4b8;" horiz-adv-x="587" 
d="M507 682v-682h-59v311q-67 -25 -150 -33v-134h-48v131h-5q-93 0 -142 41.5t-49 110.5v255h60v-237q0 -121 136 -122v138h48v-136q87 7 150 35v322h59z" />
    <glyph glyph-name="uni04B9" unicode="&#x4b9;" horiz-adv-x="464" 
d="M404 0h-56v237q-50 -32 -106 -42v-112h-48v106h-16q-38 0 -64.5 9.5t-40.5 23t-21.5 36t-9 39.5t-1.5 42v148h55v-132q0 -63 18 -91.5t75 -28.5h5v125h48v-121q64 12 106 44v205h56v-488z" />
    <glyph glyph-name="uni04D8" unicode="&#x4d8;" horiz-adv-x="662" 
d="M318 -7q-258 0 -258 325v36h479q-5 293 -220 293q-101 0 -221 -54l-7.5 18.5t-8.5 21.5q117 60 243 60q60 0 108.5 -18t87 -57t60 -108t21.5 -163q0 -46 -6.5 -90t-25.5 -93.5t-49 -86t-82.5 -60.5t-120.5 -24zM320 39q57 0 99.5 22t66.5 61t36.5 84t16.5 101h-420
q0 -268 201 -268z" />
    <glyph glyph-name="schwacyrillic" unicode="&#x4d9;" horiz-adv-x="466" 
d="M229 38q132 0 145 179h-276q0 -179 131 -179zM228 -7q-185 0 -185 233v29h332q2 195 -149 195q-74 0 -154 -35l-15 37q79 43 171 43q60 0 101.5 -19t63.5 -54.5t31 -77t9 -96.5q0 -29 -4 -58t-17 -66t-34 -65t-60 -47t-90 -19z" />
    <glyph glyph-name="Wgrave" unicode="&#x1e80;" horiz-adv-x="807" 
d="M396 594h-6l-21.5 -93.5t-20.5 -93.5l-94 -407h-74l-166 682h60l98 -420l44 -193h4q20 81 43 188l47.5 203.5l51.5 221.5h62l34 -126.5l46.5 -175t33.5 -121.5q3 -8 13.5 -48l23.5 -88.5t14 -53.5h5l43 191l97 422h58l-166 -682h-71l-55.5 206l-56.5 210q-30 118 -47 178
zM410 722l-129 135l44 41l113 -153z" />
    <glyph glyph-name="wgrave" unicode="&#x1e81;" horiz-adv-x="686" 
d="M498 55h5l35 140l79 292h57l-140 -487h-64l-88 275l-43 147h-4l-38 -141l-82 -281h-65l-138 487h56l77 -281l38 -151h4l43 159l79 273h56l93 -295zM347 543l-130 136l45 41l113 -153z" />
    <glyph glyph-name="Wacute" unicode="&#x1e82;" horiz-adv-x="807" 
d="M396 594h-6l-21.5 -93.5t-20.5 -93.5l-94 -407h-74l-166 682h60l98 -420l44 -193h4q20 81 43 188l47.5 203.5l51.5 221.5h62l34 -126.5l46.5 -175t33.5 -121.5q3 -8 13.5 -48l23.5 -88.5t14 -53.5h5l43 191l97 422h58l-166 -682h-71l-55.5 206l-56.5 210q-30 118 -47 178
zM534 858l-130 -135l-28 22l113 153z" />
    <glyph glyph-name="wacute" unicode="&#x1e83;" horiz-adv-x="686" 
d="M498 55h5l35 140l79 292h57l-140 -487h-64l-88 275l-43 147h-4l-38 -141l-82 -281h-65l-138 487h56l77 -281l38 -151h4l43 159l79 273h56l93 -295zM472 679l-131 -136l-26 22l112 154z" />
    <glyph glyph-name="Wdieresis" unicode="&#x1e84;" horiz-adv-x="807" 
d="M396 594h-6l-21.5 -93.5t-20.5 -93.5l-94 -407h-74l-166 682h60l98 -420l44 -193h4q20 81 43 188l47.5 203.5l51.5 221.5h62l34 -126.5l46.5 -175t33.5 -121.5q3 -8 13.5 -48l23.5 -88.5t14 -53.5h5l43 191l97 422h58l-166 -682h-71l-55.5 206l-56.5 210q-30 118 -47 178
zM348 771q0 -16 -11 -26t-27 -10q-15 0 -25.5 10t-10.5 26q0 14 11 24.5t25 10.5q16 0 27 -10t11 -25zM511 771q0 -16 -11 -26t-28 -10q-14 0 -24 10t-10 26q0 14 10 24.5t24 10.5q17 0 28 -10t11 -25z" />
    <glyph glyph-name="wdieresis" unicode="&#x1e85;" horiz-adv-x="686" 
d="M498 55h5l35 140l79 292h57l-140 -487h-64l-88 275l-43 147h-4l-38 -141l-82 -281h-65l-138 487h56l77 -281l38 -151h4l43 159l79 273h56l93 -295zM454 588q0 -15 -11 -25t-27 -10q-15 0 -25 10t-10 25t10.5 25.5t24.5 10.5q16 0 27 -10t11 -26zM291 588q0 -15 -11 -25
t-27 -10q-15 0 -25.5 10t-10.5 25t11 25.5t25 10.5q17 0 27.5 -10t10.5 -26z" />
    <glyph glyph-name="uni1E9E" unicode="&#x1e9e;" horiz-adv-x="579" 
d="M207 13l14 45q55 -19 112 -19q71 0 108 41.5t37 116.5q0 71 -42.5 111.5t-117.5 40.5h-59v44l167 192q-58 62 -132 62t-114 -52.5t-40 -146.5v-448h-60v446q0 117 57 182t157 65q117 0 198 -103l-175 -197h22q81 0 140 -51t59 -145t-52.5 -149t-148.5 -55q-68 0 -130 20z
" />
    <glyph glyph-name="Ygrave" unicode="&#x1ef2;" horiz-adv-x="500" 
d="M216 0v304l-204 380h63l107 -203l63 -125h4l65 124l111 204h62l-209 -376v-308h-62zM268 719l-129 135l44 41l113 -153z" />
    <glyph glyph-name="ygrave" unicode="&#x1ef3;" horiz-adv-x="434" 
d="M217 37q2 5 7.5 23.5l15.5 51.5l19 61l49.5 157t50.5 157h57q-181 -555 -193 -589q-18 -57 -46.5 -86t-76.5 -29q-58 3 -101 15l9 42q54 -11 80 -11q32 0 50 13.5t33 58.5l33 101h-29q-16 53 -83.5 256t-75.5 229h55l50 -156t50 -160l42 -134h4zM233 543l-130 136l45 41
l113 -153z" />
    <glyph glyph-name="uni1F00" unicode="&#x1f00;" horiz-adv-x="524" 
d="M378 52h-1q-1 1 -2 1q-75 -59 -163 -59q-169 0 -169 242q0 41 6.5 77.5t21 70t36.5 57.5t55 38t74 14q71 0 143 -50l13 44h39v-443h64l3 -34q-32 -14 -66 -14q-56 0 -54 56zM375 103q0 48 0.5 145.5t0.5 146.5q-69 51 -132 51q-70 0 -106.5 -55t-36.5 -154
q0 -110 34 -154t96 -44q33 0 73 17t71 47zM229 743l8 6q37 -10 58 -35t21 -60q0 -23 -19.5 -53t-49.5 -53l-14 15q35 43 35 76q0 44 -54 58q14 42 15 46z" />
    <glyph glyph-name="uni1F01" unicode="&#x1f01;" horiz-adv-x="524" 
d="M378 52h-1q-1 1 -2 1q-75 -59 -163 -59q-169 0 -169 242q0 41 6.5 77.5t21 70t36.5 57.5t55 38t74 14q71 0 143 -50l13 44h39v-443h64l3 -34q-32 -14 -66 -14q-56 0 -54 56zM375 103q0 48 0.5 145.5t0.5 146.5q-69 51 -132 51q-70 0 -106.5 -55t-36.5 -154
q0 -110 34 -154t96 -44q33 0 73 17t71 47zM204 658q0 69 79 91l8 -6q4 -9 9 -25.5t6 -20.5q-54 -14 -54 -60q0 -35 35 -74l-13 -17q-32 23 -51 55t-19 57z" />
    <glyph glyph-name="uni1F02" unicode="&#x1f02;" horiz-adv-x="524" 
d="M378 52h-1q-1 1 -2 1q-75 -59 -163 -59q-169 0 -169 242q0 41 6.5 77.5t21 70t36.5 57.5t55 38t74 14q71 0 143 -50l13 44h39v-443h64l3 -34q-32 -14 -66 -14q-56 0 -54 56zM375 103q0 48 0.5 145.5t0.5 146.5q-69 51 -132 51q-70 0 -106.5 -55t-36.5 -154
q0 -110 34 -154t96 -44q33 0 73 17t71 47zM142 746q2 1 9 5q79 -21 79 -95q0 -22 -20 -53t-49 -53l-14 15q14 16 24 38.5t10 36.5q0 44 -53 59q3 8 7.5 24zM289 751l75 -184l-25 -14l-103 170z" />
    <glyph glyph-name="uni1F03" unicode="&#x1f03;" horiz-adv-x="524" 
d="M378 52h-1q-1 1 -2 1q-75 -59 -163 -59q-169 0 -169 242q0 41 6.5 77.5t21 70t36.5 57.5t55 38t74 14q71 0 143 -50l13 44h39v-443h64l3 -34q-32 -14 -66 -14q-56 0 -54 56zM375 103q0 48 0.5 145.5t0.5 146.5q-69 51 -132 51q-70 0 -106.5 -55t-36.5 -154
q0 -110 34 -154t96 -44q33 0 73 17t71 47zM226 751q7 -5 8 -5l16 -47q-55 -12 -55 -60q0 -33 35 -74q-8 -10 -13 -15q-31 22 -51 54t-20 55q0 69 80 92zM312 754l63 -188l-27 -12q-21 43 -91 176z" />
    <glyph glyph-name="uni1F04" unicode="&#x1f04;" horiz-adv-x="524" 
d="M378 52h-1q-1 1 -2 1q-75 -59 -163 -59q-169 0 -169 242q0 41 6.5 77.5t21 70t36.5 57.5t55 38t74 14q71 0 143 -50l13 44h39v-443h64l3 -34q-32 -14 -66 -14q-56 0 -54 56zM375 103q0 48 0.5 145.5t0.5 146.5q-69 51 -132 51q-70 0 -106.5 -55t-36.5 -154
q0 -110 34 -154t96 -44q33 0 73 17t71 47zM185 746l10 5q79 -22 79 -91q0 -22 -19 -54t-50 -55l-4.5 4.5l-5.5 5.5l-5 5q15 17 25 39t10 36q0 45 -54 58zM276 565l35.5 85.5l40.5 98.5l52 -29l-102 -169q-12 6 -26 14z" />
    <glyph glyph-name="uni1F05" unicode="&#x1f05;" horiz-adv-x="524" 
d="M378 52h-1q-1 1 -2 1q-75 -59 -163 -59q-169 0 -169 242q0 41 6.5 77.5t21 70t36.5 57.5t55 38t74 14q71 0 143 -50l13 44h39v-443h64l3 -34q-32 -14 -66 -14q-56 0 -54 56zM375 103q0 48 0.5 145.5t0.5 146.5q-69 51 -132 51q-70 0 -106.5 -55t-36.5 -154
q0 -110 34 -154t96 -44q33 0 73 17t71 47zM173 659q0 70 80 92l7 -5q9 -23 15 -47q-54 -15 -54 -60q0 -32 36 -74l-14 -15q-31 21 -50.5 53.5t-19.5 55.5zM278 564l38 91.5l38 92.5l52 -29l-102 -169q-4 2 -26 14z" />
    <glyph glyph-name="uni1F06" unicode="&#x1f06;" horiz-adv-x="524" 
d="M378 52h-1q-1 1 -2 1q-75 -59 -163 -59q-169 0 -169 242q0 41 6.5 77.5t21 70t36.5 57.5t55 38t74 14q71 0 143 -50l13 44h39v-443h64l3 -34q-32 -14 -66 -14q-56 0 -54 56zM375 103q0 48 0.5 145.5t0.5 146.5q-69 51 -132 51q-70 0 -106.5 -55t-36.5 -154
q0 -110 34 -154t96 -44q33 0 73 17t71 47zM175 762l-24.5 -18l-31.5 -23l-22 17q30 66 83 66q25 0 75 -18t70 -18l53 41l22 -15q-29 -69 -79 -69q-28 0 -78.5 18.5t-67.5 18.5zM204 667q2 8 14 38q3 3 9 5q79 -19 79 -73q0 -20 -18 -43.5t-51 -41.5q-2 2 -6.5 7.5t-7.5 7.5
q34 31 34 56q0 34 -53 44z" />
    <glyph glyph-name="uni1F07" unicode="&#x1f07;" horiz-adv-x="524" 
d="M378 52h-1q-1 1 -2 1q-75 -59 -163 -59q-169 0 -169 242q0 41 6.5 77.5t21 70t36.5 57.5t55 38t74 14q71 0 143 -50l13 44h39v-443h64l3 -34q-32 -14 -66 -14q-56 0 -54 56zM375 103q0 48 0.5 145.5t0.5 146.5q-69 51 -132 51q-70 0 -106.5 -55t-36.5 -154
q0 -110 34 -154t96 -44q33 0 73 17t71 47zM180 761l-57 -41l-22 18q29 65 84 65q25 0 76.5 -18.5t70.5 -18.5q9 6 27 20l27 21q4 -2 11 -7l10 -7q-27 -70 -78 -70q-28 0 -80 19t-69 19zM276 707q5 -1 8.5 -6.5t5.5 -10.5t4.5 -13.5t3.5 -11.5q-54 -10 -54 -45q0 -18 35 -55
q-5 -4 -13 -14q-32 18 -50.5 41.5t-18.5 42.5q0 56 79 72z" />
    <glyph glyph-name="uni1F08" unicode="&#x1f08;" horiz-adv-x="551" 
d="M535 0h-61l-60 187h-281l-28 -91t-30 -96h-61l223 683h76l120.5 -369zM400 233l-91 289q-9 33 -33 110h-3l-34 -110l-90 -289h251zM6 686l8 6q37 -10 58 -35t21 -60q0 -23 -19.5 -53t-49.5 -53l-14 15q35 43 35 76q0 44 -54 58q14 42 15 46z" />
    <glyph glyph-name="uni1F09" unicode="&#x1f09;" horiz-adv-x="551" 
d="M535 0h-61l-60 187h-281l-28 -91t-30 -96h-61l223 683h76l120.5 -369zM400 233l-91 289q-9 33 -33 110h-3l-34 -110l-90 -289h251zM-6 596q0 69 79 91l8 -6q4 -9 9 -25.5t6 -20.5q-54 -14 -54 -60q0 -35 35 -74l-13 -17q-32 23 -51 55t-19 57z" />
    <glyph glyph-name="uni1F0A" unicode="&#x1f0a;" horiz-adv-x="551" 
d="M535 0h-61l-60 187h-281l-28 -91t-30 -96h-61l223 683h76l120.5 -369zM400 233l-91 289q-9 33 -33 110h-3l-34 -110l-90 -289h251zM-91 683q2 1 9 5q79 -21 79 -95q0 -22 -20 -53t-49 -53l-14 15q14 16 24 38.5t10 36.5q0 44 -53 59q3 8 7.5 24zM56 688l75 -184l-25 -14
l-103 170z" />
    <glyph glyph-name="uni1F0B" unicode="&#x1f0b;" horiz-adv-x="551" 
d="M535 0h-61l-60 187h-281l-28 -91t-30 -96h-61l223 683h76l120.5 -369zM400 233l-91 289q-9 33 -33 110h-3l-34 -110l-90 -289h251zM-18 687q7 -5 8 -5l16 -47q-55 -12 -55 -60q0 -33 35 -74q-8 -10 -13 -15q-31 22 -51 54t-20 55q0 69 80 92zM68 690l63 -188l-27 -12
q-21 44 -91 176z" />
    <glyph glyph-name="uni1F0C" unicode="&#x1f0c;" horiz-adv-x="551" 
d="M535 0h-61l-60 187h-281l-28 -91t-30 -96h-61l223 683h76l120.5 -369zM400 233l-91 289q-9 33 -33 110h-3l-34 -110l-90 -289h251zM-67 683l10 5q79 -22 79 -91q0 -22 -19 -54t-50 -55l-4.5 4.5l-5.5 5.5l-5 5q15 17 25 39t10 36q0 45 -54 58zM24 502l35.5 85.5
l40.5 98.5l52 -29l-102 -169q-12 6 -26 14z" />
    <glyph glyph-name="uni1F0D" unicode="&#x1f0d;" horiz-adv-x="551" 
d="M535 0h-61l-60 187h-281l-28 -91t-30 -96h-61l223 683h76l120.5 -369zM400 233l-91 289q-9 33 -33 110h-3l-34 -110l-90 -289h251zM-78 595q0 70 80 92l7 -5q9 -23 15 -47q-54 -15 -54 -60q0 -32 36 -74l-14 -15q-31 21 -50.5 53.5t-19.5 55.5zM27 500l38 91.5l38 92.5
l52 -29l-102 -169q-4 2 -26 14z" />
    <glyph glyph-name="uni1F0E" unicode="&#x1f0e;" horiz-adv-x="551" 
d="M535 0h-61l-60 187h-281l-28 -91t-30 -96h-61l223 683h76l120.5 -369zM400 233l-91 289q-9 33 -33 110h-3l-34 -110l-90 -289h251zM-59 643l-24.5 -18l-31.5 -23l-22 17q30 66 83 66q25 0 75 -18t70 -18l53 41l22 -15q-29 -69 -79 -69q-28 0 -78.5 18.5t-67.5 18.5z
M-30 548q2 8 14 38q3 3 9 5q79 -19 79 -73q0 -20 -18 -43.5t-51 -41.5q-2 2 -6.5 7.5t-7.5 7.5q34 31 34 56q0 34 -53 44z" />
    <glyph glyph-name="uni1F0F" unicode="&#x1f0f;" horiz-adv-x="551" 
d="M535 0h-61l-60 187h-281l-28 -91t-30 -96h-61l223 683h76l120.5 -369zM400 233l-91 289q-9 33 -33 110h-3l-34 -110l-90 -289h251zM-53 643l-57 -41l-22 18q29 65 84 65q25 0 76.5 -18.5t70.5 -18.5q9 6 27 20l27 21q4 -2 11 -7l10 -7q-27 -70 -78 -70q-28 0 -80 19
t-69 19zM43 589q5 -1 8.5 -6.5t5.5 -10.5t4.5 -13.5t3.5 -11.5q-54 -10 -54 -45q0 -18 35 -55q-5 -4 -13 -14q-32 18 -50.5 41.5t-18.5 42.5q0 56 79 72z" />
    <glyph glyph-name="uni1F10" unicode="&#x1f10;" horiz-adv-x="425" 
d="M224 496q91 0 153 -23l-13 -41q-63 21 -134 21q-62 0 -92.5 -25.5t-30.5 -63.5q0 -78 113 -78h69v-42h-70q-48 0 -84.5 -24.5t-36.5 -78.5q0 -53 39.5 -79t102.5 -26q66 0 149 36l15 -36q-76 -43 -167 -43q-84 0 -140 33t-56 108q0 47 26 81t68 46l1 3q-38 10 -62 34.5
t-24 61.5q0 64 49.5 100t124.5 36zM198 743l8 6q37 -10 58 -35t21 -60q0 -23 -19.5 -53t-49.5 -53l-14 15q35 43 35 76q0 44 -54 58q14 42 15 46z" />
    <glyph glyph-name="uni1F11" unicode="&#x1f11;" horiz-adv-x="425" 
d="M224 496q91 0 153 -23l-13 -41q-63 21 -134 21q-62 0 -92.5 -25.5t-30.5 -63.5q0 -78 113 -78h69v-42h-70q-48 0 -84.5 -24.5t-36.5 -78.5q0 -53 39.5 -79t102.5 -26q66 0 149 36l15 -36q-76 -43 -167 -43q-84 0 -140 33t-56 108q0 47 26 81t68 46l1 3q-38 10 -62 34.5
t-24 61.5q0 64 49.5 100t124.5 36zM174 658q0 69 79 91l8 -6q4 -9 9 -25.5t6 -20.5q-54 -14 -54 -60q0 -35 35 -74l-13 -17q-32 23 -51 55t-19 57z" />
    <glyph glyph-name="uni1F12" unicode="&#x1f12;" horiz-adv-x="425" 
d="M224 496q91 0 153 -23l-13 -41q-63 21 -134 21q-62 0 -92.5 -25.5t-30.5 -63.5q0 -78 113 -78h69v-42h-70q-48 0 -84.5 -24.5t-36.5 -78.5q0 -53 39.5 -79t102.5 -26q66 0 149 36l15 -36q-76 -43 -167 -43q-84 0 -140 33t-56 108q0 47 26 81t68 46l1 3q-38 10 -62 34.5
t-24 61.5q0 64 49.5 100t124.5 36zM126 746q2 1 9 5q79 -21 79 -95q0 -22 -20 -53t-49 -53l-14 15q14 16 24 38.5t10 36.5q0 44 -53 59q3 8 7.5 24zM273 751l75 -184l-25 -14l-103 170z" />
    <glyph glyph-name="uni1F13" unicode="&#x1f13;" horiz-adv-x="425" 
d="M224 496q91 0 153 -23l-13 -41q-63 21 -134 21q-62 0 -92.5 -25.5t-30.5 -63.5q0 -78 113 -78h69v-42h-70q-48 0 -84.5 -24.5t-36.5 -78.5q0 -53 39.5 -79t102.5 -26q66 0 149 36l15 -36q-76 -43 -167 -43q-84 0 -140 33t-56 108q0 47 26 81t68 46l1 3q-38 10 -62 34.5
t-24 61.5q0 64 49.5 100t124.5 36zM191 751q7 -5 8 -5l16 -47q-55 -12 -55 -60q0 -33 35 -74q-8 -10 -13 -15q-31 22 -51 54t-20 55q0 69 80 92zM277 754l63 -188l-27 -12q-21 43 -91 176z" />
    <glyph glyph-name="uni1F14" unicode="&#x1f14;" horiz-adv-x="425" 
d="M224 496q91 0 153 -23l-13 -41q-63 21 -134 21q-62 0 -92.5 -25.5t-30.5 -63.5q0 -78 113 -78h69v-42h-70q-48 0 -84.5 -24.5t-36.5 -78.5q0 -53 39.5 -79t102.5 -26q66 0 149 36l15 -36q-76 -43 -167 -43q-84 0 -140 33t-56 108q0 47 26 81t68 46l1 3q-38 10 -62 34.5
t-24 61.5q0 64 49.5 100t124.5 36zM139 746l10 5q79 -22 79 -91q0 -22 -19 -54t-50 -55l-4.5 4.5l-5.5 5.5l-5 5q15 17 25 39t10 36q0 45 -54 58zM230 565l35.5 85.5l40.5 98.5l52 -29l-102 -169q-12 6 -26 14z" />
    <glyph glyph-name="uni1F15" unicode="&#x1f15;" horiz-adv-x="425" 
d="M224 496q91 0 153 -23l-13 -41q-63 21 -134 21q-62 0 -92.5 -25.5t-30.5 -63.5q0 -78 113 -78h69v-42h-70q-48 0 -84.5 -24.5t-36.5 -78.5q0 -53 39.5 -79t102.5 -26q66 0 149 36l15 -36q-76 -43 -167 -43q-84 0 -140 33t-56 108q0 47 26 81t68 46l1 3q-38 10 -62 34.5
t-24 61.5q0 64 49.5 100t124.5 36zM135 659q0 70 80 92l7 -5q9 -23 15 -47q-54 -15 -54 -60q0 -32 36 -74l-14 -15q-31 21 -50.5 53.5t-19.5 55.5zM240 564l38 91.5l38 92.5l52 -29l-102 -169q-4 2 -26 14z" />
    <glyph glyph-name="uni1F18" unicode="&#x1f18;" horiz-adv-x="531" 
d="M490 0h-410v683h393v-46h-334v-252h286v-46h-286v-292h351v-47zM-98 686l8 6q37 -10 58 -35t21 -60q0 -23 -19.5 -53t-49.5 -53l-14 15q35 43 35 76q0 44 -54 58q14 42 15 46z" />
    <glyph glyph-name="uni1F19" unicode="&#x1f19;" horiz-adv-x="531" 
d="M490 0h-410v683h393v-46h-334v-252h286v-46h-286v-292h351v-47zM-111 598q0 69 79 91l8 -6q4 -9 9 -25.5t6 -20.5q-54 -14 -54 -60q0 -35 35 -74l-13 -17q-32 23 -51 55t-19 57z" />
    <glyph glyph-name="uni1F1A" unicode="&#x1f1a;" horiz-adv-x="531" 
d="M490 0h-410v683h393v-46h-334v-252h286v-46h-286v-292h351v-47zM-208 686q2 1 9 5q79 -21 79 -95q0 -22 -20 -53t-49 -53l-14 15q14 16 24 38.5t10 36.5q0 44 -53 59q3 8 7.5 24zM-61 691l75 -184l-25 -14l-103 170z" />
    <glyph glyph-name="uni1F1B" unicode="&#x1f1b;" horiz-adv-x="531" 
d="M490 0h-410v683h393v-46h-334v-252h286v-46h-286v-292h351v-47zM-136 691q7 -5 8 -5l16 -47q-55 -12 -55 -60q0 -33 35 -74q-8 -10 -13 -15q-31 22 -51 54t-20 55q0 69 80 92zM-50 694l63 -188l-27 -12q-21 43 -91 176z" />
    <glyph glyph-name="uni1F1C" unicode="&#x1f1c;" horiz-adv-x="531" 
d="M490 0h-410v683h393v-46h-334v-252h286v-46h-286v-292h351v-47zM-216 684l10 5q79 -22 79 -91q0 -22 -19 -54t-50 -55l-15 15q15 17 25 39t10 36q0 45 -54 58zM-125 503l35.5 85.5l40.5 98.5l52 -29l-102 -169q-12 6 -26 14z" />
    <glyph glyph-name="uni1F1D" unicode="&#x1f1d;" horiz-adv-x="531" 
d="M490 0h-410v683h393v-46h-334v-252h286v-46h-286v-292h351v-47zM-228 598q0 70 80 92l7 -5q9 -23 15 -47q-54 -15 -54 -60q0 -32 36 -74l-14 -15q-31 21 -50.5 53.5t-19.5 55.5zM-123 503l38 92l38 92l52 -29l-102 -169q-4 2 -26 14z" />
    <glyph glyph-name="uni1F20" unicode="&#x1f20;" horiz-adv-x="490" 
d="M431 0h-56v327q0 32 -2.5 50.5t-11.5 37t-28.5 26t-51.5 7.5q-70 0 -166 -53v-395h-56v487h56v-45q2 -1 3 -2q92 56 177 56q45 0 74.5 -12.5t41.5 -36t16 -44.5t4 -52v-351zM187 743l8 6q37 -10 58 -35t21 -60q0 -23 -19.5 -53t-49.5 -53l-14 15q35 43 35 76q0 44 -54 58
q14 42 15 46z" />
    <glyph glyph-name="uni1F21" unicode="&#x1f21;" horiz-adv-x="490" 
d="M431 0h-56v327q0 32 -2.5 50.5t-11.5 37t-28.5 26t-51.5 7.5q-70 0 -166 -53v-395h-56v487h56v-45q2 -1 3 -2q92 56 177 56q45 0 74.5 -12.5t41.5 -36t16 -44.5t4 -52v-351zM178 658q0 69 79 91l8 -6q4 -9 9 -25.5t6 -20.5q-54 -14 -54 -60q0 -35 35 -74l-13 -17
q-32 23 -51 55t-19 57z" />
    <glyph glyph-name="uni1F22" unicode="&#x1f22;" horiz-adv-x="490" 
d="M431 0h-56v327q0 32 -2.5 50.5t-11.5 37t-28.5 26t-51.5 7.5q-70 0 -166 -53v-395h-56v487h56v-45q2 -1 3 -2q92 56 177 56q45 0 74.5 -12.5t41.5 -36t16 -44.5t4 -52v-351zM122 746q2 1 9 5q79 -21 79 -95q0 -22 -20 -53t-49 -53l-14 15q14 16 24 38.5t10 36.5
q0 44 -53 59q3 8 7.5 24zM269 751l75 -184l-25 -14l-103 170z" />
    <glyph glyph-name="uni1F23" unicode="&#x1f23;" horiz-adv-x="490" 
d="M431 0h-56v327q0 32 -2.5 50.5t-11.5 37t-28.5 26t-51.5 7.5q-70 0 -166 -53v-395h-56v487h56v-45q2 -1 3 -2q92 56 177 56q45 0 74.5 -12.5t41.5 -36t16 -44.5t4 -52v-351zM196 751q7 -5 8 -5l16 -47q-55 -12 -55 -60q0 -33 35 -74q-8 -10 -13 -15q-31 22 -51 54t-20 55
q0 69 80 92zM282 754l63 -188l-27 -12q-21 43 -91 176z" />
    <glyph glyph-name="uni1F24" unicode="&#x1f24;" horiz-adv-x="490" 
d="M431 0h-56v327q0 32 -2.5 50.5t-11.5 37t-28.5 26t-51.5 7.5q-70 0 -166 -53v-395h-56v487h56v-45q2 -1 3 -2q92 56 177 56q45 0 74.5 -12.5t41.5 -36t16 -44.5t4 -52v-351zM144 746l10 5q79 -22 79 -91q0 -22 -19 -54t-50 -55l-15 15q15 17 25 39t10 36q0 45 -54 58z
M235 565l35.5 85.5l40.5 98.5l52 -29l-102 -169q-12 6 -26 14z" />
    <glyph glyph-name="uni1F25" unicode="&#x1f25;" horiz-adv-x="490" 
d="M431 0h-56v327q0 32 -2.5 50.5t-11.5 37t-28.5 26t-51.5 7.5q-70 0 -166 -53v-395h-56v487h56v-45q2 -1 3 -2q92 56 177 56q45 0 74.5 -12.5t41.5 -36t16 -44.5t4 -52v-351zM133 659q0 70 80 92l7 -5q9 -23 15 -47q-54 -15 -54 -60q0 -32 36 -74l-14 -15
q-31 21 -50.5 53.5t-19.5 55.5zM238 564l38 91.5l38 92.5l52 -29l-102 -169q-4 2 -26 14z" />
    <glyph glyph-name="uni1F26" unicode="&#x1f26;" horiz-adv-x="490" 
d="M431 0h-56v327q0 32 -2.5 50.5t-11.5 37t-28.5 26t-51.5 7.5q-70 0 -166 -53v-395h-56v487h56v-45q2 -1 3 -2q92 56 177 56q45 0 74.5 -12.5t41.5 -36t16 -44.5t4 -52v-351zM149 762l-24.5 -18l-31.5 -23l-22 17q30 66 83 66q25 0 75 -18t70 -18l53 41l22 -15
q-29 -69 -79 -69q-28 0 -78.5 18.5t-67.5 18.5zM178 667q2 8 14 38q3 3 9 5q79 -19 79 -73q0 -20 -18 -43.5t-51 -41.5q-2 2 -6.5 7.5t-7.5 7.5q34 31 34 56q0 34 -53 44z" />
    <glyph glyph-name="uni1F27" unicode="&#x1f27;" horiz-adv-x="490" 
d="M431 0h-56v327q0 32 -2.5 50.5t-11.5 37t-28.5 26t-51.5 7.5q-70 0 -166 -53v-395h-56v487h56v-45q2 -1 3 -2q92 56 177 56q45 0 74.5 -12.5t41.5 -36t16 -44.5t4 -52v-351zM156 760l-57 -41l-22 18q29 65 84 65q25 0 76.5 -18.5t70.5 -18.5l27 20.5l27 20.5q4 -2 11 -7
l10 -7q-27 -70 -78 -70q-28 0 -80 19t-69 19zM252 706q5 -1 8.5 -6.5t5.5 -10.5t4.5 -13.5t3.5 -11.5q-54 -10 -54 -45q0 -18 35 -55q-5 -4 -13 -14q-32 18 -50.5 41.5t-18.5 42.5q0 56 79 72z" />
    <glyph glyph-name="uni1F28" unicode="&#x1f28;" horiz-adv-x="626" 
d="M546 0h-61v336h-345q0 -30 0.5 -167.5t0.5 -168.5h-61v683h61q0 -27 -0.5 -148.5t-0.5 -148.5h345v297h61v-683zM-95 687l8 6q37 -10 58 -35t21 -60q0 -23 -19.5 -53t-49.5 -53l-14 15q35 43 35 76q0 44 -54 58q14 42 15 46z" />
    <glyph glyph-name="uni1F29" unicode="&#x1f29;" horiz-adv-x="626" 
d="M546 0h-61v336h-345q0 -30 0.5 -167.5t0.5 -168.5h-61v683h61q0 -27 -0.5 -148.5t-0.5 -148.5h345v297h61v-683zM-107 597q0 69 79 91l8 -6q4 -9 9 -25.5t6 -20.5q-54 -14 -54 -60q0 -35 35 -74l-13 -17q-32 23 -51 55t-19 57z" />
    <glyph glyph-name="uni1F2A" unicode="&#x1f2a;" horiz-adv-x="626" 
d="M546 0h-61v336h-345q0 -30 0.5 -167.5t0.5 -168.5h-61v683h61q0 -27 -0.5 -148.5t-0.5 -148.5h345v297h61v-683zM-208 682q2 1 9 5q79 -21 79 -95q0 -22 -20 -53t-49 -53l-14 15q14 16 24 38.5t10 36.5q0 44 -53 59q3 8 7.5 24zM-61 687l75 -184l-25 -14l-103 170z" />
    <glyph glyph-name="uni1F2B" unicode="&#x1f2b;" horiz-adv-x="626" 
d="M546 0h-61v336h-345q0 -30 0.5 -167.5t0.5 -168.5h-61v683h61q0 -27 -0.5 -148.5t-0.5 -148.5h345v297h61v-683zM-133 688q7 -5 8 -5l16 -47q-55 -12 -55 -60q0 -33 35 -74q-8 -10 -13 -15q-31 22 -51 54t-20 55q0 69 80 92zM-47 691l63 -188l-27 -12q-21 44 -91 176z
" />
    <glyph glyph-name="uni1F2C" unicode="&#x1f2c;" horiz-adv-x="626" 
d="M546 0h-61v336h-345q0 -30 0.5 -167.5t0.5 -168.5h-61v683h61q0 -27 -0.5 -148.5t-0.5 -148.5h345v297h61v-683zM-200 681l10 5q79 -22 79 -91q0 -22 -19 -54t-50 -55l-15 15q15 17 25 39t10 36q0 45 -54 58zM-109 500l35.5 85.5l40.5 98.5l52 -29l-102 -169
q-12 6 -26 14z" />
    <glyph glyph-name="uni1F2D" unicode="&#x1f2d;" horiz-adv-x="626" 
d="M546 0h-61v336h-345q0 -30 0.5 -167.5t0.5 -168.5h-61v683h61q0 -27 -0.5 -148.5t-0.5 -148.5h345v297h61v-683zM-219 596q0 70 80 92l7 -5q9 -23 15 -47q-54 -15 -54 -60q0 -32 36 -74l-14 -15q-31 21 -50.5 53.5t-19.5 55.5zM-114 501l38 91.5l38 92.5l52 -29
l-102 -169q-4 2 -26 14z" />
    <glyph glyph-name="uni1F2E" unicode="&#x1f2e;" horiz-adv-x="626" 
d="M546 0h-61v336h-345q0 -30 0.5 -167.5t0.5 -168.5h-61v683h61q0 -27 -0.5 -148.5t-0.5 -148.5h345v297h61v-683zM-198 643l-24.5 -18l-31.5 -23l-22 17q30 66 83 66q25 0 75 -18t70 -18l53 41l22 -15q-29 -69 -79 -69q-28 0 -78.5 18.5t-67.5 18.5zM-169 548q2 8 14 38
q3 3 9 5q79 -19 79 -73q0 -20 -18 -43.5t-51 -41.5q-2 2 -6.5 7.5t-7.5 7.5q34 31 34 56q0 34 -53 44z" />
    <glyph glyph-name="uni1F2F" unicode="&#x1f2f;" horiz-adv-x="626" 
d="M546 0h-61v336h-345q0 -30 0.5 -167.5t0.5 -168.5h-61v683h61q0 -27 -0.5 -148.5t-0.5 -148.5h345v297h61v-683zM-198 643l-57 -41l-22 18q29 65 84 65q25 0 76.5 -18.5t70.5 -18.5q9 6 27 20l27 21q4 -2 11 -7l10 -7q-27 -70 -78 -70q-28 0 -80 19t-69 19zM-102 589
q5 -1 8.5 -6.5t5.5 -10.5t4.5 -13.5t3.5 -11.5q-54 -10 -54 -45q0 -18 35 -55q-5 -4 -13 -14q-32 18 -50.5 41.5t-18.5 42.5q0 56 79 72z" />
    <glyph glyph-name="uni1F30" unicode="&#x1f30;" horiz-adv-x="219" 
d="M76 53v434h55v-442h63l3 -34q-35 -15 -64 -15t-43 13t-14 44zM79 743l8 6q37 -10 58 -35t21 -60q0 -23 -19.5 -53t-49.5 -53l-14 15q35 43 35 76q0 44 -54 58q14 42 15 46z" />
    <glyph glyph-name="uni1F31" unicode="&#x1f31;" horiz-adv-x="219" 
d="M76 53v434h55v-442h63l3 -34q-35 -15 -64 -15t-43 13t-14 44zM59 658q0 69 79 91l8 -6q4 -9 9 -25.5t6 -20.5q-54 -14 -54 -60q0 -35 35 -74l-13 -17q-32 23 -51 55t-19 57z" />
    <glyph glyph-name="uni1F32" unicode="&#x1f32;" horiz-adv-x="219" 
d="M76 53v434h55v-442h63l3 -34q-35 -15 -64 -15t-43 13t-14 44zM-13 746q2 1 9 5q79 -21 79 -95q0 -22 -20 -53t-49 -53l-14 15q14 16 24 38.5t10 36.5q0 44 -53 59q3 8 7.5 24zM134 751l75 -184l-25 -14l-103 170z" />
    <glyph glyph-name="uni1F33" unicode="&#x1f33;" horiz-adv-x="219" 
d="M76 53v434h55v-442h63l3 -34q-35 -15 -64 -15t-43 13t-14 44zM61 753q7 -5 8 -5l16 -47q-55 -12 -55 -60q0 -33 35 -74q-8 -10 -13 -15q-31 22 -51 54t-20 55q0 69 80 92zM147 756l63 -188l-27 -12q-21 44 -91 176z" />
    <glyph glyph-name="uni1F34" unicode="&#x1f34;" horiz-adv-x="219" 
d="M76 53v434h55v-442h63l3 -34q-35 -15 -64 -15t-43 13t-14 44zM29 746l10 5q79 -22 79 -91q0 -22 -19 -54t-50 -55l-15 15q15 17 25 39t10 36q0 45 -54 58zM120 565l35.5 85.5l40.5 98.5l52 -29l-102 -169q-12 6 -26 14z" />
    <glyph glyph-name="uni1F35" unicode="&#x1f35;" horiz-adv-x="219" 
d="M76 53v434h55v-442h63l3 -34q-35 -15 -64 -15t-43 13t-14 44zM8 659q0 70 80 92l7 -5q9 -23 15 -47q-54 -15 -54 -60q0 -32 36 -74l-14 -15q-31 21 -50.5 53.5t-19.5 55.5zM113 564l38 91.5l38 92.5l52 -29l-102 -169q-4 2 -26 14z" />
    <glyph glyph-name="uni1F36" unicode="&#x1f36;" horiz-adv-x="219" 
d="M76 53v434h55v-442h63l3 -34q-35 -15 -64 -15t-43 13t-14 44zM26 762l-24.5 -18l-31.5 -23l-22 17q30 66 83 66q25 0 75 -18t70 -18l53 41l22 -15q-29 -69 -79 -69q-28 0 -78.5 18.5t-67.5 18.5zM55 667q2 8 14 38q3 3 9 5q79 -19 79 -73q0 -20 -18 -43.5t-51 -41.5
q-2 2 -6.5 7.5t-7.5 7.5q34 31 34 56q0 34 -53 44z" />
    <glyph glyph-name="uni1F37" unicode="&#x1f37;" horiz-adv-x="219" 
d="M76 53v434h55v-442h63l3 -34q-35 -15 -64 -15t-43 13t-14 44zM28 761l-57 -41l-22 18q29 65 84 65q25 0 76.5 -18.5t70.5 -18.5q9 6 27 20l27 21q4 -2 11 -7l10 -7q-27 -70 -78 -70q-28 0 -80 19t-69 19zM124 707q5 -1 8.5 -6.5t5.5 -10.5t4.5 -13.5t3.5 -11.5
q-54 -10 -54 -45q0 -18 35 -55q-5 -4 -13 -14q-32 18 -50.5 41.5t-18.5 42.5q0 56 79 72z" />
    <glyph glyph-name="uni1F38" unicode="&#x1f38;" horiz-adv-x="238" 
d="M148 0h-58v684h58v-684zM-94 686l8 6q37 -10 58 -35t21 -60q0 -23 -19.5 -53t-49.5 -53l-14 15q35 43 35 76q0 44 -54 58q14 42 15 46z" />
    <glyph glyph-name="uni1F39" unicode="&#x1f39;" horiz-adv-x="238" 
d="M148 0h-58v684h58v-684zM-101 599q0 69 79 91l8 -6q4 -9 9 -25.5t6 -20.5q-54 -14 -54 -60q0 -35 35 -74l-13 -17q-32 23 -51 55t-19 57z" />
    <glyph glyph-name="uni1F3A" unicode="&#x1f3a;" horiz-adv-x="238" 
d="M148 0h-58v684h58v-684zM-194 682q2 1 9 5q79 -21 79 -95q0 -22 -20 -53t-49 -53l-14 15q14 16 24 38.5t10 36.5q0 44 -53 59q3 8 7.5 24zM-47 687l75 -184l-25 -14l-103 170z" />
    <glyph glyph-name="uni1F3B" unicode="&#x1f3b;" horiz-adv-x="238" 
d="M148 0h-58v684h58v-684zM-118 688q7 -5 8 -5l16 -47q-55 -12 -55 -60q0 -33 35 -74q-8 -10 -13 -15q-31 22 -51 54t-20 55q0 69 80 92zM-32 691l63 -188l-27 -12q-21 44 -91 176z" />
    <glyph glyph-name="uni1F3C" unicode="&#x1f3c;" horiz-adv-x="238" 
d="M148 0h-58v684h58v-684zM-191 682l10 5q79 -22 79 -91q0 -22 -19 -54t-50 -55l-4.5 4.5l-5.5 5.5l-5 5q15 17 25 39t10 36q0 45 -54 58zM-100 501l35.5 85.5l40.5 98.5l52 -29l-102 -169q-12 6 -26 14z" />
    <glyph glyph-name="uni1F3D" unicode="&#x1f3d;" horiz-adv-x="238" 
d="M148 0h-58v684h58v-684zM-205 595q0 70 80 92l7 -5q9 -23 15 -47q-54 -15 -54 -60q0 -32 36 -74l-14 -15q-31 21 -50.5 53.5t-19.5 55.5zM-100 500l38 92l38 92l52 -29l-102 -169q-4 2 -26 14z" />
    <glyph glyph-name="uni1F3E" unicode="&#x1f3e;" horiz-adv-x="238" 
d="M148 0h-58v684h58v-684zM-179 645l-24.5 -18l-31.5 -23l-22 17q30 66 83 66q25 0 75 -18t70 -18l53 41l22 -15q-29 -69 -79 -69q-28 0 -78.5 18.5t-67.5 18.5zM-150 550q2 8 14 38q3 3 9 5q79 -19 79 -73q0 -20 -18 -43.5t-51 -41.5q-2 2 -6.5 7.5t-7.5 7.5q34 31 34 56
q0 34 -53 44z" />
    <glyph glyph-name="uni1F3F" unicode="&#x1f3f;" horiz-adv-x="238" 
d="M148 0h-58v684h58v-684zM-185 643l-57 -41l-22 18q29 65 84 65q25 0 76.5 -18.5t70.5 -18.5q9 6 27 20l27 21q4 -2 11 -7l10 -7q-27 -70 -78 -70q-28 0 -80 19t-69 19zM-89 589q5 -1 8.5 -6.5t5.5 -10.5t4.5 -13.5t3.5 -11.5q-54 -10 -54 -45q0 -18 35 -55q-5 -4 -13 -14
q-32 18 -50.5 41.5t-18.5 42.5q0 56 79 72z" />
    <glyph glyph-name="uni1F40" unicode="&#x1f40;" horiz-adv-x="505" 
d="M457 241q0 -49 -10 -90.5t-32 -78.5t-64 -58t-101 -21q-108 0 -154.5 68.5t-46.5 177.5q0 107 51 181.5t157 74.5q56 0 97 -21.5t62.5 -59t31 -80.5t9.5 -93zM399 239q0 211 -142 211q-43 0 -73.5 -18.5t-46.5 -50.5t-23 -67t-7 -76q0 -43 6 -75.5t21 -62.5t46 -46
t77 -16q142 0 142 201zM212 743l8 6q37 -10 58 -35t21 -60q0 -23 -19.5 -53t-49.5 -53l-14 15q35 43 35 76q0 44 -54 58q14 42 15 46z" />
    <glyph glyph-name="uni1F41" unicode="&#x1f41;" horiz-adv-x="505" 
d="M457 241q0 -49 -10 -90.5t-32 -78.5t-64 -58t-101 -21q-108 0 -154.5 68.5t-46.5 177.5q0 107 51 181.5t157 74.5q56 0 97 -21.5t62.5 -59t31 -80.5t9.5 -93zM399 239q0 211 -142 211q-43 0 -73.5 -18.5t-46.5 -50.5t-23 -67t-7 -76q0 -43 6 -75.5t21 -62.5t46 -46
t77 -16q142 0 142 201zM204 658q0 69 79 91l8 -6q4 -9 9 -25.5t6 -20.5q-54 -14 -54 -60q0 -35 35 -74l-13 -17q-32 23 -51 55t-19 57z" />
    <glyph glyph-name="uni1F42" unicode="&#x1f42;" horiz-adv-x="505" 
d="M457 241q0 -49 -10 -90.5t-32 -78.5t-64 -58t-101 -21q-108 0 -154.5 68.5t-46.5 177.5q0 107 51 181.5t157 74.5q56 0 97 -21.5t62.5 -59t31 -80.5t9.5 -93zM399 239q0 211 -142 211q-43 0 -73.5 -18.5t-46.5 -50.5t-23 -67t-7 -76q0 -43 6 -75.5t21 -62.5t46 -46
t77 -16q142 0 142 201zM153 746q2 1 9 5q79 -21 79 -95q0 -22 -20 -53t-49 -53l-14 15q14 16 24 38.5t10 36.5q0 44 -53 59q3 8 7.5 24zM300 751l75 -184l-25 -14l-103 170z" />
    <glyph glyph-name="uni1F43" unicode="&#x1f43;" horiz-adv-x="505" 
d="M457 241q0 -49 -10 -90.5t-32 -78.5t-64 -58t-101 -21q-108 0 -154.5 68.5t-46.5 177.5q0 107 51 181.5t157 74.5q56 0 97 -21.5t62.5 -59t31 -80.5t9.5 -93zM399 239q0 211 -142 211q-43 0 -73.5 -18.5t-46.5 -50.5t-23 -67t-7 -76q0 -43 6 -75.5t21 -62.5t46 -46
t77 -16q142 0 142 201zM224 751q7 -5 8 -5l16 -47q-55 -12 -55 -60q0 -33 35 -74q-8 -10 -13 -15q-31 22 -51 54t-20 55q0 69 80 92zM310 754l63 -188l-27 -12q-21 43 -91 176z" />
    <glyph glyph-name="uni1F44" unicode="&#x1f44;" horiz-adv-x="505" 
d="M457 241q0 -49 -10 -90.5t-32 -78.5t-64 -58t-101 -21q-108 0 -154.5 68.5t-46.5 177.5q0 107 51 181.5t157 74.5q56 0 97 -21.5t62.5 -59t31 -80.5t9.5 -93zM399 239q0 211 -142 211q-43 0 -73.5 -18.5t-46.5 -50.5t-23 -67t-7 -76q0 -43 6 -75.5t21 -62.5t46 -46
t77 -16q142 0 142 201zM189 746l10 5q79 -22 79 -91q0 -22 -19 -54t-50 -55l-15 15q15 17 25 39t10 36q0 45 -54 58zM280 565l35.5 85.5l40.5 98.5l52 -29l-102 -169q-12 6 -26 14z" />
    <glyph glyph-name="uni1F45" unicode="&#x1f45;" horiz-adv-x="505" 
d="M457 241q0 -49 -10 -90.5t-32 -78.5t-64 -58t-101 -21q-108 0 -154.5 68.5t-46.5 177.5q0 107 51 181.5t157 74.5q56 0 97 -21.5t62.5 -59t31 -80.5t9.5 -93zM399 239q0 211 -142 211q-43 0 -73.5 -18.5t-46.5 -50.5t-23 -67t-7 -76q0 -43 6 -75.5t21 -62.5t46 -46
t77 -16q142 0 142 201zM162 659q0 70 80 92l7 -5q9 -23 15 -47q-54 -15 -54 -60q0 -32 36 -74l-14 -15q-31 21 -50.5 53.5t-19.5 55.5zM267 564l38 91.5l38 92.5l52 -29l-102 -169q-4 2 -26 14z" />
    <glyph glyph-name="uni1F48" unicode="&#x1f48;" horiz-adv-x="676" 
d="M616 339q0 -154 -70.5 -249.5t-201.5 -96.5q-150 0 -217 88.5t-67 254.5q0 58 9 109t30 97.5t53 79.5t81 52.5t111 19.5q272 0 272 -355zM554 336q0 312 -210 312q-223 0 -223 -314q0 -147 53 -221t167 -74q105 0 159 83t54 214zM-76 686l8 6q37 -10 58 -35t21 -60
q0 -23 -19.5 -53t-49.5 -53l-14 15q35 43 35 76q0 44 -54 58q14 42 15 46z" />
    <glyph glyph-name="uni1F49" unicode="&#x1f49;" horiz-adv-x="676" 
d="M616 339q0 -154 -70.5 -249.5t-201.5 -96.5q-150 0 -217 88.5t-67 254.5q0 58 9 109t30 97.5t53 79.5t81 52.5t111 19.5q272 0 272 -355zM554 336q0 312 -210 312q-223 0 -223 -314q0 -147 53 -221t167 -74q105 0 159 83t54 214zM-89 598q0 69 79 91l8 -6q4 -9 9 -25.5
t6 -20.5q-54 -14 -54 -60q0 -35 35 -74l-13 -17q-32 23 -51 55t-19 57z" />
    <glyph glyph-name="uni1F4A" unicode="&#x1f4a;" horiz-adv-x="676" 
d="M616 339q0 -154 -70.5 -249.5t-201.5 -96.5q-150 0 -217 88.5t-67 254.5q0 58 9 109t30 97.5t53 79.5t81 52.5t111 19.5q272 0 272 -355zM554 336q0 312 -210 312q-223 0 -223 -314q0 -147 53 -221t167 -74q105 0 159 83t54 214zM-192 681q2 1 9 5q79 -21 79 -95
q0 -22 -20 -53t-49 -53l-14 15q14 16 24 38.5t10 36.5q0 44 -53 59q3 8 7.5 24zM-45 686l75 -184l-25 -14l-103 170z" />
    <glyph glyph-name="uni1F4B" unicode="&#x1f4b;" horiz-adv-x="676" 
d="M616 339q0 -154 -70.5 -249.5t-201.5 -96.5q-150 0 -217 88.5t-67 254.5q0 58 9 109t30 97.5t53 79.5t81 52.5t111 19.5q272 0 272 -355zM554 336q0 312 -210 312q-223 0 -223 -314q0 -147 53 -221t167 -74q105 0 159 83t54 214zM-126 687q7 -5 8 -5l16 -47
q-55 -12 -55 -60q0 -33 35 -74q-8 -10 -13 -15q-31 22 -51 54t-20 55q0 69 80 92zM-40 690l63 -188l-27 -12q-21 44 -91 176z" />
    <glyph glyph-name="uni1F4C" unicode="&#x1f4c;" horiz-adv-x="676" 
d="M616 339q0 -154 -70.5 -249.5t-201.5 -96.5q-150 0 -217 88.5t-67 254.5q0 58 9 109t30 97.5t53 79.5t81 52.5t111 19.5q272 0 272 -355zM554 336q0 312 -210 312q-223 0 -223 -314q0 -147 53 -221t167 -74q105 0 159 83t54 214zM-177 682l10 5q79 -22 79 -91
q0 -22 -19 -54t-50 -55l-4.5 4.5l-5.5 5.5l-5 5q15 17 25 39t10 36q0 45 -54 58zM-86 501l35.5 85.5l40.5 98.5l52 -29l-102 -169q-12 6 -26 14z" />
    <glyph glyph-name="uni1F4D" unicode="&#x1f4d;" horiz-adv-x="676" 
d="M616 339q0 -154 -70.5 -249.5t-201.5 -96.5q-150 0 -217 88.5t-67 254.5q0 58 9 109t30 97.5t53 79.5t81 52.5t111 19.5q272 0 272 -355zM554 336q0 312 -210 312q-223 0 -223 -314q0 -147 53 -221t167 -74q105 0 159 83t54 214zM-194 596q0 70 80 92l7 -5q9 -23 15 -47
q-54 -15 -54 -60q0 -32 36 -74l-14 -15q-31 21 -50.5 53.5t-19.5 55.5zM-89 501l38 91.5l38 92.5l52 -29l-102 -169q-4 2 -26 14z" />
    <glyph glyph-name="uni1F50" unicode="&#x1f50;" horiz-adv-x="491" 
d="M374 487h57v-303q0 -82 -49.5 -135.5t-139.5 -53.5q-91 0 -136.5 48t-45.5 130v314h56v-313q0 -133 125 -133q67 0 100 40.5t33 102.5v303zM216 743l8 6q37 -10 58 -35t21 -60q0 -23 -19.5 -53t-49.5 -53l-14 15q35 43 35 76q0 44 -54 58q14 42 15 46z" />
    <glyph glyph-name="uni1F51" unicode="&#x1f51;" horiz-adv-x="491" 
d="M374 487h57v-303q0 -82 -49.5 -135.5t-139.5 -53.5q-91 0 -136.5 48t-45.5 130v314h56v-313q0 -133 125 -133q67 0 100 40.5t33 102.5v303zM193 658q0 69 79 91l8 -6q4 -9 9 -25.5t6 -20.5q-54 -14 -54 -60q0 -35 35 -74l-13 -17q-32 23 -51 55t-19 57z" />
    <glyph glyph-name="uni1F52" unicode="&#x1f52;" horiz-adv-x="491" 
d="M374 487h57v-303q0 -82 -49.5 -135.5t-139.5 -53.5q-91 0 -136.5 48t-45.5 130v314h56v-313q0 -133 125 -133q67 0 100 40.5t33 102.5v303zM147 746q2 1 9 5q79 -21 79 -95q0 -22 -20 -53t-49 -53l-14 15q14 16 24 38.5t10 36.5q0 44 -53 59q3 8 7.5 24zM294 751l75 -184
l-25 -14l-103 170z" />
    <glyph glyph-name="uni1F53" unicode="&#x1f53;" horiz-adv-x="491" 
d="M374 487h57v-303q0 -82 -49.5 -135.5t-139.5 -53.5q-91 0 -136.5 48t-45.5 130v314h56v-313q0 -133 125 -133q67 0 100 40.5t33 102.5v303zM207 751q7 -5 8 -5l16 -47q-55 -12 -55 -60q0 -33 35 -74q-8 -10 -13 -15q-31 22 -51 54t-20 55q0 69 80 92zM293 754l63 -188
l-27 -12q-21 43 -91 176z" />
    <glyph glyph-name="uni1F54" unicode="&#x1f54;" horiz-adv-x="491" 
d="M374 487h57v-303q0 -82 -49.5 -135.5t-139.5 -53.5q-91 0 -136.5 48t-45.5 130v314h56v-313q0 -133 125 -133q67 0 100 40.5t33 102.5v303zM165 746l10 5q79 -22 79 -91q0 -22 -19 -54t-50 -55l-4.5 4.5l-5.5 5.5l-5 5q15 17 25 39t10 36q0 45 -54 58zM256 565l35.5 85.5
l40.5 98.5l52 -29l-102 -169q-12 6 -26 14z" />
    <glyph glyph-name="uni1F55" unicode="&#x1f55;" horiz-adv-x="491" 
d="M374 487h57v-303q0 -82 -49.5 -135.5t-139.5 -53.5q-91 0 -136.5 48t-45.5 130v314h56v-313q0 -133 125 -133q67 0 100 40.5t33 102.5v303zM140 659q0 70 80 92l7 -5q9 -23 15 -47q-54 -15 -54 -60q0 -32 36 -74l-14 -15q-31 21 -50.5 53.5t-19.5 55.5zM245 564l38 91.5
l38 92.5l52 -29l-102 -169q-4 2 -26 14z" />
    <glyph glyph-name="uni1F56" unicode="&#x1f56;" horiz-adv-x="491" 
d="M374 487h57v-303q0 -82 -49.5 -135.5t-139.5 -53.5q-91 0 -136.5 48t-45.5 130v314h56v-313q0 -133 125 -133q67 0 100 40.5t33 102.5v303zM161 752l-24.5 -18l-31.5 -23l-22 17q30 66 83 66q25 0 75 -18t70 -18l53 41l22 -15q-29 -69 -79 -69q-28 0 -78.5 18.5
t-67.5 18.5zM190 657q2 8 14 38q3 3 9 5q79 -19 79 -73q0 -20 -18 -43.5t-51 -41.5q-2 2 -6.5 7.5t-7.5 7.5q34 31 34 56q0 34 -53 44z" />
    <glyph glyph-name="uni1F57" unicode="&#x1f57;" horiz-adv-x="491" 
d="M374 487h57v-303q0 -82 -49.5 -135.5t-139.5 -53.5q-91 0 -136.5 48t-45.5 130v314h56v-313q0 -133 125 -133q67 0 100 40.5t33 102.5v303zM170 752l-57 -41l-22 18q29 65 84 65q25 0 76.5 -18.5t70.5 -18.5l27 21t27 20q4 -2 11 -7l10 -7q-27 -70 -78 -70q-28 0 -80 19
t-69 19zM266 698q5 -1 8.5 -6.5t5.5 -10.5t4.5 -13.5t3.5 -11.5q-54 -10 -54 -45q0 -18 35 -55q-5 -4 -13 -14q-32 18 -50.5 41.5t-18.5 42.5q0 56 79 72z" />
    <glyph glyph-name="uni1F59" unicode="&#x1f59;" horiz-adv-x="500" 
d="M216 0v304l-204 380h63l107 -203l63 -125h4l65 124l111 204h62l-209 -376v-308h-62zM-139 598q0 69 79 91l8 -6q4 -9 9 -25.5t6 -20.5q-54 -14 -54 -60q0 -35 35 -74l-13 -17q-32 23 -51 55t-19 57z" />
    <glyph glyph-name="uni1F5B" unicode="&#x1f5b;" horiz-adv-x="500" 
d="M216 0v304l-204 380h63l107 -203l63 -125h4l65 124l111 204h62l-209 -376v-308h-62zM-149 691q7 -5 8 -5l16 -47q-55 -12 -55 -60q0 -33 35 -74q-8 -10 -13 -15q-31 22 -51 54t-20 55q0 69 80 92zM-63 694l63 -188l-27 -12q-21 43 -91 176z" />
    <glyph glyph-name="uni1F5D" unicode="&#x1f5d;" horiz-adv-x="500" 
d="M216 0v304l-204 380h63l107 -203l63 -125h4l65 124l111 204h62l-209 -376v-308h-62zM-249 598q0 70 80 92l7 -5q9 -23 15 -47q-54 -15 -54 -60q0 -32 36 -74l-14 -15q-31 21 -50.5 53.5t-19.5 55.5zM-144 503l38 92l38 92l52 -29l-102 -169q-4 2 -26 14z" />
    <glyph glyph-name="uni1F5F" unicode="&#x1f5f;" horiz-adv-x="500" 
d="M216 0v304l-204 380h63l107 -203l63 -125h4l65 124l111 204h62l-209 -376v-308h-62zM-242 646l-57 -41l-22 18q29 65 84 65q25 0 76.5 -18.5t70.5 -18.5l27 20.5l27 20.5q4 -2 11 -7l10 -7q-27 -70 -78 -70q-28 0 -80 19t-69 19zM-146 592q5 -1 8.5 -6.5t5.5 -10.5
t4.5 -13.5t3.5 -11.5q-54 -10 -54 -45q0 -18 35 -55q-5 -4 -13 -14q-32 18 -50.5 41.5t-18.5 42.5q0 56 79 72z" />
    <glyph glyph-name="uni1F60" unicode="&#x1f60;" horiz-adv-x="718" 
d="M335 333h53v-181q0 -46 26 -79t75 -33q134 0 134 198q0 168 -107 215l15 39q76 -22 111.5 -92.5t35.5 -160.5q0 -107 -44.5 -176t-141.5 -69q-45 0 -80 21.5t-51 58.5h-2q-19 -38 -54.5 -59t-79.5 -21q-185 0 -185 245q0 89 35.5 160t112.5 93l13 -39q-105 -46 -105 -215
q0 -198 132 -198q53 0 80 33t27 79v181zM326 743l8 6q37 -10 58 -35t21 -60q0 -23 -19.5 -53t-49.5 -53l-14 15q35 43 35 76q0 44 -54 58q14 42 15 46z" />
    <glyph glyph-name="uni1F61" unicode="&#x1f61;" horiz-adv-x="718" 
d="M335 333h53v-181q0 -46 26 -79t75 -33q134 0 134 198q0 168 -107 215l15 39q76 -22 111.5 -92.5t35.5 -160.5q0 -107 -44.5 -176t-141.5 -69q-45 0 -80 21.5t-51 58.5h-2q-19 -38 -54.5 -59t-79.5 -21q-185 0 -185 245q0 89 35.5 160t112.5 93l13 -39q-105 -46 -105 -215
q0 -198 132 -198q53 0 80 33t27 79v181zM295 658q0 69 79 91l8 -6q4 -9 9 -25.5t6 -20.5q-54 -14 -54 -60q0 -35 35 -74l-13 -17q-32 23 -51 55t-19 57z" />
    <glyph glyph-name="uni1F62" unicode="&#x1f62;" horiz-adv-x="718" 
d="M335 333h53v-181q0 -46 26 -79t75 -33q134 0 134 198q0 168 -107 215l15 39q76 -22 111.5 -92.5t35.5 -160.5q0 -107 -44.5 -176t-141.5 -69q-45 0 -80 21.5t-51 58.5h-2q-19 -38 -54.5 -59t-79.5 -21q-185 0 -185 245q0 89 35.5 160t112.5 93l13 -39q-105 -46 -105 -215
q0 -198 132 -198q53 0 80 33t27 79v181zM259 746q2 1 9 5q79 -21 79 -95q0 -22 -20 -53t-49 -53l-14 15q14 16 24 38.5t10 36.5q0 44 -53 59q3 8 7.5 24zM406 751l75 -184l-25 -14l-103 170z" />
    <glyph glyph-name="uni1F63" unicode="&#x1f63;" horiz-adv-x="718" 
d="M335 333h53v-181q0 -46 26 -79t75 -33q134 0 134 198q0 168 -107 215l15 39q76 -22 111.5 -92.5t35.5 -160.5q0 -107 -44.5 -176t-141.5 -69q-45 0 -80 21.5t-51 58.5h-2q-19 -38 -54.5 -59t-79.5 -21q-185 0 -185 245q0 89 35.5 160t112.5 93l13 -39q-105 -46 -105 -215
q0 -198 132 -198q53 0 80 33t27 79v181zM327 751q7 -5 8 -5l16 -47q-55 -12 -55 -60q0 -33 35 -74q-8 -10 -13 -15q-31 22 -51 54t-20 55q0 69 80 92zM413 754l63 -188l-27 -12q-21 43 -91 176z" />
    <glyph glyph-name="uni1F64" unicode="&#x1f64;" horiz-adv-x="718" 
d="M335 333h53v-181q0 -46 26 -79t75 -33q134 0 134 198q0 168 -107 215l15 39q76 -22 111.5 -92.5t35.5 -160.5q0 -107 -44.5 -176t-141.5 -69q-45 0 -80 21.5t-51 58.5h-2q-19 -38 -54.5 -59t-79.5 -21q-185 0 -185 245q0 89 35.5 160t112.5 93l13 -39q-105 -46 -105 -215
q0 -198 132 -198q53 0 80 33t27 79v181zM292 746l10 5q79 -22 79 -91q0 -22 -19 -54t-50 -55l-15 15q15 17 25 39t10 36q0 45 -54 58zM383 565l35.5 85.5l40.5 98.5l52 -29l-102 -169q-12 6 -26 14z" />
    <glyph glyph-name="uni1F65" unicode="&#x1f65;" horiz-adv-x="718" 
d="M335 333h53v-181q0 -46 26 -79t75 -33q134 0 134 198q0 168 -107 215l15 39q76 -22 111.5 -92.5t35.5 -160.5q0 -107 -44.5 -176t-141.5 -69q-45 0 -80 21.5t-51 58.5h-2q-19 -38 -54.5 -59t-79.5 -21q-185 0 -185 245q0 89 35.5 160t112.5 93l13 -39q-105 -46 -105 -215
q0 -198 132 -198q53 0 80 33t27 79v181zM263 659q0 70 80 92l7 -5q9 -23 15 -47q-54 -15 -54 -60q0 -32 36 -74l-14 -15q-31 21 -50.5 53.5t-19.5 55.5zM368 564l38 91.5l38 92.5l52 -29l-102 -169q-4 2 -26 14z" />
    <glyph glyph-name="uni1F66" unicode="&#x1f66;" horiz-adv-x="718" 
d="M335 333h53v-181q0 -46 26 -79t75 -33q134 0 134 198q0 168 -107 215l15 39q76 -22 111.5 -92.5t35.5 -160.5q0 -107 -44.5 -176t-141.5 -69q-45 0 -80 21.5t-51 58.5h-2q-19 -38 -54.5 -59t-79.5 -21q-185 0 -185 245q0 89 35.5 160t112.5 93l13 -39q-105 -46 -105 -215
q0 -198 132 -198q53 0 80 33t27 79v181zM280 731l-24.5 -18l-31.5 -23l-22 17q30 66 83 66q25 0 75 -18t70 -18l53 41l22 -15q-29 -69 -79 -69q-28 0 -78.5 18.5t-67.5 18.5zM309 636q2 8 14 38q3 3 9 5q79 -19 79 -73q0 -20 -18 -43.5t-51 -41.5q-2 2 -6.5 7.5t-7.5 7.5
q34 31 34 56q0 34 -53 44z" />
    <glyph glyph-name="uni1F67" unicode="&#x1f67;" horiz-adv-x="718" 
d="M335 333h53v-181q0 -46 26 -79t75 -33q134 0 134 198q0 168 -107 215l15 39q76 -22 111.5 -92.5t35.5 -160.5q0 -107 -44.5 -176t-141.5 -69q-45 0 -80 21.5t-51 58.5h-2q-19 -38 -54.5 -59t-79.5 -21q-185 0 -185 245q0 89 35.5 160t112.5 93l13 -39q-105 -46 -105 -215
q0 -198 132 -198q53 0 80 33t27 79v181zM286 738l-57 -41l-22 18q29 65 84 65q25 0 76.5 -18.5t70.5 -18.5q9 6 27 20l27 21q4 -2 11 -7l10 -7q-27 -70 -78 -70q-28 0 -80 19t-69 19zM382 684q5 -1 8.5 -6.5t5.5 -10.5t4.5 -13.5t3.5 -11.5q-54 -10 -54 -45q0 -18 35 -55
q-5 -4 -13 -14q-32 18 -50.5 41.5t-18.5 42.5q0 56 79 72z" />
    <glyph glyph-name="uni1F68" unicode="&#x1f68;" horiz-adv-x="677" 
d="M340 694q77 0 133 -28t86.5 -78t44 -107.5t13.5 -126.5q0 -229 -118 -309q1 0 2 -1h134v-44h-232v47q151 45 151 305q0 295 -214 295q-59 0 -103 -23.5t-68.5 -65.5t-36 -92.5t-11.5 -111.5q0 -130 31 -207t113 -99v-48h-225v44h126l1 1q-44 26 -69 80t-31.5 105.5
t-6.5 120.5t15.5 128.5t47 109t87.5 77.5t130 28zM-64 686l8 6q37 -10 58 -35t21 -60q0 -23 -19.5 -53t-49.5 -53l-14 15q35 43 35 76q0 44 -54 58q14 42 15 46z" />
    <glyph glyph-name="uni1F69" unicode="&#x1f69;" horiz-adv-x="677" 
d="M340 694q77 0 133 -28t86.5 -78t44 -107.5t13.5 -126.5q0 -229 -118 -309q1 0 2 -1h134v-44h-232v47q151 45 151 305q0 295 -214 295q-59 0 -103 -23.5t-68.5 -65.5t-36 -92.5t-11.5 -111.5q0 -130 31 -207t113 -99v-48h-225v44h126l1 1q-44 26 -69 80t-31.5 105.5
t-6.5 120.5t15.5 128.5t47 109t87.5 77.5t130 28zM-72 592q0 69 79 91l8 -6q4 -9 9 -25.5t6 -20.5q-54 -14 -54 -60q0 -35 35 -74l-13 -17q-32 23 -51 55t-19 57z" />
    <glyph glyph-name="uni1F6A" unicode="&#x1f6a;" horiz-adv-x="677" 
d="M340 694q77 0 133 -28t86.5 -78t44 -107.5t13.5 -126.5q0 -229 -118 -309q1 0 2 -1h134v-44h-232v47q151 45 151 305q0 295 -214 295q-59 0 -103 -23.5t-68.5 -65.5t-36 -92.5t-11.5 -111.5q0 -130 31 -207t113 -99v-48h-225v44h126l1 1q-44 26 -69 80t-31.5 105.5
t-6.5 120.5t15.5 128.5t47 109t87.5 77.5t130 28zM-187 681q2 1 9 5q79 -21 79 -95q0 -22 -20 -53t-49 -53l-14 15q14 16 24 38.5t10 36.5q0 44 -53 59q3 8 7.5 24zM-40 686l75 -184l-25 -14l-103 170z" />
    <glyph glyph-name="uni1F6B" unicode="&#x1f6b;" horiz-adv-x="677" 
d="M340 694q77 0 133 -28t86.5 -78t44 -107.5t13.5 -126.5q0 -229 -118 -309q1 0 2 -1h134v-44h-232v47q151 45 151 305q0 295 -214 295q-59 0 -103 -23.5t-68.5 -65.5t-36 -92.5t-11.5 -111.5q0 -130 31 -207t113 -99v-48h-225v44h126l1 1q-44 26 -69 80t-31.5 105.5
t-6.5 120.5t15.5 128.5t47 109t87.5 77.5t130 28zM-122 687q7 -5 8 -5l16 -47q-55 -12 -55 -60q0 -33 35 -74q-8 -10 -13 -15q-31 22 -51 54t-20 55q0 69 80 92zM-36 690l63 -188l-27 -12q-21 44 -91 176z" />
    <glyph glyph-name="uni1F6C" unicode="&#x1f6c;" horiz-adv-x="677" 
d="M340 694q77 0 133 -28t86.5 -78t44 -107.5t13.5 -126.5q0 -229 -118 -309q1 0 2 -1h134v-44h-232v47q151 45 151 305q0 295 -214 295q-59 0 -103 -23.5t-68.5 -65.5t-36 -92.5t-11.5 -111.5q0 -130 31 -207t113 -99v-48h-225v44h126l1 1q-44 26 -69 80t-31.5 105.5
t-6.5 120.5t15.5 128.5t47 109t87.5 77.5t130 28zM-141 681l10 5q79 -22 79 -91q0 -22 -19 -54t-50 -55l-4.5 4.5l-5.5 5.5l-5 5q15 17 25 39t10 36q0 45 -54 58zM-50 500l35.5 85.5l40.5 98.5l52 -29l-102 -169q-12 6 -26 14z" />
    <glyph glyph-name="uni1F6D" unicode="&#x1f6d;" horiz-adv-x="677" 
d="M340 694q77 0 133 -28t86.5 -78t44 -107.5t13.5 -126.5q0 -229 -118 -309q1 0 2 -1h134v-44h-232v47q151 45 151 305q0 295 -214 295q-59 0 -103 -23.5t-68.5 -65.5t-36 -92.5t-11.5 -111.5q0 -130 31 -207t113 -99v-48h-225v44h126l1 1q-44 26 -69 80t-31.5 105.5
t-6.5 120.5t15.5 128.5t47 109t87.5 77.5t130 28zM-153 594q0 70 80 92l7 -5q9 -23 15 -47q-54 -15 -54 -60q0 -32 36 -74l-14 -15q-31 21 -50.5 53.5t-19.5 55.5zM-48 499l38 92l38 92l52 -29l-102 -169q-4 2 -26 14z" />
    <glyph glyph-name="uni1F6E" unicode="&#x1f6e;" horiz-adv-x="677" 
d="M340 694q77 0 133 -28t86.5 -78t44 -107.5t13.5 -126.5q0 -229 -118 -309q1 0 2 -1h134v-44h-232v47q151 45 151 305q0 295 -214 295q-59 0 -103 -23.5t-68.5 -65.5t-36 -92.5t-11.5 -111.5q0 -130 31 -207t113 -99v-48h-225v44h126l1 1q-44 26 -69 80t-31.5 105.5
t-6.5 120.5t15.5 128.5t47 109t87.5 77.5t130 28zM-150 646l-24.5 -18l-31.5 -23l-22 17q30 66 83 66q25 0 75 -18t70 -18l53 41l22 -15q-29 -69 -79 -69q-28 0 -78.5 18.5t-67.5 18.5zM-121 551q2 8 14 38q3 3 9 5q79 -19 79 -73q0 -20 -18 -43.5t-51 -41.5q-2 2 -6.5 7.5
t-7.5 7.5q34 31 34 56q0 34 -53 44z" />
    <glyph glyph-name="uni1F6F" unicode="&#x1f6f;" horiz-adv-x="677" 
d="M340 694q77 0 133 -28t86.5 -78t44 -107.5t13.5 -126.5q0 -229 -118 -309q1 0 2 -1h134v-44h-232v47q151 45 151 305q0 295 -214 295q-59 0 -103 -23.5t-68.5 -65.5t-36 -92.5t-11.5 -111.5q0 -130 31 -207t113 -99v-48h-225v44h126l1 1q-44 26 -69 80t-31.5 105.5
t-6.5 120.5t15.5 128.5t47 109t87.5 77.5t130 28zM-146 642l-57 -41l-22 18q29 65 84 65q25 0 76.5 -18.5t70.5 -18.5q9 6 27 20.5t27 20.5q4 -2 11 -7l10 -7q-27 -70 -78 -70q-28 0 -80 19t-69 19zM-50 588q5 -1 8.5 -6.5t5.5 -10.5t4.5 -13.5t3.5 -11.5q-54 -10 -54 -45
q0 -18 35 -55q-5 -4 -13 -14q-32 18 -50.5 41.5t-18.5 42.5q0 56 79 72z" />
    <glyph glyph-name="uni1F70" unicode="&#x1f70;" horiz-adv-x="524" 
d="M378 52h-1q-1 1 -2 1q-75 -59 -163 -59q-169 0 -169 242q0 41 6.5 77.5t21 70t36.5 57.5t55 38t74 14q71 0 143 -50l13 44h39v-443h64l3 -34q-32 -14 -66 -14q-56 0 -54 56zM375 103q0 48 0.5 145.5t0.5 146.5q-69 51 -132 51q-70 0 -106.5 -55t-36.5 -154
q0 -110 34 -154t96 -44q33 0 73 17t71 47zM278 536l-123 189l61 33l92 -206z" />
    <glyph glyph-name="uni1F71" unicode="&#x1f71;" horiz-adv-x="524" 
d="M378 52h-1q-1 1 -2 1q-75 -59 -163 -59q-169 0 -169 242q0 41 6.5 77.5t21 70t36.5 57.5t55 38t74 14q71 0 143 -50l13 44h39v-443h64l3 -34q-32 -14 -66 -14q-56 0 -54 56zM375 103q0 48 0.5 145.5t0.5 146.5q-69 51 -132 51q-70 0 -106.5 -55t-36.5 -154
q0 -110 34 -154t96 -44q33 0 73 17t71 47zM362 726l-124 -190l-29 14l92 208z" />
    <glyph glyph-name="uni1F72" unicode="&#x1f72;" horiz-adv-x="425" 
d="M224 496q91 0 153 -23l-13 -41q-63 21 -134 21q-62 0 -92.5 -25.5t-30.5 -63.5q0 -78 113 -78h69v-42h-70q-48 0 -84.5 -24.5t-36.5 -78.5q0 -53 39.5 -79t102.5 -26q66 0 149 36l15 -36q-76 -43 -167 -43q-84 0 -140 33t-56 108q0 47 26 81t68 46l1 3q-38 10 -62 34.5
t-24 61.5q0 64 49.5 100t124.5 36zM242 536l-123 189l61 33l92 -206z" />
    <glyph glyph-name="uni1F73" unicode="&#x1f73;" horiz-adv-x="425" 
d="M224 496q91 0 153 -23l-13 -41q-63 21 -134 21q-62 0 -92.5 -25.5t-30.5 -63.5q0 -78 113 -78h69v-42h-70q-48 0 -84.5 -24.5t-36.5 -78.5q0 -53 39.5 -79t102.5 -26q66 0 149 36l15 -36q-76 -43 -167 -43q-84 0 -140 33t-56 108q0 47 26 81t68 46l1 3q-38 10 -62 34.5
t-24 61.5q0 64 49.5 100t124.5 36zM338 726l-124 -190l-29 14l92 208z" />
    <glyph glyph-name="uni1F74" unicode="&#x1f74;" horiz-adv-x="490" 
d="M431 0h-56v327q0 32 -2.5 50.5t-11.5 37t-28.5 26t-51.5 7.5q-70 0 -166 -53v-395h-56v487h56v-45q2 -1 3 -2q92 56 177 56q45 0 74.5 -12.5t41.5 -36t16 -44.5t4 -52v-351zM237 536l-123 189l61 33l92 -206z" />
    <glyph glyph-name="uni1F75" unicode="&#x1f75;" horiz-adv-x="490" 
d="M431 0h-56v327q0 32 -2.5 50.5t-11.5 37t-28.5 26t-51.5 7.5q-70 0 -166 -53v-395h-56v487h56v-45q2 -1 3 -2q92 56 177 56q45 0 74.5 -12.5t41.5 -36t16 -44.5t4 -52v-351zM328 726l-124 -190l-29 14l92 208z" />
    <glyph glyph-name="uni1F76" unicode="&#x1f76;" horiz-adv-x="219" 
d="M76 53v434h55v-442h63l3 -34q-35 -15 -64 -15t-43 13t-14 44zM104 536l-123 189l61 33l92 -206z" />
    <glyph glyph-name="uni1F77" unicode="&#x1f77;" horiz-adv-x="219" 
d="M76 53v434h55v-442h63l3 -34q-35 -15 -64 -15t-43 13t-14 44zM229 726l-124 -190l-29 14l92 208z" />
    <glyph glyph-name="uni1F78" unicode="&#x1f78;" horiz-adv-x="505" 
d="M457 241q0 -49 -10 -90.5t-32 -78.5t-64 -58t-101 -21q-108 0 -154.5 68.5t-46.5 177.5q0 107 51 181.5t157 74.5q56 0 97 -21.5t62.5 -59t31 -80.5t9.5 -93zM399 239q0 211 -142 211q-43 0 -73.5 -18.5t-46.5 -50.5t-23 -67t-7 -76q0 -43 6 -75.5t21 -62.5t46 -46
t77 -16q142 0 142 201zM267 536l-123 189l61 33l92 -206z" />
    </font>
</defs>
</svg>
