<?xml version="1.0" standalone="no"?>
<!DOCTYPE svg PUBLIC "-//W3C//DTD SVG 1.1//EN" "http://www.w3.org/Graphics/SVG/1.1/DTD/svg11.dtd" >
<svg>
<metadata>
Created by FontForge 20090622 at Tue May  7 19:20:38 2019
 By deploy user
Copyright &#194;&#169; 2017 ParaType Inc., ParaType Ltd. All rights reserved.
</metadata>
<defs>
<font id="Calendula-Regular" horiz-adv-x="474" >
  <font-face 
    font-family="Calendula"
    font-weight="400"
    font-stretch="normal"
    units-per-em="1000"
    panose-1="4 3 5 5 4 1 2 2 2 2"
    ascent="762"
    descent="-238"
    x-height="468"
    cap-height="683"
    bbox="-381 -310 1109 936"
    underline-thickness="50"
    underline-position="-50"
    unicode-range="U+0020-U+FEFF"
  />
<missing-glyph horiz-adv-x="300" 
 />
    <glyph glyph-name="afii10053.var.accented" unicode="&#x404;`" horiz-adv-x="560" 
d="M321 619q-29 0 -49.5 -3.5t-44 -18t-39 -40.5t-27.5 -73.5t-15 -113.5l239 10l-10 -82l-229 11q0 -69 17 -119t46 -76t60.5 -37t67.5 -11q42 0 84.5 15t64.5 31l21 15l16 -63l-8.5 -8.5t-25.5 -19t-42 -23.5t-57 -18.5t-73 -8.5q-46 0 -82 7.5t-73 30t-61 60t-39.5 103
t-15.5 154.5q0 66 11.5 119.5t29 88.5t43.5 61.5t51 40.5t55 22.5t52 11t45 2.5q72 0 127 -17t55 -57q0 -48 -19 -100h-68v88q-27 18 -107 18zM463 831q0 -21 -53.5 -50t-103.5 -42l-29 27l62 52l26.5 23l19.5 17.5l14 12.5t10 9t6.5 5t5.5 2.5t5 0.5q10 0 23.5 -18
t13.5 -39z" />
    <glyph glyph-name="afii10055.var.accented" unicode="&#x406;`" horiz-adv-x="216" 
d="M80 0v619h-48v50q49 17 86 17q19 0 31.5 -6t17 -18t5.5 -20t1 -23v-619h-93zM209 831q0 -21 -53.5 -50t-103.5 -42l-29 27l62 52l26.5 23l19.5 17.5l14 12.5t10 9t6.5 5t5.5 2.5t5 0.5q10 0 23.5 -18t13.5 -39z" />
    <glyph glyph-name="afii10056.var.accented" unicode="&#x407;`" horiz-adv-x="216" 
d="M64 776q0 -20 -16.5 -34t-38.5 -14t-38 14t-16 34t16 34.5t38 14.5q23 0 39 -14.5t16 -34.5zM267 776q0 -19 -16 -33.5t-38 -14.5q-23 0 -39 14t-16 34t16 34.5t39 14.5q22 0 38 -14.5t16 -34.5zM80 0v619h-48v50q49 17 86 17q19 0 31.5 -6t17 -18t5.5 -20t1 -23v-619
h-93zM242 879q0 -21 -53.5 -50t-103.5 -42l-29 27l62 52l26.5 23l19.5 17.5l14 12.5t10 9t6.5 5t5.5 2.5t5 0.5q10 0 23.5 -18t13.5 -39z" />
    <glyph glyph-name="afii10017.var.accented" unicode="&#x410;`" horiz-adv-x="563" 
d="M159 216h208l-95 371zM236 683h99l155 -551q13 -48 23 -59.5t36 -11.5v-47q-31 -17 -69 -17q-36 0 -54 29t-42 126h-242l-41 -152h-92zM369 831q0 -21 -53.5 -50t-103.5 -42l-29 27l62 52l26.5 23l19.5 17.5l14 12.5t10 9t6.5 5t5.5 2.5t5 0.5q10 0 23.5 -18t13.5 -39z
" />
    <glyph glyph-name="afii10022.var.accented" unicode="&#x415;`" horiz-adv-x="495" 
d="M431 685l-8 -76l-249 9v-232l197 9l-7 -70l-190 7v-191q0 -43 25.5 -56t115.5 -13q87 0 157 16l-7 -63q-71 -28 -169 -28q-106 0 -161 23t-55 89v510h-48v51q118 16 258 16q18 0 66 -0.5t75 -0.5zM378 831q0 -21 -53.5 -50t-103.5 -42l-29 27l62 52l26.5 23l19.5 17.5
l14 12.5t10 9t6.5 5t5.5 2.5t5 0.5q10 0 23.5 -18t13.5 -39z" />
    <glyph glyph-name="afii10026.var.accented" unicode="&#x418;`" horiz-adv-x="639" 
d="M548 683v-619h48v-49q-42 -18 -86 -18q-19 0 -31.5 6t-17 18t-5.5 20t-1 23v462l-298 -526h-77v619h-48v50q58 17 86 17q19 0 31.5 -6t17 -18t5.5 -20t1 -23v-451l292 515h83zM423 831q0 -21 -53.5 -50t-103.5 -42l-29 27l62 52l26.5 23l19.5 17.5l14 12.5t10 9t6.5 5
t5.5 2.5t5 0.5q10 0 23.5 -18t13.5 -39z" />
    <glyph glyph-name="afii10032.var.accented" unicode="&#x41e;`" horiz-adv-x="635" 
d="M594 341q0 -174 -69 -265t-205 -91q-141 0 -207.5 88t-66.5 268q0 81 16 143.5t42 100t63 61.5t73.5 32.5t79.5 8.5q63 0 108 -13t85 -48.5t60.5 -106.5t20.5 -178zM493 341q0 91 -12 149.5t-37.5 86t-53 36.5t-70.5 9q-24 0 -42.5 -3.5t-39.5 -13t-36.5 -29.5t-28.5 -50
t-19.5 -77t-6.5 -108q0 -146 39.5 -218.5t133.5 -72.5q173 0 173 291zM414 831q0 -21 -53.5 -50t-103.5 -42l-29 27l62 52l26.5 23l19.5 17.5l14 12.5t10 9t6.5 5t5.5 2.5t5 0.5q10 0 23.5 -18t13.5 -39z" />
    <glyph glyph-name="afii10037.var.accented" unicode="&#x423;`" horiz-adv-x="532" 
d="M63 619h-44v50q35 17 64 17q41 0 67.5 -27t56.5 -101q19 -47 35 -97t33.5 -112t30.5 -101l121 431h91l-178 -494q-69 -193 -155 -193q-40 0 -60 25v71q71 0 94.5 12t37.5 48q-163 447 -194 471zM390 831q0 -21 -53.5 -50t-103.5 -42l-29 27l62 52l26.5 23l19.5 17.5
l14 12.5t10 9t6.5 5t5.5 2.5t5 0.5q10 0 23.5 -18t13.5 -39z" />
    <glyph glyph-name="afii10045.var.accented" unicode="&#x42b;`" horiz-adv-x="763" 
d="M585 683h93v-622h42v-47q-31 -17 -80 -17q-19 0 -31.5 6t-17 18t-5.5 20t-1 23v619zM407 221q0 129 -142 129q-22 0 -45 -2.5t-35 -5.5l-12 -2v-187q0 -55 21.5 -79t71.5 -24q62 0 101.5 42.5t39.5 128.5zM80 135v484h-48v50q49 17 86 17q19 0 31.5 -6t17 -18t5.5 -20
t1 -23v-223q42 21 125 21q110 0 156 -54.5t46 -161.5q0 -22 -6 -47t-23.5 -56t-44 -55.5t-74 -41t-108.5 -16.5q-164 0 -164 150zM490 831q0 -21 -53.5 -50t-103.5 -42l-29 27l62 52l26.5 23l19.5 17.5l14 12.5t10 9t6.5 5t5.5 2.5t5 0.5q10 0 23.5 -18t13.5 -39z" />
    <glyph glyph-name="afii10047.var.accented" unicode="&#x42d;`" horiz-adv-x="528" 
d="M227 689q25 0 42.5 -1t47 -8t50.5 -19.5t45 -38t39 -60t25.5 -89t10.5 -122.5q0 -102 -22.5 -175t-64 -113t-90 -57.5t-108.5 -17.5q-51 0 -95 11t-63 22l-18 11l12 63q71 -31 144 -31q204 0 204 251l-255 -4v72l256 -5q0 48 -8 86t-19.5 62.5t-29.5 42t-33.5 26
t-36.5 13t-33 5.5t-28 1q-89 0 -149 -43l-9 76q71 42 186 42zM352 831q0 -21 -53.5 -50t-103.5 -42l-29 27l62 52l26.5 23l19.5 17.5l14 12.5t10 9t6.5 5t5.5 2.5t5 0.5q10 0 23.5 -18t13.5 -39z" />
    <glyph glyph-name="afii10048.var.accented" unicode="&#x42e;`" horiz-adv-x="880" 
d="M839 341q0 -174 -69 -265.5t-205 -91.5q-137 0 -203.5 83t-70.5 251h-118v-318h-93v619h-48v50q49 17 86 17q19 0 31.5 -6t17 -18t5.5 -20t1 -23v-233h119q5 87 30.5 149t65.5 93.5t83 45t94 13.5q63 0 108 -13t85 -48.5t60.5 -106.5t20.5 -178zM738 341q0 91 -12 149.5
t-37.5 86t-53 36.5t-70.5 9q-24 0 -42.5 -3.5t-39.5 -13t-36.5 -29.5t-28.5 -50t-19.5 -77t-6.5 -108q0 -146 39.5 -219t133.5 -73q173 0 173 292zM460 831q0 -21 -53.5 -50t-103.5 -42l-29 27l62 52l26.5 23l19.5 17.5l14 12.5t10 9t6.5 5t5.5 2.5t5 0.5q10 0 23.5 -18
t13.5 -39z" />
    <glyph glyph-name="afii10049.var.accented" unicode="&#x42f;`" horiz-adv-x="554" 
d="M317 347h53v271q-32 4 -80 4q-129 0 -129 -138q0 -68 36 -102.5t120 -34.5zM463 670v-606h48v-50q-49 -17 -86 -17q-19 0 -31.5 6t-17 18t-5.5 20t-1 23v230q-29 -8 -94 -8q-53 -160 -94 -224.5t-89 -64.5q-38 0 -70 18v47q41 0 74 43.5t106 194.5q-67 23 -103 70
t-36 106q0 100 57.5 155.5t168.5 55.5q97 0 173 -17zM394 831q0 -21 -53.5 -50t-103.5 -42l-29 27l62 52l26.5 23l19.5 17.5l14 12.5t10 9t6.5 5t5.5 2.5t5 0.5q10 0 23.5 -18t13.5 -39z" />
    <glyph glyph-name="afii10023.var.accented" unicode="&#x401;`" horiz-adv-x="495" 
d="M164 807q0 -46 -48 -46q-23 0 -34 13.5t-11 32.5q0 44 48 44q45 0 45 -44zM431 807q0 -46 -49 -46q-23 0 -34 14t-11 32q0 44 48 44q46 0 46 -44zM431 685l-8 -76l-249 9v-232l197 9l-7 -70l-190 7v-191q0 -43 25.5 -56t115.5 -13q87 0 157 16l-7 -63q-71 -28 -169 -28
q-106 0 -161 23t-55 89v510h-48v51q118 16 258 16q18 0 66 -0.5t75 -0.5zM366 879q0 -21 -53.5 -50t-103.5 -42l-29 27l62 52l26.5 23l19.5 17.5l14 12.5t10 9t6.5 5t5.5 2.5t5 0.5q10 0 23.5 -18t13.5 -39z" />
    <glyph glyph-name="afii10065.var.accented" unicode="&#x430;`" horiz-adv-x="459" 
d="M430 65v-45q-27 -24 -73 -24q-25 0 -40 16t-17 32l-2 17q-33 -71 -126 -71q-53 0 -90.5 33t-37.5 102q0 91 49 124t150 33h55v46q0 27 -7.5 43.5t-23.5 23t-27 8t-32 1.5q-23 0 -64.5 -9.5t-67.5 -22.5v83q75 25 163 25q43 0 72.5 -10t44 -23t22 -37.5t8.5 -40t1 -44.5
v-260h43zM298 136v90q-97 -4 -130 -18.5t-33 -68.5q0 -75 77 -75q38 0 62 23t24 49zM327 666q0 -17 -46.5 -56t-89.5 -60l-41 24l50 64l21.5 27.5t16 22t10.5 15.5t8 10.5t6 6t5 3.5t5 1q13 0 34 -17t21 -41z" />
    <glyph glyph-name="afii10070.var.accented" unicode="&#x435;`" horiz-adv-x="439" 
d="M315 351q0 65 -76 65q-15 0 -30.5 -5t-33 -17.5t-28.5 -40t-11 -65.5q38 -6 97 -6q82 0 82 69zM243 -10q-197 0 -197 238q0 142 55 197t150 55q150 0 150 -129q0 -67 -45.5 -97t-114.5 -30q-24 0 -50.5 2t-40.5 4l-15 2q0 -54 11 -89.5t32 -51.5t40.5 -21.5t45.5 -5.5
q36 0 66 6.5t42 13.5l12 6l14 -52q-48 -48 -155 -48zM364 666q0 -17 -46.5 -56t-89.5 -60l-41 24l50 64l21.5 27.5t16 22t10.5 15.5t8 10.5t6 6t5 3.5t5 1q13 0 34 -17t21 -41z" />
    <glyph glyph-name="afii10074.var.accented" unicode="&#x438;`" horiz-adv-x="510" 
d="M350 64v21q-51 -93 -152 -93q-24 0 -42 4.5t-37 17t-29 41t-10 71.5v274h-49v47q43 23 81 23q19 0 31.5 -6t17 -18.5t5.5 -21t1 -23.5v-243q0 -49 16.5 -69.5t57.5 -20.5q43 0 73.5 27t30.5 65v308h87v-401h49v-47q-41 -23 -81 -23q-18 0 -29 6t-15 18t-5 20t-1 23z
M373 666q0 -17 -46.5 -56t-89.5 -60l-41 24l50 64l21.5 27.5t16 22t10.5 15.5t8 10.5t6 6t5 3.5t5 1q13 0 34 -17t21 -41z" />
    <glyph glyph-name="afii10080.var.accented" unicode="&#x43e;`" horiz-adv-x="500" 
d="M454 238q0 -127 -57 -187.5t-147 -60.5q-101 0 -152.5 57t-51.5 191q0 66 15 113.5t35.5 71.5t51.5 37.5t52.5 16.5t49.5 3q31 0 54 -3t53.5 -17t49.5 -38t33 -71.5t14 -112.5zM365 238q0 61 -8.5 99.5t-26.5 55t-35 21t-45 4.5q-44 0 -66.5 -12t-35.5 -51.5t-13 -116.5
q0 -102 26 -144t89 -42q62 0 88.5 41t26.5 145zM379 666q0 -17 -46.5 -56t-89.5 -60l-41 24l50 64l21.5 27.5t16 22t10.5 15.5t8 10.5t6 6t5 3.5t5 1q13 0 34 -17t21 -41z" />
    <glyph glyph-name="afii10085.var.accented" unicode="&#x443;`" horiz-adv-x="463" 
d="M60 400h-49v47q33 23 76 23q15 0 27 -5t23 -19.5t19 -27.5t18.5 -42t17 -49.5l19.5 -62.5q42 -137 59 -209q48 149 99 413h84q-70 -273 -127 -428t-98 -208t-87 -53q-23 0 -36 10v78q62 0 86.5 17t24.5 61q0 35 -18 87l-22.5 65l-20.5 60.5l-18 51.5l-17 47.5l-14 39.5
t-13.5 36l-11.5 27.5t-11 24t-10 16.5zM364 666q0 -17 -46.5 -56t-89.5 -60l-41 24l50 64l21.5 27.5t16 22t10.5 15.5t8 10.5t6 6t5 3.5t5 1q13 0 34 -17t21 -41z" />
    <glyph glyph-name="afii10093.var.accented" unicode="&#x44b;`" horiz-adv-x="641" 
d="M483 64v404h87v-407h42v-47q-31 -17 -74 -17q-19 0 -31.5 6t-17 18t-5.5 20t-1 23zM326 140q0 50 -19 75t-66 25q-21 0 -39.5 -3t-26.5 -7l-8 -3v-98q0 -77 76 -77q37 0 60 25t23 63zM80 115v285h-49v47q41 23 81 23q19 0 31.5 -6t17 -18.5t5.5 -21t1 -23.5v-126
q32 24 109 24q69 0 102.5 -37.5t33.5 -92.5q0 -50 -17 -87t-45 -56t-57 -27.5t-59 -8.5q-154 0 -154 125zM435 666q0 -17 -46.5 -56t-89.5 -60l-41 24l50 64l21.5 27.5t16 22t10.5 15.5t8 10.5t6 6t5 3.5t5 1q13 0 34 -17t21 -41z" />
    <glyph glyph-name="afii10095.var.accented" unicode="&#x44d;`" horiz-adv-x="417" 
d="M154 59q56 0 91.5 38t35.5 117l-166 -10v68l165 -6q0 75 -35.5 111t-89.5 36q-61 0 -112 -36l-17 66q63 37 146 37q199 0 199 -236q0 -115 -56.5 -184.5t-149.5 -69.5t-144 38l14 59q53 -28 119 -28zM309 666q0 -17 -46.5 -56t-89.5 -60l-41 24l50 64l21.5 27.5t16 22
t10.5 15.5t8 10.5t6 6t5 3.5t5 1q13 0 34 -17t21 -41z" />
    <glyph glyph-name="afii10096.var.accented" unicode="&#x44e;`" horiz-adv-x="709" 
d="M663 232q0 -127 -56.5 -187.5t-146.5 -60.5q-96 0 -147 51.5t-56 170.5h-97v-206h-87v406h-42v47q31 17 74 17q19 0 31.5 -6t17 -18t5.5 -20t1 -23v-133h98q4 55 20.5 96t36.5 62t49 33.5t50 15.5t46 3q30 0 54 -3.5t53.5 -18.5t49 -40t33 -73t13.5 -113zM575 232
q0 61 -8.5 100t-26 57t-35 23.5t-45.5 5.5q-64 0 -89.5 -36.5t-25.5 -149.5q0 -102 26 -144t89 -42q62 0 88.5 41t26.5 145zM406 666q0 -17 -46.5 -56t-89.5 -60l-41 24l50 64l21.5 27.5t16 22t10.5 15.5t8 10.5t6 6t5 3.5t5 1q13 0 34 -17t21 -41z" />
    <glyph glyph-name="afii10097.var.accented" unicode="&#x44f;`" horiz-adv-x="469" 
d="M169 207l-23 6.5t-25.5 12t-26.5 21.5t-18 34.5t-8 50.5q0 145 184 145q61 0 139 -13v-397h49v-47q-41 -23 -81 -23q-19 0 -31.5 6t-17 18t-5.5 20t-1 23v128h-64l-29 -65q-29 -64 -56 -97t-64 -33q-36 0 -56 9v45q27 4 50 31.5t84 124.5zM246 417q-33 0 -60.5 -18
t-27.5 -67q0 -85 94 -85h52v164q-40 6 -58 6zM393 666q0 -17 -46.5 -56t-89.5 -60l-41 24l50 64l21.5 27.5t16 22t10.5 15.5t8 10.5t6 6t5 3.5t5 1q13 0 34 -17t21 -41z" />
    <glyph glyph-name="afii10071.var.accented" unicode="&#x451;`" horiz-adv-x="439" 
d="M315 351q0 65 -76 65q-15 0 -30.5 -5t-33 -17.5t-28.5 -40t-11 -65.5q38 -6 97 -6q82 0 82 69zM243 -10q-197 0 -197 238q0 142 55 197t150 55q150 0 150 -129q0 -67 -45.5 -97t-114.5 -30q-24 0 -50.5 2t-40.5 4l-15 2q0 -54 11 -89.5t32 -51.5t40.5 -21.5t45.5 -5.5
q36 0 66 6.5t42 13.5l12 6l14 -52q-48 -48 -155 -48zM214 605q0 -23 -17 -40t-40 -17t-40 17t-17 40t17 40t40 17t40 -17t17 -40zM383 605q0 -23 -17 -40t-40 -17t-40 17t-17 40t17 40t40 17t40 -17t17 -40zM379 813q0 -17 -46.5 -56t-89.5 -60l-41 24l50 64l21.5 27.5
t16 22t10.5 15.5t8 10.5t6 6t5 3.5t5 1q13 0 34 -17t21 -41z" />
    <glyph glyph-name="afii10101.var.accented" unicode="&#x454;`" horiz-adv-x="432" 
d="M248 407q-95 0 -108 -136l163 7l-7 -69l-158 9q3 -154 124 -154q36 0 67 6.5t43 13.5l13 6l14 -52q-48 -48 -155 -48q-98 0 -146 58t-48 180q0 252 212 252q70 0 130 -27l-16 -80q-49 34 -128 34zM370 666q0 -17 -46.5 -56t-89.5 -60l-41 24l50 64l21.5 27.5t16 22
t10.5 15.5t8 10.5t6 6t5 3.5t5 1q13 0 34 -17t21 -41z" />
    <glyph glyph-name="afii10103.var.accented" unicode="&#x456;`" horiz-adv-x="245" 
d="M178 605q0 -23 -17 -40t-40 -17t-40 17t-17 40t17 40t40 17t40 -17t17 -40zM80 66v334h-49v47q41 23 81 23q19 0 31.5 -6t17 -18.5t5.5 -21t1 -23.5v-334h49v-47q-41 -23 -81 -23q-19 0 -31.5 6t-17 18.5t-5.5 21t-1 23.5zM214 806q0 -17 -46.5 -56t-89.5 -60l-41 24
l50 64l28 37l18.5 25.5l10.5 14t8 8t7 1.5q13 0 34 -17t21 -41z" />
    <glyph glyph-name="afii10104.var.accented" unicode="&#x457;`" horiz-adv-x="245" 
d="M80 66v334h-49v47q41 23 81 23q19 0 31.5 -6t17 -18.5t5.5 -21t1 -23.5v-334h49v-47q-41 -23 -81 -23q-19 0 -31.5 6t-17 18.5t-5.5 21t-1 23.5zM247 806q0 -17 -46.5 -56t-89.5 -60l-41 24l50 64l28 37l18.5 25.5l10.5 14t8 8t7 1.5q13 0 34 -17t21 -41zM93 605
q0 -23 -17 -40t-40 -17t-40 17t-17 40t17 40t40 17t40 -17t17 -40zM262 605q0 -23 -17 -40t-40 -17t-40 17t-17 40t17 40t40 17t40 -17t17 -40z" />
    <glyph glyph-name="fi" unicode="fi" horiz-adv-x="506" 
d="M25 468h55q0 121 49 180.5t169 59.5q65 0 100 -13l-8 -67q-38 9 -95 9q-72 0 -100 -33.5t-28 -120.5v-15h261v-401h49v-47q-41 -23 -81 -23q-19 0 -31.5 6t-17 18.5t-5.5 21t-1 23.5v338h-174v-404h-87v404h-55v64z" />
    <glyph glyph-name="fl" unicode="fl" horiz-adv-x="503" 
d="M433 676l-1 -615h42v-47q-31 -17 -74 -17q-19 0 -31.5 6t-17 18t-5.5 20t-1 23v565q-32 9 -79 9q-99 0 -99 -143v-27h106v-64h-106v-404h-87v404h-55v64h55q0 116 40 177t144 61q100 0 169 -30z" />
    <glyph glyph-name=".notdef" horiz-adv-x="300" 
 />
    <glyph glyph-name=".null" horiz-adv-x="0" 
 />
    <glyph glyph-name="nonmarkingreturn" horiz-adv-x="333" 
 />
    <glyph glyph-name="space" unicode=" " horiz-adv-x="300" 
 />
    <glyph glyph-name="exclam" unicode="!" horiz-adv-x="244" 
d="M66 690h100l-23 -503h-58zM175 51q0 29 -17 44.5t-43 15.5t-42.5 -15.5t-16.5 -44.5q0 -25 16 -42t43 -17t43.5 16t16.5 43z" />
    <glyph glyph-name="quotedbl" unicode="&#x22;" horiz-adv-x="278" 
d="M162 683h101l-21 -205h-59zM17 683h100l-21 -205h-58z" />
    <glyph glyph-name="numbersign" unicode="#" 
d="M278 252l23 179h-117l-23 -179h117zM424 180h-103l-22 -180h-54l23 180h-115l-24 -180h-53l24 180h-99l8 72h100l22 179h-97l9 72h98l22 180h54l-23 -180h115l24 180h53l-24 -180h103l-6 -72h-107l-21 -179h101z" />
    <glyph glyph-name="dollar" unicode="$" 
d="M258 -82h-56v67q-162 4 -162 91q0 53 8 79h68q2 -58 20 -80.5t66 -24.5v274l-22 12q-73 38 -107 75t-34 106q0 150 163 168v85h56v-83q162 -5 162 -71q0 -48 -19 -100h-68v96q-40 9 -75 10v-223q111 -58 148 -99t37 -115q0 -83 -51.5 -135.5t-133.5 -61.5v-70zM347 181
q0 41 -21 65.5t-68 49.5v-243q89 18 89 128zM129 532q0 -38 15.5 -60t57.5 -45v191q-73 -15 -73 -86z" />
    <glyph glyph-name="percent" unicode="%" horiz-adv-x="793" 
d="M759 181q0 -95 -46 -140t-115 -45q-67 0 -110 45t-43 140q0 49 11 84.5t27 54.5t39 30t41 14t39 3q24 0 41 -2t40.5 -13t38.5 -29.5t26 -55t11 -86.5zM524 718h61l-312 -732h-61zM345 509q0 -95 -45.5 -140t-114.5 -45q-68 0 -110.5 44.5t-42.5 140.5q0 49 11 84.5
t27 54.5t39 30t41 14t39 3q30 0 52 -5t48.5 -21.5t41 -57t14.5 -102.5zM681 181q0 42 -6.5 69t-19.5 38t-24 14t-29 3q-22 0 -37 -6.5t-28 -35.5t-13 -82q0 -67 20 -95t58 -28q41 0 60 27.5t19 95.5zM268 509q0 42 -6.5 69t-20 37.5t-24 13.5t-28.5 3q-16 0 -27.5 -3.5
t-24.5 -15t-19.5 -37.5t-6.5 -67q0 -67 20 -95t58 -28q41 0 60 27.5t19 95.5z" />
    <glyph glyph-name="ampersand" unicode="&#x26;" horiz-adv-x="634" 
d="M332 545q0 32 -20.5 54.5t-58.5 22.5q-79 0 -79 -77q0 -33 14.5 -60t52.5 -74q91 58 91 134zM368 121l-168 203q-36 -25 -59 -62.5t-23 -81.5q0 -51 29.5 -85.5t85.5 -34.5q80 0 135 61zM465 326l77 -28q-22 -96 -69 -155q41 -48 64 -68t43 -20t34 7l11 -41
q-30 -36 -75 -36q-36 0 -67 21.5t-70 68.5q-93 -90 -200 -90q-88 0 -138.5 45.5t-50.5 126.5q0 33 9 62.5t21.5 49.5t33.5 40.5t36.5 32t39.5 27.5q-77 89 -77 157q0 74 44.5 117.5t127.5 43.5q78 0 120 -36t42 -94q0 -106 -140 -189l147 -180q29 63 37 138z" />
    <glyph glyph-name="quotesingle" unicode="'" horiz-adv-x="132" 
d="M17 683h100l-21 -205h-58z" />
    <glyph glyph-name="parenleft" unicode="(" horiz-adv-x="309" 
d="M287 -183l-62 -29q-192 229 -192 491q0 145 50 263t142 228l62 -29q-32 -44 -53.5 -79t-52 -96t-46.5 -134t-16 -153t16 -153t46.5 -134t52 -96t53.5 -79z" />
    <glyph glyph-name="parenright" unicode=")" horiz-adv-x="309" 
d="M95 -212l-62 29q32 44 53.5 79t52 96t46.5 134t16 153t-16 153t-46.5 134t-52 96t-53.5 79l62 29q92 -110 142 -228t50 -263q0 -262 -192 -491z" />
    <glyph glyph-name="asterisk" unicode="*" horiz-adv-x="464" 
d="M423 560l-139 -59l139 -59l-39 -69l-126 83l11 -150h-75l11 150l-126 -83l-39 69l139 59l-139 59l39 69l126 -83l-11 150h75l-11 -150l126 83z" />
    <glyph glyph-name="plus" unicode="+" horiz-adv-x="619" 
d="M553 344v-66h-210v-209h-68v209h-210v66h210v210h68v-210h210z" />
    <glyph glyph-name="comma" unicode="," horiz-adv-x="180" 
d="M150 43q0 -39 -22.5 -83.5t-56.5 -69.5l-30 18q32 43 32 77q0 30 -46 67q29 59 65 59q25 0 41.5 -21.5t16.5 -46.5z" />
    <glyph glyph-name="hyphen" unicode="-" horiz-adv-x="297" 
d="M252 278v-73h-205v73h205z" />
    <glyph glyph-name="period" unicode="." horiz-adv-x="180" 
d="M151 51q0 -27 -16.5 -43t-43.5 -16t-43 17t-16 42q0 29 16.5 44.5t42.5 15.5t43 -15.5t17 -44.5z" />
    <glyph glyph-name="slash" unicode="/" horiz-adv-x="317" 
d="M-25 -158l284 918h71l-285 -918h-70z" />
    <glyph glyph-name="zero" unicode="0" 
d="M439 341q0 -356 -205 -356q-105 0 -155 80.5t-50 275.5q0 103 14 172.5t42 106.5t63.5 52t85.5 15q47 0 82 -15t64 -51.5t44 -107t15 -172.5zM346 341q0 157 -24.5 219t-87.5 62q-66 0 -89 -61t-23 -220q0 -151 24 -221t88 -70t88 69.5t24 221.5z" />
    <glyph glyph-name="one" unicode="1" 
d="M203 0v602h-82v47q19 11 61.5 24t76.5 13q24 0 30.5 -13.5t6.5 -53.5v-619h-93z" />
    <glyph glyph-name="two" unicode="2" 
d="M253 687q90 0 130.5 -47t40.5 -122q0 -46 -15.5 -92.5t-36 -82t-55 -76.5t-59 -65.5l-61 -59l-49.5 -47.5h279l-11 -95h-378l6 61q158 157 218.5 250t60.5 190q0 107 -98 107q-92 0 -145 -62l-18 71q67 70 191 70z" />
    <glyph glyph-name="three" unicode="3" 
d="M238 687q169 0 169 -147q0 -128 -106 -171v-6q42 -8 68.5 -25t37.5 -42t14 -45t3 -49q0 -97 -52 -157t-155 -60q-57 0 -103.5 14.5t-70.5 34.5l18 79q67 -55 136 -55q71 0 98.5 38.5t27.5 105.5q0 69 -18.5 97.5t-77.5 28.5h-86v61h75q52 0 74 34.5t22 80.5
q0 111 -89 111q-73 0 -142 -53l-20 65q28 27 75.5 43.5t101.5 16.5z" />
    <glyph glyph-name="four" unicode="4" 
d="M104 226h187v312zM384 683v-457h66l-8 -76h-58v-150h-93v150v0v0v0v0v0v0v0v0v0v0v0v0v0v0v0v0v0v0v0v0v0h-1v0v0v0v0v0v0v0v0h-1v0v0v0v0h-1v0v0v0v0h-1v0v0v0h-1v0v0h-1v0v0h-1v0v0h-1v0h-1v0v0h-1v0h-1v0h-1v0h-1v0h-1v0h-1v0h-1v0h-1v0h-1v0h-1v0h-1v0h-1v0h-1v0h-1
v0h-1h-1v0h-1v0h-1h-1v0h-1h-1v0h-1h-1h-1v0h-1h-1h-1h-1v0h-1h-1h-1h-1h-1h-1h-1h-1h-1h-1h-1h-1h-1h-1h-1h-1h-1h-1h-1h-1h-1h-1h-1h-1h-1h-1h-1h-1h-1h-1h-1h-1h-1h-1h-1h-1h-1h-1h-1h-1h-1h-1h-1h-1h-1h-1h-1h-1h-1h-1h-1h-1h-1h-1h-1h-1h-1h-1h-1h-1h-1h-1h-1h-1h-1h-1
h-1h-1h-1h-1h-1h-1h-1h-1h-1h-1h-1h-1h-1h-1h-1h-1h-1h-1h-1h-1h-1h-1h-1h-1h-1h-1h-1h-1h-1h-1h-1h-1h-1h-1h-1h-1h-1h-1h-1h-1h-1h-1h-1h-1h-1h-1h-1h-1h-1h-1h-1h-1h-1h-1h-1h-1h-1h-1h-1h-1h-1h-1h-1h-1h-1h-1h-1h-1h-1h-1h-1h-1h-1h-1h-1h-1h-1h-1h-1h-1h-1h-1h-1h-1
h-1h-1h-1h-1h-1h-1h-1h-1h-1h-1h-1h-1h-1h-1h-1h-1h-1h-1h-1h-1h-1h-1h-1h-1h-1h-1h-1h-1h-1h-1h-1h-1h-1h-1h-1h-1h-1h-1h-1h-1h-1h-1h-1h-1h-1h-1h-1h-1h-1h-1h-1h-1h-1h-1h-1h-1h-1h-1h-1h-1h-1h-1h-1h-1h-1h-10v71l282 462h73z" />
    <glyph glyph-name="five" unicode="5" 
d="M189 -15q-89 0 -132 29l14 71q53 -29 110 -29q65 0 102.5 40.5t37.5 111.5t-29.5 104t-100.5 33q-29 0 -56.5 -2.5t-40.5 -4.5l-14 -2l20 347h292l-16 -95h-212l-11 -178q38 4 69 4q29 0 52 -3t52.5 -14t49 -31t33.5 -57t14 -88q0 -98 -59 -167t-175 -69z" />
    <glyph glyph-name="six" unicode="6" 
d="M441 221q0 -45 -11.5 -85t-35 -75t-65 -55.5t-96.5 -20.5q-44 0 -75.5 12.5t-60.5 46t-44 102t-15 170.5q0 106 16.5 180.5t48.5 115t71 58t91 17.5q77 0 121 -29l-14 -71q-31 29 -111 29q-128 0 -130 -240q17 22 53.5 38t81.5 16q175 0 175 -209zM348 217
q0 75 -27 109.5t-83 34.5q-63 0 -106 -50q0 -61 4.5 -104.5t15.5 -81t32 -56.5t52 -19q54 0 83 42.5t29 124.5z" />
    <glyph glyph-name="seven" unicode="7" 
d="M371 588h-318l14 95h370l-4 -62l-241 -621h-97z" />
    <glyph glyph-name="eight" unicode="8" 
d="M437 183q0 -26 -4.5 -50.5t-19 -52.5t-37 -48t-62 -33.5t-91.5 -13.5q-58 0 -99 17.5t-60.5 47t-27 56.5t-7.5 56q0 138 138 190q-118 58 -118 175q0 26 8 50.5t27.5 51t60 42.5t97.5 16q53 0 90 -14.5t55.5 -38.5t26 -48t7.5 -50q0 -70 -36.5 -113t-83.5 -66
q136 -46 136 -174zM333 522q0 100 -100 100q-93 0 -93 -100q0 -79 113 -134q80 53 80 134zM342 167q0 59 -31 95.5t-88 60.5q-107 -46 -107 -150q0 -56 29 -89.5t88 -33.5q56 0 82.5 33t26.5 84z" />
    <glyph glyph-name="nine" unicode="9" 
d="M33 451q0 104 50 170t158 66q43 0 75.5 -12t61 -43t43.5 -93t15 -154q0 -117 -16.5 -197.5t-48.5 -123.5t-71 -61t-91 -18q-77 0 -121 29l14 71q31 -29 111 -29q128 0 130 240q-17 -22 -53.5 -38t-81.5 -16q-175 0 -175 209zM126 455q0 -75 27 -109.5t83 -34.5
q63 0 106 50q0 139 -21.5 200t-82.5 61q-54 0 -83 -42.5t-29 -124.5z" />
    <glyph glyph-name="colon" unicode=":" horiz-adv-x="190" 
d="M153 413q0 -23 -17 -40t-40 -17t-40 17t-17 40t17 40t40 17t40 -17t17 -40zM153 53q0 -23 -17 -40t-40 -17t-40 17t-17 40t17 40t40 17t40 -17t17 -40z" />
    <glyph glyph-name="semicolon" unicode=";" horiz-adv-x="190" 
d="M153 413q0 -23 -17 -40t-40 -17t-40 17t-17 40t17 40t40 17t40 -17t17 -40zM150 43q0 -39 -22.5 -83.5t-56.5 -69.5l-30 18q32 43 32 77q0 30 -46 67q29 59 65 59q25 0 41.5 -21.5t16.5 -46.5z" />
    <glyph glyph-name="less" unicode="&#x3c;" horiz-adv-x="619" 
d="M83 302v30l427 223l20 -61l-352 -177l352 -177l-20 -61z" />
    <glyph glyph-name="equal" unicode="=" horiz-adv-x="619" 
d="M539 429v-66h-459v66h459zM539 253v-67h-459v67h459z" />
    <glyph glyph-name="greater" unicode="&#x3e;" horiz-adv-x="619" 
d="M529 332v-30l-427 -223l-20 61l352 177l-352 177l20 61z" />
    <glyph glyph-name="question" unicode="?" horiz-adv-x="398" 
d="M358 550q0 -54 -18 -94.5t-44 -66l-52 -50.5t-44 -63t-18 -89h-61q1 57 15 100.5t33.5 69.5t39 48t33 49t13.5 60q0 39 -21 68t-76 29q-56 0 -115 -32l-11 65q61 43 169 43q81 0 119 -40.5t38 -96.5zM215 51q0 29 -17 44.5t-43 15.5t-42.5 -15.5t-16.5 -44.5
q0 -25 16 -42t43 -17t43.5 16t16.5 43z" />
    <glyph glyph-name="at" unicode="@" horiz-adv-x="871" 
d="M615 128q46 0 79.5 42t48.5 100.5t15 121.5q0 52 -15 98.5t-45 86t-82.5 62.5t-121.5 23q-167 0 -266.5 -97.5t-99.5 -277.5q0 -158 81.5 -258t245.5 -100q150 0 268 92l21 -43q-52 -44 -132 -74t-175 -30q-102 0 -179 32.5t-122.5 90t-68 130t-22.5 159.5q0 135 62 233
t163 145.5t228 47.5q91 0 159.5 -28t106 -75t55.5 -99.5t18 -109.5q0 -133 -71.5 -227t-177.5 -94q-51 0 -70 16t-19 69h-4q-59 -85 -141 -85q-52 0 -81 38.5t-29 98.5q0 128 72 227t192 99q38 0 85.5 -6t65.5 -13l-75 -319q-4 -19 -4 -35q0 -22 7 -31.5t28 -9.5zM526 305
l36 170q-23 10 -66 10q-41 0 -74.5 -25t-52.5 -63.5t-28.5 -77.5t-9.5 -73q0 -54 17.5 -74.5t51.5 -20.5q38 0 75.5 48.5t50.5 105.5z" />
    <glyph glyph-name="A" unicode="A" horiz-adv-x="563" 
d="M159 216h208l-95 371zM236 683h99l155 -551q13 -48 23 -59.5t36 -11.5v-47q-31 -17 -69 -17q-36 0 -54 29t-42 126h-242l-41 -152h-92z" />
    <glyph glyph-name="B" unicode="B" horiz-adv-x="561" 
d="M413 196q0 62 -26.5 96t-90.5 34h-123v-223q0 -23 16.5 -37t67.5 -14q73 0 114.5 36.5t41.5 107.5zM479 521q0 -50 -26 -97t-75 -56v-7q41 -5 69 -21t41 -39.5t18 -43.5t5 -42q0 -39 -11 -75t-37 -73t-79.5 -59.5t-128.5 -22.5q-175 0 -175 101v533h-48v50q67 18 253 18
q58 0 98 -13.5t60 -38.5t28 -52t8 -62zM173 618v-231h107q104 0 104 116q0 70 -33 94.5t-101 24.5q-47 0 -77 -4z" />
    <glyph glyph-name="C" unicode="C" horiz-adv-x="560" 
d="M342 619q-41 0 -69 -6.5t-54 -25t-40.5 -52t-23 -89t-8.5 -134.5q0 -247 190 -247q42 0 84.5 15.5t64.5 31.5l21 15l16 -63l-8.5 -8.5t-25.5 -19t-42 -24t-57 -19t-73 -8.5q-46 0 -81.5 7t-73 29.5t-61.5 60t-39.5 103.5t-15.5 156q0 66 11.5 119.5t29 88.5t43.5 61.5
t51 40.5t55 22.5t52 11t45 2.5q72 0 127 -17t55 -57q0 -55 -19 -107h-68v101q-31 12 -86 12z" />
    <glyph glyph-name="D" unicode="D" horiz-adv-x="633" 
d="M592 378q0 -187 -96.5 -290t-258.5 -103q-157 0 -157 128v506h-48v50q47 18 264 18q67 0 117.5 -14t92.5 -47t64 -95.5t22 -152.5zM491 346q0 82 -14 137t-43 85t-68 42t-96 12q-60 0 -97 -3v-494q0 -71 84 -71q118 0 176 82t58 210z" />
    <glyph glyph-name="E" unicode="E" horiz-adv-x="495" 
d="M431 685l-8 -76l-249 9v-232l197 9l-7 -70l-190 7v-191q0 -43 25.5 -56t115.5 -13q87 0 157 16l-7 -63q-71 -28 -169 -28q-106 0 -161 23t-55 89v510h-48v51q118 16 258 16q18 0 66 -0.5t75 -0.5z" />
    <glyph glyph-name="F" unicode="F" horiz-adv-x="449" 
d="M174 0h-94v619h-48v51q118 16 258 16q18 0 66 -0.5t75 -0.5l-8 -76l-249 9v-250l197 9l-7 -70l-190 7v-314z" />
    <glyph glyph-name="G" unicode="G" horiz-adv-x="581" 
d="M333 687q68 0 125 -17.5t57 -56.5q0 -55 -19 -107h-68v101q-31 12 -86 12q-29 0 -43.5 -1t-39 -6.5t-37.5 -16.5t-29.5 -33.5t-25 -54.5t-14.5 -81.5t-6 -113.5q0 -75 13.5 -127t38.5 -79t54.5 -38.5t67.5 -11.5q83 0 116 16v205h-58v50q58 17 96 17q20 0 32 -4.5
t16.5 -15t5.5 -17.5t1 -21v-232q-87 -69 -213 -69q-133 0 -202 81.5t-69 274.5q0 66 11.5 119.5t29 88.5t43.5 61.5t51 40.5t55 22.5t52 11t45 2.5z" />
    <glyph glyph-name="H" unicode="H" horiz-adv-x="617" 
d="M526 683v-619h48v-50q-49 -17 -86 -17q-19 0 -31.5 6t-17 18t-5.5 20t-1 23v254h-260v-318h-93v619h-48v50q49 17 86 17q19 0 31.5 -6t17 -18t5.5 -20t1 -23v-233h260v297h93z" />
    <glyph glyph-name="I" unicode="I" horiz-adv-x="216" 
d="M80 0v619h-48v50q49 17 86 17q19 0 31.5 -6t17 -18t5.5 -20t1 -23v-619h-93z" />
    <glyph glyph-name="J" unicode="J" horiz-adv-x="242" 
d="M80 17v602h-48v50q49 17 86 17q19 0 31.5 -6t17 -18t5.5 -20t1 -23v-551q0 -30 -0.5 -47.5t-4 -45t-11.5 -44t-21 -33.5t-35 -25t-52 -8q-16 0 -27.5 2t-15.5 4l-4 2v66q19 -3 32 -3q46 0 46 81z" />
    <glyph glyph-name="K" unicode="K" horiz-adv-x="566" 
d="M80 0v619h-48v50q49 17 86 17q19 0 31.5 -6t17 -18t5.5 -20t1 -23v-241h67q30 0 58.5 35t63.5 98q26 47 26 98q0 22 -30 25v44q26 8 93 8q42 0 42 -35q0 -41 -45 -133q-42 -84 -119 -159l85 -159q28 -51 48 -81.5t36.5 -43t26 -15t26.5 -2.5v-50q-12 -6 -27.5 -10
t-25.5 -4l-10 -1q-33 0 -54 12.5t-47.5 52.5t-67.5 125l-65 135h-81v-318h-93z" />
    <glyph glyph-name="L" unicode="L" horiz-adv-x="476" 
d="M80 109v510h-48v50q31 17 86 17q19 0 31.5 -6t17 -18t5.5 -20t1 -23v-478q0 -30 8.5 -43.5t36.5 -19.5t90 -6q63 0 157 16l-7 -63q-71 -28 -169 -28q-51 0 -85.5 4t-64.5 15.5t-44.5 34.5t-14.5 58z" />
    <glyph glyph-name="M" unicode="M" horiz-adv-x="782" 
d="M131 569h-4l-2 -569h-79l25 622h-44v47q31 17 94 17q36 0 50 -7t23 -30l185 -500l190 534h122v-619h48v-50q-49 -17 -86 -17q-19 0 -31.5 6t-17 18t-5.5 20t-1 23v390q0 77 6 115h-4l-210 -569h-52l-173 465q-24 65 -34 104z" />
    <glyph glyph-name="N" unicode="N" horiz-adv-x="627" 
d="M479 683h89l-19 -683h-81l-326 560l9 -560h-85l10 619h-42v50q31 17 94 17q29 0 42.5 -9t28.5 -36l290 -498z" />
    <glyph glyph-name="O" unicode="O" horiz-adv-x="635" 
d="M594 341q0 -174 -69 -265t-205 -91q-141 0 -207.5 88t-66.5 268q0 81 16 143.5t42 100t63 61.5t73.5 32.5t79.5 8.5q63 0 108 -13t85 -48.5t60.5 -106.5t20.5 -178zM493 341q0 91 -12 149.5t-37.5 86t-53 36.5t-70.5 9q-24 0 -42.5 -3.5t-39.5 -13t-36.5 -29.5t-28.5 -50
t-19.5 -77t-6.5 -108q0 -146 39.5 -218.5t133.5 -72.5q173 0 173 291z" />
    <glyph glyph-name="P" unicode="P" horiz-adv-x="515" 
d="M392 495q0 127 -146 127q-48 0 -73 -4v-273q48 -5 78 -5q68 0 104.5 34.5t36.5 120.5zM173 0h-93v619h-48v50q12 7 94.5 12.5t141.5 5.5q217 0 217 -183q0 -118 -61 -175t-147 -57q-67 0 -104 16v-288z" />
    <glyph glyph-name="Q" unicode="Q" horiz-adv-x="635" 
d="M594 341q0 -260 -151 -331q21 -29 43 -44t58 -15q15 0 33 3l7 -43q-45 -27 -92 -27q-72 0 -128 104q-21 -3 -44 -3q-141 0 -207.5 88t-66.5 268q0 81 16 143.5t42 100t63 61.5t73.5 32.5t79.5 8.5q63 0 108 -13t85 -48.5t60.5 -106.5t20.5 -178zM493 341q0 91 -12 149.5
t-37.5 86t-53 36.5t-70.5 9q-24 0 -42.5 -3.5t-39.5 -13t-36.5 -29.5t-28.5 -50t-19.5 -77t-6.5 -108q0 -146 39.5 -218.5t133.5 -72.5q173 0 173 291z" />
    <glyph glyph-name="R" unicode="R" horiz-adv-x="550" 
d="M173 0h-93v619h-48v50q12 7 90.5 12.5t123.5 5.5q238 0 238 -187q0 -52 -13 -91.5t-35 -62t-39 -33.5t-36 -18q72 -155 101 -195.5t66 -40.5v-50q-32 -16 -65 -16q-46 0 -76 43.5t-75 157.5l-33 83q-58 0 -106 8v-285zM388 483q0 46 -12.5 76t-37 42.5t-47 16.5t-57.5 4
q-31 0 -61 -4v-276q1 0 30 -1.5t48 -1.5q137 0 137 144z" />
    <glyph glyph-name="S" unicode="S" horiz-adv-x="516" 
d="M233 50q135 0 135 131q0 20 -6.5 36.5t-14.5 27.5t-28 24.5t-32.5 20.5t-43.5 22.5l-47 23.5q-37 19 -58 32.5t-44.5 35t-34 49.5t-10.5 64q0 77 52.5 123.5t157.5 46.5q70 0 126 -16t56 -55q0 -48 -19 -100h-68v96q-43 10 -86 10q-63 0 -93 -21.5t-30 -68.5
q0 -48 27 -72.5t112 -64.5q91 -42 137.5 -88t46.5 -113q0 -104 -67 -156.5t-169 -52.5q-33 0 -61.5 4t-57.5 13t-46 28t-17 46q0 53 8 79h68q3 -61 26 -83t81 -22z" />
    <glyph glyph-name="T" unicode="T" horiz-adv-x="479" 
d="M22 607l5 76h431l-9 -74q-28 1 -162 8v-617h-93v617q-51 -5 -172 -10z" />
    <glyph glyph-name="U" unicode="U" horiz-adv-x="589" 
d="M434 683h87v-513q0 -84 -63 -134.5t-163 -50.5q-112 0 -166.5 47.5t-54.5 126.5v463h-42v47q31 17 80 17q19 0 31.5 -6t17 -18t5.5 -20t1 -23v-435q0 -26 4.5 -46t17 -40t39.5 -31t67 -11q84 0 111.5 32t27.5 93v502z" />
    <glyph glyph-name="V" unicode="V" horiz-adv-x="545" 
d="M196 481q73 -265 96 -370l154 572h87l-212 -683h-82q-50 196 -110.5 397t-76.5 222h-48v50q35 17 72 17q40 0 63.5 -42t56.5 -163z" />
    <glyph glyph-name="W" unicode="W" horiz-adv-x="817" 
d="M57 619h-48v50q49 17 72 17q41 0 57 -31.5t33 -136.5q32 -197 48 -391l172 556h79l139 -556l95 556h87l-150 -683h-83l-143 566l-177 -566h-82q-14 145 -49 374t-50 245z" />
    <glyph glyph-name="X" unicode="X" horiz-adv-x="523" 
d="M70 619h-48v50q35 17 74 17q44 0 73.5 -50t94.5 -219l123 266h95l-184 -331l87 -166q42 -81 63 -103.5t51 -22.5v-47q-31 -17 -60 -17q-48 0 -88 62t-101 214l-127 -272h-102l195 335q-110 238 -146 284z" />
    <glyph glyph-name="Y" unicode="Y" horiz-adv-x="504" 
d="M218 255l-159 364h-48v50q35 17 64 17q46 0 66 -23.5t54 -110.5q28 -73 81 -235l119 366h93l-177 -428v-255h-93v255z" />
    <glyph glyph-name="Z" unicode="Z" horiz-adv-x="500" 
d="M448 0h-428l5 69l343 553q-62 -13 -159 -13h-144l13 74h397l-6 -55l-347 -563q43 9 156 9h183z" />
    <glyph glyph-name="bracketleft" unicode="[" horiz-adv-x="340" 
d="M287 -122v-59h-214v931h214v-60h-128v-812h128z" />
    <glyph glyph-name="backslash" unicode="\" horiz-adv-x="308" 
d="M46 760l284 -918h-70l-285 918h71z" />
    <glyph glyph-name="bracketright" unicode="]" horiz-adv-x="340" 
d="M31 -181v59h128v812h-128v60h214v-931h-214z" />
    <glyph glyph-name="asciicircum" unicode="^" horiz-adv-x="452" 
d="M209 729h38l181 -210l-59 -29l-141 137l-141 -137l-59 29z" />
    <glyph glyph-name="underscore" unicode="_" horiz-adv-x="488" 
d="M492 -69v-60h-495v60h495z" />
    <glyph glyph-name="grave" unicode="`" horiz-adv-x="232" 
d="M39 666q0 24 21 41t34 17q3 0 5 -1t5 -3.5t6 -6t8 -10.5t10.5 -15.5t16 -22l21.5 -27.5l50 -64l-41 -24q-43 21 -89.5 60t-46.5 56z" />
    <glyph glyph-name="a" unicode="a" horiz-adv-x="459" 
d="M430 65v-45q-27 -24 -73 -24q-25 0 -40 16t-17 32l-2 17q-33 -71 -126 -71q-53 0 -90.5 33t-37.5 102q0 91 49 124t150 33h55v46q0 27 -7.5 43.5t-23.5 23t-27 8t-32 1.5q-23 0 -64.5 -9.5t-67.5 -22.5v83q75 25 163 25q43 0 72.5 -10t44 -23t22 -37.5t8.5 -40t1 -44.5
v-260h43zM298 136v90q-97 -4 -130 -18.5t-33 -68.5q0 -75 77 -75q38 0 62 23t24 49z" />
    <glyph glyph-name="b" unicode="b" horiz-adv-x="494" 
d="M80 31v582h-49v47q33 23 75 23q61 0 61 -67v-200q1 2 3.5 6t13 14t23 17.5t34.5 14t47 6.5q83 0 121.5 -54t38.5 -164q0 -78 -17.5 -132t-50 -82.5t-69.5 -40t-85 -11.5q-94 0 -146 41zM357 246q0 76 -21.5 116t-79.5 40q-29 0 -51 -10t-30 -20l-8 -10v-304q21 -6 63 -6
q28 0 47.5 6.5t39.5 25t30 59.5t10 103z" />
    <glyph glyph-name="c" unicode="c" horiz-adv-x="412" 
d="M244 407q-25 0 -42 -6t-34 -23.5t-25.5 -55t-8.5 -94.5q0 -164 124 -164q36 0 65 6.5t39 13.5l11 6l14 -52q-48 -48 -147 -48q-98 0 -146 58t-48 180q0 252 212 252q62 0 122 -27l-16 -80q-29 20 -54.5 27t-65.5 7z" />
    <glyph glyph-name="d" unicode="d" horiz-adv-x="478" 
d="M324 174v223q-30 16 -78 16q-68 0 -93.5 -41.5t-25.5 -135.5q0 -174 101 -174q96 0 96 112zM324 456v157h-49v47q33 23 75 23q61 0 61 -67v-554h43v-42q-27 -24 -73 -24q-44 0 -48 60q-18 -27 -52 -44.5t-68 -17.5q-37 0 -65 9t-54.5 32.5t-40.5 72.5t-14 122
q0 123 45 183.5t144 60.5q32 0 56 -4.5t32 -9.5z" />
    <glyph glyph-name="e" unicode="e" horiz-adv-x="439" 
d="M315 351q0 65 -76 65q-15 0 -30.5 -5t-33 -17.5t-28.5 -40t-11 -65.5q38 -6 97 -6q82 0 82 69zM243 -10q-197 0 -197 238q0 142 55 197t150 55q150 0 150 -129q0 -67 -45.5 -97t-114.5 -30q-24 0 -50.5 2t-40.5 4l-15 2q0 -54 11 -89.5t32 -51.5t40.5 -21.5t45.5 -5.5
q36 0 66 6.5t42 13.5l12 6l14 -52q-48 -48 -155 -48z" />
    <glyph glyph-name="f" unicode="f" horiz-adv-x="293" 
d="M167 495v-27h106v-64h-106v-404h-87v404h-55v64h55q0 129 29.5 183.5t106.5 54.5q38 0 70 -15v-65q-34 8 -58 8q-35 0 -48 -28t-13 -111z" />
    <glyph glyph-name="g" unicode="g" horiz-adv-x="479" 
d="M418 466v-474q0 -94 -47.5 -146.5t-132.5 -52.5q-98 0 -156 28l7 68q47 -23 133 -23q56 0 82.5 27.5t26.5 94.5v66q-25 -34 -52.5 -47t-71.5 -13q-161 0 -161 220q0 140 54 200t165 60q52 0 153 -8zM331 158v252q-30 3 -78 3q-57 0 -88 -44.5t-31 -132.5q0 -58 7.5 -94.5
t23.5 -53t31 -21.5t39 -5q48 0 72 26.5t24 69.5z" />
    <glyph glyph-name="h" unicode="h" horiz-adv-x="510" 
d="M432 330v-263h49v-47q-41 -23 -81 -23q-19 0 -31.5 6t-17 18.5t-5.5 21t-1 23.5v242q0 91 -89 91q-36 0 -62.5 -23.5t-26.5 -67.5v-308h-87v613h-49v47q33 23 75 23q61 0 61 -67v-210q39 74 138 74q21 0 40 -5.5t40.5 -20t34 -46.5t12.5 -78z" />
    <glyph glyph-name="i" unicode="i" horiz-adv-x="245" 
d="M178 605q0 -23 -17 -40t-40 -17t-40 17t-17 40t17 40t40 17t40 -17t17 -40zM80 66v334h-49v47q41 23 81 23q19 0 31.5 -6t17 -18.5t5.5 -21t1 -23.5v-334h49v-47q-41 -23 -81 -23q-19 0 -31.5 6t-17 18.5t-5.5 21t-1 23.5z" />
    <glyph glyph-name="j" unicode="j" horiz-adv-x="245" 
d="M178 605q0 -23 -17 -40t-40 -17t-40 17t-17 40t17 40t40 17t40 -17t17 -40zM80 -53v453h-49v47q42 23 81 23q19 0 31.5 -6t17 -18.5t5.5 -21t1 -23.5v-405q0 -28 -0.5 -43.5t-3.5 -43t-11 -44.5t-21 -35t-35 -26.5t-51 -8.5q-16 0 -27.5 2.5t-15.5 4.5l-3 2v60
q19 -3 32 -3q49 0 49 86z" />
    <glyph glyph-name="k" unicode="k" horiz-adv-x="484" 
d="M167 273h52q19 0 34.5 11.5t38.5 46.5q27 40 27 68q0 20 -27 22v44q24 3 77 3q25 0 39.5 -7.5t14.5 -19.5q0 -72 -133 -190l81 -119q50 -73 95 -73v-44q-28 -18 -60 -18q-37 0 -61.5 21.5t-68.5 97.5l-55 95h-54v-211h-87v613h-49v47q33 23 75 23q61 0 61 -67v-343z" />
    <glyph glyph-name="l" unicode="l" horiz-adv-x="238" 
d="M167 616v-555h42v-47q-31 -17 -74 -17q-19 0 -31.5 6t-17 18t-5.5 20t-1 23v549h-49v47q33 23 75 23q61 0 61 -67z" />
    <glyph glyph-name="m" unicode="m" horiz-adv-x="743" 
d="M665 344v-277h49v-47q-41 -23 -81 -23q-19 0 -31.5 6t-17 18.5t-5.5 21t-1 23.5v244q0 49 -16.5 69.5t-65.5 20.5q-34 0 -57 -19.5t-23 -56.5v-324h-87v310q0 90 -78 90q-35 0 -59.5 -21t-24.5 -54v-325h-87v400h-49v47q33 23 75 23q24 0 38 -17t16 -35l1 -17
q17 40 52.5 59.5t77.5 19.5q87 0 110 -82q36 82 147 82q117 0 117 -136z" />
    <glyph glyph-name="n" unicode="n" horiz-adv-x="510" 
d="M432 330v-263h49v-47q-41 -23 -81 -23q-19 0 -31.5 6t-17 18.5t-5.5 21t-1 23.5v242q0 91 -89 91q-36 0 -62.5 -23.5t-26.5 -67.5v-308h-87v400h-49v47q33 23 75 23q24 0 38 -17t16 -35l1 -17q38 79 144 79q21 0 40 -5.5t40.5 -20t34 -46.5t12.5 -78z" />
    <glyph glyph-name="o" unicode="o" horiz-adv-x="500" 
d="M454 238q0 -127 -57 -187.5t-147 -60.5q-101 0 -152.5 57t-51.5 191q0 66 15 113.5t35.5 71.5t51.5 37.5t52.5 16.5t49.5 3q31 0 54 -3t53.5 -17t49.5 -38t33 -71.5t14 -112.5zM365 238q0 61 -8.5 99.5t-26.5 55t-35 21t-45 4.5q-44 0 -66.5 -12t-35.5 -51.5t-13 -116.5
q0 -102 26 -144t89 -42q62 0 88.5 41t26.5 145z" />
    <glyph glyph-name="p" unicode="p" horiz-adv-x="492" 
d="M357 236q0 86 -22 126t-79 40q-28 0 -47 -8.5t-27.5 -24t-11.5 -30t-3 -33.5v-238q28 -17 78 -17q55 0 83.5 40t28.5 145zM167 -217h-87v615h-49v47q33 23 75 23q24 0 38 -14t16 -28l1 -15q1 3 3 7t11.5 15t22 19t36.5 15t54 7q84 0 121 -58.5t37 -171.5
q0 -64 -12.5 -112t-30.5 -74.5t-42.5 -42.5t-44 -20.5t-38.5 -4.5q-78 0 -111 22v-229z" />
    <glyph glyph-name="q" unicode="q" horiz-adv-x="485" 
d="M419 -219h-87v273q-31 -64 -124 -64q-29 0 -54.5 9t-51.5 31.5t-41 69.5t-15 114q0 140 54.5 200t165.5 60q52 0 153 -8v-685zM332 158v252q-30 3 -70 3q-127 0 -127 -177q0 -58 7.5 -95.5t23 -54.5t31.5 -22.5t39 -5.5q45 0 70.5 29t25.5 71z" />
    <glyph glyph-name="r" unicode="r" horiz-adv-x="356" 
d="M162 405q38 65 114 65q48 0 70 -10l-7 -96q-33 26 -93 26q-38 0 -58.5 -14.5t-20.5 -40.5v-335h-87v400h-49v47q33 23 75 23q34 0 44 -14.5t12 -50.5z" />
    <glyph glyph-name="s" unicode="s" horiz-adv-x="393" 
d="M193 -10q-101 0 -153 38l11 70q57 -44 134 -44q34 0 59 16.5t25 53.5q0 17 -6.5 30t-21 21.5t-27 14t-34.5 12.5t-33 12q-52 22 -75.5 49.5t-23.5 81.5q0 61 39 98t121 37q56 0 124 -28l-10 -66q-60 26 -124 26q-69 0 -69 -54q0 -29 20 -44.5t73 -36.5q40 -16 58 -24.5
t39 -24.5t29 -38t8 -54q0 -59 -41 -102.5t-122 -43.5z" />
    <glyph glyph-name="t" unicode="t" horiz-adv-x="293" 
d="M262 66v-61q-37 -10 -72 -10q-38 0 -61 8.5t-33.5 30t-13 43.5t-2.5 64v263h-62v46l7.5 2.5t16.5 10t22.5 20t21.5 32.5t16 47l10 48l55 5v-147h95v-64h-95v-284q0 -33 12.5 -46.5t40.5 -13.5q12 0 22.5 1.5t15.5 2.5z" />
    <glyph glyph-name="u" unicode="u" horiz-adv-x="510" 
d="M350 64v21q-51 -93 -152 -93q-24 0 -42 4.5t-37 17t-29 41t-10 71.5v274h-49v47q43 23 81 23q19 0 31.5 -6t17 -18.5t5.5 -21t1 -23.5v-243q0 -49 16.5 -69.5t57.5 -20.5q43 0 73.5 27t30.5 65v308h87v-401h49v-47q-41 -23 -81 -23q-18 0 -29 6t-15 18t-5 20t-1 23z" />
    <glyph glyph-name="v" unicode="v" horiz-adv-x="446" 
d="M87 470q28 0 45 -15.5t38.5 -74.5t50.5 -183l24 -102l108 373h82l-163 -468h-80q-99 343 -128 400h-53v47q32 23 76 23z" />
    <glyph glyph-name="w" unicode="w" horiz-adv-x="649" 
d="M386 468l100 -376l64 376h81l-111 -468h-90l-96 364l-109 -364h-90q-48 345 -70 400h-53v47q41 23 75 23q49 0 67 -72t41 -305l114 375h77z" />
    <glyph glyph-name="x" unicode="x" horiz-adv-x="417" 
d="M168 229l-95 171h-51v47q31 23 75 23q9 0 16.5 -1.5t14 -5.5t11.5 -8.5t11.5 -14t10.5 -17.5l11.5 -23.5t12.5 -27.5l14.5 -35t17.5 -40l77 171h93l-136 -226l89 -148q12 -21 22 -27.5t37 -6.5v-47q-21 -17 -58 -17q-36 0 -64.5 35t-73.5 141l-90 -172h-94z" />
    <glyph glyph-name="y" unicode="y" horiz-adv-x="463" 
d="M60 400h-49v47q33 23 76 23q15 0 27 -5t23 -19.5t19 -27.5t18.5 -42t17 -49.5l19.5 -62.5q42 -137 59 -209q48 149 99 413h84q-70 -273 -127 -428t-98 -208t-87 -53q-23 0 -36 10v78q62 0 86.5 17t24.5 61q0 35 -18 87l-22.5 65l-20.5 60.5l-18 51.5l-17 47.5l-14 39.5
t-13.5 36l-11.5 27.5t-11 24t-10 16.5z" />
    <glyph glyph-name="z" unicode="z" horiz-adv-x="401" 
d="M380 84l-11 -84h-340l4 56l244 335q-31 -7 -95 -7h-133l15 84h312l-2 -51l-248 -340q35 7 115 7h139z" />
    <glyph glyph-name="braceleft" unicode="{" horiz-adv-x="382" 
d="M347 746v-64h-25q-43 0 -59 -27t-16 -106v-86q0 -70 -28.5 -126.5t-87.5 -63.5v-7q65 -12 90.5 -56.5t25.5 -132.5v-86q0 -80 15.5 -106.5t59.5 -26.5h15v-64h-33q-148 0 -148 189v73q0 37 -1 59.5t-6 47.5t-13.5 38t-25 22t-39.5 9h-26v76h38q39 0 56 38t17 138v73
q0 96 39 142.5t135 46.5h17z" />
    <glyph glyph-name="bar" unicode="|" horiz-adv-x="224" 
d="M143 726v-915h-62v915h62z" />
    <glyph glyph-name="braceright" unicode="}" horiz-adv-x="382" 
d="M35 682v64h17q96 0 135 -46.5t39 -142.5v-73q0 -100 17 -138t56 -38h38v-76h-26q-23 0 -39.5 -9t-25 -22t-13.5 -38t-6 -47.5t-1 -59.5v-73q0 -189 -148 -189h-33v64h15q44 0 59.5 26.5t15.5 106.5v86q0 88 25.5 132.5t90.5 56.5v7q-59 7 -87.5 63.5t-28.5 126.5v86
q0 79 -16 106t-59 27h-25z" />
    <glyph glyph-name="asciitilde" unicode="~" horiz-adv-x="619" 
d="M436 195q-36 1 -72 19t-60.5 39t-56.5 38.5t-62 17.5q-40 0 -57.5 -26t-23.5 -85h-49q0 83 35 134.5t107 51.5q35 0 71 -18t61 -39t57.5 -39t61.5 -18q40 0 57.5 26t23.5 85h49q0 -83 -35 -134.5t-107 -51.5z" />
    <glyph glyph-name="uni00A0" unicode="&#xa0;" horiz-adv-x="300" 
 />
    <glyph glyph-name="exclamdown" unicode="&#xa1;" horiz-adv-x="244" 
d="M75 -214h100l-23 503h-58zM184 425q0 -29 -17 -44.5t-43 -15.5t-42.5 15.5t-16.5 44.5q0 25 16 42t43 17t43.5 -16t16.5 -43z" />
    <glyph glyph-name="cent" unicode="&#xa2;" 
d="M305 -119h-56v110q-90 4 -134.5 61.5t-44.5 175.5q0 232 179 250v117h56v-116q53 -2 107 -26l-16 -80q-40 27 -91 32v-341q29 2 54 8.5t35 11.5l11 6l14 -52q-36 -36 -114 -45v-112zM158 228q0 -141 91 -161v338q-91 -16 -91 -177z" />
    <glyph glyph-name="sterling" unicode="&#xa3;" 
d="M343 320h-119q3 -15 3 -34q0 -64 -19 -107.5t-65 -82.5l3 -4l11 5.5t9.5 5t8 3.5t9 3t9 2t12 1h15.5q25 0 68.5 -10.5t58.5 -10.5q38 0 63 63l42 -31q-28 -126 -102 -126q-31 0 -95 11t-115 11q-45 0 -102 -22l-19 60q57 29 87 71t30 111q0 50 -4 81h-86v68h69l-6 22
t-6 23.5t-5 23.5t-4 31.5t-1 36.5q0 76 44.5 119t117.5 43q78 0 141 -35l-17 -77q-53 40 -118 40q-33 0 -55 -22t-22 -61q0 -19 3 -39.5t6 -33t9.5 -36.5l9.5 -35h131v-68z" />
    <glyph glyph-name="currency" unicode="&#xa4;" 
d="M468 195l75 -69l-49 -49l-71 73q-61 -43 -128 -43t-128 43l-71 -73l-45 49l71 69q-41 58 -41 128t41 128l-71 71l45 49l71 -75q58 41 128 41t128 -41l71 73l49 -47l-75 -71q43 -61 43 -128t-43 -128zM443 323q0 63 -43.5 106.5t-104.5 43.5t-103.5 -43.5t-42.5 -106.5
t42.5 -107.5t103.5 -44.5t104.5 44.5t43.5 107.5z" />
    <glyph glyph-name="yen" unicode="&#xa5;" 
d="M64 619h-48v50q35 17 64 17q42 0 67 -31t66 -144q30 -83 59 -178l110 350h93l-154 -377h119v-66h-135v-64h135v-67h-135v-109h-93v109h-131v67h131v64h-131v66h118q-96 236 -135 313z" />
    <glyph glyph-name="brokenbar" unicode="&#xa6;" horiz-adv-x="224" 
d="M143 766v-341h-62v341h62zM143 192v-341h-62v341h62z" />
    <glyph glyph-name="section" unicode="&#xa7;" horiz-adv-x="487" 
d="M349 304q0 39 -23 58.5t-67 34.5l-68 23q-3 -1 -7 -3.5t-15 -11.5t-19.5 -19.5t-15.5 -30t-7 -41.5q0 -39 23 -58.5t67 -34.5l68 -23q3 1 7 3.5t15 11.5t19.5 19.5t15.5 30t7 41.5zM435 328q0 -100 -93 -158q69 -47 69 -122q0 -67 -48.5 -107.5t-129.5 -40.5t-159 41
l22 69q72 -45 145 -45q30 0 56.5 17.5t26.5 56.5q0 60 -80 85l-67 22q-74 24 -105 57.5t-31 86.5q0 100 93 158q-69 47 -69 122q0 67 48.5 107.5t129.5 40.5t159 -41l-22 -69q-72 45 -145 45q-30 0 -56.5 -17.5t-26.5 -56.5q0 -60 80 -85l67 -22q74 -24 105 -57.5t31 -86.5z
" />
    <glyph glyph-name="dieresis" unicode="&#xa8;" horiz-adv-x="358" 
d="M151 605q0 -23 -17 -40t-40 -17t-40 17t-17 40t17 40t40 17t40 -17t17 -40zM320 605q0 -23 -17 -40t-40 -17t-40 17t-17 40t17 40t40 17t40 -17t17 -40z" />
    <glyph glyph-name="copyright" unicode="&#xa9;" horiz-adv-x="845" 
d="M813 366q0 -173 -105.5 -282t-285.5 -109q-176 0 -283 105.5t-107 285.5q0 191 105 290.5t285 99.5q179 0 285 -110t106 -280zM770 366q0 149 -98 248t-250 99q-157 0 -252 -91.5t-95 -255.5q0 -151 96.5 -249.5t250.5 -98.5q159 0 253.5 98.5t94.5 249.5zM442 558
q-25 0 -41.5 -2.5t-39 -14t-35.5 -32.5t-22.5 -61t-9.5 -97q0 -86 40 -126t104 -40q32 0 65 10.5t49 20.5l17 11l12 -46q-6 -6 -18 -15t-53 -24t-87 -15q-44 0 -78 10t-65.5 35t-48.5 75t-17 123q0 62 16.5 108t40 70t56.5 38t57 17.5t51 3.5q55 0 97.5 -11.5t42.5 -38.5
q0 -37 -14 -72h-53v61q-19 12 -66 12z" />
    <glyph glyph-name="ordfeminine" unicode="&#xaa;" horiz-adv-x="337" 
d="M309 431v-32q-20 -17 -53 -17q-19 0 -30.5 11.5t-13.5 22.5l-2 12q-24 -50 -92 -50q-38 0 -65.5 23.5t-27.5 72.5q0 64 36 88t109 24h40v33q0 19 -5.5 31t-17 16.5t-20 5.5t-23.5 1q-48 0 -96 -23v59q60 18 119 18q38 0 62.5 -9t34 -28t12 -34t2.5 -40v-185h31zM210 482
v64q-71 -3 -93.5 -13t-22.5 -49q0 -53 53 -53q28 0 45.5 16.5t17.5 34.5z" />
    <glyph glyph-name="guillemotleft" unicode="&#xab;" horiz-adv-x="467" 
d="M303 272l118 -154l-25 -41l-190 195l190 195l25 -41zM153 272l126 -170l-25 -41l-210 211l210 211l25 -41z" />
    <glyph glyph-name="logicalnot" unicode="&#xac;" horiz-adv-x="619" 
d="M553 344v-155h-66v89h-422v66h488z" />
    <glyph glyph-name="uni00AD" unicode="&#xad;" horiz-adv-x="297" 
d="M252 278v-73h-205v73h205z" />
    <glyph glyph-name="registered" unicode="&#xae;" horiz-adv-x="845" 
d="M813 366q0 -173 -105.5 -282t-285.5 -109q-176 0 -283 105.5t-107 285.5q0 191 105 290.5t285 99.5q179 0 285 -110t106 -280zM770 366q0 149 -98 248t-250 99q-157 0 -252 -91.5t-95 -255.5q0 -151 96.5 -249.5t250.5 -98.5q159 0 253.5 98.5t94.5 249.5zM358 130h-74
v435h-37v35q9 5 69.5 9t97.5 4q182 0 182 -131q0 -112 -94 -144q53 -111 74 -139t54 -28v-34q-22 -11 -50 -11q-36 0 -64 33t-57 107l-23 59q-42 0 -78 6v-201zM520 470q0 33 -9 53t-27.5 28.5t-35 11t-43.5 2.5q-23 0 -47 -4v-188q1 0 23 -0.5t37 -0.5q51 0 76.5 22.5
t25.5 75.5z" />
    <glyph glyph-name="macron" unicode="&#xaf;" horiz-adv-x="324" 
d="M297 558h-274v64h274v-64z" />
    <glyph glyph-name="degree" unicode="&#xb0;" horiz-adv-x="361" 
d="M322 557q0 -58 -40.5 -98.5t-98.5 -40.5t-98.5 40.5t-40.5 98.5t40.5 98.5t98.5 40.5t98.5 -40.5t40.5 -98.5zM265 557q0 35 -23.5 58.5t-58.5 23.5t-58.5 -23.5t-23.5 -58.5t23.5 -58.5t58.5 -23.5t58.5 23.5t23.5 58.5z" />
    <glyph glyph-name="plusminus" unicode="&#xb1;" horiz-adv-x="619" 
d="M548 386v-61h-210v-159h-63v159h-210v61h210v160h63v-160h210zM548 116v-61h-483v61h483z" />
    <glyph glyph-name="twosuperior" unicode="&#xb2;" horiz-adv-x="326" 
d="M165 687q59 0 88 -29.5t29 -75.5q0 -60 -44.5 -110t-124.5 -107h171l-7 -65h-241l4 46q92 73 129.5 124t37.5 97q0 67 -63 67q-47 0 -81 -34l-11 44q15 21 47.5 32t65.5 11z" />
    <glyph glyph-name="threesuperior" unicode="&#xb3;" horiz-adv-x="324" 
d="M152 687q62 0 89.5 -26t27.5 -65q0 -37 -21 -60t-49 -30v-4q51 -8 67 -33t16 -63q0 -49 -35.5 -82.5t-98.5 -33.5q-65 0 -106 31l11 52q43 -31 90 -31q69 0 69 73q0 64 -63 64h-52v42h45q57 0 57 62q0 54 -58 54q-52 0 -83 -34l-11 44q34 40 105 40z" />
    <glyph glyph-name="acute" unicode="&#xb4;" horiz-adv-x="251" 
d="M216 666q0 -17 -46.5 -56t-89.5 -60l-41 24l50 64l21.5 27.5t16 22t10.5 15.5t8 10.5t6 6t5 3.5t5 1q13 0 34 -17t21 -41z" />
    <glyph glyph-name="mu" unicode="&#xb5;" horiz-adv-x="491" 
d="M425 468v-468h-71l-7 79q-11 -42 -37.5 -63.5t-56.5 -21.5q-67 0 -92 52v-263h-87v685h87v-254q0 -136 92 -136q85 0 85 100v290h87z" />
    <glyph glyph-name="mu" unicode="&#x3bc;" horiz-adv-x="491" 
d="M425 468v-468h-71l-7 79q-11 -42 -37.5 -63.5t-56.5 -21.5q-67 0 -92 52v-263h-87v685h87v-254q0 -136 92 -136q85 0 85 100v290h87z" />
    <glyph glyph-name="paragraph" unicode="&#xb6;" horiz-adv-x="410" 
d="M355 683v-829h-69v829h69zM219 683v-829h-69v534q-62 11 -94.5 45t-32.5 101q0 70 41.5 109.5t97.5 39.5h57z" />
    <glyph glyph-name="periodcentered" unicode="&#xb7;" horiz-adv-x="277" 
d="M195 329q0 -25 -15 -40t-40 -15q-27 0 -41 15.5t-14 39.5q0 26 14.5 40.5t40.5 14.5t40.5 -15.5t14.5 -39.5z" />
    <glyph glyph-name="cedilla" unicode="&#xb8;" horiz-adv-x="285" 
d="M118 6h47l-16 -59q47 -3 71 -25.5t24 -57.5q0 -60 -51 -88.5t-132 -28.5l-4 38q101 0 101 62q0 22 -17 33t-55 16z" />
    <glyph glyph-name="onesuperior" unicode="&#xb9;" horiz-adv-x="305" 
d="M187 301h-70v325h-56v38q6 2 27 8.5t37.5 11t25.5 4.5q20 0 28 -7.5t8 -26.5v-353z" />
    <glyph glyph-name="ordmasculine" unicode="&#xba;" horiz-adv-x="358" 
d="M332 555q0 -91 -42.5 -134t-110.5 -43q-77 0 -115 40.5t-38 136.5q0 47 11 80.5t26.5 50.5t38.5 27t39.5 12t37.5 2q30 0 51.5 -4.5t47.5 -20t40 -53t14 -94.5zM262 555q0 77 -21 101t-62 24q-47 0 -65.5 -25.5t-18.5 -99.5q0 -67 19 -98.5t65 -31.5q45 0 64 30t19 100z
" />
    <glyph glyph-name="guillemotright" unicode="&#xbb;" horiz-adv-x="467" 
d="M43 118l118 154l-118 154l25 41l190 -195l-190 -195zM185 102l126 170l-126 170l25 41l210 -211l-210 -211z" />
    <glyph glyph-name="onequarter" unicode="&#xbc;" horiz-adv-x="714" 
d="M187 301h-70v325h-56v38q6 2 27 8.5t37.5 11t25.5 4.5q20 0 28 -7.5t8 -26.5v-353zM658 124l-7 -49h-35v-88h-70v88h-176l4 49l183 258h59v-258h42zM546 124v172l-121 -172h121zM480 718h61l-312 -732h-61z" />
    <glyph glyph-name="onehalf" unicode="&#xbd;" horiz-adv-x="727" 
d="M456 718h61l-312 -732h-61zM187 301h-70v325h-56v38q6 2 27 8.5t37.5 11t25.5 4.5q20 0 28 -7.5t8 -26.5v-353zM564 374q59 0 88 -29.5t29 -75.5q0 -60 -44.5 -110t-124.5 -107h171l-7 -65h-241l4 46q92 73 129.5 124t37.5 97q0 67 -63 67q-47 0 -81 -34l-11 44
q15 21 47.5 32t65.5 11z" />
    <glyph glyph-name="threequarters" unicode="&#xbe;" horiz-adv-x="696" 
d="M152 687q62 0 89.5 -26t27.5 -65q0 -37 -21 -60t-49 -30v-4q51 -8 67 -33t16 -63q0 -49 -35.5 -82.5t-98.5 -33.5q-65 0 -106 31l11 52q43 -31 90 -31q69 0 69 73q0 64 -63 64h-52v42h45q57 0 57 62q0 54 -58 54q-52 0 -83 -34l-11 44q34 40 105 40zM497 718h61
l-312 -732h-61zM658 124l-7 -49h-35v-88h-70v88h-176l4 49l183 258h59v-258h42zM546 124v172l-121 -172h121z" />
    <glyph glyph-name="questiondown" unicode="&#xbf;" horiz-adv-x="398" 
d="M14 -75q0 54 18 94.5t44 66l52 50.5t44 63t18 89h61q-1 -57 -15 -100.5t-33.5 -69.5t-39 -48t-33 -49t-13.5 -60q0 -39 21 -68t76 -29q56 0 115 32l11 -65q-61 -43 -169 -43q-81 0 -119 40.5t-38 96.5zM157 424q0 27 16.5 43t43.5 16t43 -17t16 -42q0 -29 -16.5 -44.5
t-42.5 -15.5t-43 15.5t-17 44.5z" />
    <glyph glyph-name="Agrave" unicode="&#xc0;" horiz-adv-x="563" 
d="M159 216h208l-95 371zM236 683h99l155 -551q13 -48 23 -59.5t36 -11.5v-47q-31 -17 -69 -17q-36 0 -54 29t-42 126h-242l-41 -152h-92zM183 831q0 21 13.5 39t23.5 18q3 0 5 -0.5t5.5 -2.5t6.5 -5t10 -9l14 -12.5l19.5 -17.5l26.5 -23l62 -52l-29 -27q-50 13 -103.5 42
t-53.5 50z" />
    <glyph glyph-name="Aacute" unicode="&#xc1;" horiz-adv-x="563" 
d="M159 216h208l-95 371zM236 683h99l155 -551q13 -48 23 -59.5t36 -11.5v-47q-31 -17 -69 -17q-36 0 -54 29t-42 126h-242l-41 -152h-92zM369 831q0 -21 -53.5 -50t-103.5 -42l-29 27l62 52l26.5 23l19.5 17.5l14 12.5t10 9t6.5 5t5.5 2.5t5 0.5q10 0 23.5 -18t13.5 -39z
" />
    <glyph glyph-name="Acircumflex" unicode="&#xc2;" horiz-adv-x="563" 
d="M159 216h208l-95 371zM236 683h99l155 -551q13 -48 23 -59.5t36 -11.5v-47q-31 -17 -69 -17q-36 0 -54 29t-42 126h-242l-41 -152h-92zM257 880h33l131 -126l-29 -33l-119 74l-118 -74l-29 33z" />
    <glyph glyph-name="Atilde" unicode="&#xc3;" horiz-adv-x="563" 
d="M159 216h208l-95 371zM236 683h99l155 -551q13 -48 23 -59.5t36 -11.5v-47q-31 -17 -69 -17q-36 0 -54 29t-42 126h-242l-41 -152h-92zM365 792q34 0 56 50l33 -19q-8 -23 -14 -36t-17 -29.5t-28 -24.5t-40 -8q-32 0 -81 26t-77 26q-34 0 -56 -50l-33 19q8 23 14 36
t17 29.5t28 24.5t40 8q32 0 85 -26t73 -26z" />
    <glyph glyph-name="Adieresis" unicode="&#xc4;" horiz-adv-x="563" 
d="M159 216h208l-95 371zM236 683h99l155 -551q13 -48 23 -59.5t36 -11.5v-47q-31 -17 -69 -17q-36 0 -54 29t-42 126h-242l-41 -152h-92zM266 776q0 -21 -14 -34.5t-41 -13.5q-24 0 -39 12.5t-15 35.5q0 49 54 49q25 0 40 -14t15 -35zM409 776q0 -48 -54 -48
q-26 0 -40.5 13.5t-14.5 34.5q0 22 14.5 35.5t40.5 13.5q25 0 39.5 -14t14.5 -35z" />
    <glyph glyph-name="Aring" unicode="&#xc5;" horiz-adv-x="563" 
d="M159 216h208l-95 371zM236 683h99l155 -551q13 -48 23 -59.5t36 -11.5v-47q-31 -17 -69 -17q-36 0 -54 29t-42 126h-242l-41 -152h-92zM388 814q0 -46 -33 -79t-79 -33t-78.5 33t-32.5 79t32.5 78.5t78.5 32.5t79 -32.5t33 -78.5zM329 814q0 22 -15 37.5t-38 15.5
q-22 0 -37.5 -15.5t-15.5 -37.5q0 -23 15.5 -38.5t37.5 -15.5q23 0 38 15.5t15 38.5z" />
    <glyph glyph-name="AE" unicode="&#xc6;" horiz-adv-x="805" 
d="M741 685l-8 -76l-249 9v-232l197 9l-7 -70l-190 7v-191q0 -43 25.5 -56t115.5 -13q63 0 157 16l-7 -63q-71 -28 -169 -28q-106 0 -161 23t-55 89v43h-199l-81 -152h-99l379 619h-48v51q118 16 258 16q18 0 66 -0.5t75 -0.5zM228 216h162v296z" />
    <glyph glyph-name="Ccedilla" unicode="&#xc7;" horiz-adv-x="560" 
d="M342 619q-41 0 -69 -6.5t-54 -25t-40.5 -52t-23 -89t-8.5 -134.5q0 -247 190 -247q42 0 84.5 15.5t64.5 31.5l21 15l16 -63q-8 -8 -23 -21t-66 -34.5t-107 -23.5l-10 -38q47 -3 71 -25.5t24 -57.5q0 -60 -51 -88.5t-132 -28.5l-4 38q101 0 101 62q0 22 -17 33t-55 16
l26 91q-51 4 -89.5 20t-73 53.5t-53 108t-18.5 172.5q0 66 11.5 119.5t29 88.5t43.5 61.5t51 40.5t55 22.5t52 11t45 2.5q72 0 127 -17t55 -57q0 -55 -19 -107h-68v101q-31 12 -86 12z" />
    <glyph glyph-name="Egrave" unicode="&#xc8;" horiz-adv-x="495" 
d="M431 685l-8 -76l-249 9v-232l197 9l-7 -70l-190 7v-191q0 -43 25.5 -56t115.5 -13q87 0 157 16l-7 -63q-71 -28 -169 -28q-106 0 -161 23t-55 89v510h-48v51q118 16 258 16q18 0 66 -0.5t75 -0.5zM154 831q0 21 13.5 39t23.5 18q3 0 5 -0.5t5.5 -2.5t6.5 -5t10 -9
l14 -12.5l19.5 -17.5l26.5 -23l62 -52l-29 -27q-50 13 -103.5 42t-53.5 50z" />
    <glyph glyph-name="Eacute" unicode="&#xc9;" horiz-adv-x="495" 
d="M431 685l-8 -76l-249 9v-232l197 9l-7 -70l-190 7v-191q0 -43 25.5 -56t115.5 -13q87 0 157 16l-7 -63q-71 -28 -169 -28q-106 0 -161 23t-55 89v510h-48v51q118 16 258 16q18 0 66 -0.5t75 -0.5zM378 831q0 -21 -53.5 -50t-103.5 -42l-29 27l62 52l26.5 23l19.5 17.5
l14 12.5t10 9t6.5 5t5.5 2.5t5 0.5q10 0 23.5 -18t13.5 -39z" />
    <glyph glyph-name="Ecircumflex" unicode="&#xca;" horiz-adv-x="495" 
d="M431 685l-8 -76l-249 9v-232l197 9l-7 -70l-190 7v-191q0 -43 25.5 -56t115.5 -13q87 0 157 16l-7 -63q-71 -28 -169 -28q-106 0 -161 23t-55 89v510h-48v51q118 16 258 16q18 0 66 -0.5t75 -0.5zM228 880h33l131 -126l-29 -33l-119 74l-118 -74l-29 33z" />
    <glyph glyph-name="Edieresis" unicode="&#xcb;" horiz-adv-x="495" 
d="M431 685l-8 -76l-249 9v-232l197 9l-7 -70l-190 7v-191q0 -43 25.5 -56t115.5 -13q87 0 157 16l-7 -63q-71 -28 -169 -28q-106 0 -161 23t-55 89v510h-48v51q118 16 258 16q18 0 66 -0.5t75 -0.5zM222 776q0 -21 -14 -34.5t-41 -13.5q-24 0 -39 12.5t-15 35.5q0 49 54 49
q25 0 40 -14t15 -35zM365 776q0 -48 -54 -48q-26 0 -40.5 13.5t-14.5 34.5q0 22 14.5 35.5t40.5 13.5q25 0 39.5 -14t14.5 -35z" />
    <glyph glyph-name="Igrave" unicode="&#xcc;" horiz-adv-x="216" 
d="M80 0v619h-48v50q49 17 86 17q19 0 31.5 -6t17 -18t5.5 -20t1 -23v-619h-93zM23 831q0 21 13.5 39t23.5 18q3 0 5 -0.5t5.5 -2.5t6.5 -5t10 -9l14 -12.5l19.5 -17.5l26.5 -23l62 -52l-29 -27q-50 13 -103.5 42t-53.5 50z" />
    <glyph glyph-name="Iacute" unicode="&#xcd;" horiz-adv-x="216" 
d="M80 0v619h-48v50q49 17 86 17q19 0 31.5 -6t17 -18t5.5 -20t1 -23v-619h-93zM209 831q0 -21 -53.5 -50t-103.5 -42l-29 27l62 52l26.5 23l19.5 17.5l14 12.5t10 9t6.5 5t5.5 2.5t5 0.5q10 0 23.5 -18t13.5 -39z" />
    <glyph glyph-name="Icircumflex" unicode="&#xce;" horiz-adv-x="216" 
d="M80 0v619h-48v50q49 17 86 17q19 0 31.5 -6t17 -18t5.5 -20t1 -23v-619h-93zM97 880h33l131 -126l-29 -33l-119 74l-118 -74l-29 33z" />
    <glyph glyph-name="Idieresis" unicode="&#xcf;" horiz-adv-x="216" 
d="M94 776q0 -21 -14 -34.5t-41 -13.5q-24 0 -39 12.5t-15 35.5q0 49 54 49q25 0 40 -14t15 -35zM237 776q0 -48 -54 -48q-26 0 -40.5 13.5t-14.5 34.5q0 22 14.5 35.5t40.5 13.5q25 0 39.5 -14t14.5 -35zM80 0v619h-48v50q49 17 86 17q19 0 31.5 -6t17 -18t5.5 -20t1 -23
v-619h-93z" />
    <glyph glyph-name="Eth" unicode="&#xd0;" horiz-adv-x="633" 
d="M592 378q0 -187 -96.5 -290t-258.5 -103q-157 0 -157 128v202h-48v68h48v236h-48v50q47 18 264 18q67 0 117.5 -14t92.5 -47t64 -95.5t22 -152.5zM491 346q0 82 -14 137t-43 85t-68 42t-96 12q-60 0 -97 -3v-236h118v-68h-118v-190q0 -71 84 -71q118 0 176 82t58 210z
" />
    <glyph glyph-name="Ntilde" unicode="&#xd1;" horiz-adv-x="627" 
d="M479 683h89l-19 -683h-81l-326 560l9 -560h-85l10 619h-42v50q31 17 94 17q29 0 42.5 -9t28.5 -36l290 -498zM387 792q34 0 56 50l33 -19q-8 -23 -14 -36t-17 -29.5t-28 -24.5t-40 -8q-32 0 -81 26t-77 26q-34 0 -56 -50l-33 19q8 23 14 36t17 29.5t28 24.5t40 8
q32 0 85 -26t73 -26z" />
    <glyph glyph-name="Ograve" unicode="&#xd2;" horiz-adv-x="635" 
d="M594 341q0 -174 -69 -265t-205 -91q-141 0 -207.5 88t-66.5 268q0 81 16 143.5t42 100t63 61.5t73.5 32.5t79.5 8.5q63 0 108 -13t85 -48.5t60.5 -106.5t20.5 -178zM493 341q0 91 -12 149.5t-37.5 86t-53 36.5t-70.5 9q-24 0 -42.5 -3.5t-39.5 -13t-36.5 -29.5t-28.5 -50
t-19.5 -77t-6.5 -108q0 -146 39.5 -218.5t133.5 -72.5q173 0 173 291zM228 831q0 21 13.5 39t23.5 18q3 0 5 -0.5t5.5 -2.5t6.5 -5t10 -9l14 -12.5l19.5 -17.5l26.5 -23l62 -52l-29 -27q-50 13 -103.5 42t-53.5 50z" />
    <glyph glyph-name="Oacute" unicode="&#xd3;" horiz-adv-x="635" 
d="M594 341q0 -174 -69 -265t-205 -91q-141 0 -207.5 88t-66.5 268q0 81 16 143.5t42 100t63 61.5t73.5 32.5t79.5 8.5q63 0 108 -13t85 -48.5t60.5 -106.5t20.5 -178zM493 341q0 91 -12 149.5t-37.5 86t-53 36.5t-70.5 9q-24 0 -42.5 -3.5t-39.5 -13t-36.5 -29.5t-28.5 -50
t-19.5 -77t-6.5 -108q0 -146 39.5 -218.5t133.5 -72.5q173 0 173 291zM414 831q0 -21 -53.5 -50t-103.5 -42l-29 27l62 52l26.5 23l19.5 17.5l14 12.5t10 9t6.5 5t5.5 2.5t5 0.5q10 0 23.5 -18t13.5 -39z" />
    <glyph glyph-name="Ocircumflex" unicode="&#xd4;" horiz-adv-x="635" 
d="M594 341q0 -174 -69 -265t-205 -91q-141 0 -207.5 88t-66.5 268q0 81 16 143.5t42 100t63 61.5t73.5 32.5t79.5 8.5q63 0 108 -13t85 -48.5t60.5 -106.5t20.5 -178zM493 341q0 91 -12 149.5t-37.5 86t-53 36.5t-70.5 9q-24 0 -42.5 -3.5t-39.5 -13t-36.5 -29.5t-28.5 -50
t-19.5 -77t-6.5 -108q0 -146 39.5 -218.5t133.5 -72.5q173 0 173 291zM306 880h33l131 -126l-29 -33l-119 74l-118 -74l-29 33z" />
    <glyph glyph-name="Otilde" unicode="&#xd5;" horiz-adv-x="635" 
d="M594 341q0 -174 -69 -265t-205 -91q-141 0 -207.5 88t-66.5 268q0 81 16 143.5t42 100t63 61.5t73.5 32.5t79.5 8.5q63 0 108 -13t85 -48.5t60.5 -106.5t20.5 -178zM493 341q0 91 -12 149.5t-37.5 86t-53 36.5t-70.5 9q-24 0 -42.5 -3.5t-39.5 -13t-36.5 -29.5t-28.5 -50
t-19.5 -77t-6.5 -108q0 -146 39.5 -218.5t133.5 -72.5q173 0 173 291zM399 792q34 0 56 50l33 -19q-8 -23 -14 -36t-17 -29.5t-28 -24.5t-40 -8q-32 0 -81 26t-77 26q-34 0 -56 -50l-33 19q8 23 14 36t17 29.5t28 24.5t40 8q32 0 85 -26t73 -26z" />
    <glyph glyph-name="Odieresis" unicode="&#xd6;" horiz-adv-x="635" 
d="M594 341q0 -174 -69 -265t-205 -91q-141 0 -207.5 88t-66.5 268q0 81 16 143.5t42 100t63 61.5t73.5 32.5t79.5 8.5q63 0 108 -13t85 -48.5t60.5 -106.5t20.5 -178zM493 341q0 91 -12 149.5t-37.5 86t-53 36.5t-70.5 9q-24 0 -42.5 -3.5t-39.5 -13t-36.5 -29.5t-28.5 -50
t-19.5 -77t-6.5 -108q0 -146 39.5 -218.5t133.5 -72.5q173 0 173 291zM300 776q0 -21 -14 -34.5t-41 -13.5q-24 0 -39 12.5t-15 35.5q0 49 54 49q25 0 40 -14t15 -35zM443 776q0 -48 -54 -48q-26 0 -40.5 13.5t-14.5 34.5q0 22 14.5 35.5t40.5 13.5q25 0 39.5 -14t14.5 -35z
" />
    <glyph glyph-name="multiply" unicode="&#xd7;" horiz-adv-x="490" 
d="M441 165l-47 -47l-148 149l-148 -148l-48 48l148 148l-149 148l47 47l148 -149l149 149l48 -48l-149 -149z" />
    <glyph glyph-name="Oslash" unicode="&#xd8;" horiz-adv-x="635" 
d="M594 341q0 -174 -69 -265t-205 -91q-130 0 -196 74l-34 -42l-59 27l56 70q-41 83 -41 227q0 81 16 143.5t42 100t63 61.5t73.5 32.5t79.5 8.5q121 0 182 -51l30 37l59 -27l-48 -60q51 -83 51 -245zM493 341q0 98 -16 162l-296 -372q41 -81 139 -81q173 0 173 291z
M320 622q-24 0 -42.5 -3.5t-39.5 -13t-36.5 -29.5t-28.5 -50t-19.5 -77t-6.5 -108q0 -84 11 -138l291 366q-21 31 -52.5 42t-76.5 11z" />
    <glyph glyph-name="Ugrave" unicode="&#xd9;" horiz-adv-x="589" 
d="M434 683h87v-513q0 -84 -63 -134.5t-163 -50.5q-112 0 -166.5 47.5t-54.5 126.5v463h-42v47q31 17 80 17q19 0 31.5 -6t17 -18t5.5 -20t1 -23v-435q0 -26 4.5 -46t17 -40t39.5 -31t67 -11q84 0 111.5 32t27.5 93v502zM194 831q0 21 13.5 39t23.5 18q3 0 5 -0.5t5.5 -2.5
t6.5 -5t10 -9l14 -12.5l19.5 -17.5l26.5 -23l62 -52l-29 -27q-50 13 -103.5 42t-53.5 50z" />
    <glyph glyph-name="Uacute" unicode="&#xda;" horiz-adv-x="589" 
d="M434 683h87v-513q0 -84 -63 -134.5t-163 -50.5q-112 0 -166.5 47.5t-54.5 126.5v463h-42v47q31 17 80 17q19 0 31.5 -6t17 -18t5.5 -20t1 -23v-435q0 -26 4.5 -46t17 -40t39.5 -31t67 -11q84 0 111.5 32t27.5 93v502zM380 831q0 -21 -53.5 -50t-103.5 -42l-29 27l62 52
l26.5 23l19.5 17.5l14 12.5t10 9t6.5 5t5.5 2.5t5 0.5q10 0 23.5 -18t13.5 -39z" />
    <glyph glyph-name="Ucircumflex" unicode="&#xdb;" horiz-adv-x="589" 
d="M434 683h87v-513q0 -84 -63 -134.5t-163 -50.5q-112 0 -166.5 47.5t-54.5 126.5v463h-42v47q31 17 80 17q19 0 31.5 -6t17 -18t5.5 -20t1 -23v-435q0 -26 4.5 -46t17 -40t39.5 -31t67 -11q84 0 111.5 32t27.5 93v502zM268 880h33l131 -126l-29 -33l-119 74l-118 -74
l-29 33z" />
    <glyph glyph-name="Udieresis" unicode="&#xdc;" horiz-adv-x="589" 
d="M434 683h87v-513q0 -84 -63 -134.5t-163 -50.5q-112 0 -166.5 47.5t-54.5 126.5v463h-42v47q31 17 80 17q19 0 31.5 -6t17 -18t5.5 -20t1 -23v-435q0 -26 4.5 -46t17 -40t39.5 -31t67 -11q84 0 111.5 32t27.5 93v502zM290 776q0 -21 -14 -34.5t-41 -13.5q-24 0 -39 12.5
t-15 35.5q0 49 54 49q25 0 40 -14t15 -35zM433 776q0 -48 -54 -48q-26 0 -40.5 13.5t-14.5 34.5q0 22 14.5 35.5t40.5 13.5q25 0 39.5 -14t14.5 -35z" />
    <glyph glyph-name="Yacute" unicode="&#xdd;" horiz-adv-x="504" 
d="M218 255l-159 364h-48v50q35 17 64 17q46 0 66 -23.5t54 -110.5q28 -73 81 -235l119 366h93l-177 -428v-255h-93v255zM390 831q0 -21 -53.5 -50t-103.5 -42l-29 27l62 52l26.5 23l19.5 17.5l14 12.5t10 9t6.5 5t5.5 2.5t5 0.5q10 0 23.5 -18t13.5 -39z" />
    <glyph glyph-name="Thorn" unicode="&#xde;" horiz-adv-x="515" 
d="M392 346q0 127 -146 127q-41 0 -73 -4v-273q48 -5 78 -5q68 0 104.5 34.5t36.5 120.5zM173 619v-89q46 8 95 8q121 0 169 -52.5t48 -144.5q0 -112 -61.5 -164t-168.5 -52q-19 0 -47.5 3.5t-34.5 6.5v-135h-93v619h-48v50q49 17 86 17q19 0 31.5 -6t17 -18t5.5 -20t1 -23z
" />
    <glyph glyph-name="germandbls" unicode="&#xdf;" horiz-adv-x="513" 
d="M427 574q0 -42 -17.5 -78t-38 -55.5l-38 -35.5t-17.5 -22q0 -5 1 -8.5t4 -8t7 -8.5t12 -11l15.5 -13.5l21.5 -19l27 -23.5q46 -41 60.5 -70.5t14.5 -75.5q0 -59 -40.5 -105.5t-116.5 -46.5q-75 0 -121 32l5 71q48 -42 97 -42q46 0 65.5 27t19.5 68q0 61 -72 115
q-67 49 -81 63t-14 34q0 9 17.5 29t39 42t39 57.5t17.5 70.5q0 84 -78 84q-47 0 -68.5 -38.5t-21.5 -88.5v-517h-86v405h-58v59h58v28q0 104 52.5 159t139.5 55q24 0 48 -5.5t49.5 -19t41.5 -41t16 -66.5z" />
    <glyph glyph-name="agrave" unicode="&#xe0;" horiz-adv-x="459" 
d="M430 65v-45q-27 -24 -73 -24q-25 0 -40 16t-17 32l-2 17q-33 -71 -126 -71q-53 0 -90.5 33t-37.5 102q0 91 49 124t150 33h55v46q0 27 -7.5 43.5t-23.5 23t-27 8t-32 1.5q-23 0 -64.5 -9.5t-67.5 -22.5v83q75 25 163 25q43 0 72.5 -10t44 -23t22 -37.5t8.5 -40t1 -44.5
v-260h43zM298 136v90q-97 -4 -130 -18.5t-33 -68.5q0 -75 77 -75q38 0 62 23t24 49zM133 666q0 24 21 41t34 17q3 0 5 -1t5 -3.5t6 -6t8 -10.5t10.5 -15.5t16 -22l21.5 -27.5l50 -64l-41 -24q-43 21 -89.5 60t-46.5 56z" />
    <glyph glyph-name="aacute" unicode="&#xe1;" horiz-adv-x="459" 
d="M430 65v-45q-27 -24 -73 -24q-25 0 -40 16t-17 32l-2 17q-33 -71 -126 -71q-53 0 -90.5 33t-37.5 102q0 91 49 124t150 33h55v46q0 27 -7.5 43.5t-23.5 23t-27 8t-32 1.5q-23 0 -64.5 -9.5t-67.5 -22.5v83q75 25 163 25q43 0 72.5 -10t44 -23t22 -37.5t8.5 -40t1 -44.5
v-260h43zM298 136v90q-97 -4 -130 -18.5t-33 -68.5q0 -75 77 -75q38 0 62 23t24 49zM327 666q0 -17 -46.5 -56t-89.5 -60l-41 24l50 64l21.5 27.5t16 22t10.5 15.5t8 10.5t6 6t5 3.5t5 1q13 0 34 -17t21 -41z" />
    <glyph glyph-name="acircumflex" unicode="&#xe2;" horiz-adv-x="459" 
d="M430 65v-45q-27 -24 -73 -24q-25 0 -40 16t-17 32l-2 17q-33 -71 -126 -71q-53 0 -90.5 33t-37.5 102q0 91 49 124t150 33h55v46q0 27 -7.5 43.5t-23.5 23t-27 8t-32 1.5q-23 0 -64.5 -9.5t-67.5 -22.5v83q75 25 163 25q43 0 72.5 -10t44 -23t22 -37.5t8.5 -40t1 -44.5
v-260h43zM298 136v90q-97 -4 -130 -18.5t-33 -68.5q0 -75 77 -75q38 0 62 23t24 49zM216 707h42l118 -136l-31 -30l-108 75l-108 -75l-31 30z" />
    <glyph glyph-name="atilde" unicode="&#xe3;" horiz-adv-x="459" 
d="M430 65v-45q-27 -24 -73 -24q-25 0 -40 16t-17 32l-2 17q-33 -71 -126 -71q-53 0 -90.5 33t-37.5 102q0 91 49 124t150 33h55v46q0 27 -7.5 43.5t-23.5 23t-27 8t-32 1.5q-23 0 -64.5 -9.5t-67.5 -22.5v83q75 25 163 25q43 0 72.5 -10t44 -23t22 -37.5t8.5 -40t1 -44.5
v-260h43zM298 136v90q-97 -4 -130 -18.5t-33 -68.5q0 -75 77 -75q38 0 62 23t24 49zM303 616q37 0 51 48l35 -31q-26 -90 -95 -90q-29 0 -73.5 25.5t-69.5 25.5q-37 0 -51 -48l-35 31q26 90 95 90q29 0 77 -25.5t66 -25.5z" />
    <glyph glyph-name="adieresis" unicode="&#xe4;" horiz-adv-x="459" 
d="M430 65v-45q-27 -24 -73 -24q-25 0 -40 16t-17 32l-2 17q-33 -71 -126 -71q-53 0 -90.5 33t-37.5 102q0 91 49 124t150 33h55v46q0 27 -7.5 43.5t-23.5 23t-27 8t-32 1.5q-23 0 -64.5 -9.5t-67.5 -22.5v83q75 25 163 25q43 0 72.5 -10t44 -23t22 -37.5t8.5 -40t1 -44.5
v-260h43zM298 136v90q-97 -4 -130 -18.5t-33 -68.5q0 -75 77 -75q38 0 62 23t24 49zM194 605q0 -23 -17 -40t-40 -17t-40 17t-17 40t17 40t40 17t40 -17t17 -40zM363 605q0 -23 -17 -40t-40 -17t-40 17t-17 40t17 40t40 17t40 -17t17 -40z" />
    <glyph glyph-name="aring" unicode="&#xe5;" horiz-adv-x="459" 
d="M430 65v-45q-27 -24 -73 -24q-25 0 -40 16t-17 32l-2 17q-33 -71 -126 -71q-53 0 -90.5 33t-37.5 102q0 91 49 124t150 33h55v46q0 27 -7.5 43.5t-23.5 23t-27 8t-32 1.5q-23 0 -64.5 -9.5t-67.5 -22.5v83q75 25 163 25q43 0 72.5 -10t44 -23t22 -37.5t8.5 -40t1 -44.5
v-260h43zM298 136v90q-97 -4 -130 -18.5t-33 -68.5q0 -75 77 -75q38 0 62 23t24 49zM341 658q0 -46 -32.5 -79t-79.5 -33q-46 0 -78.5 33t-32.5 79t32.5 78.5t78.5 32.5t79 -32.5t33 -78.5zM282 658q0 22 -15 37.5t-38 15.5q-22 0 -37.5 -15.5t-15.5 -37.5q0 -23 15.5 -38.5
t37.5 -15.5q23 0 38 15.5t15 38.5z" />
    <glyph glyph-name="ae" unicode="&#xe6;" horiz-adv-x="678" 
d="M482 -10q-109 0 -157 89q-51 -89 -162 -89q-53 0 -90.5 32.5t-37.5 101.5q0 91 49 124.5t150 33.5h55v46q0 27 -7.5 43.5t-23.5 23t-27 8t-32 1.5q-23 0 -64.5 -9.5t-67.5 -22.5v83q75 25 163 25q91 0 123 -44q45 44 137 44q150 0 150 -129q0 -67 -45.5 -97t-114.5 -30
q-24 0 -50.5 2t-41.5 4l-14 2q0 -54 11 -89.5t32 -51.5t40.5 -21.5t45.5 -5.5q36 0 66 7.5t42 14.5l12 8l14 -52q-52 -52 -155 -52zM289 136v90q-96 -4 -129.5 -20t-33.5 -70q0 -72 77 -72q38 0 62 23t24 49zM554 351q0 65 -76 65q-36 0 -67 -28t-31 -100q33 -6 92 -6
q82 0 82 69z" />
    <glyph glyph-name="ccedilla" unicode="&#xe7;" horiz-adv-x="416" 
d="M248 407q-25 0 -42 -6t-34 -23.5t-25.5 -55t-8.5 -94.5q0 -164 124 -164q36 0 65 6.5t39 13.5l11 6l14 -52q-45 -45 -135 -48l-11 -43q47 -3 71 -25.5t24 -57.5q0 -60 -51 -88.5t-132 -28.5l-4 38q101 0 101 62q0 22 -17 33t-55 16l28 96q-160 18 -160 236q0 252 212 252
q62 0 122 -27l-16 -80q-29 20 -54.5 27t-65.5 7z" />
    <glyph glyph-name="egrave" unicode="&#xe8;" horiz-adv-x="439" 
d="M315 351q0 65 -76 65q-15 0 -30.5 -5t-33 -17.5t-28.5 -40t-11 -65.5q38 -6 97 -6q82 0 82 69zM243 -10q-197 0 -197 238q0 142 55 197t150 55q150 0 150 -129q0 -67 -45.5 -97t-114.5 -30q-24 0 -50.5 2t-40.5 4l-15 2q0 -54 11 -89.5t32 -51.5t40.5 -21.5t45.5 -5.5
q36 0 66 6.5t42 13.5l12 6l14 -52q-48 -48 -155 -48zM143 666q0 24 21 41t34 17q3 0 5 -1t5 -3.5t6 -6t8 -10.5t10.5 -15.5t16 -22l21.5 -27.5l50 -64l-41 -24q-43 21 -89.5 60t-46.5 56z" />
    <glyph glyph-name="eacute" unicode="&#xe9;" horiz-adv-x="439" 
d="M315 351q0 65 -76 65q-15 0 -30.5 -5t-33 -17.5t-28.5 -40t-11 -65.5q38 -6 97 -6q82 0 82 69zM243 -10q-197 0 -197 238q0 142 55 197t150 55q150 0 150 -129q0 -67 -45.5 -97t-114.5 -30q-24 0 -50.5 2t-40.5 4l-15 2q0 -54 11 -89.5t32 -51.5t40.5 -21.5t45.5 -5.5
q36 0 66 6.5t42 13.5l12 6l14 -52q-48 -48 -155 -48zM364 666q0 -17 -46.5 -56t-89.5 -60l-41 24l50 64l21.5 27.5t16 22t10.5 15.5t8 10.5t6 6t5 3.5t5 1q13 0 34 -17t21 -41z" />
    <glyph glyph-name="ecircumflex" unicode="&#xea;" horiz-adv-x="439" 
d="M315 351q0 65 -76 65q-15 0 -30.5 -5t-33 -17.5t-28.5 -40t-11 -65.5q38 -6 97 -6q82 0 82 69zM243 -10q-197 0 -197 238q0 142 55 197t150 55q150 0 150 -129q0 -67 -45.5 -97t-114.5 -30q-24 0 -50.5 2t-40.5 4l-15 2q0 -54 11 -89.5t32 -51.5t40.5 -21.5t45.5 -5.5
q36 0 66 6.5t42 13.5l12 6l14 -52q-48 -48 -155 -48zM225 707h42l118 -136l-31 -30l-108 75l-108 -75l-31 30z" />
    <glyph glyph-name="edieresis" unicode="&#xeb;" horiz-adv-x="439" 
d="M315 351q0 65 -76 65q-15 0 -30.5 -5t-33 -17.5t-28.5 -40t-11 -65.5q38 -6 97 -6q82 0 82 69zM243 -10q-197 0 -197 238q0 142 55 197t150 55q150 0 150 -129q0 -67 -45.5 -97t-114.5 -30q-24 0 -50.5 2t-40.5 4l-15 2q0 -54 11 -89.5t32 -51.5t40.5 -21.5t45.5 -5.5
q36 0 66 6.5t42 13.5l12 6l14 -52q-48 -48 -155 -48zM214 605q0 -23 -17 -40t-40 -17t-40 17t-17 40t17 40t40 17t40 -17t17 -40zM383 605q0 -23 -17 -40t-40 -17t-40 17t-17 40t17 40t40 17t40 -17t17 -40z" />
    <glyph glyph-name="igrave" unicode="&#xec;" horiz-adv-x="245" 
d="M80 66v334h-49v47q41 23 81 23q19 0 31.5 -6t17 -18.5t5.5 -21t1 -23.5v-334h49v-47q-41 -23 -81 -23q-19 0 -31.5 6t-17 18.5t-5.5 21t-1 23.5zM-1 666q0 24 21 41t34 17q3 0 5 -1t5 -3.5t6 -6t8 -10.5t10.5 -15.5t16 -22l21.5 -27.5l50 -64l-41 -24q-43 21 -89.5 60
t-46.5 56z" />
    <glyph glyph-name="iacute" unicode="&#xed;" horiz-adv-x="245" 
d="M80 66v334h-49v47q41 23 81 23q19 0 31.5 -6t17 -18.5t5.5 -21t1 -23.5v-334h49v-47q-41 -23 -81 -23q-19 0 -31.5 6t-17 18.5t-5.5 21t-1 23.5zM204 666q0 -17 -46.5 -56t-89.5 -60l-41 24l50 64l21.5 27.5t16 22t10.5 15.5t8 10.5t6 6t5 3.5t5 1q13 0 34 -17t21 -41z
" />
    <glyph glyph-name="icircumflex" unicode="&#xee;" horiz-adv-x="245" 
d="M80 66v334h-49v47q41 23 81 23q19 0 31.5 -6t17 -18.5t5.5 -21t1 -23.5v-334h49v-47q-41 -23 -81 -23q-19 0 -31.5 6t-17 18.5t-5.5 21t-1 23.5zM91 707h42l118 -136l-31 -30l-108 75l-108 -75l-31 30z" />
    <glyph glyph-name="idieresis" unicode="&#xef;" horiz-adv-x="245" 
d="M80 66v334h-49v47q41 23 81 23q19 0 31.5 -6t17 -18.5t5.5 -21t1 -23.5v-334h49v-47q-41 -23 -81 -23q-19 0 -31.5 6t-17 18.5t-5.5 21t-1 23.5zM93 605q0 -23 -17 -40t-40 -17t-40 17t-17 40t17 40t40 17t40 -17t17 -40zM262 605q0 -23 -17 -40t-40 -17t-40 17t-17 40
t17 40t40 17t40 -17t17 -40z" />
    <glyph glyph-name="eth" unicode="&#xf0;" horiz-adv-x="492" 
d="M385 685l-55 -40q62 -59 87.5 -137t25.5 -188q0 -163 -45 -246.5t-152 -83.5q-41 0 -73.5 10.5t-61.5 35.5t-45 75t-16 122q0 63 13 109.5t32.5 72t48 41t53.5 20t56 4.5q54 0 93 -21q-19 86 -80 142l-69 -50l-32 36l66 48q-50 44 -112 64l51 37q26 -6 63.5 -22.5
t61.5 -35.5l59 43zM361 257q0 57 -5 134q-32 32 -103 32q-18 0 -29.5 -2t-29.5 -12t-29 -29t-19 -56.5t-8 -90.5q0 -104 29 -142.5t81 -38.5q113 0 113 205z" />
    <glyph glyph-name="ntilde" unicode="&#xf1;" horiz-adv-x="510" 
d="M432 330v-263h49v-47q-41 -23 -81 -23q-19 0 -31.5 6t-17 18.5t-5.5 21t-1 23.5v242q0 91 -89 91q-36 0 -62.5 -23.5t-26.5 -67.5v-308h-87v400h-49v47q33 23 75 23q24 0 38 -17t16 -35l1 -17q38 79 144 79q21 0 40 -5.5t40.5 -20t34 -46.5t12.5 -78zM330 616q37 0 51 48
l35 -31q-26 -90 -95 -90q-29 0 -73.5 25.5t-69.5 25.5q-37 0 -51 -48l-35 31q26 90 95 90q29 0 77 -25.5t66 -25.5z" />
    <glyph glyph-name="ograve" unicode="&#xf2;" horiz-adv-x="500" 
d="M454 238q0 -127 -57 -187.5t-147 -60.5q-101 0 -152.5 57t-51.5 191q0 66 15 113.5t35.5 71.5t51.5 37.5t52.5 16.5t49.5 3q31 0 54 -3t53.5 -17t49.5 -38t33 -71.5t14 -112.5zM365 238q0 61 -8.5 99.5t-26.5 55t-35 21t-45 4.5q-44 0 -66.5 -12t-35.5 -51.5t-13 -116.5
q0 -102 26 -144t89 -42q62 0 88.5 41t26.5 145zM153 666q0 24 21 41t34 17q3 0 5 -1t5 -3.5t6 -6t8 -10.5t10.5 -15.5t16 -22l21.5 -27.5l50 -64l-41 -24q-43 21 -89.5 60t-46.5 56z" />
    <glyph glyph-name="oacute" unicode="&#xf3;" horiz-adv-x="500" 
d="M454 238q0 -127 -57 -187.5t-147 -60.5q-101 0 -152.5 57t-51.5 191q0 66 15 113.5t35.5 71.5t51.5 37.5t52.5 16.5t49.5 3q31 0 54 -3t53.5 -17t49.5 -38t33 -71.5t14 -112.5zM365 238q0 61 -8.5 99.5t-26.5 55t-35 21t-45 4.5q-44 0 -66.5 -12t-35.5 -51.5t-13 -116.5
q0 -102 26 -144t89 -42q62 0 88.5 41t26.5 145zM379 666q0 -17 -46.5 -56t-89.5 -60l-41 24l50 64l21.5 27.5t16 22t10.5 15.5t8 10.5t6 6t5 3.5t5 1q13 0 34 -17t21 -41z" />
    <glyph glyph-name="ocircumflex" unicode="&#xf4;" horiz-adv-x="500" 
d="M454 238q0 -127 -57 -187.5t-147 -60.5q-101 0 -152.5 57t-51.5 191q0 66 15 113.5t35.5 71.5t51.5 37.5t52.5 16.5t49.5 3q31 0 54 -3t53.5 -17t49.5 -38t33 -71.5t14 -112.5zM365 238q0 61 -8.5 99.5t-26.5 55t-35 21t-45 4.5q-44 0 -66.5 -12t-35.5 -51.5t-13 -116.5
q0 -102 26 -144t89 -42q62 0 88.5 41t26.5 145zM228 707h42l118 -136l-31 -30l-108 75l-108 -75l-31 30z" />
    <glyph glyph-name="otilde" unicode="&#xf5;" horiz-adv-x="500" 
d="M454 238q0 -127 -57 -187.5t-147 -60.5q-101 0 -152.5 57t-51.5 191q0 66 15 113.5t35.5 71.5t51.5 37.5t52.5 16.5t49.5 3q31 0 54 -3t53.5 -17t49.5 -38t33 -71.5t14 -112.5zM365 238q0 61 -8.5 99.5t-26.5 55t-35 21t-45 4.5q-44 0 -66.5 -12t-35.5 -51.5t-13 -116.5
q0 -102 26 -144t89 -42q62 0 88.5 41t26.5 145zM340 616q37 0 51 48l35 -31q-26 -90 -95 -90q-29 0 -73.5 25.5t-69.5 25.5q-37 0 -51 -48l-35 31q26 90 95 90q29 0 77 -25.5t66 -25.5z" />
    <glyph glyph-name="odieresis" unicode="&#xf6;" horiz-adv-x="500" 
d="M454 238q0 -127 -57 -187.5t-147 -60.5q-101 0 -152.5 57t-51.5 191q0 66 15 113.5t35.5 71.5t51.5 37.5t52.5 16.5t49.5 3q31 0 54 -3t53.5 -17t49.5 -38t33 -71.5t14 -112.5zM365 238q0 61 -8.5 99.5t-26.5 55t-35 21t-45 4.5q-44 0 -66.5 -12t-35.5 -51.5t-13 -116.5
q0 -102 26 -144t89 -42q62 0 88.5 41t26.5 145zM220 605q0 -23 -17 -40t-40 -17t-40 17t-17 40t17 40t40 17t40 -17t17 -40zM389 605q0 -23 -17 -40t-40 -17t-40 17t-17 40t17 40t40 17t40 -17t17 -40z" />
    <glyph glyph-name="divide" unicode="&#xf7;" horiz-adv-x="589" 
d="M49 278v67h501v-67h-501zM359 126q0 -27 -16.5 -43t-43.5 -16t-43 17t-16 42q0 29 16.5 44.5t42.5 15.5t43 -15.5t17 -44.5zM359 496q0 -27 -16.5 -43t-43.5 -16t-43 17t-16 42q0 29 16.5 44.5t42.5 15.5t43 -15.5t17 -44.5z" />
    <glyph glyph-name="oslash" unicode="&#xf8;" horiz-adv-x="500" 
d="M447 232q0 -127 -56.5 -187.5t-146.5 -60.5q-97 0 -146 50l-25 -28l-44 29l38 44q-26 58 -26 153q0 66 15 114t35.5 73t50.5 39.5t52.5 18t49.5 3.5q89 0 136 -41l27 31l44 -29l-38 -44q34 -61 34 -165zM359 232q0 54 -8 94l-200 -231q26 -49 93 -49q62 0 88.5 41
t26.5 145zM129 232q0 -48 4 -77l197 226q-24 37 -86 37q-64 0 -89.5 -36.5t-25.5 -149.5z" />
    <glyph glyph-name="ugrave" unicode="&#xf9;" horiz-adv-x="510" 
d="M350 64v21q-51 -93 -152 -93q-24 0 -42 4.5t-37 17t-29 41t-10 71.5v274h-49v47q43 23 81 23q19 0 31.5 -6t17 -18.5t5.5 -21t1 -23.5v-243q0 -49 16.5 -69.5t57.5 -20.5q43 0 73.5 27t30.5 65v308h87v-401h49v-47q-41 -23 -81 -23q-18 0 -29 6t-15 18t-5 20t-1 23z
M141 666q0 24 21 41t34 17q3 0 5 -1t5 -3.5t6 -6t8 -10.5t10.5 -15.5t16 -22l21.5 -27.5l50 -64l-41 -24q-43 21 -89.5 60t-46.5 56z" />
    <glyph glyph-name="uacute" unicode="&#xfa;" horiz-adv-x="510" 
d="M350 64v21q-51 -93 -152 -93q-24 0 -42 4.5t-37 17t-29 41t-10 71.5v274h-49v47q43 23 81 23q19 0 31.5 -6t17 -18.5t5.5 -21t1 -23.5v-243q0 -49 16.5 -69.5t57.5 -20.5q43 0 73.5 27t30.5 65v308h87v-401h49v-47q-41 -23 -81 -23q-18 0 -29 6t-15 18t-5 20t-1 23z
M373 666q0 -17 -46.5 -56t-89.5 -60l-41 24l50 64l21.5 27.5t16 22t10.5 15.5t8 10.5t6 6t5 3.5t5 1q13 0 34 -17t21 -41z" />
    <glyph glyph-name="ucircumflex" unicode="&#xfb;" horiz-adv-x="510" 
d="M350 64v21q-51 -93 -152 -93q-24 0 -42 4.5t-37 17t-29 41t-10 71.5v274h-49v47q43 23 81 23q19 0 31.5 -6t17 -18.5t5.5 -21t1 -23.5v-243q0 -49 16.5 -69.5t57.5 -20.5q43 0 73.5 27t30.5 65v308h87v-401h49v-47q-41 -23 -81 -23q-18 0 -29 6t-15 18t-5 20t-1 23z
M241 707h42l118 -136l-31 -30l-108 75l-108 -75l-31 30z" />
    <glyph glyph-name="udieresis" unicode="&#xfc;" horiz-adv-x="510" 
d="M350 64v21q-51 -93 -152 -93q-24 0 -42 4.5t-37 17t-29 41t-10 71.5v274h-49v47q43 23 81 23q19 0 31.5 -6t17 -18.5t5.5 -21t1 -23.5v-243q0 -49 16.5 -69.5t57.5 -20.5q43 0 73.5 27t30.5 65v308h87v-401h49v-47q-41 -23 -81 -23q-18 0 -29 6t-15 18t-5 20t-1 23z
M224 605q0 -23 -17 -40t-40 -17t-40 17t-17 40t17 40t40 17t40 -17t17 -40zM393 605q0 -23 -17 -40t-40 -17t-40 17t-17 40t17 40t40 17t40 -17t17 -40z" />
    <glyph glyph-name="yacute" unicode="&#xfd;" horiz-adv-x="463" 
d="M60 400h-49v47q33 23 76 23q15 0 27 -5t23 -19.5t19 -27.5t18.5 -42t17 -49.5l19.5 -62.5q42 -137 59 -209q48 149 99 413h84q-70 -273 -127 -428t-98 -208t-87 -53q-23 0 -36 10v78q62 0 86.5 17t24.5 61q0 35 -18 87l-22.5 65l-20.5 60.5l-18 51.5l-17 47.5l-14 39.5
t-13.5 36l-11.5 27.5t-11 24t-10 16.5zM364 666q0 -17 -46.5 -56t-89.5 -60l-41 24l50 64l21.5 27.5t16 22t10.5 15.5t8 10.5t6 6t5 3.5t5 1q13 0 34 -17t21 -41z" />
    <glyph glyph-name="thorn" unicode="&#xfe;" horiz-adv-x="492" 
d="M357 236q0 86 -22 126t-79 40q-28 0 -47 -8.5t-27.5 -24t-11.5 -30t-3 -33.5v-238q28 -17 78 -17q52 0 82 39t30 146zM167 616v-205q4 7 11.5 17.5t38.5 28t71 17.5q83 0 120.5 -57t37.5 -173q0 -254 -180 -254q-66 0 -99 22v-229h-87v830h-49v47q33 23 75 23
q61 0 61 -67z" />
    <glyph glyph-name="ydieresis" unicode="&#xff;" horiz-adv-x="463" 
d="M60 400h-49v47q33 23 76 23q15 0 27 -5t23 -19.5t19 -27.5t18.5 -42t17 -49.5l19.5 -62.5q42 -137 59 -209q48 149 99 413h84q-70 -273 -127 -428t-98 -208t-87 -53q-23 0 -36 10v78q62 0 86.5 17t24.5 61q0 35 -18 87l-22.5 65l-20.5 60.5l-18 51.5l-17 47.5l-14 39.5
t-13.5 36l-11.5 27.5t-11 24t-10 16.5zM211 605q0 -23 -17 -40t-40 -17t-40 17t-17 40t17 40t40 17t40 -17t17 -40zM380 605q0 -23 -17 -40t-40 -17t-40 17t-17 40t17 40t40 17t40 -17t17 -40z" />
    <glyph glyph-name="Amacron" unicode="&#x100;" horiz-adv-x="563" 
d="M159 216h208l-95 371zM236 683h99l155 -551q13 -48 23 -59.5t36 -11.5v-47q-31 -17 -69 -17q-36 0 -54 29t-42 126h-242l-41 -152h-92zM419 751h-274v64h274v-64z" />
    <glyph glyph-name="amacron" unicode="&#x101;" horiz-adv-x="459" 
d="M430 65v-45q-27 -24 -73 -24q-25 0 -40 16t-17 32l-2 17q-33 -71 -126 -71q-53 0 -90.5 33t-37.5 102q0 91 49 124t150 33h55v46q0 27 -7.5 43.5t-23.5 23t-27 8t-32 1.5q-23 0 -64.5 -9.5t-67.5 -22.5v83q75 25 163 25q43 0 72.5 -10t44 -23t22 -37.5t8.5 -40t1 -44.5
v-260h43zM298 136v90q-97 -4 -130 -18.5t-33 -68.5q0 -75 77 -75q38 0 62 23t24 49zM365 558h-274v64h274v-64z" />
    <glyph glyph-name="Abreve" unicode="&#x102;" horiz-adv-x="563" 
d="M159 216h208l-95 371zM236 683h99l155 -551q13 -48 23 -59.5t36 -11.5v-47q-31 -17 -69 -17q-36 0 -54 29t-42 126h-242l-41 -152h-92zM277 816q41 0 61.5 13t30.5 42h55q-6 -61 -48 -94.5t-99 -33.5q-58 0 -101.5 33t-44.5 95h54q19 -55 92 -55z" />
    <glyph glyph-name="abreve" unicode="&#x103;" horiz-adv-x="459" 
d="M430 65v-45q-27 -24 -73 -24q-25 0 -40 16t-17 32l-2 17q-33 -71 -126 -71q-53 0 -90.5 33t-37.5 102q0 91 49 124t150 33h55v46q0 27 -7.5 43.5t-23.5 23t-27 8t-32 1.5q-23 0 -64.5 -9.5t-67.5 -22.5v83q75 25 163 25q43 0 72.5 -10t44 -23t22 -37.5t8.5 -40t1 -44.5
v-260h43zM298 136v90q-97 -4 -130 -18.5t-33 -68.5q0 -75 77 -75q38 0 62 23t24 49zM223 590q63 0 76 61h52q-13 -126 -129 -126q-126 0 -129 126h52q16 -61 78 -61z" />
    <glyph glyph-name="Aogonek" unicode="&#x104;" horiz-adv-x="563" 
d="M552 -124l-2 -38q-45 -38 -103 -38q-36 0 -56 18.5t-20 53.5q0 73 83 129q-22 7 -36.5 39.5t-33.5 111.5h-242l-41 -152h-92l227 683h99l155 -551q13 -48 23 -59.5t36 -11.5v-47q-21 -11 -41 -14q-66 -47 -66 -100q0 -43 46 -43q34 0 64 19zM159 216h208l-95 371z" />
    <glyph glyph-name="aogonek" unicode="&#x105;" horiz-adv-x="459" 
d="M433 -124l-2 -38q-45 -38 -103 -38q-36 0 -56 18.5t-20 53.5q0 71 82 128q-16 7 -25 22t-10 27l-1 12q-33 -71 -126 -71q-53 0 -90.5 33t-37.5 102q0 91 49 124t150 33h55v46q0 27 -7.5 43.5t-23.5 23t-27 8t-32 1.5q-23 0 -64.5 -9.5t-67.5 -22.5v83q75 25 163 25
q43 0 72.5 -10t44 -23t22 -37.5t8.5 -40t1 -44.5v-260h43v-45q-16 -13 -40 -20q-67 -48 -67 -100q0 -43 46 -43q34 0 64 19zM298 136v90q-97 -4 -130 -18.5t-33 -68.5q0 -75 77 -75q38 0 62 23t24 49z" />
    <glyph glyph-name="Cacute" unicode="&#x106;" horiz-adv-x="560" 
d="M342 619q-41 0 -69 -6.5t-54 -25t-40.5 -52t-23 -89t-8.5 -134.5q0 -247 190 -247q42 0 84.5 15.5t64.5 31.5l21 15l16 -63l-8.5 -8.5t-25.5 -19t-42 -24t-57 -19t-73 -8.5q-46 0 -81.5 7t-73 29.5t-61.5 60t-39.5 103.5t-15.5 156q0 66 11.5 119.5t29 88.5t43.5 61.5
t51 40.5t55 22.5t52 11t45 2.5q72 0 127 -17t55 -57q0 -55 -19 -107h-68v101q-31 12 -86 12zM419 831q0 -21 -53.5 -50t-103.5 -42l-29 27l62 52l26.5 23l19.5 17.5l14 12.5t10 9t6.5 5t5.5 2.5t5 0.5q10 0 23.5 -18t13.5 -39z" />
    <glyph glyph-name="cacute" unicode="&#x107;" horiz-adv-x="412" 
d="M244 407q-25 0 -42 -6t-34 -23.5t-25.5 -55t-8.5 -94.5q0 -164 124 -164q36 0 65 6.5t39 13.5l11 6l14 -52q-48 -48 -147 -48q-98 0 -146 58t-48 180q0 252 212 252q62 0 122 -27l-16 -80q-29 20 -54.5 27t-65.5 7zM354 666q0 -17 -46.5 -56t-89.5 -60l-41 24l50 64
l21.5 27.5t16 22t10.5 15.5t8 10.5t6 6t5 3.5t5 1q13 0 34 -17t21 -41z" />
    <glyph glyph-name="Cdotaccent" unicode="&#x10a;" horiz-adv-x="560" 
d="M342 619q-41 0 -69 -6.5t-54 -25t-40.5 -52t-23 -89t-8.5 -134.5q0 -247 190 -247q42 0 84.5 15.5t64.5 31.5l21 15l16 -63l-8.5 -8.5t-25.5 -19t-42 -24t-57 -19t-73 -8.5q-46 0 -81.5 7t-73 29.5t-61.5 60t-39.5 103.5t-15.5 156q0 66 11.5 119.5t29 88.5t43.5 61.5
t51 40.5t55 22.5t52 11t45 2.5q72 0 127 -17t55 -57q0 -55 -19 -107h-68v101q-31 12 -86 12zM375 776q0 -22 -15 -36.5t-44 -14.5q-25 0 -41.5 13.5t-16.5 37.5q0 53 58 53q27 0 43 -15t16 -38z" />
    <glyph glyph-name="cdotaccent" unicode="&#x10b;" horiz-adv-x="412" 
d="M244 407q-25 0 -42 -6t-34 -23.5t-25.5 -55t-8.5 -94.5q0 -164 124 -164q36 0 65 6.5t39 13.5l11 6l14 -52q-48 -48 -147 -48q-98 0 -146 58t-48 180q0 252 212 252q62 0 122 -27l-16 -80q-29 20 -54.5 27t-65.5 7zM306 605q0 -23 -17 -40t-40 -17t-40 17t-17 40t17 40
t40 17t40 -17t17 -40z" />
    <glyph glyph-name="Ccaron" unicode="&#x10c;" horiz-adv-x="560" 
d="M342 619q-41 0 -69 -6.5t-54 -25t-40.5 -52t-23 -89t-8.5 -134.5q0 -247 190 -247q42 0 84.5 15.5t64.5 31.5l21 15l16 -63l-8.5 -8.5t-25.5 -19t-42 -24t-57 -19t-73 -8.5q-46 0 -81.5 7t-73 29.5t-61.5 60t-39.5 103.5t-15.5 156q0 66 11.5 119.5t29 88.5t43.5 61.5
t51 40.5t55 22.5t52 11t45 2.5q72 0 127 -17t55 -57q0 -55 -19 -107h-68v101q-31 12 -86 12zM326 721h-33l-131 126l29 33l118 -74l119 74l29 -33z" />
    <glyph glyph-name="ccaron" unicode="&#x10d;" horiz-adv-x="412" 
d="M244 407q-25 0 -42 -6t-34 -23.5t-25.5 -55t-8.5 -94.5q0 -164 124 -164q36 0 65 6.5t39 13.5l11 6l14 -52q-48 -48 -147 -48q-98 0 -146 58t-48 180q0 252 212 252q62 0 122 -27l-16 -80q-29 20 -54.5 27t-65.5 7zM260 545h-42l-115 136l28 26l108 -75l108 75l28 -26z
" />
    <glyph glyph-name="Dcaron" unicode="&#x10e;" horiz-adv-x="633" 
d="M592 378q0 -187 -96.5 -290t-258.5 -103q-157 0 -157 128v506h-48v50q47 18 264 18q67 0 117.5 -14t92.5 -47t64 -95.5t22 -152.5zM491 346q0 82 -14 137t-43 85t-68 42t-96 12q-60 0 -97 -3v-494q0 -71 84 -71q118 0 176 82t58 210zM296 721h-33l-131 126l29 33l118 -74
l119 74l29 -33z" />
    <glyph glyph-name="dcaron" unicode="&#x10f;" horiz-adv-x="565" 
d="M561 610q0 -101 -66 -156l-24 18q18 30 18 91q0 51 -35 85q12 12 31.5 21.5t27.5 9.5q22 0 35 -20.5t13 -48.5zM324 174v223q-30 16 -78 16q-68 0 -93.5 -41.5t-25.5 -135.5q0 -174 101 -174q96 0 96 112zM213 -6q-37 0 -65 9t-54.5 32.5t-40.5 72.5t-14 122
q0 123 45 183.5t144 60.5q32 0 56 -4.5t32 -9.5l8 -4v163h-42v47q31 17 74 17q19 0 31.5 -6t17 -18t5.5 -20t1 -23v-554h43v-42q-27 -24 -73 -24q-44 0 -48 60q-18 -27 -52 -44.5t-68 -17.5z" />
    <glyph glyph-name="Dcroat" unicode="&#x110;" horiz-adv-x="633" 
d="M592 378q0 -187 -96.5 -290t-258.5 -103q-157 0 -157 128v202h-48v68h48v236h-48v50q47 18 264 18q67 0 117.5 -14t92.5 -47t64 -95.5t22 -152.5zM491 346q0 82 -14 137t-43 85t-68 42t-96 12q-60 0 -97 -3v-236h118v-68h-118v-190q0 -71 84 -71q118 0 176 82t58 210z
" />
    <glyph glyph-name="dcroat" unicode="&#x111;" horiz-adv-x="478" 
d="M309 521l-169 -4l7 59q48 0 162 -2h15v39h-49v47q33 23 75 23q61 0 61 -67v-44h46l-7 -50l-39 -1v-459h43v-42q-27 -24 -73 -24q-44 0 -48 60q-18 -27 -52 -44.5t-68 -17.5q-37 0 -65 9t-54.5 32.5t-40.5 72.5t-14 122q0 111 55.5 166.5t133.5 55.5q32 0 56 -4.5t32 -9.5
l8 -4v87h-15zM324 174v201q-30 16 -78 16q-31 0 -54 -11.5t-35 -28t-19 -42.5t-9 -47.5t-2 -50.5q0 -149 101 -149q96 0 96 112z" />
    <glyph glyph-name="Emacron" unicode="&#x112;" horiz-adv-x="495" 
d="M431 685l-8 -76l-249 9v-232l197 9l-7 -70l-190 7v-191q0 -43 25.5 -56t115.5 -13q87 0 157 16l-7 -63q-71 -28 -169 -28q-106 0 -161 23t-55 89v510h-48v51q118 16 258 16q18 0 66 -0.5t75 -0.5zM396 751h-274v64h274v-64z" />
    <glyph glyph-name="emacron" unicode="&#x113;" horiz-adv-x="439" 
d="M315 351q0 65 -76 65q-15 0 -30.5 -5t-33 -17.5t-28.5 -40t-11 -65.5q38 -6 97 -6q82 0 82 69zM243 -10q-197 0 -197 238q0 142 55 197t150 55q150 0 150 -129q0 -67 -45.5 -97t-114.5 -30q-24 0 -50.5 2t-40.5 4l-15 2q0 -54 11 -89.5t32 -51.5t40.5 -21.5t45.5 -5.5
q36 0 66 6.5t42 13.5l12 6l14 -52q-48 -48 -155 -48zM371 558h-274v64h274v-64z" />
    <glyph glyph-name="Edotaccent" unicode="&#x116;" horiz-adv-x="495" 
d="M431 685l-8 -76l-249 9v-232l197 9l-7 -70l-190 7v-191q0 -43 25.5 -56t115.5 -13q87 0 157 16l-7 -63q-71 -28 -169 -28q-106 0 -161 23t-55 89v510h-48v51q118 16 258 16q18 0 66 -0.5t75 -0.5zM291 776q0 -22 -15 -36.5t-44 -14.5q-25 0 -41.5 13.5t-16.5 37.5
q0 53 58 53q27 0 43 -15t16 -38z" />
    <glyph glyph-name="edotaccent" unicode="&#x117;" horiz-adv-x="439" 
d="M315 351q0 65 -76 65q-15 0 -30.5 -5t-33 -17.5t-28.5 -40t-11 -65.5q38 -6 97 -6q82 0 82 69zM243 -10q-197 0 -197 238q0 142 55 197t150 55q150 0 150 -129q0 -67 -45.5 -97t-114.5 -30q-24 0 -50.5 2t-40.5 4l-15 2q0 -54 11 -89.5t32 -51.5t40.5 -21.5t45.5 -5.5
q36 0 66 6.5t42 13.5l12 6l14 -52q-48 -48 -155 -48zM302 605q0 -23 -17 -40t-40 -17t-40 17t-17 40t17 40t40 17t40 -17t17 -40z" />
    <glyph glyph-name="Eogonek" unicode="&#x118;" horiz-adv-x="495" 
d="M451 -124l-2 -38q-45 -38 -103 -38q-36 0 -56 18.5t-20 53.5q0 71 82 128q-27 -3 -56 -3q-106 0 -161 23t-55 89v510h-48v51q118 16 258 16q18 0 66 -0.5t75 -0.5l-8 -76l-249 9v-232l197 9l-7 -70l-190 7v-191q0 -43 25.5 -56t115.5 -13q87 0 157 16l-7 -63
q-19 -8 -38 -12q-86 -51 -86 -113q0 -43 46 -43q34 0 64 19z" />
    <glyph glyph-name="eogonek" unicode="&#x119;" horiz-adv-x="443" 
d="M379 -124l-2 -38q-45 -38 -103 -38q-36 0 -56 18.5t-20 53.5q0 63 69 119q-7 -1 -20 -1q-197 0 -197 238q0 142 55 197t150 55q150 0 150 -129q0 -67 -45.5 -97t-114.5 -30q-24 0 -50.5 2t-40.5 4l-15 2q0 -54 11 -89.5t32 -51.5t40.5 -21.5t45.5 -5.5q36 0 66 6.5
t42 13.5l12 6l14 -52q-21 -21 -62 -35q-71 -47 -71 -103q0 -43 46 -43q34 0 64 19zM319 351q0 65 -76 65q-15 0 -30.5 -5t-33 -17.5t-28.5 -40t-11 -65.5q38 -6 97 -6q82 0 82 69z" />
    <glyph glyph-name="Ecaron" unicode="&#x11a;" horiz-adv-x="495" 
d="M431 685l-8 -76l-249 9v-232l197 9l-7 -70l-190 7v-191q0 -43 25.5 -56t115.5 -13q87 0 157 16l-7 -63q-71 -28 -169 -28q-106 0 -161 23t-55 89v510h-48v51q118 16 258 16q18 0 66 -0.5t75 -0.5zM260 721h-33l-131 126l29 33l118 -74l119 74l29 -33z" />
    <glyph glyph-name="ecaron" unicode="&#x11b;" horiz-adv-x="439" 
d="M315 351q0 65 -76 65q-15 0 -30.5 -5t-33 -17.5t-28.5 -40t-11 -65.5q38 -6 97 -6q82 0 82 69zM243 -10q-197 0 -197 238q0 142 55 197t150 55q150 0 150 -129q0 -67 -45.5 -97t-114.5 -30q-24 0 -50.5 2t-40.5 4l-15 2q0 -54 11 -89.5t32 -51.5t40.5 -21.5t45.5 -5.5
q36 0 66 6.5t42 13.5l12 6l14 -52q-48 -48 -155 -48zM256 545h-42l-115 136l28 26l108 -75l108 75l28 -26z" />
    <glyph glyph-name="Gbreve" unicode="&#x11e;" horiz-adv-x="581" 
d="M333 687q68 0 125 -17.5t57 -56.5q0 -55 -19 -107h-68v101q-31 12 -86 12q-29 0 -43.5 -1t-39 -6.5t-37.5 -16.5t-29.5 -33.5t-25 -54.5t-14.5 -81.5t-6 -113.5q0 -75 13.5 -127t38.5 -79t54.5 -38.5t67.5 -11.5q83 0 116 16v205h-58v50q58 17 96 17q20 0 32 -4.5
t16.5 -15t5.5 -17.5t1 -21v-232q-87 -69 -213 -69q-133 0 -202 81.5t-69 274.5q0 66 11.5 119.5t29 88.5t43.5 61.5t51 40.5t55 22.5t52 11t45 2.5zM306 816q41 0 61.5 13t30.5 42h55q-6 -61 -48 -94.5t-99 -33.5q-58 0 -101.5 33t-44.5 95h54q19 -55 92 -55z" />
    <glyph glyph-name="gbreve" unicode="&#x11f;" horiz-adv-x="479" 
d="M418 -8v474q-101 8 -153 8q-111 0 -165 -60t-54 -200q0 -220 161 -220q44 0 71.5 13t52.5 47v-66q0 -67 -26.5 -94.5t-82.5 -27.5q-86 0 -133 23l-7 -68q58 -28 156 -28q85 0 132.5 52.5t47.5 146.5zM331 410v-252q0 -43 -24 -69.5t-72 -26.5q-24 0 -39 5t-31 21.5
t-23.5 53t-7.5 94.5q0 88 31 132.5t88 44.5zM262 590q63 0 76 61h52q-13 -126 -129 -126q-126 0 -129 126h52q16 -61 78 -61z" />
    <glyph glyph-name="Gdotaccent" unicode="&#x120;" horiz-adv-x="581" 
d="M333 687q68 0 125 -17.5t57 -56.5q0 -55 -19 -107h-68v101q-31 12 -86 12q-29 0 -43.5 -1t-39 -6.5t-37.5 -16.5t-29.5 -33.5t-25 -54.5t-14.5 -81.5t-6 -113.5q0 -75 13.5 -127t38.5 -79t54.5 -38.5t67.5 -11.5q83 0 116 16v205h-58v50q58 17 96 17q20 0 32 -4.5
t16.5 -15t5.5 -17.5t1 -21v-232q-87 -69 -213 -69q-133 0 -202 81.5t-69 274.5q0 66 11.5 119.5t29 88.5t43.5 61.5t51 40.5t55 22.5t52 11t45 2.5zM379 776q0 -22 -15 -36.5t-44 -14.5q-25 0 -41.5 13.5t-16.5 37.5q0 53 58 53q27 0 43 -15t16 -38z" />
    <glyph glyph-name="gdotaccent" unicode="&#x121;" horiz-adv-x="479" 
d="M418 -8v474q-101 8 -153 8q-111 0 -165 -60t-54 -200q0 -220 161 -220q44 0 71.5 13t52.5 47v-66q0 -67 -26.5 -94.5t-82.5 -27.5q-86 0 -133 23l-7 -68q58 -28 156 -28q85 0 132.5 52.5t47.5 146.5zM331 410v-252q0 -43 -24 -69.5t-72 -26.5q-24 0 -39 5t-31 21.5
t-23.5 53t-7.5 94.5q0 88 31 132.5t88 44.5zM326 605q0 -23 -17 -40t-40 -17t-40 17t-17 40t17 40t40 17t40 -17t17 -40z" />
    <glyph glyph-name="Gcommaaccent" unicode="&#x122;" horiz-adv-x="581" 
d="M333 687q68 0 125 -17.5t57 -56.5q0 -55 -19 -107h-68v101q-31 12 -86 12q-29 0 -43.5 -1t-39 -6.5t-37.5 -16.5t-29.5 -33.5t-25 -54.5t-14.5 -81.5t-6 -113.5q0 -75 13.5 -127t38.5 -79t54.5 -38.5t67.5 -11.5q83 0 116 16v205h-58v50q58 17 96 17q20 0 32 -4.5
t16.5 -15t5.5 -17.5t1 -21v-232q-87 -69 -213 -69q-133 0 -202 81.5t-69 274.5q0 66 11.5 119.5t29 88.5t43.5 61.5t51 40.5t55 22.5t52 11t45 2.5zM353 -109q0 -37 -23.5 -79.5t-72.5 -77.5l-25 27q29 36 29 75q0 41 -38 65q24 53 77 53q25 0 39 -13t14 -50z" />
    <glyph glyph-name="gcommaaccent" unicode="&#x123;" horiz-adv-x="479" 
d="M418 -8v474q-101 8 -153 8q-111 0 -165 -60t-54 -200q0 -220 161 -220q44 0 71.5 13t52.5 47v-66q0 -67 -26.5 -94.5t-82.5 -27.5q-86 0 -133 23l-7 -68q58 -28 156 -28q85 0 132.5 52.5t47.5 146.5zM331 410v-252q0 -43 -24 -69.5t-72 -26.5q-24 0 -39 5t-31 21.5
t-23.5 53t-7.5 94.5q0 88 31 132.5t88 44.5zM202 577q0 37 23.5 79.5t72.5 77.5l25 -27q-29 -36 -29 -75q0 -41 38 -65q-24 -53 -77 -53q-25 0 -39 13t-14 50z" />
    <glyph glyph-name="Hbar" unicode="&#x126;" horiz-adv-x="617" 
d="M575 483h-49v-419h48v-50q-49 -17 -86 -17q-19 0 -31.5 6t-17 18t-5.5 20t-1 23v254h-260v-318h-93v483h-48v68h48v68h-48v50q49 17 86 17q19 0 31.5 -6t17 -18t5.5 -20t1 -23v-68h260v132h93v-132h49v-68zM173 386h260v97h-260v-97z" />
    <glyph glyph-name="hbar" unicode="&#x127;" horiz-adv-x="510" 
d="M167 519v-130q39 74 138 74q21 0 40 -5.5t40.5 -20t34 -46.5t12.5 -78v-246h49v-47q-41 -23 -81 -23q-19 0 -31.5 6t-17 18.5t-5.5 21t-1 23.5v225q0 91 -89 91q-36 0 -62.5 -23.5t-26.5 -67.5v-291h-87v519l-61 2l7 50l54 1v41h-49v47q33 23 75 23q61 0 61 -67v-44
l169 4l-7 -59q-22 0 -162 2z" />
    <glyph glyph-name="Imacron" unicode="&#x12a;" horiz-adv-x="216" 
d="M80 0v619h-48v50q49 17 86 17q19 0 31.5 -6t17 -18t5.5 -20t1 -23v-619h-93zM250 751h-274v64h274v-64z" />
    <glyph glyph-name="imacron" unicode="&#x12b;" horiz-adv-x="245" 
d="M80 66v334h-49v47q41 23 81 23q19 0 31.5 -6t17 -18.5t5.5 -21t1 -23.5v-334h49v-47q-41 -23 -81 -23q-19 0 -31.5 6t-17 18.5t-5.5 21t-1 23.5zM260 558h-274v64h274v-64z" />
    <glyph glyph-name="Iogonek" unicode="&#x12e;" horiz-adv-x="248" 
d="M80 0v619h-48v50q49 17 86 17q19 0 31.5 -6t17 -18t5.5 -20t1 -23v-619h-9q-66 -47 -66 -100q0 -43 46 -43q34 0 64 19l-2 -38q-45 -38 -103 -38q-36 0 -56 18.5t-20 53.5q0 71 82 128h-29z" />
    <glyph glyph-name="iogonek" unicode="&#x12f;" horiz-adv-x="245" 
d="M223 -124l-2 -38q-45 -38 -103 -38q-36 0 -56 18.5t-20 53.5q0 70 79 126q-15 2 -24 9t-12 18.5t-4 19t-1 21.5v334h-49v47q41 23 81 23q19 0 31.5 -6t17 -18.5t5.5 -21t1 -23.5v-334h49v-47q-7 -4 -20 -9q-83 -51 -83 -111q0 -43 46 -43q34 0 64 19zM181 605
q0 -23 -17 -40t-40 -17t-40 17t-17 40t17 40t40 17t40 -17t17 -40z" />
    <glyph glyph-name="Idotaccent" unicode="&#x130;" horiz-adv-x="216" 
d="M80 0v619h-48v50q49 17 86 17q19 0 31.5 -6t17 -18t5.5 -20t1 -23v-619h-93zM176 776q0 -22 -15 -36.5t-44 -14.5q-25 0 -41.5 13.5t-16.5 37.5q0 53 58 53q27 0 43 -15t16 -38z" />
    <glyph glyph-name="dotlessi" unicode="&#x131;" horiz-adv-x="245" 
d="M80 66v334h-49v47q41 23 81 23q19 0 31.5 -6t17 -18.5t5.5 -21t1 -23.5v-334h49v-47q-41 -23 -81 -23q-19 0 -31.5 6t-17 18.5t-5.5 21t-1 23.5z" />
    <glyph glyph-name="Kcommaaccent" unicode="&#x136;" horiz-adv-x="566" 
d="M80 0v619h-48v50q49 17 86 17q19 0 31.5 -6t17 -18t5.5 -20t1 -23v-241h67q30 0 58.5 35t63.5 98q26 47 26 98q0 22 -30 25v44q26 8 93 8q42 0 42 -35q0 -41 -45 -133q-42 -84 -119 -159l85 -159q28 -51 48 -81.5t36.5 -43t26 -15t26.5 -2.5v-50q-12 -6 -27.5 -10
t-25.5 -4l-10 -1q-33 0 -54 12.5t-47.5 52.5t-67.5 125l-65 135h-81v-318h-93zM353 -109q0 -37 -23.5 -79.5t-72.5 -77.5l-25 27q29 36 29 75q0 41 -38 65q24 53 77 53q25 0 39 -13t14 -50z" />
    <glyph glyph-name="kcommaaccent" unicode="&#x137;" horiz-adv-x="484" 
d="M167 273h52q19 0 34.5 11.5t38.5 46.5q27 40 27 68q0 20 -27 22v44q24 3 77 3q25 0 39.5 -7.5t14.5 -19.5q0 -72 -133 -190l81 -119q50 -73 95 -73v-44q-28 -18 -60 -18q-37 0 -61.5 21.5t-68.5 97.5l-55 95h-54v-211h-87v613h-49v47q33 23 75 23q61 0 61 -67v-343z
M307 -109q0 -37 -23.5 -79.5t-72.5 -77.5l-25 27q29 36 29 75q0 41 -38 65q24 53 77 53q25 0 39 -13t14 -50z" />
    <glyph glyph-name="Lacute" unicode="&#x139;" horiz-adv-x="476" 
d="M80 109v510h-48v50q31 17 86 17q19 0 31.5 -6t17 -18t5.5 -20t1 -23v-478q0 -30 8.5 -43.5t36.5 -19.5t90 -6q63 0 157 16l-7 -63q-71 -28 -169 -28q-51 0 -85.5 4t-64.5 15.5t-44.5 34.5t-14.5 58zM260 831q0 -21 -53.5 -50t-103.5 -42l-29 27l62 52l26.5 23l19.5 17.5
l14 12.5t10 9t6.5 5t5.5 2.5t5 0.5q10 0 23.5 -18t13.5 -39z" />
    <glyph glyph-name="lacute" unicode="&#x13a;" horiz-adv-x="238" 
d="M167 616v-555h42v-47q-31 -17 -74 -17q-19 0 -31.5 6t-17 18t-5.5 20t-1 23v549h-49v47q33 23 75 23q61 0 61 -67zM216 831q0 -21 -53.5 -50t-103.5 -42l-29 27l62 52l26.5 23l19.5 17.5l14 12.5t10 9t6.5 5t5.5 2.5t5 0.5q10 0 23.5 -18t13.5 -39z" />
    <glyph glyph-name="Lcommaaccent" unicode="&#x13b;" horiz-adv-x="476" 
d="M80 109v510h-48v50q31 17 86 17q19 0 31.5 -6t17 -18t5.5 -20t1 -23v-478q0 -30 8.5 -43.5t36.5 -19.5t90 -6q63 0 157 16l-7 -63q-71 -28 -169 -28q-51 0 -85.5 4t-64.5 15.5t-44.5 34.5t-14.5 58zM349 -109q0 -37 -23.5 -79.5t-72.5 -77.5l-25 27q29 36 29 75
q0 41 -38 65q24 53 77 53q25 0 39 -13t14 -50z" />
    <glyph glyph-name="lcommaaccent" unicode="&#x13c;" horiz-adv-x="238" 
d="M167 616v-555h42v-47q-31 -17 -74 -17q-19 0 -31.5 6t-17 18t-5.5 20t-1 23v549h-49v47q33 23 75 23q61 0 61 -67zM197 -109q0 -37 -23.5 -79.5t-72.5 -77.5l-25 27q29 36 29 75q0 41 -38 65q24 53 77 53q25 0 39 -13t14 -50z" />
    <glyph glyph-name="Lcaron" unicode="&#x13d;" horiz-adv-x="476" 
d="M80 109v510h-48v50q31 17 86 17q19 0 31.5 -6t17 -18t5.5 -20t1 -23v-478q0 -30 8.5 -43.5t36.5 -19.5t90 -6q63 0 157 16l-7 -63q-71 -28 -169 -28q-51 0 -85.5 4t-64.5 15.5t-44.5 34.5t-14.5 58zM430 644q0 -37 -23.5 -79.5t-72.5 -77.5l-25 27q29 36 29 75
q0 41 -38 65q24 53 77 53q25 0 39 -13t14 -50z" />
    <glyph glyph-name="lcaron" unicode="&#x13e;" horiz-adv-x="317" 
d="M313 610q0 -101 -66 -156l-24 18q18 30 18 91q0 51 -35 85q12 12 31.5 21.5t27.5 9.5q22 0 35 -20.5t13 -48.5zM167 616v-555h42v-47q-31 -17 -74 -17q-19 0 -31.5 6t-17 18t-5.5 20t-1 23v549h-49v47q33 23 75 23q61 0 61 -67z" />
    <glyph glyph-name="Ldot" unicode="&#x13f;" horiz-adv-x="476" 
d="M80 109v510h-48v50q31 17 86 17q19 0 31.5 -6t17 -18t5.5 -20t1 -23v-478q0 -30 8.5 -43.5t36.5 -19.5t90 -6q63 0 157 16l-7 -63q-71 -28 -169 -28q-51 0 -85.5 4t-64.5 15.5t-44.5 34.5t-14.5 58zM398 371q0 -23 -17 -40t-40 -17t-40 17t-17 40t17 40t40 17t40 -17
t17 -40z" />
    <glyph glyph-name="ldot" unicode="&#x140;" horiz-adv-x="307" 
d="M167 616v-555h42v-47q-31 -17 -74 -17q-19 0 -31.5 6t-17 18t-5.5 20t-1 23v549h-49v47q33 23 75 23q61 0 61 -67zM323 329q0 -25 -15 -40t-40 -15q-27 0 -41 15.5t-14 39.5q0 26 14.5 40.5t40.5 14.5t40.5 -15.5t14.5 -39.5z" />
    <glyph glyph-name="Lslash" unicode="&#x141;" horiz-adv-x="476" 
d="M80 109v164l-55 -44l-34 48l89 71v271h-48v50q31 17 86 17q19 0 31.5 -6t17 -18t5.5 -20t1 -23v-197l78 63l34 -49l-112 -89v-206q0 -30 8.5 -43.5t36.5 -19.5t90 -6q63 0 157 16l-7 -63q-71 -28 -169 -28q-51 0 -85.5 4t-64.5 15.5t-44.5 34.5t-14.5 58z" />
    <glyph glyph-name="lslash" unicode="&#x142;" horiz-adv-x="238" 
d="M167 616v-208l63 72l38 -38l-101 -115v-266h42v-47q-31 -17 -74 -17q-19 0 -31.5 6t-17 18t-5.5 20t-1 23v164l-48 -54l-37 37l85 97v305h-49v47q33 23 75 23q61 0 61 -67z" />
    <glyph glyph-name="Nacute" unicode="&#x143;" horiz-adv-x="627" 
d="M479 683h89l-19 -683h-81l-326 560l9 -560h-85l10 619h-42v50q31 17 94 17q29 0 42.5 -9t28.5 -36l290 -498zM453 831q0 -21 -53.5 -50t-103.5 -42l-29 27l62 52l26.5 23l19.5 17.5l14 12.5t10 9t6.5 5t5.5 2.5t5 0.5q10 0 23.5 -18t13.5 -39z" />
    <glyph glyph-name="nacute" unicode="&#x144;" horiz-adv-x="510" 
d="M432 330v-263h49v-47q-41 -23 -81 -23q-19 0 -31.5 6t-17 18.5t-5.5 21t-1 23.5v242q0 91 -89 91q-36 0 -62.5 -23.5t-26.5 -67.5v-308h-87v400h-49v47q33 23 75 23q24 0 38 -17t16 -35l1 -17q38 79 144 79q21 0 40 -5.5t40.5 -20t34 -46.5t12.5 -78zM366 666
q0 -17 -46.5 -56t-89.5 -60l-41 24l50 64l21.5 27.5t16 22t10.5 15.5t8 10.5t6 6t5 3.5t5 1q13 0 34 -17t21 -41z" />
    <glyph glyph-name="Ncommaaccent" unicode="&#x145;" horiz-adv-x="627" 
d="M479 683h89l-19 -683h-81l-326 560l9 -560h-85l10 619h-42v50q31 17 94 17q29 0 42.5 -9t28.5 -36l290 -498zM373 -109q0 -37 -23.5 -79.5t-72.5 -77.5l-25 27q29 36 29 75q0 41 -38 65q24 53 77 53q25 0 39 -13t14 -50z" />
    <glyph glyph-name="ncommaaccent" unicode="&#x146;" horiz-adv-x="510" 
d="M432 330v-263h49v-47q-41 -23 -81 -23q-19 0 -31.5 6t-17 18.5t-5.5 21t-1 23.5v242q0 91 -89 91q-36 0 -62.5 -23.5t-26.5 -67.5v-308h-87v400h-49v47q33 23 75 23q24 0 38 -17t16 -35l1 -17q38 79 144 79q21 0 40 -5.5t40.5 -20t34 -46.5t12.5 -78zM320 -109
q0 -37 -23.5 -79.5t-72.5 -77.5l-25 27q29 36 29 75q0 41 -38 65q24 53 77 53q25 0 39 -13t14 -50z" />
    <glyph glyph-name="Ncaron" unicode="&#x147;" horiz-adv-x="627" 
d="M479 683h89l-19 -683h-81l-326 560l9 -560h-85l10 619h-42v50q31 17 94 17q29 0 42.5 -9t28.5 -36l290 -498zM319 721h-33l-131 126l29 33l118 -74l119 74l29 -33z" />
    <glyph glyph-name="ncaron" unicode="&#x148;" horiz-adv-x="510" 
d="M432 330v-263h49v-47q-41 -23 -81 -23q-19 0 -31.5 6t-17 18.5t-5.5 21t-1 23.5v242q0 91 -89 91q-36 0 -62.5 -23.5t-26.5 -67.5v-308h-87v400h-49v47q33 23 75 23q24 0 38 -17t16 -35l1 -17q38 79 144 79q21 0 40 -5.5t40.5 -20t34 -46.5t12.5 -78zM273 545h-42
l-115 136l28 26l108 -75l108 75l28 -26z" />
    <glyph glyph-name="Omacron" unicode="&#x14c;" horiz-adv-x="635" 
d="M594 341q0 -174 -69 -265t-205 -91q-141 0 -207.5 88t-66.5 268q0 81 16 143.5t42 100t63 61.5t73.5 32.5t79.5 8.5q63 0 108 -13t85 -48.5t60.5 -106.5t20.5 -178zM493 341q0 91 -12 149.5t-37.5 86t-53 36.5t-70.5 9q-24 0 -42.5 -3.5t-39.5 -13t-36.5 -29.5t-28.5 -50
t-19.5 -77t-6.5 -108q0 -146 39.5 -218.5t133.5 -72.5q173 0 173 291zM459 751h-274v64h274v-64z" />
    <glyph glyph-name="omacron" unicode="&#x14d;" horiz-adv-x="500" 
d="M454 238q0 -127 -57 -187.5t-147 -60.5q-101 0 -152.5 57t-51.5 191q0 66 15 113.5t35.5 71.5t51.5 37.5t52.5 16.5t49.5 3q31 0 54 -3t53.5 -17t49.5 -38t33 -71.5t14 -112.5zM365 238q0 61 -8.5 99.5t-26.5 55t-35 21t-45 4.5q-44 0 -66.5 -12t-35.5 -51.5t-13 -116.5
q0 -102 26 -144t89 -42q62 0 88.5 41t26.5 145zM387 558h-274v64h274v-64z" />
    <glyph glyph-name="Ohungarumlaut" unicode="&#x150;" horiz-adv-x="635" 
d="M594 341q0 -174 -69 -265t-205 -91q-141 0 -207.5 88t-66.5 268q0 81 16 143.5t42 100t63 61.5t73.5 32.5t79.5 8.5q63 0 108 -13t85 -48.5t60.5 -106.5t20.5 -178zM493 341q0 91 -12 149.5t-37.5 86t-53 36.5t-70.5 9q-24 0 -42.5 -3.5t-39.5 -13t-36.5 -29.5t-28.5 -50
t-19.5 -77t-6.5 -108q0 -146 39.5 -218.5t133.5 -72.5q173 0 173 291zM336 851q0 -21 -53.5 -50t-103.5 -42l-29 27l62 52l26.5 23l19.5 17.5l14 12.5t10 9t6.5 5t5.5 2.5t5 0.5q10 0 23.5 -18t13.5 -39zM521 851q0 -21 -53.5 -50t-103.5 -42l-29 27l62 52l26.5 23
l19.5 17.5l14 12.5t10 9t6.5 5t5.5 2.5t5 0.5q10 0 23.5 -18t13.5 -39z" />
    <glyph glyph-name="ohungarumlaut" unicode="&#x151;" horiz-adv-x="500" 
d="M454 238q0 -127 -57 -187.5t-147 -60.5q-101 0 -152.5 57t-51.5 191q0 66 15 113.5t35.5 71.5t51.5 37.5t52.5 16.5t49.5 3q31 0 54 -3t53.5 -17t49.5 -38t33 -71.5t14 -112.5zM365 238q0 61 -8.5 99.5t-26.5 55t-35 21t-45 4.5q-44 0 -66.5 -12t-35.5 -51.5t-13 -116.5
q0 -102 26 -144t89 -42q62 0 88.5 41t26.5 145zM262 666q0 -17 -46.5 -56t-89.5 -60l-35 24l50 64l21.5 27.5t16 22t10.5 15.5t8 10.5t6 6t5 3.5t5 1q12 0 30.5 -17t18.5 -41zM422 666q0 -17 -46.5 -56t-89.5 -60l-35 24l50 64l21.5 27.5t16 22t10.5 15.5t8 10.5t6 6t5 3.5
t5 1q13 0 31 -16.5t18 -41.5z" />
    <glyph glyph-name="OE" unicode="&#x152;" horiz-adv-x="875" 
d="M811 685l-8 -76l-249 9v-232l197 9l-7 -70l-190 7v-191q0 -43 25.5 -56t115.5 -13q63 0 157 16l-7 -63q-71 -28 -169 -28q-159 0 -198 51q-48 -63 -158 -63q-141 0 -207.5 88t-66.5 268q0 81 16 143.5t42 100t63 61.5t73.5 32.5t79.5 8.5q96 0 135 -21q31 10 104 15
t111 5q18 0 66 -0.5t75 -0.5zM320 622q-24 0 -42.5 -3.5t-39.5 -13t-36.5 -29.5t-28.5 -50t-19.5 -77t-6.5 -108q0 -146 39.5 -218.5t133.5 -72.5t140 41v513q-60 18 -140 18z" />
    <glyph glyph-name="oe" unicode="&#x153;" horiz-adv-x="752" 
d="M556 -10q-105 0 -153 76q-52 -76 -150 -76q-101 0 -152 57t-51 191q0 66 15 113.5t35 71.5t51 37.5t52.5 16.5t49.5 3q111 0 157 -71q49 71 154 71q150 0 150 -129q0 -67 -45.5 -97t-114.5 -30q-24 0 -50.5 2t-41.5 4l-14 2q0 -54 11 -89.5t32 -51.5t40.5 -21.5
t45.5 -5.5q36 0 66 6.5t42 13.5l12 6l14 -52q-48 -48 -155 -48zM368 238q0 61 -8.5 99.5t-26.5 55t-35 21t-45 4.5q-44 0 -66.5 -12t-35.5 -51.5t-13 -116.5q0 -102 26 -144t89 -42q62 0 88.5 41t26.5 145zM628 351q0 65 -76 65q-15 0 -30.5 -5t-33 -17.5t-28.5 -40
t-11 -65.5q38 -6 97 -6q82 0 82 69z" />
    <glyph glyph-name="Racute" unicode="&#x154;" horiz-adv-x="550" 
d="M173 0h-93v619h-48v50q12 7 90.5 12.5t123.5 5.5q238 0 238 -187q0 -52 -13 -91.5t-35 -62t-39 -33.5t-36 -18q72 -155 101 -195.5t66 -40.5v-50q-32 -16 -65 -16q-46 0 -76 43.5t-75 157.5l-33 83q-58 0 -106 8v-285zM388 483q0 46 -12.5 76t-37 42.5t-47 16.5t-57.5 4
q-31 0 -61 -4v-276q1 0 30 -1.5t48 -1.5q137 0 137 144zM372 831q0 -21 -53.5 -50t-103.5 -42l-29 27l62 52l26.5 23l19.5 17.5l14 12.5t10 9t6.5 5t5.5 2.5t5 0.5q10 0 23.5 -18t13.5 -39z" />
    <glyph glyph-name="racute" unicode="&#x155;" horiz-adv-x="356" 
d="M162 405q-2 36 -12 50.5t-44 14.5q-42 0 -75 -23v-47h49v-400h87v335q0 26 20.5 40.5t58.5 14.5q60 0 93 -26l7 96q-22 10 -70 10q-76 0 -114 -65zM307 666q0 -17 -46.5 -56t-89.5 -60l-41 24l50 64l21.5 27.5t16 22t10.5 15.5t8 10.5t6 6t5 3.5t5 1q13 0 34 -17t21 -41z
" />
    <glyph glyph-name="Rcommaaccent" unicode="&#x156;" horiz-adv-x="550" 
d="M173 0h-93v619h-48v50q12 7 90.5 12.5t123.5 5.5q238 0 238 -187q0 -52 -13 -91.5t-35 -62t-39 -33.5t-36 -18q72 -155 101 -195.5t66 -40.5v-50q-32 -16 -65 -16q-46 0 -76 43.5t-75 157.5l-33 83q-58 0 -106 8v-285zM388 483q0 46 -12.5 76t-37 42.5t-47 16.5t-57.5 4
q-31 0 -61 -4v-276q1 0 30 -1.5t48 -1.5q137 0 137 144zM340 -109q0 -37 -23.5 -79.5t-72.5 -77.5l-25 27q29 36 29 75q0 41 -38 65q24 53 77 53q25 0 39 -13t14 -50z" />
    <glyph glyph-name="rcommaaccent" unicode="&#x157;" horiz-adv-x="356" 
d="M162 405q38 65 114 65q48 0 70 -10l-7 -96q-33 26 -93 26q-38 0 -58.5 -14.5t-20.5 -40.5v-335h-87v400h-49v47q33 23 75 23q34 0 44 -14.5t12 -50.5zM185 -109q0 -37 -23.5 -79.5t-72.5 -77.5l-25 27q29 36 29 75q0 41 -38 65q24 53 77 53q25 0 39 -13t14 -50z" />
    <glyph glyph-name="Rcaron" unicode="&#x158;" horiz-adv-x="550" 
d="M173 0h-93v619h-48v50q12 7 90.5 12.5t123.5 5.5q238 0 238 -187q0 -52 -13 -91.5t-35 -62t-39 -33.5t-36 -18q72 -155 101 -195.5t66 -40.5v-50q-32 -16 -65 -16q-46 0 -76 43.5t-75 157.5l-33 83q-58 0 -106 8v-285zM388 483q0 46 -12.5 76t-37 42.5t-47 16.5t-57.5 4
q-31 0 -61 -4v-276q1 0 30 -1.5t48 -1.5q137 0 137 144zM267 721h-33l-131 126l29 33l118 -74l119 74l29 -33z" />
    <glyph glyph-name="rcaron" unicode="&#x159;" horiz-adv-x="356" 
d="M162 405q-2 36 -12 50.5t-44 14.5q-42 0 -75 -23v-47h49v-400h87v335q0 26 20.5 40.5t58.5 14.5q60 0 93 -26l7 96q-22 10 -70 10q-76 0 -114 -65zM211 545h-42l-115 136l28 26l108 -75l108 75l28 -26z" />
    <glyph glyph-name="Sacute" unicode="&#x15a;" horiz-adv-x="516" 
d="M233 50q135 0 135 131q0 20 -6.5 36.5t-14.5 27.5t-28 24.5t-32.5 20.5t-43.5 22.5l-47 23.5q-37 19 -58 32.5t-44.5 35t-34 49.5t-10.5 64q0 77 52.5 123.5t157.5 46.5q70 0 126 -16t56 -55q0 -48 -19 -100h-68v96q-43 10 -86 10q-63 0 -93 -21.5t-30 -68.5
q0 -48 27 -72.5t112 -64.5q91 -42 137.5 -88t46.5 -113q0 -104 -67 -156.5t-169 -52.5q-33 0 -61.5 4t-57.5 13t-46 28t-17 46q0 53 8 79h68q3 -61 26 -83t81 -22zM347 831q0 -21 -53.5 -50t-103.5 -42l-29 27l62 52l26.5 23l19.5 17.5l14 12.5t10 9t6.5 5t5.5 2.5t5 0.5
q10 0 23.5 -18t13.5 -39z" />
    <glyph glyph-name="sacute" unicode="&#x15b;" horiz-adv-x="393" 
d="M193 -10q-101 0 -153 38l11 70q57 -44 134 -44q34 0 59 16.5t25 53.5q0 17 -6.5 30t-21 21.5t-27 14t-34.5 12.5t-33 12q-52 22 -75.5 49.5t-23.5 81.5q0 61 39 98t121 37q56 0 124 -28l-10 -66q-60 26 -124 26q-69 0 -69 -54q0 -29 20 -44.5t73 -36.5q40 -16 58 -24.5
t39 -24.5t29 -38t8 -54q0 -59 -41 -102.5t-122 -43.5zM310 666q0 -17 -46.5 -56t-89.5 -60l-41 24l50 64l21.5 27.5t16 22t10.5 15.5t8 10.5t6 6t5 3.5t5 1q13 0 34 -17t21 -41z" />
    <glyph glyph-name="Scedilla" unicode="&#x15e;" horiz-adv-x="516" 
d="M233 50q135 0 135 131q0 20 -6.5 36.5t-14.5 27.5t-28 24.5t-32.5 20.5t-43.5 22.5l-47 23.5q-37 19 -58 32.5t-44.5 35t-34 49.5t-10.5 64q0 77 52.5 123.5t157.5 46.5q70 0 126 -16t56 -55q0 -48 -19 -100h-68v96q-43 10 -86 10q-63 0 -93 -21.5t-30 -68.5
q0 -48 27 -72.5t112 -64.5q91 -42 137.5 -88t46.5 -113q0 -94 -56 -146t-145 -61l-11 -40q47 -3 71 -25.5t24 -57.5q0 -60 -51 -88.5t-132 -28.5l-4 38q101 0 101 62q0 22 -17 33t-55 16l26 89q-169 4 -169 91q0 53 8 79h68q3 -61 26 -83t81 -22z" />
    <glyph glyph-name="scedilla" unicode="&#x15f;" horiz-adv-x="393" 
d="M132 -104l27 95q-78 6 -119 37l11 70q57 -44 134 -44q34 0 59 16.5t25 53.5q0 17 -6.5 30t-21 21.5t-27 14t-34.5 12.5t-33 12q-52 22 -75.5 49.5t-23.5 81.5q0 61 39 98t121 37q56 0 124 -28l-10 -66q-60 26 -124 26q-69 0 -69 -54q0 -29 20 -44.5t73 -36.5
q40 -16 58 -24.5t39 -24.5t29 -38t8 -54q0 -56 -37.5 -99t-112.5 -46l-11 -44q47 -3 71 -25.5t24 -57.5q0 -60 -51 -88.5t-132 -28.5l-4 38q101 0 101 62q0 22 -17 33t-55 16z" />
    <glyph glyph-name="Scaron" unicode="&#x160;" horiz-adv-x="516" 
d="M233 50q135 0 135 131q0 20 -6.5 36.5t-14.5 27.5t-28 24.5t-32.5 20.5t-43.5 22.5l-47 23.5q-37 19 -58 32.5t-44.5 35t-34 49.5t-10.5 64q0 77 52.5 123.5t157.5 46.5q70 0 126 -16t56 -55q0 -48 -19 -100h-68v96q-43 10 -86 10q-63 0 -93 -21.5t-30 -68.5
q0 -48 27 -72.5t112 -64.5q91 -42 137.5 -88t46.5 -113q0 -104 -67 -156.5t-169 -52.5q-33 0 -61.5 4t-57.5 13t-46 28t-17 46q0 53 8 79h68q3 -61 26 -83t81 -22zM258 721h-33l-131 126l29 33l118 -74l119 74l29 -33z" />
    <glyph glyph-name="scaron" unicode="&#x161;" horiz-adv-x="393" 
d="M193 -10q-101 0 -153 38l11 70q57 -44 134 -44q34 0 59 16.5t25 53.5q0 17 -6.5 30t-21 21.5t-27 14t-34.5 12.5t-33 12q-52 22 -75.5 49.5t-23.5 81.5q0 61 39 98t121 37q56 0 124 -28l-10 -66q-60 26 -124 26q-69 0 -69 -54q0 -29 20 -44.5t73 -36.5q40 -16 58 -24.5
t39 -24.5t29 -38t8 -54q0 -59 -41 -102.5t-122 -43.5zM218 545h-42l-115 136l28 26l108 -75l108 75l28 -26z" />
    <glyph glyph-name="Tcedilla" unicode="&#x162;" horiz-adv-x="479" 
d="M22 607l5 76h431l-9 -74q-28 1 -162 8v-617h-34l-14 -53q47 -3 71 -25.5t24 -57.5q0 -60 -51 -88.5t-132 -28.5l-4 38q101 0 101 62q0 22 -17 33t-55 16l30 104h-12v617q-51 -5 -172 -10z" />
    <glyph glyph-name="tcedilla" unicode="&#x163;" horiz-adv-x="293" 
d="M262 66v-61q-31 -8 -62 -10l-13 -48q47 -3 71 -25.5t24 -57.5q0 -60 -51 -88.5t-132 -28.5l-4 38q101 0 101 62q0 22 -17 33t-55 16l29 102q-48 8 -60.5 39.5t-12.5 103.5v263h-62v46l7.5 2.5t16.5 10t22.5 20t21.5 32.5t16 47l10 48l55 5v-147h95v-64h-95v-284
q0 -33 12.5 -46.5t40.5 -13.5q12 0 22.5 1.5t15.5 2.5z" />
    <glyph glyph-name="Tcaron" unicode="&#x164;" horiz-adv-x="479" 
d="M22 607l5 76h431l-9 -74q-28 1 -162 8v-617h-93v617q-51 -5 -172 -10zM260 721h-33l-131 126l29 33l118 -74l119 74l29 -33z" />
    <glyph glyph-name="tcaron" unicode="&#x165;" horiz-adv-x="293" 
d="M262 66v-61q-37 -10 -72 -10q-38 0 -61 8.5t-33.5 30t-13 43.5t-2.5 64v263h-62v46l7.5 2.5t16.5 10t22.5 20t21.5 32.5t16 47l10 48l55 5v-147h95v-64h-95v-284q0 -33 12.5 -46.5t40.5 -13.5q12 0 22.5 1.5t15.5 2.5zM337 687q0 -37 -23.5 -79.5t-72.5 -77.5l-25 27
q29 36 29 75q0 41 -38 65q24 53 77 53q25 0 39 -13t14 -50z" />
    <glyph glyph-name="Umacron" unicode="&#x16a;" horiz-adv-x="589" 
d="M434 683h87v-513q0 -84 -63 -134.5t-163 -50.5q-112 0 -166.5 47.5t-54.5 126.5v463h-42v47q31 17 80 17q19 0 31.5 -6t17 -18t5.5 -20t1 -23v-435q0 -26 4.5 -46t17 -40t39.5 -31t67 -11q84 0 111.5 32t27.5 93v502zM439 751h-274v64h274v-64z" />
    <glyph glyph-name="umacron" unicode="&#x16b;" horiz-adv-x="510" 
d="M350 64v21q-51 -93 -152 -93q-24 0 -42 4.5t-37 17t-29 41t-10 71.5v274h-49v47q43 23 81 23q19 0 31.5 -6t17 -18.5t5.5 -21t1 -23.5v-243q0 -49 16.5 -69.5t57.5 -20.5q43 0 73.5 27t30.5 65v308h87v-401h49v-47q-41 -23 -81 -23q-18 0 -29 6t-15 18t-5 20t-1 23z
M392 558h-274v64h274v-64z" />
    <glyph glyph-name="Uring" unicode="&#x16e;" horiz-adv-x="589" 
d="M434 683h87v-513q0 -84 -63 -134.5t-163 -50.5q-112 0 -166.5 47.5t-54.5 126.5v463h-42v47q31 17 80 17q19 0 31.5 -6t17 -18t5.5 -20t1 -23v-435q0 -26 4.5 -46t17 -40t39.5 -31t67 -11q84 0 111.5 32t27.5 93v502zM405 814q0 -46 -32.5 -79t-79.5 -33q-46 0 -78.5 33
t-32.5 79t32.5 78.5t78.5 32.5t79 -32.5t33 -78.5zM346 814q0 22 -15 37.5t-38 15.5q-22 0 -37.5 -15.5t-15.5 -37.5q0 -23 15.5 -38.5t37.5 -15.5q23 0 38 15.5t15 38.5z" />
    <glyph glyph-name="uring" unicode="&#x16f;" horiz-adv-x="510" 
d="M350 64v21q-51 -93 -152 -93q-24 0 -42 4.5t-37 17t-29 41t-10 71.5v274h-49v47q43 23 81 23q19 0 31.5 -6t17 -18.5t5.5 -21t1 -23.5v-243q0 -49 16.5 -69.5t57.5 -20.5q43 0 73.5 27t30.5 65v308h87v-401h49v-47q-41 -23 -81 -23q-18 0 -29 6t-15 18t-5 20t-1 23z
M366 658q0 -46 -33 -79t-79 -33t-78.5 33t-32.5 79t32.5 78.5t78.5 32.5t79 -32.5t33 -78.5zM307 658q0 22 -15 37.5t-38 15.5q-22 0 -37.5 -15.5t-15.5 -37.5q0 -23 15.5 -38.5t37.5 -15.5q23 0 38 15.5t15 38.5z" />
    <glyph glyph-name="Uhungarumlaut" unicode="&#x170;" horiz-adv-x="589" 
d="M434 683h87v-513q0 -84 -63 -134.5t-163 -50.5q-112 0 -166.5 47.5t-54.5 126.5v463h-42v47q31 17 80 17q19 0 31.5 -6t17 -18t5.5 -20t1 -23v-435q0 -26 4.5 -46t17 -40t39.5 -31t67 -11q84 0 111.5 32t27.5 93v502zM331 851q0 -21 -53.5 -50t-103.5 -42l-29 27l62 52
l26.5 23l19.5 17.5l14 12.5t10 9t6.5 5t5.5 2.5t5 0.5q10 0 23.5 -18t13.5 -39zM516 851q0 -21 -53.5 -50t-103.5 -42l-29 27l62 52l26.5 23l19.5 17.5l14 12.5t10 9t6.5 5t5.5 2.5t5 0.5q10 0 23.5 -18t13.5 -39z" />
    <glyph glyph-name="uhungarumlaut" unicode="&#x171;" horiz-adv-x="510" 
d="M350 64v21q-51 -93 -152 -93q-24 0 -42 4.5t-37 17t-29 41t-10 71.5v274h-49v47q43 23 81 23q19 0 31.5 -6t17 -18.5t5.5 -21t1 -23.5v-243q0 -49 16.5 -69.5t57.5 -20.5q43 0 73.5 27t30.5 65v308h87v-401h49v-47q-41 -23 -81 -23q-18 0 -29 6t-15 18t-5 20t-1 23z
M300 666q0 -17 -46.5 -56t-89.5 -60l-35 24l50 64l21.5 27.5t16 22t10.5 15.5t8 10.5t6 6t5 3.5t5 1q12 0 30.5 -17t18.5 -41zM460 666q0 -17 -46.5 -56t-89.5 -60l-35 24l50 64l21.5 27.5t16 22t10.5 15.5t8 10.5t6 6t5 3.5t5 1q13 0 31 -16.5t18 -41.5z" />
    <glyph glyph-name="Uogonek" unicode="&#x172;" horiz-adv-x="589" 
d="M448 -124l-2 -38q-45 -38 -103 -38q-36 0 -56 18.5t-20 53.5q0 61 65 115q-24 -2 -37 -2q-112 0 -166.5 47.5t-54.5 126.5v463h-42v47q31 17 80 17q19 0 31.5 -6t17 -18t5.5 -20t1 -23v-435q0 -26 4.5 -46t17 -40t39.5 -31t67 -11q84 0 111.5 32t27.5 93v502h87v-513
q0 -100 -83 -149q-100 -57 -100 -121q0 -43 46 -43q34 0 64 19z" />
    <glyph glyph-name="uogonek" unicode="&#x173;" horiz-adv-x="510" 
d="M488 -124l-2 -38q-45 -38 -103 -38q-36 0 -56 18.5t-20 53.5q0 70 79 126q-17 3 -25.5 15.5t-9.5 22.5t-1 28v21q-51 -93 -152 -93q-24 0 -42 4.5t-37 17t-29 41t-10 71.5v274h-49v47q43 23 81 23q19 0 31.5 -6t17 -18.5t5.5 -21t1 -23.5v-243q0 -49 16.5 -69.5
t57.5 -20.5q43 0 73.5 27t30.5 65v308h87v-401h49v-47q-7 -4 -20 -9q-83 -51 -83 -111q0 -43 46 -43q34 0 64 19z" />
    <glyph glyph-name="Ydieresis" unicode="&#x178;" horiz-adv-x="504" 
d="M218 255l-159 364h-48v50q35 17 64 17q46 0 66 -23.5t54 -110.5q28 -73 81 -235l119 366h93l-177 -428v-255h-93v255zM226 776q0 -21 -14 -34.5t-41 -13.5q-24 0 -39 12.5t-15 35.5q0 49 54 49q25 0 40 -14t15 -35zM369 776q0 -48 -54 -48q-26 0 -40.5 13.5t-14.5 34.5
q0 22 14.5 35.5t40.5 13.5q25 0 39.5 -14t14.5 -35z" />
    <glyph glyph-name="Zacute" unicode="&#x179;" horiz-adv-x="500" 
d="M448 0h-428l5 69l343 553q-62 -13 -159 -13h-144l13 74h397l-6 -55l-347 -563q43 9 156 9h183zM363 831q0 -21 -53.5 -50t-103.5 -42l-29 27l62 52l26.5 23l19.5 17.5l14 12.5t10 9t6.5 5t5.5 2.5t5 0.5q10 0 23.5 -18t13.5 -39z" />
    <glyph glyph-name="zacute" unicode="&#x17a;" horiz-adv-x="401" 
d="M380 84l-11 -84h-340l4 56l244 335q-31 -7 -95 -7h-133l15 84h312l-2 -51l-248 -340q35 7 115 7h139zM320 666q0 -17 -46.5 -56t-89.5 -60l-41 24l50 64l21.5 27.5t16 22t10.5 15.5t8 10.5t6 6t5 3.5t5 1q13 0 34 -17t21 -41z" />
    <glyph glyph-name="Zdotaccent" unicode="&#x17b;" horiz-adv-x="500" 
d="M448 0h-428l5 69l343 553q-62 -13 -159 -13h-144l13 74h397l-6 -55l-347 -563q43 9 156 9h183zM343 776q0 -22 -15 -36.5t-44 -14.5q-25 0 -41.5 13.5t-16.5 37.5q0 53 58 53q27 0 43 -15t16 -38z" />
    <glyph glyph-name="zdotaccent" unicode="&#x17c;" horiz-adv-x="401" 
d="M380 84l-11 -84h-340l4 56l244 335q-31 -7 -95 -7h-133l15 84h312l-2 -51l-248 -340q35 7 115 7h139zM261 605q0 -23 -17 -40t-40 -17t-40 17t-17 40t17 40t40 17t40 -17t17 -40z" />
    <glyph glyph-name="Zcaron" unicode="&#x17d;" horiz-adv-x="500" 
d="M448 0h-428l5 69l343 553q-62 -13 -159 -13h-144l13 74h397l-6 -55l-347 -563q43 9 156 9h183zM279 721h-33l-131 126l29 33l118 -74l119 74l29 -33z" />
    <glyph glyph-name="zcaron" unicode="&#x17e;" horiz-adv-x="401" 
d="M380 84l-11 -84h-340l4 56l244 335q-31 -7 -95 -7h-133l15 84h312l-2 -51l-248 -340q35 7 115 7h139zM232 545h-42l-115 136l28 26l108 -75l108 75l28 -26z" />
    <glyph glyph-name="uni018F" unicode="&#x18f;" horiz-adv-x="597" 
d="M296 689q22 0 38.5 -1t45 -8.5t50 -19.5t47 -37.5t41.5 -60t27 -89t11 -122.5q0 -366 -278 -366q-107 0 -169.5 76.5t-62.5 211.5q0 63 6 105h404q0 66 -15.5 113t-35 70t-51.5 35.5t-51 14t-49 1.5q-71 0 -145 -50l-9 78q70 49 196 49zM295 52q75 0 117.5 64t42.5 193
h-315q0 -257 155 -257z" />
    <glyph glyph-name="florin" unicode="&#x192;" 
d="M186 -53v457h-64v64h64q0 129 29.5 183.5t106.5 54.5q38 0 70 -15v-65q-34 8 -58 8q-35 0 -48 -28t-13 -111v-27h106v-64h-106v-408q0 -28 -0.5 -43.5t-3.5 -43t-11 -44.5t-21 -35t-35 -26.5t-51 -8.5q-16 0 -27.5 2.5t-15.5 4.5l-3 2v60q19 -3 32 -3q49 0 49 86z" />
    <glyph glyph-name="uni01DD" unicode="&#x1dd;" horiz-adv-x="451" 
d="M129 151q0 -43 22 -71t65 -28q47 0 73 41t26 121h-141q-29 0 -37 -11.5t-8 -51.5zM206 413q-71 0 -122 -36l-17 66q63 37 146 37q90 0 141 -51.5t51 -186.5q0 -73 -17.5 -125t-48 -78t-63 -37.5t-69.5 -11.5q-69 0 -117 44.5t-48 129.5q0 106 84 106h190q0 69 -24.5 106
t-85.5 37z" />
    <glyph glyph-name="Scommaaccent" unicode="&#x218;" horiz-adv-x="516" 
d="M233 50q135 0 135 131q0 20 -6.5 36.5t-14.5 27.5t-28 24.5t-32.5 20.5t-43.5 22.5l-47 23.5q-37 19 -58 32.5t-44.5 35t-34 49.5t-10.5 64q0 77 52.5 123.5t157.5 46.5q70 0 126 -16t56 -55q0 -48 -19 -100h-68v96q-43 10 -86 10q-63 0 -93 -21.5t-30 -68.5
q0 -48 27 -72.5t112 -64.5q91 -42 137.5 -88t46.5 -113q0 -104 -67 -156.5t-169 -52.5q-33 0 -61.5 4t-57.5 13t-46 28t-17 46q0 53 8 79h68q3 -61 26 -83t81 -22zM310 -109q0 -37 -23.5 -79.5t-72.5 -77.5l-25 27q29 36 29 75q0 41 -38 65q24 53 77 53q25 0 39 -13t14 -50z
" />
    <glyph glyph-name="scommaaccent" unicode="&#x219;" horiz-adv-x="393" 
d="M193 -10q-101 0 -153 38l11 70q57 -44 134 -44q34 0 59 16.5t25 53.5q0 17 -6.5 30t-21 21.5t-27 14t-34.5 12.5t-33 12q-52 22 -75.5 49.5t-23.5 81.5q0 61 39 98t121 37q56 0 124 -28l-10 -66q-60 26 -124 26q-69 0 -69 -54q0 -29 20 -44.5t73 -36.5q40 -16 58 -24.5
t39 -24.5t29 -38t8 -54q0 -59 -41 -102.5t-122 -43.5zM261 -109q0 -37 -23.5 -79.5t-72.5 -77.5l-25 27q29 36 29 75q0 41 -38 65q24 53 77 53q25 0 39 -13t14 -50z" />
    <glyph glyph-name="Tcommaaccent" unicode="&#x21a;" horiz-adv-x="479" 
d="M22 607l5 76h431l-9 -74q-28 1 -162 8v-617h-93v617q-51 -5 -172 -10zM304 -109q0 -37 -23.5 -79.5t-72.5 -77.5l-25 27q29 36 29 75q0 41 -38 65q24 53 77 53q25 0 39 -13t14 -50z" />
    <glyph glyph-name="tcommaaccent" unicode="&#x21b;" horiz-adv-x="293" 
d="M262 66v-61q-37 -10 -72 -10q-38 0 -61 8.5t-33.5 30t-13 43.5t-2.5 64v263h-62v46l7.5 2.5t16.5 10t22.5 20t21.5 32.5t16 47l10 48l55 5v-147h95v-64h-95v-284q0 -33 12.5 -46.5t40.5 -13.5q12 0 22.5 1.5t15.5 2.5zM232 -109q0 -37 -23.5 -79.5t-72.5 -77.5l-25 27
q29 36 29 75q0 41 -38 65q24 53 77 53q25 0 39 -13t14 -50z" />
    <glyph glyph-name="uni0259" unicode="&#x259;" horiz-adv-x="451" 
d="M129 151q0 -43 22 -71t65 -28q47 0 73 41t26 121h-141q-29 0 -37 -11.5t-8 -51.5zM206 413q-71 0 -122 -36l-17 66q63 37 146 37q90 0 141 -51.5t51 -186.5q0 -73 -17.5 -125t-48 -78t-63 -37.5t-69.5 -11.5q-69 0 -117 44.5t-48 129.5q0 106 84 106h190q0 69 -24.5 106
t-85.5 37z" />
    <glyph glyph-name="afii57929" unicode="&#x2bc;" horiz-adv-x="175" 
d="M150 611q0 -39 -22.5 -83.5t-56.5 -69.5l-30 18q32 43 32 77q0 30 -46 67q29 59 65 59q25 0 41.5 -21.5t16.5 -46.5z" />
    <glyph glyph-name="circumflex" unicode="&#x2c6;" horiz-adv-x="316" 
d="M135 707h42l118 -136l-31 -30l-108 75l-108 -75l-31 30z" />
    <glyph glyph-name="caron" unicode="&#x2c7;" horiz-adv-x="316" 
d="M169 545h-42l-115 136l28 26l108 -75l108 75l28 -26z" />
    <glyph glyph-name="breve" unicode="&#x2d8;" horiz-adv-x="319" 
d="M166 590q63 0 76 61h52q-13 -126 -129 -126q-126 0 -129 126h52q16 -61 78 -61z" />
    <glyph glyph-name="dotaccent" unicode="&#x2d9;" horiz-adv-x="191" 
d="M151 605q0 -23 -17 -40t-40 -17t-40 17t-17 40t17 40t40 17t40 -17t17 -40z" />
    <glyph glyph-name="ring" unicode="&#x2da;" horiz-adv-x="311" 
d="M272 658q0 -46 -33 -79t-79 -33t-78.5 33t-32.5 79t32.5 78.5t78.5 32.5t79 -32.5t33 -78.5zM213 658q0 22 -15 37.5t-38 15.5q-22 0 -37.5 -15.5t-15.5 -37.5q0 -23 15.5 -38.5t37.5 -15.5q23 0 38 15.5t15 38.5z" />
    <glyph glyph-name="ogonek" unicode="&#x2db;" horiz-adv-x="244" 
d="M216 -124l-2 -38q-45 -38 -103 -38q-36 0 -56 18.5t-20 53.5q0 49 38.5 90t87.5 64l46 -5q-44 -23 -72.5 -55t-28.5 -66q0 -43 46 -43q34 0 64 19z" />
    <glyph glyph-name="tilde" unicode="&#x2dc;" horiz-adv-x="356" 
d="M252 616q37 0 51 48l35 -31q-26 -90 -95 -90q-29 0 -73.5 25.5t-69.5 25.5q-37 0 -51 -48l-35 31q26 90 95 90q29 0 77 -25.5t66 -25.5z" />
    <glyph glyph-name="hungarumlaut" unicode="&#x2dd;" horiz-adv-x="364" 
d="M187 666q0 -17 -46.5 -56t-89.5 -60l-35 24l50 64l21.5 27.5t16 22t10.5 15.5t8 10.5t6 6t5 3.5t5 1q12 0 30.5 -17t18.5 -41zM347 666q0 -17 -46.5 -56t-89.5 -60l-35 24l50 64l21.5 27.5t16 22t10.5 15.5t8 10.5t6 6t5 3.5t5 1q13 0 31 -16.5t18 -41.5z" />
    <glyph glyph-name="acutecomb" unicode="&#x301;" horiz-adv-x="0" 
d="M-61 666q0 -17 -46.5 -56t-89.5 -60l-41 24l50 64l21.5 27.5t16 22t10.5 15.5t8 10.5t6 6t5 3.5t5 1q13 0 34 -17t21 -41z" />
    <glyph glyph-name="uni0394" unicode="&#x394;" horiz-adv-x="607" 
d="M591 0h-580l270 683h59zM294 550l-183 -481h354z" />
    <glyph glyph-name="uni0394" unicode="&#x2206;" horiz-adv-x="607" 
d="M591 0h-580l270 683h59zM294 550l-183 -481h354z" />
    <glyph glyph-name="uni03A9" unicode="&#x3a9;" horiz-adv-x="635" 
d="M320 622q-43 0 -70 -7t-53 -28.5t-38 -67.5t-12 -118q0 -121 28.5 -174.5t95.5 -61.5v-165h-211l-13 74h80q53 0 76 -5v58q-63 13 -110 81t-47 193q0 72 16 125t40.5 83t62.5 48.5t73.5 24t81.5 5.5q51 0 88 -6t74 -23.5t60 -48.5t37.5 -83.5t14.5 -124.5
q0 -124 -46.5 -191t-110.5 -83v-58q23 5 76 5h80l-13 -74h-211v165q67 8 95.5 61.5t28.5 174.5q0 72 -12 118t-38 67.5t-53 28.5t-70 7z" />
    <glyph glyph-name="uni03A9" unicode="&#x2126;" horiz-adv-x="635" 
d="M320 622q-43 0 -70 -7t-53 -28.5t-38 -67.5t-12 -118q0 -121 28.5 -174.5t95.5 -61.5v-165h-211l-13 74h80q53 0 76 -5v58q-63 13 -110 81t-47 193q0 72 16 125t40.5 83t62.5 48.5t73.5 24t81.5 5.5q51 0 88 -6t74 -23.5t60 -48.5t37.5 -83.5t14.5 -124.5
q0 -124 -46.5 -191t-110.5 -83v-58q23 5 76 5h80l-13 -74h-211v165q67 8 95.5 61.5t28.5 174.5q0 72 -12 118t-38 67.5t-53 28.5t-70 7z" />
    <glyph glyph-name="pi" unicode="&#x3c0;" horiz-adv-x="578" 
d="M47 96h73q12 0 21 18.5t20 83t22 180.5h-25q-38 0 -56.5 -13t-28.5 -52h-46q0 155 122 155h363l-18 -90h-90q-16 -89 -16 -178q0 -60 16 -82t48 -22q22 0 34 14t19 50l41 -4q-5 -68 -30.5 -113.5t-75.5 -45.5q-41 0 -67.5 30.5t-35 67t-8.5 76.5q0 83 16 207h-102
q-21 -177 -37 -242q-16 -67 -41 -105.5t-70 -38.5q-36 0 -48 16v88z" />
    <glyph glyph-name="afii10023" unicode="&#x401;" horiz-adv-x="495" 
d="M431 685l-8 -76l-249 9v-232l197 9l-7 -70l-190 7v-191q0 -43 25.5 -56t115.5 -13q87 0 157 16l-7 -63q-71 -28 -169 -28q-106 0 -161 23t-55 89v510h-48v51q118 16 258 16q18 0 66 -0.5t75 -0.5zM222 776q0 -21 -14 -34.5t-41 -13.5q-24 0 -39 12.5t-15 35.5q0 49 54 49
q25 0 40 -14t15 -35zM365 776q0 -48 -54 -48q-26 0 -40.5 13.5t-14.5 34.5q0 22 14.5 35.5t40.5 13.5q25 0 39.5 -14t14.5 -35z" />
    <glyph glyph-name="afii10051" unicode="&#x402;" horiz-adv-x="631" 
d="M256 617v-221q17 19 55.5 30.5t76.5 11.5q214 0 216 -222q0 -69 -24.5 -121.5t-64.5 -83t-85.5 -45.5t-94.5 -17l-13 63q32 0 61 9t59 29.5t48 64t18 104.5q0 73 -38.5 112.5t-113.5 39.5q-55 0 -100 -29v-342h-93v617q-91 -8 -134 -10l5 76h431l-9 -74q-142 5 -200 8z
" />
    <glyph glyph-name="afii10052" unicode="&#x403;" horiz-adv-x="437" 
d="M173 618v-618h-93v619h-48v52q110 15 257 15q19 0 60 -0.5t68 -0.5l-8 -76zM360 831q0 -21 -53.5 -50t-103.5 -42l-29 27l62 52l26.5 23l19.5 17.5l14 12.5t10 9t6.5 5t5.5 2.5t5 0.5q10 0 23.5 -18t13.5 -39z" />
    <glyph glyph-name="afii10053" unicode="&#x404;" horiz-adv-x="560" 
d="M321 619q-29 0 -49.5 -3.5t-44 -18t-39 -40.5t-27.5 -73.5t-15 -113.5l239 10l-10 -82l-229 11q0 -69 17 -119t46 -76t60.5 -37t67.5 -11q42 0 84.5 15t64.5 31l21 15l16 -63l-8.5 -8.5t-25.5 -19t-42 -23.5t-57 -18.5t-73 -8.5q-46 0 -82 7.5t-73 30t-61 60t-39.5 103
t-15.5 154.5q0 66 11.5 119.5t29 88.5t43.5 61.5t51 40.5t55 22.5t52 11t45 2.5q72 0 127 -17t55 -57q0 -48 -19 -100h-68v88q-27 18 -107 18z" />
    <glyph glyph-name="afii10054" unicode="&#x405;" horiz-adv-x="516" 
d="M233 50q135 0 135 131q0 20 -6.5 36.5t-14.5 27.5t-28 24.5t-32.5 20.5t-43.5 22.5l-47 23.5q-37 19 -58 32.5t-44.5 35t-34 49.5t-10.5 64q0 77 52.5 123.5t157.5 46.5q70 0 126 -16t56 -55q0 -48 -19 -100h-68v96q-43 10 -86 10q-63 0 -93 -21.5t-30 -68.5
q0 -48 27 -72.5t112 -64.5q91 -42 137.5 -88t46.5 -113q0 -104 -67 -156.5t-169 -52.5q-33 0 -61.5 4t-57.5 13t-46 28t-17 46q0 53 8 79h68q3 -61 26 -83t81 -22z" />
    <glyph glyph-name="afii10055" unicode="&#x406;" horiz-adv-x="216" 
d="M80 0v619h-48v50q49 17 86 17q19 0 31.5 -6t17 -18t5.5 -20t1 -23v-619h-93z" />
    <glyph glyph-name="afii10056" unicode="&#x407;" horiz-adv-x="216" 
d="M94 776q0 -20 -16.5 -34t-38.5 -14t-38 14t-16 34t16 34.5t38 14.5q23 0 39 -14.5t16 -34.5zM237 776q0 -19 -16 -33.5t-38 -14.5q-23 0 -39 14t-16 34t16 34.5t39 14.5q22 0 38 -14.5t16 -34.5zM80 0v619h-48v50q49 17 86 17q19 0 31.5 -6t17 -18t5.5 -20t1 -23v-619
h-93z" />
    <glyph glyph-name="afii10057" unicode="&#x408;" horiz-adv-x="242" 
d="M80 17v602h-48v50q49 17 86 17q19 0 31.5 -6t17 -18t5.5 -20t1 -23v-551q0 -30 -0.5 -47.5t-4 -45t-11.5 -44t-21 -33.5t-35 -25t-52 -8q-16 0 -27.5 2t-15.5 4l-4 2v66q19 -3 32 -3q46 0 46 81z" />
    <glyph glyph-name="afii10058" unicode="&#x409;" horiz-adv-x="884" 
d="M750 221q0 129 -142 129q-22 0 -45 -2.5t-35 -5.5l-12 -2v-187q0 -55 21.5 -79t71.5 -24q62 0 101.5 42.5t39.5 128.5zM423 615h-132q-21 0 -27.5 -7t-9.5 -34l-16 -140q-25 -226 -62.5 -331.5t-102.5 -105.5q-34 0 -54 25v88h41q30 0 48.5 38t33.5 131q26 161 33 343
h-59v46q66 15 240 15h160v-287q42 21 125 21q110 0 156 -54.5t46 -161.5q0 -22 -6 -47t-23.5 -56t-44 -55.5t-74 -41t-108.5 -16.5q-164 0 -164 150v480z" />
    <glyph glyph-name="afii10059" unicode="&#x40a;" horiz-adv-x="894" 
d="M433 683h93v-287q42 21 125 21q110 0 156 -54.5t46 -161.5q0 -22 -6 -47t-23.5 -56t-44 -55.5t-74 -41t-108.5 -16.5q-164 0 -164 150v183h-260v-318h-93v619h-48v50q49 17 86 17q19 0 31.5 -6t17 -18t5.5 -20t1 -23v-233h260v297zM760 221q0 129 -142 129
q-22 0 -45 -2.5t-35 -5.5l-12 -2v-187q0 -55 21.5 -79t71.5 -24q62 0 101.5 42.5t39.5 128.5z" />
    <glyph glyph-name="afii10060" unicode="&#x40b;" horiz-adv-x="649" 
d="M574 272v-208h48v-50q-49 -17 -86 -17q-19 0 -31.5 6t-17 18t-5.5 20t-1 23v201q0 62 -28.5 84t-86.5 22q-65 0 -110 -29v-342h-93v617q-91 -8 -134 -10l5 76h431l-9 -74q-142 5 -200 8v-221q18 19 63 30.5t96 11.5q43 0 73.5 -9.5t46.5 -24t25.5 -38.5t11.5 -44t2 -50z
" />
    <glyph glyph-name="afii10061" unicode="&#x40c;" horiz-adv-x="583" 
d="M173 383v236q0 15 -1 23t-5.5 20t-17 18t-31.5 6q-37 0 -86 -17v-50h48v-619h93v316h102l32 -74t42 -91q36 -68 66 -104.5t47 -44t40 -7.5q37 0 64 14v50q-41 0 -79.5 54t-154.5 266q50 99 85 149t57.5 63.5t52.5 13.5v68q-24 13 -52 13q-55 0 -103.5 -64.5
t-104.5 -238.5h-94zM405 831q0 -21 -53.5 -50t-103.5 -42l-29 27l62 52l26.5 23l19.5 17.5l14 12.5t10 9t6.5 5t5.5 2.5t5 0.5q10 0 23.5 -18t13.5 -39z" />
    <glyph glyph-name="afii10062" unicode="&#x40e;" horiz-adv-x="532" 
d="M63 619h-44v50q35 17 64 17q41 0 67.5 -27t56.5 -101q19 -47 35 -97t33.5 -112t30.5 -101l121 431h91l-178 -494q-69 -193 -155 -193q-40 0 -60 25v71q71 0 94.5 12t37.5 48q-163 447 -194 471zM348 835h81q0 -64 -48.5 -96t-105.5 -32q-35 0 -67.5 10.5t-59 41
t-26.5 76.5h80q0 -25 20 -47t53 -22q35 0 54 21t19 48z" />
    <glyph glyph-name="afii10145" unicode="&#x40f;" horiz-adv-x="619" 
d="M528 683v-619h48v-50q-15 -5 -73.5 -9.5t-88.5 -4.5h-62l5 -143h-78l5 143h-204v619h-48v50q49 17 86 17q19 0 31.5 -6t17 -18t5.5 -20t1 -23v-551h262v615h93z" />
    <glyph glyph-name="afii10017" unicode="&#x410;" horiz-adv-x="563" 
d="M159 216h208l-95 371zM236 683h99l155 -551q13 -48 23 -59.5t36 -11.5v-47q-31 -17 -69 -17q-36 0 -54 29t-42 126h-242l-41 -152h-92z" />
    <glyph glyph-name="afii10018" unicode="&#x411;" horiz-adv-x="546" 
d="M412 215q0 29 -4.5 50.5t-18.5 44t-44 34.5t-75 12q-22 0 -46 -2.5t-38 -5.5l-13 -2v-193q0 -54 24 -78.5t75 -24.5q63 0 101.5 43.5t38.5 121.5zM173 618v-216q42 21 130 21q107 0 154.5 -52t47.5 -135q0 -30 -6 -61t-22.5 -66t-42.5 -61.5t-71 -44.5t-103 -18
q-28 0 -54.5 5t-57 18.5t-49.5 43.5t-19 73v494h-48v50q88 17 264 17q18 0 66 -0.5t75 -0.5l-8 -76z" />
    <glyph glyph-name="afii10019" unicode="&#x412;" horiz-adv-x="561" 
d="M413 196q0 62 -26.5 96t-90.5 34h-123v-223q0 -23 16.5 -37t67.5 -14q73 0 114.5 36.5t41.5 107.5zM479 521q0 -50 -26 -97t-75 -56v-7q41 -5 69 -21t41 -39.5t18 -43.5t5 -42q0 -39 -11 -75t-37 -73t-79.5 -59.5t-128.5 -22.5q-175 0 -175 101v533h-48v50q67 18 253 18
q58 0 98 -13.5t60 -38.5t28 -52t8 -62zM173 618v-231h107q104 0 104 116q0 70 -33 94.5t-101 24.5q-47 0 -77 -4z" />
    <glyph glyph-name="afii10020" unicode="&#x413;" horiz-adv-x="437" 
d="M173 618v-618h-93v619h-48v52q110 15 257 15q19 0 60 -0.5t68 -0.5l-8 -76z" />
    <glyph glyph-name="afii10021" unicode="&#x414;" horiz-adv-x="656" 
d="M170 68h282v547h-105q-44 0 -55 -12t-18 -70q-20 -153 -49.5 -285t-54.5 -180zM541 -136v136h-421l-15 -135h-53q0 1 -4 23t-6.5 40.5t-5 57.5t-2.5 82h60q32 73 66.5 252t38.5 302h-59v46q74 15 240 15h165v-615h83q-3 -54 -13.5 -119.5t-17.5 -84.5h-56z" />
    <glyph glyph-name="afii10022" unicode="&#x415;" horiz-adv-x="495" 
d="M431 685l-8 -76l-249 9v-232l197 9l-7 -70l-190 7v-191q0 -43 25.5 -56t115.5 -13q87 0 157 16l-7 -63q-71 -28 -169 -28q-106 0 -161 23t-55 89v510h-48v51q118 16 258 16q18 0 66 -0.5t75 -0.5z" />
    <glyph glyph-name="afii10024" unicode="&#x416;" horiz-adv-x="897" 
d="M310 383h92v300h93v-300h92q62 170 106.5 236.5t95.5 66.5q32 0 44 -13v-68q-25 0 -44.5 -13.5t-53 -63.5t-83.5 -149q123 -219 158 -269t70 -51v-50q-27 -14 -64 -14q-70 0 -147 156q-34 70 -74 165h-100v-316h-93v316h-100q-40 -95 -74 -165q-77 -156 -147 -156
q-37 0 -64 14v50q35 1 70 51t158 269q-50 99 -83.5 149t-53 63.5t-44.5 13.5v68q12 13 44 13q51 0 95.5 -66.5t106.5 -236.5z" />
    <glyph glyph-name="afii10025" unicode="&#x417;" horiz-adv-x="484" 
d="M210 -15q-51 0 -95 11.5t-63 22.5l-18 11l12 63q71 -34 144 -34q77 0 117 32t40 104q0 62 -30.5 91.5t-112.5 29.5h-71v67h92q51 0 80 34.5t29 94.5q0 41 -27 69.5t-92 28.5q-89 0 -149 -43l-9 78q28 17 78.5 29.5t107.5 12.5q97 0 141 -46.5t44 -111.5
q0 -70 -31.5 -114.5t-83.5 -55.5v-7q63 -12 95 -47.5t32 -101.5q0 -218 -230 -218z" />
    <glyph glyph-name="afii10026" unicode="&#x418;" horiz-adv-x="639" 
d="M548 683v-619h48v-49q-42 -18 -86 -18q-19 0 -31.5 6t-17 18t-5.5 20t-1 23v462l-298 -526h-77v619h-48v50q58 17 86 17q19 0 31.5 -6t17 -18t5.5 -20t1 -23v-451l292 515h83z" />
    <glyph glyph-name="afii10027" unicode="&#x419;" horiz-adv-x="639" 
d="M548 683v-619h48v-49q-42 -18 -86 -18q-19 0 -31.5 6t-17 18t-5.5 20t-1 23v462l-298 -526h-77v619h-48v50q58 17 86 17q19 0 31.5 -6t17 -18t5.5 -20t1 -23v-451l292 515h83zM373 835h81q0 -64 -48.5 -96t-105.5 -32q-35 0 -67.5 10.5t-59 41t-26.5 76.5h80
q0 -25 20 -47t53 -22q35 0 54 21t19 48z" />
    <glyph glyph-name="afii10028" unicode="&#x41a;" horiz-adv-x="583" 
d="M173 619v-236h94q56 174 104.5 238.5t103.5 64.5q28 0 52 -13v-68q-30 0 -52.5 -13.5t-57.5 -63.5t-85 -149q116 -212 154.5 -266t79.5 -54v-50q-27 -14 -64 -14q-23 0 -40 7.5t-47 44t-66 104.5q-18 35 -42 91l-32 74h-102v-316h-93v619h-48v50q49 17 86 17
q19 0 31.5 -6t17 -18t5.5 -20t1 -23z" />
    <glyph glyph-name="afii10029" unicode="&#x41b;" horiz-adv-x="601" 
d="M254 574l-16 -140q-26 -226 -65 -331.5t-100 -105.5q-34 0 -54 25v88h41q30 0 48.5 38t33.5 131q26 161 33 343h-59v46q66 15 240 15h160v-622h42v-47q-31 -17 -80 -17q-19 0 -31.5 6t-17 18t-5.5 20t-1 23v551h-132q-21 0 -27.5 -7t-9.5 -34z" />
    <glyph glyph-name="afii10030" unicode="&#x41c;" horiz-adv-x="782" 
d="M131 569h-4l-2 -569h-79l25 622h-44v47q31 17 94 17q36 0 50 -7t23 -30l185 -500l190 534h122v-619h48v-50q-49 -17 -86 -17q-19 0 -31.5 6t-17 18t-5.5 20t-1 23v390q0 77 6 115h-4l-210 -569h-52l-173 465q-24 65 -34 104z" />
    <glyph glyph-name="afii10031" unicode="&#x41d;" horiz-adv-x="617" 
d="M526 683v-619h48v-50q-49 -17 -86 -17q-19 0 -31.5 6t-17 18t-5.5 20t-1 23v254h-260v-318h-93v619h-48v50q49 17 86 17q19 0 31.5 -6t17 -18t5.5 -20t1 -23v-233h260v297h93z" />
    <glyph glyph-name="afii10032" unicode="&#x41e;" horiz-adv-x="635" 
d="M594 341q0 -174 -69 -265t-205 -91q-141 0 -207.5 88t-66.5 268q0 81 16 143.5t42 100t63 61.5t73.5 32.5t79.5 8.5q63 0 108 -13t85 -48.5t60.5 -106.5t20.5 -178zM493 341q0 91 -12 149.5t-37.5 86t-53 36.5t-70.5 9q-24 0 -42.5 -3.5t-39.5 -13t-36.5 -29.5t-28.5 -50
t-19.5 -77t-6.5 -108q0 -146 39.5 -218.5t133.5 -72.5q173 0 173 291z" />
    <glyph glyph-name="afii10033" unicode="&#x41f;" horiz-adv-x="619" 
d="M80 0v619h-48v50q15 5 73.5 9.5t88.5 4.5h334v-619h48v-50q-49 -17 -86 -17q-19 0 -31.5 6t-17 18t-5.5 20t-1 23v551h-262v-615h-93z" />
    <glyph glyph-name="afii10034" unicode="&#x420;" horiz-adv-x="515" 
d="M392 495q0 127 -146 127q-48 0 -73 -4v-273q48 -5 78 -5q68 0 104.5 34.5t36.5 120.5zM173 0h-93v619h-48v50q12 7 94.5 12.5t141.5 5.5q217 0 217 -183q0 -118 -61 -175t-147 -57q-67 0 -104 16v-288z" />
    <glyph glyph-name="afii10035" unicode="&#x421;" horiz-adv-x="560" 
d="M342 619q-41 0 -69 -6.5t-54 -25t-40.5 -52t-23 -89t-8.5 -134.5q0 -247 190 -247q42 0 84.5 15.5t64.5 31.5l21 15l16 -63l-8.5 -8.5t-25.5 -19t-42 -24t-57 -19t-73 -8.5q-46 0 -81.5 7t-73 29.5t-61.5 60t-39.5 103.5t-15.5 156q0 66 11.5 119.5t29 88.5t43.5 61.5
t51 40.5t55 22.5t52 11t45 2.5q72 0 127 -17t55 -57q0 -55 -19 -107h-68v101q-31 12 -86 12z" />
    <glyph glyph-name="afii10036" unicode="&#x422;" horiz-adv-x="479" 
d="M22 607l5 76h431l-9 -74q-28 1 -162 8v-617h-93v617q-51 -5 -172 -10z" />
    <glyph glyph-name="afii10037" unicode="&#x423;" horiz-adv-x="532" 
d="M63 619h-44v50q35 17 64 17q41 0 67.5 -27t56.5 -101q19 -47 35 -97t33.5 -112t30.5 -101l121 431h91l-178 -494q-69 -193 -155 -193q-40 0 -60 25v71q71 0 94.5 12t37.5 48q-163 447 -194 471z" />
    <glyph glyph-name="afii10038" unicode="&#x424;" horiz-adv-x="780" 
d="M635 328q0 109 -45 158t-153 49v-424q198 0 198 217zM344 111v424q-108 0 -153 -49t-45 -158q0 -217 198 -217zM344 -69v117q-40 0 -77 6.5t-79 25t-72.5 48.5t-50.5 81.5t-20 118.5q0 148 75.5 209t223.5 61v75h-42v47q31 17 80 17q19 0 31.5 -6t17 -18t5.5 -20t1 -23
v-72q150 0 224.5 -61t74.5 -209q0 -78 -29.5 -136t-77 -87.5t-95.5 -43t-97 -13.5v-117h-93z" />
    <glyph glyph-name="afii10039" unicode="&#x425;" horiz-adv-x="523" 
d="M70 619h-48v50q35 17 74 17q44 0 73.5 -50t94.5 -219l123 266h95l-184 -331l87 -166q42 -81 63 -103.5t51 -22.5v-47q-31 -17 -60 -17q-48 0 -88 62t-101 214l-127 -272h-102l195 335q-110 238 -146 284z" />
    <glyph glyph-name="afii10040" unicode="&#x426;" horiz-adv-x="633" 
d="M521 -139v139h-441v619h-48v50q49 17 86 17q19 0 31.5 -6t17 -18t5.5 -20t1 -23v-551h262v615h93v-615h83q-3 -54 -14 -121.5t-17 -85.5h-59z" />
    <glyph glyph-name="afii10041" unicode="&#x427;" horiz-adv-x="581" 
d="M59 399v220h-48v50q49 17 86 17q19 0 31.5 -6t17 -18t5.5 -20t1 -23v-196q0 -89 95 -89t150 40v309h93v-619h48v-50q-49 -17 -86 -17q-19 0 -31.5 6t-17 18t-5.5 20t-1 23v248q-8 -6 -22.5 -14t-64.5 -22t-105 -14q-146 0 -146 137z" />
    <glyph glyph-name="afii10042" unicode="&#x428;" horiz-adv-x="884" 
d="M669 0h-595v622h-42v47q31 17 80 17q19 0 31.5 -6t17 -18t5.5 -20t1 -23v-551h223v615h93v-615h223v615h93v-622h42v-47q-25 -14 -172 -14z" />
    <glyph glyph-name="afii10043" unicode="&#x429;" horiz-adv-x="904" 
d="M792 -139v139h-718v622h-42v47q31 17 80 17q19 0 31.5 -6t17 -18t5.5 -20t1 -23v-551h223v615h93v-615h223v615h93v-615h83q-3 -54 -14 -121.5t-17 -85.5h-59z" />
    <glyph glyph-name="afii10044" unicode="&#x42a;" horiz-adv-x="648" 
d="M280 683v-287q42 21 125 21q110 0 156 -54.5t46 -161.5q0 -22 -6 -47t-23.5 -56t-44 -55.5t-74 -41t-108.5 -16.5q-164 0 -164 150v486l-154 -8l5 70h242zM514 221q0 129 -142 129q-22 0 -45 -2.5t-35 -5.5l-12 -2v-187q0 -55 21.5 -79t71.5 -24q62 0 101.5 42.5
t39.5 128.5z" />
    <glyph glyph-name="afii10045" unicode="&#x42b;" horiz-adv-x="763" 
d="M585 683h93v-622h42v-47q-31 -17 -80 -17q-19 0 -31.5 6t-17 18t-5.5 20t-1 23v619zM407 221q0 129 -142 129q-22 0 -45 -2.5t-35 -5.5l-12 -2v-187q0 -55 21.5 -79t71.5 -24q62 0 101.5 42.5t39.5 128.5zM80 135v484h-48v50q49 17 86 17q19 0 31.5 -6t17 -18t5.5 -20
t1 -23v-223q42 21 125 21q110 0 156 -54.5t46 -161.5q0 -22 -6 -47t-23.5 -56t-44 -55.5t-74 -41t-108.5 -16.5q-164 0 -164 150z" />
    <glyph glyph-name="afii10046" unicode="&#x42c;" horiz-adv-x="541" 
d="M407 221q0 129 -142 129q-22 0 -45 -2.5t-35 -5.5l-12 -2v-187q0 -55 21.5 -79t71.5 -24q62 0 101.5 42.5t39.5 128.5zM80 135v484h-48v50q49 17 86 17q19 0 31.5 -6t17 -18t5.5 -20t1 -23v-223q42 21 125 21q110 0 156 -54.5t46 -161.5q0 -22 -6 -47t-23.5 -56
t-44 -55.5t-74 -41t-108.5 -16.5q-164 0 -164 150z" />
    <glyph glyph-name="afii10047" unicode="&#x42d;" horiz-adv-x="528" 
d="M227 689q25 0 42.5 -1t47 -8t50.5 -19.5t45 -38t39 -60t25.5 -89t10.5 -122.5q0 -102 -22.5 -175t-64 -113t-90 -57.5t-108.5 -17.5q-51 0 -95 11t-63 22l-18 11l12 63q71 -31 144 -31q204 0 204 251l-255 -4v72l256 -5q0 48 -8 86t-19.5 62.5t-29.5 42t-33.5 26
t-36.5 13t-33 5.5t-28 1q-89 0 -149 -43l-9 76q71 42 186 42z" />
    <glyph glyph-name="afii10048" unicode="&#x42e;" horiz-adv-x="880" 
d="M839 341q0 -174 -69 -265.5t-205 -91.5q-137 0 -203.5 83t-70.5 251h-118v-318h-93v619h-48v50q49 17 86 17q19 0 31.5 -6t17 -18t5.5 -20t1 -23v-233h119q5 87 30.5 149t65.5 93.5t83 45t94 13.5q63 0 108 -13t85 -48.5t60.5 -106.5t20.5 -178zM738 341q0 91 -12 149.5
t-37.5 86t-53 36.5t-70.5 9q-24 0 -42.5 -3.5t-39.5 -13t-36.5 -29.5t-28.5 -50t-19.5 -77t-6.5 -108q0 -146 39.5 -219t133.5 -73q173 0 173 292z" />
    <glyph glyph-name="afii10049" unicode="&#x42f;" horiz-adv-x="554" 
d="M317 347h53v271q-32 4 -80 4q-129 0 -129 -138q0 -68 36 -102.5t120 -34.5zM463 670v-606h48v-50q-49 -17 -86 -17q-19 0 -31.5 6t-17 18t-5.5 20t-1 23v230q-29 -8 -94 -8q-53 -160 -94 -224.5t-89 -64.5q-38 0 -70 18v47q41 0 74 43.5t106 194.5q-67 23 -103 70
t-36 106q0 100 57.5 155.5t168.5 55.5q97 0 173 -17z" />
    <glyph glyph-name="afii10065" unicode="&#x430;" horiz-adv-x="459" 
d="M430 65v-45q-27 -24 -73 -24q-25 0 -40 16t-17 32l-2 17q-33 -71 -126 -71q-53 0 -90.5 33t-37.5 102q0 91 49 124t150 33h55v46q0 27 -7.5 43.5t-23.5 23t-27 8t-32 1.5q-23 0 -64.5 -9.5t-67.5 -22.5v83q75 25 163 25q43 0 72.5 -10t44 -23t22 -37.5t8.5 -40t1 -44.5
v-260h43zM298 136v90q-97 -4 -130 -18.5t-33 -68.5q0 -75 77 -75q38 0 62 23t24 49z" />
    <glyph glyph-name="afii10066" unicode="&#x431;" horiz-adv-x="500" 
d="M456 238q0 -127 -56.5 -187.5t-146.5 -60.5q-100 0 -151.5 66.5t-51.5 213.5q0 168 40 269t141 141q12 5 50.5 17.5t66.5 24.5t53 30l18 -69q-10 -37 -182 -95q-112 -39 -121 -196h6q9 39 45.5 63.5t99.5 24.5q29 0 50 -3t49 -17t46 -38t31 -71.5t13 -112.5zM368 238
q0 49 -7.5 83.5t-18 52.5t-28 27.5t-30 11.5t-31.5 2q-22 0 -39 -5.5t-36 -21t-29.5 -51t-10.5 -88.5q0 -197 115 -197q61 0 88 43.5t27 142.5z" />
    <glyph glyph-name="afii10067" unicode="&#x432;" horiz-adv-x="452" 
d="M302 340q0 43 -22 57t-67 14q-31 0 -53 -5v-139h67q46 0 60.5 20t14.5 53zM321 139q0 42 -18 58t-63 16h-80v-117q0 -44 71 -44q48 0 69 26.5t21 60.5zM205 473q37 0 64.5 -3.5t58.5 -14t48 -36t17 -63.5q0 -45 -25 -72t-63 -36v-5q107 -7 107 -104q0 -51 -32 -87
t-70.5 -49t-76.5 -13q-81 0 -120.5 19t-39.5 65v326h-42v47q24 12 83.5 19t90.5 7z" />
    <glyph glyph-name="afii10068" unicode="&#x433;" horiz-adv-x="401" 
d="M362 365q0 -56 -35.5 -88.5t-96.5 -59.5q-56 -25 -74.5 -42.5t-18.5 -54.5q0 -66 74 -66q72 0 141 44l14 -51q-67 -61 -173 -61q-153 0 -153 127q0 54 32.5 83t107.5 64q49 23 70 42t21 50q0 37 -17 49.5t-48 12.5q-62 0 -128 -42l-16 57q78 51 162 51q138 0 138 -115z
" />
    <glyph glyph-name="afii10069" unicode="&#x434;" horiz-adv-x="503" 
d="M355 382q-47 31 -102 31q-24 0 -41.5 -5.5t-36 -22.5t-28 -55.5t-9.5 -97.5q0 -101 29 -140.5t86 -39.5t81 50.5t24 178.5q0 65 -3 101zM212 634q-77 0 -128 -24v58q56 36 138 36q56 0 97 -18.5t66 -49t39.5 -79.5t19.5 -101.5t5 -122.5q0 -178 -49 -260.5t-164 -82.5
q-186 0 -186 242q0 75 18 126.5t48 75t57.5 32.5t59.5 9q68 0 122 -27q0 186 -143 186z" />
    <glyph glyph-name="afii10070" unicode="&#x435;" horiz-adv-x="439" 
d="M315 351q0 65 -76 65q-15 0 -30.5 -5t-33 -17.5t-28.5 -40t-11 -65.5q38 -6 97 -6q82 0 82 69zM243 -10q-197 0 -197 238q0 142 55 197t150 55q150 0 150 -129q0 -67 -45.5 -97t-114.5 -30q-24 0 -50.5 2t-40.5 4l-15 2q0 -54 11 -89.5t32 -51.5t40.5 -21.5t45.5 -5.5
q36 0 66 6.5t42 13.5l12 6l14 -52q-48 -48 -155 -48z" />
    <glyph glyph-name="afii10072" unicode="&#x436;" horiz-adv-x="697" 
d="M305 207h-74q-26 -67 -46 -106q-52 -106 -117 -106q-32 0 -49 17v42q24 0 52.5 37t111.5 177q-34 64 -57 91.5t-49 27.5q-16 0 -24 -2v70q17 15 44 15q84 0 149 -199h59v197h87v-197h59q65 199 149 199q27 0 44 -15v-70q-8 2 -24 2q-26 0 -49 -27.5t-57 -91.5
q83 -140 111.5 -177t52.5 -37v-42q-19 -17 -49 -17q-65 0 -117 106q-20 39 -46 106h-74v-207h-87v207z" />
    <glyph glyph-name="afii10073" unicode="&#x437;" horiz-adv-x="394" 
d="M185 480q158 0 158 -119q0 -40 -27.5 -70.5t-69.5 -38.5v-5q109 -9 109 -105q0 -70 -50 -109.5t-124 -39.5q-107 0 -154 35l14 59q64 -25 127 -25q95 0 95 77q0 39 -21 55.5t-65 16.5h-66v60h49q92 0 92 75q0 67 -74 67q-71 0 -122 -36l-17 66q63 37 146 37z" />
    <glyph glyph-name="afii10074" unicode="&#x438;" horiz-adv-x="510" 
d="M350 64v21q-51 -93 -152 -93q-24 0 -42 4.5t-37 17t-29 41t-10 71.5v274h-49v47q43 23 81 23q19 0 31.5 -6t17 -18.5t5.5 -21t1 -23.5v-243q0 -49 16.5 -69.5t57.5 -20.5q43 0 73.5 27t30.5 65v308h87v-401h49v-47q-41 -23 -81 -23q-18 0 -29 6t-15 18t-5 20t-1 23z" />
    <glyph glyph-name="afii10075" unicode="&#x439;" horiz-adv-x="510" 
d="M350 64v21q-51 -93 -152 -93q-24 0 -42 4.5t-37 17t-29 41t-10 71.5v274h-49v47q43 23 81 23q19 0 31.5 -6t17 -18.5t5.5 -21t1 -23.5v-243q0 -49 16.5 -69.5t57.5 -20.5q43 0 73.5 27t30.5 65v308h87v-401h49v-47q-41 -23 -81 -23q-18 0 -29 6t-15 18t-5 20t-1 23z
M317 644h72q0 -61 -38.5 -95.5t-99.5 -34.5q-58 0 -97.5 33.5t-39.5 96.5h72q0 -28 18 -45t47 -17q36 0 51 14.5t15 47.5z" />
    <glyph glyph-name="afii10076" unicode="&#x43a;" horiz-adv-x="471" 
d="M167 401v-130h67q65 199 149 199q27 0 44 -15v-70q-8 2 -24 2q-27 0 -51.5 -27t-58.5 -92q105 -175 127 -198q15 -16 37 -16v-42q-20 -17 -59 -17q-32 0 -56 24.5t-53 81.5q-27 53 -48 106h-74v-207h-87v400h-49v47q37 23 81 23q19 0 31.5 -6t17 -18.5t5.5 -21t1 -23.5z
" />
    <glyph glyph-name="afii10077" unicode="&#x43b;" horiz-adv-x="480" 
d="M322 404h-86q-16 0 -23 -6.5t-9 -26.5l-6 -48q-21 -179 -51 -255t-87 -76q-28 0 -38 15v86h44q21 0 36 62q20 79 36 249h-55v47q30 10 79 13.5t167 3.5h80v-407h42v-47q-31 -17 -74 -17q-19 0 -31.5 6t-17 18t-5.5 20t-1 23v340z" />
    <glyph glyph-name="afii10078" unicode="&#x43c;" horiz-adv-x="654" 
d="M496 64v313h-4q-6 -34 -16 -60l-129 -317h-48l-132 308q-14 32 -19 69h-5l9 -377h-81l9 400h-49v47q43 23 108 23q30 0 44.5 -7.5t24.5 -31.5l125 -311l139 348h111v-407h42v-47q-31 -17 -74 -17q-19 0 -31.5 6t-17 18t-5.5 20t-1 23z" />
    <glyph glyph-name="afii10079" unicode="&#x43d;" horiz-adv-x="490" 
d="M167 403v-127h165v192h87v-407h42v-47q-31 -17 -74 -17q-19 0 -31.5 6t-17 18t-5.5 20t-1 23v148h-165v-212h-87v400h-49v47q43 23 81 23q19 0 31.5 -6t17 -18t5.5 -20t1 -23z" />
    <glyph glyph-name="afii10080" unicode="&#x43e;" horiz-adv-x="500" 
d="M454 238q0 -127 -57 -187.5t-147 -60.5q-101 0 -152.5 57t-51.5 191q0 66 15 113.5t35.5 71.5t51.5 37.5t52.5 16.5t49.5 3q31 0 54 -3t53.5 -17t49.5 -38t33 -71.5t14 -112.5zM365 238q0 61 -8.5 99.5t-26.5 55t-35 21t-45 4.5q-44 0 -66.5 -12t-35.5 -51.5t-13 -116.5
q0 -102 26 -144t89 -42q62 0 88.5 41t26.5 145z" />
    <glyph glyph-name="afii10081" unicode="&#x43f;" horiz-adv-x="510" 
d="M432 330v-263h49v-47q-41 -23 -81 -23q-19 0 -31.5 6t-17 18.5t-5.5 21t-1 23.5v242q0 91 -89 91q-36 0 -62.5 -23.5t-26.5 -67.5v-308h-87v400h-49v47q33 23 75 23q24 0 38 -17t16 -35l1 -17q38 79 144 79q21 0 40 -5.5t40.5 -20t34 -46.5t12.5 -78z" />
    <glyph glyph-name="afii10082" unicode="&#x440;" horiz-adv-x="492" 
d="M357 236q0 86 -22 126t-79 40q-28 0 -47 -8.5t-27.5 -24t-11.5 -30t-3 -33.5v-238q28 -17 78 -17q55 0 83.5 40t28.5 145zM167 -217h-87v615h-49v47q33 23 75 23q24 0 38 -14t16 -28l1 -15q1 3 3 7t11.5 15t22 19t36.5 15t54 7q84 0 121 -58.5t37 -171.5
q0 -64 -12.5 -112t-30.5 -74.5t-42.5 -42.5t-44 -20.5t-38.5 -4.5q-78 0 -111 22v-229z" />
    <glyph glyph-name="afii10083" unicode="&#x441;" horiz-adv-x="412" 
d="M244 407q-25 0 -42 -6t-34 -23.5t-25.5 -55t-8.5 -94.5q0 -164 124 -164q36 0 65 6.5t39 13.5l11 6l14 -52q-48 -48 -147 -48q-98 0 -146 58t-48 180q0 252 212 252q62 0 122 -27l-16 -80q-29 20 -54.5 27t-65.5 7z" />
    <glyph glyph-name="afii10084" unicode="&#x442;" horiz-adv-x="743" 
d="M665 344v-277h49v-47q-41 -23 -81 -23q-19 0 -31.5 6t-17 18.5t-5.5 21t-1 23.5v244q0 49 -16.5 69.5t-65.5 20.5q-34 0 -57 -19.5t-23 -56.5v-324h-87v310q0 90 -78 90q-35 0 -59.5 -21t-24.5 -54v-325h-87v400h-49v47q33 23 75 23q24 0 38 -17t16 -35l1 -17
q17 40 52.5 59.5t77.5 19.5q87 0 110 -82q36 82 147 82q117 0 117 -136z" />
    <glyph glyph-name="afii10085" unicode="&#x443;" horiz-adv-x="463" 
d="M60 400h-49v47q33 23 76 23q15 0 27 -5t23 -19.5t19 -27.5t18.5 -42t17 -49.5l19.5 -62.5q42 -137 59 -209q48 149 99 413h84q-70 -273 -127 -428t-98 -208t-87 -53q-23 0 -36 10v78q62 0 86.5 17t24.5 61q0 35 -18 87l-22.5 65l-20.5 60.5l-18 51.5l-17 47.5l-14 39.5
t-13.5 36l-11.5 27.5t-11 24t-10 16.5z" />
    <glyph glyph-name="afii10086" unicode="&#x444;" horiz-adv-x="659" 
d="M525 245q0 103 -41 139t-111 36v-361q71 0 111.5 45t40.5 141zM286 59v361q-32 0 -55.5 -6t-47.5 -24t-36.5 -56.5t-12.5 -97.5q0 -177 152 -177zM286 477v136h-49v47q33 23 75 23q61 0 61 -67v-139q43 0 74.5 -4t64.5 -18t53.5 -38.5t34 -68t13.5 -103.5
q0 -58 -15 -102.5t-38.5 -71.5t-56 -44t-64 -23t-66.5 -6v-215h-87v215q-36 0 -67.5 5.5t-64 22t-55.5 42t-38 68.5t-15 100q0 70 18.5 118.5t52.5 74.5t75 37t94 11z" />
    <glyph glyph-name="afii10087" unicode="&#x445;" horiz-adv-x="417" 
d="M168 229l-95 171h-51v47q31 23 75 23q9 0 16.5 -1.5t14 -5.5t11.5 -8.5t11.5 -14t10.5 -17.5l11.5 -23.5t12.5 -27.5l14.5 -35t17.5 -40l77 171h93l-136 -226l89 -148q12 -21 22 -27.5t37 -6.5v-47q-21 -17 -58 -17q-36 0 -64.5 35t-73.5 141l-90 -172h-94z" />
    <glyph glyph-name="afii10088" unicode="&#x446;" horiz-adv-x="527" 
d="M427 0h-72l-5 85q-51 -93 -152 -93q-24 0 -42 4.5t-37 17t-29 41t-10 71.5v274h-49v47q43 23 81 23q19 0 31.5 -6t17 -18.5t5.5 -21t1 -23.5v-243q0 -49 16.5 -69.5t57.5 -20.5q43 0 73.5 27t30.5 65v308h87v-384q0 -15 4 -20t19 -5h63q-18 -146 -39 -205h-52v146z" />
    <glyph glyph-name="afii10089" unicode="&#x447;" horiz-adv-x="465" 
d="M307 64v151q-57 -42 -124 -42q-70 0 -96.5 28t-26.5 88v115h-42v47q31 17 74 17q19 0 31.5 -6t17 -18t5.5 -20t1 -23v-96q0 -63 69 -63q25 0 48 9t33 19l10 9v187h87v-405h42v-47q-31 -17 -74 -17q-19 0 -31.5 6t-17 18t-5.5 20t-1 23z" />
    <glyph glyph-name="afii10090" unicode="&#x448;" horiz-adv-x="743" 
d="M583 61q-54 -69 -136 -69q-86 0 -113 76q-18 -35 -55.5 -55.5t-80.5 -20.5q-24 0 -42 4.5t-37 17t-29 41t-10 71.5v274h-49v47q43 23 81 23q19 0 31.5 -6t17 -18.5t5.5 -21t1 -23.5v-243q0 -47 16.5 -68.5t50.5 -21.5q44 0 69.5 23.5t25.5 54.5v322h87v-310q0 -48 19 -69
t61 -21q35 0 58.5 22.5t23.5 56.5v321h87v-401h49v-47q-41 -23 -81 -23q-31 0 -40.5 15.5t-9.5 48.5z" />
    <glyph glyph-name="afii10091" unicode="&#x449;" horiz-adv-x="760" 
d="M588 0l-4 63q-54 -71 -137 -71q-86 0 -113 76q-18 -35 -55.5 -55.5t-80.5 -20.5q-24 0 -42 4.5t-37 17t-29 41t-10 71.5v274h-49v47q43 23 81 23q19 0 31.5 -6t17 -18.5t5.5 -21t1 -23.5v-243q0 -47 16.5 -68.5t50.5 -21.5q44 0 69.5 23.5t25.5 54.5v322h87v-310
q0 -48 19 -69t61 -21q35 0 58.5 22.5t23.5 56.5v321h87v-384q0 -15 4 -20t19 -5h63q-18 -146 -39 -205h-52v146h-72z" />
    <glyph glyph-name="afii10092" unicode="&#x44a;" horiz-adv-x="523" 
d="M160 115v287l-141 -6l7 72h221v-193q32 24 109 24q69 0 102.5 -37.5t33.5 -92.5q0 -50 -17 -87t-45 -56t-57 -27.5t-59 -8.5q-154 0 -154 125zM406 140q0 50 -19 75t-66 25q-21 0 -39.5 -3t-26.5 -7l-8 -3v-98q0 -77 76 -77q37 0 60 25t23 63z" />
    <glyph glyph-name="afii10093" unicode="&#x44b;" horiz-adv-x="641" 
d="M483 64v404h87v-407h42v-47q-31 -17 -74 -17q-19 0 -31.5 6t-17 18t-5.5 20t-1 23zM326 140q0 50 -19 75t-66 25q-21 0 -39.5 -3t-26.5 -7l-8 -3v-98q0 -77 76 -77q37 0 60 25t23 63zM80 115v285h-49v47q41 23 81 23q19 0 31.5 -6t17 -18.5t5.5 -21t1 -23.5v-126
q32 24 109 24q69 0 102.5 -37.5t33.5 -92.5q0 -50 -17 -87t-45 -56t-57 -27.5t-59 -8.5q-154 0 -154 125z" />
    <glyph glyph-name="afii10094" unicode="&#x44c;" horiz-adv-x="443" 
d="M326 140q0 50 -19 75t-66 25q-21 0 -39.5 -3t-26.5 -7l-8 -3v-98q0 -77 76 -77q37 0 60 25t23 63zM80 115v285h-49v47q41 23 81 23q19 0 31.5 -6t17 -18.5t5.5 -21t1 -23.5v-126q32 24 109 24q69 0 102.5 -37.5t33.5 -92.5q0 -50 -17 -87t-45 -56t-57 -27.5t-59 -8.5
q-154 0 -154 125z" />
    <glyph glyph-name="afii10095" unicode="&#x44d;" horiz-adv-x="417" 
d="M154 59q56 0 91.5 38t35.5 117l-166 -10v68l165 -6q0 75 -35.5 111t-89.5 36q-61 0 -112 -36l-17 66q63 37 146 37q199 0 199 -236q0 -115 -56.5 -184.5t-149.5 -69.5t-144 38l14 59q53 -28 119 -28z" />
    <glyph glyph-name="afii10096" unicode="&#x44e;" horiz-adv-x="709" 
d="M663 232q0 -127 -56.5 -187.5t-146.5 -60.5q-96 0 -147 51.5t-56 170.5h-97v-206h-87v406h-42v47q31 17 74 17q19 0 31.5 -6t17 -18t5.5 -20t1 -23v-133h98q4 55 20.5 96t36.5 62t49 33.5t50 15.5t46 3q30 0 54 -3.5t53.5 -18.5t49 -40t33 -73t13.5 -113zM575 232
q0 61 -8.5 100t-26 57t-35 23.5t-45.5 5.5q-64 0 -89.5 -36.5t-25.5 -149.5q0 -102 26 -144t89 -42q62 0 88.5 41t26.5 145z" />
    <glyph glyph-name="afii10097" unicode="&#x44f;" horiz-adv-x="469" 
d="M169 207l-23 6.5t-25.5 12t-26.5 21.5t-18 34.5t-8 50.5q0 145 184 145q61 0 139 -13v-397h49v-47q-41 -23 -81 -23q-19 0 -31.5 6t-17 18t-5.5 20t-1 23v128h-64l-29 -65q-29 -64 -56 -97t-64 -33q-36 0 -56 9v45q27 4 50 31.5t84 124.5zM246 417q-33 0 -60.5 -18
t-27.5 -67q0 -85 94 -85h52v164q-40 6 -58 6z" />
    <glyph glyph-name="afii10071" unicode="&#x451;" horiz-adv-x="439" 
d="M315 351q0 65 -76 65q-15 0 -30.5 -5t-33 -17.5t-28.5 -40t-11 -65.5q38 -6 97 -6q82 0 82 69zM243 -10q-197 0 -197 238q0 142 55 197t150 55q150 0 150 -129q0 -67 -45.5 -97t-114.5 -30q-24 0 -50.5 2t-40.5 4l-15 2q0 -54 11 -89.5t32 -51.5t40.5 -21.5t45.5 -5.5
q36 0 66 6.5t42 13.5l12 6l14 -52q-48 -48 -155 -48zM214 605q0 -23 -17 -40t-40 -17t-40 17t-17 40t17 40t40 17t40 -17t17 -40zM383 605q0 -23 -17 -40t-40 -17t-40 17t-17 40t17 40t40 17t40 -17t17 -40z" />
    <glyph glyph-name="afii10099" unicode="&#x452;" horiz-adv-x="480" 
d="M167 519v-142q13 32 45.5 53t73.5 21q146 0 146 -206v-174q0 -276 -122 -276q-16 0 -27.5 2.5t-14.5 4.5l-4 2v61q19 -3 32 -3q16 0 26 12t16.5 52t6.5 110v176q0 86 -21 122t-68 36q-36 0 -62.5 -23.5t-26.5 -67.5v-279h-87v519l-61 2l7 50l54 1v41h-49v47q33 23 75 23
q61 0 61 -67v-44l169 4l-7 -59q-76 0 -162 2z" />
    <glyph glyph-name="afii10100" unicode="&#x453;" horiz-adv-x="401" 
d="M362 365q0 -56 -35.5 -88.5t-96.5 -59.5q-56 -25 -74.5 -42.5t-18.5 -54.5q0 -66 74 -66q72 0 141 44l14 -51q-67 -61 -173 -61q-153 0 -153 127q0 54 32.5 83t107.5 64q49 23 70 42t21 50q0 37 -17 49.5t-48 12.5q-62 0 -128 -42l-16 57q78 51 162 51q138 0 138 -115z
M338 666q0 -17 -46.5 -56t-89.5 -60l-41 24l50 64l21.5 27.5t16 22t10.5 15.5t8 10.5t6 6t5 3.5t5 1q13 0 34 -17t21 -41z" />
    <glyph glyph-name="afii10101" unicode="&#x454;" horiz-adv-x="432" 
d="M248 407q-95 0 -108 -136l163 7l-7 -69l-158 9q3 -154 124 -154q36 0 67 6.5t43 13.5l13 6l14 -52q-48 -48 -155 -48q-98 0 -146 58t-48 180q0 252 212 252q70 0 130 -27l-16 -80q-49 34 -128 34z" />
    <glyph glyph-name="afii10102" unicode="&#x455;" horiz-adv-x="393" 
d="M193 -10q-101 0 -153 38l11 70q57 -44 134 -44q34 0 59 16.5t25 53.5q0 17 -6.5 30t-21 21.5t-27 14t-34.5 12.5t-33 12q-52 22 -75.5 49.5t-23.5 81.5q0 61 39 98t121 37q56 0 124 -28l-10 -66q-60 26 -124 26q-69 0 -69 -54q0 -29 20 -44.5t73 -36.5q40 -16 58 -24.5
t39 -24.5t29 -38t8 -54q0 -59 -41 -102.5t-122 -43.5z" />
    <glyph glyph-name="afii10103" unicode="&#x456;" horiz-adv-x="245" 
d="M178 605q0 -23 -17 -40t-40 -17t-40 17t-17 40t17 40t40 17t40 -17t17 -40zM80 66v334h-49v47q41 23 81 23q19 0 31.5 -6t17 -18.5t5.5 -21t1 -23.5v-334h49v-47q-41 -23 -81 -23q-19 0 -31.5 6t-17 18.5t-5.5 21t-1 23.5z" />
    <glyph glyph-name="afii10104" unicode="&#x457;" horiz-adv-x="245" 
d="M80 66v334h-49v47q41 23 81 23q19 0 31.5 -6t17 -18.5t5.5 -21t1 -23.5v-334h49v-47q-41 -23 -81 -23q-19 0 -31.5 6t-17 18.5t-5.5 21t-1 23.5zM95 605q0 -23 -17 -40t-40 -17t-40 17t-17 40t17 40t40 17t40 -17t17 -40zM264 605q0 -23 -17 -40t-40 -17t-40 17t-17 40
t17 40t40 17t40 -17t17 -40z" />
    <glyph glyph-name="afii10105" unicode="&#x458;" horiz-adv-x="245" 
d="M178 605q0 -23 -17 -40t-40 -17t-40 17t-17 40t17 40t40 17t40 -17t17 -40zM80 -53v453h-49v47q42 23 81 23q19 0 31.5 -6t17 -18.5t5.5 -21t1 -23.5v-405q0 -28 -0.5 -43.5t-3.5 -43t-11 -44.5t-21 -35t-35 -26.5t-51 -8.5q-16 0 -27.5 2.5t-15.5 4.5l-3 2v60
q19 -3 32 -3q49 0 49 86z" />
    <glyph glyph-name="afii10106" unicode="&#x459;" horiz-adv-x="685" 
d="M568 140q0 50 -19 75t-66 25q-21 0 -39.5 -3t-26.5 -7l-8 -3v-98q0 -77 76 -77q37 0 60 25t23 63zM204 371l-6 -48q-23 -181 -52.5 -256t-85.5 -75q-28 0 -38 15v86h44q21 0 36 62q20 79 36 249h-55v47q30 10 79 13.5t167 3.5h80v-193q32 24 109 24q69 0 102.5 -37.5
t33.5 -92.5q0 -50 -17 -87t-45 -56t-57 -27.5t-59 -8.5q-154 0 -154 125v289h-86q-16 0 -23 -6.5t-9 -26.5z" />
    <glyph glyph-name="afii10107" unicode="&#x45a;" horiz-adv-x="695" 
d="M578 140q0 50 -19 75t-66 25q-21 0 -39.5 -3t-26.5 -7l-8 -3v-98q0 -77 76 -77q37 0 60 25t23 63zM419 468v-193q32 24 109 24q69 0 102.5 -37.5t33.5 -92.5q0 -50 -17 -87t-45 -56t-57 -27.5t-59 -8.5q-154 0 -154 125v97h-165v-212h-87v400h-49v47q43 23 81 23
q19 0 31.5 -6t17 -18t5.5 -20t1 -23v-127h165v192h87z" />
    <glyph glyph-name="afii10108" unicode="&#x45b;" horiz-adv-x="510" 
d="M167 519v-130q39 74 138 74q21 0 40 -5.5t40.5 -20t34 -46.5t12.5 -78v-246h49v-47q-41 -23 -81 -23q-19 0 -31.5 6t-17 18.5t-5.5 21t-1 23.5v225q0 91 -89 91q-36 0 -62.5 -23.5t-26.5 -67.5v-291h-87v519l-61 2l7 50l54 1v41h-49v47q33 23 75 23q61 0 61 -67v-44
l169 4l-7 -59q-22 0 -162 2z" />
    <glyph glyph-name="afii10109" unicode="&#x45c;" horiz-adv-x="471" 
d="M167 401v-130h67q65 199 149 199q27 0 44 -15v-70q-8 2 -24 2q-27 0 -51.5 -27t-58.5 -92q105 -175 127 -198q15 -16 37 -16v-42q-20 -17 -59 -17q-32 0 -56 24.5t-53 81.5q-27 53 -48 106h-74v-207h-87v400h-49v47q37 23 81 23q19 0 31.5 -6t17 -18.5t5.5 -21t1 -23.5z
M343 666q0 -17 -46.5 -56t-89.5 -60l-41 24l50 64l21.5 27.5t16 22t10.5 15.5t8 10.5t6 6t5 3.5t5 1q13 0 34 -17t21 -41z" />
    <glyph glyph-name="afii10110" unicode="&#x45e;" horiz-adv-x="463" 
d="M60 400h-49v47q33 23 76 23q15 0 27 -5t23 -19.5t19 -27.5t18.5 -42t17 -49.5l19.5 -62.5q42 -137 59 -209q48 149 99 413h84q-70 -273 -127 -428t-98 -208t-87 -53q-23 0 -36 10v78q62 0 86.5 17t24.5 61q0 35 -18 87l-22.5 65l-20.5 60.5l-18 51.5l-17 47.5l-14 39.5
t-13.5 36l-11.5 27.5t-11 24t-10 16.5zM305 644h72q0 -61 -38.5 -95.5t-99.5 -34.5q-58 0 -97.5 33.5t-39.5 96.5h72q0 -28 18 -45t47 -17q36 0 51 14.5t15 47.5z" />
    <glyph glyph-name="afii10193" unicode="&#x45f;" horiz-adv-x="510" 
d="M240 -229l13 194h62l11 -194h-86zM350 64v21q-51 -93 -152 -93q-24 0 -42 4.5t-37 17t-29 41t-10 71.5v274h-49v47q43 23 81 23q19 0 31.5 -6t17 -18.5t5.5 -21t1 -23.5v-243q0 -49 16.5 -69.5t57.5 -20.5q43 0 73.5 27t30.5 65v308h87v-401h49v-47q-41 -23 -81 -23
q-18 0 -29 6t-15 18t-5 20t-1 23z" />
    <glyph glyph-name="afii10146" unicode="&#x462;" horiz-adv-x="598" 
d="M137 573v46h-48v50q49 17 86 17q19 0 31.5 -6t17 -18t5.5 -20t1 -23v-46h220l-9 -70l-211 6v-123q42 21 125 21q202 0 202 -206q0 -34 -13 -69.5t-40 -69.5t-76.5 -55.5t-114.5 -21.5q-36 0 -63.5 5.5t-55 20t-42.5 46t-15 78.5v374l-123 -8l5 72h118zM464 212
q0 54 -33 91t-109 37q-22 0 -45 -2.5t-35 -5.5l-12 -2v-177q0 -55 21.5 -79t71.5 -24q62 0 101.5 39.5t39.5 122.5z" />
    <glyph glyph-name="afii10194" unicode="&#x463;" horiz-adv-x="465" 
d="M36 465l66 1v147h-49v47q33 23 75 23q61 0 61 -67v-150l169 4l-7 -59q-22 0 -162 2v-138q32 24 109 24q69 0 102.5 -37.5t33.5 -92.5q0 -50 -17 -87t-45 -56t-57 -27.5t-59 -8.5q-154 0 -154 125v298l-73 2zM348 140q0 50 -19 75t-66 25q-21 0 -39.5 -3t-26.5 -7l-8 -3
v-98q0 -77 76 -77q37 0 60 25t23 63z" />
    <glyph glyph-name="afii10147" unicode="&#x472;" horiz-adv-x="635" 
d="M594 341q0 -174 -69 -265t-205 -91q-141 0 -207.5 88t-66.5 268q0 81 16 143.5t42 100t63 61.5t73.5 32.5t79.5 8.5q63 0 108 -13t85 -48.5t60.5 -106.5t20.5 -178zM398 272q-37 0 -94.5 29t-93.5 29q-39 0 -63 -17q4 -132 43.5 -197.5t129.5 -65.5q167 0 173 271
q-35 -49 -95 -49zM235 409q33 0 96 -29.5t97 -29.5q43 0 64 18q-2 82 -15 135t-38 78t-51.5 33t-67.5 8q-36 0 -62 -8.5t-52.5 -33t-41.5 -79t-17 -136.5q40 44 88 44z" />
    <glyph glyph-name="afii10195" unicode="&#x473;" horiz-adv-x="502" 
d="M456 238q0 -127 -56.5 -187.5t-146.5 -60.5q-101 0 -152 57t-51 191q0 66 15 113.5t35 71.5t51 37.5t52.5 16.5t49.5 3q31 0 54 -3t53 -17t49.5 -38t33 -71.5t13.5 -112.5zM138 217q2 -90 28 -127.5t87 -37.5t87.5 38.5t27.5 136.5q-24 -32 -69 -32q-22 0 -62 16.5
t-60 16.5q-26 0 -39 -11zM138 262q27 31 64 31q24 0 63 -17.5t58 -17.5q29 0 44 11q-2 50 -11 82t-26.5 45.5t-34 17.5t-42.5 4q-62 0 -87 -30t-28 -126z" />
    <glyph glyph-name="afii10148" unicode="&#x474;" horiz-adv-x="575" 
d="M321 0h-82q-54 211 -112.5 404.5t-74.5 214.5h-48v50q35 17 72 17q33 0 49.5 -15t33.5 -60t49 -164q42 -151 84 -331q41 183 73.5 298t61 174t51.5 78.5t53 19.5q23 0 29 -8v-108h-55q-27 -43 -67 -168t-117 -402z" />
    <glyph glyph-name="afii10196" unicode="&#x475;" horiz-adv-x="462" 
d="M423 470q21 0 33 -8v-79h-60q-39 -96 -112 -383h-86q-85 306 -126 400h-53v47q41 23 76 23q26 0 41.5 -15t36.5 -72t53 -179l29 -111q47 232 78 304.5t90 72.5z" />
    <glyph glyph-name="afii10050" unicode="&#x490;" horiz-adv-x="424" 
d="M173 618v-618h-93v619h-48v52q110 15 257 15q10 0 26 -0.5t28 -0.5l17 61h53l-12 -133h-71q-81 0 -157 5z" />
    <glyph glyph-name="afii10098" unicode="&#x491;" horiz-adv-x="354" 
d="M143 468h125l13 75h48q8 -54 8 -139h-170v-404h-87v404h-49v47q33 17 112 17z" />
    <glyph glyph-name="uni1E9E" unicode="&#x1e9e;" horiz-adv-x="561" 
d="M80 0v471q0 59 16.5 102t38 64t54.5 33.5t53.5 14.5t46.5 2q42 0 74.5 -9t55.5 -28.5t34 -31.5t28 -37l-161 -188q90 -10 140.5 -62t50.5 -128q0 -93 -53.5 -151t-139.5 -58q-24 0 -53.5 7.5t-43.5 18.5l18 60q26 -18 77 -18q43 0 70 34t27 100q0 69 -43.5 100.5
t-145.5 46.5v30l158 191q-39 59 -109 59q-100 0 -100 -130v-493h-93z" />
    <glyph glyph-name="uni2010" unicode="&#x2010;" horiz-adv-x="297" 
d="M252 278v-73h-205v73h205z" />
    <glyph glyph-name="uni2011" unicode="&#x2011;" horiz-adv-x="297" 
d="M252 278v-73h-205v73h205z" />
    <glyph glyph-name="figuredash" unicode="&#x2012;" 
d="M435 376v-66h-393v66h393z" />
    <glyph glyph-name="endash" unicode="&#x2013;" horiz-adv-x="488" 
d="M448 268v-66h-405v66h405z" />
    <glyph glyph-name="emdash" unicode="&#x2014;" horiz-adv-x="648" 
d="M608 268v-66h-565v66h565z" />
    <glyph glyph-name="quoteleft" unicode="&#x2018;" horiz-adv-x="175" 
d="M27 526q0 39 22.5 83.5t56.5 69.5l30 -18q-32 -43 -32 -77q0 -30 46 -67q-30 -59 -65 -59q-25 0 -41.5 21.5t-16.5 46.5z" />
    <glyph glyph-name="quoteright" unicode="&#x2019;" horiz-adv-x="175" 
d="M150 611q0 -39 -22.5 -83.5t-56.5 -69.5l-30 18q32 43 32 77q0 30 -46 67q29 59 65 59q25 0 41.5 -21.5t16.5 -46.5z" />
    <glyph glyph-name="quotesinglbase" unicode="&#x201a;" horiz-adv-x="169" 
d="M150 43q0 -39 -22.5 -83.5t-56.5 -69.5l-30 18q32 43 32 77q0 30 -46 67q29 59 65 59q25 0 41.5 -21.5t16.5 -46.5z" />
    <glyph glyph-name="quotedblleft" unicode="&#x201c;" horiz-adv-x="320" 
d="M177 527q0 40 20.5 84t53.5 69l30 -18q-32 -43 -32 -77q0 -30 46 -67q-29 -59 -60 -59q-25 0 -41.5 21.5t-16.5 46.5zM27 527q0 40 20.5 84t53.5 69l30 -18q-32 -43 -32 -77q0 -30 46 -67q-29 -59 -60 -59q-25 0 -41.5 21.5t-16.5 46.5z" />
    <glyph glyph-name="quotedblright" unicode="&#x201d;" horiz-adv-x="320" 
d="M145 612q0 -40 -20.5 -84t-53.5 -69l-30 18q32 43 32 77q0 30 -46 67q29 59 60 59q25 0 41.5 -21.5t16.5 -46.5zM295 612q0 -40 -20.5 -84t-53.5 -69l-30 18q32 43 32 77q0 30 -46 67q29 59 60 59q25 0 41.5 -21.5t16.5 -46.5z" />
    <glyph glyph-name="quotedblbase" unicode="&#x201e;" horiz-adv-x="320" 
d="M291 43q0 -39 -22.5 -83.5t-56.5 -69.5l-30 18q32 43 32 77q0 30 -46 67q30 59 65 59q25 0 41.5 -21.5t16.5 -46.5zM151 43q0 -39 -22.5 -83.5t-56.5 -69.5l-30 18q32 43 32 77q0 30 -46 67q30 59 65 59q25 0 41.5 -21.5t16.5 -46.5z" />
    <glyph glyph-name="dagger" unicode="&#x2020;" horiz-adv-x="500" 
d="M298 -21h-98l12 469l-172 -6v81l172 -6l-7 196h90l-7 -196l172 6v-81l-172 6z" />
    <glyph glyph-name="daggerdbl" unicode="&#x2021;" horiz-adv-x="500" 
d="M288 243l172 6v-81l-172 6l7 -196h-90l7 196l-172 -6v81l172 -6v205l-172 -6v81l172 -6l-7 196h90l-7 -196l172 6v-81l-172 6v-205z" />
    <glyph glyph-name="bullet" unicode="&#x2022;" horiz-adv-x="445" 
d="M385 273q0 -66 -46.5 -112.5t-112.5 -46.5t-112.5 46.5t-46.5 112.5t46.5 112.5t112.5 46.5t112.5 -46.5t46.5 -112.5z" />
    <glyph glyph-name="ellipsis" unicode="&#x2026;" horiz-adv-x="684" 
d="M151 51q0 -27 -16.5 -43t-43.5 -16t-43 17t-16 42q0 29 16.5 44.5t42.5 15.5t43 -15.5t17 -44.5zM401 51q0 -27 -16.5 -43t-43.5 -16t-43 17t-16 42q0 29 16.5 44.5t42.5 15.5t43 -15.5t17 -44.5zM641 51q0 -27 -16.5 -43t-43.5 -16t-43 17t-16 42q0 29 16.5 44.5
t42.5 15.5t43 -15.5t17 -44.5z" />
    <glyph glyph-name="perthousand" unicode="&#x2030;" horiz-adv-x="1143" 
d="M1109 181q0 -95 -46 -140t-115 -45q-67 0 -110 45t-43 140q0 49 11 84.5t27 54.5t39 30t41 14t39 3q24 0 41 -2t40.5 -13t38.5 -29.5t26 -55t11 -86.5zM1031 181q0 42 -6.5 69t-19.5 38t-24 14t-29 3q-22 0 -37 -6.5t-28 -35.5t-13 -82q0 -67 20 -95t58 -28q41 0 60 27.5
t19 95.5zM759 181q0 -95 -46 -140t-115 -45q-67 0 -110 45t-43 140q0 49 11 84.5t27 54.5t39 30t41 14t39 3q24 0 41 -2t40.5 -13t38.5 -29.5t26 -55t11 -86.5zM524 718h61l-312 -732h-61zM345 509q0 -95 -45.5 -140t-114.5 -45q-68 0 -110.5 44.5t-42.5 140.5q0 49 11 84.5
t27 54.5t39 30t41 14t39 3q30 0 52 -5t48.5 -21.5t41 -57t14.5 -102.5zM681 181q0 42 -6.5 69t-19.5 38t-24 14t-29 3q-22 0 -37 -6.5t-28 -35.5t-13 -82q0 -67 20 -95t58 -28q41 0 60 27.5t19 95.5zM268 509q0 42 -6.5 69t-20 37.5t-24 13.5t-28.5 3q-16 0 -27.5 -3.5
t-24.5 -15t-19.5 -37.5t-6.5 -67q0 -67 20 -95t58 -28q41 0 60 27.5t19 95.5z" />
    <glyph glyph-name="minute" unicode="&#x2032;" horiz-adv-x="233" 
d="M39 420l46 214q7 32 16 44.5t28 12.5q25 0 52 -11t27 -31q0 -26 -26 -70l-94 -159h-49z" />
    <glyph glyph-name="second" unicode="&#x2033;" horiz-adv-x="411" 
d="M39 420l46 214q7 32 16 44.5t28 12.5q25 0 52 -11t27 -31q0 -26 -26 -70l-94 -159h-49zM217 420l46 214q7 32 16 44.5t28 12.5q25 0 52 -11t27 -31q0 -26 -26 -70l-94 -159h-49z" />
    <glyph glyph-name="guilsinglleft" unicode="&#x2039;" horiz-adv-x="338" 
d="M153 272l126 -170l-25 -41l-210 211l210 211l25 -41z" />
    <glyph glyph-name="guilsinglright" unicode="&#x203a;" horiz-adv-x="338" 
d="M43 102l126 170l-126 170l25 41l210 -211l-210 -211z" />
    <glyph glyph-name="fraction" unicode="&#x2044;" horiz-adv-x="153" 
d="M192 718h61l-312 -732h-61z" />
    <glyph glyph-name="Euro" unicode="&#x20ac;" 
d="M423 103l2 -72q-54 -45 -150 -45q-38 0 -70 12t-62 39t-50.5 79t-26.5 125h-50l18 61h30v13q0 33 1 50h-48l17 62h35q16 144 73.5 202t155.5 58q83 0 144 -43l-23 -71q-63 39 -136 39q-47 0 -78 -39.5t-40 -145.5h231l-19 -62h-215v-19q0 -30 1 -44h193l-20 -61h-171
q6 -106 37 -143t96 -37q63 0 125 42z" />
    <glyph glyph-name="uni20B4" unicode="&#x20b4;" 
d="M58 299h106l60 59h-176l10 65h216q53 50 53 111q0 38 -19 56t-65 18q-74 0 -140 -69l-21 64q26 31 76 57.5t116 26.5q75 0 116.5 -33.5t41.5 -101.5q0 -32 -19.5 -68t-49.5 -61h100l-13 -65h-139l-54 -59h196l-13 -65h-232q-1 -1 -7.5 -9l-10 -12.5t-10 -14.5t-9.5 -18.5
t-6 -21t-3 -25.5q0 -25 19.5 -45t69.5 -20q81 0 156 59l17 -63q-22 -27 -76.5 -53t-125.5 -26q-169 0 -169 124q0 40 15 67.5t43 57.5h-63z" />
    <glyph glyph-name="uni20B8" unicode="&#x20b8;" 
d="M457 612h-443l8 71h443zM22 464l5 76h436l-9 -74q-36 1 -167 8v-474h-93v474q-51 -5 -172 -10z" />
    <glyph glyph-name="uni20BD" unicode="&#x20bd;" 
d="M173 0h-93v140h-54l10 65h44v68h-60l10 65h50v281h-48v50q12 7 87 12.5t124 5.5q213 0 213 -183q0 -130 -59.5 -180.5t-170.5 -50.5h-53v-68h205l-9 -65h-196v-140zM363 485q0 137 -138 137q-33 0 -52 -3v-281h41q82 0 115.5 35t33.5 112z" />
    <glyph glyph-name="afii61352" unicode="&#x2116;" horiz-adv-x="906" 
d="M872 513q0 -80 -36 -123t-94 -43t-94 43t-36 123q0 166 130 166t130 -166zM870 292v-60h-249v60h249zM803 513q0 68 -16 90t-45 22t-45 -22t-16 -90q0 -112 61 -112t61 112zM479 683h89l-19 -683h-81l-326 560l9 -560h-85l10 619h-42v50q31 17 94 17q29 0 42.5 -9
t28.5 -36l290 -498z" />
    <glyph glyph-name="trademark" unicode="&#x2122;" horiz-adv-x="780" 
d="M730 685v-328h29v-34q-28 -10 -52 -10q-22 0 -32 11t-10 26v261l-119 -296h-36l-123 296l4 -296h-62l12 329h-27v33q16 9 63 9q53 0 61 -21l102 -257l110 277h80zM24 636l2 47h258l-6 -46q-46 2 -92 5v-327h-65v327q-18 -2 -97 -6z" />
    <glyph glyph-name="partialdiff" unicode="&#x2202;" horiz-adv-x="499" 
d="M299 744q81 0 127 -50t46 -157q0 -63 -8 -131.5t-28.5 -144.5t-51 -135t-81 -97.5t-113.5 -38.5q-158 0 -158 182q0 81 27.5 150t83 114t129.5 45t109 -27q5 58 5 77q0 74 -23 111t-79 37q-68 0 -119 -68l-34 56q62 77 168 77zM199 52q40 0 73 37t52 92t30 104t15 88
q-27 49 -94 49q-42 0 -72.5 -22t-46 -52t-24.5 -70t-11 -65.5t-2 -49.5q0 -43 18.5 -77t61.5 -34z" />
    <glyph glyph-name="product" unicode="&#x220f;" horiz-adv-x="725" 
d="M55 793h617v-917h-108v837h-401v-837h-108v917z" />
    <glyph glyph-name="summation" unicode="&#x2211;" horiz-adv-x="702" 
d="M467 370l-318 -387h511l-28 -106h-596v78l323 398l-309 371v70h580l-8 -80h-416l261 -315v-29z" />
    <glyph glyph-name="minus" unicode="&#x2212;" horiz-adv-x="619" 
d="M65 344h488v-66h-488v66z" />
    <glyph glyph-name="uni2215" unicode="&#x2215;" horiz-adv-x="317" 
d="M-25 -158l284 918h71l-285 -918h-70z" />
    <glyph glyph-name="radical" unicode="&#x221a;" horiz-adv-x="607" 
d="M362 120l197 793h58l-242 -951h-41l-194 484l-94 -41l-17 42l182 77z" />
    <glyph glyph-name="infinity" unicode="&#x221e;" horiz-adv-x="861" 
d="M242 151q45 0 76 26.5t76 90.5q-71 144 -158 144q-58 0 -82.5 -32.5t-24.5 -95.5q0 -133 113 -133zM426 219q-39 -70 -83 -103.5t-107 -33.5q-77 0 -128 50.5t-51 153.5q0 105 53.5 154.5t134.5 49.5q65 0 111.5 -32t92.5 -108q49 140 191 140q75 0 130.5 -49.5
t55.5 -142.5q0 -100 -58.5 -158t-131.5 -58q-131 0 -210 137zM632 419q-52 0 -87.5 -30.5t-69.5 -90.5q46 -76 84 -105t87 -29q55 0 81.5 38.5t26.5 91.5q0 125 -122 125z" />
    <glyph glyph-name="integral" unicode="&#x222b;" horiz-adv-x="375" 
d="M205 761q0 -113 37 -396t37 -377q0 -80 -16 -139t-37 -88.5t-50.5 -46.5t-48 -20.5t-37.5 -3.5q-48 0 -69 30l28 70q7 -8 27.5 -14t38.5 -6q63 0 63 95q0 145 -37 418t-37 355q0 67 11 119.5t29.5 83.5t38.5 51.5t44.5 29t39.5 11.5t31 3q25 0 38.5 -6.5t25.5 -23.5
l-28 -70q-7 8 -27.5 14t-38.5 6q-63 0 -63 -95z" />
    <glyph glyph-name="approxequal" unicode="&#x2248;" horiz-adv-x="612" 
d="M431 344q23 0 40.5 7t28 21t15.5 23.5t11 25.5l35 -25q-46 -129 -133 -129q-40 0 -120 50t-128 50q-22 0 -39.5 -8.5t-28.5 -24t-16 -26t-11 -26.5l-35 25q41 137 133 137q38 0 85.5 -25t90.5 -50t72 -25zM431 154q23 0 40.5 7t28 21t15.5 23.5t11 25.5l35 -25
q-46 -129 -133 -129q-40 0 -120 50t-128 50q-64 0 -95 -85l-35 25q41 137 133 137q39 0 86 -25l90 -50t72 -25z" />
    <glyph glyph-name="notequal" unicode="&#x2260;" horiz-adv-x="619" 
d="M539 253v-67h-251l-55 -151l-42 13l50 138h-161v67h186l40 110h-226v66h250l52 143l42 -13l-48 -130h163v-66h-187l-40 -110h227z" />
    <glyph glyph-name="lessequal" unicode="&#x2264;" horiz-adv-x="619" 
d="M108 248l428 -206l-24 -51l-428 206zM72 380v22l429 213l25 -51l-359 -173l359 -173l-25 -51z" />
    <glyph glyph-name="greaterequal" unicode="&#x2265;" horiz-adv-x="619" 
d="M511 248l-428 -206l24 -51l428 206zM547 402v-22l-429 -213l-25 51l359 173l-359 173l25 51z" />
    <glyph glyph-name="lozenge" unicode="&#x25ca;" horiz-adv-x="570" 
d="M288 77l165 272l-165 278l-166 -278zM527 352l-239 -383l-240 383l240 383z" />
    <glyph glyph-name="uniF400" unicode="&#xf400;" horiz-adv-x="0" 
d="M-61 666q0 -17 -46.5 -56t-89.5 -60l-41 24l50 64l21.5 27.5t16 22t10.5 15.5t8 10.5t6 6t5 3.5t5 1q13 0 34 -17t21 -41z" />
    <glyph glyph-name="uniF401" unicode="&#xf401;" horiz-adv-x="0" 
d="M-195 831q0 -21 -53.5 -50t-103.5 -42l-29 27l62 52l26.5 23l19.5 17.5l14 12.5t10 9t6.5 5t5.5 2.5t5 0.5q10 0 23.5 -18t13.5 -39z" />
    <glyph glyph-name="uniF406" unicode="&#xf406;" horiz-adv-x="341" 
d="M173 816q41 0 61.5 13t30.5 42h55q-6 -61 -48 -94.5t-99 -33.5q-58 0 -101.5 33t-44.5 95h54q19 -55 92 -55z" />
    <glyph glyph-name="uniF408" unicode="&#xf408;" horiz-adv-x="319" 
d="M144 880h33l131 -126l-29 -33l-119 74l-118 -74l-29 33z" />
    <glyph glyph-name="uniF40A" unicode="&#xf40a;" horiz-adv-x="175" 
d="M150 611q0 -39 -22.5 -83.5t-56.5 -69.5l-30 18q32 43 32 77q0 30 -46 67q29 59 65 59q25 0 41.5 -21.5t16.5 -46.5z" />
    <glyph glyph-name="uniF40B" unicode="&#xf40b;" horiz-adv-x="192" 
d="M157 776q0 -22 -15 -36.5t-44 -14.5q-25 0 -41.5 13.5t-16.5 37.5q0 53 58 53q27 0 43 -15t16 -38z" />
    <glyph glyph-name="uniF40C" unicode="&#xf40c;" horiz-adv-x="281" 
d="M251 814q0 -46 -32.5 -79t-79.5 -33q-46 0 -78.5 33t-32.5 79t32.5 78.5t78.5 32.5t79 -32.5t33 -78.5zM192 814q0 22 -15 37.5t-38 15.5q-22 0 -37.5 -15.5t-15.5 -37.5q0 -23 15.5 -38.5t37.5 -15.5q23 0 38 15.5t15 38.5z" />
    <glyph glyph-name="uniF40D" unicode="&#xf40d;" horiz-adv-x="372" 
d="M269 792q34 0 56 50l33 -19q-8 -23 -14 -36t-17 -29.5t-28 -24.5t-40 -8q-32 0 -81 26t-77 26q-34 0 -56 -50l-33 19q8 23 14 36t17 29.5t28 24.5t40 8q32 0 85 -26t73 -26z" />
    <glyph glyph-name="dollar.fitted" unicode="&#xf5f5;" horiz-adv-x="436" 
d="M236 -82h-56v67q-162 4 -162 91q0 53 8 79h68q2 -58 20 -80.5t66 -24.5v274l-22 12q-73 38 -107 75t-34 106q0 150 163 168v85h56v-83q162 -5 162 -71q0 -48 -19 -100h-68v96q-40 9 -75 10v-223q111 -58 148 -99t37 -115q0 -83 -51.5 -135.5t-133.5 -61.5v-70zM325 181
q0 41 -21 65.5t-68 49.5v-243q89 18 89 128zM107 532q0 -38 15.5 -60t57.5 -45v191q-73 -15 -73 -86z" />
    <glyph glyph-name="Euro.fitted" unicode="&#xf5f6;" horiz-adv-x="468" 
d="M423 103l2 -72q-54 -45 -150 -45q-38 0 -70 12t-62 39t-50.5 79t-26.5 125h-50l18 61h30v13q0 33 1 50h-48l17 62h35q16 144 73.5 202t155.5 58q83 0 144 -43l-23 -71q-63 39 -136 39q-47 0 -78 -39.5t-40 -145.5h231l-19 -62h-215v-19q0 -30 1 -44h193l-20 -61h-171
q6 -106 37 -143t96 -37q63 0 125 42z" />
    <glyph glyph-name="cent.fitted" unicode="&#xf5f7;" horiz-adv-x="371" 
d="M247 -119h-56v110q-90 4 -134.5 61.5t-44.5 175.5q0 232 179 250v117h56v-116q53 -2 107 -26l-16 -80q-40 27 -91 32v-341q29 2 54 8.5t35 11.5l11 6l14 -52q-36 -36 -114 -45v-112zM100 228q0 -141 91 -161v338q-91 -16 -91 -177z" />
    <glyph glyph-name="sterling.fitted" unicode="&#xf5f8;" horiz-adv-x="473" 
d="M343 320h-119q3 -15 3 -34q0 -64 -19 -107.5t-65 -82.5l3 -4l11 5.5t9.5 5t8 3.5t9 3t9 2t12 1h15.5q25 0 68.5 -10.5t58.5 -10.5q38 0 63 63l42 -31q-28 -126 -102 -126q-31 0 -95 11t-115 11q-45 0 -102 -22l-19 60q57 29 87 71t30 111q0 50 -4 81h-86v68h69l-6 22
t-6 23.5t-5 23.5t-4 31.5t-1 36.5q0 76 44.5 119t117.5 43q78 0 141 -35l-17 -77q-53 40 -118 40q-33 0 -55 -22t-22 -61q0 -19 3 -39.5t6 -33t9.5 -36.5l9.5 -35h131v-68z" />
    <glyph glyph-name="yen.fitted" unicode="&#xf5f9;" horiz-adv-x="489" 
d="M62 619h-48v50q35 17 64 17q42 0 67 -31t66 -144q30 -83 59 -178l110 350h93l-154 -377h119v-66h-135v-64h135v-67h-135v-109h-93v109h-131v67h131v64h-131v66h118q-96 236 -135 313z" />
    <glyph glyph-name="florin.fitted" unicode="&#xf5fa;" horiz-adv-x="306" 
d="M93 -53v457h-64v64h64q0 129 29.5 183.5t106.5 54.5q37 0 70 -15v-65q-34 8 -58 8q-35 0 -48 -28t-13 -111v-27h106v-64h-106v-408q0 -28 -0.5 -43.5t-3.5 -43t-11 -44.5t-21 -35t-35 -26.5t-51 -8.5q-16 0 -27.5 2.5t-14.5 4.5l-4 2v60q19 -3 32 -3q49 0 49 86z" />
    <glyph glyph-name="uni20B4.fitted" unicode="&#xf5fb;" horiz-adv-x="459" 
d="M34 299h106l60 59h-176l10 65h216q53 50 53 111q0 38 -19 56t-65 18q-74 0 -140 -69l-21 64q26 31 76 57.5t116 26.5q75 0 116.5 -33.5t41.5 -101.5q0 -32 -19.5 -68t-49.5 -61h100l-13 -65h-139l-54 -59h196l-13 -65h-232q-1 -1 -7.5 -9l-10 -12.5t-10 -14.5t-9.5 -18.5
t-6 -21t-3 -25.5q0 -25 19.5 -45t69.5 -20q81 0 156 59l17 -63q-22 -27 -76.5 -53t-125.5 -26q-169 0 -169 124q0 40 15 67.5t43 57.5h-63z" />
    <glyph glyph-name="uni20BD.fitted" unicode="&#xf5fc;" horiz-adv-x="470" 
d="M176 0h-93v140h-54l10 65h44v68h-60l10 65h50v281h-48v50q12 7 87 12.5t124 5.5q213 0 213 -183q0 -130 -59.5 -180.5t-170.5 -50.5h-53v-68h205l-9 -65h-196v-140zM366 485q0 137 -138 137q-33 0 -52 -3v-281h41q82 0 115.5 35t33.5 112z" />
    <glyph glyph-name="uni20B8.fitted" unicode="&#xf5fd;" horiz-adv-x="464" 
d="M449 612h-443l8 71h443zM14 464l5 76h436l-9 -74q-36 1 -167 8v-474h-93v474q-51 -5 -172 -10z" />
    <glyph glyph-name="currency.fitted" unicode="&#xf5fe;" horiz-adv-x="550" 
d="M446 195l75 -69l-49 -49l-71 73q-61 -43 -128 -43t-128 43l-71 -73l-45 49l71 69q-41 58 -41 128t41 128l-71 71l45 49l71 -75q58 41 128 41t128 -41l71 73l49 -47l-75 -71q43 -61 43 -128t-43 -128zM421 323q0 63 -43.5 106.5t-104.5 43.5t-103.5 -43.5t-42.5 -106.5
t42.5 -107.5t103.5 -44.5t104.5 44.5t43.5 107.5z" />
    <glyph glyph-name="numbersign.fitted" unicode="&#xf5ff;" horiz-adv-x="489" 
d="M290 252l23 179h-117l-23 -179h117zM436 180h-103l-22 -180h-54l23 180h-115l-24 -180h-53l24 180h-99l8 72h100l22 179h-97l9 72h98l22 180h54l-23 -180h115l24 180h53l-24 -180h103l-6 -72h-107l-21 -179h101z" />
    <glyph glyph-name="uniF639" unicode="&#xf639;" horiz-adv-x="500" 
d="M445 341q0 -356 -205 -356q-105 0 -155 80.5t-50 275.5q0 103 14 172.5t42 106.5t63.5 52t85.5 15q47 0 82 -15t64 -51.5t44 -107t15 -172.5zM352 341q0 157 -24.5 219t-87.5 62q-66 0 -89 -61t-23 -220q0 -151 24 -221t88 -70t88 69.5t24 221.5z" />
    <glyph glyph-name="uniF63A" unicode="&#xf63a;" 
d="M249 687q90 0 130.5 -47t40.5 -122q0 -46 -15.5 -92.5t-36 -82t-55 -76.5t-59 -65.5l-61 -59l-49.5 -47.5h279l-11 -95h-378l6 61q158 157 218.5 250t60.5 190q0 107 -98 107q-92 0 -145 -62l-18 71q67 70 191 70z" />
    <glyph glyph-name="uniF63B" unicode="&#xf63b;" horiz-adv-x="490" 
d="M249 687q169 0 169 -147q0 -128 -106 -171v-6q42 -8 68.5 -25t37.5 -42t14 -45t3 -49q0 -97 -52 -157t-155 -60q-57 0 -103.5 14.5t-70.5 34.5l18 79q67 -55 136 -55q71 0 98.5 38.5t27.5 105.5q0 69 -18.5 97.5t-77.5 28.5h-86v61h75q52 0 74 34.5t22 80.5
q0 111 -89 111q-73 0 -142 -53l-20 65q28 27 75.5 43.5t101.5 16.5z" />
    <glyph glyph-name="uniF63C" unicode="&#xf63c;" horiz-adv-x="521" 
d="M118 226h187v312zM398 683v-457h66l-8 -76h-58v-150h-93v150v0v0v0v0v0v0v0v0v0v0v0v0v0v0v0v0v0v0v0v0v0h-1v0v0v0v0v0v0v0v0h-1v0v0v0v0h-1v0v0v0v0h-1v0v0v0h-1v0v0h-1v0v0h-1v0v0h-1v0h-1v0v0h-1v0h-1v0h-1v0h-1v0h-1v0h-1v0h-1v0h-1v0h-1v0h-1v0h-1v0h-1v0h-1v0h-1
v0h-1h-1v0h-1v0h-1h-1v0h-1h-1v0h-1h-1h-1v0h-1h-1h-1h-1v0h-1h-1h-1h-1h-1h-1h-1h-1h-1h-1h-1h-1h-1h-1h-1h-1h-1h-1h-1h-1h-1h-1h-1h-1h-1h-1h-1h-1h-1h-1h-1h-1h-1h-1h-1h-1h-1h-1h-1h-1h-1h-1h-1h-1h-1h-1h-1h-1h-1h-1h-1h-1h-1h-1h-1h-1h-1h-1h-1h-1h-1h-1h-1h-1h-1h-1
h-1h-1h-1h-1h-1h-1h-1h-1h-1h-1h-1h-1h-1h-1h-1h-1h-1h-1h-1h-1h-1h-1h-1h-1h-1h-1h-1h-1h-1h-1h-1h-1h-1h-1h-1h-1h-1h-1h-1h-1h-1h-1h-1h-1h-1h-1h-1h-1h-1h-1h-1h-1h-1h-1h-1h-1h-1h-1h-1h-1h-1h-1h-1h-1h-1h-1h-1h-1h-1h-1h-1h-1h-1h-1h-1h-1h-1h-1h-1h-1h-1h-1h-1h-1
h-1h-1h-1h-1h-1h-1h-1h-1h-1h-1h-1h-1h-1h-1h-1h-1h-1h-1h-1h-1h-1h-1h-1h-1h-1h-1h-1h-1h-1h-1h-1h-1h-1h-1h-1h-1h-1h-1h-1h-1h-1h-1h-1h-1h-1h-1h-1h-1h-1h-1h-1h-1h-1h-1h-1h-1h-1h-1h-1h-1h-1h-1h-1h-1h-1h-10v71l282 462h73z" />
    <glyph glyph-name="uniF63D" unicode="&#xf63d;" horiz-adv-x="478" 
d="M189 -15q-89 0 -132 29l14 71q53 -29 110 -29q65 0 102.5 40.5t37.5 111.5t-29.5 104t-100.5 33q-29 0 -56.5 -2.5t-40.5 -4.5l-14 -2l20 347h292l-16 -95h-212l-11 -178q38 4 69 4q29 0 52 -3t52.5 -14t49 -31t33.5 -57t14 -88q0 -98 -59 -167t-175 -69z" />
    <glyph glyph-name="uniF63E" unicode="&#xf63e;" horiz-adv-x="521" 
d="M454 221q0 -45 -11.5 -85t-35 -75t-65 -55.5t-96.5 -20.5q-44 0 -75.5 12.5t-60.5 46t-44 102t-15 170.5q0 106 16.5 180.5t48.5 115t71 58t91 17.5q78 0 121 -29l-14 -71q-31 29 -111 29q-128 0 -130 -240q17 22 53.5 38t81.5 16q175 0 175 -209zM361 217
q0 75 -27 109.5t-83 34.5q-63 0 -106 -50q0 -61 4.5 -104.5t15.5 -81t32 -56.5t52 -19q54 0 83 42.5t29 124.5z" />
    <glyph glyph-name="uniF63F" unicode="&#xf63f;" horiz-adv-x="470" 
d="M354 588h-318l14 95h370l-4 -62l-241 -621h-97z" />
    <glyph glyph-name="uniF640" unicode="&#xf640;" horiz-adv-x="487" 
d="M437 183q0 -26 -4.5 -50.5t-19 -52.5t-37 -48t-62 -33.5t-91.5 -13.5q-58 0 -99 17.5t-60.5 47t-27 56.5t-7.5 56q0 138 138 190q-118 58 -118 175q0 26 8 50.5t27.5 51t60 42.5t97.5 16q53 0 90 -14.5t55.5 -38.5t26 -48t7.5 -50q0 -70 -36.5 -113t-83.5 -66
q136 -46 136 -174zM333 522q0 100 -100 100q-93 0 -93 -100q0 -79 113 -134q80 53 80 134zM342 167q0 59 -31 95.5t-88 60.5q-107 -46 -107 -150q0 -56 29 -89.5t88 -33.5q56 0 82.5 33t26.5 84z" />
    <glyph glyph-name="uniF641" unicode="&#xf641;" horiz-adv-x="501" 
d="M43 451q0 104 50 170t158 66q43 0 75.5 -12t61 -43t43.5 -93t15 -154q0 -117 -16.5 -197.5t-48.5 -123.5t-71 -61t-91 -18q-77 0 -121 29l14 71q31 -29 111 -29q128 0 130 240q-17 -22 -53.5 -38t-81.5 -16q-175 0 -175 209zM136 455q0 -75 27 -109.5t83 -34.5
q63 0 106 50q0 139 -21.5 200t-82.5 61q-54 0 -83 -42.5t-29 -124.5z" />
    <glyph glyph-name="uniF643" unicode="&#xf643;" 
d="M456 233q0 -117 -58 -180t-159 -63q-34 0 -60.5 3.5t-58.5 18t-52.5 39.5t-35 71.5t-14.5 110.5q0 67 14.5 115.5t35 73.5t53.5 38.5t57.5 16.5t60.5 3q33 0 60 -4.5t57.5 -20t51 -41.5t34.5 -72.5t14 -108.5zM363 233q0 99 -31.5 140.5t-92.5 41.5q-41 0 -67 -12.5
t-43.5 -54t-17.5 -115.5q0 -178 128 -178q66 0 95 45t29 133z" />
    <glyph glyph-name="uniF644" unicode="&#xf644;" 
d="M231 0v397h-82v47q19 11 61.5 24t76.5 13q24 0 30.5 -13.5t6.5 -53.5v-414h-93z" />
    <glyph glyph-name="uniF645" unicode="&#xf645;" 
d="M251 480q171 0 171 -144q0 -41 -19 -76.5t-56 -65t-76.5 -52t-96.5 -47.5h263l-11 -95h-390l6 61q173 107 226 157t53 108q0 43 -23 61t-75 18q-91 0 -145 -64l-18 71q65 68 191 68z" />
    <glyph glyph-name="uniF646" unicode="&#xf646;" 
d="M241 480q169 0 169 -147q0 -128 -106 -171v-6q42 -8 68.5 -25t37.5 -42t14 -45t3 -49q0 -97 -52 -157t-155 -60q-57 0 -103.5 14.5t-70.5 34.5l18 79q67 -55 136 -55q71 0 98.5 38.5t27.5 105.5q0 69 -18.5 97.5t-77.5 28.5h-86v61h75q52 0 74 34.5t22 80.5
q0 111 -89 111q-73 0 -142 -53l-20 65q28 27 75.5 43.5t101.5 16.5z" />
    <glyph glyph-name="uniF647" unicode="&#xf647;" 
d="M110 76h182v244zM385 468v-392h66l-8 -76h-58v-217h-93v217h-269l5 71l284 397h73z" />
    <glyph glyph-name="uniF648" unicode="&#xf648;" 
d="M186 -222q-88 0 -132 29l14 71q53 -29 110 -29q65 0 102.5 40.5t37.5 111.5t-29.5 104t-100.5 33q-29 0 -56.5 -2t-41.5 -4l-13 -3l20 339h292l-16 -95h-212l-11 -170q38 4 69 4q29 0 52 -3t52.5 -14t49 -31t33.5 -57t14 -88q0 -98 -59 -167t-175 -69z" />
    <glyph glyph-name="uniF649" unicode="&#xf649;" 
d="M438 221q0 -45 -11.5 -85t-35 -75t-65 -55.5t-96.5 -20.5q-44 0 -75.5 12.5t-60.5 46t-44 102t-15 170.5q0 106 16.5 180.5t48.5 115t71 58t91 17.5q78 0 121 -29l-14 -71q-31 29 -111 29q-128 0 -130 -240q17 22 53.5 38t81.5 16q175 0 175 -209zM345 217
q0 75 -27 109.5t-83 34.5q-63 0 -106 -50q0 -61 4.5 -104.5t15.5 -81t32 -56.5t52 -19q54 0 83 42.5t29 124.5z" />
    <glyph glyph-name="uniF64A" unicode="&#xf64a;" 
d="M361 374l-314 -6l14 100h366l-4 -62l-241 -623h-97z" />
    <glyph glyph-name="uniF64B" unicode="&#xf64b;" 
d="M441 183q0 -26 -4.5 -50.5t-19 -52.5t-37 -48t-62 -33.5t-91.5 -13.5q-58 0 -99 17.5t-60.5 47t-27 56.5t-7.5 56q0 138 138 190q-118 58 -118 175q0 26 8 50.5t27.5 51t60 42.5t97.5 16q53 0 90 -14.5t55.5 -38.5t26 -48t7.5 -50q0 -70 -36.5 -113t-83.5 -66
q136 -46 136 -174zM337 522q0 100 -100 100q-93 0 -93 -100q0 -79 113 -134q80 53 80 134zM346 167q0 59 -31 95.5t-88 60.5q-107 -46 -107 -150q0 -56 29 -89.5t88 -33.5q56 0 82.5 33t26.5 84z" />
    <glyph glyph-name="uniF64C" unicode="&#xf64c;" 
d="M35 244q0 104 50 170t158 66q43 0 75.5 -12t61 -43t43.5 -93t15 -154q0 -117 -16.5 -197.5t-48.5 -123.5t-71 -61t-91 -18q-77 0 -121 29l14 71q31 -29 111 -29q128 0 130 240q-17 -23 -53.5 -38.5t-81.5 -15.5q-175 0 -175 209zM128 248q0 -75 27 -109.5t83 -34.5
q63 0 106 50q0 139 -21.5 200t-82.5 61q-54 0 -83 -42.5t-29 -124.5z" />
    <glyph glyph-name="uniF6BA" unicode="&#xf6ba;" horiz-adv-x="297" 
d="M252 379v-73h-205v73h205z" />
    <glyph glyph-name="uniF6BB" unicode="&#xf6bb;" horiz-adv-x="488" 
d="M448 376v-66h-405v66h405z" />
    <glyph glyph-name="uniF6BC" unicode="&#xf6bc;" horiz-adv-x="648" 
d="M608 376v-66h-565v66h565z" />
    <glyph glyph-name="uniF6C3" unicode="&#xf6c3;" horiz-adv-x="301" 
d="M220 -109q0 -37 -23.5 -79.5t-72.5 -77.5l-25 27q29 36 29 75q0 41 -38 65q24 53 77 53q25 0 39 -13t14 -50z" />
    <glyph glyph-name="uniF6C9" unicode="&#xf6c9;" horiz-adv-x="231" 
d="M212 831q0 -21 -53.5 -50t-103.5 -42l-29 27l62 52l26.5 23l19.5 17.5l14 12.5t10 9t6.5 5t5.5 2.5t5 0.5q10 0 23.5 -18t13.5 -39z" />
    <glyph glyph-name="uniF6CA" unicode="&#xf6ca;" horiz-adv-x="320" 
d="M177 721h-33l-131 126l29 33l118 -74l119 74l29 -33z" />
    <glyph glyph-name="uniF6CB" unicode="&#xf6cb;" horiz-adv-x="343" 
d="M151 776q0 -21 -14 -34.5t-41 -13.5q-24 0 -39 12.5t-15 35.5q0 49 54 49q25 0 40 -14t15 -35zM294 776q0 -48 -54 -48q-26 0 -40.5 13.5t-14.5 34.5q0 22 14.5 35.5t40.5 13.5q25 0 39.5 -14t14.5 -35z" />
    <glyph glyph-name="uniF6CE" unicode="&#xf6ce;" horiz-adv-x="231" 
d="M26 831q0 21 13.5 39t23.5 18q3 0 5 -0.5t5.5 -2.5t6.5 -5t10 -9l14 -12.5l19.5 -17.5l26.5 -23l62 -52l-29 -27q-50 13 -103.5 42t-53.5 50z" />
    <glyph glyph-name="uniF6CF" unicode="&#xf6cf;" horiz-adv-x="437" 
d="M212 851q0 -21 -53.5 -50t-103.5 -42l-29 27l62 52l26.5 23l19.5 17.5l14 12.5t10 9t6.5 5t5.5 2.5t5 0.5q10 0 23.5 -18t13.5 -39zM397 851q0 -21 -53.5 -50t-103.5 -42l-29 27l62 52l26.5 23l19.5 17.5l14 12.5t10 9t6.5 5t5.5 2.5t5 0.5q10 0 23.5 -18t13.5 -39z" />
    <glyph glyph-name="uniF6D0" unicode="&#xf6d0;" horiz-adv-x="282" 
d="M283 751h-274v64h274v-64z" />
    <glyph glyph-name="uniF6D1" unicode="&#xf6d1;" horiz-adv-x="359" 
d="M253 835h81q0 -64 -48.5 -96t-105.5 -32q-35 0 -67.5 10.5t-59 41t-26.5 76.5h80q0 -25 20 -47t53 -22q35 0 54 21t19 48z" />
    <glyph glyph-name="uniF6D4" unicode="&#xf6d4;" horiz-adv-x="334" 
d="M238 644h72q0 -61 -38.5 -95.5t-99.5 -34.5q-58 0 -97.5 33.5t-39.5 96.5h72q0 -28 18 -45t47 -17q36 0 51 14.5t15 47.5z" />
    <glyph glyph-name="uniF6DC" unicode="&#xf6dc;" horiz-adv-x="350" 
d="M146 0v602h-82v47q19 11 61.5 24t76.5 13q24 0 30.5 -13.5t6.5 -53.5v-619h-93z" />
    <glyph glyph-name="uniF730" unicode="&#xf730;" horiz-adv-x="531" 
d="M486 233q0 -117 -58 -180t-159 -63q-34 0 -60.5 3.5t-58.5 18t-52.5 39.5t-35 71.5t-14.5 110.5q0 67 14.5 115.5t35 73.5t53.5 38.5t57.5 16.5t60.5 3q33 0 60 -4.5t57.5 -20t51 -41.5t34.5 -72.5t14 -108.5zM393 233q0 99 -31.5 140.5t-92.5 41.5q-41 0 -67 -12.5
t-43.5 -54t-17.5 -115.5q0 -178 128 -178q66 0 95 45t29 133z" />
    <glyph glyph-name="uniF731" unicode="&#xf731;" horiz-adv-x="378" 
d="M153 0v397h-82v47q19 11 61.5 24t76.5 13q24 0 30.5 -13.5t6.5 -53.5v-414h-93z" />
    <glyph glyph-name="uniF732" unicode="&#xf732;" horiz-adv-x="487" 
d="M255 480q171 0 171 -144q0 -41 -19 -76.5t-56 -65t-76.5 -52t-96.5 -47.5h263l-11 -95h-390l6 61q173 107 226 157t53 108q0 43 -23 61t-75 18q-91 0 -145 -64l-18 71q65 68 191 68z" />
    <glyph glyph-name="uniF733" unicode="&#xf733;" horiz-adv-x="487" 
d="M246 480q169 0 169 -147q0 -128 -106 -171v-6q42 -8 68.5 -25t37.5 -42t14 -45t3 -49q0 -97 -52 -157t-155 -60q-57 0 -103.5 14.5t-70.5 34.5l18 79q67 -55 136 -55q71 0 98.5 38.5t27.5 105.5q0 69 -18.5 97.5t-77.5 28.5h-86v61h75q52 0 74 34.5t22 80.5
q0 111 -89 111q-73 0 -142 -53l-20 65q28 27 75.5 43.5t101.5 16.5z" />
    <glyph glyph-name="uniF734" unicode="&#xf734;" horiz-adv-x="487" 
d="M118 76h182v244zM393 468v-392h66l-8 -76h-58v-217h-93v217h-269l5 71l284 397h73z" />
    <glyph glyph-name="uniF735" unicode="&#xf735;" horiz-adv-x="487" 
d="M189 -222q-89 0 -132 29l14 71q53 -29 110 -29q65 0 102.5 40.5t37.5 111.5t-29.5 104t-100.5 33q-29 0 -56.5 -2t-40.5 -4l-14 -3l20 339h292l-16 -95h-212l-11 -170q38 4 69 4q29 0 52 -3t52.5 -14t49 -31t33.5 -57t14 -88q0 -98 -59 -167t-175 -69z" />
    <glyph glyph-name="uniF736" unicode="&#xf736;" horiz-adv-x="487" 
d="M441 221q0 -45 -11.5 -85t-35 -75t-65 -55.5t-96.5 -20.5q-44 0 -75.5 12.5t-60.5 46t-44 102t-15 170.5q0 106 16.5 180.5t48.5 115t71 58t91 17.5q77 0 121 -29l-14 -71q-31 29 -111 29q-128 0 -130 -240q17 22 53.5 38t81.5 16q175 0 175 -209zM348 217
q0 75 -27 109.5t-83 34.5q-63 0 -106 -50q0 -61 4.5 -104.5t15.5 -81t32 -56.5t52 -19q54 0 83 42.5t29 124.5z" />
    <glyph glyph-name="uniF737" unicode="&#xf737;" horiz-adv-x="468" 
d="M364 374l-314 -6l14 100h366l-4 -62l-241 -623h-97z" />
    <glyph glyph-name="uniF738" unicode="&#xf738;" horiz-adv-x="487" 
d="M437 183q0 -26 -4.5 -50.5t-19 -52.5t-37 -48t-62 -33.5t-91.5 -13.5q-58 0 -99 17.5t-60.5 47t-27 56.5t-7.5 56q0 138 138 190q-118 58 -118 175q0 26 8 50.5t27.5 51t60 42.5t97.5 16q53 0 90 -14.5t55.5 -38.5t26 -48t7.5 -50q0 -70 -36.5 -113t-83.5 -66
q136 -46 136 -174zM333 522q0 100 -100 100q-93 0 -93 -100q0 -79 113 -134q80 53 80 134zM342 167q0 59 -31 95.5t-88 60.5q-107 -46 -107 -150q0 -56 29 -89.5t88 -33.5q56 0 82.5 33t26.5 84z" />
    <glyph glyph-name="uniF739" unicode="&#xf739;" horiz-adv-x="487" 
d="M33 244q0 104 50 170t158 66q43 0 75.5 -12t61 -43t43.5 -93t15 -154q0 -117 -16.5 -197.5t-48.5 -123.5t-71 -61t-91 -18q-77 0 -121 29l14 71q31 -29 111 -29q128 0 130 240q-17 -23 -53.5 -38.5t-81.5 -15.5q-175 0 -175 209zM126 248q0 -75 27 -109.5t83 -34.5
q63 0 106 50q0 139 -21.5 200t-82.5 61q-54 0 -83 -42.5t-29 -124.5z" />
    <glyph glyph-name="uniFEFF" unicode="&#xfeff;" horiz-adv-x="0" 
 />
    <glyph glyph-name="afii10069.ss01" horiz-adv-x="510" 
d="M103 0l-21 -146h-52q-11 49 -18 210h67q25 61 47.5 158t30.5 182h-55v47q30 10 79 13.5t167 3.5h80v-404h73q-5 -121 -39 -210h-52v146h-307zM149 64h192v340h-114q-21 -227 -78 -340z" />
    <glyph glyph-name="afii10100.ss01" horiz-adv-x="345" 
d="M80 0v400h-49v47q28 23 89 23h187v-70q-14 0 -140 6v-406h-87zM303 666q0 -17 -46.5 -56t-89.5 -60l-41 24l50 64l21.5 27.5t16 22t10.5 15.5t8 10.5t6 6t5 3.5t5 1q13 0 34 -17t21 -41z" />
    <glyph glyph-name="afii10076.ss01" horiz-adv-x="473" 
d="M167 0h-87v400h-49v47q37 23 81 23q19 0 31.5 -6t17 -18.5t5.5 -21t1 -23.5v-129h52q21 0 30 10t23 49q30 85 54 112t61 27q26 -3 33 -8v-83h-46l-26 -65q-11 -30 -24 -43.5t-35 -18.5v-5q45 -6 73 -73l32 -77q8 -20 18 -24.5t34 -4.5v-60q-26 -13 -52 -13q-32 0 -50 17
t-38 68l-39 103q-7 19 -14 24t-27 5h-59v-212z" />
    <glyph glyph-name="afii10109.ss01" horiz-adv-x="473" 
d="M167 0h-87v400h-49v47q37 23 81 23q19 0 31.5 -6t17 -18.5t5.5 -21t1 -23.5v-129h52q21 0 30 10t23 49q30 85 54 112t61 27q26 -3 33 -8v-83h-46l-26 -65q-11 -30 -24 -43.5t-35 -18.5v-5q45 -6 73 -73l32 -77q8 -20 18 -24.5t34 -4.5v-60q-26 -13 -52 -13q-32 0 -50 17
t-38 68l-39 103q-7 19 -14 24t-27 5h-59v-212zM368 666q0 -17 -46.5 -56t-89.5 -60l-41 24l50 64l21.5 27.5t16 22t10.5 15.5t8 10.5t6 6t5 3.5t5 1q13 0 34 -17t21 -41z" />
    <glyph glyph-name="afii10024.ss01" horiz-adv-x="857" 
d="M382 384v299h93v-299h66q24 0 41.5 18t41.5 78l29 76q28 75 48 102.5t59 27.5q28 0 44 -8v-95h-56l-34 -98q-39 -112 -97 -129v-7q52 -8 82 -72l55 -121q25 -56 41 -69.5t45 -13.5v-61q-23 -14 -52 -14q-45 0 -72 30.5t-61 110.5l-49 116q-18 42 -29 53t-37 11h-65v-319
h-93v319h-65q-26 0 -37 -11t-29 -53l-49 -116q-34 -80 -61 -110.5t-72 -30.5q-29 0 -52 14v61q29 0 45 13.5t41 69.5l55 121q30 64 82 72v7q-58 17 -97 129l-34 98h-56v95q16 8 44 8q39 0 59 -27.5t48 -102.5l29 -76q24 -60 41.5 -78t41.5 -18h66z" />
    <glyph glyph-name="afii10081.ss01" horiz-adv-x="510" 
d="M345 404h-178v-404h-87v404h-49v47q23 17 81 17h320v-401h49v-47q-41 -23 -81 -23q-19 0 -31.5 6t-17 18.5t-5.5 21t-1 23.5v338z" />
    <glyph glyph-name="afii10074.ss01" horiz-adv-x="514" 
d="M354 351l-196 -351h-78v400h-49v47q43 23 81 23q19 0 31.5 -6t17 -18.5t5.5 -21t1 -23.5v-262l182 329h87v-401h49v-47q-41 -23 -81 -23q-18 0 -29 6t-15 18t-5 20t-1 23v287z" />
    <glyph glyph-name="afii10097.ss01" horiz-adv-x="469" 
d="M246 417q-33 0 -60.5 -18t-27.5 -67q0 -85 94 -85h52v164q-40 6 -58 6zM90 104l28 55q20 38 51 48v4q-101 26 -101 121q0 145 184 145q61 0 139 -13v-397h49v-47q-41 -23 -81 -23q-19 0 -31.5 6t-17 18t-5.5 20t-1 23v128h-60q-14 0 -23 -8.5t-19 -34.5l-28 -72
q-19 -49 -39.5 -65.5t-54.5 -16.5q-26 0 -52 13v60q24 0 37.5 7t24.5 29z" />
    <glyph glyph-name="afii10061.ss01" horiz-adv-x="577" 
d="M80 0v619h-48v50q49 17 86 17q19 0 31.5 -6t17 -18t5.5 -20t1 -23v-235h77q24 0 41.5 18t41.5 78l29 76q28 75 48 102.5t59 27.5q28 0 44 -8v-95h-56l-34 -98q-39 -112 -97 -129v-7q52 -8 82 -72l55 -121q25 -56 41 -69.5t45 -13.5v-61q-23 -14 -52 -14q-45 0 -72 30.5
t-61 110.5l-49 116q-18 42 -29 53t-37 11h-76v-319h-93zM405 831q0 -21 -53.5 -50t-103.5 -42l-29 27l62 52l26.5 23l19.5 17.5l14 12.5t10 9t6.5 5t5.5 2.5t5 0.5q10 0 23.5 -18t13.5 -39z" />
    <glyph glyph-name="afii10097.var.accented.ss01" horiz-adv-x="469" 
d="M246 417q-33 0 -60.5 -18t-27.5 -67q0 -85 94 -85h52v164q-40 6 -58 6zM90 104l28 55q20 38 51 48v4q-101 26 -101 121q0 145 184 145q61 0 139 -13v-397h49v-47q-41 -23 -81 -23q-19 0 -31.5 6t-17 18t-5.5 20t-1 23v128h-60q-14 0 -23 -8.5t-19 -34.5l-28 -72
q-19 -49 -39.5 -65.5t-54.5 -16.5q-26 0 -52 13v60q24 0 37.5 7t24.5 29zM393 666q0 -17 -46.5 -56t-89.5 -60l-41 24l50 64l21.5 27.5t16 22t10.5 15.5t8 10.5t6 6t5 3.5t5 1q13 0 34 -17t21 -41z" />
    <glyph glyph-name="afii10072.ss01" horiz-adv-x="679" 
d="M254 272l42 -1v197h87v-196h42q21 0 30 10t23 49q30 85 54 112t61 27q26 -3 33 -8v-83h-46l-26 -65q-11 -30 -24 -43.5t-35 -18.5v-5q45 -6 73 -73l32 -77q8 -20 18 -24.5t34 -4.5v-60q-26 -13 -52 -13q-32 0 -50 17t-38 68l-39 103q-7 19 -14 24t-27 5h-49v-212h-87v212
h-49q-20 0 -27 -5t-14 -24l-39 -103q-20 -51 -38 -68t-50 -17q-26 0 -52 13v60q17 0 24.5 1t14.5 7.5t13 20.5l32 77q28 67 73 73v5q-22 5 -35 18.5t-24 43.5l-26 65h-46v83q7 5 33 8q37 0 61 -27t54 -112q14 -39 23 -48.5t30 -10.5z" />
    <glyph glyph-name="afii10091.ss01" horiz-adv-x="750" 
d="M650 -146v146h-570v400h-49v47q43 23 81 23q19 0 31.5 -6t17 -18.5t5.5 -21t1 -23.5v-337h157v404h87v-404h157v404h87v-404h86q-5 -121 -39 -210h-52z" />
    <glyph glyph-name="afii10049.ss01" horiz-adv-x="535" 
d="M222 324v4q-85 3 -125.5 49.5t-40.5 112.5q0 44 10.5 77t37.5 61.5t79 43.5t128 15q75 0 141 -11v-617h43v-47q-32 -15 -79 -15q-21 0 -31.5 9t-12 19.5t-1.5 32.5v247h-86q-27 0 -40 -17.5t-37 -73.5l-48 -115q-24 -57 -46 -80t-51 -23q-34 0 -57 14v49q28 0 42 12
t36 60l48 106q17 38 36 58t54 29zM316 356h55v269q-31 6 -85 6q-144 0 -144 -132q0 -68 36 -105.5t138 -37.5z" />
    <glyph glyph-name="afii10049.var.accented.ss01" horiz-adv-x="535" 
d="M222 328v-4q-35 -9 -54 -29t-36 -58l-48 -106q-22 -48 -36 -60t-42 -12v-49q23 -14 57 -14q29 0 51 23t46 80l48 115q13 31 18.5 43t15 26t19 18t24.5 4h86v-247q0 -22 1.5 -32.5t12 -19.5t31.5 -9q47 0 79 15v47h-43v617q-66 11 -141 11q-76 0 -128 -15t-79 -43.5
t-37.5 -61.5t-10.5 -77q0 -66 40.5 -112.5t125.5 -49.5zM371 356h-55q-102 0 -138 37.5t-36 105.5q0 132 144 132q54 0 85 -6v-269zM394 831q0 -21 -53.5 -50t-103.5 -42l-29 27l62 52l26.5 23l19.5 17.5l14 12.5t10 9t6.5 5t5.5 2.5t5 0.5q10 0 23.5 -18t13.5 -39z" />
    <glyph glyph-name="afii10075.ss01" horiz-adv-x="514" 
d="M354 351l-196 -351h-78v400h-49v47q43 23 81 23q19 0 31.5 -6t17 -18.5t5.5 -21t1 -23.5v-262l182 329h87v-401h49v-47q-41 -23 -81 -23q-18 0 -29 6t-15 18t-5 20t-1 23v287zM319 644h72q0 -61 -38.5 -95.5t-99.5 -34.5q-58 0 -97.5 33.5t-39.5 96.5h72q0 -28 18 -45
t47 -17q36 0 51 14.5t15 47.5z" />
    <glyph glyph-name="afii10084.ss01" horiz-adv-x="391" 
d="M22 398v70h347v-70q-4 0 -130 6v-404h-87v404q-56 -6 -130 -6z" />
    <glyph glyph-name="afii10088.ss01" horiz-adv-x="527" 
d="M427 0h-347v400h-49v47q43 23 81 23q19 0 31.5 -6t17 -18.5t5.5 -21t1 -23.5v-337h178v404h87v-404h86q-5 -121 -39 -210h-52v146z" />
    <glyph glyph-name="afii10090.ss01" horiz-adv-x="733" 
d="M602 0h-522v400h-49v47q43 23 81 23q19 0 31.5 -6t17 -18.5t5.5 -21t1 -23.5v-337h157v404h87v-404h157v404h87v-398h49v-47q-41 -23 -102 -23z" />
    <glyph glyph-name="afii10068.ss01" horiz-adv-x="345" 
d="M80 0v400h-49v47q28 23 89 23h187v-70q-14 0 -140 6v-406h-87z" />
    <glyph glyph-name="afii10028.ss01" horiz-adv-x="577" 
d="M80 0v619h-48v50q49 17 86 17q19 0 31.5 -6t17 -18t5.5 -20t1 -23v-235h77q24 0 41.5 18t41.5 78l29 76q28 75 48 102.5t59 27.5q28 0 44 -8v-95h-56l-34 -98q-39 -112 -97 -129v-7q52 -8 82 -72l55 -121q25 -56 41 -69.5t45 -13.5v-61q-23 -14 -52 -14q-45 0 -72 30.5
t-61 110.5l-49 116q-18 42 -29 53t-37 11h-76v-319h-93z" />
    </font>
</defs>
</svg>
